G04*
G04 #@! TF.GenerationSoftware,Altium Limited,Altium Designer,18.1.7 (191)*
G04*
G04 Layer_Color=8388736*
%FSLAX43Y43*%
%MOMM*%
G71*
G01*
G75*
%ADD24C,1.473*%
%ADD25R,1.553X0.603*%
%ADD26R,0.803X1.303*%
%ADD27R,1.403X1.403*%
%ADD28R,1.203X1.153*%
%ADD29R,1.153X1.203*%
%ADD30R,2.103X2.003*%
%ADD31C,1.903*%
%ADD32R,1.903X1.903*%
G04:AMPARAMS|DCode=33|XSize=2.303mm|YSize=2.103mm|CornerRadius=0.596mm|HoleSize=0mm|Usage=FLASHONLY|Rotation=90.000|XOffset=0mm|YOffset=0mm|HoleType=Round|Shape=RoundedRectangle|*
%AMROUNDEDRECTD33*
21,1,2.303,0.912,0,0,90.0*
21,1,1.112,2.103,0,0,90.0*
1,1,1.191,0.456,0.556*
1,1,1.191,0.456,-0.556*
1,1,1.191,-0.456,-0.556*
1,1,1.191,-0.456,0.556*
%
%ADD33ROUNDEDRECTD33*%
G04:AMPARAMS|DCode=34|XSize=1.253mm|YSize=1.453mm|CornerRadius=0.627mm|HoleSize=0mm|Usage=FLASHONLY|Rotation=270.000|XOffset=0mm|YOffset=0mm|HoleType=Round|Shape=RoundedRectangle|*
%AMROUNDEDRECTD34*
21,1,1.253,0.200,0,0,270.0*
21,1,0.000,1.453,0,0,270.0*
1,1,1.253,-0.100,0.000*
1,1,1.253,-0.100,0.000*
1,1,1.253,0.100,0.000*
1,1,1.253,0.100,0.000*
%
%ADD34ROUNDEDRECTD34*%
G36*
X3463Y7501D02*
X3476Y7498D01*
X3489Y7494D01*
X3501Y7488D01*
X3512Y7481D01*
X3522Y7472D01*
X3531Y7462D01*
X3538Y7451D01*
X3544Y7439D01*
X3548Y7426D01*
X3551Y7413D01*
X3552Y7400D01*
Y5800D01*
X3552Y5796D01*
X3551Y5792D01*
X3547Y5744D01*
X3547Y5741D01*
X3547Y5739D01*
X3540Y5686D01*
X3540Y5685D01*
X3540Y5684D01*
X3539Y5678D01*
X3537Y5673D01*
X3537Y5672D01*
X3537Y5671D01*
X3522Y5618D01*
X3521Y5614D01*
X3519Y5610D01*
X3503Y5567D01*
X3502Y5563D01*
X3500Y5559D01*
X3480Y5517D01*
X3477Y5512D01*
X3474Y5506D01*
X3446Y5462D01*
X3443Y5459D01*
X3441Y5455D01*
X3412Y5417D01*
X3410Y5415D01*
X3408Y5412D01*
X3374Y5373D01*
X3372Y5371D01*
X3371Y5370D01*
X3367Y5367D01*
X3364Y5364D01*
X3363Y5362D01*
X3361Y5361D01*
X3325Y5332D01*
X3324Y5331D01*
X3322Y5330D01*
X3285Y5302D01*
X3280Y5299D01*
X3275Y5295D01*
X3234Y5271D01*
X3231Y5269D01*
X3227Y5267D01*
X3185Y5247D01*
X3181Y5246D01*
X3177Y5244D01*
X3135Y5228D01*
X3135Y5228D01*
X3135Y5228D01*
X3128Y5226D01*
X3123Y5224D01*
X3122Y5224D01*
X3122Y5224D01*
X3071Y5212D01*
X3067Y5211D01*
X3064Y5210D01*
X3019Y5203D01*
X3015Y5203D01*
X3011Y5202D01*
X2958Y5198D01*
X2954Y5198D01*
X2950Y5198D01*
X2050D01*
X2046Y5198D01*
X2043Y5198D01*
X1988Y5202D01*
X1982Y5203D01*
X1977Y5204D01*
X1932Y5212D01*
X1929Y5212D01*
X1926Y5213D01*
X1876Y5225D01*
X1876Y5225D01*
X1875Y5225D01*
X1869Y5227D01*
X1864Y5229D01*
X1863Y5229D01*
X1862Y5229D01*
X1823Y5245D01*
X1823Y5245D01*
X1790Y5258D01*
X1789Y5259D01*
X1788Y5259D01*
X1783Y5262D01*
X1778Y5264D01*
X1777Y5265D01*
X1776Y5265D01*
X1733Y5290D01*
X1729Y5292D01*
X1725Y5295D01*
X1688Y5321D01*
X1686Y5323D01*
X1683Y5325D01*
X1645Y5356D01*
X1644Y5357D01*
X1643Y5357D01*
X1639Y5361D01*
X1635Y5365D01*
X1634Y5366D01*
X1634Y5366D01*
X1593Y5411D01*
X1590Y5415D01*
X1587Y5419D01*
X1557Y5459D01*
X1554Y5462D01*
X1552Y5466D01*
X1523Y5512D01*
X1523Y5512D01*
X1523Y5512D01*
X1519Y5518D01*
X1517Y5523D01*
X1516Y5524D01*
X1516Y5524D01*
X1492Y5577D01*
X1492Y5577D01*
X1492Y5577D01*
X1490Y5584D01*
X1488Y5589D01*
X1488Y5590D01*
X1487Y5590D01*
X1461Y5677D01*
X1461Y5680D01*
X1460Y5683D01*
X1459Y5686D01*
X1458Y5690D01*
X1458Y5693D01*
X1458Y5696D01*
X1449Y5790D01*
X1449Y5795D01*
X1448Y5800D01*
Y7400D01*
X1449Y7413D01*
X1452Y7426D01*
X1456Y7439D01*
X1462Y7451D01*
X1469Y7462D01*
X1478Y7472D01*
X1488Y7481D01*
X1499Y7488D01*
X1511Y7494D01*
X1524Y7498D01*
X1537Y7501D01*
X1550Y7502D01*
X3450D01*
X3463Y7501D01*
D02*
G37*
G36*
X2954Y14802D02*
X2957Y14802D01*
X3012Y14798D01*
X3018Y14797D01*
X3023Y14796D01*
X3068Y14788D01*
X3071Y14788D01*
X3074Y14787D01*
X3124Y14775D01*
X3124Y14775D01*
X3125Y14775D01*
X3131Y14773D01*
X3136Y14771D01*
X3137Y14771D01*
X3138Y14771D01*
X3177Y14755D01*
X3177Y14755D01*
X3210Y14742D01*
X3211Y14741D01*
X3212Y14741D01*
X3217Y14738D01*
X3222Y14736D01*
X3223Y14735D01*
X3224Y14735D01*
X3267Y14710D01*
X3271Y14708D01*
X3275Y14705D01*
X3312Y14679D01*
X3314Y14677D01*
X3317Y14675D01*
X3355Y14644D01*
X3356Y14643D01*
X3357Y14643D01*
X3361Y14639D01*
X3365Y14635D01*
X3366Y14634D01*
X3366Y14634D01*
X3407Y14589D01*
X3410Y14585D01*
X3413Y14581D01*
X3443Y14541D01*
X3446Y14538D01*
X3448Y14534D01*
X3477Y14488D01*
X3477Y14488D01*
X3477Y14488D01*
X3481Y14482D01*
X3483Y14477D01*
X3484Y14476D01*
X3484Y14476D01*
X3508Y14423D01*
X3508Y14423D01*
X3508Y14423D01*
X3510Y14416D01*
X3512Y14411D01*
X3512Y14410D01*
X3513Y14410D01*
X3539Y14323D01*
X3539Y14320D01*
X3540Y14317D01*
X3541Y14314D01*
X3542Y14310D01*
X3542Y14307D01*
X3542Y14304D01*
X3551Y14210D01*
X3552Y14205D01*
X3552Y14200D01*
Y12600D01*
X3551Y12587D01*
X3548Y12574D01*
X3544Y12561D01*
X3538Y12549D01*
X3531Y12538D01*
X3522Y12528D01*
X3512Y12519D01*
X3501Y12512D01*
X3489Y12506D01*
X3476Y12502D01*
X3463Y12499D01*
X3450Y12498D01*
X1550D01*
X1537Y12499D01*
X1524Y12502D01*
X1511Y12506D01*
X1499Y12512D01*
X1488Y12519D01*
X1478Y12528D01*
X1469Y12538D01*
X1462Y12549D01*
X1456Y12561D01*
X1452Y12574D01*
X1449Y12587D01*
X1448Y12600D01*
Y14200D01*
X1448Y14204D01*
X1449Y14208D01*
X1453Y14256D01*
X1453Y14259D01*
X1453Y14261D01*
X1460Y14314D01*
X1460Y14315D01*
X1460Y14316D01*
X1461Y14322D01*
X1463Y14327D01*
X1463Y14328D01*
X1463Y14329D01*
X1478Y14382D01*
X1479Y14386D01*
X1481Y14390D01*
X1497Y14433D01*
X1498Y14437D01*
X1500Y14441D01*
X1520Y14483D01*
X1523Y14488D01*
X1526Y14494D01*
X1554Y14538D01*
X1557Y14541D01*
X1559Y14545D01*
X1588Y14583D01*
X1590Y14585D01*
X1592Y14588D01*
X1626Y14627D01*
X1628Y14629D01*
X1629Y14630D01*
X1633Y14633D01*
X1636Y14636D01*
X1637Y14638D01*
X1639Y14639D01*
X1675Y14668D01*
X1676Y14669D01*
X1678Y14670D01*
X1715Y14698D01*
X1720Y14701D01*
X1725Y14705D01*
X1766Y14729D01*
X1769Y14731D01*
X1773Y14733D01*
X1815Y14753D01*
X1819Y14754D01*
X1823Y14756D01*
X1865Y14772D01*
X1865Y14772D01*
X1865Y14772D01*
X1872Y14774D01*
X1877Y14776D01*
X1878Y14776D01*
X1878Y14776D01*
X1929Y14788D01*
X1933Y14789D01*
X1936Y14790D01*
X1981Y14797D01*
X1985Y14797D01*
X1989Y14798D01*
X2042Y14802D01*
X2046Y14802D01*
X2050Y14802D01*
X2950D01*
X2954Y14802D01*
D02*
G37*
D24*
X23622Y6324D02*
D03*
D25*
X5300Y8700D02*
D03*
Y9350D02*
D03*
Y11300D02*
D03*
Y10650D02*
D03*
Y10000D02*
D03*
D26*
X15027Y10522D02*
D03*
X15977D02*
D03*
X16927D02*
D03*
Y8122D02*
D03*
X15977D02*
D03*
X15027D02*
D03*
D27*
X14825Y2438D02*
D03*
X16925D02*
D03*
D28*
X15085Y4775D02*
D03*
X16785D02*
D03*
X21934Y8661D02*
D03*
X23634D02*
D03*
D29*
X12878Y8750D02*
D03*
Y10350D02*
D03*
X18898Y10299D02*
D03*
Y8699D02*
D03*
D30*
X2500Y11149D02*
D03*
Y8851D02*
D03*
D31*
X15723Y14021D02*
D03*
X18263D02*
D03*
D32*
X20803D02*
D03*
D33*
X2500Y13650D02*
D03*
Y6350D02*
D03*
D34*
X5625Y7775D02*
D03*
Y12225D02*
D03*
M02*
