G04*
G04 #@! TF.GenerationSoftware,Altium Limited,Altium Designer,18.1.7 (191)*
G04*
G04 Layer_Color=8421504*
%FSLAX43Y43*%
%MOMM*%
G71*
G01*
G75*
%ADD15R,2.100X2.100*%
G04:AMPARAMS|DCode=16|XSize=2.1mm|YSize=1.9mm|CornerRadius=0.475mm|HoleSize=0mm|Usage=FLASHONLY|Rotation=270.000|XOffset=0mm|YOffset=0mm|HoleType=Round|Shape=RoundedRectangle|*
%AMROUNDEDRECTD16*
21,1,2.100,0.950,0,0,270.0*
21,1,1.150,1.900,0,0,270.0*
1,1,0.950,-0.475,-0.575*
1,1,0.950,-0.475,0.575*
1,1,0.950,0.475,0.575*
1,1,0.950,0.475,-0.575*
%
%ADD16ROUNDEDRECTD16*%
G04:AMPARAMS|DCode=17|XSize=1.05mm|YSize=1.25mm|CornerRadius=0.263mm|HoleSize=0mm|Usage=FLASHONLY|Rotation=270.000|XOffset=0mm|YOffset=0mm|HoleType=Round|Shape=RoundedRectangle|*
%AMROUNDEDRECTD17*
21,1,1.050,0.725,0,0,270.0*
21,1,0.525,1.250,0,0,270.0*
1,1,0.525,-0.363,-0.263*
1,1,0.525,-0.363,0.263*
1,1,0.525,0.363,0.263*
1,1,0.525,0.363,-0.263*
%
%ADD17ROUNDEDRECTD17*%
%ADD18R,1.350X0.400*%
%ADD19R,0.600X1.100*%
%ADD20R,1.200X1.200*%
%ADD21R,1.000X0.950*%
%ADD22R,0.950X1.000*%
%ADD23R,1.400X1.300*%
G36*
X3450Y5800D02*
X3446Y5752D01*
X3439Y5699D01*
X3424Y5646D01*
X3408Y5603D01*
X3388Y5561D01*
X3360Y5517D01*
X3331Y5479D01*
X3297Y5440D01*
X3261Y5411D01*
X3224Y5383D01*
X3183Y5359D01*
X3141Y5339D01*
X3099Y5323D01*
X3048Y5311D01*
X3003Y5304D01*
X2950Y5300D01*
X2050D01*
X1995Y5304D01*
X1950Y5312D01*
X1900Y5324D01*
X1860Y5340D01*
X1827Y5353D01*
X1784Y5378D01*
X1747Y5404D01*
X1709Y5435D01*
X1668Y5480D01*
X1638Y5520D01*
X1609Y5566D01*
X1585Y5619D01*
X1559Y5706D01*
X1550Y5800D01*
Y7400D01*
X3450D01*
Y5800D01*
D02*
G37*
G36*
X3005Y14696D02*
X3050Y14688D01*
X3100Y14676D01*
X3140Y14660D01*
X3173Y14647D01*
X3216Y14622D01*
X3253Y14596D01*
X3291Y14565D01*
X3332Y14520D01*
X3362Y14480D01*
X3391Y14434D01*
X3415Y14381D01*
X3441Y14294D01*
X3450Y14200D01*
Y12600D01*
X1550D01*
Y14200D01*
X1554Y14248D01*
X1561Y14301D01*
X1576Y14354D01*
X1592Y14397D01*
X1612Y14439D01*
X1640Y14483D01*
X1669Y14521D01*
X1703Y14560D01*
X1739Y14589D01*
X1776Y14617D01*
X1817Y14641D01*
X1859Y14661D01*
X1901Y14677D01*
X1952Y14689D01*
X1997Y14696D01*
X2050Y14700D01*
X2950D01*
X3005Y14696D01*
D02*
G37*
D15*
X15723Y14021D02*
D03*
X18263D02*
D03*
X20803D02*
D03*
D16*
X2500Y13650D02*
D03*
Y6350D02*
D03*
D17*
X5625Y12225D02*
D03*
Y7775D02*
D03*
D18*
X5300Y8700D02*
D03*
Y9350D02*
D03*
Y11300D02*
D03*
Y10650D02*
D03*
Y10000D02*
D03*
D19*
X15027Y10522D02*
D03*
X15977D02*
D03*
X16927D02*
D03*
Y8122D02*
D03*
X15977D02*
D03*
X15027D02*
D03*
D20*
X14825Y2438D02*
D03*
X16925D02*
D03*
D21*
X15085Y4775D02*
D03*
X16785D02*
D03*
X21934Y8661D02*
D03*
X23634D02*
D03*
D22*
X12878Y8750D02*
D03*
Y10350D02*
D03*
X18898Y10299D02*
D03*
Y8699D02*
D03*
D23*
X2500Y11149D02*
D03*
Y8851D02*
D03*
M02*
