G04*
G04 #@! TF.GenerationSoftware,Altium Limited,Altium Designer,18.1.7 (191)*
G04*
G04 Layer_Color=32896*
%FSLAX43Y43*%
%MOMM*%
G71*
G01*
G75*
%ADD11C,0.254*%
%ADD13C,0.200*%
G36*
X24460Y4906D02*
X22631D01*
Y16281D01*
X24460D01*
Y4906D01*
D02*
G37*
G36*
X30378Y2922D02*
X28101D01*
Y17323D01*
X30378D01*
Y2922D01*
D02*
G37*
G36*
X19792Y2823D02*
X19566D01*
Y2633D01*
X19570Y2610D01*
X19575Y2601D01*
X19580Y2596D01*
X19603Y2583D01*
X19635Y2573D01*
X19663Y2569D01*
X19668D01*
X19672D01*
X19737Y2564D01*
X19751D01*
X19755D01*
X19765Y2559D01*
X19769D01*
X19779Y2555D01*
X19788D01*
X19792D01*
Y2499D01*
X19788D01*
X19783Y2504D01*
X19774Y2509D01*
X19769Y2513D01*
X19765D01*
X19760D01*
X19755Y2518D01*
X19742D01*
X19737D01*
X19658Y2527D01*
X19617Y2532D01*
X19589Y2536D01*
X19575Y2541D01*
X19570D01*
X19547Y2569D01*
X19543Y2583D01*
Y2587D01*
X19529Y2564D01*
X19515Y2546D01*
X19501Y2532D01*
X19496Y2527D01*
X19469Y2513D01*
X19441Y2509D01*
X19422Y2504D01*
X19413D01*
X19385Y2509D01*
X19367Y2513D01*
X19353Y2518D01*
X19348Y2522D01*
X19325Y2536D01*
X19311Y2550D01*
X19307Y2564D01*
X19302Y2569D01*
X19293Y2583D01*
X19288Y2596D01*
X19283Y2610D01*
Y2615D01*
X19279Y2633D01*
Y2874D01*
X19792D01*
Y2823D01*
D02*
G37*
G36*
X19672Y2430D02*
X19695Y2425D01*
X19714Y2416D01*
X19742Y2402D01*
X19751Y2393D01*
X19769Y2374D01*
X19779Y2356D01*
X19797Y2314D01*
Y2296D01*
X19802Y2282D01*
Y2268D01*
X19797Y2240D01*
X19792Y2217D01*
X19774Y2175D01*
X19760Y2152D01*
X19751Y2143D01*
X19705Y2115D01*
X19658Y2101D01*
X19640Y2097D01*
X19621D01*
X19612D01*
X19607D01*
X19547Y2106D01*
X19501Y2120D01*
X19487Y2129D01*
X19473Y2134D01*
X19469Y2143D01*
X19464D01*
X19445Y2161D01*
X19436Y2180D01*
X19418Y2222D01*
Y2240D01*
X19413Y2254D01*
Y2296D01*
X19422Y2319D01*
X19436Y2360D01*
X19455Y2384D01*
X19459Y2393D01*
X19464D01*
X19506Y2421D01*
X19556Y2434D01*
X19575D01*
X19593Y2439D01*
X19603D01*
X19607D01*
X19640D01*
X19672Y2430D01*
D02*
G37*
G36*
X19792Y1962D02*
X19547D01*
Y1671D01*
X19792D01*
Y1625D01*
X19279D01*
Y1671D01*
X19501D01*
Y1962D01*
X19279D01*
Y2013D01*
X19792D01*
Y1962D01*
D02*
G37*
G36*
X18747Y2689D02*
X18756Y2671D01*
X18765Y2652D01*
X18784Y2633D01*
X18825Y2601D01*
X18876Y2564D01*
X18922Y2536D01*
X18969Y2513D01*
X18987Y2504D01*
X18996Y2499D01*
X19006Y2495D01*
X19010D01*
X19057Y2472D01*
X19098Y2453D01*
X19135Y2439D01*
X19168Y2425D01*
X19195Y2411D01*
X19219Y2402D01*
X19251Y2388D01*
X19270Y2379D01*
X19279Y2374D01*
X19283D01*
X19112Y2152D01*
X19047Y2124D01*
X18978Y2092D01*
X18913Y2055D01*
X18848Y2018D01*
X18793Y1981D01*
X18747Y1953D01*
X18728Y1939D01*
X18714Y1935D01*
X18710Y1925D01*
X18705D01*
X18612Y1861D01*
X18524Y1796D01*
X18446Y1731D01*
X18376Y1671D01*
X18321Y1620D01*
X18275Y1583D01*
X18247Y1555D01*
X18242Y1546D01*
X18237D01*
X18163Y1481D01*
X18131Y1449D01*
X18103Y1421D01*
X18076Y1398D01*
X18057Y1379D01*
X18048Y1365D01*
X18043Y1361D01*
X18011Y1328D01*
X17988Y1301D01*
X17974Y1282D01*
X17960Y1273D01*
X17955Y1264D01*
X17951Y1259D01*
X17946D01*
X17941Y1264D01*
X17937Y1268D01*
X17932Y1273D01*
X17918Y1282D01*
X17909Y1287D01*
X17904Y1291D01*
X17909Y1310D01*
X17918Y1324D01*
X17923Y1338D01*
X17927Y1342D01*
X17937Y1356D01*
X17941Y1361D01*
Y1365D01*
X17992Y1444D01*
X18048Y1523D01*
X18108Y1592D01*
X18163Y1657D01*
X18214Y1713D01*
X18256Y1754D01*
X18284Y1782D01*
X18288Y1787D01*
X18293Y1791D01*
X18376Y1870D01*
X18455Y1939D01*
X18524Y1999D01*
X18589Y2055D01*
X18645Y2097D01*
X18682Y2124D01*
X18710Y2148D01*
X18714Y2152D01*
X18719D01*
X18756Y2175D01*
X18784Y2198D01*
X18834Y2231D01*
X18872Y2259D01*
X18895Y2273D01*
X18913Y2282D01*
X18918Y2286D01*
X18922Y2291D01*
X18918D01*
X18909Y2296D01*
X18881Y2310D01*
X18858Y2323D01*
X18848Y2328D01*
X18844D01*
X18784Y2356D01*
X18733Y2384D01*
X18710Y2397D01*
X18691Y2407D01*
X18682Y2411D01*
X18677Y2416D01*
X18649Y2444D01*
X18631Y2467D01*
X18622Y2485D01*
X18617Y2495D01*
X18612Y2518D01*
X18617Y2541D01*
X18626Y2559D01*
X18635Y2583D01*
X18649Y2601D01*
X18663Y2615D01*
X18668Y2624D01*
X18673Y2629D01*
X18696Y2657D01*
X18714Y2675D01*
X18728Y2689D01*
X18737Y2698D01*
X18747Y2708D01*
Y2689D01*
D02*
G37*
G36*
X19695Y1523D02*
X19732Y1509D01*
X19751Y1495D01*
X19760Y1486D01*
X19788Y1439D01*
X19802Y1393D01*
Y1375D01*
X19806Y1356D01*
Y1342D01*
X19802Y1287D01*
X19783Y1245D01*
X19769Y1222D01*
X19765Y1213D01*
X19732Y1185D01*
X19700Y1171D01*
X19672Y1166D01*
X19663D01*
X19658D01*
X19621Y1171D01*
X19593Y1185D01*
X19575Y1199D01*
X19566Y1203D01*
X19552Y1217D01*
X19543Y1240D01*
X19524Y1278D01*
X19519Y1301D01*
X19515Y1315D01*
X19510Y1324D01*
Y1328D01*
X19492Y1389D01*
X19482Y1416D01*
X19473Y1435D01*
X19469Y1449D01*
X19464Y1453D01*
X19445Y1463D01*
X19427Y1467D01*
X19413Y1472D01*
X19408D01*
X19376Y1467D01*
X19348Y1453D01*
X19334Y1444D01*
X19330Y1439D01*
X19316Y1416D01*
X19311Y1389D01*
X19307Y1365D01*
Y1356D01*
X19311Y1315D01*
X19320Y1287D01*
X19334Y1268D01*
X19339Y1264D01*
X19367Y1240D01*
X19394Y1231D01*
X19413Y1227D01*
X19418D01*
X19422D01*
Y1180D01*
X19371Y1190D01*
X19334Y1203D01*
X19316Y1217D01*
X19307Y1227D01*
X19283Y1268D01*
X19270Y1310D01*
X19265Y1328D01*
Y1356D01*
X19270Y1402D01*
X19283Y1444D01*
X19297Y1467D01*
X19302Y1472D01*
Y1477D01*
X19334Y1504D01*
X19367Y1518D01*
X19394Y1523D01*
X19399D01*
X19404D01*
X19441Y1518D01*
X19469Y1509D01*
X19487Y1500D01*
X19492Y1495D01*
X19501Y1481D01*
X19515Y1467D01*
X19529Y1430D01*
X19538Y1398D01*
X19543Y1389D01*
Y1384D01*
X19556Y1333D01*
X19570Y1287D01*
X19584Y1259D01*
X19593Y1240D01*
X19598Y1236D01*
X19617Y1222D01*
X19640Y1217D01*
X19654Y1213D01*
X19663D01*
X19695Y1217D01*
X19718Y1231D01*
X19732Y1245D01*
X19737Y1250D01*
X19751Y1282D01*
X19760Y1310D01*
X19765Y1333D01*
Y1342D01*
X19760Y1384D01*
X19746Y1421D01*
X19737Y1439D01*
X19732Y1449D01*
X19700Y1472D01*
X19668Y1481D01*
X19644Y1486D01*
X19640D01*
X19635D01*
Y1532D01*
X19640D01*
X19695Y1523D01*
D02*
G37*
G36*
X27415Y14367D02*
X27019D01*
Y14118D01*
X27018Y14081D01*
X27015Y14046D01*
X27011Y14015D01*
X27005Y13987D01*
X26999Y13960D01*
X26992Y13937D01*
X26984Y13916D01*
X26975Y13898D01*
X26968Y13882D01*
X26960Y13868D01*
X26953Y13857D01*
X26946Y13848D01*
X26942Y13841D01*
X26937Y13837D01*
X26934Y13834D01*
X26933Y13833D01*
X26916Y13819D01*
X26899Y13806D01*
X26882Y13796D01*
X26864Y13786D01*
X26846Y13778D01*
X26829Y13772D01*
X26796Y13762D01*
X26781Y13760D01*
X26767Y13757D01*
X26754Y13755D01*
X26744Y13754D01*
X26734Y13753D01*
X26729D01*
X26724D01*
X26723D01*
X26696Y13754D01*
X26671Y13757D01*
X26648Y13762D01*
X26629Y13767D01*
X26612Y13772D01*
X26599Y13778D01*
X26592Y13781D01*
X26589Y13782D01*
X26568Y13793D01*
X26550Y13808D01*
X26533Y13820D01*
X26520Y13833D01*
X26510Y13844D01*
X26502Y13853D01*
X26497Y13858D01*
X26496Y13861D01*
X26485Y13879D01*
X26475Y13901D01*
X26466Y13920D01*
X26459Y13939D01*
X26455Y13956D01*
X26452Y13968D01*
X26450Y13978D01*
Y13981D01*
X26447Y14002D01*
X26444Y14026D01*
X26443Y14051D01*
X26441Y14075D01*
X26440Y14097D01*
Y14497D01*
X27415D01*
Y14367D01*
D02*
G37*
G36*
X26971Y13623D02*
X27020Y13617D01*
X27064Y13610D01*
X27085Y13605D01*
X27104Y13600D01*
X27121Y13596D01*
X27136Y13590D01*
X27150Y13586D01*
X27161Y13583D01*
X27170Y13579D01*
X27177Y13578D01*
X27181Y13575D01*
X27183D01*
X27225Y13554D01*
X27263Y13530D01*
X27295Y13504D01*
X27308Y13492D01*
X27321Y13481D01*
X27332Y13469D01*
X27342Y13458D01*
X27350Y13448D01*
X27356Y13440D01*
X27362Y13434D01*
X27366Y13428D01*
X27367Y13426D01*
X27369Y13424D01*
X27380Y13404D01*
X27390Y13385D01*
X27405Y13342D01*
X27417Y13300D01*
X27424Y13259D01*
X27426Y13239D01*
X27429Y13223D01*
X27431Y13207D01*
Y13194D01*
X27432Y13183D01*
Y13168D01*
X27431Y13139D01*
X27428Y13113D01*
X27425Y13087D01*
X27419Y13063D01*
X27412Y13041D01*
X27405Y13020D01*
X27398Y13000D01*
X27390Y12981D01*
X27383Y12966D01*
X27376Y12950D01*
X27369Y12939D01*
X27362Y12928D01*
X27356Y12921D01*
X27353Y12914D01*
X27350Y12911D01*
X27349Y12910D01*
X27332Y12890D01*
X27315Y12873D01*
X27295Y12857D01*
X27276Y12842D01*
X27236Y12817D01*
X27197Y12797D01*
X27178Y12788D01*
X27161Y12781D01*
X27146Y12776D01*
X27133Y12771D01*
X27122Y12767D01*
X27114Y12764D01*
X27108Y12763D01*
X27106D01*
X27074Y12893D01*
X27097Y12898D01*
X27118Y12905D01*
X27137Y12912D01*
X27156Y12919D01*
X27173Y12928D01*
X27187Y12936D01*
X27201Y12946D01*
X27214Y12955D01*
X27225Y12962D01*
X27233Y12970D01*
X27242Y12977D01*
X27249Y12983D01*
X27253Y12989D01*
X27257Y12993D01*
X27259Y12994D01*
X27260Y12996D01*
X27271Y13010D01*
X27280Y13025D01*
X27295Y13056D01*
X27307Y13086D01*
X27314Y13115D01*
X27319Y13141D01*
X27321Y13151D01*
Y13161D01*
X27322Y13169D01*
Y13179D01*
X27321Y13211D01*
X27315Y13242D01*
X27308Y13270D01*
X27300Y13296D01*
X27291Y13316D01*
X27287Y13324D01*
X27284Y13331D01*
X27281Y13337D01*
X27278Y13341D01*
X27277Y13344D01*
Y13345D01*
X27257Y13372D01*
X27236Y13395D01*
X27212Y13414D01*
X27190Y13430D01*
X27170Y13442D01*
X27153Y13451D01*
X27146Y13454D01*
X27142Y13457D01*
X27139Y13458D01*
X27137D01*
X27101Y13469D01*
X27064Y13478D01*
X27028Y13485D01*
X26994Y13489D01*
X26978Y13490D01*
X26964Y13492D01*
X26951D01*
X26942Y13493D01*
X26933D01*
X26926D01*
X26922D01*
X26920D01*
X26884Y13492D01*
X26850Y13489D01*
X26819Y13483D01*
X26791Y13478D01*
X26767Y13473D01*
X26757Y13471D01*
X26748Y13468D01*
X26741Y13466D01*
X26737Y13465D01*
X26734Y13464D01*
X26733D01*
X26700Y13450D01*
X26671Y13434D01*
X26647Y13417D01*
X26626Y13399D01*
X26609Y13383D01*
X26598Y13371D01*
X26591Y13361D01*
X26588Y13359D01*
Y13358D01*
X26569Y13328D01*
X26555Y13296D01*
X26545Y13265D01*
X26540Y13235D01*
X26536Y13208D01*
X26534Y13197D01*
Y13187D01*
X26533Y13180D01*
Y13169D01*
X26534Y13134D01*
X26540Y13101D01*
X26548Y13075D01*
X26557Y13051D01*
X26567Y13032D01*
X26574Y13018D01*
X26579Y13010D01*
X26582Y13007D01*
X26603Y12984D01*
X26627Y12963D01*
X26653Y12946D01*
X26678Y12932D01*
X26700Y12921D01*
X26712Y12917D01*
X26720Y12914D01*
X26727Y12911D01*
X26733Y12908D01*
X26736Y12907D01*
X26737D01*
X26708Y12780D01*
X26682Y12788D01*
X26660Y12797D01*
X26638Y12808D01*
X26617Y12818D01*
X26599Y12829D01*
X26582Y12842D01*
X26565Y12853D01*
X26551Y12864D01*
X26540Y12876D01*
X26528Y12886D01*
X26519Y12895D01*
X26512Y12903D01*
X26505Y12910D01*
X26500Y12915D01*
X26499Y12918D01*
X26497Y12919D01*
X26485Y12939D01*
X26472Y12959D01*
X26462Y12979D01*
X26454Y13000D01*
X26441Y13042D01*
X26433Y13080D01*
X26428Y13098D01*
X26427Y13114D01*
X26426Y13130D01*
X26424Y13142D01*
X26423Y13152D01*
Y13166D01*
X26426Y13213D01*
X26433Y13258D01*
X26441Y13297D01*
X26447Y13316D01*
X26452Y13332D01*
X26458Y13348D01*
X26464Y13362D01*
X26468Y13373D01*
X26472Y13385D01*
X26476Y13392D01*
X26479Y13397D01*
X26481Y13402D01*
X26482Y13403D01*
X26506Y13441D01*
X26534Y13473D01*
X26562Y13502D01*
X26591Y13526D01*
X26616Y13544D01*
X26627Y13551D01*
X26637Y13557D01*
X26644Y13562D01*
X26650Y13565D01*
X26654Y13566D01*
X26655Y13568D01*
X26699Y13588D01*
X26744Y13602D01*
X26789Y13612D01*
X26830Y13619D01*
X26848Y13621D01*
X26867Y13623D01*
X26881Y13624D01*
X26895D01*
X26905Y13626D01*
X26913D01*
X26919D01*
X26920D01*
X26971Y13623D01*
D02*
G37*
G36*
X27415Y12237D02*
X27414Y12203D01*
X27412Y12174D01*
X27410Y12147D01*
X27407Y12124D01*
X27404Y12106D01*
X27403Y12092D01*
X27400Y12083D01*
Y12081D01*
X27393Y12057D01*
X27386Y12037D01*
X27377Y12019D01*
X27369Y12003D01*
X27363Y11990D01*
X27357Y11981D01*
X27353Y11975D01*
X27352Y11974D01*
X27339Y11958D01*
X27324Y11944D01*
X27308Y11933D01*
X27294Y11921D01*
X27280Y11913D01*
X27270Y11907D01*
X27263Y11903D01*
X27260Y11902D01*
X27238Y11892D01*
X27215Y11885D01*
X27194Y11879D01*
X27174Y11876D01*
X27157Y11873D01*
X27143Y11872D01*
X27135D01*
X27133D01*
X27132D01*
X27101Y11873D01*
X27073Y11879D01*
X27049Y11888D01*
X27026Y11896D01*
X27009Y11904D01*
X26997Y11913D01*
X26988Y11919D01*
X26985Y11920D01*
X26963Y11940D01*
X26944Y11961D01*
X26929Y11985D01*
X26916Y12006D01*
X26906Y12026D01*
X26901Y12043D01*
X26898Y12048D01*
X26896Y12052D01*
X26895Y12055D01*
Y12057D01*
X26881Y12033D01*
X26867Y12012D01*
X26851Y11995D01*
X26837Y11981D01*
X26826Y11969D01*
X26815Y11961D01*
X26809Y11957D01*
X26806Y11955D01*
X26785Y11944D01*
X26765Y11935D01*
X26746Y11928D01*
X26727Y11924D01*
X26712Y11921D01*
X26699Y11920D01*
X26692D01*
X26689D01*
X26665Y11921D01*
X26641Y11926D01*
X26620Y11933D01*
X26600Y11940D01*
X26583Y11947D01*
X26572Y11954D01*
X26564Y11958D01*
X26561Y11959D01*
X26540Y11975D01*
X26520Y11992D01*
X26505Y12010D01*
X26492Y12027D01*
X26482Y12041D01*
X26475Y12054D01*
X26471Y12062D01*
X26469Y12064D01*
Y12065D01*
X26459Y12092D01*
X26452Y12122D01*
X26447Y12151D01*
X26444Y12179D01*
X26441Y12205D01*
Y12216D01*
X26440Y12226D01*
Y12609D01*
X27415D01*
Y12237D01*
D02*
G37*
G36*
Y11665D02*
X27119Y11559D01*
Y11150D01*
X27415Y11036D01*
Y10889D01*
X26440Y11288D01*
Y11429D01*
X27415Y11802D01*
Y11665D01*
D02*
G37*
G36*
Y9801D02*
X27300D01*
Y10282D01*
X26440D01*
Y10412D01*
X27415D01*
Y9801D01*
D02*
G37*
G36*
Y9618D02*
X27119Y9512D01*
Y9103D01*
X27415Y8989D01*
Y8843D01*
X26440Y9242D01*
Y9383D01*
X27415Y9755D01*
Y9618D01*
D02*
G37*
G36*
Y8372D02*
X27414Y8338D01*
X27412Y8308D01*
X27410Y8282D01*
X27407Y8259D01*
X27404Y8241D01*
X27403Y8227D01*
X27400Y8218D01*
Y8215D01*
X27393Y8191D01*
X27386Y8172D01*
X27377Y8153D01*
X27369Y8138D01*
X27363Y8125D01*
X27357Y8115D01*
X27353Y8110D01*
X27352Y8108D01*
X27339Y8093D01*
X27324Y8079D01*
X27308Y8067D01*
X27294Y8056D01*
X27280Y8048D01*
X27270Y8042D01*
X27263Y8038D01*
X27260Y8036D01*
X27238Y8026D01*
X27215Y8019D01*
X27194Y8014D01*
X27174Y8011D01*
X27157Y8008D01*
X27143Y8007D01*
X27135D01*
X27133D01*
X27132D01*
X27101Y8008D01*
X27073Y8014D01*
X27049Y8022D01*
X27026Y8031D01*
X27009Y8039D01*
X26997Y8048D01*
X26988Y8053D01*
X26985Y8055D01*
X26963Y8074D01*
X26944Y8095D01*
X26929Y8119D01*
X26916Y8141D01*
X26906Y8160D01*
X26901Y8177D01*
X26898Y8183D01*
X26896Y8187D01*
X26895Y8190D01*
Y8191D01*
X26881Y8167D01*
X26867Y8146D01*
X26851Y8129D01*
X26837Y8115D01*
X26826Y8104D01*
X26815Y8095D01*
X26809Y8091D01*
X26806Y8090D01*
X26785Y8079D01*
X26765Y8070D01*
X26746Y8063D01*
X26727Y8059D01*
X26712Y8056D01*
X26699Y8055D01*
X26692D01*
X26689D01*
X26665Y8056D01*
X26641Y8060D01*
X26620Y8067D01*
X26600Y8074D01*
X26583Y8081D01*
X26572Y8088D01*
X26564Y8093D01*
X26561Y8094D01*
X26540Y8110D01*
X26520Y8126D01*
X26505Y8145D01*
X26492Y8162D01*
X26482Y8176D01*
X26475Y8189D01*
X26471Y8197D01*
X26469Y8198D01*
Y8200D01*
X26459Y8227D01*
X26452Y8256D01*
X26447Y8286D01*
X26444Y8314D01*
X26441Y8339D01*
Y8351D01*
X26440Y8360D01*
Y8744D01*
X27415D01*
Y8372D01*
D02*
G37*
G36*
Y7099D02*
X27300D01*
Y7698D01*
X26968D01*
Y7158D01*
X26853D01*
Y7698D01*
X26555D01*
Y7121D01*
X26440D01*
Y7828D01*
X27415D01*
Y7099D01*
D02*
G37*
G36*
Y6315D02*
X27300D01*
Y6796D01*
X26440D01*
Y6925D01*
X27415D01*
Y6315D01*
D02*
G37*
G36*
X19239Y8328D02*
X19317Y8317D01*
X19389Y8303D01*
X19453Y8290D01*
X19480Y8281D01*
X19505Y8273D01*
X19528Y8267D01*
X19544Y8262D01*
X19561Y8256D01*
X19572Y8251D01*
X19578Y8248D01*
X19580D01*
X19652Y8212D01*
X19719Y8176D01*
X19777Y8134D01*
X19830Y8098D01*
X19872Y8065D01*
X19888Y8048D01*
X19902Y8037D01*
X19916Y8026D01*
X19925Y8017D01*
X19927Y8015D01*
X19930Y8012D01*
X19983Y7954D01*
X20030Y7895D01*
X20072Y7837D01*
X20105Y7782D01*
X20130Y7734D01*
X20141Y7715D01*
X20149Y7698D01*
X20158Y7684D01*
X20163Y7673D01*
X20166Y7668D01*
Y7665D01*
X20194Y7590D01*
X20213Y7515D01*
X20230Y7443D01*
X20238Y7376D01*
X20241Y7348D01*
X20244Y7321D01*
X20247Y7298D01*
Y7279D01*
X20249Y7262D01*
Y7240D01*
X20247Y7157D01*
X20235Y7079D01*
X20222Y7007D01*
X20208Y6943D01*
X20199Y6915D01*
X20191Y6890D01*
X20185Y6868D01*
X20180Y6849D01*
X20174Y6835D01*
X20169Y6824D01*
X20166Y6818D01*
Y6815D01*
X20130Y6743D01*
X20094Y6674D01*
X20052Y6615D01*
X20016Y6566D01*
X19983Y6524D01*
X19966Y6504D01*
X19955Y6491D01*
X19944Y6479D01*
X19936Y6471D01*
X19933Y6468D01*
X19930Y6466D01*
X19872Y6413D01*
X19813Y6366D01*
X19755Y6327D01*
X19700Y6293D01*
X19652Y6268D01*
X19633Y6257D01*
X19616Y6249D01*
X19602Y6241D01*
X19591Y6235D01*
X19586Y6232D01*
X19583D01*
X19508Y6205D01*
X19433Y6182D01*
X19361Y6169D01*
X19294Y6157D01*
X19267Y6155D01*
X19239Y6152D01*
X19217Y6149D01*
X19197Y6146D01*
X19181D01*
X19169D01*
X19161D01*
X19158D01*
X19075Y6149D01*
X18994Y6160D01*
X18925Y6174D01*
X18861Y6188D01*
X18833Y6196D01*
X18808Y6205D01*
X18786Y6213D01*
X18767Y6219D01*
X18753Y6224D01*
X18742Y6230D01*
X18736Y6232D01*
X18734D01*
X18661Y6266D01*
X18595Y6305D01*
X18536Y6343D01*
X18484Y6382D01*
X18445Y6416D01*
X18425Y6429D01*
X18411Y6441D01*
X18400Y6452D01*
X18392Y6460D01*
X18389Y6463D01*
X18387Y6466D01*
X18334Y6524D01*
X18287Y6582D01*
X18245Y6640D01*
X18212Y6693D01*
X18187Y6740D01*
X18176Y6763D01*
X18167Y6779D01*
X18159Y6793D01*
X18153Y6804D01*
X18151Y6810D01*
Y6813D01*
X18123Y6888D01*
X18101Y6963D01*
X18087Y7035D01*
X18076Y7101D01*
X18073Y7132D01*
X18070Y7157D01*
X18067Y7182D01*
X18064Y7201D01*
Y7240D01*
X18067Y7321D01*
X18078Y7398D01*
X18092Y7471D01*
X18106Y7534D01*
X18114Y7562D01*
X18123Y7587D01*
X18131Y7609D01*
X18137Y7626D01*
X18142Y7643D01*
X18148Y7654D01*
X18151Y7659D01*
Y7662D01*
X18187Y7734D01*
X18223Y7801D01*
X18262Y7859D01*
X18300Y7912D01*
X18334Y7954D01*
X18348Y7970D01*
X18362Y7984D01*
X18373Y7998D01*
X18381Y8006D01*
X18384Y8009D01*
X18387Y8012D01*
X18445Y8065D01*
X18503Y8112D01*
X18561Y8154D01*
X18614Y8187D01*
X18661Y8212D01*
X18684Y8223D01*
X18700Y8231D01*
X18714Y8240D01*
X18725Y8245D01*
X18731Y8248D01*
X18734D01*
X18808Y8276D01*
X18883Y8295D01*
X18956Y8312D01*
X19019Y8320D01*
X19050Y8323D01*
X19075Y8326D01*
X19100Y8328D01*
X19119D01*
X19136Y8331D01*
X19147D01*
X19156D01*
X19158D01*
X19239Y8328D01*
D02*
G37*
G36*
X19236Y12037D02*
X19314Y12026D01*
X19386Y12012D01*
X19450Y11998D01*
X19478Y11990D01*
X19503Y11981D01*
X19525Y11976D01*
X19541Y11970D01*
X19558Y11965D01*
X19569Y11959D01*
X19575Y11956D01*
X19578D01*
X19650Y11920D01*
X19716Y11884D01*
X19777Y11842D01*
X19827Y11806D01*
X19872Y11773D01*
X19888Y11756D01*
X19902Y11745D01*
X19913Y11734D01*
X19922Y11726D01*
X19927Y11723D01*
X19930Y11720D01*
X19983Y11662D01*
X20030Y11604D01*
X20072Y11545D01*
X20105Y11490D01*
X20130Y11443D01*
X20141Y11423D01*
X20149Y11407D01*
X20158Y11393D01*
X20163Y11382D01*
X20166Y11376D01*
Y11373D01*
X20194Y11298D01*
X20213Y11223D01*
X20230Y11151D01*
X20238Y11085D01*
X20241Y11054D01*
X20244Y11029D01*
X20247Y11004D01*
Y10985D01*
X20249Y10968D01*
Y10924D01*
X20247Y10904D01*
Y10865D01*
X20244Y10849D01*
Y10832D01*
X19908D01*
X19916Y10871D01*
X19919Y10904D01*
X19922Y10918D01*
Y10935D01*
X19919Y10993D01*
X19913Y11048D01*
X19902Y11101D01*
X19891Y11146D01*
X19880Y11182D01*
X19869Y11210D01*
X19866Y11221D01*
X19863Y11229D01*
X19861Y11232D01*
Y11234D01*
X19836Y11284D01*
X19808Y11332D01*
X19783Y11371D01*
X19755Y11407D01*
X19733Y11437D01*
X19714Y11457D01*
X19702Y11470D01*
X19697Y11476D01*
X19655Y11512D01*
X19614Y11545D01*
X19572Y11573D01*
X19536Y11595D01*
X19503Y11615D01*
X19475Y11629D01*
X19458Y11637D01*
X19455Y11640D01*
X19453D01*
X19400Y11659D01*
X19347Y11673D01*
X19297Y11684D01*
X19253Y11690D01*
X19214Y11695D01*
X19183Y11698D01*
X19172D01*
X19164D01*
X19158D01*
X19156D01*
X19097Y11695D01*
X19042Y11690D01*
X18989Y11679D01*
X18945Y11668D01*
X18908Y11659D01*
X18881Y11648D01*
X18870Y11645D01*
X18861Y11643D01*
X18858Y11640D01*
X18856D01*
X18806Y11615D01*
X18759Y11587D01*
X18717Y11562D01*
X18684Y11534D01*
X18653Y11512D01*
X18634Y11493D01*
X18620Y11482D01*
X18614Y11476D01*
X18578Y11437D01*
X18545Y11396D01*
X18517Y11354D01*
X18492Y11318D01*
X18475Y11284D01*
X18461Y11257D01*
X18453Y11240D01*
X18450Y11237D01*
Y11234D01*
X18431Y11182D01*
X18414Y11129D01*
X18403Y11076D01*
X18398Y11032D01*
X18392Y10993D01*
X18389Y10962D01*
Y10862D01*
X18392Y10846D01*
X18395Y10835D01*
Y10832D01*
X18062D01*
X18059Y10851D01*
Y10871D01*
X18056Y10885D01*
Y10890D01*
X18053Y10912D01*
Y10949D01*
X18056Y11032D01*
X18067Y11110D01*
X18081Y11182D01*
X18095Y11246D01*
X18103Y11273D01*
X18112Y11298D01*
X18120Y11321D01*
X18126Y11337D01*
X18131Y11354D01*
X18137Y11365D01*
X18139Y11371D01*
Y11373D01*
X18176Y11445D01*
X18212Y11509D01*
X18250Y11570D01*
X18289Y11620D01*
X18323Y11662D01*
X18337Y11679D01*
X18350Y11693D01*
X18362Y11706D01*
X18370Y11715D01*
X18373Y11718D01*
X18375Y11720D01*
X18434Y11773D01*
X18492Y11820D01*
X18553Y11862D01*
X18606Y11895D01*
X18653Y11920D01*
X18675Y11931D01*
X18692Y11940D01*
X18706Y11948D01*
X18717Y11954D01*
X18722Y11956D01*
X18725D01*
X18800Y11984D01*
X18875Y12004D01*
X18947Y12020D01*
X19014Y12028D01*
X19044Y12031D01*
X19069Y12034D01*
X19094Y12037D01*
X19114D01*
X19131Y12040D01*
X19142D01*
X19150D01*
X19153D01*
X19236Y12037D01*
D02*
G37*
G36*
Y10182D02*
X19314Y10171D01*
X19386Y10157D01*
X19450Y10143D01*
X19478Y10135D01*
X19503Y10127D01*
X19525Y10121D01*
X19541Y10116D01*
X19558Y10110D01*
X19569Y10105D01*
X19575Y10102D01*
X19578D01*
X19650Y10068D01*
X19716Y10030D01*
X19777Y9991D01*
X19827Y9955D01*
X19872Y9921D01*
X19888Y9907D01*
X19902Y9896D01*
X19913Y9885D01*
X19922Y9877D01*
X19927Y9874D01*
X19930Y9871D01*
X19983Y9813D01*
X20030Y9755D01*
X20072Y9696D01*
X20105Y9644D01*
X20130Y9597D01*
X20141Y9574D01*
X20149Y9558D01*
X20158Y9544D01*
X20163Y9533D01*
X20166Y9527D01*
Y9524D01*
X20194Y9447D01*
X20216Y9372D01*
X20230Y9297D01*
X20241Y9230D01*
X20244Y9200D01*
X20247Y9172D01*
X20249Y9150D01*
Y9127D01*
X20252Y9111D01*
Y9066D01*
X20249Y9050D01*
Y9030D01*
X20247Y9005D01*
Y8986D01*
X20244Y8975D01*
Y8969D01*
X19908D01*
X19916Y9008D01*
X19919Y9041D01*
X19922Y9055D01*
Y9075D01*
X19919Y9125D01*
X19913Y9172D01*
X19908Y9216D01*
X19900Y9255D01*
X19891Y9288D01*
X19883Y9313D01*
X19880Y9330D01*
X19877Y9333D01*
Y9336D01*
X19858Y9380D01*
X19838Y9424D01*
X19816Y9460D01*
X19797Y9494D01*
X19777Y9522D01*
X19764Y9544D01*
X19752Y9555D01*
X19750Y9560D01*
X19719Y9597D01*
X19686Y9627D01*
X19655Y9655D01*
X19625Y9680D01*
X19600Y9699D01*
X19580Y9716D01*
X19566Y9724D01*
X19561Y9727D01*
X19519Y9752D01*
X19478Y9771D01*
X19439Y9788D01*
X19400Y9802D01*
X19369Y9810D01*
X19344Y9819D01*
X19328Y9821D01*
X19325Y9824D01*
X19322D01*
X19319Y9188D01*
X18989D01*
Y9821D01*
X18942Y9808D01*
X18897Y9794D01*
X18856Y9777D01*
X18820Y9760D01*
X18792Y9746D01*
X18770Y9735D01*
X18756Y9727D01*
X18750Y9724D01*
X18711Y9696D01*
X18672Y9669D01*
X18642Y9641D01*
X18611Y9616D01*
X18589Y9591D01*
X18573Y9574D01*
X18561Y9563D01*
X18559Y9558D01*
X18531Y9519D01*
X18506Y9480D01*
X18484Y9444D01*
X18467Y9408D01*
X18453Y9380D01*
X18442Y9355D01*
X18436Y9341D01*
X18434Y9336D01*
X18420Y9288D01*
X18409Y9241D01*
X18400Y9197D01*
X18395Y9158D01*
X18392Y9125D01*
X18389Y9097D01*
Y9052D01*
X18392Y9036D01*
X18395Y9022D01*
Y9016D01*
X18398Y8994D01*
X18403Y8977D01*
X18406Y8966D01*
Y8964D01*
X18062Y8961D01*
X18059Y8983D01*
Y9022D01*
X18056Y9044D01*
Y9083D01*
X18059Y9166D01*
X18070Y9247D01*
X18084Y9319D01*
X18098Y9383D01*
X18106Y9411D01*
X18114Y9436D01*
X18123Y9458D01*
X18128Y9474D01*
X18134Y9491D01*
X18139Y9502D01*
X18142Y9508D01*
Y9510D01*
X18176Y9583D01*
X18214Y9649D01*
X18253Y9708D01*
X18289Y9760D01*
X18323Y9802D01*
X18339Y9819D01*
X18350Y9833D01*
X18362Y9846D01*
X18370Y9855D01*
X18373Y9857D01*
X18375Y9860D01*
X18434Y9913D01*
X18492Y9960D01*
X18553Y10002D01*
X18606Y10035D01*
X18653Y10063D01*
X18675Y10074D01*
X18692Y10082D01*
X18706Y10091D01*
X18717Y10093D01*
X18722Y10099D01*
X18725D01*
X18800Y10127D01*
X18875Y10149D01*
X18947Y10163D01*
X19014Y10174D01*
X19044Y10177D01*
X19069Y10180D01*
X19094Y10182D01*
X19114D01*
X19131Y10185D01*
X19142D01*
X19150D01*
X19153D01*
X19236Y10182D01*
D02*
G37*
G36*
X19311Y5453D02*
X18833Y5067D01*
Y5256D01*
X18814Y5265D01*
X18789D01*
X18764Y5259D01*
X18736Y5251D01*
X18711Y5240D01*
X18681Y5223D01*
X18628Y5187D01*
X18575Y5148D01*
X18556Y5129D01*
X18536Y5112D01*
X18520Y5098D01*
X18509Y5087D01*
X18500Y5079D01*
X18498Y5076D01*
X18456Y5029D01*
X18420Y4981D01*
X18389Y4934D01*
X18362Y4884D01*
X18339Y4837D01*
X18320Y4790D01*
X18306Y4743D01*
X18292Y4698D01*
X18284Y4657D01*
X18275Y4620D01*
X18273Y4587D01*
X18267Y4557D01*
Y4534D01*
X18264Y4515D01*
Y4501D01*
X18267Y4451D01*
X18270Y4404D01*
X18278Y4357D01*
X18289Y4312D01*
X18314Y4229D01*
X18328Y4193D01*
X18342Y4157D01*
X18359Y4126D01*
X18373Y4099D01*
X18387Y4074D01*
X18398Y4054D01*
X18409Y4037D01*
X18417Y4026D01*
X18420Y4018D01*
X18423Y4015D01*
X18453Y3976D01*
X18484Y3943D01*
X18517Y3910D01*
X18550Y3882D01*
X18584Y3854D01*
X18617Y3832D01*
X18681Y3790D01*
X18711Y3776D01*
X18739Y3763D01*
X18764Y3752D01*
X18784Y3743D01*
X18800Y3735D01*
X18814Y3729D01*
X18822Y3727D01*
X18825D01*
X18803Y3702D01*
X18772Y3674D01*
X18742Y3640D01*
X18709Y3607D01*
X18678Y3577D01*
X18653Y3552D01*
X18636Y3532D01*
X18634Y3529D01*
X18631Y3527D01*
X18664Y3488D01*
X18695Y3452D01*
X18709Y3438D01*
X18720Y3427D01*
X18725Y3418D01*
X18728Y3416D01*
X18664Y3438D01*
X18606Y3463D01*
X18548Y3493D01*
X18495Y3524D01*
X18445Y3557D01*
X18400Y3590D01*
X18356Y3627D01*
X18317Y3660D01*
X18284Y3690D01*
X18253Y3721D01*
X18228Y3749D01*
X18206Y3774D01*
X18189Y3793D01*
X18178Y3807D01*
X18170Y3818D01*
X18167Y3821D01*
X18128Y3879D01*
X18095Y3938D01*
X18064Y3996D01*
X18039Y4054D01*
X18017Y4112D01*
X17998Y4168D01*
X17984Y4223D01*
X17973Y4273D01*
X17965Y4323D01*
X17956Y4365D01*
X17951Y4404D01*
X17948Y4437D01*
X17945Y4465D01*
Y4501D01*
X17948Y4587D01*
X17959Y4670D01*
X17976Y4751D01*
X17995Y4826D01*
X18020Y4898D01*
X18048Y4962D01*
X18078Y5026D01*
X18106Y5081D01*
X18137Y5131D01*
X18167Y5176D01*
X18195Y5215D01*
X18220Y5248D01*
X18239Y5273D01*
X18256Y5290D01*
X18267Y5303D01*
X18270Y5306D01*
X18331Y5364D01*
X18389Y5414D01*
X18445Y5459D01*
X18498Y5495D01*
X18548Y5523D01*
X18592Y5548D01*
X18636Y5567D01*
X18675Y5581D01*
X18711Y5592D01*
X18742Y5600D01*
X18770Y5606D01*
X18792Y5609D01*
X18808D01*
X18822D01*
X18831D01*
X18833D01*
Y5842D01*
X19311Y5453D01*
D02*
G37*
G36*
X19133Y5084D02*
X19153Y5081D01*
X19175Y5079D01*
X19230Y5067D01*
X19292Y5048D01*
X19325Y5034D01*
X19355Y5017D01*
X19389Y5001D01*
X19422Y4979D01*
X19455Y4954D01*
X19486Y4926D01*
X19489Y4923D01*
X19494Y4918D01*
X19500Y4909D01*
X19511Y4898D01*
X19525Y4881D01*
X19539Y4862D01*
X19553Y4843D01*
X19566Y4818D01*
X19597Y4762D01*
X19625Y4695D01*
X19636Y4659D01*
X19641Y4620D01*
X19647Y4582D01*
X19650Y4540D01*
Y4521D01*
X19647Y4507D01*
Y4490D01*
X19644Y4471D01*
X19633Y4423D01*
X19619Y4371D01*
X19597Y4312D01*
X19566Y4254D01*
X19547Y4223D01*
X19525Y4196D01*
X19522Y4193D01*
X19519Y4190D01*
X19503Y4171D01*
X19475Y4146D01*
X19439Y4115D01*
X19394Y4085D01*
X19342Y4051D01*
X19280Y4026D01*
X19214Y4007D01*
Y4049D01*
X19217D01*
X19219Y4051D01*
X19236Y4057D01*
X19261Y4068D01*
X19294Y4082D01*
X19330Y4104D01*
X19369Y4129D01*
X19405Y4162D01*
X19441Y4201D01*
X19444Y4207D01*
X19455Y4221D01*
X19469Y4246D01*
X19486Y4279D01*
X19503Y4318D01*
X19516Y4362D01*
X19528Y4412D01*
X19530Y4465D01*
Y4482D01*
X19528Y4493D01*
X19525Y4526D01*
X19516Y4565D01*
X19503Y4612D01*
X19480Y4659D01*
X19453Y4709D01*
X19414Y4759D01*
X19411D01*
X19408Y4765D01*
X19392Y4779D01*
X19367Y4798D01*
X19333Y4823D01*
X19292Y4848D01*
X19242Y4870D01*
X19186Y4887D01*
X19125Y4898D01*
Y3993D01*
X19122D01*
X19114D01*
X19094D01*
X19092D01*
X19083D01*
X19072D01*
X19056Y3996D01*
X19036Y3999D01*
X19014Y4001D01*
X18986Y4007D01*
X18958Y4012D01*
X18897Y4032D01*
X18864Y4046D01*
X18831Y4060D01*
X18797Y4079D01*
X18764Y4101D01*
X18731Y4126D01*
X18700Y4154D01*
X18697Y4157D01*
X18692Y4162D01*
X18686Y4171D01*
X18675Y4182D01*
X18661Y4198D01*
X18647Y4215D01*
X18634Y4237D01*
X18617Y4262D01*
X18589Y4318D01*
X18561Y4384D01*
X18550Y4421D01*
X18545Y4457D01*
X18539Y4498D01*
X18536Y4540D01*
Y4562D01*
X18539Y4579D01*
X18542Y4598D01*
X18545Y4620D01*
X18556Y4673D01*
X18575Y4732D01*
X18589Y4765D01*
X18606Y4798D01*
X18625Y4831D01*
X18645Y4862D01*
X18672Y4895D01*
X18700Y4926D01*
X18703Y4929D01*
X18709Y4931D01*
X18717Y4940D01*
X18728Y4951D01*
X18745Y4962D01*
X18764Y4976D01*
X18786Y4992D01*
X18811Y5006D01*
X18870Y5037D01*
X18936Y5062D01*
X18972Y5073D01*
X19011Y5079D01*
X19053Y5084D01*
X19094Y5087D01*
X19097D01*
X19106D01*
X19117D01*
X19133Y5084D01*
D02*
G37*
G36*
X19367Y5589D02*
X19428Y5562D01*
X19486Y5531D01*
X19541Y5498D01*
X19594Y5464D01*
X19641Y5428D01*
X19686Y5395D01*
X19725Y5362D01*
X19761Y5328D01*
X19794Y5298D01*
X19819Y5270D01*
X19841Y5245D01*
X19861Y5223D01*
X19872Y5209D01*
X19880Y5198D01*
X19883Y5195D01*
X19925Y5137D01*
X19961Y5076D01*
X19991Y5015D01*
X20019Y4954D01*
X20041Y4895D01*
X20058Y4837D01*
X20074Y4781D01*
X20086Y4729D01*
X20097Y4682D01*
X20105Y4637D01*
X20108Y4598D01*
X20113Y4562D01*
Y4537D01*
X20116Y4515D01*
Y4498D01*
X20113Y4409D01*
X20102Y4326D01*
X20086Y4243D01*
X20063Y4168D01*
X20036Y4096D01*
X20008Y4026D01*
X19977Y3965D01*
X19944Y3907D01*
X19913Y3854D01*
X19883Y3810D01*
X19852Y3771D01*
X19827Y3738D01*
X19805Y3710D01*
X19788Y3693D01*
X19777Y3679D01*
X19775Y3677D01*
X19711Y3615D01*
X19650Y3563D01*
X19589Y3518D01*
X19530Y3479D01*
X19472Y3446D01*
X19419Y3418D01*
X19369Y3396D01*
X19322Y3377D01*
X19280Y3363D01*
X19242Y3352D01*
X19208Y3346D01*
X19181Y3341D01*
X19158Y3338D01*
X19142Y3335D01*
X19131D01*
X19128D01*
Y3094D01*
X18717Y3504D01*
X19128Y3915D01*
Y3718D01*
X19161Y3713D01*
X19194D01*
X19228Y3718D01*
X19264Y3729D01*
X19297Y3743D01*
X19333Y3760D01*
X19397Y3799D01*
X19425Y3818D01*
X19453Y3838D01*
X19478Y3857D01*
X19497Y3876D01*
X19516Y3890D01*
X19528Y3901D01*
X19536Y3910D01*
X19539Y3913D01*
X19580Y3960D01*
X19619Y4007D01*
X19650Y4057D01*
X19677Y4107D01*
X19702Y4154D01*
X19722Y4204D01*
X19736Y4251D01*
X19750Y4296D01*
X19761Y4337D01*
X19766Y4376D01*
X19772Y4412D01*
X19777Y4440D01*
Y4465D01*
X19780Y4482D01*
Y4498D01*
X19777Y4548D01*
X19772Y4598D01*
X19766Y4645D01*
X19755Y4693D01*
X19727Y4776D01*
X19714Y4812D01*
X19697Y4848D01*
X19683Y4881D01*
X19669Y4909D01*
X19655Y4934D01*
X19641Y4954D01*
X19630Y4970D01*
X19625Y4981D01*
X19619Y4990D01*
X19616Y4992D01*
X19586Y5031D01*
X19553Y5067D01*
X19516Y5101D01*
X19483Y5131D01*
X19447Y5159D01*
X19414Y5184D01*
X19347Y5226D01*
X19317Y5242D01*
X19286Y5256D01*
X19261Y5267D01*
X19239Y5276D01*
X19222Y5284D01*
X19208Y5290D01*
X19200Y5292D01*
X19197D01*
X19222Y5317D01*
X19250Y5345D01*
X19283Y5378D01*
X19319Y5414D01*
X19350Y5445D01*
X19375Y5470D01*
X19386Y5481D01*
X19394Y5489D01*
X19397Y5492D01*
X19400Y5495D01*
X19367Y5537D01*
X19333Y5573D01*
X19319Y5589D01*
X19308Y5600D01*
X19303Y5609D01*
X19300Y5612D01*
X19367Y5589D01*
D02*
G37*
%LPC*%
G36*
X23791Y15990D02*
X22954D01*
Y15097D01*
Y15206D01*
X22956Y15195D01*
X22957Y15184D01*
X22960Y15170D01*
X22964Y15155D01*
X22970Y15141D01*
X22976Y15129D01*
X22978Y15127D01*
X22981Y15123D01*
X22986Y15119D01*
X22995Y15112D01*
X23006Y15107D01*
X23019Y15102D01*
X23038Y15098D01*
X23058Y15097D01*
X23896D01*
X23799D01*
X23809Y15098D01*
X23820Y15100D01*
X23834Y15102D01*
X23846Y15108D01*
X23859Y15114D01*
X23870Y15122D01*
X23871Y15123D01*
X23874Y15126D01*
X23878Y15132D01*
X23882Y15138D01*
X23888Y15147D01*
X23892Y15158D01*
X23895Y15170D01*
X23896Y15184D01*
Y15190D01*
X23895Y15197D01*
X23893Y15206D01*
X23889Y15216D01*
X23885Y15226D01*
X23878Y15236D01*
X23870Y15245D01*
X23868Y15247D01*
X23864Y15249D01*
X23859Y15252D01*
X23850Y15256D01*
X23839Y15262D01*
X23825Y15265D01*
X23809Y15267D01*
X23791Y15269D01*
X23151D01*
X23742Y15419D01*
X23745D01*
X23752Y15421D01*
X23761Y15424D01*
X23774Y15427D01*
X23802Y15434D01*
X23816Y15438D01*
X23827Y15442D01*
X23828D01*
X23831Y15444D01*
X23836Y15446D01*
X23842Y15449D01*
X23859Y15460D01*
X23867Y15467D01*
X23875Y15475D01*
X23877Y15477D01*
X23878Y15480D01*
X23882Y15485D01*
X23885Y15494D01*
X23889Y15503D01*
X23893Y15514D01*
X23895Y15528D01*
X23896Y15543D01*
Y15549D01*
X23895Y15555D01*
Y15563D01*
X23890Y15581D01*
X23882Y15600D01*
Y15602D01*
X23879Y15604D01*
X23872Y15613D01*
X23861Y15624D01*
X23846Y15635D01*
X23845D01*
X23842Y15636D01*
X23838Y15639D01*
X23832Y15642D01*
X23816Y15649D01*
X23798Y15656D01*
X23796D01*
X23793Y15657D01*
X23788Y15659D01*
X23779Y15660D01*
X23763Y15664D01*
X23742Y15670D01*
X23151Y15818D01*
X23791D01*
X23793D01*
X23799D01*
X23809Y15819D01*
X23820Y15821D01*
X23834Y15824D01*
X23846Y15829D01*
X23859Y15835D01*
X23870Y15843D01*
X23871Y15844D01*
X23874Y15847D01*
X23878Y15853D01*
X23882Y15860D01*
X23888Y15868D01*
X23892Y15879D01*
X23895Y15892D01*
X23896Y15905D01*
Y15911D01*
X23895Y15918D01*
X23893Y15928D01*
X23890Y15937D01*
X23885Y15947D01*
X23879Y15957D01*
X23871Y15966D01*
X23870Y15968D01*
X23865Y15971D01*
X23860Y15973D01*
X23852Y15978D01*
X23839Y15983D01*
X23825Y15986D01*
X23810Y15989D01*
X23791Y15990D01*
D02*
G37*
G36*
X23792Y14917D02*
X23291D01*
X23282Y14915D01*
X23271Y14914D01*
X23258Y14911D01*
X23246Y14907D01*
X23233Y14901D01*
X23222Y14893D01*
X23221Y14892D01*
X23218Y14889D01*
X23214Y14883D01*
X23208Y14876D01*
X23204Y14868D01*
X23200Y14857D01*
X23197Y14846D01*
X23196Y14832D01*
Y14825D01*
X23197Y14818D01*
X23198Y14810D01*
X23203Y14800D01*
X23207Y14790D01*
X23214Y14779D01*
X23222Y14770D01*
X23223Y14768D01*
X23226Y14765D01*
X23233Y14761D01*
X23241Y14757D01*
X23251Y14753D01*
X23264Y14749D01*
X23277Y14746D01*
X23294Y14745D01*
X23038D01*
X23044Y14746D01*
X23053Y14747D01*
X23062Y14752D01*
X23072Y14756D01*
X23082Y14763D01*
X23092Y14771D01*
X23093Y14772D01*
X23094Y14775D01*
X23099Y14781D01*
X23103Y14788D01*
X23107Y14796D01*
X23110Y14807D01*
X23112Y14818D01*
X23114Y14831D01*
Y14836D01*
X23112Y14843D01*
X23111Y14851D01*
X23108Y14861D01*
X23105Y14871D01*
X23100Y14882D01*
X23093Y14892D01*
X23092Y14893D01*
X23089Y14896D01*
X23083Y14900D01*
X23076Y14904D01*
X23068Y14908D01*
X23057Y14912D01*
X23044Y14915D01*
X23031Y14917D01*
X23101D01*
X23024D01*
X23018Y14915D01*
X23008Y14914D01*
X22999Y14911D01*
X22989Y14905D01*
X22979Y14900D01*
X22970Y14892D01*
X22968Y14890D01*
X22965Y14887D01*
X22963Y14882D01*
X22957Y14874D01*
X22953Y14865D01*
X22950Y14854D01*
X22947Y14843D01*
X22946Y14831D01*
Y14825D01*
X22947Y14818D01*
X22949Y14811D01*
X22952Y14801D01*
X22956Y14792D01*
X22961Y14781D01*
X22968Y14771D01*
X22970Y14770D01*
X22972Y14767D01*
X22976Y14763D01*
X22983Y14757D01*
X22993Y14753D01*
X23003Y14749D01*
X23015Y14746D01*
X23031Y14745D01*
X23896D01*
Y14838D01*
X23895Y14844D01*
X23893Y14854D01*
X23889Y14864D01*
X23885Y14874D01*
X23878Y14883D01*
X23870Y14893D01*
X23868Y14894D01*
X23864Y14897D01*
X23859Y14900D01*
X23849Y14904D01*
X23839Y14910D01*
X23825Y14912D01*
X23810Y14915D01*
X23792Y14917D01*
D02*
G37*
G36*
X23552Y14599D02*
X23534D01*
X23526Y14598D01*
X23515Y14596D01*
X23490Y14593D01*
X23461Y14589D01*
X23429Y14582D01*
X23397Y14573D01*
X23366Y14559D01*
X23365D01*
X23362Y14557D01*
X23358Y14555D01*
X23352Y14550D01*
X23338Y14542D01*
X23319Y14528D01*
X23300Y14512D01*
X23279Y14491D01*
X23258Y14467D01*
X23240Y14440D01*
Y14438D01*
X23239Y14435D01*
X23236Y14431D01*
X23233Y14426D01*
X23229Y14419D01*
X23226Y14409D01*
X23222Y14399D01*
X23216Y14387D01*
X23208Y14360D01*
X23201Y14329D01*
X23196Y14293D01*
X23194Y14254D01*
Y14243D01*
X23196Y14230D01*
X23197Y14213D01*
X23200Y14194D01*
X23203Y14175D01*
X23208Y14152D01*
X23215Y14132D01*
X23216Y14129D01*
X23218Y14122D01*
X23223Y14112D01*
X23229Y14098D01*
X23236Y14083D01*
X23244Y14068D01*
X23254Y14051D01*
X23265Y14036D01*
X23266Y14035D01*
X23271Y14029D01*
X23276Y14022D01*
X23284Y14014D01*
X23294Y14004D01*
X23305Y13994D01*
X23318Y13986D01*
X23332Y13978D01*
X23333Y13976D01*
X23337Y13975D01*
X23344Y13971D01*
X23352Y13967D01*
X23373Y13960D01*
X23384Y13958D01*
X23395Y13957D01*
X23397D01*
X23401D01*
X23406Y13958D01*
X23413Y13960D01*
X23423Y13962D01*
X23431Y13967D01*
X23441Y13972D01*
X23449Y13980D01*
X23451Y13982D01*
X23452Y13985D01*
X23456Y13989D01*
X23459Y13996D01*
X23463Y14004D01*
X23467Y14014D01*
X23469Y14023D01*
X23470Y14036D01*
Y14039D01*
X23469Y14048D01*
X23466Y14060D01*
X23459Y14071D01*
X23456Y14073D01*
X23451Y14080D01*
X23440Y14090D01*
X23423Y14103D01*
X23420Y14104D01*
X23415Y14108D01*
X23406Y14115D01*
X23395Y14123D01*
X23384Y14133D01*
X23372Y14144D01*
X23361Y14157D01*
X23351Y14169D01*
X23350Y14170D01*
X23347Y14175D01*
X23343Y14183D01*
X23338Y14193D01*
X23334Y14205D01*
X23330Y14220D01*
X23327Y14237D01*
X23326Y14256D01*
Y14263D01*
X23327Y14269D01*
X23329Y14283D01*
X23333Y14301D01*
X23341Y14320D01*
X23352Y14341D01*
X23366Y14360D01*
X23376Y14370D01*
X23387Y14380D01*
X23390Y14381D01*
X23398Y14387D01*
X23412Y14394D01*
X23430Y14402D01*
X23454Y14412D01*
X23481Y14419D01*
X23513Y14424D01*
X23551Y14426D01*
X23553D01*
X23559D01*
X23569D01*
X23580Y14424D01*
X23594Y14423D01*
X23609Y14421D01*
X23641Y14415D01*
X23642D01*
X23648Y14412D01*
X23655Y14409D01*
X23664Y14405D01*
X23687Y14395D01*
X23710Y14380D01*
X23712Y14378D01*
X23714Y14376D01*
X23720Y14370D01*
X23725Y14365D01*
X23732Y14356D01*
X23739Y14347D01*
X23753Y14324D01*
Y14323D01*
X23756Y14319D01*
X23757Y14312D01*
X23760Y14304D01*
X23763Y14293D01*
X23764Y14281D01*
X23767Y14254D01*
Y14245D01*
X23766Y14236D01*
X23764Y14223D01*
X23761Y14209D01*
X23757Y14194D01*
X23752Y14179D01*
X23743Y14165D01*
X23742Y14164D01*
X23739Y14158D01*
X23734Y14151D01*
X23725Y14143D01*
X23716Y14133D01*
X23702Y14122D01*
X23688Y14111D01*
X23670Y14100D01*
X23669Y14098D01*
X23666Y14097D01*
X23660Y14094D01*
X23653Y14090D01*
X23639Y14079D01*
X23626Y14066D01*
X23624Y14065D01*
X23623Y14062D01*
X23620Y14060D01*
X23617Y14054D01*
X23612Y14039D01*
X23609Y14030D01*
Y14015D01*
X23610Y14010D01*
X23612Y14003D01*
X23614Y13994D01*
X23619Y13985D01*
X23624Y13976D01*
X23632Y13968D01*
X23634Y13967D01*
X23637Y13965D01*
X23641Y13961D01*
X23648Y13957D01*
X23664Y13950D01*
X23674Y13949D01*
X23684Y13947D01*
X23194D01*
X23689D01*
X23696Y13949D01*
X23705Y13950D01*
X23714Y13951D01*
X23727Y13956D01*
X23739Y13960D01*
X23753Y13967D01*
X23755Y13968D01*
X23759Y13971D01*
X23766Y13975D01*
X23775Y13982D01*
X23786Y13990D01*
X23798Y14000D01*
X23810Y14012D01*
X23822Y14026D01*
X23824Y14028D01*
X23828Y14033D01*
X23834Y14041D01*
X23840Y14053D01*
X23849Y14068D01*
X23859Y14084D01*
X23867Y14104D01*
X23875Y14125D01*
X23877Y14127D01*
X23878Y14136D01*
X23881Y14147D01*
X23885Y14164D01*
X23889Y14184D01*
X23892Y14207D01*
X23893Y14233D01*
X23895Y14261D01*
Y13947D01*
D01*
Y14276D01*
X23893Y14287D01*
X23892Y14301D01*
X23889Y14316D01*
X23886Y14333D01*
X23883Y14352D01*
X23872Y14391D01*
X23864Y14412D01*
X23856Y14433D01*
X23845Y14453D01*
X23832Y14474D01*
X23818Y14492D01*
X23802Y14510D01*
X23800Y14512D01*
X23798Y14514D01*
X23792Y14519D01*
X23785Y14524D01*
X23775Y14531D01*
X23764Y14538D01*
X23750Y14546D01*
X23735Y14555D01*
X23718Y14563D01*
X23700Y14571D01*
X23680Y14578D01*
X23657Y14585D01*
X23634Y14591D01*
X23608Y14595D01*
X23581Y14598D01*
X23552Y14599D01*
D02*
G37*
G36*
X23792Y13796D02*
X23301D01*
X23294Y13795D01*
X23275Y13792D01*
X23254Y13785D01*
X23233Y13775D01*
X23222Y13768D01*
X23214Y13761D01*
X23207Y13752D01*
X23201Y13741D01*
X23197Y13728D01*
X23196Y13713D01*
Y13796D01*
D01*
Y13323D01*
X23896D01*
X23301D01*
X23307Y13324D01*
X23313Y13326D01*
X23322Y13329D01*
X23332Y13333D01*
X23340Y13338D01*
X23348Y13345D01*
X23350Y13347D01*
X23351Y13349D01*
X23354Y13354D01*
X23358Y13359D01*
X23365Y13374D01*
X23366Y13383D01*
X23368Y13392D01*
Y13398D01*
X23366Y13402D01*
X23365Y13408D01*
X23363Y13416D01*
X23361Y13426D01*
X23357Y13438D01*
Y13440D01*
X23355Y13444D01*
X23352Y13451D01*
X23350Y13459D01*
X23345Y13480D01*
X23344Y13502D01*
Y13508D01*
X23345Y13514D01*
X23347Y13524D01*
X23350Y13534D01*
X23352Y13544D01*
X23358Y13555D01*
X23365Y13564D01*
X23366Y13566D01*
X23369Y13569D01*
X23373Y13573D01*
X23380Y13578D01*
X23388Y13584D01*
X23398Y13591D01*
X23411Y13596D01*
X23424Y13602D01*
X23426D01*
X23431Y13603D01*
X23440Y13606D01*
X23451Y13609D01*
X23465Y13612D01*
X23480Y13614D01*
X23498Y13617D01*
X23517Y13620D01*
X23520D01*
X23527D01*
X23538Y13621D01*
X23553D01*
X23573Y13623D01*
X23595D01*
X23620Y13624D01*
X23648D01*
X23792D01*
X23795D01*
X23800D01*
X23810Y13625D01*
X23821Y13627D01*
X23835Y13630D01*
X23847Y13635D01*
X23860Y13641D01*
X23871Y13649D01*
X23872Y13650D01*
X23875Y13653D01*
X23879Y13659D01*
X23883Y13666D01*
X23888Y13675D01*
X23892Y13686D01*
X23895Y13698D01*
X23896Y13711D01*
Y13717D01*
X23895Y13724D01*
X23893Y13734D01*
X23889Y13743D01*
X23885Y13753D01*
X23878Y13763D01*
X23870Y13772D01*
X23868Y13774D01*
X23864Y13777D01*
X23859Y13779D01*
X23850Y13784D01*
X23839Y13789D01*
X23825Y13792D01*
X23810Y13795D01*
X23792Y13796D01*
D02*
G37*
G36*
X23546Y13269D02*
X23533D01*
X23519Y13268D01*
X23499Y13266D01*
X23477Y13263D01*
X23454Y13259D01*
X23429Y13254D01*
X23404Y13245D01*
X23402D01*
X23401Y13244D01*
X23393Y13241D01*
X23380Y13236D01*
X23365Y13227D01*
X23348Y13219D01*
X23329Y13207D01*
X23311Y13193D01*
X23293Y13177D01*
X23290Y13175D01*
X23284Y13169D01*
X23276Y13159D01*
X23266Y13147D01*
X23254Y13130D01*
X23243Y13112D01*
X23230Y13092D01*
X23221Y13068D01*
Y13067D01*
X23219Y13065D01*
X23216Y13057D01*
X23212Y13044D01*
X23208Y13026D01*
X23204Y13006D01*
X23200Y12982D01*
X23197Y12956D01*
X23196Y12928D01*
Y12914D01*
X23197Y12900D01*
X23198Y12881D01*
X23203Y12859D01*
X23207Y12834D01*
X23214Y12810D01*
X23222Y12785D01*
Y12784D01*
X23223Y12782D01*
X23226Y12774D01*
X23232Y12763D01*
X23240Y12748D01*
X23251Y12731D01*
X23262Y12713D01*
X23277Y12695D01*
X23294Y12677D01*
X23295Y12675D01*
X23302Y12670D01*
X23312Y12662D01*
X23325Y12650D01*
X23341Y12639D01*
X23361Y12628D01*
X23381Y12617D01*
X23405Y12608D01*
X23408Y12606D01*
X23416Y12603D01*
X23429Y12599D01*
X23447Y12595D01*
X23467Y12591D01*
X23491Y12587D01*
X23519Y12584D01*
X23546Y12583D01*
X23196D01*
D01*
X23896D01*
X23559D01*
X23574Y12584D01*
X23594Y12585D01*
X23616Y12588D01*
X23639Y12594D01*
X23664Y12599D01*
X23689Y12608D01*
X23692Y12609D01*
X23700Y12612D01*
X23712Y12617D01*
X23727Y12626D01*
X23745Y12635D01*
X23763Y12646D01*
X23782Y12660D01*
X23800Y12677D01*
X23802Y12678D01*
X23809Y12685D01*
X23817Y12695D01*
X23827Y12707D01*
X23839Y12724D01*
X23850Y12742D01*
X23863Y12763D01*
X23872Y12786D01*
X23874Y12789D01*
X23877Y12797D01*
X23879Y12810D01*
X23883Y12828D01*
X23889Y12849D01*
X23892Y12872D01*
X23895Y12899D01*
X23896Y12928D01*
Y12940D01*
X23895Y12956D01*
X23893Y12975D01*
X23890Y12996D01*
X23885Y13019D01*
X23879Y13044D01*
X23871Y13068D01*
X23870Y13071D01*
X23867Y13079D01*
X23860Y13090D01*
X23853Y13105D01*
X23842Y13122D01*
X23829Y13140D01*
X23816Y13158D01*
X23799Y13176D01*
X23796Y13177D01*
X23791Y13183D01*
X23781Y13191D01*
X23767Y13202D01*
X23750Y13214D01*
X23732Y13225D01*
X23712Y13236D01*
X23688Y13245D01*
X23687D01*
X23685Y13247D01*
X23677Y13250D01*
X23663Y13252D01*
X23646Y13257D01*
X23626Y13262D01*
X23602Y13265D01*
X23574Y13268D01*
X23546Y13269D01*
D02*
G37*
G36*
X23552Y12480D02*
X23534D01*
X23526Y12479D01*
X23515Y12477D01*
X23490Y12474D01*
X23461Y12470D01*
X23429Y12463D01*
X23397Y12454D01*
X23366Y12440D01*
X23365D01*
X23362Y12438D01*
X23358Y12436D01*
X23352Y12431D01*
X23338Y12423D01*
X23319Y12409D01*
X23300Y12393D01*
X23279Y12372D01*
X23258Y12348D01*
X23240Y12320D01*
Y12319D01*
X23239Y12316D01*
X23236Y12312D01*
X23233Y12307D01*
X23229Y12300D01*
X23226Y12290D01*
X23222Y12280D01*
X23216Y12268D01*
X23208Y12241D01*
X23201Y12209D01*
X23196Y12173D01*
X23194Y12135D01*
Y12144D01*
Y12123D01*
X23196Y12111D01*
X23197Y12094D01*
X23200Y12075D01*
X23203Y12056D01*
X23208Y12033D01*
X23215Y12013D01*
X23216Y12010D01*
X23218Y12003D01*
X23223Y11993D01*
X23229Y11979D01*
X23236Y11964D01*
X23244Y11949D01*
X23254Y11932D01*
X23265Y11917D01*
X23266Y11915D01*
X23271Y11910D01*
X23276Y11903D01*
X23284Y11895D01*
X23294Y11885D01*
X23305Y11875D01*
X23318Y11867D01*
X23332Y11859D01*
X23333Y11857D01*
X23337Y11856D01*
X23344Y11852D01*
X23352Y11848D01*
X23373Y11841D01*
X23384Y11839D01*
X23395Y11838D01*
X23397D01*
X23401D01*
X23406Y11839D01*
X23413Y11841D01*
X23423Y11843D01*
X23431Y11848D01*
X23441Y11853D01*
X23449Y11861D01*
X23451Y11863D01*
X23452Y11866D01*
X23456Y11870D01*
X23459Y11877D01*
X23463Y11885D01*
X23467Y11895D01*
X23469Y11904D01*
X23470Y11917D01*
Y11920D01*
X23469Y11929D01*
X23466Y11940D01*
X23459Y11952D01*
X23456Y11954D01*
X23451Y11961D01*
X23440Y11971D01*
X23423Y11983D01*
X23420Y11985D01*
X23415Y11989D01*
X23406Y11996D01*
X23395Y12004D01*
X23384Y12014D01*
X23372Y12025D01*
X23361Y12038D01*
X23351Y12050D01*
X23350Y12051D01*
X23347Y12056D01*
X23343Y12064D01*
X23338Y12074D01*
X23334Y12086D01*
X23330Y12101D01*
X23327Y12118D01*
X23326Y12137D01*
Y12144D01*
X23327Y12150D01*
X23329Y12164D01*
X23333Y12182D01*
X23341Y12201D01*
X23352Y12222D01*
X23366Y12241D01*
X23376Y12251D01*
X23387Y12261D01*
X23390Y12262D01*
X23398Y12268D01*
X23412Y12275D01*
X23430Y12283D01*
X23454Y12293D01*
X23481Y12300D01*
X23513Y12305D01*
X23551Y12307D01*
X23553D01*
X23559D01*
X23569D01*
X23580Y12305D01*
X23594Y12304D01*
X23609Y12302D01*
X23641Y12295D01*
X23642D01*
X23648Y12293D01*
X23655Y12290D01*
X23664Y12286D01*
X23687Y12276D01*
X23710Y12261D01*
X23712Y12259D01*
X23714Y12257D01*
X23720Y12251D01*
X23725Y12246D01*
X23732Y12237D01*
X23739Y12227D01*
X23753Y12205D01*
Y12204D01*
X23756Y12200D01*
X23757Y12193D01*
X23760Y12185D01*
X23763Y12173D01*
X23764Y12162D01*
X23767Y12135D01*
Y12126D01*
X23766Y12117D01*
X23764Y12104D01*
X23761Y12090D01*
X23757Y12075D01*
X23752Y12060D01*
X23743Y12046D01*
X23742Y12044D01*
X23739Y12039D01*
X23734Y12032D01*
X23725Y12024D01*
X23716Y12014D01*
X23702Y12003D01*
X23688Y11992D01*
X23670Y11981D01*
X23669Y11979D01*
X23666Y11978D01*
X23660Y11975D01*
X23653Y11971D01*
X23639Y11960D01*
X23626Y11947D01*
X23624Y11946D01*
X23623Y11943D01*
X23620Y11940D01*
X23617Y11935D01*
X23612Y11920D01*
X23609Y11911D01*
Y11896D01*
X23610Y11891D01*
X23612Y11884D01*
X23614Y11875D01*
X23619Y11866D01*
X23624Y11857D01*
X23632Y11849D01*
X23634Y11848D01*
X23637Y11846D01*
X23641Y11842D01*
X23648Y11838D01*
X23664Y11831D01*
X23674Y11829D01*
X23684Y11828D01*
X23194D01*
X23689D01*
X23696Y11829D01*
X23705Y11831D01*
X23714Y11832D01*
X23727Y11836D01*
X23739Y11841D01*
X23753Y11848D01*
X23755Y11849D01*
X23759Y11852D01*
X23766Y11856D01*
X23775Y11863D01*
X23786Y11871D01*
X23798Y11881D01*
X23810Y11893D01*
X23822Y11907D01*
X23824Y11909D01*
X23828Y11914D01*
X23834Y11922D01*
X23840Y11933D01*
X23849Y11949D01*
X23859Y11965D01*
X23867Y11985D01*
X23875Y12006D01*
X23877Y12008D01*
X23878Y12017D01*
X23881Y12028D01*
X23885Y12044D01*
X23889Y12065D01*
X23892Y12087D01*
X23893Y12114D01*
X23895Y12142D01*
Y11877D01*
Y12157D01*
X23893Y12168D01*
X23892Y12182D01*
X23889Y12197D01*
X23886Y12214D01*
X23883Y12233D01*
X23872Y12272D01*
X23864Y12293D01*
X23856Y12313D01*
X23845Y12334D01*
X23832Y12355D01*
X23818Y12373D01*
X23802Y12391D01*
X23800Y12393D01*
X23798Y12395D01*
X23792Y12399D01*
X23785Y12405D01*
X23775Y12412D01*
X23764Y12419D01*
X23750Y12427D01*
X23735Y12436D01*
X23718Y12444D01*
X23700Y12452D01*
X23680Y12459D01*
X23657Y12466D01*
X23634Y12472D01*
X23608Y12476D01*
X23581Y12479D01*
X23552Y12480D01*
D02*
G37*
G36*
X23792Y11680D02*
X23036D01*
X23026Y11678D01*
X23015Y11677D01*
X23001Y11674D01*
X22989Y11670D01*
X22976Y11664D01*
X22965Y11658D01*
X22964Y11656D01*
X22961Y11653D01*
X22957Y11648D01*
X22952Y11641D01*
X22947Y11633D01*
X22943Y11621D01*
X22940Y11609D01*
X22939Y11595D01*
Y11680D01*
D01*
Y11065D01*
X23896D01*
X23800D01*
X23810Y11067D01*
X23821Y11068D01*
X23834Y11071D01*
X23846Y11076D01*
X23859Y11082D01*
X23870Y11090D01*
X23871Y11092D01*
X23874Y11094D01*
X23878Y11100D01*
X23882Y11107D01*
X23888Y11115D01*
X23892Y11126D01*
X23895Y11139D01*
X23896Y11153D01*
Y11157D01*
X23895Y11161D01*
Y11165D01*
X23890Y11179D01*
X23883Y11194D01*
X23878Y11203D01*
X23871Y11211D01*
X23863Y11218D01*
X23852Y11223D01*
X23840Y11229D01*
X23827Y11233D01*
X23810Y11236D01*
X23792Y11237D01*
X23501D01*
X23499D01*
X23497D01*
X23492D01*
X23487D01*
X23473Y11239D01*
X23454Y11240D01*
X23434Y11243D01*
X23413Y11248D01*
X23393Y11254D01*
X23375Y11262D01*
X23373Y11264D01*
X23368Y11268D01*
X23361Y11273D01*
X23351Y11283D01*
X23343Y11296D01*
X23336Y11312D01*
X23330Y11333D01*
X23329Y11357D01*
Y11365D01*
X23330Y11373D01*
X23332Y11384D01*
X23336Y11397D01*
X23340Y11411D01*
X23347Y11426D01*
X23355Y11440D01*
X23357Y11441D01*
X23359Y11445D01*
X23366Y11452D01*
X23375Y11461D01*
X23384Y11469D01*
X23397Y11477D01*
X23411Y11487D01*
X23427Y11494D01*
X23429D01*
X23434Y11497D01*
X23445Y11498D01*
X23459Y11501D01*
X23477Y11504D01*
X23502Y11505D01*
X23530Y11508D01*
X23546D01*
X23565D01*
X23792D01*
X23795D01*
X23800D01*
X23810Y11509D01*
X23821Y11511D01*
X23834Y11513D01*
X23846Y11517D01*
X23859Y11523D01*
X23870Y11531D01*
X23871Y11533D01*
X23874Y11535D01*
X23878Y11541D01*
X23882Y11548D01*
X23888Y11558D01*
X23892Y11569D01*
X23895Y11581D01*
X23896Y11595D01*
Y11599D01*
X23895Y11603D01*
Y11608D01*
X23890Y11621D01*
X23883Y11637D01*
X23878Y11645D01*
X23871Y11653D01*
X23863Y11660D01*
X23852Y11666D01*
X23840Y11671D01*
X23827Y11676D01*
X23810Y11678D01*
X23792Y11680D01*
D02*
G37*
G36*
Y10895D02*
X23291D01*
X23282Y10893D01*
X23271Y10892D01*
X23258Y10889D01*
X23246Y10885D01*
X23233Y10880D01*
X23222Y10871D01*
X23221Y10870D01*
X23218Y10867D01*
X23214Y10861D01*
X23208Y10855D01*
X23204Y10846D01*
X23200Y10835D01*
X23197Y10824D01*
X23196Y10810D01*
Y10803D01*
X23197Y10796D01*
X23198Y10788D01*
X23203Y10778D01*
X23207Y10769D01*
X23214Y10757D01*
X23222Y10748D01*
X23223Y10746D01*
X23226Y10744D01*
X23233Y10739D01*
X23241Y10735D01*
X23251Y10731D01*
X23264Y10727D01*
X23277Y10724D01*
X23294Y10723D01*
X23038D01*
X23044Y10724D01*
X23053Y10726D01*
X23062Y10730D01*
X23072Y10734D01*
X23082Y10741D01*
X23092Y10749D01*
X23093Y10751D01*
X23094Y10753D01*
X23099Y10759D01*
X23103Y10766D01*
X23107Y10774D01*
X23110Y10785D01*
X23112Y10796D01*
X23114Y10809D01*
Y10814D01*
X23112Y10821D01*
X23111Y10830D01*
X23108Y10839D01*
X23105Y10849D01*
X23100Y10860D01*
X23093Y10870D01*
X23092Y10871D01*
X23089Y10874D01*
X23083Y10878D01*
X23076Y10882D01*
X23068Y10886D01*
X23057Y10891D01*
X23044Y10893D01*
X23031Y10895D01*
X23101D01*
X23024D01*
X23018Y10893D01*
X23008Y10892D01*
X22999Y10889D01*
X22989Y10884D01*
X22979Y10878D01*
X22970Y10870D01*
X22968Y10868D01*
X22965Y10866D01*
X22963Y10860D01*
X22957Y10852D01*
X22953Y10843D01*
X22950Y10832D01*
X22947Y10821D01*
X22946Y10809D01*
Y10895D01*
D01*
Y10723D01*
Y10803D01*
X22947Y10796D01*
X22949Y10789D01*
X22952Y10780D01*
X22956Y10770D01*
X22961Y10759D01*
X22968Y10749D01*
X22970Y10748D01*
X22972Y10745D01*
X22976Y10741D01*
X22983Y10735D01*
X22993Y10731D01*
X23003Y10727D01*
X23015Y10724D01*
X23031Y10723D01*
X23896D01*
X23800D01*
X23810Y10724D01*
X23821Y10726D01*
X23834Y10728D01*
X23846Y10734D01*
X23859Y10739D01*
X23870Y10748D01*
X23871Y10749D01*
X23874Y10752D01*
X23878Y10757D01*
X23882Y10764D01*
X23888Y10774D01*
X23892Y10785D01*
X23895Y10796D01*
X23896Y10810D01*
Y10816D01*
X23895Y10823D01*
X23893Y10832D01*
X23889Y10842D01*
X23885Y10852D01*
X23878Y10861D01*
X23870Y10871D01*
X23868Y10873D01*
X23864Y10875D01*
X23859Y10878D01*
X23849Y10882D01*
X23839Y10888D01*
X23825Y10891D01*
X23810Y10893D01*
X23792Y10895D01*
D02*
G37*
G36*
X24153Y10548D02*
X23286D01*
X23277Y10547D01*
X23266Y10545D01*
X23255Y10542D01*
X23243Y10540D01*
X23232Y10534D01*
X23222Y10527D01*
X23221Y10526D01*
X23218Y10523D01*
X23214Y10518D01*
X23209Y10512D01*
X23205Y10502D01*
X23201Y10493D01*
X23198Y10481D01*
X23197Y10468D01*
Y10548D01*
Y9873D01*
D01*
Y10151D01*
X23200Y10136D01*
X23203Y10117D01*
X23207Y10095D01*
X23215Y10070D01*
X23225Y10043D01*
X23239Y10018D01*
Y10017D01*
X23240Y10015D01*
X23247Y10007D01*
X23255Y9995D01*
X23269Y9979D01*
X23286Y9963D01*
X23307Y9946D01*
X23332Y9928D01*
X23359Y9913D01*
X23361D01*
X23363Y9911D01*
X23368Y9909D01*
X23373Y9906D01*
X23380Y9903D01*
X23390Y9900D01*
X23399Y9896D01*
X23412Y9892D01*
X23438Y9885D01*
X23470Y9878D01*
X23506Y9874D01*
X23545Y9873D01*
X23559D01*
X23574Y9874D01*
X23592Y9875D01*
X23616Y9878D01*
X23639Y9882D01*
X23666Y9888D01*
X23691Y9896D01*
X23692D01*
X23694Y9898D01*
X23702Y9900D01*
X23714Y9906D01*
X23730Y9911D01*
X23748Y9921D01*
X23766Y9931D01*
X23785Y9943D01*
X23803Y9957D01*
X23804Y9959D01*
X23810Y9964D01*
X23818Y9972D01*
X23828Y9984D01*
X23839Y9997D01*
X23852Y10013D01*
X23863Y10031D01*
X23872Y10050D01*
X23874Y10053D01*
X23877Y10060D01*
X23879Y10071D01*
X23883Y10085D01*
X23889Y10101D01*
X23892Y10121D01*
X23895Y10143D01*
X23896Y10165D01*
Y10178D01*
X23895Y10192D01*
X23892Y10208D01*
X23889Y10228D01*
X23883Y10248D01*
X23877Y10269D01*
X23867Y10290D01*
X23865Y10293D01*
X23861Y10298D01*
X23854Y10308D01*
X23845Y10321D01*
X23832Y10334D01*
X23818Y10351D01*
X23800Y10368D01*
X23779Y10384D01*
X24037D01*
X24039D01*
X24043D01*
X24049D01*
X24055Y10386D01*
X24073Y10389D01*
X24094Y10394D01*
X24116Y10405D01*
X24126Y10411D01*
X24135Y10419D01*
X24141Y10429D01*
X24147Y10440D01*
X24151Y10452D01*
X24153Y10468D01*
Y10476D01*
X24151Y10484D01*
X24148Y10494D01*
X24146Y10505D01*
X24140Y10516D01*
X24132Y10526D01*
X24122Y10533D01*
X24121D01*
X24116Y10536D01*
X24110Y10537D01*
X24100Y10540D01*
X24089Y10542D01*
X24073Y10545D01*
X24057Y10547D01*
X24037Y10548D01*
X24153D01*
D02*
G37*
G36*
X23423Y9507D02*
X23411D01*
X23401Y9505D01*
X23390D01*
X23376Y9504D01*
X23361Y9501D01*
X23344Y9498D01*
X23307Y9491D01*
X23266Y9480D01*
X23223Y9464D01*
X23203Y9454D01*
X23182Y9443D01*
X23180Y9441D01*
X23176Y9440D01*
X23171Y9436D01*
X23164Y9430D01*
X23154Y9425D01*
X23143Y9416D01*
X23118Y9396D01*
X23089Y9371D01*
X23060Y9341D01*
X23031Y9305D01*
X23004Y9267D01*
X23003Y9265D01*
X23001Y9261D01*
X22999Y9256D01*
X22995Y9247D01*
X22989Y9236D01*
X22983Y9224D01*
X22978Y9210D01*
X22971Y9194D01*
X22965Y9176D01*
X22960Y9157D01*
X22949Y9117D01*
X22942Y9071D01*
X22939Y9047D01*
Y9507D01*
D01*
Y8537D01*
X23906D01*
X23436D01*
X23445Y8539D01*
X23456D01*
X23470Y8540D01*
X23485Y8543D01*
X23502Y8545D01*
X23540Y8554D01*
X23580Y8565D01*
X23623Y8582D01*
X23645Y8593D01*
X23666Y8604D01*
X23667Y8605D01*
X23670Y8606D01*
X23677Y8611D01*
X23684Y8616D01*
X23694Y8622D01*
X23705Y8630D01*
X23730Y8651D01*
X23757Y8676D01*
X23786Y8706D01*
X23816Y8741D01*
X23842Y8781D01*
Y8783D01*
X23845Y8787D01*
X23847Y8792D01*
X23852Y8801D01*
X23857Y8810D01*
X23863Y8823D01*
X23868Y8837D01*
X23874Y8853D01*
X23879Y8870D01*
X23885Y8889D01*
X23896Y8930D01*
X23903Y8975D01*
X23904Y8999D01*
X23906Y9023D01*
Y9035D01*
X23904Y9045D01*
Y9057D01*
X23903Y9071D01*
X23900Y9086D01*
X23897Y9103D01*
X23890Y9140D01*
X23879Y9182D01*
X23863Y9224D01*
X23853Y9246D01*
X23842Y9267D01*
X23840Y9268D01*
X23839Y9271D01*
X23835Y9278D01*
X23831Y9285D01*
X23824Y9294D01*
X23816Y9305D01*
X23796Y9330D01*
X23771Y9358D01*
X23741Y9387D01*
X23706Y9416D01*
X23667Y9443D01*
X23666D01*
X23662Y9446D01*
X23656Y9448D01*
X23648Y9452D01*
X23637Y9458D01*
X23624Y9464D01*
X23610Y9469D01*
X23595Y9475D01*
X23577Y9480D01*
X23558Y9486D01*
X23517Y9497D01*
X23472Y9504D01*
X23448Y9505D01*
X23423Y9507D01*
D02*
G37*
G36*
X23881Y8149D02*
X23568D01*
X23789D01*
X23784Y8147D01*
X23778Y8146D01*
X23768Y8145D01*
X23759Y8142D01*
X23748Y8138D01*
X23734Y8132D01*
X23732Y8131D01*
X23727Y8129D01*
X23721Y8125D01*
X23712Y8121D01*
X23692Y8109D01*
X23682Y8102D01*
X23674Y8095D01*
X23673Y8093D01*
X23670Y8091D01*
X23666Y8086D01*
X23659Y8081D01*
X23652Y8073D01*
X23644Y8064D01*
X23623Y8043D01*
X23599Y8020D01*
X23574Y7995D01*
X23549Y7969D01*
X23526Y7942D01*
X23524Y7941D01*
X23523Y7939D01*
X23516Y7931D01*
X23505Y7919D01*
X23492Y7905D01*
X23479Y7888D01*
X23465Y7873D01*
X23452Y7858D01*
X23442Y7845D01*
X23441Y7842D01*
X23436Y7837D01*
X23429Y7827D01*
X23420Y7815D01*
X23409Y7802D01*
X23397Y7787D01*
X23383Y7773D01*
X23369Y7759D01*
X23368Y7758D01*
X23362Y7754D01*
X23355Y7747D01*
X23345Y7740D01*
X23334Y7731D01*
X23320Y7722D01*
X23307Y7713D01*
X23293Y7706D01*
X23291Y7705D01*
X23286Y7704D01*
X23279Y7701D01*
X23269Y7697D01*
X23257Y7694D01*
X23244Y7691D01*
X23230Y7690D01*
X23216Y7688D01*
X23215D01*
X23209D01*
X23203Y7690D01*
X23193Y7691D01*
X23182Y7693D01*
X23169Y7697D01*
X23157Y7701D01*
X23144Y7708D01*
X23143Y7709D01*
X23139Y7712D01*
X23133Y7716D01*
X23126Y7722D01*
X23118Y7729D01*
X23110Y7738D01*
X23101Y7748D01*
X23094Y7760D01*
X23093Y7762D01*
X23092Y7766D01*
X23089Y7773D01*
X23085Y7781D01*
X23082Y7792D01*
X23079Y7805D01*
X23078Y7819D01*
X23076Y7833D01*
Y7841D01*
X23078Y7846D01*
X23081Y7862D01*
X23086Y7880D01*
X23094Y7901D01*
X23107Y7923D01*
X23115Y7934D01*
X23125Y7944D01*
X23137Y7953D01*
X23150Y7963D01*
X23153Y7964D01*
X23155Y7966D01*
X23160Y7969D01*
X23167Y7971D01*
X23176Y7975D01*
X23187Y7980D01*
X23203Y7985D01*
X23204D01*
X23209Y7988D01*
X23216Y7991D01*
X23226Y7995D01*
X23247Y8005D01*
X23258Y8012D01*
X23268Y8018D01*
X23269Y8020D01*
X23271Y8021D01*
X23275Y8025D01*
X23279Y8032D01*
X23283Y8039D01*
X23286Y8049D01*
X23289Y8060D01*
X23290Y8073D01*
Y8078D01*
X23289Y8084D01*
X23287Y8091D01*
X23284Y8099D01*
X23282Y8109D01*
X23276Y8117D01*
X23269Y8125D01*
X23268Y8127D01*
X23265Y8128D01*
X23261Y8132D01*
X23254Y8135D01*
X23246Y8139D01*
X23236Y8143D01*
X23225Y8145D01*
X23212Y8146D01*
X23211D01*
X23204D01*
X23196Y8145D01*
X23185Y8143D01*
X23171Y8142D01*
X23155Y8138D01*
X23139Y8134D01*
X23121Y8127D01*
X23118Y8125D01*
X23112Y8122D01*
X23104Y8118D01*
X23093Y8111D01*
X23079Y8104D01*
X23065Y8093D01*
X23050Y8082D01*
X23036Y8068D01*
X23035Y8067D01*
X23029Y8061D01*
X23022Y8053D01*
X23014Y8042D01*
X23004Y8027D01*
X22993Y8010D01*
X22983Y7991D01*
X22974Y7970D01*
Y7969D01*
X22972Y7967D01*
X22970Y7959D01*
X22965Y7946D01*
X22961Y7930D01*
X22957Y7909D01*
X22953Y7885D01*
X22950Y7859D01*
X22949Y7830D01*
Y8149D01*
D01*
Y7500D01*
X23649D01*
X22949D01*
Y7813D01*
X22950Y7805D01*
Y7795D01*
X22953Y7773D01*
X22956Y7747D01*
X22961Y7719D01*
X22970Y7691D01*
X22979Y7665D01*
X22981Y7663D01*
X22983Y7658D01*
X22988Y7650D01*
X22995Y7638D01*
X23003Y7626D01*
X23013Y7613D01*
X23024Y7600D01*
X23036Y7587D01*
X23038Y7586D01*
X23042Y7582D01*
X23050Y7575D01*
X23060Y7568D01*
X23071Y7559D01*
X23085Y7550D01*
X23101Y7541D01*
X23118Y7534D01*
X23119Y7533D01*
X23126Y7532D01*
X23135Y7529D01*
X23147Y7525D01*
X23161Y7521D01*
X23178Y7518D01*
X23196Y7516D01*
X23214Y7515D01*
X23215D01*
X23218D01*
X23222D01*
X23228D01*
X23241Y7516D01*
X23261Y7521D01*
X23283Y7525D01*
X23307Y7532D01*
X23332Y7541D01*
X23357Y7555D01*
X23359Y7557D01*
X23368Y7562D01*
X23379Y7569D01*
X23393Y7580D01*
X23409Y7591D01*
X23426Y7605D01*
X23442Y7619D01*
X23458Y7634D01*
X23459Y7636D01*
X23465Y7643D01*
X23473Y7652D01*
X23485Y7666D01*
X23501Y7686D01*
X23522Y7709D01*
X23544Y7737D01*
X23571Y7770D01*
X23573Y7772D01*
X23574Y7774D01*
X23578Y7779D01*
X23584Y7785D01*
X23598Y7802D01*
X23616Y7822D01*
X23635Y7844D01*
X23655Y7865D01*
X23674Y7884D01*
X23684Y7892D01*
X23692Y7899D01*
X23694D01*
X23695Y7902D01*
X23703Y7909D01*
X23716Y7919D01*
X23732Y7931D01*
Y7593D01*
X23734Y7584D01*
X23735Y7573D01*
X23738Y7561D01*
X23741Y7548D01*
X23746Y7536D01*
X23753Y7526D01*
X23755Y7525D01*
X23757Y7522D01*
X23761Y7518D01*
X23767Y7512D01*
X23775Y7508D01*
X23785Y7504D01*
X23795Y7501D01*
X23807Y7500D01*
X23813D01*
X23818Y7501D01*
X23825Y7503D01*
X23834Y7505D01*
X23843Y7508D01*
X23852Y7514D01*
X23860Y7521D01*
X23861Y7522D01*
X23863Y7525D01*
X23867Y7529D01*
X23870Y7536D01*
X23874Y7546D01*
X23878Y7555D01*
X23879Y7568D01*
X23881Y7583D01*
Y8056D01*
X23879Y8064D01*
X23878Y8074D01*
X23875Y8086D01*
X23870Y8099D01*
X23864Y8111D01*
X23856Y8122D01*
X23854Y8124D01*
X23852Y8127D01*
X23846Y8131D01*
X23838Y8135D01*
X23829Y8140D01*
X23818Y8145D01*
X23806Y8147D01*
X23793Y8149D01*
X23881D01*
D02*
G37*
G36*
X23465Y7389D02*
X23404D01*
X23380Y7387D01*
X23354Y7386D01*
X23325Y7385D01*
X23295Y7382D01*
X23266Y7379D01*
X23265D01*
X23262D01*
X23259Y7378D01*
X23254D01*
X23239Y7375D01*
X23221Y7371D01*
X23200Y7367D01*
X23178Y7361D01*
X23155Y7356D01*
X23133Y7347D01*
X23132D01*
X23129Y7346D01*
X23125Y7343D01*
X23118Y7340D01*
X23103Y7332D01*
X23082Y7321D01*
X23060Y7306D01*
X23038Y7288D01*
X23015Y7265D01*
X22996Y7240D01*
Y7239D01*
X22993Y7238D01*
X22992Y7233D01*
X22988Y7228D01*
X22985Y7221D01*
X22981Y7213D01*
X22971Y7192D01*
X22963Y7167D01*
X22954Y7138D01*
X22949Y7106D01*
X22947Y7070D01*
Y6743D01*
X23895D01*
X23463D01*
X23488Y6744D01*
X23516Y6745D01*
X23545Y6748D01*
X23576Y6752D01*
X23605Y6756D01*
X23606D01*
X23608D01*
X23612Y6758D01*
X23617Y6759D01*
X23631Y6762D01*
X23649Y6766D01*
X23671Y6773D01*
X23694Y6781D01*
X23717Y6791D01*
X23741Y6802D01*
X23742D01*
X23743Y6804D01*
X23748Y6806D01*
X23753Y6811D01*
X23766Y6819D01*
X23782Y6833D01*
X23800Y6848D01*
X23820Y6867D01*
X23838Y6890D01*
X23854Y6915D01*
Y6916D01*
X23856Y6917D01*
X23859Y6921D01*
X23860Y6927D01*
X23867Y6941D01*
X23874Y6959D01*
X23882Y6981D01*
X23888Y7007D01*
X23893Y7035D01*
X23895Y7066D01*
Y7075D01*
X23893Y7082D01*
Y7091D01*
X23892Y7100D01*
X23888Y7123D01*
X23881Y7150D01*
X23872Y7178D01*
X23859Y7209D01*
X23840Y7238D01*
Y7239D01*
X23838Y7240D01*
X23835Y7245D01*
X23831Y7250D01*
X23818Y7264D01*
X23802Y7279D01*
X23779Y7299D01*
X23755Y7317D01*
X23724Y7335D01*
X23691Y7351D01*
X23688Y7353D01*
X23681Y7354D01*
X23671Y7358D01*
X23656Y7362D01*
X23639Y7367D01*
X23620Y7372D01*
X23598Y7376D01*
X23576Y7380D01*
X23574D01*
X23573D01*
X23565Y7382D01*
X23552Y7383D01*
X23534Y7385D01*
X23513Y7386D01*
X23490Y7387D01*
X23465Y7389D01*
D02*
G37*
G36*
X23273Y6600D02*
X23268D01*
X23262Y6598D01*
X23255Y6597D01*
X23240Y6591D01*
X23233Y6587D01*
X23226Y6580D01*
X23225Y6579D01*
X23223Y6576D01*
X23221Y6571D01*
X23215Y6564D01*
X23209Y6554D01*
X23203Y6541D01*
X23194Y6526D01*
X23186Y6508D01*
Y6507D01*
X23185Y6505D01*
X23182Y6501D01*
X23179Y6496D01*
X23172Y6482D01*
X23162Y6464D01*
X23151Y6444D01*
X23139Y6425D01*
X23125Y6404D01*
X23111Y6386D01*
X23110Y6385D01*
X23104Y6378D01*
X23096Y6369D01*
X23085Y6358D01*
X23072Y6346D01*
X23057Y6333D01*
X23040Y6320D01*
X23022Y6306D01*
X23019Y6304D01*
X23014Y6300D01*
X23006Y6293D01*
X22996Y6286D01*
X22985Y6278D01*
X22975Y6271D01*
X22967Y6264D01*
X22961Y6259D01*
X22960Y6256D01*
X22954Y6249D01*
X22953Y6243D01*
X22950Y6236D01*
X22949Y6228D01*
Y6600D01*
D01*
Y6143D01*
X23896D01*
X23781D01*
X23789Y6145D01*
X23799Y6146D01*
X23810Y6148D01*
X23832Y6155D01*
X23856Y6164D01*
X23867Y6171D01*
X23877Y6181D01*
X23885Y6191D01*
X23890Y6202D01*
X23895Y6216D01*
X23896Y6231D01*
Y6238D01*
X23895Y6245D01*
X23893Y6253D01*
X23890Y6263D01*
X23885Y6274D01*
X23879Y6284D01*
X23871Y6293D01*
X23870Y6295D01*
X23865Y6296D01*
X23860Y6300D01*
X23852Y6304D01*
X23840Y6308D01*
X23828Y6311D01*
X23813Y6314D01*
X23795Y6315D01*
X23219D01*
X23221Y6317D01*
X23225Y6322D01*
X23230Y6331D01*
X23239Y6342D01*
X23248Y6354D01*
X23258Y6369D01*
X23269Y6385D01*
X23280Y6403D01*
X23304Y6439D01*
X23313Y6457D01*
X23323Y6475D01*
X23332Y6492D01*
X23337Y6507D01*
X23341Y6521D01*
X23343Y6532D01*
Y6536D01*
X23341Y6541D01*
X23340Y6547D01*
X23337Y6555D01*
X23334Y6562D01*
X23329Y6571D01*
X23322Y6579D01*
X23320Y6580D01*
X23318Y6582D01*
X23313Y6586D01*
X23308Y6589D01*
X23293Y6597D01*
X23283Y6598D01*
X23273Y6600D01*
D02*
G37*
G36*
X23895Y5855D02*
Y5544D01*
X23893Y5553D01*
Y5564D01*
X23890Y5587D01*
X23886Y5615D01*
X23879Y5646D01*
X23871Y5676D01*
X23859Y5705D01*
Y5707D01*
X23857Y5708D01*
X23854Y5712D01*
X23852Y5718D01*
X23843Y5730D01*
X23832Y5747D01*
X23818Y5765D01*
X23802Y5784D01*
X23781Y5802D01*
X23759Y5818D01*
X23757D01*
X23756Y5819D01*
X23748Y5823D01*
X23734Y5830D01*
X23717Y5836D01*
X23695Y5842D01*
X23671Y5849D01*
X23644Y5854D01*
X23614Y5855D01*
X23608D01*
X23598Y5854D01*
X23587Y5852D01*
X23573Y5849D01*
X23558Y5847D01*
X23541Y5841D01*
X23522Y5836D01*
X23503Y5827D01*
X23484Y5816D01*
X23465Y5804D01*
X23445Y5787D01*
X23427Y5769D01*
X23411Y5748D01*
X23395Y5723D01*
X23383Y5695D01*
X23381Y5697D01*
X23380Y5701D01*
X23376Y5708D01*
X23372Y5715D01*
X23365Y5726D01*
X23357Y5736D01*
X23347Y5748D01*
X23336Y5759D01*
X23323Y5772D01*
X23309Y5784D01*
X23293Y5794D01*
X23276Y5804D01*
X23257Y5812D01*
X23236Y5819D01*
X23214Y5823D01*
X23190Y5824D01*
X23189D01*
X23187D01*
X23179D01*
X23168Y5823D01*
X23151Y5820D01*
X23133Y5816D01*
X23114Y5809D01*
X23093Y5801D01*
X23072Y5790D01*
X23069Y5788D01*
X23062Y5783D01*
X23053Y5776D01*
X23039Y5763D01*
X23025Y5750D01*
X23010Y5733D01*
X22996Y5712D01*
X22982Y5689D01*
Y5687D01*
X22981Y5686D01*
X22979Y5682D01*
X22976Y5676D01*
X22971Y5662D01*
X22964Y5644D01*
X22958Y5622D01*
X22953Y5594D01*
X22949Y5565D01*
X22947Y5533D01*
Y5521D01*
X22949Y5507D01*
X22950Y5489D01*
X22953Y5468D01*
X22956Y5446D01*
X22961Y5424D01*
X22968Y5401D01*
X22970Y5399D01*
X22972Y5392D01*
X22976Y5382D01*
X22982Y5368D01*
X22990Y5353D01*
X22999Y5338D01*
X23010Y5322D01*
X23022Y5307D01*
X23024Y5306D01*
X23028Y5300D01*
X23036Y5293D01*
X23044Y5285D01*
X23057Y5277D01*
X23069Y5267D01*
X23085Y5257D01*
X23100Y5250D01*
X23101Y5249D01*
X23107Y5248D01*
X23117Y5245D01*
X23128Y5241D01*
X23142Y5238D01*
X23157Y5235D01*
X23173Y5234D01*
X23191Y5232D01*
X23194D01*
X23203D01*
X23214Y5234D01*
X23229Y5236D01*
X23246Y5241D01*
X23265Y5246D01*
X23283Y5253D01*
X23302Y5264D01*
X23305Y5266D01*
X23311Y5270D01*
X23319Y5278D01*
X23330Y5288D01*
X23344Y5302D01*
X23357Y5317D01*
X23370Y5336D01*
X23383Y5358D01*
X23384Y5356D01*
X23387Y5350D01*
X23391Y5340D01*
X23397Y5328D01*
X23405Y5314D01*
X23415Y5299D01*
X23424Y5284D01*
X23437Y5270D01*
X23438Y5268D01*
X23442Y5264D01*
X23449Y5257D01*
X23459Y5249D01*
X23470Y5241D01*
X23484Y5232D01*
X23498Y5223D01*
X23515Y5216D01*
X23516Y5214D01*
X23523Y5213D01*
X23531Y5210D01*
X23544Y5206D01*
X23558Y5203D01*
X23574Y5200D01*
X23594Y5199D01*
X23613Y5198D01*
X22947D01*
D01*
X23895D01*
Y5855D01*
D02*
G37*
%LPD*%
G36*
X23038Y15989D02*
X23025Y15986D01*
X23011Y15983D01*
X22999Y15978D01*
X22986Y15969D01*
X22976Y15959D01*
X22975Y15958D01*
X22972Y15954D01*
X22970Y15947D01*
X22965Y15937D01*
X22961Y15925D01*
X22957Y15910D01*
X22956Y15893D01*
X22954Y15874D01*
Y15990D01*
X23049D01*
X23038Y15989D01*
D02*
G37*
G36*
X22956Y15786D02*
X22958Y15763D01*
X22961Y15750D01*
X22964Y15740D01*
Y15739D01*
X22965Y15736D01*
X22972Y15726D01*
X22982Y15715D01*
X22990Y15710D01*
X22999Y15706D01*
X23000D01*
X23003Y15703D01*
X23010Y15702D01*
X23018Y15697D01*
X23029Y15693D01*
X23043Y15689D01*
X23060Y15685D01*
X23079Y15679D01*
X23585Y15543D01*
X23079Y15409D01*
X23076D01*
X23069Y15406D01*
X23060Y15403D01*
X23049Y15401D01*
X23022Y15392D01*
X23010Y15388D01*
X22999Y15384D01*
X22997D01*
X22995Y15381D01*
X22990Y15380D01*
X22985Y15376D01*
X22974Y15365D01*
X22968Y15358D01*
X22964Y15349D01*
Y15348D01*
X22963Y15345D01*
X22961Y15338D01*
X22958Y15330D01*
X22957Y15320D01*
X22956Y15306D01*
X22954Y15291D01*
Y15797D01*
X22956Y15786D01*
D02*
G37*
G36*
X23896Y14745D02*
X23800D01*
X23810Y14746D01*
X23821Y14747D01*
X23834Y14750D01*
X23846Y14756D01*
X23859Y14761D01*
X23870Y14770D01*
X23871Y14771D01*
X23874Y14774D01*
X23878Y14779D01*
X23882Y14786D01*
X23888Y14796D01*
X23892Y14807D01*
X23895Y14818D01*
X23896Y14832D01*
Y14745D01*
D02*
G37*
G36*
X23197Y13698D02*
X23198Y13689D01*
X23203Y13680D01*
X23207Y13668D01*
X23214Y13660D01*
X23223Y13652D01*
X23225Y13650D01*
X23229Y13649D01*
X23234Y13645D01*
X23244Y13642D01*
X23255Y13638D01*
X23269Y13635D01*
X23286Y13632D01*
X23304Y13631D01*
X23301Y13630D01*
X23295Y13625D01*
X23286Y13618D01*
X23273Y13612D01*
X23261Y13602D01*
X23247Y13591D01*
X23234Y13580D01*
X23223Y13567D01*
X23222Y13566D01*
X23219Y13562D01*
X23215Y13553D01*
X23209Y13544D01*
X23204Y13531D01*
X23200Y13516D01*
X23197Y13499D01*
X23196Y13480D01*
Y13706D01*
X23197Y13698D01*
D02*
G37*
G36*
Y13460D02*
X23198Y13447D01*
X23203Y13430D01*
X23207Y13412D01*
X23214Y13394D01*
X23223Y13374D01*
X23225Y13372D01*
X23229Y13366D01*
X23234Y13358D01*
X23243Y13348D01*
X23252Y13340D01*
X23265Y13331D01*
X23280Y13326D01*
X23295Y13323D01*
X23196D01*
Y13470D01*
X23197Y13460D01*
D02*
G37*
G36*
X23570Y13094D02*
X23587Y13093D01*
X23605Y13092D01*
X23626Y13087D01*
X23646Y13083D01*
X23666Y13076D01*
X23669Y13075D01*
X23674Y13072D01*
X23682Y13068D01*
X23694Y13061D01*
X23706Y13053D01*
X23718Y13043D01*
X23731Y13032D01*
X23742Y13018D01*
X23743Y13017D01*
X23746Y13011D01*
X23750Y13003D01*
X23755Y12992D01*
X23760Y12979D01*
X23764Y12964D01*
X23767Y12946D01*
X23768Y12928D01*
Y12920D01*
X23767Y12915D01*
X23766Y12900D01*
X23761Y12882D01*
X23755Y12863D01*
X23743Y12842D01*
X23730Y12821D01*
X23710Y12803D01*
X23709D01*
X23707Y12802D01*
X23699Y12796D01*
X23685Y12788D01*
X23667Y12779D01*
X23644Y12771D01*
X23616Y12763D01*
X23584Y12757D01*
X23546Y12756D01*
X23545D01*
X23542D01*
X23537D01*
X23528D01*
X23520Y12757D01*
X23510Y12759D01*
X23487Y12761D01*
X23461Y12767D01*
X23433Y12775D01*
X23406Y12788D01*
X23383Y12803D01*
X23381D01*
X23380Y12804D01*
X23373Y12811D01*
X23363Y12821D01*
X23352Y12836D01*
X23343Y12853D01*
X23333Y12875D01*
X23326Y12900D01*
X23323Y12914D01*
Y12936D01*
X23325Y12946D01*
X23326Y12957D01*
X23330Y12971D01*
X23334Y12986D01*
X23341Y13001D01*
X23350Y13017D01*
X23351Y13018D01*
X23355Y13022D01*
X23361Y13029D01*
X23369Y13037D01*
X23380Y13047D01*
X23394Y13057D01*
X23409Y13067D01*
X23427Y13075D01*
X23430Y13076D01*
X23437Y13078D01*
X23447Y13082D01*
X23462Y13085D01*
X23479Y13089D01*
X23499Y13093D01*
X23522Y13094D01*
X23546Y13096D01*
X23548D01*
X23549D01*
X23558D01*
X23570Y13094D01*
D02*
G37*
G36*
X22940Y11581D02*
X22942Y11572D01*
X22946Y11562D01*
X22950Y11551D01*
X22957Y11541D01*
X22967Y11531D01*
X22968Y11530D01*
X22972Y11527D01*
X22978Y11524D01*
X22986Y11519D01*
X22997Y11515D01*
X23011Y11512D01*
X23026Y11509D01*
X23044Y11508D01*
X23301D01*
X23300Y11506D01*
X23294Y11502D01*
X23287Y11497D01*
X23279Y11488D01*
X23269Y11479D01*
X23259Y11468D01*
X23248Y11456D01*
X23240Y11445D01*
X23239Y11444D01*
X23236Y11440D01*
X23232Y11433D01*
X23228Y11425D01*
X23222Y11415D01*
X23216Y11402D01*
X23207Y11376D01*
Y11375D01*
X23205Y11369D01*
X23203Y11361D01*
X23201Y11351D01*
X23198Y11339D01*
X23197Y11325D01*
X23196Y11294D01*
Y11283D01*
X23197Y11271D01*
X23200Y11254D01*
X23203Y11236D01*
X23208Y11217D01*
X23215Y11197D01*
X23225Y11178D01*
X23226Y11175D01*
X23230Y11169D01*
X23236Y11160D01*
X23246Y11149D01*
X23257Y11136D01*
X23271Y11122D01*
X23287Y11108D01*
X23305Y11097D01*
X23307Y11096D01*
X23311Y11094D01*
X23316Y11092D01*
X23325Y11088D01*
X23336Y11083D01*
X23347Y11079D01*
X23375Y11072D01*
X23376D01*
X23381Y11071D01*
X23388Y11069D01*
X23399Y11068D01*
X23412D01*
X23427Y11067D01*
X23444Y11065D01*
X22939D01*
Y11588D01*
X22940Y11581D01*
D02*
G37*
G36*
X23198Y10455D02*
X23200Y10447D01*
X23203Y10437D01*
X23208Y10427D01*
X23214Y10418D01*
X23222Y10408D01*
X23223Y10407D01*
X23226Y10404D01*
X23232Y10401D01*
X23240Y10395D01*
X23250Y10391D01*
X23262Y10389D01*
X23276Y10386D01*
X23293Y10384D01*
X23312D01*
X23311Y10382D01*
X23304Y10376D01*
X23293Y10366D01*
X23280Y10354D01*
X23266Y10339D01*
X23251Y10322D01*
X23237Y10304D01*
X23226Y10285D01*
X23225Y10282D01*
X23222Y10275D01*
X23216Y10264D01*
X23211Y10250D01*
X23207Y10232D01*
X23201Y10212D01*
X23198Y10189D01*
X23197Y10165D01*
Y10462D01*
X23198Y10455D01*
D02*
G37*
G36*
X23563Y10376D02*
X23571D01*
X23583Y10375D01*
X23605Y10372D01*
X23631Y10365D01*
X23657Y10357D01*
X23682Y10346D01*
X23706Y10329D01*
X23709Y10326D01*
X23714Y10321D01*
X23724Y10309D01*
X23734Y10294D01*
X23745Y10278D01*
X23755Y10257D01*
X23760Y10233D01*
X23763Y10207D01*
Y10200D01*
X23761Y10192D01*
X23760Y10181D01*
X23757Y10168D01*
X23753Y10156D01*
X23748Y10142D01*
X23739Y10128D01*
X23738Y10126D01*
X23735Y10121D01*
X23728Y10115D01*
X23720Y10106D01*
X23710Y10097D01*
X23698Y10086D01*
X23682Y10077D01*
X23664Y10068D01*
X23662Y10067D01*
X23656Y10064D01*
X23645Y10061D01*
X23631Y10057D01*
X23613Y10053D01*
X23592Y10049D01*
X23569Y10047D01*
X23544Y10046D01*
X23542D01*
X23541D01*
X23533D01*
X23520Y10047D01*
X23503Y10049D01*
X23485Y10052D01*
X23466Y10056D01*
X23447Y10061D01*
X23427Y10068D01*
X23424Y10070D01*
X23419Y10072D01*
X23411Y10077D01*
X23399Y10083D01*
X23387Y10092D01*
X23375Y10101D01*
X23362Y10113D01*
X23351Y10126D01*
X23350Y10128D01*
X23347Y10133D01*
X23343Y10140D01*
X23337Y10150D01*
X23333Y10163D01*
X23329Y10175D01*
X23326Y10190D01*
X23325Y10207D01*
Y10214D01*
X23326Y10219D01*
X23327Y10232D01*
X23332Y10248D01*
X23338Y10268D01*
X23348Y10289D01*
X23362Y10309D01*
X23381Y10329D01*
X23384Y10330D01*
X23391Y10336D01*
X23405Y10344D01*
X23423Y10352D01*
X23447Y10362D01*
X23474Y10369D01*
X23508Y10375D01*
X23546Y10377D01*
X23548D01*
X23551D01*
X23556D01*
X23563Y10376D01*
D02*
G37*
G36*
X23441Y9409D02*
X23451D01*
X23462Y9408D01*
X23474Y9407D01*
X23487Y9404D01*
X23517Y9398D01*
X23551Y9389D01*
X23585Y9376D01*
X23619Y9360D01*
X23620D01*
X23623Y9357D01*
X23627Y9354D01*
X23634Y9350D01*
X23649Y9339D01*
X23670Y9322D01*
X23692Y9301D01*
X23716Y9278D01*
X23739Y9250D01*
X23760Y9218D01*
Y9217D01*
X23763Y9214D01*
X23764Y9210D01*
X23768Y9203D01*
X23773Y9194D01*
X23777Y9185D01*
X23781Y9172D01*
X23785Y9160D01*
X23795Y9131D01*
X23803Y9097D01*
X23809Y9061D01*
X23811Y9023D01*
Y9013D01*
X23810Y9004D01*
Y8995D01*
X23809Y8985D01*
X23807Y8973D01*
X23804Y8959D01*
X23799Y8928D01*
X23789Y8896D01*
X23777Y8862D01*
X23760Y8828D01*
Y8827D01*
X23757Y8824D01*
X23755Y8820D01*
X23750Y8813D01*
X23739Y8796D01*
X23723Y8777D01*
X23703Y8753D01*
X23680Y8730D01*
X23652Y8706D01*
X23620Y8686D01*
X23619D01*
X23616Y8683D01*
X23612Y8680D01*
X23605Y8677D01*
X23596Y8673D01*
X23587Y8669D01*
X23574Y8665D01*
X23562Y8659D01*
X23533Y8649D01*
X23499Y8641D01*
X23462Y8636D01*
X23423Y8633D01*
X23422D01*
X23419D01*
X23413D01*
X23405Y8634D01*
X23397D01*
X23386Y8636D01*
X23373Y8637D01*
X23359Y8640D01*
X23330Y8645D01*
X23297Y8655D01*
X23264Y8667D01*
X23229Y8686D01*
X23228D01*
X23225Y8688D01*
X23221Y8691D01*
X23214Y8695D01*
X23197Y8706D01*
X23178Y8723D01*
X23154Y8744D01*
X23130Y8767D01*
X23107Y8796D01*
X23086Y8828D01*
Y8830D01*
X23083Y8833D01*
X23081Y8837D01*
X23078Y8844D01*
X23074Y8852D01*
X23069Y8862D01*
X23065Y8873D01*
X23060Y8885D01*
X23050Y8914D01*
X23042Y8948D01*
X23036Y8984D01*
X23033Y9023D01*
Y9032D01*
X23035Y9041D01*
Y9050D01*
X23036Y9061D01*
X23038Y9074D01*
X23040Y9086D01*
X23046Y9117D01*
X23056Y9150D01*
X23068Y9185D01*
X23086Y9218D01*
Y9219D01*
X23089Y9222D01*
X23092Y9226D01*
X23096Y9233D01*
X23107Y9249D01*
X23124Y9269D01*
X23144Y9292D01*
X23168Y9315D01*
X23197Y9339D01*
X23229Y9360D01*
X23230D01*
X23233Y9362D01*
X23237Y9364D01*
X23244Y9368D01*
X23252Y9372D01*
X23262Y9376D01*
X23273Y9380D01*
X23286Y9384D01*
X23315Y9394D01*
X23348Y9403D01*
X23384Y9408D01*
X23423Y9411D01*
X23424D01*
X23427D01*
X23433D01*
X23441Y9409D01*
D02*
G37*
G36*
X22940Y8996D02*
Y8986D01*
X22943Y8962D01*
X22949Y8932D01*
X22954Y8902D01*
X22964Y8869D01*
X22976Y8835D01*
Y8834D01*
X22978Y8831D01*
X22981Y8827D01*
X22983Y8820D01*
X22988Y8813D01*
X22992Y8803D01*
X23004Y8783D01*
X23018Y8758D01*
X23036Y8733D01*
X23058Y8706D01*
X23082Y8680D01*
X23083Y8679D01*
X23085Y8677D01*
X23089Y8673D01*
X23093Y8669D01*
X23108Y8656D01*
X23126Y8641D01*
X23148Y8624D01*
X23175Y8606D01*
X23205Y8590D01*
X23237Y8575D01*
X23239D01*
X23241Y8573D01*
X23246Y8570D01*
X23252Y8569D01*
X23261Y8566D01*
X23271Y8562D01*
X23293Y8555D01*
X23320Y8550D01*
X23352Y8543D01*
X23387Y8539D01*
X23423Y8537D01*
X22939D01*
Y9006D01*
X22940Y8996D01*
D02*
G37*
%LPC*%
G36*
X23424Y9258D02*
X23423D01*
X23420D01*
X23416D01*
X23411D01*
X23395Y9257D01*
X23377Y9254D01*
X23355Y9251D01*
X23332Y9246D01*
X23308Y9239D01*
X23284Y9229D01*
X23283D01*
X23282Y9228D01*
X23275Y9224D01*
X23264Y9217D01*
X23250Y9207D01*
X23234Y9196D01*
X23219Y9181D01*
X23204Y9164D01*
X23190Y9145D01*
X23189Y9142D01*
X23185Y9135D01*
X23179Y9122D01*
X23172Y9107D01*
X23167Y9088D01*
X23161Y9066D01*
X23157Y9042D01*
X23155Y9014D01*
Y9007D01*
X23157Y8999D01*
X23158Y8989D01*
X23160Y8977D01*
X23164Y8962D01*
X23168Y8946D01*
X23175Y8930D01*
X23183Y8912D01*
X23193Y8894D01*
X23205Y8877D01*
X23221Y8859D01*
X23239Y8842D01*
X23258Y8827D01*
X23282Y8813D01*
X23309Y8802D01*
X23333Y8906D01*
X23332D01*
X23329Y8907D01*
X23325Y8910D01*
X23319Y8913D01*
X23305Y8921D01*
X23289Y8932D01*
X23272Y8948D01*
X23258Y8967D01*
X23252Y8978D01*
X23248Y8991D01*
X23246Y9004D01*
X23244Y9018D01*
Y9028D01*
X23247Y9039D01*
X23250Y9053D01*
X23255Y9068D01*
X23264Y9085D01*
X23276Y9100D01*
X23291Y9114D01*
X23294Y9115D01*
X23300Y9120D01*
X23311Y9125D01*
X23325Y9131D01*
X23343Y9136D01*
X23363Y9142D01*
X23388Y9146D01*
X23416Y9147D01*
X23419D01*
X23426D01*
X23438Y9146D01*
X23452D01*
X23469Y9145D01*
X23485Y9142D01*
X23503Y9138D01*
X23520Y9133D01*
X23522Y9132D01*
X23527Y9131D01*
X23534Y9128D01*
X23544Y9122D01*
X23565Y9110D01*
X23574Y9102D01*
X23583Y9092D01*
X23584Y9090D01*
X23585Y9086D01*
X23589Y9081D01*
X23592Y9072D01*
X23596Y9063D01*
X23601Y9050D01*
X23602Y9038D01*
X23603Y9024D01*
Y9020D01*
X23602Y9016D01*
Y9010D01*
X23598Y8995D01*
X23589Y8977D01*
X23584Y8966D01*
X23577Y8956D01*
X23569Y8946D01*
X23558Y8937D01*
X23545Y8927D01*
X23531Y8918D01*
X23515Y8912D01*
X23495Y8905D01*
X23530Y8802D01*
X23531D01*
X23537Y8805D01*
X23545Y8808D01*
X23555Y8813D01*
X23567Y8819D01*
X23581Y8827D01*
X23596Y8837D01*
X23612Y8849D01*
X23627Y8863D01*
X23642Y8880D01*
X23656Y8898D01*
X23669Y8918D01*
X23678Y8942D01*
X23687Y8967D01*
X23692Y8996D01*
X23694Y9027D01*
Y9036D01*
X23692Y9049D01*
X23689Y9064D01*
X23687Y9082D01*
X23681Y9102D01*
X23674Y9121D01*
X23664Y9142D01*
X23663Y9145D01*
X23659Y9150D01*
X23652Y9160D01*
X23641Y9172D01*
X23628Y9186D01*
X23613Y9200D01*
X23594Y9214D01*
X23573Y9226D01*
X23571D01*
X23570Y9228D01*
X23562Y9232D01*
X23548Y9236D01*
X23531Y9242D01*
X23509Y9249D01*
X23484Y9253D01*
X23455Y9257D01*
X23424Y9258D01*
D02*
G37*
%LPD*%
G36*
X23461Y7214D02*
X23488D01*
X23519Y7213D01*
X23552Y7210D01*
X23584Y7206D01*
X23614Y7202D01*
X23616D01*
X23617Y7200D01*
X23621D01*
X23627Y7199D01*
X23641Y7196D01*
X23656Y7190D01*
X23675Y7185D01*
X23694Y7177D01*
X23712Y7167D01*
X23728Y7156D01*
X23730Y7154D01*
X23734Y7150D01*
X23741Y7142D01*
X23748Y7132D01*
X23755Y7120D01*
X23761Y7105D01*
X23766Y7086D01*
X23767Y7067D01*
Y7057D01*
X23764Y7046D01*
X23761Y7034D01*
X23757Y7020D01*
X23750Y7005D01*
X23741Y6989D01*
X23727Y6977D01*
X23725Y6976D01*
X23720Y6971D01*
X23710Y6966D01*
X23698Y6959D01*
X23681Y6951D01*
X23662Y6942D01*
X23638Y6935D01*
X23612Y6930D01*
X23610D01*
X23608D01*
X23603Y6928D01*
X23598Y6927D01*
X23591D01*
X23581Y6926D01*
X23571Y6924D01*
X23559Y6923D01*
X23545Y6921D01*
X23531Y6920D01*
X23497Y6919D01*
X23458Y6916D01*
X23415D01*
X23413D01*
X23409D01*
X23404D01*
X23395D01*
X23386D01*
X23375Y6917D01*
X23347D01*
X23318Y6920D01*
X23286Y6923D01*
X23254Y6926D01*
X23225Y6931D01*
X23223D01*
X23222D01*
X23218Y6933D01*
X23212Y6934D01*
X23200Y6937D01*
X23183Y6942D01*
X23165Y6949D01*
X23147Y6958D01*
X23129Y6967D01*
X23114Y6978D01*
X23112Y6980D01*
X23108Y6984D01*
X23101Y6991D01*
X23094Y7002D01*
X23087Y7014D01*
X23081Y7030D01*
X23076Y7048D01*
X23075Y7068D01*
Y7077D01*
X23076Y7082D01*
X23079Y7096D01*
X23086Y7114D01*
X23096Y7134D01*
X23103Y7143D01*
X23111Y7152D01*
X23121Y7161D01*
X23132Y7170D01*
X23144Y7177D01*
X23160Y7184D01*
X23161D01*
X23164Y7185D01*
X23168Y7186D01*
X23175Y7189D01*
X23185Y7190D01*
X23196Y7193D01*
X23208Y7196D01*
X23223Y7199D01*
X23241Y7203D01*
X23259Y7206D01*
X23282Y7209D01*
X23305Y7210D01*
X23330Y7213D01*
X23358Y7214D01*
X23387Y7215D01*
X23419D01*
X23420D01*
X23424D01*
X23430D01*
X23438D01*
X23449D01*
X23461Y7214D01*
D02*
G37*
G36*
X22949Y7046D02*
X22950Y7031D01*
X22953Y7013D01*
X22957Y6992D01*
X22963Y6973D01*
X22970Y6952D01*
X22971Y6949D01*
X22974Y6944D01*
X22978Y6933D01*
X22985Y6920D01*
X22995Y6906D01*
X23004Y6891D01*
X23017Y6874D01*
X23032Y6859D01*
X23033Y6858D01*
X23039Y6852D01*
X23047Y6845D01*
X23060Y6835D01*
X23074Y6824D01*
X23092Y6813D01*
X23111Y6802D01*
X23132Y6791D01*
X23133D01*
X23136Y6788D01*
X23143Y6787D01*
X23151Y6783D01*
X23162Y6780D01*
X23175Y6776D01*
X23190Y6772D01*
X23208Y6766D01*
X23228Y6762D01*
X23250Y6758D01*
X23273Y6754D01*
X23300Y6749D01*
X23329Y6747D01*
X23359Y6744D01*
X23393Y6743D01*
X22947D01*
Y7059D01*
X22949Y7046D01*
D02*
G37*
G36*
X22950Y6207D02*
X22952Y6199D01*
X22956Y6191D01*
X22960Y6181D01*
X22967Y6173D01*
X22975Y6164D01*
X22976Y6163D01*
X22979Y6161D01*
X22986Y6157D01*
X22995Y6153D01*
X23004Y6150D01*
X23017Y6146D01*
X23031Y6145D01*
X23047Y6143D01*
X22949D01*
Y6213D01*
X22950Y6207D01*
D02*
G37*
G36*
X23221Y5659D02*
X23233Y5657D01*
X23247Y5653D01*
X23262Y5646D01*
X23277Y5637D01*
X23291Y5625D01*
X23293Y5623D01*
X23297Y5618D01*
X23302Y5609D01*
X23308Y5598D01*
X23315Y5585D01*
X23320Y5568D01*
X23325Y5548D01*
X23326Y5528D01*
Y5517D01*
X23325Y5510D01*
X23322Y5493D01*
X23318Y5475D01*
Y5474D01*
X23316Y5471D01*
X23313Y5467D01*
X23311Y5460D01*
X23302Y5447D01*
X23291Y5433D01*
X23290Y5432D01*
X23289Y5431D01*
X23280Y5424D01*
X23268Y5414D01*
X23251Y5406D01*
X23250D01*
X23247Y5404D01*
X23243Y5403D01*
X23236Y5400D01*
X23219Y5397D01*
X23200Y5396D01*
X23198D01*
X23193D01*
X23186Y5397D01*
X23178D01*
X23155Y5403D01*
X23144Y5407D01*
X23133Y5413D01*
X23132Y5414D01*
X23128Y5415D01*
X23122Y5420D01*
X23115Y5425D01*
X23108Y5432D01*
X23100Y5439D01*
X23086Y5460D01*
X23085Y5461D01*
X23083Y5465D01*
X23081Y5471D01*
X23076Y5479D01*
X23074Y5490D01*
X23071Y5501D01*
X23069Y5515D01*
X23068Y5529D01*
Y5539D01*
X23069Y5550D01*
X23072Y5564D01*
X23078Y5579D01*
X23083Y5594D01*
X23093Y5611D01*
X23105Y5625D01*
X23107Y5626D01*
X23112Y5630D01*
X23121Y5636D01*
X23132Y5643D01*
X23146Y5650D01*
X23161Y5655D01*
X23180Y5659D01*
X23201Y5661D01*
X23204D01*
X23209D01*
X23221Y5659D01*
D02*
G37*
G36*
X23627Y5680D02*
X23639Y5679D01*
X23652Y5677D01*
X23667Y5673D01*
X23682Y5669D01*
X23696Y5662D01*
X23698Y5661D01*
X23702Y5658D01*
X23709Y5654D01*
X23717Y5647D01*
X23727Y5640D01*
X23736Y5630D01*
X23746Y5619D01*
X23755Y5607D01*
X23756Y5605D01*
X23757Y5600D01*
X23760Y5593D01*
X23764Y5583D01*
X23768Y5571D01*
X23771Y5558D01*
X23773Y5543D01*
X23774Y5526D01*
Y5519D01*
X23773Y5511D01*
X23771Y5500D01*
X23770Y5489D01*
X23766Y5475D01*
X23761Y5463D01*
X23755Y5449D01*
X23753Y5447D01*
X23750Y5443D01*
X23746Y5436D01*
X23739Y5428D01*
X23731Y5420D01*
X23721Y5410D01*
X23710Y5400D01*
X23696Y5392D01*
X23695Y5390D01*
X23689Y5389D01*
X23681Y5385D01*
X23671Y5381D01*
X23657Y5378D01*
X23644Y5374D01*
X23627Y5372D01*
X23609Y5371D01*
X23606D01*
X23601D01*
X23591Y5372D01*
X23580Y5374D01*
X23566Y5377D01*
X23552Y5379D01*
X23537Y5385D01*
X23523Y5392D01*
X23522Y5393D01*
X23517Y5396D01*
X23510Y5400D01*
X23502Y5407D01*
X23494Y5415D01*
X23484Y5425D01*
X23476Y5436D01*
X23467Y5449D01*
X23466Y5450D01*
X23465Y5456D01*
X23461Y5463D01*
X23456Y5472D01*
X23454Y5485D01*
X23449Y5499D01*
X23448Y5514D01*
X23447Y5530D01*
Y5542D01*
X23449Y5553D01*
X23452Y5568D01*
X23458Y5586D01*
X23465Y5604D01*
X23476Y5622D01*
X23490Y5639D01*
X23491Y5640D01*
X23498Y5646D01*
X23508Y5653D01*
X23520Y5659D01*
X23538Y5668D01*
X23559Y5675D01*
X23583Y5680D01*
X23610Y5682D01*
X23613D01*
X23619D01*
X23627Y5680D01*
D02*
G37*
G36*
X23895Y5198D02*
X23627D01*
X23642Y5199D01*
X23662Y5202D01*
X23684Y5207D01*
X23709Y5214D01*
X23734Y5224D01*
X23759Y5236D01*
X23761Y5238D01*
X23770Y5243D01*
X23781Y5253D01*
X23795Y5266D01*
X23811Y5281D01*
X23828Y5300D01*
X23843Y5324D01*
X23859Y5350D01*
Y5352D01*
X23860Y5353D01*
X23861Y5357D01*
X23864Y5364D01*
X23867Y5371D01*
X23870Y5379D01*
X23877Y5400D01*
X23883Y5426D01*
X23889Y5456D01*
X23893Y5490D01*
X23895Y5526D01*
Y5198D01*
D02*
G37*
%LPC*%
G36*
X29878Y16840D02*
D01*
Y16729D01*
X29877Y16739D01*
X29875Y16750D01*
X29871Y16763D01*
X29864Y16776D01*
X29856Y16790D01*
X29845Y16805D01*
X29843Y16807D01*
X29840Y16811D01*
X29832Y16816D01*
X29823Y16822D01*
X29810Y16829D01*
X29797Y16835D01*
X29782Y16839D01*
X29767Y16840D01*
X29878D01*
X29767D01*
D01*
X29764D01*
X29751Y16839D01*
X29734Y16837D01*
X29715Y16833D01*
X29714D01*
X29710Y16831D01*
X29704Y16829D01*
X29695Y16826D01*
X29684Y16822D01*
X29671Y16818D01*
X29656Y16811D01*
X29640Y16805D01*
X28836Y16489D01*
X28834D01*
X28830Y16487D01*
X28823Y16483D01*
X28814Y16479D01*
X28801Y16476D01*
X28788Y16470D01*
X28754Y16457D01*
X28753Y16455D01*
X28745Y16453D01*
X28738Y16450D01*
X28725Y16444D01*
X28699Y16431D01*
X28673Y16416D01*
X28671Y16415D01*
X28667Y16413D01*
X28662Y16407D01*
X28654Y16402D01*
X28638Y16383D01*
X28621Y16359D01*
X28619Y16357D01*
X28617Y16353D01*
X28614Y16344D01*
X28610Y16335D01*
X28606Y16322D01*
X28604Y16307D01*
X28601Y16290D01*
Y16263D01*
X28603Y16253D01*
Y16242D01*
X28610Y16213D01*
X28614Y16198D01*
X28621Y16185D01*
Y16183D01*
X28625Y16179D01*
X28629Y16172D01*
X28636Y16165D01*
X28651Y16146D01*
X28673Y16129D01*
X28675Y16128D01*
X28679Y16126D01*
X28684Y16122D01*
X28693Y16116D01*
X28714Y16103D01*
X28740Y16092D01*
X28741D01*
X28745Y16090D01*
X28754Y16087D01*
X28766Y16081D01*
X28779Y16078D01*
X28795Y16070D01*
X28814Y16063D01*
X28836Y16055D01*
X29632Y15731D01*
X29634D01*
X29636Y15729D01*
X29647Y15726D01*
X29664Y15718D01*
X29682Y15711D01*
X29704Y15705D01*
X29727Y15698D01*
X29747Y15694D01*
X29765Y15692D01*
X28601D01*
X29773D01*
X29780Y15694D01*
X29791Y15696D01*
X29802Y15702D01*
X29815Y15707D01*
X29830Y15716D01*
X29843Y15729D01*
X29845Y15731D01*
X29849Y15735D01*
X29854Y15742D01*
X29860Y15753D01*
X29867Y15766D01*
X29873Y15781D01*
X29877Y15798D01*
X29878Y15816D01*
Y15939D01*
Y15828D01*
X29877Y15833D01*
X29873Y15850D01*
X29867Y15866D01*
X29865Y15870D01*
X29860Y15878D01*
X29852Y15890D01*
X29840Y15902D01*
X29836Y15903D01*
X29825Y15911D01*
X29808Y15922D01*
X29784Y15933D01*
X29782D01*
X29778Y15935D01*
X29771Y15939D01*
X29762Y15942D01*
X29740Y15952D01*
X29717Y15961D01*
X29562Y16020D01*
Y16524D01*
X29721Y16583D01*
X29723D01*
X29725Y16585D01*
X29736Y16589D01*
X29752Y16594D01*
X29771Y16603D01*
X29793Y16613D01*
X29814Y16622D01*
X29832Y16633D01*
X29847Y16642D01*
X29849Y16644D01*
X29852Y16646D01*
X29856Y16653D01*
X29862Y16661D01*
X29869Y16672D01*
X29873Y16687D01*
X29877Y16703D01*
X29878Y16722D01*
D01*
Y16840D01*
D02*
G37*
G36*
Y16703D02*
Y16622D01*
D01*
Y16703D01*
D02*
G37*
G36*
Y16613D02*
Y16483D01*
D01*
Y16613D01*
D02*
G37*
G36*
Y16479D02*
Y16455D01*
D01*
Y16479D01*
D02*
G37*
G36*
Y16453D02*
Y16416D01*
D01*
Y16453D01*
D02*
G37*
G36*
Y16415D02*
Y16407D01*
D01*
Y16415D01*
D02*
G37*
G36*
Y16402D02*
Y16290D01*
D01*
Y16402D01*
D02*
G37*
G36*
Y16274D02*
Y16146D01*
D01*
Y16274D01*
D02*
G37*
G36*
Y16129D02*
Y16122D01*
D01*
Y16129D01*
D02*
G37*
G36*
Y16103D02*
Y16092D01*
D01*
Y16103D01*
D02*
G37*
G36*
Y16090D02*
Y16081D01*
D01*
Y16090D01*
D02*
G37*
G36*
Y16078D02*
Y15961D01*
D01*
Y16078D01*
D02*
G37*
G36*
Y15952D02*
Y15942D01*
D01*
Y15952D01*
D02*
G37*
G36*
X29877Y15305D02*
D01*
D01*
D01*
D02*
G37*
G36*
Y15563D02*
X29303D01*
D01*
X29221D01*
X29190Y15561D01*
X29154Y15559D01*
X29116Y15557D01*
X29077Y15553D01*
X29038Y15550D01*
X29036D01*
X29032D01*
X29028Y15548D01*
X29021D01*
X29001Y15544D01*
X28977Y15539D01*
X28949Y15533D01*
X28919Y15526D01*
X28890Y15518D01*
X28860Y15507D01*
X28858D01*
X28854Y15505D01*
X28849Y15502D01*
X28840Y15498D01*
X28819Y15487D01*
X28791Y15472D01*
X28762Y15452D01*
X28732Y15428D01*
X28703Y15398D01*
X28677Y15365D01*
Y15363D01*
X28673Y15361D01*
X28671Y15355D01*
X28666Y15348D01*
X28662Y15339D01*
X28656Y15328D01*
X28643Y15300D01*
X28632Y15266D01*
X28621Y15228D01*
X28614Y15185D01*
X28612Y15137D01*
Y15122D01*
X28614Y15105D01*
X28616Y15085D01*
X28619Y15061D01*
X28625Y15033D01*
X28632Y15007D01*
X28641Y14979D01*
X28643Y14976D01*
X28647Y14968D01*
X28653Y14954D01*
X28662Y14937D01*
X28675Y14918D01*
X28688Y14898D01*
X28704Y14876D01*
X28725Y14855D01*
X28727Y14854D01*
X28734Y14846D01*
X28745Y14837D01*
X28762Y14824D01*
X28780Y14809D01*
X28804Y14794D01*
X28830Y14780D01*
X28858Y14765D01*
X28860D01*
X28864Y14761D01*
X28873Y14759D01*
X28884Y14754D01*
X28899Y14750D01*
X28916Y14744D01*
X28936Y14739D01*
X28960Y14731D01*
X28986Y14726D01*
X29016Y14720D01*
X29047Y14715D01*
X29082Y14709D01*
X29121Y14705D01*
X29162Y14702D01*
X29206Y14700D01*
X28612D01*
X29301D01*
X29334Y14702D01*
X29371Y14704D01*
X29410Y14707D01*
X29451Y14713D01*
X29490Y14718D01*
X29491D01*
X29493D01*
X29499Y14720D01*
X29506Y14722D01*
X29525Y14726D01*
X29549Y14731D01*
X29578Y14741D01*
X29608Y14752D01*
X29640Y14765D01*
X29671Y14780D01*
X29673D01*
X29675Y14781D01*
X29680Y14785D01*
X29688Y14791D01*
X29704Y14802D01*
X29727Y14820D01*
X29751Y14841D01*
X29777Y14867D01*
X29801Y14896D01*
X29823Y14929D01*
Y14931D01*
X29825Y14933D01*
X29828Y14939D01*
X29830Y14946D01*
X29840Y14965D01*
X29849Y14989D01*
X29860Y15018D01*
X29867Y15054D01*
X29875Y15091D01*
X29877Y15131D01*
Y14700D01*
D01*
Y15144D01*
X29875Y15154D01*
Y15165D01*
X29873Y15178D01*
X29867Y15207D01*
X29858Y15244D01*
X29847Y15281D01*
X29828Y15322D01*
X29804Y15361D01*
Y15363D01*
X29801Y15365D01*
X29797Y15370D01*
X29791Y15378D01*
X29775Y15396D01*
X29752Y15416D01*
X29723Y15442D01*
X29690Y15466D01*
X29649Y15491D01*
X29604Y15513D01*
X29601Y15515D01*
X29591Y15516D01*
X29578Y15522D01*
X29558Y15528D01*
X29536Y15533D01*
X29510Y15541D01*
X29480Y15546D01*
X29451Y15552D01*
X29449D01*
X29447D01*
X29436Y15553D01*
X29419Y15555D01*
X29395Y15557D01*
X29367Y15559D01*
X29336Y15561D01*
X29303Y15563D01*
X29877D01*
D02*
G37*
G36*
Y14542D02*
D01*
Y14128D01*
X29875Y14139D01*
Y14154D01*
X29871Y14185D01*
X29865Y14222D01*
X29856Y14263D01*
X29845Y14304D01*
X29828Y14342D01*
Y14344D01*
X29827Y14346D01*
X29823Y14352D01*
X29819Y14359D01*
X29808Y14376D01*
X29793Y14398D01*
X29775Y14422D01*
X29752Y14448D01*
X29725Y14472D01*
X29695Y14492D01*
X29693D01*
X29691Y14494D01*
X29680Y14500D01*
X29662Y14509D01*
X29640Y14517D01*
X29610Y14526D01*
X29578Y14535D01*
X29541Y14541D01*
X29503Y14542D01*
X29493D01*
X29480Y14541D01*
X29465Y14539D01*
X29447Y14535D01*
X29427Y14531D01*
X29404Y14524D01*
X29378Y14517D01*
X29354Y14505D01*
X29328Y14491D01*
X29303Y14474D01*
X29277Y14452D01*
X29253Y14428D01*
X29230Y14400D01*
X29210Y14367D01*
X29193Y14330D01*
X29191Y14331D01*
X29190Y14337D01*
X29184Y14346D01*
X29178Y14355D01*
X29169Y14370D01*
X29158Y14383D01*
X29145Y14400D01*
X29130Y14415D01*
X29114Y14431D01*
X29095Y14448D01*
X29073Y14461D01*
X29051Y14474D01*
X29025Y14485D01*
X28997Y14494D01*
X28967Y14500D01*
X28936Y14502D01*
X28934D01*
X28932D01*
X28921D01*
X28906Y14500D01*
X28884Y14496D01*
X28860Y14491D01*
X28834Y14481D01*
X28806Y14470D01*
X28779Y14455D01*
X28775Y14454D01*
X28766Y14446D01*
X28753Y14437D01*
X28734Y14420D01*
X28716Y14402D01*
X28695Y14380D01*
X28677Y14352D01*
X28658Y14320D01*
Y14318D01*
X28656Y14317D01*
X28654Y14311D01*
X28651Y14304D01*
X28643Y14285D01*
X28634Y14261D01*
X28627Y14231D01*
X28619Y14194D01*
X28614Y14155D01*
X28612Y14113D01*
Y14096D01*
X28614Y14078D01*
X28616Y14054D01*
X28619Y14026D01*
X28623Y13996D01*
X28630Y13967D01*
X28640Y13937D01*
X28641Y13933D01*
X28645Y13924D01*
X28651Y13911D01*
X28658Y13893D01*
X28669Y13872D01*
X28680Y13852D01*
X28695Y13831D01*
X28712Y13811D01*
X28714Y13809D01*
X28719Y13802D01*
X28730Y13793D01*
X28741Y13781D01*
X28758Y13770D01*
X28775Y13757D01*
X28795Y13744D01*
X28816Y13735D01*
X28817Y13733D01*
X28825Y13731D01*
X28838Y13728D01*
X28853Y13722D01*
X28871Y13718D01*
X28891Y13715D01*
X28914Y13713D01*
X28938Y13711D01*
X28941D01*
X28953D01*
X28967Y13713D01*
X28988Y13717D01*
X29010Y13722D01*
X29036Y13730D01*
X29060Y13739D01*
X29086Y13754D01*
X29090Y13756D01*
X29097Y13761D01*
X29108Y13772D01*
X29123Y13785D01*
X29141Y13804D01*
X29158Y13824D01*
X29177Y13850D01*
X29193Y13880D01*
X29195Y13876D01*
X29199Y13868D01*
X29204Y13856D01*
X29212Y13839D01*
X29223Y13820D01*
X29236Y13800D01*
X29249Y13780D01*
X29265Y13761D01*
X29267Y13759D01*
X29273Y13754D01*
X29282Y13744D01*
X29295Y13733D01*
X29310Y13722D01*
X29328Y13711D01*
X29347Y13698D01*
X29369Y13689D01*
X29371Y13687D01*
X29380Y13685D01*
X29391Y13681D01*
X29408Y13676D01*
X29427Y13672D01*
X29449Y13668D01*
X29475Y13667D01*
X29501Y13665D01*
X28612D01*
X29877D01*
Y14542D01*
D02*
G37*
G36*
X29410Y13557D02*
X29403D01*
X29393Y13556D01*
X29384Y13554D01*
X29371Y13550D01*
X29360Y13544D01*
X29347Y13537D01*
X29336Y13528D01*
X29334Y13526D01*
X29330Y13522D01*
X29327Y13515D01*
X29321Y13504D01*
X29316Y13491D01*
X29310Y13474D01*
X29308Y13456D01*
X29306Y13433D01*
Y13469D01*
Y13043D01*
Y13157D01*
X29308Y13146D01*
X29310Y13132D01*
X29314Y13117D01*
X29319Y13102D01*
X29327Y13087D01*
X29336Y13074D01*
X29338Y13072D01*
X29341Y13069D01*
X29347Y13065D01*
X29356Y13057D01*
X29365Y13052D01*
X29378Y13048D01*
X29393Y13044D01*
X29410Y13043D01*
X29306D01*
X29510D01*
Y13443D01*
X29508Y13454D01*
X29506Y13469D01*
X29503Y13483D01*
X29499Y13498D01*
X29491Y13513D01*
X29482Y13526D01*
X29480Y13528D01*
X29477Y13531D01*
X29471Y13535D01*
X29462Y13541D01*
X29453Y13548D01*
X29440Y13552D01*
X29427Y13556D01*
X29410Y13557D01*
D02*
G37*
G36*
X29858Y12919D02*
X29736D01*
X29728Y12917D01*
X29721Y12915D01*
X29708Y12913D01*
X29695Y12909D01*
X29680Y12904D01*
X29662Y12896D01*
X29660Y12895D01*
X29653Y12893D01*
X29645Y12887D01*
X29632Y12882D01*
X29606Y12865D01*
X29593Y12856D01*
X29582Y12846D01*
X29580Y12845D01*
X29577Y12841D01*
X29571Y12835D01*
X29562Y12828D01*
X29553Y12817D01*
X29541Y12806D01*
X29514Y12778D01*
X29482Y12746D01*
X29449Y12713D01*
X29415Y12678D01*
X29384Y12643D01*
X29382Y12641D01*
X29380Y12639D01*
X29371Y12628D01*
X29356Y12611D01*
X29340Y12593D01*
X29321Y12570D01*
X29303Y12550D01*
X29286Y12530D01*
X29273Y12513D01*
X29271Y12509D01*
X29264Y12502D01*
X29254Y12489D01*
X29243Y12472D01*
X29228Y12456D01*
X29212Y12435D01*
X29193Y12417D01*
X29175Y12398D01*
X29173Y12396D01*
X29166Y12391D01*
X29156Y12382D01*
X29143Y12372D01*
X29128Y12361D01*
X29110Y12348D01*
X29091Y12337D01*
X29073Y12328D01*
X29071Y12326D01*
X29064Y12324D01*
X29054Y12320D01*
X29041Y12315D01*
X29025Y12311D01*
X29008Y12308D01*
X28990Y12306D01*
X28971Y12304D01*
X28969D01*
X28962D01*
X28953Y12306D01*
X28940Y12308D01*
X28925Y12309D01*
X28908Y12315D01*
X28891Y12320D01*
X28875Y12330D01*
X28873Y12332D01*
X28867Y12335D01*
X28860Y12341D01*
X28851Y12348D01*
X28840Y12358D01*
X28829Y12370D01*
X28817Y12383D01*
X28808Y12400D01*
X28806Y12402D01*
X28804Y12408D01*
X28801Y12417D01*
X28795Y12428D01*
X28791Y12443D01*
X28788Y12459D01*
X28786Y12478D01*
X28784Y12496D01*
Y12508D01*
X28786Y12515D01*
X28790Y12535D01*
X28797Y12559D01*
X28808Y12587D01*
X28825Y12617D01*
X28836Y12632D01*
X28849Y12645D01*
X28866Y12657D01*
X28882Y12670D01*
X28886Y12672D01*
X28890Y12674D01*
X28895Y12678D01*
X28904Y12682D01*
X28917Y12687D01*
X28932Y12693D01*
X28953Y12700D01*
X28954D01*
X28962Y12704D01*
X28971Y12707D01*
X28984Y12713D01*
X29012Y12726D01*
X29027Y12735D01*
X29040Y12745D01*
X29041Y12746D01*
X29043Y12748D01*
X29049Y12754D01*
X29054Y12763D01*
X29060Y12772D01*
X29064Y12785D01*
X29067Y12800D01*
X29069Y12817D01*
Y12824D01*
X29067Y12832D01*
X29066Y12841D01*
X29062Y12852D01*
X29058Y12865D01*
X29051Y12876D01*
X29041Y12887D01*
X29040Y12889D01*
X29036Y12891D01*
X29030Y12896D01*
X29021Y12900D01*
X29010Y12906D01*
X28997Y12911D01*
X28982Y12913D01*
X28966Y12915D01*
X28964D01*
X28954D01*
X28943Y12913D01*
X28928Y12911D01*
X28910Y12909D01*
X28890Y12904D01*
X28867Y12898D01*
X28843Y12889D01*
X28840Y12887D01*
X28832Y12883D01*
X28821Y12878D01*
X28806Y12869D01*
X28788Y12859D01*
X28769Y12845D01*
X28749Y12830D01*
X28730Y12811D01*
X28729Y12809D01*
X28721Y12802D01*
X28712Y12791D01*
X28701Y12776D01*
X28688Y12756D01*
X28673Y12733D01*
X28660Y12707D01*
X28647Y12680D01*
Y12678D01*
X28645Y12676D01*
X28641Y12665D01*
X28636Y12648D01*
X28630Y12626D01*
X28625Y12598D01*
X28619Y12567D01*
X28616Y12532D01*
X28614Y12493D01*
Y12470D01*
X28616Y12459D01*
Y12446D01*
X28619Y12417D01*
X28623Y12382D01*
X28630Y12345D01*
X28641Y12308D01*
X28654Y12272D01*
X28656Y12271D01*
X28660Y12263D01*
X28666Y12252D01*
X28675Y12237D01*
X28686Y12220D01*
X28699Y12204D01*
X28714Y12185D01*
X28730Y12169D01*
X28732Y12167D01*
X28738Y12161D01*
X28749Y12152D01*
X28762Y12143D01*
X28777Y12132D01*
X28795Y12119D01*
X28817Y12108D01*
X28840Y12098D01*
X28841Y12096D01*
X28851Y12095D01*
X28862Y12091D01*
X28878Y12085D01*
X28897Y12080D01*
X28919Y12076D01*
X28943Y12074D01*
X28967Y12072D01*
X28969D01*
X28973D01*
X28978D01*
X28986D01*
X29004Y12074D01*
X29030Y12080D01*
X29060Y12085D01*
X29091Y12095D01*
X29125Y12108D01*
X29158Y12126D01*
X29162Y12128D01*
X29173Y12135D01*
X29188Y12145D01*
X29206Y12159D01*
X29228Y12174D01*
X29251Y12193D01*
X29273Y12211D01*
X29293Y12232D01*
X29295Y12233D01*
X29303Y12243D01*
X29314Y12256D01*
X29330Y12274D01*
X29351Y12300D01*
X29378Y12332D01*
X29408Y12369D01*
X29445Y12413D01*
X29447Y12415D01*
X29449Y12419D01*
X29454Y12424D01*
X29462Y12433D01*
X29480Y12456D01*
X29504Y12482D01*
X29530Y12511D01*
X29556Y12539D01*
X29582Y12565D01*
X29595Y12576D01*
X29606Y12585D01*
X29608D01*
X29610Y12589D01*
X29621Y12598D01*
X29638Y12611D01*
X29660Y12628D01*
Y12176D01*
X29662Y12165D01*
X29664Y12150D01*
X29667Y12133D01*
X29671Y12117D01*
X29678Y12100D01*
X29688Y12087D01*
X29690Y12085D01*
X29693Y12082D01*
X29699Y12076D01*
X29706Y12069D01*
X29717Y12063D01*
X29730Y12058D01*
X29743Y12054D01*
X29760Y12052D01*
X29767D01*
X29775Y12054D01*
X29784Y12056D01*
X29795Y12059D01*
X29808Y12063D01*
X29819Y12071D01*
X29830Y12080D01*
X29832Y12082D01*
X29834Y12085D01*
X29840Y12091D01*
X29843Y12100D01*
X29849Y12113D01*
X29854Y12126D01*
X29856Y12143D01*
X29858Y12163D01*
Y12795D01*
X29856Y12806D01*
X29854Y12819D01*
X29851Y12835D01*
X29843Y12852D01*
X29836Y12869D01*
X29825Y12883D01*
X29823Y12885D01*
X29819Y12889D01*
X29812Y12895D01*
X29801Y12900D01*
X29790Y12907D01*
X29775Y12913D01*
X29758Y12917D01*
X29741Y12919D01*
X29858D01*
D02*
G37*
G36*
X29760Y12052D02*
D01*
X28614D01*
X29760D01*
D02*
G37*
G36*
X29877Y11930D02*
D01*
Y11545D01*
X29875Y11565D01*
X29871Y11591D01*
X29867Y11621D01*
X29860Y11652D01*
X29849Y11685D01*
X29836Y11717D01*
X29834Y11721D01*
X29828Y11730D01*
X29819Y11745D01*
X29806Y11763D01*
X29791Y11784D01*
X29775Y11804D01*
X29754Y11822D01*
X29732Y11841D01*
X29728Y11843D01*
X29721Y11848D01*
X29710Y11854D01*
X29695Y11861D01*
X29677Y11871D01*
X29656Y11876D01*
X29636Y11882D01*
X29614Y11884D01*
X29612D01*
X29608D01*
X29601Y11882D01*
X29593Y11880D01*
X29573Y11872D01*
X29562Y11867D01*
X29551Y11858D01*
X29549Y11856D01*
X29547Y11852D01*
X29541Y11846D01*
X29536Y11839D01*
X29532Y11828D01*
X29527Y11817D01*
X29525Y11804D01*
X29523Y11789D01*
Y11784D01*
X29525Y11776D01*
Y11767D01*
X29532Y11745D01*
X29536Y11734D01*
X29543Y11722D01*
Y11721D01*
X29547Y11717D01*
X29553Y11711D01*
X29558Y11706D01*
X29567Y11698D01*
X29578Y11691D01*
X29590Y11684D01*
X29604Y11678D01*
X29606Y11676D01*
X29612Y11674D01*
X29621Y11671D01*
X29634Y11663D01*
X29647Y11656D01*
X29660Y11645D01*
X29673Y11632D01*
X29686Y11617D01*
X29688Y11615D01*
X29690Y11609D01*
X29695Y11600D01*
X29701Y11589D01*
X29706Y11574D01*
X29710Y11558D01*
X29714Y11539D01*
X29715Y11519D01*
Y11511D01*
X29714Y11502D01*
X29712Y11489D01*
X29710Y11476D01*
X29704Y11459D01*
X29699Y11445D01*
X29691Y11428D01*
X29690Y11426D01*
X29688Y11421D01*
X29682Y11413D01*
X29673Y11402D01*
X29664Y11391D01*
X29653Y11378D01*
X29638Y11367D01*
X29623Y11354D01*
X29621D01*
X29619Y11352D01*
X29614Y11348D01*
X29604Y11345D01*
X29595Y11339D01*
X29582Y11334D01*
X29567Y11328D01*
X29549Y11322D01*
X29528Y11315D01*
X29504Y11309D01*
X29478Y11304D01*
X29451Y11298D01*
X29419Y11293D01*
X29384Y11287D01*
X29345Y11284D01*
X29304Y11282D01*
X29308Y11284D01*
X29316Y11291D01*
X29327Y11302D01*
X29341Y11319D01*
X29358Y11337D01*
X29375Y11358D01*
X29390Y11382D01*
X29404Y11408D01*
X29406Y11411D01*
X29410Y11419D01*
X29414Y11434D01*
X29419Y11452D01*
X29427Y11474D01*
X29430Y11500D01*
X29434Y11530D01*
X29436Y11559D01*
Y11572D01*
X29434Y11589D01*
X29432Y11608D01*
X29428Y11630D01*
X29423Y11656D01*
X29415Y11682D01*
X29406Y11708D01*
X29404Y11711D01*
X29401Y11719D01*
X29393Y11732D01*
X29384Y11748D01*
X29371Y11767D01*
X29356Y11787D01*
X29340Y11806D01*
X29321Y11826D01*
X29319Y11828D01*
X29312Y11833D01*
X29299Y11843D01*
X29284Y11854D01*
X29265Y11867D01*
X29243Y11880D01*
X29217Y11893D01*
X29191Y11904D01*
X29188Y11906D01*
X29178Y11908D01*
X29164Y11911D01*
X29143Y11917D01*
X29121Y11922D01*
X29095Y11926D01*
X29066Y11928D01*
X29036Y11930D01*
X28614D01*
X29021D01*
X29004Y11928D01*
X28982Y11926D01*
X28958Y11922D01*
X28930Y11917D01*
X28901Y11909D01*
X28871Y11900D01*
X28867Y11898D01*
X28858Y11895D01*
X28843Y11887D01*
X28825Y11878D01*
X28804Y11867D01*
X28780Y11852D01*
X28758Y11835D01*
X28736Y11815D01*
X28734Y11813D01*
X28727Y11804D01*
X28716Y11793D01*
X28703Y11776D01*
X28690Y11758D01*
X28675Y11734D01*
X28660Y11708D01*
X28647Y11680D01*
Y11678D01*
X28645Y11676D01*
X28641Y11665D01*
X28636Y11650D01*
X28630Y11628D01*
X28625Y11602D01*
X28619Y11572D01*
X28616Y11541D01*
X28614Y11506D01*
Y11487D01*
X28616Y11467D01*
X28619Y11441D01*
X28623Y11409D01*
X28630Y11378D01*
X28641Y11345D01*
X28654Y11311D01*
Y11309D01*
X28656Y11308D01*
X28662Y11297D01*
X28671Y11282D01*
X28684Y11261D01*
X28699Y11239D01*
X28719Y11215D01*
X28743Y11191D01*
X28769Y11169D01*
X28773Y11167D01*
X28782Y11160D01*
X28799Y11148D01*
X28821Y11135D01*
X28849Y11121D01*
X28882Y11106D01*
X28919Y11091D01*
X28960Y11078D01*
X28962D01*
X28966Y11076D01*
X28971Y11074D01*
X28980Y11072D01*
X28991Y11071D01*
X29004Y11069D01*
X29019Y11065D01*
X29036Y11061D01*
X29073Y11056D01*
X29117Y11052D01*
X29167Y11048D01*
X29219Y11047D01*
X28614D01*
X29877D01*
Y11930D01*
D02*
G37*
G36*
X29878Y10937D02*
X29449D01*
X29440Y10935D01*
X29427Y10932D01*
X29423Y10930D01*
X29415Y10926D01*
X29406Y10921D01*
X29393Y10913D01*
X29390Y10911D01*
X29382Y10906D01*
X29371Y10898D01*
X29358Y10889D01*
X29354Y10887D01*
X29345Y10880D01*
X29332Y10871D01*
X29316Y10858D01*
X28717Y10410D01*
X28716Y10408D01*
X28708Y10402D01*
X28697Y10395D01*
X28684Y10386D01*
X28656Y10361D01*
X28643Y10350D01*
X28632Y10339D01*
X28630Y10337D01*
X28629Y10334D01*
X28623Y10328D01*
X28617Y10319D01*
X28608Y10298D01*
X28606Y10286D01*
X28604Y10271D01*
Y10260D01*
X28606Y10250D01*
X28612Y10230D01*
X28623Y10206D01*
X28630Y10193D01*
X28640Y10182D01*
X28653Y10171D01*
X28667Y10161D01*
X28684Y10152D01*
X28704Y10147D01*
X28727Y10143D01*
X28753Y10141D01*
X29404D01*
Y10084D01*
X29406Y10069D01*
X29412Y10036D01*
X29417Y10017D01*
X29423Y10002D01*
Y10000D01*
X29427Y9997D01*
X29432Y9989D01*
X29440Y9982D01*
X29451Y9974D01*
X29464Y9967D01*
X29480Y9963D01*
X29501Y9961D01*
X28604D01*
X29508D01*
X29517Y9963D01*
X29527Y9965D01*
X29540Y9969D01*
X29551Y9976D01*
X29562Y9984D01*
X29571Y9995D01*
Y9997D01*
X29575Y10000D01*
X29578Y10008D01*
X29582Y10019D01*
X29586Y10032D01*
X29590Y10049D01*
X29591Y10069D01*
X29593Y10091D01*
Y10141D01*
X29751D01*
X29754D01*
X29762D01*
X29773Y10143D01*
X29788Y10145D01*
X29802Y10148D01*
X29819Y10154D01*
X29834Y10161D01*
X29847Y10171D01*
X29849Y10173D01*
X29852Y10176D01*
X29856Y10182D01*
X29862Y10191D01*
X29869Y10202D01*
X29873Y10215D01*
X29877Y10230D01*
X29878Y10247D01*
Y10254D01*
X29877Y10263D01*
X29875Y10274D01*
X29871Y10287D01*
X29865Y10300D01*
X29858Y10313D01*
X29847Y10324D01*
X29845Y10326D01*
X29841Y10328D01*
X29832Y10334D01*
X29823Y10337D01*
X29808Y10343D01*
X29791Y10348D01*
X29773Y10350D01*
X29751Y10352D01*
X29593D01*
Y10789D01*
X29591Y10804D01*
X29590Y10821D01*
X29584Y10841D01*
X29578Y10861D01*
X29569Y10880D01*
X29558Y10897D01*
X29556Y10898D01*
X29551Y10902D01*
X29543Y10910D01*
X29532Y10917D01*
X29517Y10924D01*
X29501Y10932D01*
X29482Y10935D01*
X29460Y10937D01*
X29878D01*
D02*
G37*
G36*
X29858Y9836D02*
Y9712D01*
X29856Y9723D01*
X29854Y9736D01*
X29851Y9752D01*
X29843Y9769D01*
X29836Y9786D01*
X29825Y9800D01*
X29823Y9802D01*
X29819Y9806D01*
X29812Y9811D01*
X29801Y9817D01*
X29790Y9824D01*
X29775Y9830D01*
X29758Y9834D01*
X29741Y9836D01*
X29858D01*
X29736D01*
X29728Y9834D01*
X29721Y9832D01*
X29708Y9830D01*
X29695Y9826D01*
X29680Y9821D01*
X29662Y9813D01*
X29660Y9811D01*
X29653Y9810D01*
X29645Y9804D01*
X29632Y9799D01*
X29606Y9782D01*
X29593Y9773D01*
X29582Y9763D01*
X29580Y9762D01*
X29577Y9758D01*
X29571Y9752D01*
X29562Y9745D01*
X29553Y9734D01*
X29541Y9723D01*
X29514Y9695D01*
X29482Y9663D01*
X29449Y9630D01*
X29415Y9595D01*
X29384Y9560D01*
X29382Y9558D01*
X29380Y9556D01*
X29371Y9545D01*
X29356Y9528D01*
X29340Y9510D01*
X29321Y9487D01*
X29303Y9467D01*
X29286Y9447D01*
X29273Y9430D01*
X29271Y9426D01*
X29264Y9419D01*
X29254Y9406D01*
X29243Y9389D01*
X29228Y9373D01*
X29212Y9352D01*
X29193Y9334D01*
X29175Y9315D01*
X29173Y9313D01*
X29166Y9308D01*
X29156Y9299D01*
X29143Y9289D01*
X29128Y9278D01*
X29110Y9265D01*
X29091Y9254D01*
X29073Y9245D01*
X29071Y9243D01*
X29064Y9241D01*
X29054Y9237D01*
X29041Y9232D01*
X29025Y9228D01*
X29008Y9225D01*
X28990Y9223D01*
X28971Y9221D01*
X28969D01*
X28962D01*
X28953Y9223D01*
X28940Y9225D01*
X28925Y9226D01*
X28908Y9232D01*
X28891Y9237D01*
X28875Y9247D01*
X28873Y9249D01*
X28867Y9252D01*
X28860Y9258D01*
X28851Y9265D01*
X28840Y9275D01*
X28829Y9287D01*
X28817Y9300D01*
X28808Y9317D01*
X28806Y9319D01*
X28804Y9325D01*
X28801Y9334D01*
X28795Y9345D01*
X28791Y9360D01*
X28788Y9376D01*
X28786Y9395D01*
X28784Y9413D01*
Y9424D01*
X28786Y9432D01*
X28790Y9452D01*
X28797Y9476D01*
X28808Y9504D01*
X28825Y9534D01*
X28836Y9549D01*
X28849Y9562D01*
X28866Y9574D01*
X28882Y9587D01*
X28886Y9589D01*
X28890Y9591D01*
X28895Y9595D01*
X28904Y9599D01*
X28917Y9604D01*
X28932Y9610D01*
X28953Y9617D01*
X28954D01*
X28962Y9621D01*
X28971Y9624D01*
X28984Y9630D01*
X29012Y9643D01*
X29027Y9652D01*
X29040Y9662D01*
X29041Y9663D01*
X29043Y9665D01*
X29049Y9671D01*
X29054Y9680D01*
X29060Y9689D01*
X29064Y9702D01*
X29067Y9717D01*
X29069Y9734D01*
Y9741D01*
X29067Y9749D01*
X29066Y9758D01*
X29062Y9769D01*
X29058Y9782D01*
X29051Y9793D01*
X29041Y9804D01*
X29040Y9806D01*
X29036Y9808D01*
X29030Y9813D01*
X29021Y9817D01*
X29010Y9823D01*
X28997Y9828D01*
X28982Y9830D01*
X28966Y9832D01*
X28964D01*
X28954D01*
X28943Y9830D01*
X28928Y9828D01*
X28910Y9826D01*
X28890Y9821D01*
X28867Y9815D01*
X28843Y9806D01*
X28840Y9804D01*
X28832Y9800D01*
X28821Y9795D01*
X28806Y9786D01*
X28788Y9776D01*
X28769Y9762D01*
X28749Y9747D01*
X28730Y9728D01*
X28729Y9726D01*
X28721Y9719D01*
X28712Y9708D01*
X28701Y9693D01*
X28688Y9673D01*
X28673Y9650D01*
X28660Y9624D01*
X28647Y9597D01*
Y9595D01*
X28645Y9593D01*
X28641Y9582D01*
X28636Y9565D01*
X28630Y9543D01*
X28625Y9515D01*
X28619Y9484D01*
X28616Y9449D01*
X28614Y9410D01*
Y9387D01*
X28616Y9376D01*
Y9363D01*
X28619Y9334D01*
X28623Y9299D01*
X28630Y9262D01*
X28641Y9225D01*
X28654Y9189D01*
X28656Y9187D01*
X28660Y9180D01*
X28666Y9169D01*
X28675Y9154D01*
X28686Y9137D01*
X28699Y9121D01*
X28714Y9102D01*
X28730Y9086D01*
X28732Y9084D01*
X28738Y9078D01*
X28749Y9069D01*
X28762Y9060D01*
X28777Y9049D01*
X28795Y9036D01*
X28817Y9025D01*
X28840Y9015D01*
X28841Y9013D01*
X28851Y9012D01*
X28862Y9008D01*
X28878Y9002D01*
X28897Y8997D01*
X28919Y8993D01*
X28943Y8991D01*
X28967Y8989D01*
X28969D01*
X28973D01*
X28978D01*
X28986D01*
X29004Y8991D01*
X29030Y8997D01*
X29060Y9002D01*
X29091Y9012D01*
X29125Y9025D01*
X29158Y9043D01*
X29162Y9045D01*
X29173Y9052D01*
X29188Y9062D01*
X29206Y9076D01*
X29228Y9091D01*
X29251Y9110D01*
X29273Y9128D01*
X29293Y9149D01*
X29295Y9150D01*
X29303Y9160D01*
X29314Y9173D01*
X29330Y9191D01*
X29351Y9217D01*
X29378Y9249D01*
X29408Y9286D01*
X29445Y9330D01*
X29447Y9332D01*
X29449Y9336D01*
X29454Y9341D01*
X29462Y9350D01*
X29480Y9373D01*
X29504Y9399D01*
X29530Y9428D01*
X29556Y9456D01*
X29582Y9482D01*
X29595Y9493D01*
X29606Y9502D01*
X29608D01*
X29610Y9506D01*
X29621Y9515D01*
X29638Y9528D01*
X29660Y9545D01*
Y9093D01*
X29662Y9082D01*
X29664Y9067D01*
X29667Y9050D01*
X29671Y9034D01*
X29678Y9017D01*
X29688Y9004D01*
X29690Y9002D01*
X29693Y8999D01*
X29699Y8993D01*
X29706Y8986D01*
X29717Y8980D01*
X29730Y8975D01*
X29743Y8971D01*
X29760Y8969D01*
X29767D01*
X29775Y8971D01*
X29784Y8973D01*
X29795Y8976D01*
X29808Y8980D01*
X29819Y8988D01*
X29830Y8997D01*
X29832Y8999D01*
X29834Y9002D01*
X29840Y9008D01*
X29843Y9017D01*
X29849Y9030D01*
X29854Y9043D01*
X29856Y9060D01*
X29858Y9080D01*
Y8969D01*
D01*
Y9836D01*
D02*
G37*
G36*
X29760Y8969D02*
X28614D01*
X29760D01*
D01*
D02*
G37*
G36*
X29878Y7906D02*
D01*
Y7791D01*
X29877Y7802D01*
X29873Y7815D01*
X29869Y7830D01*
X29864Y7847D01*
X29854Y7862D01*
X29841Y7875D01*
X29840Y7877D01*
X29834Y7880D01*
X29825Y7884D01*
X29812Y7889D01*
X29797Y7897D01*
X29777Y7901D01*
X29752Y7904D01*
X29727Y7906D01*
X28621D01*
X28762D01*
X28747Y7904D01*
X28730Y7902D01*
X28712Y7897D01*
X28691Y7891D01*
X28673Y7882D01*
X28658Y7871D01*
X28656Y7869D01*
X28653Y7864D01*
X28647Y7854D01*
X28640Y7843D01*
X28632Y7827D01*
X28627Y7806D01*
X28623Y7782D01*
X28621Y7754D01*
Y7295D01*
X28623Y7273D01*
X28625Y7249D01*
X28627Y7225D01*
X28629Y7202D01*
Y7199D01*
X28630Y7191D01*
X28632Y7180D01*
X28634Y7165D01*
X28640Y7149D01*
X28643Y7130D01*
X28658Y7093D01*
X28660Y7091D01*
X28662Y7084D01*
X28667Y7073D01*
X28677Y7058D01*
X28686Y7043D01*
X28697Y7027D01*
X28712Y7008D01*
X28729Y6991D01*
X28730Y6990D01*
X28736Y6984D01*
X28745Y6977D01*
X28758Y6965D01*
X28773Y6954D01*
X28791Y6943D01*
X28812Y6932D01*
X28834Y6923D01*
X28836Y6921D01*
X28845Y6919D01*
X28856Y6916D01*
X28873Y6910D01*
X28891Y6906D01*
X28914Y6903D01*
X28936Y6901D01*
X28962Y6899D01*
X28964D01*
X28967D01*
X28975D01*
X28984Y6901D01*
X28997D01*
X29010Y6903D01*
X29041Y6908D01*
X29077Y6917D01*
X29114Y6932D01*
X29151Y6953D01*
X29167Y6964D01*
X29184Y6978D01*
X29188Y6982D01*
X29197Y6993D01*
X29212Y7012D01*
X29228Y7038D01*
X29249Y7069D01*
X29258Y7090D01*
X29267Y7110D01*
X29277Y7134D01*
X29286Y7158D01*
X29293Y7186D01*
X29301Y7214D01*
X29303Y7210D01*
X29308Y7202D01*
X29316Y7190D01*
X29327Y7173D01*
X29341Y7154D01*
X29360Y7132D01*
X29380Y7110D01*
X29404Y7088D01*
X29408Y7084D01*
X29415Y7077D01*
X29430Y7065D01*
X29449Y7051D01*
X29471Y7034D01*
X29495Y7015D01*
X29523Y6997D01*
X29553Y6978D01*
X29556Y6977D01*
X29565Y6971D01*
X29580Y6962D01*
X29599Y6951D01*
X29621Y6940D01*
X29645Y6927D01*
X29669Y6916D01*
X29693Y6904D01*
X29695Y6903D01*
X29702Y6901D01*
X29714Y6897D01*
X29727Y6891D01*
X29756Y6882D01*
X29769Y6880D01*
X29778Y6878D01*
X28621D01*
X29878D01*
Y7906D01*
D02*
G37*
G36*
Y6721D02*
D01*
Y6275D01*
X29877Y6291D01*
X29875Y6310D01*
X29871Y6330D01*
X29867Y6354D01*
X29862Y6380D01*
X29847Y6436D01*
X29838Y6466D01*
X29825Y6493D01*
X29810Y6521D01*
X29793Y6549D01*
X29775Y6575D01*
X29752Y6599D01*
X29751Y6601D01*
X29747Y6604D01*
X29740Y6610D01*
X29730Y6617D01*
X29717Y6627D01*
X29701Y6638D01*
X29684Y6649D01*
X29662Y6660D01*
X29640Y6671D01*
X29614Y6682D01*
X29586Y6693D01*
X29554Y6703D01*
X29521Y6710D01*
X29488Y6716D01*
X29449Y6719D01*
X29410Y6721D01*
X29393D01*
X29373Y6719D01*
X29349Y6717D01*
X29319Y6714D01*
X29288Y6708D01*
X29254Y6701D01*
X29221Y6691D01*
X29219D01*
X29217Y6690D01*
X29206Y6686D01*
X29190Y6678D01*
X29169Y6669D01*
X29147Y6656D01*
X29121Y6641D01*
X29095Y6625D01*
X29071Y6604D01*
X29067Y6603D01*
X29060Y6593D01*
X29049Y6580D01*
X29036Y6564D01*
X29019Y6543D01*
X29004Y6519D01*
X28988Y6491D01*
X28975Y6460D01*
Y6458D01*
X28973Y6456D01*
X28969Y6445D01*
X28964Y6427D01*
X28958Y6404D01*
X28953Y6377D01*
X28947Y6345D01*
X28943Y6308D01*
X28941Y6271D01*
Y6249D01*
X28943Y6236D01*
X28945Y6223D01*
X28949Y6192D01*
X28956Y6154D01*
X28966Y6116D01*
X28980Y6077D01*
X28999Y6040D01*
Y6038D01*
X29001Y6036D01*
X29010Y6023D01*
X29021Y6006D01*
X29040Y5986D01*
X29060Y5962D01*
X29086Y5938D01*
X29114Y5916D01*
X29147Y5895D01*
X29149D01*
X29151Y5893D01*
X29162Y5888D01*
X29180Y5880D01*
X29203Y5871D01*
X29230Y5862D01*
X29262Y5854D01*
X29295Y5849D01*
X29330Y5847D01*
X29878D01*
Y6721D01*
D02*
G37*
G36*
Y5723D02*
D01*
Y5310D01*
X29877Y5319D01*
X29875Y5330D01*
X29869Y5356D01*
X29864Y5369D01*
X29856Y5380D01*
X29854Y5382D01*
X29852Y5386D01*
X29841Y5397D01*
X29827Y5412D01*
X29808Y5425D01*
X29806D01*
X29802Y5427D01*
X29795Y5430D01*
X29786Y5436D01*
X29771Y5442D01*
X29752Y5449D01*
X29730Y5460D01*
X29702Y5471D01*
X29162Y5690D01*
X29160D01*
X29158Y5692D01*
X29149Y5695D01*
X29136Y5699D01*
X29121Y5706D01*
X29119D01*
X29117Y5708D01*
X29108Y5710D01*
X29095Y5716D01*
X29080Y5719D01*
X29078D01*
X29077D01*
X29067Y5721D01*
X29054Y5723D01*
X29040D01*
X29028Y5721D01*
X29014Y5717D01*
X28997Y5710D01*
X28995D01*
X28993Y5708D01*
X28982Y5699D01*
X28971Y5688D01*
X28958Y5671D01*
Y5669D01*
X28956Y5667D01*
X28953Y5662D01*
X28951Y5655D01*
X28945Y5636D01*
X28943Y5616D01*
Y5606D01*
X28945Y5597D01*
X28947Y5584D01*
X28951Y5571D01*
X28958Y5558D01*
X28966Y5547D01*
X28977Y5538D01*
X28978Y5536D01*
X28982Y5534D01*
X28991Y5529D01*
X29003Y5523D01*
X29019Y5516D01*
X29038Y5508D01*
X29060Y5499D01*
X29088Y5490D01*
X29610Y5303D01*
X29066Y5103D01*
X29062Y5101D01*
X29054Y5099D01*
X29043Y5093D01*
X29028Y5088D01*
X28997Y5073D01*
X28982Y5064D01*
X28971Y5056D01*
X28969Y5055D01*
X28967Y5053D01*
X28962Y5047D01*
X28956Y5038D01*
X28953Y5029D01*
X28947Y5016D01*
X28945Y5003D01*
X28943Y4986D01*
Y4979D01*
X28945Y4971D01*
X28947Y4960D01*
X28951Y4949D01*
X28956Y4936D01*
X28964Y4925D01*
X28973Y4912D01*
X28975Y4910D01*
X28978Y4906D01*
X28984Y4903D01*
X28993Y4895D01*
X29014Y4886D01*
X29027Y4882D01*
X29041Y4881D01*
X29878D01*
Y5723D01*
D02*
G37*
G36*
Y4381D02*
D01*
Y3697D01*
X29877Y3707D01*
X29875Y3718D01*
X29871Y3731D01*
X29865Y3744D01*
X29858Y3757D01*
X29847Y3768D01*
X29845Y3770D01*
X29841Y3771D01*
X29832Y3777D01*
X29823Y3781D01*
X29808Y3786D01*
X29791Y3792D01*
X29773Y3794D01*
X29751Y3795D01*
X29593D01*
Y4232D01*
X29591Y4247D01*
X29590Y4264D01*
X29584Y4284D01*
X29578Y4305D01*
X29569Y4323D01*
X29558Y4340D01*
X29556Y4342D01*
X29551Y4345D01*
X29543Y4353D01*
X29532Y4360D01*
X29517Y4368D01*
X29501Y4375D01*
X29482Y4379D01*
X29460Y4381D01*
X29878D01*
X29449D01*
X29440Y4379D01*
X29427Y4375D01*
X29423Y4373D01*
X29415Y4369D01*
X29406Y4364D01*
X29393Y4357D01*
X29390Y4355D01*
X29382Y4349D01*
X29371Y4342D01*
X29358Y4332D01*
X29354Y4331D01*
X29345Y4323D01*
X29332Y4314D01*
X29316Y4301D01*
X28717Y3853D01*
X28716Y3851D01*
X28708Y3845D01*
X28697Y3838D01*
X28684Y3829D01*
X28656Y3805D01*
X28643Y3794D01*
X28632Y3782D01*
X28630Y3781D01*
X28629Y3777D01*
X28623Y3771D01*
X28617Y3762D01*
X28608Y3742D01*
X28606Y3729D01*
X28604Y3714D01*
Y3703D01*
X28606Y3694D01*
X28612Y3673D01*
X28623Y3649D01*
X28630Y3636D01*
X28640Y3625D01*
X28653Y3614D01*
X28667Y3605D01*
X28684Y3595D01*
X28704Y3590D01*
X28727Y3586D01*
X28753Y3584D01*
X29404D01*
Y3527D01*
X29406Y3512D01*
X29412Y3479D01*
X29417Y3460D01*
X29423Y3445D01*
Y3444D01*
X29427Y3440D01*
X29432Y3433D01*
X29440Y3425D01*
X29451Y3418D01*
X29464Y3410D01*
X29480Y3407D01*
X29501Y3405D01*
X28604D01*
X29508D01*
X29517Y3407D01*
X29527Y3408D01*
X29540Y3412D01*
X29551Y3420D01*
X29562Y3427D01*
X29571Y3438D01*
Y3440D01*
X29575Y3444D01*
X29578Y3451D01*
X29582Y3462D01*
X29586Y3475D01*
X29590Y3492D01*
X29591Y3512D01*
X29593Y3534D01*
Y3584D01*
X29751D01*
X29754D01*
X29762D01*
X29773Y3586D01*
X29788Y3588D01*
X29802Y3592D01*
X29819Y3597D01*
X29834Y3605D01*
X29847Y3614D01*
X29849Y3616D01*
X29852Y3620D01*
X29856Y3625D01*
X29862Y3634D01*
X29869Y3645D01*
X29873Y3658D01*
X29877Y3673D01*
X29878Y3690D01*
Y3405D01*
D01*
Y4381D01*
D02*
G37*
%LPD*%
G36*
X29375Y16087D02*
X28864Y16274D01*
X29375Y16457D01*
Y16087D01*
D02*
G37*
G36*
X29297Y15329D02*
X29334D01*
X29375Y15328D01*
X29419Y15324D01*
X29462Y15318D01*
X29503Y15313D01*
X29504D01*
X29506Y15311D01*
X29512D01*
X29519Y15309D01*
X29538Y15305D01*
X29558Y15298D01*
X29584Y15291D01*
X29608Y15279D01*
X29632Y15266D01*
X29654Y15252D01*
X29656Y15250D01*
X29662Y15244D01*
X29671Y15233D01*
X29680Y15220D01*
X29690Y15204D01*
X29699Y15183D01*
X29704Y15159D01*
X29706Y15133D01*
Y15120D01*
X29702Y15105D01*
X29699Y15089D01*
X29693Y15070D01*
X29684Y15050D01*
X29671Y15029D01*
X29653Y15013D01*
X29651Y15011D01*
X29643Y15005D01*
X29630Y14998D01*
X29614Y14989D01*
X29591Y14978D01*
X29565Y14967D01*
X29534Y14957D01*
X29499Y14950D01*
X29497D01*
X29493D01*
X29488Y14948D01*
X29480Y14946D01*
X29471D01*
X29458Y14944D01*
X29445Y14942D01*
X29428Y14941D01*
X29410Y14939D01*
X29391Y14937D01*
X29345Y14935D01*
X29293Y14931D01*
X29236D01*
X29234D01*
X29228D01*
X29221D01*
X29210D01*
X29197D01*
X29182Y14933D01*
X29145D01*
X29106Y14937D01*
X29064Y14941D01*
X29021Y14944D01*
X28982Y14952D01*
X28980D01*
X28978D01*
X28973Y14954D01*
X28966Y14955D01*
X28949Y14959D01*
X28927Y14967D01*
X28903Y14976D01*
X28878Y14987D01*
X28854Y15000D01*
X28834Y15015D01*
X28832Y15017D01*
X28827Y15022D01*
X28817Y15031D01*
X28808Y15046D01*
X28799Y15063D01*
X28790Y15083D01*
X28784Y15107D01*
X28782Y15135D01*
Y15146D01*
X28784Y15154D01*
X28788Y15172D01*
X28797Y15196D01*
X28810Y15222D01*
X28819Y15235D01*
X28830Y15246D01*
X28843Y15259D01*
X28858Y15270D01*
X28875Y15279D01*
X28895Y15289D01*
X28897D01*
X28901Y15291D01*
X28906Y15292D01*
X28916Y15296D01*
X28928Y15298D01*
X28943Y15302D01*
X28960Y15305D01*
X28980Y15309D01*
X29004Y15315D01*
X29028Y15318D01*
X29058Y15322D01*
X29090Y15324D01*
X29123Y15328D01*
X29160Y15329D01*
X29199Y15331D01*
X29241D01*
X29243D01*
X29249D01*
X29256D01*
X29267D01*
X29282D01*
X29297Y15329D01*
D02*
G37*
G36*
X28977Y14281D02*
X28993Y14278D01*
X29012Y14272D01*
X29032Y14263D01*
X29053Y14252D01*
X29071Y14235D01*
X29073Y14233D01*
X29078Y14226D01*
X29086Y14215D01*
X29093Y14200D01*
X29103Y14181D01*
X29110Y14159D01*
X29116Y14133D01*
X29117Y14105D01*
Y14091D01*
X29116Y14081D01*
X29112Y14059D01*
X29106Y14035D01*
Y14033D01*
X29104Y14030D01*
X29101Y14024D01*
X29097Y14015D01*
X29086Y13998D01*
X29071Y13980D01*
X29069Y13978D01*
X29067Y13976D01*
X29056Y13967D01*
X29040Y13954D01*
X29017Y13943D01*
X29016D01*
X29012Y13941D01*
X29006Y13939D01*
X28997Y13935D01*
X28975Y13931D01*
X28949Y13930D01*
X28947D01*
X28940D01*
X28930Y13931D01*
X28919D01*
X28890Y13939D01*
X28875Y13944D01*
X28860Y13952D01*
X28858Y13954D01*
X28853Y13956D01*
X28845Y13961D01*
X28836Y13968D01*
X28827Y13978D01*
X28816Y13987D01*
X28797Y14015D01*
X28795Y14017D01*
X28793Y14022D01*
X28790Y14030D01*
X28784Y14041D01*
X28780Y14056D01*
X28777Y14070D01*
X28775Y14089D01*
X28773Y14107D01*
Y14120D01*
X28775Y14135D01*
X28779Y14154D01*
X28786Y14174D01*
X28793Y14194D01*
X28806Y14217D01*
X28823Y14235D01*
X28825Y14237D01*
X28832Y14243D01*
X28843Y14250D01*
X28858Y14259D01*
X28877Y14268D01*
X28897Y14276D01*
X28923Y14281D01*
X28951Y14283D01*
X28954D01*
X28962D01*
X28977Y14281D01*
D02*
G37*
G36*
X29519Y14309D02*
X29536Y14307D01*
X29553Y14305D01*
X29573Y14300D01*
X29593Y14294D01*
X29612Y14285D01*
X29614Y14283D01*
X29619Y14280D01*
X29628Y14274D01*
X29640Y14265D01*
X29653Y14255D01*
X29665Y14243D01*
X29678Y14228D01*
X29690Y14211D01*
X29691Y14209D01*
X29693Y14202D01*
X29697Y14193D01*
X29702Y14180D01*
X29708Y14163D01*
X29712Y14146D01*
X29714Y14126D01*
X29715Y14104D01*
Y14094D01*
X29714Y14083D01*
X29712Y14068D01*
X29710Y14054D01*
X29704Y14035D01*
X29699Y14018D01*
X29690Y14000D01*
X29688Y13998D01*
X29684Y13993D01*
X29678Y13983D01*
X29669Y13972D01*
X29658Y13961D01*
X29645Y13948D01*
X29630Y13935D01*
X29612Y13924D01*
X29610Y13922D01*
X29603Y13920D01*
X29591Y13915D01*
X29578Y13909D01*
X29560Y13906D01*
X29541Y13900D01*
X29519Y13898D01*
X29495Y13896D01*
X29491D01*
X29484D01*
X29471Y13898D01*
X29456Y13900D01*
X29438Y13904D01*
X29419Y13907D01*
X29399Y13915D01*
X29380Y13924D01*
X29378Y13926D01*
X29373Y13930D01*
X29364Y13935D01*
X29353Y13944D01*
X29341Y13956D01*
X29328Y13968D01*
X29317Y13983D01*
X29306Y14000D01*
X29304Y14002D01*
X29303Y14009D01*
X29297Y14018D01*
X29291Y14031D01*
X29288Y14048D01*
X29282Y14067D01*
X29280Y14087D01*
X29278Y14109D01*
Y14124D01*
X29282Y14139D01*
X29286Y14159D01*
X29293Y14183D01*
X29303Y14207D01*
X29317Y14231D01*
X29336Y14254D01*
X29338Y14255D01*
X29347Y14263D01*
X29360Y14272D01*
X29377Y14281D01*
X29401Y14293D01*
X29428Y14302D01*
X29460Y14309D01*
X29497Y14311D01*
X29501D01*
X29508D01*
X29519Y14309D01*
D02*
G37*
G36*
X29877Y13665D02*
X29519D01*
X29540Y13667D01*
X29565Y13670D01*
X29595Y13678D01*
X29628Y13687D01*
X29662Y13700D01*
X29695Y13717D01*
X29699Y13718D01*
X29710Y13726D01*
X29725Y13739D01*
X29743Y13756D01*
X29765Y13776D01*
X29788Y13802D01*
X29808Y13833D01*
X29828Y13868D01*
Y13870D01*
X29830Y13872D01*
X29832Y13878D01*
X29836Y13887D01*
X29840Y13896D01*
X29843Y13907D01*
X29852Y13935D01*
X29862Y13970D01*
X29869Y14009D01*
X29875Y14056D01*
X29877Y14104D01*
Y13665D01*
D02*
G37*
G36*
X29510Y13043D02*
X29417D01*
X29425Y13044D01*
X29436Y13046D01*
X29447Y13050D01*
X29460Y13056D01*
X29471Y13063D01*
X29482Y13074D01*
X29484Y13076D01*
X29486Y13080D01*
X29491Y13087D01*
X29495Y13096D01*
X29501Y13109D01*
X29506Y13126D01*
X29508Y13144D01*
X29510Y13167D01*
Y13043D01*
D02*
G37*
G36*
X29049Y11704D02*
X29069Y11702D01*
X29095Y11698D01*
X29123Y11693D01*
X29154Y11682D01*
X29182Y11669D01*
X29210Y11650D01*
X29214Y11648D01*
X29221Y11641D01*
X29230Y11628D01*
X29243Y11611D01*
X29256Y11591D01*
X29265Y11567D01*
X29273Y11539D01*
X29277Y11509D01*
Y11500D01*
X29275Y11491D01*
X29273Y11478D01*
X29271Y11461D01*
X29265Y11445D01*
X29260Y11428D01*
X29251Y11409D01*
X29249Y11408D01*
X29245Y11402D01*
X29240Y11393D01*
X29230Y11382D01*
X29219Y11369D01*
X29204Y11356D01*
X29190Y11343D01*
X29171Y11332D01*
X29169Y11330D01*
X29162Y11326D01*
X29151Y11322D01*
X29136Y11315D01*
X29117Y11309D01*
X29095Y11306D01*
X29073Y11302D01*
X29047Y11300D01*
X29045D01*
X29038D01*
X29025D01*
X29012Y11302D01*
X28995Y11304D01*
X28977Y11308D01*
X28940Y11317D01*
X28938D01*
X28932Y11319D01*
X28923Y11322D01*
X28912Y11328D01*
X28884Y11341D01*
X28856Y11361D01*
X28854Y11363D01*
X28851Y11367D01*
X28843Y11372D01*
X28836Y11380D01*
X28827Y11391D01*
X28816Y11402D01*
X28799Y11430D01*
X28797Y11432D01*
X28795Y11437D01*
X28791Y11445D01*
X28788Y11456D01*
X28784Y11467D01*
X28782Y11482D01*
X28779Y11498D01*
Y11519D01*
X28780Y11528D01*
X28782Y11543D01*
X28788Y11561D01*
X28795Y11584D01*
X28808Y11606D01*
X28825Y11628D01*
X28849Y11650D01*
X28853Y11652D01*
X28862Y11659D01*
X28877Y11667D01*
X28897Y11678D01*
X28923Y11687D01*
X28954Y11696D01*
X28990Y11704D01*
X29030Y11706D01*
X29032D01*
X29036D01*
X29041D01*
X29049Y11704D01*
D02*
G37*
G36*
X29877Y11047D02*
X29247D01*
X29260Y11048D01*
X29277D01*
X29295D01*
X29316Y11050D01*
X29360Y11054D01*
X29408Y11061D01*
X29456Y11069D01*
X29504Y11080D01*
X29506D01*
X29510Y11082D01*
X29515Y11084D01*
X29525Y11085D01*
X29536Y11089D01*
X29549Y11093D01*
X29577Y11104D01*
X29610Y11119D01*
X29643Y11134D01*
X29678Y11154D01*
X29712Y11176D01*
X29715Y11180D01*
X29725Y11187D01*
X29740Y11200D01*
X29758Y11219D01*
X29778Y11241D01*
X29799Y11267D01*
X29819Y11297D01*
X29836Y11328D01*
Y11330D01*
X29838Y11332D01*
X29840Y11337D01*
X29841Y11343D01*
X29849Y11361D01*
X29856Y11385D01*
X29864Y11415D01*
X29871Y11448D01*
X29875Y11485D01*
X29877Y11526D01*
Y11047D01*
D02*
G37*
G36*
X29404Y10352D02*
X28916D01*
X29404Y10715D01*
Y10352D01*
D02*
G37*
G36*
X29149Y7401D02*
X29147Y7378D01*
X29145Y7354D01*
X29143Y7330D01*
X29140Y7304D01*
X29134Y7280D01*
Y7278D01*
X29130Y7271D01*
X29127Y7260D01*
X29121Y7245D01*
X29116Y7230D01*
X29106Y7215D01*
X29095Y7199D01*
X29082Y7186D01*
X29080Y7184D01*
X29075Y7180D01*
X29066Y7175D01*
X29054Y7169D01*
X29040Y7164D01*
X29021Y7158D01*
X29001Y7154D01*
X28977Y7153D01*
X28975D01*
X28967D01*
X28958Y7154D01*
X28945Y7156D01*
X28932Y7160D01*
X28916Y7164D01*
X28901Y7171D01*
X28886Y7180D01*
X28884Y7182D01*
X28880Y7186D01*
X28873Y7191D01*
X28864Y7199D01*
X28854Y7210D01*
X28845Y7221D01*
X28836Y7236D01*
X28829Y7253D01*
X28827Y7254D01*
X28825Y7262D01*
X28821Y7273D01*
X28817Y7291D01*
X28814Y7314D01*
X28812Y7343D01*
X28808Y7380D01*
Y7656D01*
X29149D01*
Y7401D01*
D02*
G37*
G36*
X29878Y7006D02*
X29877Y7014D01*
Y7023D01*
X29869Y7047D01*
X29865Y7060D01*
X29858Y7071D01*
Y7073D01*
X29854Y7075D01*
X29845Y7088D01*
X29830Y7103D01*
X29810Y7119D01*
X29808D01*
X29804Y7123D01*
X29797Y7127D01*
X29786Y7134D01*
X29775Y7141D01*
X29758Y7151D01*
X29740Y7162D01*
X29719Y7175D01*
X29553Y7275D01*
X29551D01*
X29549Y7277D01*
X29538Y7284D01*
X29521Y7293D01*
X29501Y7306D01*
X29478Y7323D01*
X29456Y7340D01*
X29434Y7356D01*
X29414Y7373D01*
X29412Y7375D01*
X29406Y7380D01*
X29397Y7390D01*
X29388Y7399D01*
X29377Y7414D01*
X29365Y7427D01*
X29354Y7443D01*
X29347Y7460D01*
Y7462D01*
X29343Y7467D01*
X29341Y7477D01*
X29338Y7490D01*
X29334Y7504D01*
X29332Y7525D01*
X29328Y7545D01*
Y7656D01*
X29727D01*
X29730D01*
X29740D01*
X29752Y7658D01*
X29769Y7660D01*
X29790Y7665D01*
X29808Y7671D01*
X29827Y7680D01*
X29841Y7691D01*
X29843Y7693D01*
X29847Y7697D01*
X29852Y7706D01*
X29860Y7715D01*
X29867Y7728D01*
X29873Y7745D01*
X29877Y7762D01*
X29878Y7782D01*
Y7006D01*
D02*
G37*
G36*
Y6878D02*
X29782D01*
X29793Y6880D01*
X29808Y6886D01*
X29827Y6895D01*
X29828D01*
X29830Y6897D01*
X29840Y6906D01*
X29852Y6919D01*
X29864Y6938D01*
Y6940D01*
X29865Y6941D01*
X29867Y6947D01*
X29871Y6954D01*
X29877Y6975D01*
X29878Y6999D01*
Y6878D01*
D02*
G37*
G36*
X29336Y6069D02*
X29334D01*
X29330D01*
X29325Y6071D01*
X29317D01*
X29295Y6075D01*
X29269Y6080D01*
X29241Y6090D01*
X29212Y6101D01*
X29184Y6116D01*
X29160Y6134D01*
X29158Y6136D01*
X29151Y6143D01*
X29141Y6156D01*
X29130Y6173D01*
X29119Y6193D01*
X29110Y6217D01*
X29103Y6247D01*
X29101Y6279D01*
Y6293D01*
X29104Y6308D01*
X29108Y6329D01*
X29116Y6351D01*
X29127Y6373D01*
X29141Y6397D01*
X29162Y6419D01*
X29164Y6421D01*
X29173Y6429D01*
X29186Y6438D01*
X29206Y6449D01*
X29230Y6460D01*
X29260Y6471D01*
X29295Y6480D01*
X29336Y6486D01*
Y6069D01*
D02*
G37*
G36*
X29495Y6484D02*
X29515Y6482D01*
X29536Y6478D01*
X29560Y6473D01*
X29584Y6466D01*
X29608Y6456D01*
X29610Y6454D01*
X29617Y6451D01*
X29628Y6443D01*
X29641Y6434D01*
X29656Y6423D01*
X29671Y6408D01*
X29684Y6393D01*
X29697Y6375D01*
X29699Y6373D01*
X29701Y6366D01*
X29706Y6354D01*
X29712Y6341D01*
X29717Y6325D01*
X29721Y6304D01*
X29725Y6282D01*
X29727Y6260D01*
Y6245D01*
X29725Y6236D01*
X29723Y6212D01*
X29717Y6186D01*
Y6184D01*
X29715Y6180D01*
X29714Y6173D01*
X29710Y6164D01*
X29701Y6143D01*
X29688Y6119D01*
X29686Y6117D01*
X29684Y6114D01*
X29680Y6108D01*
X29675Y6101D01*
X29660Y6080D01*
X29643Y6060D01*
X29641Y6058D01*
X29640Y6054D01*
X29634Y6049D01*
X29627Y6042D01*
X29617Y6030D01*
X29606Y6019D01*
X29578Y5990D01*
X29577Y5986D01*
X29571Y5977D01*
X29565Y5962D01*
X29564Y5940D01*
Y5934D01*
X29565Y5927D01*
Y5919D01*
X29573Y5901D01*
X29577Y5892D01*
X29584Y5882D01*
Y5880D01*
X29588Y5879D01*
X29597Y5871D01*
X29614Y5864D01*
X29625Y5860D01*
X29638D01*
X29640D01*
X29643D01*
X29651Y5862D01*
X29658Y5864D01*
X29669Y5866D01*
X29682Y5869D01*
X29697Y5877D01*
X29712Y5884D01*
X29714Y5886D01*
X29719Y5888D01*
X29727Y5895D01*
X29738Y5903D01*
X29749Y5912D01*
X29762Y5925D01*
X29777Y5940D01*
X29791Y5958D01*
X29793Y5960D01*
X29797Y5967D01*
X29804Y5979D01*
X29814Y5992D01*
X29823Y6010D01*
X29834Y6032D01*
X29843Y6056D01*
X29854Y6082D01*
X29856Y6086D01*
X29858Y6095D01*
X29862Y6110D01*
X29865Y6132D01*
X29871Y6156D01*
X29875Y6186D01*
X29877Y6219D01*
X29878Y6254D01*
Y5847D01*
X29345D01*
X29360Y5849D01*
X29377Y5853D01*
X29397Y5860D01*
X29415Y5867D01*
X29430Y5880D01*
X29443Y5897D01*
X29445Y5899D01*
X29447Y5906D01*
X29451Y5917D01*
X29454Y5932D01*
X29460Y5953D01*
X29464Y5977D01*
X29465Y6004D01*
X29467Y6036D01*
Y6486D01*
X29471D01*
X29480D01*
X29495Y6484D01*
D02*
G37*
G36*
X29878Y4881D02*
X29051D01*
X29062Y4882D01*
X29077Y4886D01*
X29080D01*
X29090Y4890D01*
X29101Y4893D01*
X29116Y4899D01*
X29119Y4901D01*
X29127Y4905D01*
X29140Y4908D01*
X29156Y4916D01*
X29702Y5136D01*
X29704D01*
X29706Y5138D01*
X29712Y5140D01*
X29719Y5142D01*
X29738Y5151D01*
X29764Y5160D01*
X29765D01*
X29769Y5162D01*
X29777Y5166D01*
X29784Y5169D01*
X29804Y5180D01*
X29825Y5193D01*
X29827D01*
X29828Y5197D01*
X29840Y5206D01*
X29852Y5221D01*
X29864Y5240D01*
Y5242D01*
X29865Y5243D01*
X29867Y5249D01*
X29871Y5256D01*
X29877Y5277D01*
X29878Y5303D01*
Y4881D01*
D02*
G37*
G36*
X29404Y3795D02*
X28916D01*
X29404Y4158D01*
Y3795D01*
D02*
G37*
%LPC*%
G36*
X19519Y2823D02*
X19320D01*
Y2661D01*
X19325Y2643D01*
X19330Y2633D01*
Y2629D01*
X19334Y2601D01*
X19339Y2596D01*
Y2592D01*
X19362Y2569D01*
X19367Y2564D01*
X19371D01*
X19390Y2559D01*
X19404Y2555D01*
X19413D01*
X19418D01*
X19455Y2559D01*
X19478Y2569D01*
X19492Y2578D01*
X19496Y2583D01*
X19510Y2615D01*
X19515Y2647D01*
X19519Y2675D01*
Y2823D01*
D02*
G37*
G36*
X19621Y2393D02*
X19612D01*
X19607D01*
X19556Y2388D01*
X19519Y2374D01*
X19501Y2365D01*
X19492Y2360D01*
X19469Y2333D01*
X19455Y2300D01*
X19450Y2277D01*
Y2268D01*
X19455Y2226D01*
X19469Y2198D01*
X19487Y2180D01*
X19492Y2175D01*
X19524Y2157D01*
X19561Y2148D01*
X19593Y2143D01*
X19603D01*
X19607D01*
X19658Y2148D01*
X19691Y2157D01*
X19714Y2171D01*
X19723Y2175D01*
X19746Y2203D01*
X19760Y2235D01*
X19765Y2259D01*
Y2268D01*
X19760Y2310D01*
X19742Y2337D01*
X19728Y2356D01*
X19723Y2360D01*
X19686Y2379D01*
X19649Y2388D01*
X19621Y2393D01*
D02*
G37*
G36*
X26903Y14367D02*
X26555D01*
Y14088D01*
X26557Y14063D01*
X26558Y14042D01*
X26560Y14025D01*
X26562Y14013D01*
X26564Y14005D01*
X26565Y13999D01*
Y13998D01*
X26572Y13980D01*
X26581Y13964D01*
X26589Y13950D01*
X26599Y13937D01*
X26609Y13929D01*
X26616Y13922D01*
X26622Y13918D01*
X26623Y13916D01*
X26640Y13906D01*
X26657Y13898D01*
X26675Y13892D01*
X26691Y13889D01*
X26705Y13887D01*
X26717Y13885D01*
X26724D01*
X26726D01*
X26727D01*
X26757Y13888D01*
X26782Y13894D01*
X26805Y13902D01*
X26823Y13912D01*
X26837Y13922D01*
X26848Y13930D01*
X26854Y13936D01*
X26857Y13939D01*
X26865Y13949D01*
X26872Y13961D01*
X26884Y13988D01*
X26892Y14018D01*
X26898Y14047D01*
X26901Y14074D01*
X26902Y14085D01*
Y14095D01*
X26903Y14105D01*
Y14367D01*
D02*
G37*
G36*
X26848Y12480D02*
X26555D01*
Y12248D01*
X26558Y12217D01*
X26560Y12193D01*
X26562Y12172D01*
X26565Y12157D01*
X26567Y12147D01*
X26569Y12140D01*
Y12138D01*
X26575Y12123D01*
X26583Y12109D01*
X26592Y12098D01*
X26600Y12088D01*
X26607Y12081D01*
X26614Y12075D01*
X26619Y12072D01*
X26620Y12071D01*
X26634Y12062D01*
X26648Y12057D01*
X26662Y12052D01*
X26677Y12050D01*
X26688Y12048D01*
X26696Y12047D01*
X26702D01*
X26705D01*
X26723Y12048D01*
X26740Y12051D01*
X26754Y12055D01*
X26765Y12060D01*
X26775Y12064D01*
X26784Y12068D01*
X26788Y12071D01*
X26789Y12072D01*
X26801Y12082D01*
X26812Y12095D01*
X26820Y12107D01*
X26826Y12119D01*
X26832Y12130D01*
X26836Y12138D01*
X26837Y12144D01*
X26839Y12147D01*
X26841Y12162D01*
X26844Y12182D01*
X26846Y12202D01*
X26847Y12222D01*
X26848Y12240D01*
Y12480D01*
D02*
G37*
G36*
X27300D02*
X26964D01*
Y12223D01*
X26967Y12193D01*
X26970Y12169D01*
X26973Y12150D01*
X26975Y12134D01*
X26978Y12122D01*
X26980Y12116D01*
X26981Y12113D01*
X26988Y12095D01*
X26997Y12079D01*
X27006Y12065D01*
X27016Y12054D01*
X27025Y12045D01*
X27032Y12040D01*
X27037Y12036D01*
X27039Y12034D01*
X27054Y12024D01*
X27070Y12017D01*
X27085Y12012D01*
X27099Y12009D01*
X27112Y12006D01*
X27123Y12005D01*
X27129D01*
X27132D01*
X27149Y12006D01*
X27166Y12007D01*
X27180Y12010D01*
X27191Y12014D01*
X27201Y12019D01*
X27209Y12021D01*
X27214Y12023D01*
X27215Y12024D01*
X27228Y12033D01*
X27239Y12040D01*
X27247Y12050D01*
X27256Y12057D01*
X27262Y12064D01*
X27266Y12069D01*
X27269Y12074D01*
X27270Y12075D01*
X27281Y12099D01*
X27290Y12123D01*
X27293Y12133D01*
X27294Y12141D01*
X27295Y12147D01*
Y12148D01*
X27297Y12160D01*
X27298Y12172D01*
X27300Y12202D01*
Y12480D01*
D02*
G37*
G36*
X27013Y11521D02*
X26729Y11415D01*
X26693Y11403D01*
X26660Y11393D01*
X26629Y11383D01*
X26600Y11376D01*
X26576Y11370D01*
X26567Y11367D01*
X26557Y11366D01*
X26551Y11363D01*
X26545D01*
X26543Y11362D01*
X26541D01*
X26574Y11352D01*
X26607Y11341D01*
X26641Y11329D01*
X26674Y11318D01*
X26688Y11312D01*
X26702Y11308D01*
X26715Y11304D01*
X26724Y11300D01*
X26733Y11297D01*
X26740Y11294D01*
X26744Y11293D01*
X26746D01*
X27013Y11191D01*
Y11521D01*
D02*
G37*
G36*
Y9474D02*
X26729Y9368D01*
X26693Y9356D01*
X26660Y9346D01*
X26629Y9336D01*
X26600Y9329D01*
X26576Y9323D01*
X26567Y9320D01*
X26557Y9319D01*
X26551Y9316D01*
X26545D01*
X26543Y9315D01*
X26541D01*
X26574Y9305D01*
X26607Y9294D01*
X26641Y9282D01*
X26674Y9271D01*
X26688Y9266D01*
X26702Y9261D01*
X26715Y9257D01*
X26724Y9253D01*
X26733Y9250D01*
X26740Y9247D01*
X26744Y9246D01*
X26746D01*
X27013Y9144D01*
Y9474D01*
D02*
G37*
G36*
X26848Y8614D02*
X26555D01*
Y8383D01*
X26558Y8352D01*
X26560Y8328D01*
X26562Y8307D01*
X26565Y8291D01*
X26567Y8282D01*
X26569Y8274D01*
Y8273D01*
X26575Y8258D01*
X26583Y8243D01*
X26592Y8232D01*
X26600Y8222D01*
X26607Y8215D01*
X26614Y8210D01*
X26619Y8207D01*
X26620Y8205D01*
X26634Y8197D01*
X26648Y8191D01*
X26662Y8187D01*
X26677Y8184D01*
X26688Y8183D01*
X26696Y8181D01*
X26702D01*
X26705D01*
X26723Y8183D01*
X26740Y8186D01*
X26754Y8190D01*
X26765Y8194D01*
X26775Y8198D01*
X26784Y8203D01*
X26788Y8205D01*
X26789Y8207D01*
X26801Y8217D01*
X26812Y8229D01*
X26820Y8242D01*
X26826Y8253D01*
X26832Y8265D01*
X26836Y8273D01*
X26837Y8279D01*
X26839Y8282D01*
X26841Y8297D01*
X26844Y8317D01*
X26846Y8337D01*
X26847Y8356D01*
X26848Y8375D01*
Y8614D01*
D02*
G37*
G36*
X27300D02*
X26964D01*
Y8358D01*
X26967Y8328D01*
X26970Y8304D01*
X26973Y8284D01*
X26975Y8269D01*
X26978Y8256D01*
X26980Y8251D01*
X26981Y8248D01*
X26988Y8229D01*
X26997Y8214D01*
X27006Y8200D01*
X27016Y8189D01*
X27025Y8180D01*
X27032Y8174D01*
X27037Y8170D01*
X27039Y8169D01*
X27054Y8159D01*
X27070Y8152D01*
X27085Y8146D01*
X27099Y8143D01*
X27112Y8141D01*
X27123Y8139D01*
X27129D01*
X27132D01*
X27149Y8141D01*
X27166Y8142D01*
X27180Y8145D01*
X27191Y8149D01*
X27201Y8153D01*
X27209Y8156D01*
X27214Y8157D01*
X27215Y8159D01*
X27228Y8167D01*
X27239Y8174D01*
X27247Y8184D01*
X27256Y8191D01*
X27262Y8198D01*
X27266Y8204D01*
X27269Y8208D01*
X27270Y8210D01*
X27281Y8234D01*
X27290Y8258D01*
X27293Y8267D01*
X27294Y8276D01*
X27295Y8282D01*
Y8283D01*
X27297Y8294D01*
X27298Y8307D01*
X27300Y8337D01*
Y8614D01*
D02*
G37*
G36*
X19192Y8179D02*
X19178D01*
X19167D01*
X19161D01*
X19158D01*
X19086Y8176D01*
X19019Y8167D01*
X18958Y8156D01*
X18903Y8142D01*
X18858Y8129D01*
X18839Y8123D01*
X18825Y8117D01*
X18811Y8112D01*
X18803Y8109D01*
X18797Y8106D01*
X18795D01*
X18734Y8076D01*
X18675Y8042D01*
X18625Y8009D01*
X18581Y7979D01*
X18545Y7951D01*
X18526Y7934D01*
X18636Y7823D01*
Y7695D01*
X18839Y7493D01*
X18850Y7479D01*
X18853Y7473D01*
X18856D01*
X18860Y7471D01*
X19048Y7284D01*
X19028Y7279D01*
X19003Y7276D01*
X18981Y7273D01*
X18964D01*
X18950D01*
X18947D01*
X18906Y7276D01*
X18867Y7282D01*
X18833Y7290D01*
X18806Y7298D01*
X18781Y7307D01*
X18764Y7315D01*
X18753Y7321D01*
X18750Y7323D01*
X18725Y7340D01*
X18703Y7362D01*
X18686Y7382D01*
X18672Y7401D01*
X18661Y7418D01*
X18656Y7432D01*
X18650Y7443D01*
Y7446D01*
X18645Y7468D01*
X18642Y7496D01*
X18639Y7529D01*
Y7565D01*
X18636Y7598D01*
Y7695D01*
X18462Y7870D01*
X18495Y7906D01*
X18498D01*
X18500Y7912D01*
X18517Y7926D01*
X18526Y7934D01*
X18461Y7998D01*
X18395Y7937D01*
X18462Y7870D01*
X18450Y7856D01*
X18409Y7806D01*
X18375Y7757D01*
X18348Y7709D01*
X18325Y7668D01*
X18309Y7634D01*
X18303Y7623D01*
X18298Y7615D01*
X18295Y7609D01*
Y7607D01*
X18270Y7540D01*
X18250Y7476D01*
X18239Y7415D01*
X18228Y7357D01*
X18223Y7310D01*
Y7290D01*
X18220Y7273D01*
Y7240D01*
X18223Y7168D01*
X18231Y7101D01*
X18245Y7037D01*
X18256Y6985D01*
X18270Y6938D01*
X18278Y6918D01*
X18284Y6904D01*
X18287Y6890D01*
X18292Y6882D01*
X18295Y6876D01*
Y6874D01*
X18325Y6810D01*
X18356Y6754D01*
X18389Y6702D01*
X18423Y6657D01*
X18450Y6624D01*
X18473Y6596D01*
X18489Y6579D01*
X18492Y6574D01*
X18495D01*
X18545Y6529D01*
X18595Y6491D01*
X18645Y6457D01*
X18692Y6429D01*
X18734Y6407D01*
X18767Y6391D01*
X18778Y6385D01*
X18786Y6380D01*
X18792Y6377D01*
X18795D01*
X18858Y6352D01*
X18922Y6332D01*
X18983Y6321D01*
X19039Y6310D01*
X19089Y6305D01*
X19108D01*
X19125Y6302D01*
X19139D01*
X19150D01*
X19156D01*
X19158D01*
X19230Y6305D01*
X19297Y6313D01*
X19358Y6327D01*
X19414Y6338D01*
X19461Y6352D01*
X19478Y6360D01*
X19494Y6366D01*
X19508Y6368D01*
X19516Y6374D01*
X19522Y6377D01*
X19525D01*
X19586Y6405D01*
X19644Y6438D01*
X19694Y6471D01*
X19739Y6502D01*
X19775Y6529D01*
X19789Y6543D01*
X19628Y6703D01*
X19633Y6710D01*
X19650Y6740D01*
X19661Y6774D01*
X19663Y6799D01*
X19301Y7160D01*
X19647D01*
Y7007D01*
X19539D01*
X19561Y6990D01*
X19580Y6976D01*
X19597Y6960D01*
X19608Y6946D01*
X19619Y6935D01*
X19625Y6926D01*
X19627Y6921D01*
X19630Y6918D01*
X19641Y6899D01*
X19650Y6876D01*
X19658Y6843D01*
X19661Y6829D01*
X19664Y6818D01*
Y6810D01*
X19663Y6799D01*
X19855Y6608D01*
X19825Y6574D01*
X19822Y6571D01*
X19819Y6568D01*
X19802Y6554D01*
X19789Y6543D01*
X19855Y6477D01*
X19922Y6541D01*
X19855Y6608D01*
X19869Y6624D01*
X19908Y6674D01*
X19944Y6724D01*
X19972Y6771D01*
X19994Y6813D01*
X20002Y6829D01*
X20011Y6843D01*
X20016Y6857D01*
X20022Y6865D01*
X20024Y6871D01*
Y6874D01*
X20049Y6938D01*
X20066Y7004D01*
X20080Y7065D01*
X20088Y7121D01*
X20094Y7171D01*
Y7190D01*
X20097Y7207D01*
Y7240D01*
X20094Y7310D01*
X20086Y7379D01*
X20074Y7440D01*
X20061Y7496D01*
X20047Y7540D01*
X20041Y7559D01*
X20036Y7576D01*
X20030Y7590D01*
X20027Y7598D01*
X20024Y7604D01*
Y7607D01*
X19994Y7668D01*
X19961Y7726D01*
X19927Y7776D01*
X19897Y7820D01*
X19869Y7856D01*
X19844Y7884D01*
X19830Y7901D01*
X19825Y7904D01*
Y7906D01*
X19775Y7951D01*
X19725Y7990D01*
X19675Y8026D01*
X19627Y8054D01*
X19586Y8076D01*
X19553Y8092D01*
X19541Y8098D01*
X19533Y8104D01*
X19528Y8106D01*
X19525D01*
X19458Y8131D01*
X19394Y8148D01*
X19333Y8162D01*
X19278Y8170D01*
X19228Y8176D01*
X19208D01*
X19192Y8179D01*
D02*
G37*
%LPD*%
G36*
X19647Y7754D02*
X19261D01*
Y7598D01*
X19258Y7559D01*
Y7529D01*
X19255Y7504D01*
X19253Y7484D01*
Y7473D01*
X19250Y7465D01*
Y7462D01*
X19236Y7426D01*
X19222Y7398D01*
X19214Y7387D01*
X19208Y7379D01*
X19203Y7376D01*
Y7373D01*
X19169Y7343D01*
X19140Y7321D01*
X19301Y7160D01*
X19172D01*
X19337Y6995D01*
X19353Y6993D01*
X19383Y6988D01*
X19411Y6979D01*
X19436Y6968D01*
X19439Y6965D01*
X19447Y6960D01*
X19461Y6951D01*
X19475Y6938D01*
X19489Y6924D01*
X19500Y6901D01*
X19508Y6879D01*
Y6843D01*
X19505Y6835D01*
X19504Y6828D01*
X19628Y6703D01*
X19614Y6682D01*
X19597Y6663D01*
X19580Y6646D01*
X19569Y6635D01*
X19564Y6632D01*
X19522Y6607D01*
X19475Y6588D01*
X19428Y6574D01*
X19380Y6563D01*
X19339Y6557D01*
X19322D01*
X19305Y6554D01*
X19292D01*
X19283D01*
X19278D01*
X19275D01*
X19208Y6557D01*
X19153Y6566D01*
X19106Y6579D01*
X19064Y6591D01*
X19033Y6604D01*
X19011Y6618D01*
X19000Y6627D01*
X18994Y6629D01*
X18961Y6657D01*
X18939Y6688D01*
X18922Y6718D01*
X18908Y6746D01*
X18903Y6774D01*
X18900Y6793D01*
X18897Y6807D01*
Y6813D01*
X18900Y6851D01*
X18911Y6885D01*
X18928Y6918D01*
X18947Y6943D01*
X18967Y6965D01*
X18983Y6982D01*
X18994Y6993D01*
X19000Y6996D01*
X18636D01*
Y7160D01*
X19172D01*
X19048Y7284D01*
X19053Y7285D01*
X19078Y7293D01*
X19103Y7301D01*
X19106D01*
X19114Y7307D01*
X19125Y7312D01*
X19139Y7321D01*
X19140Y7321D01*
X19002Y7459D01*
X19006Y7459D01*
X19022Y7465D01*
X19025Y7468D01*
X19028D01*
X19050Y7487D01*
X19064Y7507D01*
X19075Y7521D01*
X19078Y7523D01*
Y7526D01*
X19083Y7540D01*
X19086Y7557D01*
X19089Y7579D01*
Y7604D01*
X19092Y7626D01*
Y7754D01*
X18808D01*
Y7652D01*
X19002Y7459D01*
X18983Y7454D01*
X18950Y7451D01*
X18947D01*
X18942D01*
X18931D01*
X18920Y7454D01*
X18889Y7459D01*
X18860Y7471D01*
X18839Y7493D01*
X18825Y7518D01*
X18814Y7548D01*
Y7551D01*
X18811Y7559D01*
X18808Y7576D01*
Y7652D01*
X18636Y7823D01*
Y7929D01*
X19647D01*
Y7754D01*
D02*
G37*
%LPC*%
G36*
X19280Y7001D02*
X19267D01*
X19261D01*
X19225Y6999D01*
X19192Y6993D01*
X19164Y6988D01*
X19142Y6979D01*
X19122Y6971D01*
X19111Y6963D01*
X19103Y6960D01*
X19100Y6957D01*
X19083Y6943D01*
X19072Y6929D01*
X19061Y6913D01*
X19056Y6896D01*
X19053Y6879D01*
X19050Y6868D01*
Y6857D01*
X19053Y6835D01*
X19058Y6815D01*
X19067Y6801D01*
X19075Y6788D01*
X19083Y6777D01*
X19092Y6768D01*
X19097Y6765D01*
X19100Y6763D01*
X19125Y6749D01*
X19153Y6738D01*
X19183Y6732D01*
X19211Y6727D01*
X19239Y6724D01*
X19261Y6721D01*
X19278D01*
X19280D01*
X19283D01*
X19328Y6724D01*
X19364Y6729D01*
X19392Y6735D01*
X19416Y6743D01*
X19433Y6749D01*
X19447Y6757D01*
X19453Y6760D01*
X19455Y6763D01*
X19472Y6777D01*
X19486Y6793D01*
X19494Y6807D01*
X19503Y6821D01*
X19504Y6828D01*
X19337Y6995D01*
X19325Y6996D01*
X19300Y6999D01*
X19280Y7001D01*
D02*
G37*
G36*
X18911Y4870D02*
X18908D01*
X18903Y4865D01*
X18892Y4859D01*
X18878Y4851D01*
X18845Y4829D01*
X18825Y4812D01*
X18806Y4795D01*
X18786Y4773D01*
X18770Y4748D01*
X18750Y4723D01*
X18736Y4693D01*
X18722Y4659D01*
X18711Y4623D01*
X18706Y4582D01*
X18703Y4540D01*
Y4523D01*
X18706Y4507D01*
X18709Y4482D01*
X18714Y4454D01*
X18725Y4426D01*
X18736Y4393D01*
X18753Y4362D01*
X18756Y4357D01*
X18764Y4346D01*
X18778Y4329D01*
X18795Y4307D01*
X18820Y4285D01*
X18845Y4262D01*
X18875Y4240D01*
X18911Y4221D01*
Y4870D01*
D02*
G37*
%LPD*%
D11*
X24810Y19406D02*
X30810D01*
Y1406D02*
Y19406D01*
X24810Y1406D02*
X30810D01*
X24810D02*
Y19406D01*
D13*
X39763Y15570D02*
G03*
X39763Y15570I-4000J0D01*
G01*
X39738Y4394D02*
G03*
X39738Y4394I-4000J0D01*
G01*
X14287Y15570D02*
G03*
X14287Y15570I-4000J0D01*
G01*
X14287Y4394D02*
G03*
X14287Y4394I-4000J0D01*
G01*
M02*
