G04*
G04 #@! TF.GenerationSoftware,Altium Limited,Altium Designer,25.6.2 (33)*
G04*
G04 Layer_Color=8421504*
%FSLAX24Y24*%
%MOIN*%
G70*
G04*
G04 #@! TF.SameCoordinates,7B414DDB-1E05-4FB0-9552-6D707E6C9701*
G04*
G04*
G04 #@! TF.FilePolarity,Positive*
G04*
G01*
G75*
%ADD21O,0.0669X0.0354*%
%ADD22O,0.0787X0.0354*%
G04:AMPARAMS|DCode=23|XSize=43.3mil|YSize=39.4mil|CornerRadius=3mil|HoleSize=0mil|Usage=FLASHONLY|Rotation=180.000|XOffset=0mil|YOffset=0mil|HoleType=Round|Shape=RoundedRectangle|*
%AMROUNDEDRECTD23*
21,1,0.0433,0.0335,0,0,180.0*
21,1,0.0374,0.0394,0,0,180.0*
1,1,0.0059,-0.0187,0.0167*
1,1,0.0059,0.0187,0.0167*
1,1,0.0059,0.0187,-0.0167*
1,1,0.0059,-0.0187,-0.0167*
%
%ADD23ROUNDEDRECTD23*%
%ADD24R,0.0295X0.0118*%
%ADD25R,0.2697X0.0708*%
%ADD26R,0.0177X0.0276*%
%ADD27R,0.0484X0.0366*%
%ADD28R,0.0591X0.0394*%
%ADD29R,0.2697X0.0453*%
%ADD30R,0.0276X0.0276*%
%ADD31R,0.0177X0.0118*%
%ADD32R,0.0118X0.0177*%
%ADD33R,0.0118X0.0118*%
%ADD34R,0.0630X0.0630*%
%ADD35R,0.0630X0.0768*%
%ADD36R,0.0236X0.0079*%
%ADD37R,0.0106X0.0118*%
%ADD38R,0.0118X0.0106*%
%ADD39R,0.0256X0.0197*%
%ADD40R,0.0531X0.0453*%
%ADD41R,0.0295X0.0315*%
%ADD42R,0.0177X0.0165*%
%ADD43R,0.0362X0.0280*%
%ADD44R,0.1378X0.1378*%
%ADD45O,0.0335X0.0118*%
%ADD46O,0.0118X0.0335*%
%ADD47R,0.0315X0.0295*%
%ADD48R,0.0445X0.0717*%
%ADD49R,0.0717X0.0445*%
%ADD50R,0.0236X0.0197*%
%ADD51R,0.0449X0.0236*%
%ADD52R,0.0449X0.0118*%
%ADD53C,0.0098*%
%ADD54C,0.0167*%
%ADD55R,0.0335X0.0374*%
%ADD56O,0.0071X0.0240*%
%ADD57O,0.0240X0.0071*%
%ADD58R,0.0197X0.0197*%
%ADD59R,0.0394X0.0630*%
%ADD60R,0.1083X0.0551*%
%ADD61R,0.0256X0.0138*%
%ADD62R,0.0157X0.0276*%
%ADD63R,0.0157X0.0098*%
%ADD64R,0.0276X0.0157*%
%ADD65R,0.0098X0.0157*%
%ADD66R,0.0500X0.1252*%
%ADD67R,0.0299X0.0945*%
%ADD68R,0.1500X0.0500*%
%ADD69R,0.1252X0.0500*%
%ADD70R,0.0402X0.0862*%
%ADD71R,0.0945X0.0299*%
%ADD72R,0.1130X0.0400*%
%ADD73R,0.0300X0.0320*%
%ADD74R,0.0295X0.0472*%
%ADD75R,0.0276X0.0827*%
%ADD76R,0.0256X0.0472*%
%ADD77C,0.0394*%
%ADD78R,0.0098X0.0276*%
%ADD79R,0.0098X0.0236*%
%ADD80R,0.0197X0.0236*%
%ADD81R,0.0157X0.0374*%
G36*
X4724Y13011D02*
X4882D01*
Y12933D01*
X4646D01*
Y13090D01*
X4724D01*
Y13011D01*
D02*
G37*
G36*
X4488Y12933D02*
X4252D01*
Y13011D01*
X4409D01*
Y13090D01*
X4488D01*
Y12933D01*
D02*
G37*
G36*
X4882Y12342D02*
X4724D01*
Y12263D01*
X4646D01*
Y12421D01*
X4882D01*
Y12342D01*
D02*
G37*
G36*
X4488Y12263D02*
X4409D01*
Y12342D01*
X4252D01*
Y12421D01*
X4488D01*
Y12263D01*
D02*
G37*
G36*
X46634Y11968D02*
X46535Y11870D01*
X46358D01*
Y12145D01*
X46634D01*
X46634Y11968D01*
D02*
G37*
G36*
X3681Y2124D02*
X3617Y2061D01*
X3287Y2061D01*
Y2691D01*
X3681D01*
X3681Y2124D01*
D02*
G37*
G36*
X1713Y2061D02*
X1383Y2061D01*
X1319Y2124D01*
X1319Y2691D01*
X1713D01*
Y2061D01*
D02*
G37*
G36*
X3617Y1746D02*
X3681Y1682D01*
X3681Y1116D01*
X3287D01*
Y1746D01*
X3617Y1746D01*
D02*
G37*
G36*
X1713Y1116D02*
X1319D01*
X1319Y1682D01*
X1383Y1746D01*
X1713Y1746D01*
Y1116D01*
D02*
G37*
D21*
X1659Y14183D02*
D03*
Y10781D02*
D03*
D22*
X3305D02*
D03*
Y14183D02*
D03*
D23*
X9124Y10968D02*
D03*
Y10495D02*
D03*
X9636D02*
D03*
Y10968D02*
D03*
Y11440D02*
D03*
X9124Y11913D02*
D03*
Y11440D02*
D03*
X9636Y11913D02*
D03*
X10148Y10495D02*
D03*
Y10968D02*
D03*
X10659Y10495D02*
D03*
Y10968D02*
D03*
X10148Y11440D02*
D03*
Y11913D02*
D03*
X10659Y11440D02*
D03*
Y11913D02*
D03*
D24*
X33376Y7106D02*
D03*
X33711D02*
D03*
D25*
X57018Y8881D02*
D03*
X57018Y5730D02*
D03*
X57018Y19272D02*
D03*
X57018Y16121D02*
D03*
D26*
X46447Y12007D02*
D03*
D27*
X30613Y14672D02*
D03*
X31177Y14673D02*
D03*
X31738Y14673D02*
D03*
X30613Y15117D02*
D03*
X31176Y15117D02*
D03*
X31739Y15118D02*
D03*
X30614Y15563D02*
D03*
X31176Y15563D02*
D03*
X31739Y15563D02*
D03*
D28*
X55138Y7306D02*
D03*
Y17696D02*
D03*
D29*
X57018Y5662D02*
D03*
Y8949D02*
D03*
Y16053D02*
D03*
Y19340D02*
D03*
D30*
X46496Y8070D02*
D03*
X50827D02*
D03*
Y12007D02*
D03*
D31*
X50876Y8366D02*
D03*
Y8563D02*
D03*
Y8759D02*
D03*
Y8956D02*
D03*
Y9153D02*
D03*
Y11515D02*
D03*
Y10728D02*
D03*
Y11319D02*
D03*
Y11122D02*
D03*
Y10531D02*
D03*
Y10137D02*
D03*
Y9941D02*
D03*
Y9744D02*
D03*
Y9547D02*
D03*
Y9350D02*
D03*
Y10925D02*
D03*
Y11712D02*
D03*
Y10334D02*
D03*
X46447Y8563D02*
D03*
Y8956D02*
D03*
Y9153D02*
D03*
Y8760D02*
D03*
Y9350D02*
D03*
Y9547D02*
D03*
Y9744D02*
D03*
Y9941D02*
D03*
X46447Y8366D02*
D03*
X46447Y10138D02*
D03*
Y10334D02*
D03*
Y10531D02*
D03*
Y10728D02*
D03*
Y10925D02*
D03*
Y11122D02*
D03*
Y11319D02*
D03*
Y11515D02*
D03*
Y11712D02*
D03*
D32*
X50532Y8021D02*
D03*
X50335D02*
D03*
X50138D02*
D03*
X49941D02*
D03*
X49744D02*
D03*
X49547D02*
D03*
X49350D02*
D03*
X49154D02*
D03*
X48957D02*
D03*
X50531Y12057D02*
D03*
X50335D02*
D03*
X50138D02*
D03*
X49941D02*
D03*
X49744D02*
D03*
X49547D02*
D03*
X49350D02*
D03*
X49154D02*
D03*
X48760Y8021D02*
D03*
X48563D02*
D03*
X48366D02*
D03*
X48169D02*
D03*
X47972D02*
D03*
X47776D02*
D03*
X47579D02*
D03*
X47382D02*
D03*
X47185D02*
D03*
X46988D02*
D03*
X46791D02*
D03*
X48957Y12057D02*
D03*
X48760D02*
D03*
X48563D02*
D03*
X48366D02*
D03*
X48169D02*
D03*
X47972D02*
D03*
X47776D02*
D03*
X47579D02*
D03*
X47382D02*
D03*
X47185D02*
D03*
X46988D02*
D03*
X46791D02*
D03*
D33*
X50276Y8700D02*
D03*
Y8917D02*
D03*
Y9133D02*
D03*
Y10039D02*
D03*
Y9822D02*
D03*
Y11161D02*
D03*
Y10944D02*
D03*
Y11378D02*
D03*
Y10256D02*
D03*
X48878Y9193D02*
D03*
X48661D02*
D03*
X48445D02*
D03*
X47047Y8700D02*
D03*
Y8917D02*
D03*
Y9133D02*
D03*
Y9822D02*
D03*
Y10039D02*
D03*
X48878Y10885D02*
D03*
X48661D02*
D03*
X48445D02*
D03*
X47047Y10256D02*
D03*
Y10944D02*
D03*
Y11161D02*
D03*
Y11378D02*
D03*
D34*
X49783Y8917D02*
D03*
Y10039D02*
D03*
Y11161D02*
D03*
X48661Y10039D02*
D03*
X47539Y8917D02*
D03*
Y10039D02*
D03*
Y11161D02*
D03*
D35*
X48661Y8631D02*
D03*
Y11446D02*
D03*
D36*
X4370Y12775D02*
D03*
X4764D02*
D03*
X4370Y12578D02*
D03*
X4764D02*
D03*
D37*
X52486Y12866D02*
D03*
X52262D02*
D03*
X5048Y4252D02*
D03*
X4824D02*
D03*
X7204Y5313D02*
D03*
X6979D02*
D03*
X5555Y7076D02*
D03*
X5331D02*
D03*
X7204Y5628D02*
D03*
X6979D02*
D03*
X4100Y11417D02*
D03*
X4325D02*
D03*
X4207Y13189D02*
D03*
X3982D02*
D03*
X4207Y11811D02*
D03*
X3982D02*
D03*
X25742Y11240D02*
D03*
X25518D02*
D03*
X22356Y16870D02*
D03*
X22132D02*
D03*
X36030Y7756D02*
D03*
X36254D02*
D03*
X36707D02*
D03*
X36482D02*
D03*
X41665Y13386D02*
D03*
X41889D02*
D03*
X41665Y12806D02*
D03*
X41889D02*
D03*
X41665Y12226D02*
D03*
X41889D02*
D03*
X41665Y11646D02*
D03*
X41889D02*
D03*
X39810Y12676D02*
D03*
X40035D02*
D03*
X39810Y12356D02*
D03*
X40035D02*
D03*
X39810Y12036D02*
D03*
X40035D02*
D03*
X41795Y21004D02*
D03*
X42020D02*
D03*
X42460D02*
D03*
X42235D02*
D03*
X41800Y23070D02*
D03*
X42024D02*
D03*
X42464D02*
D03*
X42240D02*
D03*
X43470Y21208D02*
D03*
X43694D02*
D03*
X41108D02*
D03*
X41332D02*
D03*
X43470Y23275D02*
D03*
X43694D02*
D03*
X41108D02*
D03*
X41332D02*
D03*
X33834Y13650D02*
D03*
X33609D02*
D03*
X13350Y9252D02*
D03*
X13126D02*
D03*
X8124Y9813D02*
D03*
X7900D02*
D03*
X11846Y9196D02*
D03*
X12071D02*
D03*
X11846Y9550D02*
D03*
X12071D02*
D03*
X11846Y9787D02*
D03*
X12071D02*
D03*
X7622Y10738D02*
D03*
X7398D02*
D03*
X7622Y10505D02*
D03*
X7398D02*
D03*
X7583Y11519D02*
D03*
X7358D02*
D03*
X7583Y11755D02*
D03*
X7358D02*
D03*
X24848Y16880D02*
D03*
X25073D02*
D03*
X25764Y18819D02*
D03*
X25988D02*
D03*
X11610Y10846D02*
D03*
X11835D02*
D03*
X43014Y6496D02*
D03*
X43238D02*
D03*
X51766Y10315D02*
D03*
X51541D02*
D03*
X51766Y10669D02*
D03*
X51541D02*
D03*
X45793Y10157D02*
D03*
X46018D02*
D03*
X34758Y7972D02*
D03*
X34533D02*
D03*
X38942Y11886D02*
D03*
X39166D02*
D03*
X23077Y17500D02*
D03*
X23301D02*
D03*
X23313Y10029D02*
D03*
X23537D02*
D03*
X33401Y13650D02*
D03*
X33176D02*
D03*
X40633Y9974D02*
D03*
X40408D02*
D03*
X40792Y15102D02*
D03*
X41017D02*
D03*
X6234Y9941D02*
D03*
X6010D02*
D03*
X34079Y6466D02*
D03*
X33854D02*
D03*
X13126Y9488D02*
D03*
X13350D02*
D03*
X10299Y12897D02*
D03*
X10523D02*
D03*
X11531Y12825D02*
D03*
X11756D02*
D03*
X11835Y11332D02*
D03*
X11610D02*
D03*
X8124Y10220D02*
D03*
X7900D02*
D03*
X7900Y11155D02*
D03*
X8124D02*
D03*
D38*
X53260Y11494D02*
D03*
Y11718D02*
D03*
X5640Y9364D02*
D03*
Y9139D02*
D03*
X5837Y8431D02*
D03*
Y8655D02*
D03*
X571Y6332D02*
D03*
Y6108D02*
D03*
Y6954D02*
D03*
Y7179D02*
D03*
X1969Y7368D02*
D03*
Y7592D02*
D03*
Y6307D02*
D03*
Y6082D02*
D03*
X571Y7612D02*
D03*
Y7387D02*
D03*
Y5899D02*
D03*
Y5675D02*
D03*
X4016Y7238D02*
D03*
Y7013D02*
D03*
X4240Y7241D02*
D03*
Y7016D02*
D03*
X4857Y7284D02*
D03*
Y7060D02*
D03*
X4621Y7284D02*
D03*
Y7060D02*
D03*
X2491Y6050D02*
D03*
Y5825D02*
D03*
X4449Y11096D02*
D03*
Y10872D02*
D03*
X19242Y6905D02*
D03*
Y7130D02*
D03*
X21112Y7946D02*
D03*
Y7722D02*
D03*
X21959Y8864D02*
D03*
Y9088D02*
D03*
X22323Y9088D02*
D03*
Y8864D02*
D03*
X19400Y16098D02*
D03*
Y16322D02*
D03*
X13258Y15348D02*
D03*
Y15124D02*
D03*
X7638Y10006D02*
D03*
Y10230D02*
D03*
X7411Y10006D02*
D03*
Y10230D02*
D03*
X42145Y13514D02*
D03*
Y13738D02*
D03*
X40982Y11888D02*
D03*
Y11664D02*
D03*
X42145Y12934D02*
D03*
Y13158D02*
D03*
Y12354D02*
D03*
Y12578D02*
D03*
Y11774D02*
D03*
Y11998D02*
D03*
X41212Y11888D02*
D03*
Y11664D02*
D03*
X39695Y13972D02*
D03*
Y14196D02*
D03*
X34253Y14657D02*
D03*
Y14433D02*
D03*
X12106Y8576D02*
D03*
Y8352D02*
D03*
X12638Y15104D02*
D03*
Y15328D02*
D03*
X10020Y13828D02*
D03*
Y14052D02*
D03*
X9547Y13828D02*
D03*
Y14052D02*
D03*
X9311Y13828D02*
D03*
Y14052D02*
D03*
X7333Y13439D02*
D03*
Y13214D02*
D03*
X19213Y6305D02*
D03*
Y6529D02*
D03*
X19646D02*
D03*
Y6305D02*
D03*
X9911Y8609D02*
D03*
Y8385D02*
D03*
X9646Y8609D02*
D03*
Y8385D02*
D03*
X10571Y8609D02*
D03*
Y8385D02*
D03*
X42801Y5950D02*
D03*
Y6175D02*
D03*
X45354Y10624D02*
D03*
Y10399D02*
D03*
X10906Y15065D02*
D03*
Y15289D02*
D03*
X21112Y7210D02*
D03*
Y7435D02*
D03*
X26378Y17506D02*
D03*
Y17730D02*
D03*
X4104Y10761D02*
D03*
Y10537D02*
D03*
Y10970D02*
D03*
Y11194D02*
D03*
X41407Y13514D02*
D03*
Y13738D02*
D03*
Y12934D02*
D03*
Y13158D02*
D03*
Y12354D02*
D03*
Y12578D02*
D03*
Y11998D02*
D03*
Y11774D02*
D03*
X40522Y11664D02*
D03*
Y11888D02*
D03*
X29705Y16667D02*
D03*
Y16443D02*
D03*
X11506Y12184D02*
D03*
Y12409D02*
D03*
X10669Y9172D02*
D03*
Y9397D02*
D03*
X11831Y11936D02*
D03*
Y11712D02*
D03*
X9381Y9172D02*
D03*
Y9397D02*
D03*
X8120Y11978D02*
D03*
Y12202D02*
D03*
X45591Y10399D02*
D03*
Y10624D02*
D03*
X49370Y12683D02*
D03*
Y12907D02*
D03*
X43917Y12653D02*
D03*
Y12878D02*
D03*
X44957Y9376D02*
D03*
Y9600D02*
D03*
D39*
X53191Y12866D02*
D03*
X52817D02*
D03*
D40*
X8150Y6643D02*
D03*
Y6033D02*
D03*
X8554Y4565D02*
D03*
Y3955D02*
D03*
X3357Y5825D02*
D03*
Y6435D02*
D03*
D41*
X6624Y4212D02*
D03*
X1622Y4820D02*
D03*
X2154D02*
D03*
X6093Y4212D02*
D03*
X7550Y5510D02*
D03*
X8082D02*
D03*
X46014Y9370D02*
D03*
X45482D02*
D03*
X45541Y10078D02*
D03*
X45010D02*
D03*
D42*
X982Y7362D02*
D03*
Y7106D02*
D03*
Y6850D02*
D03*
X1695D02*
D03*
Y7106D02*
D03*
Y7362D02*
D03*
X982Y6082D02*
D03*
Y5826D02*
D03*
Y5570D02*
D03*
X1695D02*
D03*
Y5826D02*
D03*
Y6082D02*
D03*
D43*
X1339Y7293D02*
D03*
Y6919D02*
D03*
Y6013D02*
D03*
Y5639D02*
D03*
D44*
X4931Y5580D02*
D03*
D45*
X5896Y4891D02*
D03*
Y5285D02*
D03*
Y5482D02*
D03*
Y5679D02*
D03*
Y6072D02*
D03*
Y6269D02*
D03*
X3967D02*
D03*
Y6072D02*
D03*
Y5876D02*
D03*
Y5679D02*
D03*
Y5482D02*
D03*
Y5285D02*
D03*
Y5088D02*
D03*
Y4891D02*
D03*
X5896Y5876D02*
D03*
Y5088D02*
D03*
D46*
X5620Y6545D02*
D03*
X5423D02*
D03*
X5226D02*
D03*
X5030D02*
D03*
X4833D02*
D03*
X4636D02*
D03*
X4439D02*
D03*
X4242D02*
D03*
Y4616D02*
D03*
X4439D02*
D03*
X4636D02*
D03*
X4833D02*
D03*
X5030D02*
D03*
X5226D02*
D03*
X5423D02*
D03*
X5620D02*
D03*
D47*
X6625Y5235D02*
D03*
Y4703D02*
D03*
X9131Y4546D02*
D03*
Y4015D02*
D03*
X6625Y7316D02*
D03*
Y6785D02*
D03*
X2806Y5353D02*
D03*
Y4821D02*
D03*
X6625Y5707D02*
D03*
Y6239D02*
D03*
X2806Y5865D02*
D03*
Y6396D02*
D03*
X8120Y13322D02*
D03*
Y13854D02*
D03*
X7677Y13322D02*
D03*
Y13854D02*
D03*
X45354Y8415D02*
D03*
Y7883D02*
D03*
D48*
X7873Y4723D02*
D03*
X7176D02*
D03*
D49*
X7333Y6755D02*
D03*
Y6059D02*
D03*
D50*
X3189Y4842D02*
D03*
X3583D02*
D03*
X4488Y13425D02*
D03*
X4882D02*
D03*
X3701Y14724D02*
D03*
X3307D02*
D03*
X3622Y10275D02*
D03*
X3228D02*
D03*
X9183Y13145D02*
D03*
X9577D02*
D03*
X9321Y13489D02*
D03*
X9715D02*
D03*
X11004Y13182D02*
D03*
X11398D02*
D03*
X10226Y13182D02*
D03*
X10620D02*
D03*
X47874Y7480D02*
D03*
X48268D02*
D03*
D51*
X3537Y11222D02*
D03*
Y11537D02*
D03*
Y13742D02*
D03*
Y13427D02*
D03*
D52*
Y11793D02*
D03*
Y11990D02*
D03*
Y12187D02*
D03*
Y12383D02*
D03*
Y12580D02*
D03*
Y12777D02*
D03*
Y12974D02*
D03*
Y13171D02*
D03*
D53*
X8711Y12306D02*
D03*
X8868D02*
D03*
X8553Y10338D02*
D03*
Y10180D02*
D03*
Y10495D02*
D03*
X8711Y10417D02*
D03*
X8553Y10810D02*
D03*
Y10653D02*
D03*
Y10968D02*
D03*
X8711Y10574D02*
D03*
Y10731D02*
D03*
Y10889D02*
D03*
Y11046D02*
D03*
X8789Y9944D02*
D03*
X8947D02*
D03*
X9104D02*
D03*
X9262D02*
D03*
X9419D02*
D03*
X9577D02*
D03*
X8711Y10102D02*
D03*
X8868D02*
D03*
X9183D02*
D03*
X9026D02*
D03*
X8711Y10259D02*
D03*
X9341Y10102D02*
D03*
X9498D02*
D03*
X8553Y11125D02*
D03*
Y11440D02*
D03*
Y11283D02*
D03*
Y11598D02*
D03*
Y11755D02*
D03*
Y12070D02*
D03*
Y11913D02*
D03*
Y12228D02*
D03*
X8711Y11204D02*
D03*
Y11676D02*
D03*
Y11361D02*
D03*
Y11519D02*
D03*
Y11834D02*
D03*
Y11991D02*
D03*
Y12149D02*
D03*
X9026Y12306D02*
D03*
X8947Y12464D02*
D03*
X9183Y12306D02*
D03*
X9498D02*
D03*
X9341D02*
D03*
X9577Y12464D02*
D03*
X9734Y9944D02*
D03*
X9892D02*
D03*
X10049D02*
D03*
X10207D02*
D03*
X10364D02*
D03*
X9656Y10102D02*
D03*
X9813D02*
D03*
X9970D02*
D03*
X10128D02*
D03*
X10285D02*
D03*
X10443D02*
D03*
X10522Y9944D02*
D03*
X10679D02*
D03*
X10758Y10102D02*
D03*
X10600D02*
D03*
X10837Y9944D02*
D03*
X10915Y10102D02*
D03*
X11073Y10180D02*
D03*
Y10653D02*
D03*
Y10338D02*
D03*
Y10495D02*
D03*
Y10810D02*
D03*
Y10968D02*
D03*
Y11125D02*
D03*
X9656Y12306D02*
D03*
X9813D02*
D03*
X9970D02*
D03*
X10128D02*
D03*
X10285D02*
D03*
X10443D02*
D03*
X9734Y12464D02*
D03*
X9892D02*
D03*
X10049D02*
D03*
X10207D02*
D03*
X10364D02*
D03*
X11073Y11283D02*
D03*
Y11598D02*
D03*
Y11440D02*
D03*
Y11755D02*
D03*
Y11913D02*
D03*
X10600Y12306D02*
D03*
X10758D02*
D03*
X10522Y12464D02*
D03*
X10679D02*
D03*
X11073Y12070D02*
D03*
Y12228D02*
D03*
X10915Y12306D02*
D03*
D54*
X8553Y9944D02*
D03*
Y12464D02*
D03*
X11073Y9944D02*
D03*
Y12464D02*
D03*
D55*
X12392Y13007D02*
D03*
X12844D02*
D03*
Y12436D02*
D03*
X12392D02*
D03*
D56*
X34449Y7588D02*
D03*
X34606D02*
D03*
X34764D02*
D03*
X34921D02*
D03*
Y6624D02*
D03*
X34764D02*
D03*
X34606D02*
D03*
X34449D02*
D03*
X39213Y12254D02*
D03*
X39055D02*
D03*
X38898D02*
D03*
X38740D02*
D03*
Y13218D02*
D03*
X38898D02*
D03*
X39055D02*
D03*
X39213D02*
D03*
X22448Y17254D02*
D03*
X22291D02*
D03*
X22133D02*
D03*
X21976D02*
D03*
Y17903D02*
D03*
X22133D02*
D03*
X22291D02*
D03*
X22448D02*
D03*
X22795Y9635D02*
D03*
X22953D02*
D03*
X23110D02*
D03*
X23268D02*
D03*
Y8671D02*
D03*
X23110D02*
D03*
X22953D02*
D03*
X22795D02*
D03*
X33780Y14035D02*
D03*
X33622D02*
D03*
X33465D02*
D03*
X33307D02*
D03*
Y15000D02*
D03*
X33465D02*
D03*
X33622D02*
D03*
X33780D02*
D03*
X40949Y10338D02*
D03*
X40791D02*
D03*
X40634D02*
D03*
X40476D02*
D03*
Y11302D02*
D03*
X40634D02*
D03*
X40791D02*
D03*
X40949D02*
D03*
X40476Y14737D02*
D03*
X40634D02*
D03*
X40791D02*
D03*
X40949D02*
D03*
Y13773D02*
D03*
X40791D02*
D03*
X40634D02*
D03*
X40476D02*
D03*
X11535Y15305D02*
D03*
X11693D02*
D03*
X11850D02*
D03*
X12008D02*
D03*
Y14655D02*
D03*
X11850D02*
D03*
X11693D02*
D03*
X11535D02*
D03*
X6772Y10324D02*
D03*
X6614D02*
D03*
X6457D02*
D03*
X6299D02*
D03*
Y11289D02*
D03*
X6457D02*
D03*
X6614D02*
D03*
X6772D02*
D03*
X20472Y6958D02*
D03*
X20315D02*
D03*
X20157D02*
D03*
X20000D02*
D03*
Y7608D02*
D03*
X20157D02*
D03*
X20315D02*
D03*
X20472D02*
D03*
X25748Y17254D02*
D03*
X25591D02*
D03*
X25433D02*
D03*
X25276D02*
D03*
Y17903D02*
D03*
X25433D02*
D03*
X25591D02*
D03*
X25748D02*
D03*
X40949Y12254D02*
D03*
X40791D02*
D03*
X40634D02*
D03*
X40476D02*
D03*
Y13218D02*
D03*
X40634D02*
D03*
X40791D02*
D03*
X40949D02*
D03*
D57*
X35010Y7342D02*
D03*
Y7185D02*
D03*
Y7027D02*
D03*
Y6870D02*
D03*
X34360D02*
D03*
Y7027D02*
D03*
Y7185D02*
D03*
Y7342D02*
D03*
X38652Y12500D02*
D03*
Y12657D02*
D03*
Y12815D02*
D03*
Y12972D02*
D03*
X39301D02*
D03*
Y12815D02*
D03*
Y12657D02*
D03*
Y12500D02*
D03*
X22694Y17815D02*
D03*
Y17657D02*
D03*
Y17500D02*
D03*
Y17342D02*
D03*
X21730D02*
D03*
Y17500D02*
D03*
Y17657D02*
D03*
Y17815D02*
D03*
X23356Y9389D02*
D03*
Y9232D02*
D03*
Y9074D02*
D03*
Y8917D02*
D03*
X22707D02*
D03*
Y9074D02*
D03*
Y9232D02*
D03*
Y9389D02*
D03*
X33219Y14281D02*
D03*
Y14439D02*
D03*
Y14596D02*
D03*
Y14754D02*
D03*
X33868D02*
D03*
Y14596D02*
D03*
Y14439D02*
D03*
Y14281D02*
D03*
X40388Y10584D02*
D03*
Y10741D02*
D03*
Y10899D02*
D03*
Y11056D02*
D03*
X41037D02*
D03*
Y10899D02*
D03*
Y10741D02*
D03*
Y10584D02*
D03*
X41037Y14491D02*
D03*
Y14334D02*
D03*
Y14176D02*
D03*
Y14019D02*
D03*
X40388D02*
D03*
Y14176D02*
D03*
Y14334D02*
D03*
Y14491D02*
D03*
X11289Y14744D02*
D03*
Y14901D02*
D03*
Y15059D02*
D03*
Y15216D02*
D03*
X12254D02*
D03*
Y15059D02*
D03*
Y14901D02*
D03*
Y14744D02*
D03*
X6211Y10570D02*
D03*
Y10728D02*
D03*
Y10885D02*
D03*
Y11043D02*
D03*
X6860D02*
D03*
Y10885D02*
D03*
Y10728D02*
D03*
Y10570D02*
D03*
X20719Y7519D02*
D03*
Y7362D02*
D03*
Y7204D02*
D03*
Y7047D02*
D03*
X19754D02*
D03*
Y7204D02*
D03*
Y7362D02*
D03*
Y7519D02*
D03*
X25994Y17815D02*
D03*
Y17657D02*
D03*
Y17500D02*
D03*
Y17342D02*
D03*
X25030D02*
D03*
Y17500D02*
D03*
Y17657D02*
D03*
Y17815D02*
D03*
X40388Y12500D02*
D03*
Y12657D02*
D03*
Y12815D02*
D03*
Y12972D02*
D03*
X41037D02*
D03*
Y12815D02*
D03*
Y12657D02*
D03*
Y12500D02*
D03*
D58*
X3484Y2376D02*
D03*
X1516D02*
D03*
X3484Y1431D02*
D03*
X1516D02*
D03*
D59*
X2500Y2376D02*
D03*
Y1431D02*
D03*
D60*
X9512Y787D02*
D03*
Y2362D02*
D03*
X7130Y787D02*
D03*
Y2362D02*
D03*
X49317Y2362D02*
D03*
Y787D02*
D03*
X51699Y2362D02*
D03*
Y787D02*
D03*
X45124Y2362D02*
D03*
Y787D02*
D03*
X47506Y2362D02*
D03*
Y787D02*
D03*
X51699Y4330D02*
D03*
Y5905D02*
D03*
X49317Y4330D02*
D03*
Y5905D02*
D03*
X47506Y4330D02*
D03*
Y5905D02*
D03*
X45124Y4330D02*
D03*
Y5905D02*
D03*
D61*
X5315Y9448D02*
D03*
Y9252D02*
D03*
Y9055D02*
D03*
X4705D02*
D03*
Y9252D02*
D03*
Y9448D02*
D03*
X41821Y21358D02*
D03*
Y21555D02*
D03*
Y21752D02*
D03*
X42431D02*
D03*
Y21555D02*
D03*
Y21358D02*
D03*
X41821Y23425D02*
D03*
Y23622D02*
D03*
Y23819D02*
D03*
X42431D02*
D03*
Y23622D02*
D03*
Y23425D02*
D03*
X43106Y5777D02*
D03*
Y5974D02*
D03*
Y6171D02*
D03*
X43717D02*
D03*
Y5974D02*
D03*
Y5777D02*
D03*
D62*
X13829Y15275D02*
D03*
X11545Y8946D02*
D03*
D63*
X13553Y15364D02*
D03*
Y15187D02*
D03*
X11270Y9035D02*
D03*
Y8858D02*
D03*
D64*
X44100Y6476D02*
D03*
D65*
X44012Y6200D02*
D03*
X44189D02*
D03*
D66*
X41232Y4645D02*
D03*
X42232D02*
D03*
D67*
X37583Y6181D02*
D03*
X38083D02*
D03*
X38583D02*
D03*
X39083D02*
D03*
X39583D02*
D03*
X37583Y4645D02*
D03*
X38083D02*
D03*
X38583D02*
D03*
X39083D02*
D03*
X39583D02*
D03*
X32959Y9074D02*
D03*
X32459D02*
D03*
X31959D02*
D03*
X31459D02*
D03*
X30959D02*
D03*
X32959Y10610D02*
D03*
X32459D02*
D03*
X31959D02*
D03*
X31459D02*
D03*
X30959D02*
D03*
X28459D02*
D03*
X28959D02*
D03*
X29459D02*
D03*
X29959D02*
D03*
X30459D02*
D03*
X28459Y9074D02*
D03*
X28959D02*
D03*
X29459D02*
D03*
X30459D02*
D03*
X38008Y9074D02*
D03*
X37508D02*
D03*
X37008D02*
D03*
X36508D02*
D03*
X36008D02*
D03*
X38008Y10610D02*
D03*
X37508D02*
D03*
X37008D02*
D03*
X36508D02*
D03*
X36008D02*
D03*
D68*
X36625Y21000D02*
D03*
X38375D02*
D03*
X36625Y20000D02*
D03*
X38375D02*
D03*
X36625Y19000D02*
D03*
X38375D02*
D03*
X36625Y18000D02*
D03*
X38375D02*
D03*
X36625Y17000D02*
D03*
X38375D02*
D03*
X36625Y16000D02*
D03*
X38375D02*
D03*
D69*
X4650Y18129D02*
D03*
Y19129D02*
D03*
Y17129D02*
D03*
Y16129D02*
D03*
D70*
X19400Y18577D02*
D03*
Y17423D02*
D03*
X18400Y18577D02*
D03*
Y17423D02*
D03*
X17400Y18577D02*
D03*
Y17423D02*
D03*
X13400Y18577D02*
D03*
Y17423D02*
D03*
X14400Y18577D02*
D03*
Y17423D02*
D03*
X8400Y18577D02*
D03*
Y17423D02*
D03*
X9400D02*
D03*
Y18577D02*
D03*
X10400Y17423D02*
D03*
Y18577D02*
D03*
X12400Y17423D02*
D03*
Y18577D02*
D03*
X11400Y17423D02*
D03*
Y18577D02*
D03*
X7400D02*
D03*
Y17423D02*
D03*
X16400D02*
D03*
Y18577D02*
D03*
X15400Y17423D02*
D03*
Y18577D02*
D03*
X32000Y22577D02*
D03*
X28000D02*
D03*
X32000Y21423D02*
D03*
X28000D02*
D03*
X33000Y22577D02*
D03*
X34000D02*
D03*
X29000D02*
D03*
X30000D02*
D03*
X27000D02*
D03*
X33000Y21423D02*
D03*
X34000D02*
D03*
X29000Y21423D02*
D03*
X30000Y21423D02*
D03*
X27000D02*
D03*
X31000Y22577D02*
D03*
Y21423D02*
D03*
X14400Y22577D02*
D03*
X10400D02*
D03*
X14400Y21423D02*
D03*
X10400Y21423D02*
D03*
X16400Y22577D02*
D03*
X15400D02*
D03*
X12400D02*
D03*
X11400D02*
D03*
X9400D02*
D03*
X8400D02*
D03*
X16400Y21423D02*
D03*
X15400D02*
D03*
X12400D02*
D03*
X11400D02*
D03*
X9400D02*
D03*
X8400Y21423D02*
D03*
X13400Y22577D02*
D03*
X7400D02*
D03*
X13400Y21423D02*
D03*
X7400D02*
D03*
X23000Y22577D02*
D03*
X19000D02*
D03*
X23000Y21423D02*
D03*
X19000D02*
D03*
X24000Y22577D02*
D03*
X25000D02*
D03*
X20000D02*
D03*
X21000D02*
D03*
X18000D02*
D03*
X24000Y21423D02*
D03*
X25000D02*
D03*
X20000Y21423D02*
D03*
X21000Y21423D02*
D03*
X18000D02*
D03*
X22000Y22577D02*
D03*
Y21423D02*
D03*
X22000Y2423D02*
D03*
Y3577D02*
D03*
X20000Y2423D02*
D03*
X21000D02*
D03*
X24000D02*
D03*
X25000D02*
D03*
X20000Y3577D02*
D03*
X21000D02*
D03*
X24000D02*
D03*
X25000D02*
D03*
X23000Y2423D02*
D03*
X23000Y3577D02*
D03*
X13000Y2423D02*
D03*
X17000D02*
D03*
X13000Y3577D02*
D03*
X17000D02*
D03*
X12000Y2423D02*
D03*
X11000D02*
D03*
X16000D02*
D03*
X15000D02*
D03*
X18000D02*
D03*
X12000Y3577D02*
D03*
X11000D02*
D03*
X16000Y3577D02*
D03*
X15000Y3577D02*
D03*
X18000D02*
D03*
X14000Y2423D02*
D03*
Y3577D02*
D03*
D71*
X2298Y24240D02*
D03*
Y23740D02*
D03*
Y23240D02*
D03*
Y22740D02*
D03*
Y22240D02*
D03*
X762Y24240D02*
D03*
Y23740D02*
D03*
Y23240D02*
D03*
Y22740D02*
D03*
Y22240D02*
D03*
D72*
X24550Y14000D02*
D03*
Y13000D02*
D03*
X26550D02*
D03*
Y14000D02*
D03*
X24550Y12000D02*
D03*
X26550D02*
D03*
D73*
X11692Y8464D02*
D03*
X11142D02*
D03*
X43582Y21555D02*
D03*
X43032D02*
D03*
X41220D02*
D03*
X40670D02*
D03*
X43582Y23622D02*
D03*
X43032D02*
D03*
X41220D02*
D03*
X40670D02*
D03*
D74*
X32902Y6023D02*
D03*
X33902D02*
D03*
X34902D02*
D03*
X32402D02*
D03*
X33402D02*
D03*
X34402D02*
D03*
D75*
X31744Y689D02*
D03*
Y5413D02*
D03*
X36858D02*
D03*
Y689D02*
D03*
D76*
X35276Y6023D02*
D03*
D77*
X5200Y1100D02*
D03*
X53500Y24100D02*
D03*
X3282Y24450D02*
D03*
D78*
X33839Y7391D02*
D03*
X33642D02*
D03*
X33445D02*
D03*
X33248D02*
D03*
X33839Y6820D02*
D03*
X33642D02*
D03*
X33445D02*
D03*
X33248D02*
D03*
D79*
X41905Y13676D02*
D03*
X41649D02*
D03*
X41905Y13096D02*
D03*
X41649D02*
D03*
X41905Y12516D02*
D03*
X41649D02*
D03*
X41905Y11936D02*
D03*
X41649D02*
D03*
D80*
X8691Y13694D02*
D03*
Y13300D02*
D03*
X49685Y12441D02*
D03*
Y12834D02*
D03*
D81*
X30426Y13594D02*
D03*
X30926D02*
D03*
X31426D02*
D03*
X31926D02*
D03*
X30426Y16641D02*
D03*
X30926D02*
D03*
X31426D02*
D03*
X31926D02*
D03*
M02*
