G04*
G04 #@! TF.GenerationSoftware,Altium Limited,Altium Designer,25.6.2 (33)*
G04*
G04 Layer_Color=32896*
%FSLAX24Y24*%
%MOIN*%
G70*
G04*
G04 #@! TF.SameCoordinates,7B414DDB-1E05-4FB0-9552-6D707E6C9701*
G04*
G04*
G04 #@! TF.FilePolarity,Positive*
G04*
G01*
G75*
%ADD16C,0.0100*%
%ADD17C,0.0039*%
%ADD194C,0.0150*%
%ADD230C,0.0020*%
%ADD231C,0.0030*%
%ADD233C,0.0020*%
D16*
X24350Y14450D02*
G03*
X24350Y14450I-50J0D01*
G01*
D17*
X2974Y3700D02*
G03*
X2974Y3700I-374J0D01*
G01*
X2895D02*
G03*
X2895Y3700I-295J0D01*
G01*
X3697Y6500D02*
G03*
X3697Y6500I-374J0D01*
G01*
X3618D02*
G03*
X3618Y6500I-295J0D01*
G01*
X3642Y5393D02*
G03*
X3642Y5393I-374J0D01*
G01*
X3563D02*
G03*
X3563Y5393I-295J0D01*
G01*
X10136Y8417D02*
G03*
X10136Y8417I-374J0D01*
G01*
X10057D02*
G03*
X10057Y8417I-295J0D01*
G01*
X1524Y6188D02*
G03*
X1524Y6188I-374J0D01*
G01*
X1445D02*
G03*
X1445Y6188I-295J0D01*
G01*
X4934Y12110D02*
G03*
X4934Y12110I-374J0D01*
G01*
X4855D02*
G03*
X4855Y12110I-295J0D01*
G01*
X4734Y13100D02*
G03*
X4734Y13100I-374J0D01*
G01*
X4655D02*
G03*
X4655Y13100I-295J0D01*
G01*
X3124Y9882D02*
G03*
X3124Y9882I-374J0D01*
G01*
X3045D02*
G03*
X3045Y9882I-295J0D01*
G01*
X2834Y14300D02*
G03*
X2834Y14300I-374J0D01*
G01*
X2755D02*
G03*
X2755Y14300I-295J0D01*
G01*
X11834Y6057D02*
G03*
X11834Y6057I-374J0D01*
G01*
X11755D02*
G03*
X11755Y6057I-295J0D01*
G01*
X14874Y11625D02*
G03*
X14874Y11625I-374J0D01*
G01*
X14795D02*
G03*
X14795Y11625I-295J0D01*
G01*
X14659Y8129D02*
G03*
X14659Y8129I-374J0D01*
G01*
X14580D02*
G03*
X14580Y8129I-295J0D01*
G01*
X14924Y9750D02*
G03*
X14924Y9750I-374J0D01*
G01*
X14845D02*
G03*
X14845Y9750I-295J0D01*
G01*
X13023Y8800D02*
G03*
X13023Y8800I-374J0D01*
G01*
X12945D02*
G03*
X12945Y8800I-295J0D01*
G01*
X27177Y24500D02*
G03*
X27177Y24500I-177J0D01*
G01*
X27295D02*
G03*
X27295Y24500I-295J0D01*
G01*
Y23500D02*
G03*
X27295Y23500I-295J0D01*
G01*
X27177D02*
G03*
X27177Y23500I-177J0D01*
G01*
X28177Y24500D02*
G03*
X28177Y24500I-177J0D01*
G01*
X28295D02*
G03*
X28295Y24500I-295J0D01*
G01*
Y23500D02*
G03*
X28295Y23500I-295J0D01*
G01*
X28177D02*
G03*
X28177Y23500I-177J0D01*
G01*
X29177Y24500D02*
G03*
X29177Y24500I-177J0D01*
G01*
X29295D02*
G03*
X29295Y24500I-295J0D01*
G01*
Y23500D02*
G03*
X29295Y23500I-295J0D01*
G01*
X29177D02*
G03*
X29177Y23500I-177J0D01*
G01*
X30177Y24500D02*
G03*
X30177Y24500I-177J0D01*
G01*
X30295D02*
G03*
X30295Y24500I-295J0D01*
G01*
Y23500D02*
G03*
X30295Y23500I-295J0D01*
G01*
X30177D02*
G03*
X30177Y23500I-177J0D01*
G01*
X31177Y24500D02*
G03*
X31177Y24500I-177J0D01*
G01*
X31295D02*
G03*
X31295Y24500I-295J0D01*
G01*
Y23500D02*
G03*
X31295Y23500I-295J0D01*
G01*
X31177D02*
G03*
X31177Y23500I-177J0D01*
G01*
X32177Y24500D02*
G03*
X32177Y24500I-177J0D01*
G01*
X32295D02*
G03*
X32295Y24500I-295J0D01*
G01*
Y23500D02*
G03*
X32295Y23500I-295J0D01*
G01*
X32177D02*
G03*
X32177Y23500I-177J0D01*
G01*
X33177D02*
G03*
X33177Y23500I-177J0D01*
G01*
X33295D02*
G03*
X33295Y23500I-295J0D01*
G01*
X34177D02*
G03*
X34177Y23500I-177J0D01*
G01*
X34295D02*
G03*
X34295Y23500I-295J0D01*
G01*
X33295Y24500D02*
G03*
X33295Y24500I-295J0D01*
G01*
X33177D02*
G03*
X33177Y24500I-177J0D01*
G01*
X34177D02*
G03*
X34177Y24500I-177J0D01*
G01*
X7577Y24500D02*
G03*
X7577Y24500I-177J0D01*
G01*
X7695D02*
G03*
X7695Y24500I-295J0D01*
G01*
Y23500D02*
G03*
X7695Y23500I-295J0D01*
G01*
X7577D02*
G03*
X7577Y23500I-177J0D01*
G01*
X8577Y24500D02*
G03*
X8577Y24500I-177J0D01*
G01*
X8695D02*
G03*
X8695Y24500I-295J0D01*
G01*
Y23500D02*
G03*
X8695Y23500I-295J0D01*
G01*
X8577D02*
G03*
X8577Y23500I-177J0D01*
G01*
X9577Y24500D02*
G03*
X9577Y24500I-177J0D01*
G01*
X9695D02*
G03*
X9695Y24500I-295J0D01*
G01*
Y23500D02*
G03*
X9695Y23500I-295J0D01*
G01*
X9577D02*
G03*
X9577Y23500I-177J0D01*
G01*
X10577Y24500D02*
G03*
X10577Y24500I-177J0D01*
G01*
X10695D02*
G03*
X10695Y24500I-295J0D01*
G01*
Y23500D02*
G03*
X10695Y23500I-295J0D01*
G01*
X10577D02*
G03*
X10577Y23500I-177J0D01*
G01*
X11577Y24500D02*
G03*
X11577Y24500I-177J0D01*
G01*
X11695D02*
G03*
X11695Y24500I-295J0D01*
G01*
Y23500D02*
G03*
X11695Y23500I-295J0D01*
G01*
X11577D02*
G03*
X11577Y23500I-177J0D01*
G01*
X12577Y24500D02*
G03*
X12577Y24500I-177J0D01*
G01*
X12695D02*
G03*
X12695Y24500I-295J0D01*
G01*
Y23500D02*
G03*
X12695Y23500I-295J0D01*
G01*
X12577D02*
G03*
X12577Y23500I-177J0D01*
G01*
X13577Y24500D02*
G03*
X13577Y24500I-177J0D01*
G01*
X13695D02*
G03*
X13695Y24500I-295J0D01*
G01*
Y23500D02*
G03*
X13695Y23500I-295J0D01*
G01*
X13577D02*
G03*
X13577Y23500I-177J0D01*
G01*
X14577Y24500D02*
G03*
X14577Y24500I-177J0D01*
G01*
X14695D02*
G03*
X14695Y24500I-295J0D01*
G01*
Y23500D02*
G03*
X14695Y23500I-295J0D01*
G01*
X14577D02*
G03*
X14577Y23500I-177J0D01*
G01*
X15577D02*
G03*
X15577Y23500I-177J0D01*
G01*
X15695D02*
G03*
X15695Y23500I-295J0D01*
G01*
X16577D02*
G03*
X16577Y23500I-177J0D01*
G01*
X16695D02*
G03*
X16695Y23500I-295J0D01*
G01*
X15695Y24500D02*
G03*
X15695Y24500I-295J0D01*
G01*
X15577D02*
G03*
X15577Y24500I-177J0D01*
G01*
X16577D02*
G03*
X16577Y24500I-177J0D01*
G01*
X18177D02*
G03*
X18177Y24500I-177J0D01*
G01*
X18295D02*
G03*
X18295Y24500I-295J0D01*
G01*
Y23500D02*
G03*
X18295Y23500I-295J0D01*
G01*
X18177D02*
G03*
X18177Y23500I-177J0D01*
G01*
X19177Y24500D02*
G03*
X19177Y24500I-177J0D01*
G01*
X19295D02*
G03*
X19295Y24500I-295J0D01*
G01*
Y23500D02*
G03*
X19295Y23500I-295J0D01*
G01*
X19177D02*
G03*
X19177Y23500I-177J0D01*
G01*
X20177Y24500D02*
G03*
X20177Y24500I-177J0D01*
G01*
X20295D02*
G03*
X20295Y24500I-295J0D01*
G01*
Y23500D02*
G03*
X20295Y23500I-295J0D01*
G01*
X20177D02*
G03*
X20177Y23500I-177J0D01*
G01*
X21177Y24500D02*
G03*
X21177Y24500I-177J0D01*
G01*
X21295D02*
G03*
X21295Y24500I-295J0D01*
G01*
Y23500D02*
G03*
X21295Y23500I-295J0D01*
G01*
X21177D02*
G03*
X21177Y23500I-177J0D01*
G01*
X22177Y24500D02*
G03*
X22177Y24500I-177J0D01*
G01*
X22295D02*
G03*
X22295Y24500I-295J0D01*
G01*
Y23500D02*
G03*
X22295Y23500I-295J0D01*
G01*
X22177D02*
G03*
X22177Y23500I-177J0D01*
G01*
X23177Y24500D02*
G03*
X23177Y24500I-177J0D01*
G01*
X23295D02*
G03*
X23295Y24500I-295J0D01*
G01*
Y23500D02*
G03*
X23295Y23500I-295J0D01*
G01*
X23177D02*
G03*
X23177Y23500I-177J0D01*
G01*
X24177D02*
G03*
X24177Y23500I-177J0D01*
G01*
X24295D02*
G03*
X24295Y23500I-295J0D01*
G01*
X25177D02*
G03*
X25177Y23500I-177J0D01*
G01*
X25295D02*
G03*
X25295Y23500I-295J0D01*
G01*
X24295Y24500D02*
G03*
X24295Y24500I-295J0D01*
G01*
X24177D02*
G03*
X24177Y24500I-177J0D01*
G01*
X25177D02*
G03*
X25177Y24500I-177J0D01*
G01*
X20177Y500D02*
G03*
X20177Y500I-177J0D01*
G01*
X21177D02*
G03*
X21177Y500I-177J0D01*
G01*
X21295D02*
G03*
X21295Y500I-295J0D01*
G01*
X20295Y1500D02*
G03*
X20295Y1500I-295J0D01*
G01*
X20177D02*
G03*
X20177Y1500I-177J0D01*
G01*
X21295D02*
G03*
X21295Y1500I-295J0D01*
G01*
X21177D02*
G03*
X21177Y1500I-177J0D01*
G01*
X22177D02*
G03*
X22177Y1500I-177J0D01*
G01*
X22295D02*
G03*
X22295Y1500I-295J0D01*
G01*
Y500D02*
G03*
X22295Y500I-295J0D01*
G01*
X22177D02*
G03*
X22177Y500I-177J0D01*
G01*
X23177Y1500D02*
G03*
X23177Y1500I-177J0D01*
G01*
X23295D02*
G03*
X23295Y1500I-295J0D01*
G01*
Y500D02*
G03*
X23295Y500I-295J0D01*
G01*
X23177D02*
G03*
X23177Y500I-177J0D01*
G01*
X24177Y1500D02*
G03*
X24177Y1500I-177J0D01*
G01*
X24295D02*
G03*
X24295Y1500I-295J0D01*
G01*
Y500D02*
G03*
X24295Y500I-295J0D01*
G01*
X24177D02*
G03*
X24177Y500I-177J0D01*
G01*
X25177Y1500D02*
G03*
X25177Y1500I-177J0D01*
G01*
X25295D02*
G03*
X25295Y1500I-295J0D01*
G01*
Y500D02*
G03*
X25295Y500I-295J0D01*
G01*
X25177D02*
G03*
X25177Y500I-177J0D01*
G01*
X18177D02*
G03*
X18177Y500I-177J0D01*
G01*
X18295D02*
G03*
X18295Y500I-295J0D01*
G01*
Y1500D02*
G03*
X18295Y1500I-295J0D01*
G01*
X18177D02*
G03*
X18177Y1500I-177J0D01*
G01*
X17177Y500D02*
G03*
X17177Y500I-177J0D01*
G01*
X17295D02*
G03*
X17295Y500I-295J0D01*
G01*
Y1500D02*
G03*
X17295Y1500I-295J0D01*
G01*
X17177D02*
G03*
X17177Y1500I-177J0D01*
G01*
X16177Y500D02*
G03*
X16177Y500I-177J0D01*
G01*
X16295D02*
G03*
X16295Y500I-295J0D01*
G01*
Y1500D02*
G03*
X16295Y1500I-295J0D01*
G01*
X16177D02*
G03*
X16177Y1500I-177J0D01*
G01*
X15177Y500D02*
G03*
X15177Y500I-177J0D01*
G01*
X15295D02*
G03*
X15295Y500I-295J0D01*
G01*
Y1500D02*
G03*
X15295Y1500I-295J0D01*
G01*
X15177D02*
G03*
X15177Y1500I-177J0D01*
G01*
X14177Y500D02*
G03*
X14177Y500I-177J0D01*
G01*
X14295D02*
G03*
X14295Y500I-295J0D01*
G01*
Y1500D02*
G03*
X14295Y1500I-295J0D01*
G01*
X14177D02*
G03*
X14177Y1500I-177J0D01*
G01*
X13177Y500D02*
G03*
X13177Y500I-177J0D01*
G01*
X13295D02*
G03*
X13295Y500I-295J0D01*
G01*
Y1500D02*
G03*
X13295Y1500I-295J0D01*
G01*
X13177D02*
G03*
X13177Y1500I-177J0D01*
G01*
X12177D02*
G03*
X12177Y1500I-177J0D01*
G01*
X12295D02*
G03*
X12295Y1500I-295J0D01*
G01*
X11177D02*
G03*
X11177Y1500I-177J0D01*
G01*
X11295D02*
G03*
X11295Y1500I-295J0D01*
G01*
X12295Y500D02*
G03*
X12295Y500I-295J0D01*
G01*
X12177D02*
G03*
X12177Y500I-177J0D01*
G01*
X11177D02*
G03*
X11177Y500I-177J0D01*
G01*
X22047Y15059D02*
G03*
X21654Y15453I-394J0D01*
G01*
Y9547D02*
G03*
X22047Y9941I0J394D01*
G01*
X6693Y15453D02*
G03*
X6299Y15059I0J-394D01*
G01*
Y9941D02*
G03*
X6693Y9547I394J0D01*
G01*
X14569Y12326D02*
G03*
X14569Y12326I-193J0D01*
G01*
X13769D02*
G03*
X13769Y12326I-193J0D01*
G01*
X14169Y9326D02*
G03*
X14169Y9326I-193J0D01*
G01*
X60168Y8190D02*
X60174Y8067D01*
X59979Y8165D02*
X59985Y8073D01*
X59890Y8190D02*
X59896Y8067D01*
X60134Y8190D02*
X60140Y8067D01*
X60051Y7846D02*
X60057Y7716D01*
X59997Y7846D02*
X60003Y7716D01*
X59868Y7928D02*
X59874Y7779D01*
X59991Y7966D02*
X59997Y7846D01*
X60044Y7966D02*
X60051Y7846D01*
X59902Y7928D02*
X59908Y7779D01*
X59896Y8067D02*
X59902Y7928D01*
X59985Y8073D02*
X59991Y7966D01*
X59862Y8067D02*
X59868Y7928D01*
X60038Y8073D02*
X60044Y7966D01*
X60146Y7928D02*
X60152Y7779D01*
X60180Y7928D02*
X60186Y7779D01*
X60140Y8067D02*
X60146Y7928D01*
X60174Y8067D02*
X60180Y7928D01*
X60128Y8297D02*
X60134Y8190D01*
X60157Y8384D02*
X60162Y8297D01*
X60168Y8190D01*
X60123Y8384D02*
X60128Y8297D01*
X59859Y8548D02*
X59907Y8466D01*
X59955Y8383D01*
X60002Y8386D02*
X60049Y8466D01*
X59953Y8386D02*
X60004D01*
X59879Y8384D02*
X59884Y8297D01*
X59890Y8190D01*
X60010Y8376D02*
X60016Y8348D01*
X60004Y8386D02*
X60010Y8376D01*
X60022Y8302D02*
X60027Y8241D01*
X60033Y8165D01*
X59963Y8348D02*
X59968Y8302D01*
X59974Y8241D01*
X59957Y8376D02*
X59963Y8348D01*
X59974Y8241D02*
X59979Y8165D01*
X60016Y8348D02*
X60022Y8302D01*
X59954Y8381D02*
X59957Y8376D01*
X60033Y8165D02*
X60038Y8073D01*
X60098Y8551D02*
X60133D01*
X60112Y8507D02*
X60117Y8454D01*
X60133Y8551D02*
X60140Y8540D01*
X60100Y8551D02*
X60106Y8540D01*
X60117Y8454D02*
X60123Y8384D01*
X60097Y8546D02*
X60100Y8551D01*
X60106Y8540D02*
X60112Y8507D01*
X60049Y8466D02*
X60096Y8549D01*
X60146Y8507D02*
X60151Y8454D01*
X60157Y8384D01*
X60184Y8466D02*
X60232Y8383D01*
X60140Y8540D02*
X60146Y8507D01*
X60136Y8549D02*
X60184Y8466D01*
X59123Y8376D02*
X59129Y8348D01*
X59135Y8302D02*
X59140Y8241D01*
X59146Y8165D01*
X59151Y8073D01*
X59129Y8348D02*
X59135Y8302D01*
X59157Y7966D02*
X59163Y7846D01*
X59151Y8073D02*
X59157Y7966D01*
X59177Y8376D02*
X59183Y8348D01*
X59171Y8386D02*
X59177Y8376D01*
X59074Y8466D02*
X59121Y8383D01*
X59120Y8386D02*
X59171D01*
X59041Y8454D02*
X59046Y8384D01*
X59120Y8381D02*
X59123Y8376D01*
X59169Y8386D02*
X59215Y8465D01*
X59046Y8384D02*
X59051Y8297D01*
X59035Y8507D02*
X59041Y8454D01*
X59029Y8540D02*
X59035Y8507D01*
X59023Y8551D02*
X59029Y8540D01*
X59026Y8548D02*
X59074Y8466D01*
X59300Y8190D02*
X59306Y8067D01*
X59284Y8454D02*
X59289Y8384D01*
X59266Y8551D02*
X59272Y8540D01*
X59306Y8540D02*
X59312Y8507D01*
X59300Y8551D02*
X59306Y8540D01*
X59289Y8384D02*
X59295Y8297D01*
X59272Y8540D02*
X59278Y8507D01*
X59284Y8454D01*
X59263Y8545D02*
X59266Y8551D01*
X59215Y8465D02*
X59263Y8548D01*
X59295Y8297D02*
X59300Y8190D01*
X59194Y8241D02*
X59199Y8165D01*
X59183Y8348D02*
X59189Y8302D01*
X59194Y8241D01*
X59199Y8165D02*
X59205Y8073D01*
X59176Y7581D02*
X59181Y7442D01*
X59217Y7846D02*
X59223Y7716D01*
X59163Y7846D02*
X59170Y7716D01*
X59211Y7966D02*
X59217Y7846D01*
X59223Y7716D02*
X59229Y7581D01*
X59235Y7442D01*
X59170Y7716D02*
X59176Y7581D01*
X59205Y8073D02*
X59211Y7966D01*
X59047Y7622D02*
X59053Y7463D01*
X59041Y7779D02*
X59047Y7622D01*
X59081Y7622D02*
X59087Y7463D01*
X59075Y7779D02*
X59081Y7622D01*
X59035Y7928D02*
X59041Y7779D01*
X59069Y7928D02*
X59075Y7779D01*
X59022Y8190D02*
X59028Y8067D01*
X59063Y8067D02*
X59069Y7928D01*
X59028Y8067D02*
X59035Y7928D01*
X59057Y8190D02*
X59063Y8067D01*
X59051Y8297D02*
X59057Y8190D01*
X59144Y6157D02*
X59149Y6104D01*
X59099Y6315D02*
X59104Y6227D01*
X59133Y6315D02*
X59138Y6227D01*
X59144Y6157D01*
X59161Y6060D02*
X59164Y6065D01*
X59212Y6145D02*
X59259Y6225D01*
X59077Y6145D02*
X59124Y6062D01*
X59104Y6227D02*
X59109Y6157D01*
X59115Y6104D02*
X59121Y6072D01*
X59109Y6157D02*
X59115Y6104D01*
X59149Y6104D02*
X59155Y6072D01*
X59121Y6072D02*
X59127Y6060D01*
X59127Y6060D02*
X59161D01*
X59155Y6072D02*
X59162Y6060D01*
X59164Y6062D02*
X59212Y6145D01*
X59250Y6235D02*
X59256Y6225D01*
X59216Y6646D02*
X59222Y6538D01*
X59228Y6446D01*
X59244Y6264D02*
X59250Y6235D01*
X59238Y6309D02*
X59244Y6264D01*
X59228Y6446D02*
X59233Y6370D01*
X59210Y6766D02*
X59216Y6646D01*
X59233Y6370D02*
X59238Y6309D01*
X59127Y6421D02*
X59133Y6315D01*
X59121Y6545D02*
X59127Y6421D01*
X59087Y6545D02*
X59093Y6421D01*
X59099Y6315D01*
X59109Y6832D02*
X59115Y6683D01*
X59121Y6545D01*
X59081Y6683D02*
X59087Y6545D01*
X59075Y6832D02*
X59081Y6683D01*
X59069Y6989D02*
X59075Y6832D01*
X59103Y6989D02*
X59109Y6832D01*
X59204Y6895D02*
X59210Y6766D01*
X59092Y7306D02*
X59097Y7148D01*
X59192Y7169D02*
X59198Y7031D01*
X59240Y7306D02*
X59246Y7169D01*
X59198Y7031D02*
X59204Y6895D01*
X59097Y7148D02*
X59103Y6989D01*
X59246Y7169D02*
X59251Y7031D01*
X59257Y6895D01*
X59087Y7463D02*
X59092Y7306D01*
X59181Y7442D02*
X59187Y7306D01*
X59192Y7169D01*
X60767Y7713D02*
Y7789D01*
Y6554D02*
Y6615D01*
Y6680D01*
Y6749D02*
Y6822D01*
X60508Y6584D02*
Y6647D01*
Y6714D01*
Y6785D02*
Y6860D01*
Y6937D02*
Y7016D01*
Y6860D02*
Y6937D01*
Y6714D02*
Y6785D01*
Y7016D02*
Y7098D01*
Y7180D02*
Y7264D01*
Y7347D01*
Y6269D02*
Y6288D01*
Y6312D01*
Y6258D02*
Y6269D01*
Y6253D02*
Y6253D01*
Y6258D01*
Y6471D02*
Y6525D01*
Y6423D02*
Y6471D01*
Y6525D02*
Y6584D01*
Y6380D02*
Y6423D01*
Y6312D02*
Y6343D01*
Y6380D01*
X60767Y6361D02*
Y6401D01*
Y6253D02*
Y6255D01*
X60508Y6253D02*
X60768D01*
X60767Y6299D02*
Y6327D01*
X60768Y6253D02*
X60807Y6292D01*
X60767Y6327D02*
Y6361D01*
Y6255D02*
Y6263D01*
Y6278D01*
Y6299D01*
Y6497D02*
Y6554D01*
Y6680D02*
Y6749D01*
Y6401D02*
Y6446D01*
Y6822D02*
Y6898D01*
Y7635D02*
Y7713D01*
Y6976D02*
Y7057D01*
Y7139D02*
Y7222D01*
Y6898D02*
Y6976D01*
Y7389D02*
Y7472D01*
Y7554D01*
Y7222D02*
Y7306D01*
Y7306D02*
Y7389D01*
Y6446D02*
Y6497D01*
Y7554D02*
Y7635D01*
Y7057D02*
Y7139D01*
X60807Y6292D02*
Y8319D01*
X60257Y8165D02*
X60262Y8073D01*
X60508Y8268D02*
Y8299D01*
X60251Y8241D02*
X60257Y8165D01*
X60310Y8165D02*
X60316Y8073D01*
X60246Y8302D02*
X60251Y8241D01*
X60305Y8241D02*
X60310Y8165D01*
X60400Y8319D02*
X60402Y8252D01*
X60404Y8178D02*
X60406Y8100D01*
X60402Y8252D02*
X60404Y8178D01*
X60508Y8086D02*
Y8140D01*
Y8231D02*
Y8268D01*
Y8140D02*
Y8188D01*
X60300Y8302D02*
X60305Y8241D01*
X60240Y8348D02*
X60246Y8302D01*
X60294Y8348D02*
X60300Y8302D01*
X60322Y7966D02*
X60328Y7846D01*
X60334Y7716D01*
X60275Y7846D02*
X60281Y7716D01*
X60316Y8073D02*
X60322Y7966D01*
X60262Y8073D02*
X60268Y7966D01*
X60275Y7846D01*
X60412Y7830D02*
X60414Y7736D01*
X60408Y8016D02*
X60410Y7926D01*
X60406Y8100D02*
X60408Y8016D01*
X60410Y7926D02*
X60412Y7830D01*
X60508Y7752D02*
Y7826D01*
Y8028D02*
Y8086D01*
Y7826D02*
Y7897D01*
Y7964D01*
Y8028D01*
X60288Y8376D02*
X60294Y8348D01*
X60231Y8386D02*
X60282D01*
X60231Y8381D02*
X60234Y8376D01*
X60240Y8348D01*
X60282Y8386D02*
X60288Y8376D01*
X60280Y8386D02*
X60326Y8466D01*
X60767Y8333D02*
Y8348D01*
Y7931D02*
Y7997D01*
Y8250D02*
Y8284D01*
Y8312D01*
Y8058D02*
Y8114D01*
Y7862D02*
Y7931D01*
Y7789D02*
Y7862D01*
Y8165D02*
Y8210D01*
Y8114D02*
Y8165D01*
Y8312D02*
Y8333D01*
Y7997D02*
Y8058D01*
X60508Y8188D02*
Y8231D01*
Y8299D02*
Y8324D01*
X60767Y8210D02*
Y8250D01*
X60508Y8358D02*
Y8359D01*
X60767Y8357D02*
Y8359D01*
X60508Y8342D02*
Y8353D01*
Y8324D02*
Y8342D01*
X60768Y8358D02*
X60807Y8319D01*
X60508Y8358D02*
X60768D01*
X60767Y8348D02*
Y8357D01*
X60508Y8353D02*
Y8358D01*
X60399Y8377D02*
X60400Y8319D01*
X60393Y8480D02*
X60397Y8428D01*
X60397Y8551D02*
X60508Y8358D01*
X60397Y8428D02*
Y8457D01*
X60397Y8428D02*
X60399Y8377D01*
X60376Y8551D02*
X60396D01*
X60397Y8543D02*
Y8549D01*
Y8533D02*
Y8543D01*
X60326Y8466D02*
X60374Y8549D01*
X60377Y8551D02*
X60383Y8543D01*
X60397Y8502D02*
Y8520D01*
X60383Y8543D02*
X60388Y8519D01*
X60397Y8549D02*
Y8551D01*
X60375Y8546D02*
X60377Y8551D01*
X60388Y8519D02*
X60393Y8480D01*
X60397Y8481D02*
Y8502D01*
Y8520D02*
Y8533D01*
Y8457D02*
Y8481D01*
X59354Y6145D02*
X59402Y6062D01*
X59387Y6157D02*
X59393Y6104D01*
X59307Y6228D02*
X59354Y6145D01*
X59382Y6227D02*
X59387Y6157D01*
X59399Y6072D02*
X59405Y6060D01*
X59393Y6104D02*
X59399Y6072D01*
X59433Y6072D02*
X59439Y6060D01*
X59442Y6065D01*
X59404Y6060D02*
X59438D01*
X59421Y6157D02*
X59427Y6104D01*
X59442Y6062D02*
X59490Y6145D01*
X59427Y6104D02*
X59433Y6072D01*
X59416Y6227D02*
X59421Y6157D01*
X59405Y6421D02*
X59411Y6315D01*
X59377Y6315D02*
X59382Y6227D01*
X59287Y6370D02*
X59292Y6309D01*
X59365Y6545D02*
X59371Y6421D01*
X59304Y6235D02*
X59307Y6230D01*
X59257Y6225D02*
X59308D01*
X59298Y6263D02*
X59304Y6235D01*
X59292Y6309D02*
X59298Y6263D01*
X59411Y6315D02*
X59416Y6227D01*
X59276Y6538D02*
X59281Y6446D01*
X59287Y6370D01*
X59399Y6545D02*
X59405Y6421D01*
X59371Y6421D02*
X59377Y6315D01*
X59263Y6766D02*
X59270Y6646D01*
X59257Y6895D02*
X59263Y6766D01*
X59270Y6646D02*
X59276Y6538D01*
X59768Y6145D02*
X59814Y6225D01*
X59831Y6538D02*
X59837Y6446D01*
X59778Y6538D02*
X59783Y6446D01*
X59772Y6646D02*
X59778Y6538D01*
X59783Y6446D02*
X59788Y6370D01*
X59825Y6646D02*
X59831Y6538D01*
X59837Y6446D02*
X59842Y6370D01*
X59794Y6309D02*
X59799Y6264D01*
X59805Y6235D02*
X59812Y6225D01*
X59812Y6225D02*
X59863D01*
X59799Y6264D02*
X59805Y6235D01*
X59788Y6370D02*
X59794Y6309D01*
X59711Y6072D02*
X59717Y6060D01*
X59705Y6104D02*
X59711Y6072D01*
X59677Y6072D02*
X59683Y6060D01*
X59683Y6060D02*
X59717D01*
X59717Y6060D02*
X59720Y6066D01*
X59720Y6063D02*
X59768Y6145D01*
X59660Y6227D02*
X59665Y6157D01*
X59632Y6145D02*
X59680Y6063D01*
X59671Y6104D02*
X59677Y6072D01*
X59665Y6157D02*
X59671Y6104D01*
X59699Y6157D02*
X59705Y6104D01*
X59694Y6227D02*
X59699Y6157D01*
X59584Y6228D02*
X59632Y6145D01*
X59341Y7148D02*
X59347Y6989D01*
X59336Y7306D02*
X59341Y7148D01*
X59523Y7169D02*
X59529Y7031D01*
X59470Y7169D02*
X59475Y7031D01*
X59370Y7306D02*
X59375Y7148D01*
X59381Y6989D01*
X59518Y7306D02*
X59523Y7169D01*
X59648Y7306D02*
X59653Y7148D01*
X59613Y7306D02*
X59619Y7148D01*
X59624Y6989D01*
X59653Y7148D02*
X59659Y6989D01*
X59747Y7169D02*
X59753Y7031D01*
X59575Y6263D02*
X59581Y6235D01*
X59654Y6315D02*
X59660Y6227D01*
X59581Y6235D02*
X59584Y6231D01*
X59564Y6370D02*
X59570Y6309D01*
X59689Y6315D02*
X59694Y6227D01*
X59535Y6225D02*
X59586D01*
X59570Y6309D02*
X59575Y6263D01*
X59677Y6545D02*
X59683Y6421D01*
X59689Y6315D01*
X59649Y6421D02*
X59654Y6315D01*
X59643Y6545D02*
X59649Y6421D01*
X59559Y6446D02*
X59564Y6370D01*
X59516Y6309D02*
X59522Y6264D01*
X59511Y6370D02*
X59516Y6309D01*
X59528Y6235D02*
X59534Y6225D01*
X59490Y6145D02*
X59536Y6225D01*
X59553Y6538D02*
X59559Y6446D01*
X59505Y6446D02*
X59511Y6370D01*
X59500Y6538D02*
X59505Y6446D01*
X59522Y6264D02*
X59528Y6235D01*
X59359Y6683D02*
X59365Y6545D01*
X59381Y6989D02*
X59387Y6832D01*
X59393Y6683D02*
X59399Y6545D01*
X59353Y6832D02*
X59359Y6683D01*
X59347Y6989D02*
X59353Y6832D01*
X59387Y6832D02*
X59393Y6683D01*
X59475Y7031D02*
X59481Y6895D01*
X59547Y6646D02*
X59553Y6538D01*
X59529Y7031D02*
X59535Y6895D01*
X59541Y6766D02*
X59547Y6646D01*
X59494Y6646D02*
X59500Y6538D01*
X59488Y6766D02*
X59494Y6646D01*
X59481Y6895D02*
X59488Y6766D01*
X59535Y6895D02*
X59541Y6766D01*
X59624Y6989D02*
X59630Y6832D01*
X59659Y6989D02*
X59665Y6832D01*
X59671Y6683D02*
X59677Y6545D01*
X59665Y6832D02*
X59671Y6683D01*
X59630Y6832D02*
X59637Y6683D01*
X59643Y6545D01*
X59753Y7031D02*
X59759Y6895D01*
X59765Y6766D02*
X59772Y6646D01*
X59759Y6895D02*
X59765Y6766D01*
X59807Y7031D02*
X59813Y6895D01*
X59819Y6766D01*
X59825Y6646D01*
X59026Y6235D02*
X59029Y6230D01*
X58935Y6145D02*
X58981Y6225D01*
X58972Y6235D02*
X58978Y6225D01*
X59020Y6263D02*
X59026Y6235D01*
X58979Y6225D02*
X59030D01*
X58916Y6184D02*
X58918Y6157D01*
X58907Y6428D02*
X58909Y6366D01*
X58911Y6309D01*
X58905Y6496D02*
X58907Y6428D01*
X58911Y6309D02*
X58912Y6259D01*
X58914Y6217D02*
X58916Y6184D01*
X58912Y6259D02*
X58914Y6217D01*
X58850Y6253D02*
Y6253D01*
X58654Y6253D02*
X58851D01*
X58966Y6264D02*
X58972Y6235D01*
X58960Y6309D02*
X58966Y6264D01*
X59014Y6309D02*
X59020Y6263D01*
X59009Y6370D02*
X59014Y6309D01*
X59004Y6446D02*
X59009Y6370D01*
X58998Y6538D02*
X59004Y6446D01*
X58955Y6370D02*
X58960Y6309D01*
X58950Y6446D02*
X58955Y6370D01*
X58944Y6538D02*
X58950Y6446D01*
X58850Y6525D02*
Y6584D01*
X58903Y6572D02*
X58905Y6496D01*
X58850Y6343D02*
Y6380D01*
Y6423D02*
Y6471D01*
Y6380D02*
Y6423D01*
Y6288D02*
Y6312D01*
Y6253D02*
Y6258D01*
Y6312D02*
Y6343D01*
Y6471D02*
Y6525D01*
Y6270D02*
Y6288D01*
Y6258D02*
Y6270D01*
X60421Y7330D02*
X60423Y7229D01*
X60351Y7306D02*
X60357Y7169D01*
X60298Y7306D02*
X60303Y7169D01*
X60423Y7229D02*
X60425Y7125D01*
X60357Y7169D02*
X60362Y7031D01*
X60303Y7169D02*
X60309Y7031D01*
X60425Y7125D02*
X60427Y7023D01*
X60508Y7098D02*
Y7180D01*
X60418Y7536D02*
X60419Y7432D01*
X60292Y7442D02*
X60298Y7306D01*
X60281Y7716D02*
X60287Y7581D01*
X60340Y7581D02*
X60346Y7442D01*
X60334Y7716D02*
X60340Y7581D01*
X60287Y7581D02*
X60292Y7442D01*
X60508Y7674D02*
Y7752D01*
Y7514D02*
Y7595D01*
Y7431D02*
Y7514D01*
Y7347D02*
Y7431D01*
X60419Y7432D02*
X60421Y7330D01*
X60508Y7595D02*
Y7674D01*
X60416Y7638D02*
X60418Y7536D01*
X60414Y7736D02*
X60416Y7638D01*
X60346Y7442D02*
X60351Y7306D01*
X60074Y7306D02*
X60079Y7169D01*
X60025Y7169D02*
X60031Y7031D01*
X60015Y7442D02*
X60020Y7306D01*
X60009Y7581D02*
X60015Y7442D01*
X60068Y7442D02*
X60074Y7306D01*
X60063Y7581D02*
X60068Y7442D01*
X60079Y7169D02*
X60085Y7031D01*
X60020Y7306D02*
X60025Y7169D01*
X60186Y7779D02*
X60192Y7622D01*
X60152Y7779D02*
X60158Y7622D01*
X60003Y7716D02*
X60009Y7581D01*
X60057Y7716D02*
X60063Y7581D01*
X60192Y7622D02*
X60198Y7463D01*
X60203Y7306D01*
X60174Y7148D02*
X60180Y6989D01*
X60164Y7463D02*
X60169Y7306D01*
X60158Y7622D02*
X60164Y7463D01*
X60169Y7306D02*
X60174Y7148D01*
X60208Y7148D02*
X60214Y6989D01*
X60203Y7306D02*
X60208Y7148D01*
X59801Y7169D02*
X59807Y7031D01*
X59930Y7148D02*
X59936Y6989D01*
X59896Y7148D02*
X59902Y6989D01*
X59886Y7463D02*
X59891Y7306D01*
X59920Y7463D02*
X59925Y7306D01*
X59930Y7148D01*
X59880Y7622D02*
X59886Y7463D01*
X59891Y7306D02*
X59896Y7148D01*
X59914Y7622D02*
X59920Y7463D01*
X59908Y7779D02*
X59914Y7622D01*
X59874Y7779D02*
X59880Y7622D01*
X58850Y8231D02*
Y8268D01*
Y8140D02*
Y8188D01*
Y8086D02*
Y8140D01*
Y8188D02*
Y8231D01*
Y8268D02*
Y8299D01*
X58985Y8546D02*
X58988Y8551D01*
X58937Y8465D02*
X58985Y8548D01*
X58988Y8551D02*
X59023D01*
X59001Y8507D02*
X59006Y8454D01*
X58988Y8551D02*
X58995Y8540D01*
X59001Y8507D01*
X59006Y8454D02*
X59012Y8384D01*
X59017Y8297D02*
X59022Y8190D01*
X59012Y8384D02*
X59017Y8297D01*
X58851Y8358D02*
X58867Y8386D01*
X58850Y8342D02*
Y8353D01*
Y8299D02*
Y8324D01*
Y8342D01*
Y8358D02*
Y8359D01*
Y8353D02*
Y8358D01*
X58654Y8358D02*
X58851D01*
X59029Y6228D02*
X59077Y6145D01*
X59058Y7306D02*
X59063Y7148D01*
X59069Y6989D01*
X59053Y7463D02*
X59058Y7306D01*
X58866Y8197D02*
X58869Y8139D01*
X58875Y7908D02*
X58877Y7831D01*
X58871Y8051D02*
X58873Y7982D01*
X58873Y8073D02*
X58879Y7966D01*
X58873Y7982D02*
X58875Y7908D01*
X58879Y7966D02*
X58886Y7846D01*
X58869Y8139D02*
X58873Y8073D01*
X58866Y8197D02*
X58868Y8128D01*
X58871Y8051D01*
X58850Y8028D02*
Y8086D01*
Y7897D02*
Y7965D01*
Y8028D01*
X58916Y8241D02*
X58921Y8165D01*
X58927Y8073D02*
X58933Y7966D01*
X58939Y7846D01*
X58921Y8165D02*
X58927Y8073D01*
X58890Y7192D02*
X58892Y7098D01*
X58884Y7479D02*
X58886Y7386D01*
X58883Y7570D02*
X58884Y7479D01*
X58898Y7581D02*
X58904Y7442D01*
X58909Y7306D01*
X58888Y7289D02*
X58890Y7192D01*
X58886Y7386D02*
X58888Y7289D01*
X58850Y7348D02*
Y7431D01*
Y7826D02*
Y7897D01*
Y7595D02*
Y7675D01*
Y7752D01*
Y7431D02*
Y7514D01*
Y7752D02*
Y7826D01*
Y7180D02*
Y7264D01*
Y7514D02*
Y7595D01*
Y7264D02*
Y7348D01*
X58992Y6646D02*
X58998Y6538D01*
X58973Y7031D02*
X58980Y6895D01*
X58986Y6766D01*
X58992Y6646D01*
X58968Y7169D02*
X58973Y7031D01*
X58891Y8386D02*
X58937Y8465D01*
X58866Y8197D02*
Y8243D01*
X58899Y8376D02*
X58905Y8348D01*
X58866Y8317D02*
Y8344D01*
Y8365D01*
X58867Y8386D02*
X58893D01*
X58866Y8283D02*
Y8317D01*
X58893Y8386D02*
X58899Y8376D01*
X58866Y8385D02*
Y8386D01*
Y8378D02*
Y8385D01*
X58905Y8348D02*
X58911Y8302D01*
X58866Y8365D02*
Y8378D01*
Y8243D02*
Y8283D01*
X58911Y8302D02*
X58916Y8241D01*
X58922Y6129D02*
X58922Y6129D01*
X58918Y6157D02*
X58920Y6139D01*
X58922Y6129D01*
X58850Y6647D02*
Y6714D01*
Y6937D02*
Y7016D01*
Y6714D02*
Y6785D01*
X58892Y7098D02*
X58893Y7005D01*
X58850Y6584D02*
Y6647D01*
Y7016D02*
Y7098D01*
Y7180D01*
X58877Y7831D02*
X58879Y7751D01*
X58892Y7716D02*
X58898Y7581D01*
X58946Y7716D02*
X58952Y7581D01*
X58881Y7662D02*
X58883Y7570D01*
X58879Y7751D02*
X58881Y7662D01*
X58952Y7581D02*
X58957Y7442D01*
X58886Y7846D02*
X58892Y7716D01*
X58939Y7846D02*
X58946Y7716D01*
X58957Y7442D02*
X58963Y7306D01*
X58968Y7169D01*
X58909Y7306D02*
X58914Y7169D01*
X58920Y7031D01*
X58932Y6766D02*
X58938Y6646D01*
X58926Y6895D02*
X58932Y6766D01*
X58938Y6646D02*
X58944Y6538D01*
X58920Y7031D02*
X58926Y6895D01*
X58895Y6911D02*
X58897Y6821D01*
X58893Y7005D02*
X58895Y6911D01*
X58897Y6821D02*
X58899Y6735D01*
X58901Y6654D01*
X58903Y6572D01*
X58850Y6860D02*
Y6937D01*
Y6785D02*
Y6860D01*
X58925Y6128D02*
X58935Y6145D01*
X58851Y6253D02*
X58923Y6128D01*
X60362Y7031D02*
X60368Y6895D01*
X60309Y7031D02*
X60315Y6895D01*
X60091Y6895D02*
X60097Y6766D01*
X60037Y6895D02*
X60043Y6766D01*
X60180Y6989D02*
X60186Y6832D01*
X60315Y6895D02*
X60321Y6766D01*
X60186Y6832D02*
X60192Y6683D01*
X60220Y6832D02*
X60226Y6683D01*
X60214Y6989D02*
X60220Y6832D01*
X60031Y7031D02*
X60037Y6895D01*
X59936Y6989D02*
X59942Y6832D01*
X59908Y6832D02*
X59914Y6683D01*
X60368Y6895D02*
X60375Y6766D01*
X59902Y6989D02*
X59908Y6832D01*
X60085Y7031D02*
X60091Y6895D01*
X59942Y6832D02*
X59948Y6683D01*
X60436Y6583D02*
X60438Y6510D01*
X60435Y6661D02*
X60436Y6583D01*
X60432Y6747D02*
X60435Y6661D01*
X60438Y6510D02*
X60440Y6441D01*
X60427Y7023D02*
X60429Y6929D01*
X60431Y6837D02*
X60432Y6747D01*
X60429Y6929D02*
X60431Y6837D01*
X59862Y6228D02*
X59909Y6146D01*
X59859Y6235D02*
X59862Y6231D01*
X59847Y6309D02*
X59853Y6263D01*
X59859Y6235D01*
X59842Y6370D02*
X59847Y6309D01*
X59927Y6421D02*
X59932Y6315D01*
X59966Y6315D02*
X59971Y6227D01*
X59960Y6421D02*
X59966Y6315D01*
X59932Y6315D02*
X59938Y6227D01*
X59971Y6227D02*
X59977Y6157D01*
X59938Y6227D02*
X59943Y6157D01*
X60393Y6446D02*
X60398Y6370D01*
X60442Y6379D02*
X60444Y6325D01*
X60238Y6421D02*
X60244Y6315D01*
X60339Y6446D02*
X60344Y6370D01*
X60204Y6421D02*
X60210Y6315D01*
X60398Y6370D02*
X60403Y6309D01*
X60440Y6441D02*
X60442Y6379D01*
X60444Y6325D02*
X60446Y6278D01*
X60344Y6370D02*
X60349Y6309D01*
X60355Y6264D01*
X60368Y6225D02*
X60419D01*
X60409Y6263D02*
X60415Y6235D01*
X60403Y6309D02*
X60409Y6263D01*
X60355Y6264D02*
X60361Y6235D01*
X60367Y6225D01*
X59977Y6157D02*
X59982Y6104D01*
X59988Y6072D02*
X59995Y6060D01*
X60266Y6072D02*
X60272Y6060D01*
X60237Y6060D02*
X60272D01*
X60275Y6066D01*
X60260Y6104D02*
X60266Y6072D01*
X60275Y6063D02*
X60323Y6146D01*
X59998Y6063D02*
X60046Y6145D01*
X59955Y6072D02*
X59961Y6060D01*
X59959Y6060D02*
X59994D01*
X59949Y6104D02*
X59955Y6072D01*
X59909Y6146D02*
X59957Y6063D01*
X59982Y6104D02*
X59988Y6072D01*
X59943Y6157D02*
X59949Y6104D01*
X59995Y6060D02*
X59997Y6066D01*
X59914Y6683D02*
X59921Y6545D01*
X60055Y6538D02*
X60061Y6446D01*
X60043Y6766D02*
X60049Y6646D01*
X60055Y6538D01*
X60097Y6766D02*
X60103Y6646D01*
X59948Y6683D02*
X59954Y6545D01*
X60192Y6683D02*
X60198Y6545D01*
X60232Y6545D02*
X60238Y6421D01*
X60198Y6545D02*
X60204Y6421D01*
X60226Y6683D02*
X60232Y6545D01*
X60103Y6646D02*
X60109Y6538D01*
X59921Y6545D02*
X59927Y6421D01*
X59954Y6545D02*
X59960Y6421D01*
X60457Y6164D02*
X60508Y6253D01*
X60446Y6278D02*
X60447Y6238D01*
X60417Y6228D02*
X60454Y6164D01*
X60415Y6235D02*
X60418Y6231D01*
X60447Y6238D02*
X60449Y6206D01*
X60451Y6184D01*
X60453Y6169D01*
X60455Y6163D01*
X60456Y6164D01*
X60221Y6157D02*
X60226Y6104D01*
X60232Y6072D02*
X60238Y6060D01*
X60226Y6104D02*
X60232Y6072D01*
X60187Y6146D02*
X60235Y6063D01*
X60254Y6157D02*
X60260Y6104D01*
X60090Y6225D02*
X60141D01*
X60046Y6145D02*
X60092Y6225D01*
X60137Y6235D02*
X60140Y6231D01*
X60077Y6264D02*
X60083Y6235D01*
X60139Y6228D02*
X60187Y6146D01*
X60131Y6263D02*
X60137Y6235D01*
X60125Y6309D02*
X60131Y6263D01*
X60083Y6235D02*
X60089Y6225D01*
X60072Y6309D02*
X60077Y6264D01*
X60387Y6538D02*
X60393Y6446D01*
X60375Y6766D02*
X60381Y6646D01*
X60327Y6646D02*
X60333Y6538D01*
X60339Y6446D01*
X60381Y6646D02*
X60387Y6538D01*
X60321Y6766D02*
X60327Y6646D01*
X60210Y6315D02*
X60215Y6227D01*
X60221Y6157D01*
X60249Y6227D02*
X60254Y6157D01*
X60244Y6315D02*
X60249Y6227D01*
X60323Y6146D02*
X60369Y6225D01*
X60109Y6538D02*
X60115Y6446D01*
X60061Y6446D02*
X60066Y6370D01*
X60115Y6446D02*
X60120Y6370D01*
X60066Y6370D02*
X60072Y6309D01*
X60120Y6370D02*
X60125Y6309D01*
X59840Y8454D02*
X59845Y8384D01*
X59724Y8386D02*
X59771Y8465D01*
X59822Y8551D02*
X59828Y8540D01*
X59834Y8507D02*
X59840Y8454D01*
X59862Y8540D02*
X59868Y8507D01*
X59771Y8465D02*
X59818Y8548D01*
X59819Y8545D02*
X59822Y8551D01*
X59868Y8507D02*
X59874Y8454D01*
X59821Y8551D02*
X59855D01*
X59828Y8540D02*
X59834Y8507D01*
X59856Y8551D02*
X59862Y8540D01*
X59856Y8190D02*
X59862Y8067D01*
X59874Y8454D02*
X59879Y8384D01*
X59845Y8384D02*
X59850Y8297D01*
X59856Y8190D01*
X59235Y7442D02*
X59240Y7306D01*
X59319Y7779D02*
X59325Y7622D01*
X59340Y8067D02*
X59346Y7928D01*
X59364Y7463D02*
X59370Y7306D01*
X59330Y7463D02*
X59336Y7306D01*
X59325Y7622D02*
X59330Y7463D01*
X59334Y8190D02*
X59340Y8067D01*
X59346Y7928D02*
X59353Y7779D01*
X59306Y8067D02*
X59312Y7928D01*
X59353Y7779D02*
X59359Y7622D01*
X59312Y7928D02*
X59319Y7779D01*
X59359Y7622D02*
X59364Y7463D01*
X59329Y8297D02*
X59334Y8190D01*
X59489Y7966D02*
X59495Y7846D01*
X59513Y7442D02*
X59518Y7306D01*
X59459Y7442D02*
X59464Y7306D01*
X59470Y7169D01*
X59441Y7846D02*
X59447Y7716D01*
X59495Y7846D02*
X59501Y7716D01*
X59435Y7966D02*
X59441Y7846D01*
X59501Y7716D02*
X59507Y7581D01*
X59513Y7442D01*
X59447Y7716D02*
X59453Y7581D01*
X59459Y7442D01*
X59429Y8073D02*
X59435Y7966D01*
X59483Y8073D02*
X59489Y7966D01*
X59742Y7306D02*
X59747Y7169D01*
X59737Y7442D02*
X59742Y7306D01*
X59731Y7581D02*
X59737Y7442D01*
X59796Y7306D02*
X59801Y7169D01*
X59779Y7716D02*
X59785Y7581D01*
X59725Y7716D02*
X59731Y7581D01*
X59791Y7442D02*
X59796Y7306D01*
X59785Y7581D02*
X59791Y7442D01*
X59679Y8376D02*
X59685Y8348D01*
X59629Y8465D02*
X59677Y8383D01*
X59596Y8454D02*
X59601Y8384D01*
X59607Y8297D01*
X59608Y7463D02*
X59613Y7306D01*
X59590Y7928D02*
X59596Y7779D01*
X59602Y7622D02*
X59608Y7463D01*
X59631Y7779D02*
X59637Y7622D01*
X59596Y7779D02*
X59602Y7622D01*
X59624Y7928D02*
X59631Y7779D01*
X59637Y7622D02*
X59642Y7463D01*
X59648Y7306D01*
X59773Y7846D02*
X59779Y7716D01*
X59707Y8073D02*
X59713Y7966D01*
X59719Y7846D01*
X59761Y8073D02*
X59767Y7966D01*
X59719Y7846D02*
X59725Y7716D01*
X59767Y7966D02*
X59773Y7846D01*
X59739Y8348D02*
X59744Y8302D01*
X59676Y8381D02*
X59679Y8376D01*
X59685Y8348D02*
X59691Y8302D01*
X59744Y8302D02*
X59750Y8241D01*
X59733Y8376D02*
X59739Y8348D01*
X59726Y8386D02*
X59733Y8376D01*
X59691Y8302D02*
X59696Y8241D01*
X59675Y8386D02*
X59726D01*
X59265Y8551D02*
X59300D01*
X59581Y8548D02*
X59629Y8465D01*
X59578Y8551D02*
X59584Y8540D01*
X59590Y8507D02*
X59596Y8454D01*
X59493Y8466D02*
X59541Y8548D01*
X59550Y8540D02*
X59556Y8507D01*
X59541Y8546D02*
X59544Y8551D01*
X59584Y8540D02*
X59590Y8507D01*
X59544Y8551D02*
X59550Y8540D01*
X59544Y8551D02*
X59578D01*
X59303Y8548D02*
X59351Y8465D01*
X59312Y8507D02*
X59318Y8454D01*
X59607Y8297D02*
X59612Y8190D01*
X59578Y8190D02*
X59584Y8067D01*
X59572Y8297D02*
X59578Y8190D01*
X59612Y8190D02*
X59618Y8067D01*
X59584Y8067D02*
X59590Y7928D01*
X59618Y8067D02*
X59624Y7928D01*
X59701Y8165D02*
X59707Y8073D01*
X59696Y8241D02*
X59701Y8165D01*
X59750Y8241D02*
X59755Y8165D01*
X59761Y8073D01*
X59567Y8384D02*
X59572Y8297D01*
X59556Y8507D02*
X59562Y8454D01*
X59567Y8384D01*
X59423Y8165D02*
X59429Y8073D01*
X59477Y8165D02*
X59483Y8073D01*
X59472Y8241D02*
X59477Y8165D01*
X59318Y8454D02*
X59323Y8384D01*
X59351Y8465D02*
X59399Y8383D01*
X59455Y8376D02*
X59461Y8348D01*
X59447Y8386D02*
X59493Y8466D01*
X59401Y8376D02*
X59407Y8348D01*
X59461Y8348D02*
X59467Y8302D01*
X59449Y8386D02*
X59455Y8376D01*
X59397Y8386D02*
X59448D01*
X59323Y8384D02*
X59329Y8297D01*
X59398Y8381D02*
X59401Y8376D01*
X59407Y8348D02*
X59413Y8302D01*
X59418Y8241D02*
X59423Y8165D01*
X59413Y8302D02*
X59418Y8241D01*
X59467Y8302D02*
X59472Y8241D01*
X58445Y8355D02*
Y8428D01*
X58653Y8359D02*
X58654D01*
X58646Y8358D02*
X58654Y8359D01*
X58627Y8356D02*
X58646Y8358D01*
X58598Y8354D02*
X58627Y8356D01*
X58445Y8355D02*
X58489Y8353D01*
X58561Y8353D02*
X58598Y8354D01*
X58489Y8353D02*
X58531Y8352D01*
Y8352D02*
X58561Y8353D01*
X58531Y6259D02*
X58561Y6258D01*
X58489Y6258D02*
X58531Y6259D01*
X58561Y6258D02*
X58598Y6257D01*
X58445Y6256D02*
X58489Y6258D01*
X58598Y6257D02*
X58627Y6255D01*
X58646Y6253D01*
X58654Y6253D01*
X58653D02*
X58654D01*
X58445Y6183D02*
Y6256D01*
X55689Y6183D02*
X58445D01*
X55689Y8428D02*
X58445D01*
X55689Y6183D02*
Y8428D01*
X60168Y18581D02*
X60174Y18458D01*
X59979Y18556D02*
X59985Y18464D01*
X59890Y18581D02*
X59896Y18457D01*
X60134Y18581D02*
X60140Y18457D01*
X60051Y18237D02*
X60057Y18107D01*
X59997Y18237D02*
X60003Y18107D01*
X59868Y18319D02*
X59874Y18170D01*
X59991Y18357D02*
X59997Y18237D01*
X60044Y18357D02*
X60051Y18237D01*
X59902Y18319D02*
X59908Y18170D01*
X59896Y18457D02*
X59902Y18319D01*
X59985Y18464D02*
X59991Y18357D01*
X59862Y18457D02*
X59868Y18319D01*
X60038Y18464D02*
X60044Y18357D01*
X60146Y18319D02*
X60152Y18170D01*
X60180Y18319D02*
X60186Y18170D01*
X60140Y18457D02*
X60146Y18319D01*
X60174Y18458D02*
X60180Y18319D01*
X60128Y18688D02*
X60134Y18581D01*
X60157Y18775D02*
X60162Y18688D01*
X60168Y18581D01*
X60123Y18775D02*
X60128Y18688D01*
X59859Y18939D02*
X59907Y18857D01*
X59955Y18774D01*
X60002Y18777D02*
X60049Y18857D01*
X59953Y18777D02*
X60004D01*
X59879Y18775D02*
X59884Y18688D01*
X59890Y18581D01*
X60010Y18767D02*
X60016Y18739D01*
X60004Y18777D02*
X60010Y18767D01*
X60022Y18693D02*
X60027Y18632D01*
X60033Y18556D01*
X59963Y18739D02*
X59968Y18693D01*
X59974Y18632D01*
X59957Y18767D02*
X59963Y18739D01*
X59974Y18632D02*
X59979Y18556D01*
X60016Y18739D02*
X60022Y18693D01*
X59954Y18772D02*
X59957Y18767D01*
X60033Y18556D02*
X60038Y18464D01*
X60098Y18942D02*
X60133D01*
X60112Y18898D02*
X60117Y18845D01*
X60133Y18942D02*
X60140Y18931D01*
X60100Y18942D02*
X60106Y18931D01*
X60117Y18845D02*
X60123Y18775D01*
X60097Y18937D02*
X60100Y18942D01*
X60106Y18931D02*
X60112Y18898D01*
X60049Y18857D02*
X60096Y18940D01*
X60146Y18898D02*
X60151Y18845D01*
X60157Y18775D01*
X60184Y18857D02*
X60232Y18774D01*
X60140Y18931D02*
X60146Y18898D01*
X60136Y18940D02*
X60184Y18857D01*
X59123Y18767D02*
X59129Y18739D01*
X59135Y18693D02*
X59140Y18632D01*
X59146Y18556D01*
X59151Y18464D01*
X59129Y18739D02*
X59135Y18693D01*
X59157Y18357D02*
X59163Y18237D01*
X59151Y18464D02*
X59157Y18357D01*
X59177Y18767D02*
X59183Y18739D01*
X59171Y18777D02*
X59177Y18767D01*
X59074Y18857D02*
X59121Y18774D01*
X59120Y18777D02*
X59171D01*
X59041Y18845D02*
X59046Y18775D01*
X59120Y18772D02*
X59123Y18767D01*
X59169Y18777D02*
X59215Y18856D01*
X59046Y18775D02*
X59051Y18688D01*
X59035Y18898D02*
X59041Y18845D01*
X59029Y18931D02*
X59035Y18898D01*
X59023Y18942D02*
X59029Y18931D01*
X59026Y18939D02*
X59074Y18857D01*
X59300Y18581D02*
X59306Y18457D01*
X59284Y18845D02*
X59289Y18775D01*
X59266Y18942D02*
X59272Y18931D01*
X59306Y18931D02*
X59312Y18898D01*
X59300Y18942D02*
X59306Y18931D01*
X59289Y18775D02*
X59295Y18688D01*
X59272Y18931D02*
X59278Y18898D01*
X59284Y18845D01*
X59263Y18936D02*
X59266Y18942D01*
X59215Y18856D02*
X59263Y18939D01*
X59295Y18688D02*
X59300Y18581D01*
X59194Y18632D02*
X59199Y18556D01*
X59183Y18739D02*
X59189Y18693D01*
X59194Y18632D01*
X59199Y18556D02*
X59205Y18464D01*
X59176Y17972D02*
X59181Y17833D01*
X59217Y18237D02*
X59223Y18107D01*
X59163Y18237D02*
X59170Y18107D01*
X59211Y18357D02*
X59217Y18237D01*
X59223Y18107D02*
X59229Y17971D01*
X59235Y17833D01*
X59170Y18107D02*
X59176Y17972D01*
X59205Y18464D02*
X59211Y18357D01*
X59047Y18013D02*
X59053Y17854D01*
X59041Y18170D02*
X59047Y18013D01*
X59081Y18013D02*
X59087Y17854D01*
X59075Y18170D02*
X59081Y18013D01*
X59035Y18319D02*
X59041Y18170D01*
X59069Y18319D02*
X59075Y18170D01*
X59022Y18581D02*
X59028Y18457D01*
X59063Y18458D02*
X59069Y18319D01*
X59028Y18457D02*
X59035Y18319D01*
X59057Y18581D02*
X59063Y18458D01*
X59051Y18688D02*
X59057Y18581D01*
X59144Y16548D02*
X59149Y16495D01*
X59099Y16706D02*
X59104Y16618D01*
X59133Y16706D02*
X59138Y16618D01*
X59144Y16548D01*
X59161Y16451D02*
X59164Y16456D01*
X59212Y16536D02*
X59259Y16616D01*
X59077Y16536D02*
X59124Y16453D01*
X59104Y16618D02*
X59109Y16548D01*
X59115Y16495D02*
X59121Y16462D01*
X59109Y16548D02*
X59115Y16495D01*
X59149Y16495D02*
X59155Y16462D01*
X59121Y16462D02*
X59127Y16451D01*
X59127Y16451D02*
X59161D01*
X59155Y16462D02*
X59162Y16451D01*
X59164Y16453D02*
X59212Y16536D01*
X59250Y16626D02*
X59256Y16616D01*
X59216Y17037D02*
X59222Y16929D01*
X59228Y16837D01*
X59244Y16654D02*
X59250Y16626D01*
X59238Y16700D02*
X59244Y16654D01*
X59228Y16837D02*
X59233Y16761D01*
X59210Y17157D02*
X59216Y17037D01*
X59233Y16761D02*
X59238Y16700D01*
X59127Y16812D02*
X59133Y16706D01*
X59121Y16936D02*
X59127Y16812D01*
X59087Y16936D02*
X59093Y16812D01*
X59099Y16706D01*
X59109Y17223D02*
X59115Y17074D01*
X59121Y16936D01*
X59081Y17074D02*
X59087Y16936D01*
X59075Y17223D02*
X59081Y17074D01*
X59069Y17380D02*
X59075Y17223D01*
X59103Y17380D02*
X59109Y17223D01*
X59204Y17286D02*
X59210Y17157D01*
X59092Y17697D02*
X59097Y17539D01*
X59192Y17560D02*
X59198Y17422D01*
X59240Y17697D02*
X59246Y17560D01*
X59198Y17422D02*
X59204Y17286D01*
X59097Y17539D02*
X59103Y17380D01*
X59246Y17560D02*
X59251Y17422D01*
X59257Y17286D01*
X59087Y17854D02*
X59092Y17697D01*
X59181Y17833D02*
X59187Y17697D01*
X59192Y17560D01*
X60767Y18104D02*
Y18180D01*
Y16945D02*
Y17006D01*
Y17071D01*
Y17140D02*
Y17213D01*
X60508Y16975D02*
Y17038D01*
Y17105D01*
Y17176D02*
Y17250D01*
Y17328D02*
Y17407D01*
Y17250D02*
Y17328D01*
Y17105D02*
Y17176D01*
Y17407D02*
Y17489D01*
Y17571D02*
Y17655D01*
Y17738D01*
Y16660D02*
Y16679D01*
Y16703D01*
Y16649D02*
Y16660D01*
Y16644D02*
Y16644D01*
Y16649D01*
Y16862D02*
Y16916D01*
Y16814D02*
Y16862D01*
Y16916D02*
Y16975D01*
Y16771D02*
Y16814D01*
Y16703D02*
Y16734D01*
Y16771D01*
X60767Y16752D02*
Y16792D01*
Y16644D02*
Y16645D01*
X60508Y16644D02*
X60768D01*
X60767Y16690D02*
Y16718D01*
X60768Y16644D02*
X60807Y16683D01*
X60767Y16718D02*
Y16752D01*
Y16645D02*
Y16654D01*
Y16669D01*
Y16690D01*
Y16888D02*
Y16945D01*
Y17071D02*
Y17140D01*
Y16792D02*
Y16837D01*
Y17213D02*
Y17289D01*
Y18026D02*
Y18104D01*
Y17367D02*
Y17448D01*
Y17530D02*
Y17613D01*
Y17289D02*
Y17367D01*
Y17780D02*
Y17863D01*
Y17945D01*
Y17613D02*
Y17697D01*
Y17697D02*
Y17780D01*
Y16837D02*
Y16888D01*
Y17945D02*
Y18026D01*
Y17448D02*
Y17530D01*
X60807Y16683D02*
Y18710D01*
X60257Y18556D02*
X60262Y18464D01*
X60508Y18659D02*
Y18690D01*
X60251Y18632D02*
X60257Y18556D01*
X60310Y18556D02*
X60316Y18464D01*
X60246Y18693D02*
X60251Y18632D01*
X60305Y18632D02*
X60310Y18556D01*
X60400Y18710D02*
X60402Y18643D01*
X60404Y18569D02*
X60406Y18491D01*
X60402Y18643D02*
X60404Y18569D01*
X60508Y18477D02*
Y18531D01*
Y18622D02*
Y18659D01*
Y18531D02*
Y18579D01*
X60300Y18693D02*
X60305Y18632D01*
X60240Y18739D02*
X60246Y18693D01*
X60294Y18739D02*
X60300Y18693D01*
X60322Y18357D02*
X60328Y18237D01*
X60334Y18107D01*
X60275Y18237D02*
X60281Y18107D01*
X60316Y18464D02*
X60322Y18357D01*
X60262Y18464D02*
X60268Y18357D01*
X60275Y18237D01*
X60412Y18221D02*
X60414Y18126D01*
X60408Y18407D02*
X60410Y18316D01*
X60406Y18491D02*
X60408Y18407D01*
X60410Y18316D02*
X60412Y18221D01*
X60508Y18143D02*
Y18217D01*
Y18419D02*
Y18477D01*
Y18217D02*
Y18288D01*
Y18355D01*
Y18419D01*
X60288Y18767D02*
X60294Y18739D01*
X60231Y18777D02*
X60282D01*
X60231Y18772D02*
X60234Y18767D01*
X60240Y18739D01*
X60282Y18777D02*
X60288Y18767D01*
X60280Y18777D02*
X60326Y18857D01*
X60767Y18724D02*
Y18739D01*
Y18322D02*
Y18388D01*
Y18641D02*
Y18675D01*
Y18703D01*
Y18448D02*
Y18505D01*
Y18253D02*
Y18322D01*
Y18180D02*
Y18253D01*
Y18556D02*
Y18601D01*
Y18505D02*
Y18556D01*
Y18703D02*
Y18724D01*
Y18388D02*
Y18448D01*
X60508Y18579D02*
Y18622D01*
Y18690D02*
Y18714D01*
X60767Y18601D02*
Y18641D01*
X60508Y18749D02*
Y18749D01*
X60767Y18748D02*
Y18749D01*
X60508Y18733D02*
Y18744D01*
Y18714D02*
Y18733D01*
X60768Y18749D02*
X60807Y18710D01*
X60508Y18749D02*
X60768D01*
X60767Y18739D02*
Y18748D01*
X60508Y18744D02*
Y18749D01*
X60399Y18768D02*
X60400Y18710D01*
X60393Y18871D02*
X60397Y18819D01*
X60397Y18942D02*
X60508Y18749D01*
X60397Y18819D02*
Y18847D01*
X60397Y18819D02*
X60399Y18768D01*
X60376Y18942D02*
X60396D01*
X60397Y18934D02*
Y18940D01*
Y18924D02*
Y18934D01*
X60326Y18857D02*
X60374Y18940D01*
X60377Y18942D02*
X60383Y18934D01*
X60397Y18893D02*
Y18911D01*
X60383Y18934D02*
X60388Y18910D01*
X60397Y18940D02*
Y18942D01*
X60375Y18937D02*
X60377Y18942D01*
X60388Y18910D02*
X60393Y18871D01*
X60397Y18872D02*
Y18893D01*
Y18911D02*
Y18924D01*
Y18847D02*
Y18872D01*
X59354Y16536D02*
X59402Y16453D01*
X59387Y16548D02*
X59393Y16495D01*
X59307Y16618D02*
X59354Y16536D01*
X59382Y16618D02*
X59387Y16548D01*
X59399Y16462D02*
X59405Y16451D01*
X59393Y16495D02*
X59399Y16462D01*
X59433Y16462D02*
X59439Y16451D01*
X59442Y16456D01*
X59404Y16451D02*
X59438D01*
X59421Y16548D02*
X59427Y16495D01*
X59442Y16453D02*
X59490Y16536D01*
X59427Y16495D02*
X59433Y16462D01*
X59416Y16618D02*
X59421Y16548D01*
X59405Y16812D02*
X59411Y16706D01*
X59377Y16706D02*
X59382Y16618D01*
X59287Y16761D02*
X59292Y16700D01*
X59365Y16936D02*
X59371Y16812D01*
X59304Y16626D02*
X59307Y16621D01*
X59257Y16616D02*
X59308D01*
X59298Y16654D02*
X59304Y16626D01*
X59292Y16700D02*
X59298Y16654D01*
X59411Y16706D02*
X59416Y16618D01*
X59276Y16929D02*
X59281Y16837D01*
X59287Y16761D01*
X59399Y16936D02*
X59405Y16812D01*
X59371Y16812D02*
X59377Y16706D01*
X59263Y17156D02*
X59270Y17036D01*
X59257Y17286D02*
X59263Y17156D01*
X59270Y17036D02*
X59276Y16929D01*
X59768Y16536D02*
X59814Y16616D01*
X59831Y16929D02*
X59837Y16837D01*
X59778Y16929D02*
X59783Y16837D01*
X59772Y17037D02*
X59778Y16929D01*
X59783Y16837D02*
X59788Y16761D01*
X59825Y17036D02*
X59831Y16929D01*
X59837Y16837D02*
X59842Y16761D01*
X59794Y16700D02*
X59799Y16654D01*
X59805Y16626D02*
X59812Y16616D01*
X59812Y16616D02*
X59863D01*
X59799Y16654D02*
X59805Y16626D01*
X59788Y16761D02*
X59794Y16700D01*
X59711Y16463D02*
X59717Y16451D01*
X59705Y16495D02*
X59711Y16463D01*
X59677Y16462D02*
X59683Y16451D01*
X59683Y16451D02*
X59717D01*
X59717Y16451D02*
X59720Y16457D01*
X59720Y16454D02*
X59768Y16536D01*
X59660Y16618D02*
X59665Y16548D01*
X59632Y16536D02*
X59680Y16454D01*
X59671Y16495D02*
X59677Y16462D01*
X59665Y16548D02*
X59671Y16495D01*
X59699Y16548D02*
X59705Y16495D01*
X59694Y16618D02*
X59699Y16548D01*
X59584Y16619D02*
X59632Y16536D01*
X59341Y17539D02*
X59347Y17380D01*
X59336Y17697D02*
X59341Y17539D01*
X59523Y17560D02*
X59529Y17422D01*
X59470Y17560D02*
X59475Y17422D01*
X59370Y17697D02*
X59375Y17539D01*
X59381Y17380D01*
X59518Y17697D02*
X59523Y17560D01*
X59648Y17697D02*
X59653Y17539D01*
X59613Y17697D02*
X59619Y17539D01*
X59624Y17380D01*
X59653Y17539D02*
X59659Y17380D01*
X59747Y17560D02*
X59753Y17422D01*
X59575Y16654D02*
X59581Y16626D01*
X59654Y16706D02*
X59660Y16618D01*
X59581Y16626D02*
X59584Y16622D01*
X59564Y16761D02*
X59570Y16700D01*
X59689Y16706D02*
X59694Y16618D01*
X59535Y16616D02*
X59586D01*
X59570Y16700D02*
X59575Y16654D01*
X59677Y16936D02*
X59683Y16812D01*
X59689Y16706D01*
X59649Y16812D02*
X59654Y16706D01*
X59643Y16936D02*
X59649Y16812D01*
X59559Y16837D02*
X59564Y16761D01*
X59516Y16700D02*
X59522Y16654D01*
X59511Y16761D02*
X59516Y16700D01*
X59528Y16626D02*
X59534Y16616D01*
X59490Y16536D02*
X59536Y16616D01*
X59553Y16929D02*
X59559Y16837D01*
X59505Y16837D02*
X59511Y16761D01*
X59500Y16929D02*
X59505Y16837D01*
X59522Y16654D02*
X59528Y16626D01*
X59359Y17074D02*
X59365Y16936D01*
X59381Y17380D02*
X59387Y17223D01*
X59393Y17074D02*
X59399Y16936D01*
X59353Y17223D02*
X59359Y17074D01*
X59347Y17380D02*
X59353Y17223D01*
X59387Y17223D02*
X59393Y17074D01*
X59475Y17422D02*
X59481Y17286D01*
X59547Y17036D02*
X59553Y16929D01*
X59529Y17422D02*
X59535Y17286D01*
X59541Y17156D02*
X59547Y17036D01*
X59494Y17037D02*
X59500Y16929D01*
X59488Y17157D02*
X59494Y17037D01*
X59481Y17286D02*
X59488Y17157D01*
X59535Y17286D02*
X59541Y17156D01*
X59624Y17380D02*
X59630Y17223D01*
X59659Y17380D02*
X59665Y17223D01*
X59671Y17074D02*
X59677Y16936D01*
X59665Y17223D02*
X59671Y17074D01*
X59630Y17223D02*
X59637Y17074D01*
X59643Y16936D01*
X59753Y17422D02*
X59759Y17286D01*
X59765Y17157D02*
X59772Y17037D01*
X59759Y17286D02*
X59765Y17157D01*
X59807Y17422D02*
X59813Y17286D01*
X59819Y17156D01*
X59825Y17036D01*
X59026Y16626D02*
X59029Y16621D01*
X58935Y16536D02*
X58981Y16616D01*
X58972Y16626D02*
X58978Y16616D01*
X59020Y16654D02*
X59026Y16626D01*
X58979Y16616D02*
X59030D01*
X58916Y16575D02*
X58918Y16548D01*
X58907Y16819D02*
X58909Y16757D01*
X58911Y16700D01*
X58905Y16887D02*
X58907Y16819D01*
X58911Y16700D02*
X58912Y16650D01*
X58914Y16608D02*
X58916Y16575D01*
X58912Y16650D02*
X58914Y16608D01*
X58850Y16644D02*
Y16644D01*
X58654Y16644D02*
X58851D01*
X58966Y16654D02*
X58972Y16626D01*
X58960Y16700D02*
X58966Y16654D01*
X59014Y16700D02*
X59020Y16654D01*
X59009Y16761D02*
X59014Y16700D01*
X59004Y16837D02*
X59009Y16761D01*
X58998Y16929D02*
X59004Y16837D01*
X58955Y16761D02*
X58960Y16700D01*
X58950Y16837D02*
X58955Y16761D01*
X58944Y16929D02*
X58950Y16837D01*
X58850Y16916D02*
Y16975D01*
X58903Y16963D02*
X58905Y16887D01*
X58850Y16734D02*
Y16771D01*
Y16814D02*
Y16862D01*
Y16771D02*
Y16814D01*
Y16679D02*
Y16703D01*
Y16644D02*
Y16649D01*
Y16703D02*
Y16734D01*
Y16862D02*
Y16916D01*
Y16661D02*
Y16679D01*
Y16649D02*
Y16661D01*
X60421Y17721D02*
X60423Y17620D01*
X60351Y17697D02*
X60357Y17560D01*
X60298Y17697D02*
X60303Y17560D01*
X60423Y17620D02*
X60425Y17516D01*
X60357Y17560D02*
X60362Y17422D01*
X60303Y17560D02*
X60309Y17422D01*
X60425Y17516D02*
X60427Y17414D01*
X60508Y17489D02*
Y17571D01*
X60418Y17927D02*
X60419Y17823D01*
X60292Y17833D02*
X60298Y17697D01*
X60281Y18107D02*
X60287Y17972D01*
X60340Y17971D02*
X60346Y17833D01*
X60334Y18107D02*
X60340Y17971D01*
X60287Y17972D02*
X60292Y17833D01*
X60508Y18065D02*
Y18143D01*
Y17904D02*
Y17986D01*
Y17822D02*
Y17904D01*
Y17738D02*
Y17822D01*
X60419Y17823D02*
X60421Y17721D01*
X60508Y17986D02*
Y18065D01*
X60416Y18029D02*
X60418Y17927D01*
X60414Y18126D02*
X60416Y18029D01*
X60346Y17833D02*
X60351Y17697D01*
X60074Y17697D02*
X60079Y17560D01*
X60025Y17560D02*
X60031Y17422D01*
X60015Y17833D02*
X60020Y17697D01*
X60009Y17971D02*
X60015Y17833D01*
X60068Y17833D02*
X60074Y17697D01*
X60063Y17971D02*
X60068Y17833D01*
X60079Y17560D02*
X60085Y17422D01*
X60020Y17697D02*
X60025Y17560D01*
X60186Y18170D02*
X60192Y18013D01*
X60152Y18170D02*
X60158Y18013D01*
X60003Y18107D02*
X60009Y17971D01*
X60057Y18107D02*
X60063Y17971D01*
X60192Y18013D02*
X60198Y17854D01*
X60203Y17697D01*
X60174Y17539D02*
X60180Y17380D01*
X60164Y17854D02*
X60169Y17697D01*
X60158Y18013D02*
X60164Y17854D01*
X60169Y17697D02*
X60174Y17539D01*
X60208Y17539D02*
X60214Y17380D01*
X60203Y17697D02*
X60208Y17539D01*
X59801Y17560D02*
X59807Y17422D01*
X59930Y17539D02*
X59936Y17380D01*
X59896Y17539D02*
X59902Y17380D01*
X59886Y17854D02*
X59891Y17697D01*
X59920Y17854D02*
X59925Y17697D01*
X59930Y17539D01*
X59880Y18013D02*
X59886Y17854D01*
X59891Y17697D02*
X59896Y17539D01*
X59914Y18013D02*
X59920Y17854D01*
X59908Y18170D02*
X59914Y18013D01*
X59874Y18170D02*
X59880Y18013D01*
X58850Y18622D02*
Y18659D01*
Y18531D02*
Y18579D01*
Y18477D02*
Y18531D01*
Y18579D02*
Y18622D01*
Y18659D02*
Y18690D01*
X58985Y18937D02*
X58988Y18942D01*
X58937Y18856D02*
X58985Y18939D01*
X58988Y18942D02*
X59023D01*
X59001Y18898D02*
X59006Y18845D01*
X58988Y18942D02*
X58995Y18931D01*
X59001Y18898D01*
X59006Y18845D02*
X59012Y18775D01*
X59017Y18688D02*
X59022Y18581D01*
X59012Y18775D02*
X59017Y18688D01*
X58851Y18749D02*
X58867Y18777D01*
X58850Y18733D02*
Y18744D01*
Y18690D02*
Y18715D01*
Y18733D01*
Y18749D02*
Y18750D01*
Y18744D02*
Y18749D01*
X58654Y18749D02*
X58851D01*
X59029Y16619D02*
X59077Y16536D01*
X59058Y17697D02*
X59063Y17539D01*
X59069Y17380D01*
X59053Y17854D02*
X59058Y17697D01*
X58866Y18588D02*
X58869Y18530D01*
X58875Y18299D02*
X58877Y18222D01*
X58871Y18441D02*
X58873Y18373D01*
X58873Y18464D02*
X58879Y18357D01*
X58873Y18373D02*
X58875Y18299D01*
X58879Y18357D02*
X58886Y18237D01*
X58869Y18530D02*
X58873Y18464D01*
X58866Y18588D02*
X58868Y18519D01*
X58871Y18441D01*
X58850Y18419D02*
Y18477D01*
Y18288D02*
Y18356D01*
Y18419D01*
X58916Y18632D02*
X58921Y18556D01*
X58927Y18464D02*
X58933Y18357D01*
X58939Y18237D01*
X58921Y18556D02*
X58927Y18464D01*
X58890Y17583D02*
X58892Y17489D01*
X58884Y17870D02*
X58886Y17777D01*
X58883Y17961D02*
X58884Y17870D01*
X58898Y17972D02*
X58904Y17833D01*
X58909Y17697D01*
X58888Y17680D02*
X58890Y17583D01*
X58886Y17777D02*
X58888Y17680D01*
X58850Y17739D02*
Y17822D01*
Y18217D02*
Y18288D01*
Y17986D02*
Y18066D01*
Y18143D01*
Y17822D02*
Y17905D01*
Y18143D02*
Y18217D01*
Y17571D02*
Y17655D01*
Y17905D02*
Y17986D01*
Y17655D02*
Y17739D01*
X58992Y17037D02*
X58998Y16929D01*
X58973Y17422D02*
X58980Y17286D01*
X58986Y17156D01*
X58992Y17037D01*
X58968Y17560D02*
X58973Y17422D01*
X58891Y18777D02*
X58937Y18856D01*
X58866Y18588D02*
Y18634D01*
X58899Y18767D02*
X58905Y18739D01*
X58866Y18708D02*
Y18735D01*
Y18756D01*
X58867Y18777D02*
X58893D01*
X58866Y18674D02*
Y18708D01*
X58893Y18777D02*
X58899Y18767D01*
X58866Y18776D02*
Y18777D01*
Y18769D02*
Y18776D01*
X58905Y18739D02*
X58911Y18693D01*
X58866Y18756D02*
Y18769D01*
Y18634D02*
Y18674D01*
X58911Y18693D02*
X58916Y18632D01*
X58922Y16520D02*
X58922Y16520D01*
X58918Y16548D02*
X58920Y16530D01*
X58922Y16520D01*
X58850Y17038D02*
Y17105D01*
Y17328D02*
Y17407D01*
Y17105D02*
Y17176D01*
X58892Y17489D02*
X58893Y17396D01*
X58850Y16975D02*
Y17038D01*
Y17407D02*
Y17489D01*
Y17571D01*
X58877Y18222D02*
X58879Y18142D01*
X58892Y18107D02*
X58898Y17972D01*
X58946Y18107D02*
X58952Y17971D01*
X58881Y18053D02*
X58883Y17961D01*
X58879Y18142D02*
X58881Y18053D01*
X58952Y17971D02*
X58957Y17833D01*
X58886Y18237D02*
X58892Y18107D01*
X58939Y18237D02*
X58946Y18107D01*
X58957Y17833D02*
X58963Y17697D01*
X58968Y17560D01*
X58909Y17697D02*
X58914Y17560D01*
X58920Y17422D01*
X58932Y17157D02*
X58938Y17037D01*
X58926Y17286D02*
X58932Y17157D01*
X58938Y17037D02*
X58944Y16929D01*
X58920Y17422D02*
X58926Y17286D01*
X58895Y17302D02*
X58897Y17212D01*
X58893Y17396D02*
X58895Y17302D01*
X58897Y17212D02*
X58899Y17126D01*
X58901Y17045D01*
X58903Y16963D01*
X58850Y17251D02*
Y17328D01*
Y17176D02*
Y17251D01*
X58925Y16519D02*
X58935Y16536D01*
X58851Y16644D02*
X58923Y16519D01*
X60362Y17422D02*
X60368Y17286D01*
X60309Y17422D02*
X60315Y17286D01*
X60091Y17286D02*
X60097Y17156D01*
X60037Y17286D02*
X60043Y17157D01*
X60180Y17380D02*
X60186Y17223D01*
X60315Y17286D02*
X60321Y17157D01*
X60186Y17223D02*
X60192Y17074D01*
X60220Y17223D02*
X60226Y17074D01*
X60214Y17380D02*
X60220Y17223D01*
X60031Y17422D02*
X60037Y17286D01*
X59936Y17380D02*
X59942Y17223D01*
X59908Y17223D02*
X59914Y17074D01*
X60368Y17286D02*
X60375Y17156D01*
X59902Y17380D02*
X59908Y17223D01*
X60085Y17422D02*
X60091Y17286D01*
X59942Y17223D02*
X59948Y17074D01*
X60436Y16974D02*
X60438Y16901D01*
X60435Y17052D02*
X60436Y16974D01*
X60432Y17138D02*
X60435Y17052D01*
X60438Y16901D02*
X60440Y16832D01*
X60427Y17414D02*
X60429Y17320D01*
X60431Y17228D02*
X60432Y17138D01*
X60429Y17320D02*
X60431Y17228D01*
X59862Y16619D02*
X59909Y16537D01*
X59859Y16626D02*
X59862Y16622D01*
X59847Y16700D02*
X59853Y16654D01*
X59859Y16626D01*
X59842Y16761D02*
X59847Y16700D01*
X59927Y16812D02*
X59932Y16706D01*
X59966Y16706D02*
X59971Y16618D01*
X59960Y16812D02*
X59966Y16706D01*
X59932Y16706D02*
X59938Y16618D01*
X59971Y16618D02*
X59977Y16548D01*
X59938Y16618D02*
X59943Y16548D01*
X60393Y16837D02*
X60398Y16761D01*
X60442Y16770D02*
X60444Y16716D01*
X60238Y16812D02*
X60244Y16706D01*
X60339Y16837D02*
X60344Y16761D01*
X60204Y16812D02*
X60210Y16706D01*
X60398Y16761D02*
X60403Y16700D01*
X60440Y16832D02*
X60442Y16770D01*
X60444Y16716D02*
X60446Y16669D01*
X60344Y16761D02*
X60349Y16700D01*
X60355Y16654D01*
X60368Y16616D02*
X60419D01*
X60409Y16654D02*
X60415Y16626D01*
X60403Y16700D02*
X60409Y16654D01*
X60355Y16654D02*
X60361Y16626D01*
X60367Y16616D01*
X59977Y16548D02*
X59982Y16495D01*
X59988Y16462D02*
X59995Y16451D01*
X60266Y16462D02*
X60272Y16451D01*
X60237Y16451D02*
X60272D01*
X60275Y16457D01*
X60260Y16495D02*
X60266Y16462D01*
X60275Y16454D02*
X60323Y16536D01*
X59998Y16454D02*
X60046Y16536D01*
X59955Y16462D02*
X59961Y16451D01*
X59959Y16451D02*
X59994D01*
X59949Y16495D02*
X59955Y16462D01*
X59909Y16537D02*
X59957Y16454D01*
X59982Y16495D02*
X59988Y16462D01*
X59943Y16548D02*
X59949Y16495D01*
X59995Y16451D02*
X59997Y16457D01*
X59914Y17074D02*
X59921Y16936D01*
X60055Y16929D02*
X60061Y16837D01*
X60043Y17157D02*
X60049Y17037D01*
X60055Y16929D01*
X60097Y17156D02*
X60103Y17036D01*
X59948Y17074D02*
X59954Y16936D01*
X60192Y17074D02*
X60198Y16936D01*
X60232Y16936D02*
X60238Y16812D01*
X60198Y16936D02*
X60204Y16812D01*
X60226Y17074D02*
X60232Y16936D01*
X60103Y17036D02*
X60109Y16929D01*
X59921Y16936D02*
X59927Y16812D01*
X59954Y16936D02*
X59960Y16812D01*
X60457Y16555D02*
X60508Y16644D01*
X60446Y16669D02*
X60447Y16629D01*
X60417Y16619D02*
X60454Y16554D01*
X60415Y16626D02*
X60418Y16622D01*
X60447Y16629D02*
X60449Y16597D01*
X60451Y16574D01*
X60453Y16560D01*
X60455Y16554D01*
X60456Y16555D01*
X60221Y16548D02*
X60226Y16495D01*
X60232Y16462D02*
X60238Y16451D01*
X60226Y16495D02*
X60232Y16462D01*
X60187Y16537D02*
X60235Y16454D01*
X60254Y16548D02*
X60260Y16495D01*
X60090Y16616D02*
X60141D01*
X60046Y16536D02*
X60092Y16616D01*
X60137Y16626D02*
X60140Y16622D01*
X60077Y16654D02*
X60083Y16626D01*
X60139Y16619D02*
X60187Y16537D01*
X60131Y16654D02*
X60137Y16626D01*
X60125Y16700D02*
X60131Y16654D01*
X60083Y16626D02*
X60089Y16616D01*
X60072Y16700D02*
X60077Y16654D01*
X60387Y16929D02*
X60393Y16837D01*
X60375Y17156D02*
X60381Y17036D01*
X60327Y17037D02*
X60333Y16929D01*
X60339Y16837D01*
X60381Y17036D02*
X60387Y16929D01*
X60321Y17157D02*
X60327Y17037D01*
X60210Y16706D02*
X60215Y16618D01*
X60221Y16548D01*
X60249Y16618D02*
X60254Y16548D01*
X60244Y16706D02*
X60249Y16618D01*
X60323Y16536D02*
X60369Y16616D01*
X60109Y16929D02*
X60115Y16837D01*
X60061Y16837D02*
X60066Y16761D01*
X60115Y16837D02*
X60120Y16761D01*
X60066Y16761D02*
X60072Y16700D01*
X60120Y16761D02*
X60125Y16700D01*
X59840Y18845D02*
X59845Y18775D01*
X59724Y18777D02*
X59771Y18856D01*
X59822Y18942D02*
X59828Y18931D01*
X59834Y18898D02*
X59840Y18845D01*
X59862Y18931D02*
X59868Y18898D01*
X59771Y18856D02*
X59818Y18939D01*
X59819Y18936D02*
X59822Y18942D01*
X59868Y18898D02*
X59874Y18845D01*
X59821Y18942D02*
X59855D01*
X59828Y18931D02*
X59834Y18898D01*
X59856Y18942D02*
X59862Y18931D01*
X59856Y18581D02*
X59862Y18457D01*
X59874Y18845D02*
X59879Y18775D01*
X59845Y18775D02*
X59850Y18688D01*
X59856Y18581D01*
X59235Y17833D02*
X59240Y17697D01*
X59319Y18170D02*
X59325Y18013D01*
X59340Y18457D02*
X59346Y18319D01*
X59364Y17854D02*
X59370Y17697D01*
X59330Y17854D02*
X59336Y17697D01*
X59325Y18013D02*
X59330Y17854D01*
X59334Y18581D02*
X59340Y18457D01*
X59346Y18319D02*
X59353Y18170D01*
X59306Y18457D02*
X59312Y18319D01*
X59353Y18170D02*
X59359Y18013D01*
X59312Y18319D02*
X59319Y18170D01*
X59359Y18013D02*
X59364Y17854D01*
X59329Y18688D02*
X59334Y18581D01*
X59489Y18357D02*
X59495Y18237D01*
X59513Y17833D02*
X59518Y17697D01*
X59459Y17833D02*
X59464Y17697D01*
X59470Y17560D01*
X59441Y18237D02*
X59447Y18107D01*
X59495Y18237D02*
X59501Y18107D01*
X59435Y18357D02*
X59441Y18237D01*
X59501Y18107D02*
X59507Y17971D01*
X59513Y17833D01*
X59447Y18107D02*
X59453Y17972D01*
X59459Y17833D01*
X59429Y18464D02*
X59435Y18357D01*
X59483Y18464D02*
X59489Y18357D01*
X59742Y17697D02*
X59747Y17560D01*
X59737Y17833D02*
X59742Y17697D01*
X59731Y17971D02*
X59737Y17833D01*
X59796Y17697D02*
X59801Y17560D01*
X59779Y18107D02*
X59785Y17971D01*
X59725Y18107D02*
X59731Y17971D01*
X59791Y17833D02*
X59796Y17697D01*
X59785Y17971D02*
X59791Y17833D01*
X59679Y18767D02*
X59685Y18739D01*
X59629Y18856D02*
X59677Y18774D01*
X59596Y18845D02*
X59601Y18775D01*
X59607Y18688D01*
X59608Y17854D02*
X59613Y17697D01*
X59590Y18319D02*
X59596Y18170D01*
X59602Y18013D02*
X59608Y17854D01*
X59631Y18170D02*
X59637Y18013D01*
X59596Y18170D02*
X59602Y18013D01*
X59624Y18319D02*
X59631Y18170D01*
X59637Y18013D02*
X59642Y17854D01*
X59648Y17697D01*
X59773Y18237D02*
X59779Y18107D01*
X59707Y18464D02*
X59713Y18357D01*
X59719Y18237D01*
X59761Y18464D02*
X59767Y18357D01*
X59719Y18237D02*
X59725Y18107D01*
X59767Y18357D02*
X59773Y18237D01*
X59739Y18739D02*
X59744Y18693D01*
X59676Y18772D02*
X59679Y18767D01*
X59685Y18739D02*
X59691Y18693D01*
X59744Y18693D02*
X59750Y18632D01*
X59733Y18767D02*
X59739Y18739D01*
X59726Y18777D02*
X59733Y18767D01*
X59691Y18693D02*
X59696Y18632D01*
X59675Y18777D02*
X59726D01*
X59265Y18942D02*
X59300D01*
X59581Y18939D02*
X59629Y18856D01*
X59578Y18942D02*
X59584Y18931D01*
X59590Y18898D02*
X59596Y18845D01*
X59493Y18857D02*
X59541Y18939D01*
X59550Y18931D02*
X59556Y18898D01*
X59541Y18937D02*
X59544Y18942D01*
X59584Y18931D02*
X59590Y18898D01*
X59544Y18942D02*
X59550Y18931D01*
X59544Y18942D02*
X59578D01*
X59303Y18939D02*
X59351Y18856D01*
X59312Y18898D02*
X59318Y18845D01*
X59607Y18688D02*
X59612Y18581D01*
X59578Y18581D02*
X59584Y18457D01*
X59572Y18688D02*
X59578Y18581D01*
X59612Y18581D02*
X59618Y18458D01*
X59584Y18457D02*
X59590Y18319D01*
X59618Y18458D02*
X59624Y18319D01*
X59701Y18556D02*
X59707Y18464D01*
X59696Y18632D02*
X59701Y18556D01*
X59750Y18632D02*
X59755Y18556D01*
X59761Y18464D01*
X59567Y18775D02*
X59572Y18688D01*
X59556Y18898D02*
X59562Y18845D01*
X59567Y18775D01*
X59423Y18556D02*
X59429Y18464D01*
X59477Y18556D02*
X59483Y18464D01*
X59472Y18632D02*
X59477Y18556D01*
X59318Y18845D02*
X59323Y18775D01*
X59351Y18856D02*
X59399Y18774D01*
X59455Y18767D02*
X59461Y18739D01*
X59447Y18777D02*
X59493Y18857D01*
X59401Y18767D02*
X59407Y18739D01*
X59461Y18739D02*
X59467Y18693D01*
X59449Y18777D02*
X59455Y18767D01*
X59397Y18777D02*
X59448D01*
X59323Y18775D02*
X59329Y18688D01*
X59398Y18772D02*
X59401Y18767D01*
X59407Y18739D02*
X59413Y18693D01*
X59418Y18632D02*
X59423Y18556D01*
X59413Y18693D02*
X59418Y18632D01*
X59467Y18693D02*
X59472Y18632D01*
X58445Y18746D02*
Y18819D01*
X58653Y18749D02*
X58654D01*
X58646Y18749D02*
X58654Y18749D01*
X58627Y18747D02*
X58646Y18749D01*
X58598Y18745D02*
X58627Y18747D01*
X58445Y18746D02*
X58489Y18744D01*
X58561Y18744D02*
X58598Y18745D01*
X58489Y18744D02*
X58531Y18743D01*
Y18743D02*
X58561Y18744D01*
X58531Y16650D02*
X58561Y16649D01*
X58489Y16649D02*
X58531Y16650D01*
X58561Y16649D02*
X58598Y16648D01*
X58445Y16647D02*
X58489Y16649D01*
X58598Y16648D02*
X58627Y16646D01*
X58646Y16644D01*
X58654Y16643D01*
X58653D02*
X58654D01*
X58445Y16574D02*
Y16647D01*
X55689Y16574D02*
X58445D01*
X55689Y18819D02*
X58445D01*
X55689Y16574D02*
Y18819D01*
X28010Y3633D02*
X28518D01*
Y3122D02*
Y3633D01*
X28010Y3122D02*
X28518D01*
X28010D02*
Y3633D01*
Y6023D02*
Y6535D01*
Y6023D02*
X28518D01*
Y6535D01*
X28010D02*
X28518D01*
X33366Y759D02*
Y1429D01*
X33957D01*
Y759D02*
Y1429D01*
X33366Y759D02*
X33957D01*
X33228Y7204D02*
X33858D01*
Y6614D02*
Y7204D01*
X33228Y6614D02*
X33858D01*
X33228D02*
Y7204D01*
X31555Y7208D02*
X31870D01*
Y6547D02*
Y7208D01*
X31555Y6547D02*
Y7208D01*
Y6547D02*
X31870D01*
X31988D02*
X32303D01*
X31988D02*
Y7208D01*
X32303Y6547D02*
Y7208D01*
X31988D02*
X32303D01*
X30256D02*
X30571D01*
Y6547D02*
Y7208D01*
X30256Y6547D02*
Y7208D01*
Y6547D02*
X30571D01*
X30689D02*
X31004D01*
X30689D02*
Y7208D01*
X31004Y6547D02*
Y7208D01*
X30689D02*
X31004D01*
X31122Y6547D02*
X31437D01*
X31122D02*
Y7208D01*
X31437Y6547D02*
Y7208D01*
X31122D02*
X31437D01*
X29823D02*
X30138D01*
Y6547D02*
Y7208D01*
X29823Y6547D02*
Y7208D01*
Y6547D02*
X30138D01*
X29390Y7208D02*
X29705D01*
Y6547D02*
Y7208D01*
X29390Y6547D02*
Y7208D01*
Y6547D02*
X29705D01*
X28957D02*
X29272D01*
X28244Y6614D02*
Y7204D01*
Y6614D02*
X28874D01*
Y7204D01*
X28244D02*
X28874D01*
X28051Y759D02*
X28642D01*
Y1429D01*
X28051D02*
X28642D01*
X28051Y759D02*
Y1429D01*
X28957Y6547D02*
Y7208D01*
X29272Y6547D02*
Y7208D01*
X28957D02*
X29272D01*
X37625Y17750D02*
X39125D01*
X37625D02*
Y18250D01*
X39125D01*
Y17750D02*
Y18250D01*
Y16750D02*
Y17250D01*
X37625D02*
X39125D01*
X37625Y16750D02*
Y17250D01*
Y16750D02*
X39125D01*
X37625Y15750D02*
X39125D01*
X37625D02*
Y16250D01*
X39125D01*
Y15750D02*
Y16250D01*
X37625Y18750D02*
X39125D01*
X37625D02*
Y19250D01*
X39125D01*
Y18750D02*
Y19250D01*
Y19750D02*
Y20250D01*
X37625D02*
X39125D01*
X37625Y19750D02*
Y20250D01*
Y19750D02*
X39125D01*
X37625Y20750D02*
X39125D01*
X37625D02*
Y21250D01*
X39125D01*
Y20750D02*
Y21250D01*
X35875Y20750D02*
Y21250D01*
X37375D01*
Y20750D02*
Y21250D01*
X35875Y20750D02*
X37375D01*
X35875Y19750D02*
X37375D01*
Y20250D01*
X35875D02*
X37375D01*
X35875Y19750D02*
Y20250D01*
Y18750D02*
Y19250D01*
X37375D01*
Y18750D02*
Y19250D01*
X35875Y18750D02*
X37375D01*
X35875Y15750D02*
Y16250D01*
X37375D01*
Y15750D02*
Y16250D01*
X35875Y15750D02*
X37375D01*
X35875Y16750D02*
X37375D01*
Y17250D01*
X35875D02*
X37375D01*
X35875Y16750D02*
Y17250D01*
Y17750D02*
Y18250D01*
X37375D01*
Y17750D02*
Y18250D01*
X35875Y17750D02*
X37375D01*
X24550Y11500D02*
X26550D01*
X24550D02*
Y11700D01*
X26550Y11500D02*
Y11700D01*
X24001Y11799D02*
X24875D01*
X26225D02*
X27099D01*
X24875D02*
Y12201D01*
X24001Y11799D02*
Y12201D01*
X27099Y11799D02*
Y12201D01*
X26225Y11799D02*
Y12201D01*
X24001D02*
X24875D01*
X26225D02*
X27099D01*
X24550Y12300D02*
Y12700D01*
X26550Y12300D02*
Y12700D01*
X26225Y12799D02*
X27099D01*
X24001D02*
X24875D01*
X26225D02*
Y13201D01*
X24001Y12799D02*
Y13201D01*
Y13799D02*
Y14201D01*
Y13201D02*
X24875D01*
X24001Y13799D02*
X24875D01*
X24001Y14201D02*
X24875D01*
X24550Y13300D02*
Y13700D01*
Y14300D02*
Y14500D01*
X24875Y12799D02*
Y13201D01*
Y13799D02*
Y14201D01*
X24550Y14500D02*
X26550D01*
X26225Y13799D02*
Y14201D01*
X26550Y13300D02*
Y13700D01*
Y14300D02*
Y14500D01*
X26225Y13201D02*
X27099D01*
X26225Y14201D02*
X27099D01*
X26225Y13799D02*
X27099D01*
Y12799D02*
Y13201D01*
Y13799D02*
Y14201D01*
X30748Y17637D02*
X31260D01*
X29748D02*
X30260D01*
X19900Y17500D02*
X19900Y18500D01*
X19670Y17500D02*
X19900D01*
X19670Y18500D02*
X19900D01*
X7670D02*
X8130D01*
X8670D02*
X9130D01*
X9670D02*
X10130D01*
X10670D02*
X11130D01*
X11670D02*
X12130D01*
X12670D02*
X13130D01*
X13670D02*
X14130D01*
X13670Y17500D02*
X14130D01*
X12670D02*
X13130D01*
X11670D02*
X12130D01*
X10670D02*
X11130D01*
X9670D02*
X10130D01*
X8670D02*
X9130D01*
X7670D02*
X8130D01*
X6900D02*
X7130D01*
X6900Y18500D02*
X7130D01*
X6900Y17500D02*
Y18500D01*
X7199Y18146D02*
X7601D01*
Y19008D01*
X7199D02*
X7601D01*
X7199Y18146D02*
Y19008D01*
X8199Y18146D02*
X8601D01*
Y19008D01*
X8199D02*
X8601D01*
X8199Y18146D02*
Y19008D01*
X9199Y18146D02*
X9601D01*
Y19008D01*
X9199D02*
X9601D01*
X9199Y18146D02*
Y19008D01*
X10199Y18146D02*
X10601D01*
Y19008D01*
X10199D02*
X10601D01*
X10199Y18146D02*
Y19008D01*
X11199Y18146D02*
X11601D01*
Y19008D01*
X11199D02*
X11601D01*
X11199Y18146D02*
Y19008D01*
X12199Y18146D02*
X12601D01*
Y19008D01*
X12199D02*
X12601D01*
X12199Y18146D02*
Y19008D01*
X13199Y18146D02*
X13601D01*
Y19008D01*
X13199D02*
X13601D01*
X13199Y18146D02*
Y19008D01*
X14199Y18146D02*
X14601D01*
Y19008D01*
X14199D02*
X14601D01*
X14199Y18146D02*
Y19008D01*
Y16992D02*
X14601D01*
Y17854D01*
X14199D02*
X14601D01*
X14199Y16992D02*
Y17854D01*
X13199Y16992D02*
X13601D01*
Y17854D01*
X13199D02*
X13601D01*
X13199Y16992D02*
Y17854D01*
X12199Y16992D02*
X12601D01*
Y17854D01*
X12199D02*
X12601D01*
X12199Y16992D02*
Y17854D01*
X11199Y16992D02*
X11601D01*
Y17854D01*
X11199D02*
X11601D01*
X11199Y16992D02*
Y17854D01*
X10199Y16992D02*
X10601D01*
Y17854D01*
X10199D02*
X10601D01*
X10199Y16992D02*
Y17854D01*
X9199Y16992D02*
X9601D01*
Y17854D01*
X9199D02*
X9601D01*
X9199Y16992D02*
Y17854D01*
X8199Y16992D02*
X8601D01*
Y17854D01*
X8199D02*
X8601D01*
X8199Y16992D02*
Y17854D01*
X7199Y16992D02*
Y17854D01*
X7601D01*
Y16992D02*
Y17854D01*
X7199Y16992D02*
X7601D01*
X15199D02*
Y17854D01*
X15601D01*
Y16992D02*
Y17854D01*
X15199Y16992D02*
X15601D01*
X15199Y18146D02*
Y19008D01*
X15601D01*
Y18146D02*
Y19008D01*
X15199Y18146D02*
X15601D01*
X14670Y17500D02*
X15130D01*
X14670Y18500D02*
X15130D01*
X16199Y16992D02*
Y17854D01*
X16601D01*
Y16992D02*
Y17854D01*
X16199Y16992D02*
X16601D01*
X16199Y18146D02*
Y19008D01*
X16601D01*
Y18146D02*
Y19008D01*
X16199Y18146D02*
X16601D01*
X15670Y17500D02*
X16130D01*
X15670Y18500D02*
X16130D01*
X17199Y16992D02*
Y17854D01*
X17601D01*
Y16992D02*
Y17854D01*
X17199Y16992D02*
X17601D01*
X17199Y18146D02*
Y19008D01*
X17601D01*
Y18146D02*
Y19008D01*
X17199Y18146D02*
X17601D01*
X16670Y17500D02*
X17130D01*
X16670Y18500D02*
X17130D01*
X18199Y16992D02*
Y17854D01*
X18601D01*
Y16992D02*
Y17854D01*
X18199Y16992D02*
X18601D01*
X18199Y18146D02*
Y19008D01*
X18601D01*
Y18146D02*
Y19008D01*
X18199Y18146D02*
X18601D01*
X17670Y17500D02*
X18130D01*
X17670Y18500D02*
X18130D01*
X7900Y17500D02*
Y17800D01*
Y18200D02*
Y18500D01*
X18670D02*
X19130D01*
X18670Y17500D02*
X19130D01*
X19199Y18146D02*
X19601D01*
Y19008D01*
X19199D02*
X19601D01*
X19199Y18146D02*
Y19008D01*
Y16992D02*
X19601D01*
Y17854D01*
X19199D02*
X19601D01*
X19199Y16992D02*
Y17854D01*
X33705Y24795D02*
X34295D01*
X33705Y24205D02*
Y24795D01*
Y24205D02*
X34295D01*
Y24795D01*
X16105Y24795D02*
X16695D01*
X16105Y24205D02*
Y24795D01*
Y24205D02*
X16695D01*
Y24795D01*
X24705D02*
X25295D01*
X24705Y24205D02*
Y24795D01*
Y24205D02*
X25295D01*
Y24795D01*
X19705Y205D02*
Y795D01*
X20295D01*
Y205D02*
Y795D01*
X19705Y205D02*
X20295D01*
X10705D02*
X11295D01*
Y795D01*
X10705D02*
X11295D01*
X10705Y205D02*
Y795D01*
X33500Y21500D02*
Y21800D01*
Y22200D02*
Y22500D01*
X26500Y21500D02*
X26500Y22500D01*
X26730D01*
X26500Y21500D02*
X26730D01*
X33270D02*
X33730D01*
X32270D02*
X32730D01*
X31270D02*
X31730D01*
X30270D02*
X30730D01*
X29270D02*
X29730D01*
X28270D02*
X28730D01*
X27270D02*
X27730D01*
X27270Y22500D02*
X27730D01*
X28270D02*
X28730D01*
X29270D02*
X29730D01*
X30270D02*
X30730D01*
X31270D02*
X31730D01*
X32270D02*
X32730D01*
X33270D02*
X33730D01*
X34270D02*
X34500D01*
X34270Y21500D02*
X34500D01*
Y22500D01*
X33799Y21854D02*
X34201D01*
X33799Y20992D02*
Y21854D01*
Y20992D02*
X34201D01*
Y21854D01*
X32799D02*
X33201D01*
X32799Y20992D02*
Y21854D01*
Y20992D02*
X33201D01*
Y21854D01*
X31799D02*
X32201D01*
X31799Y20992D02*
Y21854D01*
Y20992D02*
X32201D01*
Y21854D01*
X30799D02*
X31201D01*
X30799Y20992D02*
Y21854D01*
Y20992D02*
X31201D01*
Y21854D01*
X29799D02*
X30201D01*
X29799Y20992D02*
Y21854D01*
Y20992D02*
X30201D01*
Y21854D01*
X28799D02*
X29201D01*
X28799Y20992D02*
Y21854D01*
Y20992D02*
X29201D01*
Y21854D01*
X27799D02*
X28201D01*
X27799Y20992D02*
Y21854D01*
Y20992D02*
X28201D01*
Y21854D01*
X26799D02*
X27201D01*
X26799Y20992D02*
Y21854D01*
Y20992D02*
X27201D01*
Y21854D01*
X26799Y23008D02*
X27201D01*
X26799Y22146D02*
Y23008D01*
Y22146D02*
X27201D01*
Y23008D01*
X27799D02*
X28201D01*
X27799Y22146D02*
Y23008D01*
Y22146D02*
X28201D01*
Y23008D01*
X28799D02*
X29201D01*
X28799Y22146D02*
Y23008D01*
Y22146D02*
X29201D01*
Y23008D01*
X29799D02*
X30201D01*
X29799Y22146D02*
Y23008D01*
Y22146D02*
X30201D01*
Y23008D01*
X30799D02*
X31201D01*
X30799Y22146D02*
Y23008D01*
Y22146D02*
X31201D01*
Y23008D01*
X31799D02*
X32201D01*
X31799Y22146D02*
Y23008D01*
Y22146D02*
X32201D01*
Y23008D01*
X32799D02*
X33201D01*
X32799Y22146D02*
Y23008D01*
Y22146D02*
X33201D01*
Y23008D01*
X34201Y22146D02*
Y23008D01*
X33799Y22146D02*
X34201D01*
X33799D02*
Y23008D01*
X34201D01*
X6900Y21500D02*
X6900Y22500D01*
X7130D01*
X6900Y21500D02*
X7130D01*
X15670D02*
X16130D01*
X14670D02*
X15130D01*
X13670D02*
X14130D01*
X12670D02*
X13130D01*
X11670D02*
X12130D01*
X10670D02*
X11130D01*
X9670D02*
X10130D01*
X9670Y22500D02*
X10130D01*
X10670D02*
X11130D01*
X11670D02*
X12130D01*
X12670D02*
X13130D01*
X13670D02*
X14130D01*
X14670D02*
X15130D01*
X15670D02*
X16130D01*
X16670D02*
X16900D01*
X16670Y21500D02*
X16900D01*
Y22500D01*
X16199Y21854D02*
X16601D01*
X16199Y20992D02*
Y21854D01*
Y20992D02*
X16601D01*
Y21854D01*
X15199D02*
X15601D01*
X15199Y20992D02*
Y21854D01*
Y20992D02*
X15601D01*
Y21854D01*
X14199D02*
X14601D01*
X14199Y20992D02*
Y21854D01*
Y20992D02*
X14601D01*
Y21854D01*
X13199D02*
X13601D01*
X13199Y20992D02*
Y21854D01*
Y20992D02*
X13601D01*
Y21854D01*
X12199D02*
X12601D01*
X12199Y20992D02*
Y21854D01*
Y20992D02*
X12601D01*
Y21854D01*
X11199D02*
X11601D01*
X11199Y20992D02*
Y21854D01*
Y20992D02*
X11601D01*
Y21854D01*
X10199D02*
X10601D01*
X10199Y20992D02*
Y21854D01*
Y20992D02*
X10601D01*
Y21854D01*
X9199D02*
X9601D01*
X9199Y20992D02*
Y21854D01*
Y20992D02*
X9601D01*
Y21854D01*
X9199Y23008D02*
X9601D01*
X9199Y22146D02*
Y23008D01*
Y22146D02*
X9601D01*
Y23008D01*
X10199D02*
X10601D01*
X10199Y22146D02*
Y23008D01*
Y22146D02*
X10601D01*
Y23008D01*
X11199D02*
X11601D01*
X11199Y22146D02*
Y23008D01*
Y22146D02*
X11601D01*
Y23008D01*
X12199D02*
X12601D01*
X12199Y22146D02*
Y23008D01*
Y22146D02*
X12601D01*
Y23008D01*
X13199D02*
X13601D01*
X13199Y22146D02*
Y23008D01*
Y22146D02*
X13601D01*
Y23008D01*
X14199D02*
X14601D01*
X14199Y22146D02*
Y23008D01*
Y22146D02*
X14601D01*
Y23008D01*
X15199D02*
X15601D01*
X15199Y22146D02*
Y23008D01*
Y22146D02*
X15601D01*
Y23008D01*
X16601Y22146D02*
Y23008D01*
X16199Y22146D02*
X16601D01*
X16199D02*
Y23008D01*
X16601D01*
X8601Y22146D02*
Y23008D01*
X8199Y22146D02*
X8601D01*
X8199D02*
Y23008D01*
X8601D01*
Y20992D02*
Y21854D01*
X8199Y20992D02*
X8601D01*
X8199D02*
Y21854D01*
X8601D01*
X8670Y22500D02*
X9130D01*
X8670Y21500D02*
X9130D01*
X7601Y22146D02*
Y23008D01*
X7199Y22146D02*
X7601D01*
X7199D02*
Y23008D01*
X7601D01*
Y20992D02*
Y21854D01*
X7199Y20992D02*
X7601D01*
X7199D02*
Y21854D01*
X7601D01*
X7670Y22500D02*
X8130D01*
X7670Y21500D02*
X8130D01*
X15900Y22200D02*
Y22500D01*
Y21500D02*
Y21800D01*
X24500Y21500D02*
Y21800D01*
Y22200D02*
Y22500D01*
X17500Y21500D02*
X17500Y22500D01*
X17730D01*
X17500Y21500D02*
X17730D01*
X24270D02*
X24730D01*
X23270D02*
X23730D01*
X22270D02*
X22730D01*
X21270D02*
X21730D01*
X20270D02*
X20730D01*
X19270D02*
X19730D01*
X18270D02*
X18730D01*
X18270Y22500D02*
X18730D01*
X19270D02*
X19730D01*
X20270D02*
X20730D01*
X21270D02*
X21730D01*
X22270D02*
X22730D01*
X23270D02*
X23730D01*
X24270D02*
X24730D01*
X25270D02*
X25500D01*
X25270Y21500D02*
X25500D01*
Y22500D01*
X24799Y21854D02*
X25201D01*
X24799Y20992D02*
Y21854D01*
Y20992D02*
X25201D01*
Y21854D01*
X23799D02*
X24201D01*
X23799Y20992D02*
Y21854D01*
Y20992D02*
X24201D01*
Y21854D01*
X22799D02*
X23201D01*
X22799Y20992D02*
Y21854D01*
Y20992D02*
X23201D01*
Y21854D01*
X21799D02*
X22201D01*
X21799Y20992D02*
Y21854D01*
Y20992D02*
X22201D01*
Y21854D01*
X20799D02*
X21201D01*
X20799Y20992D02*
Y21854D01*
Y20992D02*
X21201D01*
Y21854D01*
X19799D02*
X20201D01*
X19799Y20992D02*
Y21854D01*
Y20992D02*
X20201D01*
Y21854D01*
X18799D02*
X19201D01*
X18799Y20992D02*
Y21854D01*
Y20992D02*
X19201D01*
Y21854D01*
X17799D02*
X18201D01*
X17799Y20992D02*
Y21854D01*
Y20992D02*
X18201D01*
Y21854D01*
X17799Y23008D02*
X18201D01*
X17799Y22146D02*
Y23008D01*
Y22146D02*
X18201D01*
Y23008D01*
X18799D02*
X19201D01*
X18799Y22146D02*
Y23008D01*
Y22146D02*
X19201D01*
Y23008D01*
X19799D02*
X20201D01*
X19799Y22146D02*
Y23008D01*
Y22146D02*
X20201D01*
Y23008D01*
X20799D02*
X21201D01*
X20799Y22146D02*
Y23008D01*
Y22146D02*
X21201D01*
Y23008D01*
X21799D02*
X22201D01*
X21799Y22146D02*
Y23008D01*
Y22146D02*
X22201D01*
Y23008D01*
X22799D02*
X23201D01*
X22799Y22146D02*
Y23008D01*
Y22146D02*
X23201D01*
Y23008D01*
X23799D02*
X24201D01*
X23799Y22146D02*
Y23008D01*
Y22146D02*
X24201D01*
Y23008D01*
X25201Y22146D02*
Y23008D01*
X24799Y22146D02*
X25201D01*
X24799D02*
Y23008D01*
X25201D01*
X20500Y2500D02*
Y2800D01*
Y3200D02*
Y3500D01*
X25500Y2500D02*
X25500Y3500D01*
X25270Y2500D02*
X25500D01*
X25270Y3500D02*
X25500D01*
X20270D02*
X20730D01*
X21270D02*
X21730D01*
X22270D02*
X22730D01*
X23270D02*
X23730D01*
X24270D02*
X24730D01*
X24270Y2500D02*
X24730D01*
X23270D02*
X23730D01*
X22270D02*
X22730D01*
X21270D02*
X21730D01*
X20270D02*
X20730D01*
X19500D02*
X19730D01*
X19500Y3500D02*
X19730D01*
X19500Y2500D02*
Y3500D01*
X19799Y3146D02*
X20201D01*
Y4008D01*
X19799D02*
X20201D01*
X19799Y3146D02*
Y4008D01*
X20799Y3146D02*
X21201D01*
Y4008D01*
X20799D02*
X21201D01*
X20799Y3146D02*
Y4008D01*
X21799Y3146D02*
X22201D01*
Y4008D01*
X21799D02*
X22201D01*
X21799Y3146D02*
Y4008D01*
X22799Y3146D02*
X23201D01*
Y4008D01*
X22799D02*
X23201D01*
X22799Y3146D02*
Y4008D01*
X23799Y3146D02*
X24201D01*
Y4008D01*
X23799D02*
X24201D01*
X23799Y3146D02*
Y4008D01*
X24799Y3146D02*
X25201D01*
Y4008D01*
X24799D02*
X25201D01*
X24799Y3146D02*
Y4008D01*
Y1992D02*
X25201D01*
Y2854D01*
X24799D02*
X25201D01*
X24799Y1992D02*
Y2854D01*
X23799Y1992D02*
X24201D01*
Y2854D01*
X23799D02*
X24201D01*
X23799Y1992D02*
Y2854D01*
X22799Y1992D02*
X23201D01*
Y2854D01*
X22799D02*
X23201D01*
X22799Y1992D02*
Y2854D01*
X21799Y1992D02*
X22201D01*
Y2854D01*
X21799D02*
X22201D01*
X21799Y1992D02*
Y2854D01*
X20799Y1992D02*
X21201D01*
Y2854D01*
X20799D02*
X21201D01*
X20799Y1992D02*
Y2854D01*
X19799Y1992D02*
Y2854D01*
X20201D01*
Y1992D02*
Y2854D01*
X19799Y1992D02*
X20201D01*
X11500Y3200D02*
Y3500D01*
Y2500D02*
Y2800D01*
X18500Y2500D02*
X18500Y3500D01*
X18270Y2500D02*
X18500D01*
X18270Y3500D02*
X18500D01*
X11270D02*
X11730D01*
X12270D02*
X12730D01*
X13270D02*
X13730D01*
X14270D02*
X14730D01*
X15270D02*
X15730D01*
X16270D02*
X16730D01*
X17270D02*
X17730D01*
X17270Y2500D02*
X17730D01*
X16270D02*
X16730D01*
X15270D02*
X15730D01*
X14270D02*
X14730D01*
X13270D02*
X13730D01*
X12270D02*
X12730D01*
X11270D02*
X11730D01*
X10500D02*
X10730D01*
X10500Y3500D02*
X10730D01*
X10500Y2500D02*
Y3500D01*
X10799Y3146D02*
X11201D01*
Y4008D01*
X10799D02*
X11201D01*
X10799Y3146D02*
Y4008D01*
X11799Y3146D02*
X12201D01*
Y4008D01*
X11799D02*
X12201D01*
X11799Y3146D02*
Y4008D01*
X12799Y3146D02*
X13201D01*
Y4008D01*
X12799D02*
X13201D01*
X12799Y3146D02*
Y4008D01*
X13799Y3146D02*
X14201D01*
Y4008D01*
X13799D02*
X14201D01*
X13799Y3146D02*
Y4008D01*
X14799Y3146D02*
X15201D01*
Y4008D01*
X14799D02*
X15201D01*
X14799Y3146D02*
Y4008D01*
X15799Y3146D02*
X16201D01*
Y4008D01*
X15799D02*
X16201D01*
X15799Y3146D02*
Y4008D01*
X16799Y3146D02*
X17201D01*
Y4008D01*
X16799D02*
X17201D01*
X16799Y3146D02*
Y4008D01*
X17799Y3146D02*
X18201D01*
Y4008D01*
X17799D02*
X18201D01*
X17799Y3146D02*
Y4008D01*
Y1992D02*
X18201D01*
Y2854D01*
X17799D02*
X18201D01*
X17799Y1992D02*
Y2854D01*
X16799Y1992D02*
X17201D01*
Y2854D01*
X16799D02*
X17201D01*
X16799Y1992D02*
Y2854D01*
X15799Y1992D02*
X16201D01*
Y2854D01*
X15799D02*
X16201D01*
X15799Y1992D02*
Y2854D01*
X14799Y1992D02*
X15201D01*
Y2854D01*
X14799D02*
X15201D01*
X14799Y1992D02*
Y2854D01*
X13799Y1992D02*
X14201D01*
Y2854D01*
X13799D02*
X14201D01*
X13799Y1992D02*
Y2854D01*
X12799Y1992D02*
X13201D01*
Y2854D01*
X12799D02*
X13201D01*
X12799Y1992D02*
Y2854D01*
X11799Y1992D02*
X12201D01*
Y2854D01*
X11799D02*
X12201D01*
X11799Y1992D02*
Y2854D01*
X10799Y1992D02*
Y2854D01*
X11201D01*
Y1992D02*
Y2854D01*
X10799Y1992D02*
X11201D01*
X22047Y9941D02*
Y15059D01*
X6299Y9941D02*
Y15059D01*
X6693Y15453D02*
X21654D01*
X6693Y9547D02*
X21654D01*
X31772Y17637D02*
X32244D01*
X31772Y16417D02*
Y17637D01*
Y16417D02*
X32244D01*
Y17637D01*
X31260Y16417D02*
Y17637D01*
X30748Y16417D02*
X31260D01*
X30748D02*
Y17637D01*
X29748Y16417D02*
Y17637D01*
Y16417D02*
X30260D01*
Y17637D01*
X28748D02*
X29260D01*
X28748Y16417D02*
Y17637D01*
Y16417D02*
X29260D01*
Y17637D01*
X27748D02*
X28260D01*
X27748Y16417D02*
Y17637D01*
Y16417D02*
X28260D01*
Y17637D01*
X26748D02*
X27260D01*
X26748Y16417D02*
Y17637D01*
Y16417D02*
X27260D01*
Y17637D01*
D194*
X27050Y18477D02*
G03*
X27050Y18477I-50J0D01*
G01*
D230*
X25490Y12870D02*
X25610D01*
Y12930D01*
X25590Y12950D01*
X25550D01*
X25530Y12930D01*
Y12870D01*
X25490Y12990D02*
Y13030D01*
Y13010D01*
X25610D01*
X25590Y12990D01*
X25490Y13090D02*
Y13130D01*
Y13110D01*
X25610D01*
X25590Y13090D01*
D231*
X26713Y18878D02*
Y18728D01*
X26788D01*
X26813Y18753D01*
Y18803D01*
X26788Y18828D01*
X26713D01*
X26963Y18878D02*
X26863D01*
X26963Y18778D01*
Y18753D01*
X26938Y18728D01*
X26888D01*
X26863Y18753D01*
X27013Y18853D02*
X27037Y18878D01*
X27087D01*
X27112Y18853D01*
Y18753D01*
X27087Y18728D01*
X27037D01*
X27013Y18753D01*
Y18778D01*
X27037Y18803D01*
X27112D01*
D233*
X37689Y18572D02*
Y18452D01*
X37629D01*
X37609Y18472D01*
Y18512D01*
X37629Y18532D01*
X37689D01*
X37489Y18572D02*
X37569D01*
X37489Y18492D01*
Y18472D01*
X37509Y18452D01*
X37549D01*
X37569Y18472D01*
X37449Y18452D02*
X37369D01*
Y18472D01*
X37449Y18552D01*
Y18572D01*
X2256Y14251D02*
X2336D01*
X2296D01*
Y14371D01*
X2376D02*
Y14251D01*
X2436D01*
X2456Y14271D01*
Y14311D01*
X2436Y14331D01*
X2376D01*
X2496Y14371D02*
X2536D01*
X2516D01*
Y14251D01*
X2496Y14271D01*
X2596Y14251D02*
X2676D01*
Y14271D01*
X2596Y14351D01*
Y14371D01*
X3048Y5333D02*
X3128D01*
X3088D01*
Y5453D01*
X3168D02*
Y5333D01*
X3228D01*
X3248Y5353D01*
Y5393D01*
X3228Y5413D01*
X3168D01*
X3368Y5453D02*
X3288D01*
X3368Y5373D01*
Y5353D01*
X3348Y5333D01*
X3308D01*
X3288Y5353D01*
X3488Y5333D02*
X3408D01*
Y5393D01*
X3448Y5373D01*
X3468D01*
X3488Y5393D01*
Y5433D01*
X3468Y5453D01*
X3428D01*
X3408Y5433D01*
X2378Y3640D02*
X2458D01*
X2418D01*
Y3760D01*
X2498D02*
Y3640D01*
X2558D01*
X2578Y3660D01*
Y3700D01*
X2558Y3720D01*
X2498D01*
X2698Y3760D02*
X2618D01*
X2698Y3680D01*
Y3660D01*
X2678Y3640D01*
X2638D01*
X2618Y3660D01*
X2738Y3640D02*
X2818D01*
Y3660D01*
X2738Y3740D01*
Y3760D01*
X3087Y6436D02*
X3167D01*
X3127D01*
Y6556D01*
X3207D02*
Y6436D01*
X3267D01*
X3287Y6456D01*
Y6496D01*
X3267Y6516D01*
X3207D01*
X3407Y6556D02*
X3327D01*
X3407Y6476D01*
Y6456D01*
X3387Y6436D01*
X3347D01*
X3327Y6456D01*
X3527Y6436D02*
X3487Y6456D01*
X3447Y6496D01*
Y6536D01*
X3467Y6556D01*
X3507D01*
X3527Y6536D01*
Y6516D01*
X3507Y6496D01*
X3447D01*
X9553Y8370D02*
X9633D01*
X9593D01*
Y8490D01*
X9673D02*
Y8370D01*
X9733D01*
X9753Y8390D01*
Y8430D01*
X9733Y8450D01*
X9673D01*
X9873Y8490D02*
X9793D01*
X9873Y8410D01*
Y8390D01*
X9853Y8370D01*
X9813D01*
X9793Y8390D01*
X9913D02*
X9933Y8370D01*
X9973D01*
X9993Y8390D01*
Y8410D01*
X9973Y8430D01*
X9953D01*
X9973D01*
X9993Y8450D01*
Y8470D01*
X9973Y8490D01*
X9933D01*
X9913Y8470D01*
X30818Y4043D02*
X30778D01*
X30798D01*
Y4143D01*
X30778Y4163D01*
X30758D01*
X30738Y4143D01*
X30858Y4063D02*
X30878Y4043D01*
X30918D01*
X30938Y4063D01*
Y4083D01*
X30918Y4103D01*
X30938Y4123D01*
Y4143D01*
X30918Y4163D01*
X30878D01*
X30858Y4143D01*
Y4123D01*
X30878Y4103D01*
X30858Y4083D01*
Y4063D01*
X30878Y4103D02*
X30918D01*
X14301Y11569D02*
X14381D01*
X14341D01*
Y11689D01*
X14421D02*
Y11569D01*
X14481D01*
X14501Y11589D01*
Y11629D01*
X14481Y11649D01*
X14421D01*
X14541Y11689D02*
X14581D01*
X14561D01*
Y11569D01*
X14541Y11589D01*
X14721Y11569D02*
X14641D01*
Y11629D01*
X14681Y11609D01*
X14701D01*
X14721Y11629D01*
Y11669D01*
X14701Y11689D01*
X14661D01*
X14641Y11669D01*
X14085Y8073D02*
X14165D01*
X14125D01*
Y8193D01*
X14205D02*
Y8073D01*
X14265D01*
X14285Y8093D01*
Y8133D01*
X14265Y8153D01*
X14205D01*
X14325Y8193D02*
X14365D01*
X14345D01*
Y8073D01*
X14325Y8093D01*
X14485Y8193D02*
Y8073D01*
X14425Y8133D01*
X14505D01*
X14351Y9693D02*
X14431D01*
X14391D01*
Y9813D01*
X14471D02*
Y9693D01*
X14531D01*
X14551Y9713D01*
Y9753D01*
X14531Y9773D01*
X14471D01*
X14591Y9813D02*
X14631D01*
X14611D01*
Y9693D01*
X14591Y9713D01*
X14691D02*
X14711Y9693D01*
X14751D01*
X14771Y9713D01*
Y9733D01*
X14751Y9753D01*
X14731D01*
X14751D01*
X14771Y9773D01*
Y9793D01*
X14751Y9813D01*
X14711D01*
X14691Y9793D01*
X12450Y8743D02*
X12530D01*
X12490D01*
Y8863D01*
X12570D02*
Y8743D01*
X12630D01*
X12650Y8763D01*
Y8803D01*
X12630Y8823D01*
X12570D01*
X12690Y8863D02*
X12730D01*
X12710D01*
Y8743D01*
X12690Y8763D01*
X12870Y8863D02*
X12790D01*
X12870Y8783D01*
Y8763D01*
X12850Y8743D01*
X12810D01*
X12790Y8763D01*
X33365Y22061D02*
Y21941D01*
X33425D01*
X33445Y21961D01*
Y22001D01*
X33425Y22021D01*
X33365D01*
X33485Y22061D02*
X33525D01*
X33505D01*
Y21941D01*
X33485Y21961D01*
X33665Y22061D02*
X33585D01*
X33665Y21981D01*
Y21961D01*
X33645Y21941D01*
X33605D01*
X33585Y21961D01*
X7725Y18079D02*
Y17959D01*
X7785D01*
X7805Y17979D01*
Y18019D01*
X7785Y18039D01*
X7725D01*
X7925Y18079D02*
X7845D01*
X7925Y17999D01*
Y17979D01*
X7905Y17959D01*
X7865D01*
X7845Y17979D01*
X8045Y17959D02*
X8005Y17979D01*
X7965Y18019D01*
Y18059D01*
X7985Y18079D01*
X8025D01*
X8045Y18059D01*
Y18039D01*
X8025Y18019D01*
X7965D01*
X20394Y3079D02*
Y2959D01*
X20454D01*
X20474Y2979D01*
Y3019D01*
X20454Y3039D01*
X20394D01*
X20514Y2979D02*
X20534Y2959D01*
X20574D01*
X20594Y2979D01*
Y2999D01*
X20574Y3019D01*
X20594Y3039D01*
Y3059D01*
X20574Y3079D01*
X20534D01*
X20514Y3059D01*
Y3039D01*
X20534Y3019D01*
X20514Y2999D01*
Y2979D01*
X20534Y3019D02*
X20574D01*
X15716Y22061D02*
Y21941D01*
X15776D01*
X15796Y21961D01*
Y22001D01*
X15776Y22021D01*
X15716D01*
X15836Y22061D02*
X15876D01*
X15856D01*
Y21941D01*
X15836Y21961D01*
X15936D02*
X15956Y21941D01*
X15996D01*
X16016Y21961D01*
Y22041D01*
X15996Y22061D01*
X15956D01*
X15936Y22041D01*
Y21961D01*
X24416Y22061D02*
Y21941D01*
X24476D01*
X24496Y21961D01*
Y22001D01*
X24476Y22021D01*
X24416D01*
X24536Y22041D02*
X24556Y22061D01*
X24596D01*
X24616Y22041D01*
Y21961D01*
X24596Y21941D01*
X24556D01*
X24536Y21961D01*
Y21981D01*
X24556Y22001D01*
X24616D01*
X11394Y3079D02*
Y2959D01*
X11454D01*
X11474Y2979D01*
Y3019D01*
X11454Y3039D01*
X11394D01*
X11514Y2959D02*
X11594D01*
Y2979D01*
X11514Y3059D01*
Y3079D01*
X4156Y13051D02*
X4236D01*
X4196D01*
Y13171D01*
X4276D02*
Y13051D01*
X4336D01*
X4356Y13071D01*
Y13111D01*
X4336Y13131D01*
X4276D01*
X4396Y13171D02*
X4436D01*
X4416D01*
Y13051D01*
X4396Y13071D01*
X4496Y13151D02*
X4516Y13171D01*
X4557D01*
X4577Y13151D01*
Y13071D01*
X4557Y13051D01*
X4516D01*
X4496Y13071D01*
Y13091D01*
X4516Y13111D01*
X4577D01*
X4346Y12061D02*
X4426D01*
X4386D01*
Y12181D01*
X4466D02*
Y12061D01*
X4526D01*
X4546Y12081D01*
Y12121D01*
X4526Y12141D01*
X4466D01*
X4666Y12181D02*
X4586D01*
X4666Y12101D01*
Y12081D01*
X4646Y12061D01*
X4606D01*
X4586Y12081D01*
X4706D02*
X4726Y12061D01*
X4767D01*
X4787Y12081D01*
Y12161D01*
X4767Y12181D01*
X4726D01*
X4706Y12161D01*
Y12081D01*
X2546Y9833D02*
X2626D01*
X2586D01*
Y9953D01*
X2666D02*
Y9833D01*
X2726D01*
X2746Y9853D01*
Y9893D01*
X2726Y9913D01*
X2666D01*
X2786Y9953D02*
X2826D01*
X2806D01*
Y9833D01*
X2786Y9853D01*
X2886D02*
X2907Y9833D01*
X2947D01*
X2967Y9853D01*
Y9873D01*
X2947Y9893D01*
X2967Y9913D01*
Y9933D01*
X2947Y9953D01*
X2907D01*
X2886Y9933D01*
Y9913D01*
X2907Y9893D01*
X2886Y9873D01*
Y9853D01*
X2907Y9893D02*
X2947D01*
X941Y6141D02*
X1021D01*
X981D01*
Y6261D01*
X1061D02*
Y6141D01*
X1121D01*
X1141Y6161D01*
Y6201D01*
X1121Y6221D01*
X1061D01*
X1261Y6261D02*
X1181D01*
X1261Y6181D01*
Y6161D01*
X1241Y6141D01*
X1201D01*
X1181Y6161D01*
X1381Y6261D02*
X1301D01*
X1381Y6181D01*
Y6161D01*
X1361Y6141D01*
X1321D01*
X1301Y6161D01*
X11261Y6010D02*
X11341D01*
X11301D01*
Y6130D01*
X11381D02*
Y6010D01*
X11441D01*
X11461Y6030D01*
Y6070D01*
X11441Y6090D01*
X11381D01*
X11501Y6130D02*
X11541D01*
X11521D01*
Y6010D01*
X11501Y6030D01*
X11681Y6010D02*
X11641Y6030D01*
X11601Y6070D01*
Y6110D01*
X11621Y6130D01*
X11661D01*
X11681Y6110D01*
Y6090D01*
X11661Y6070D01*
X11601D01*
M02*
