*
*
G04 PADS VX.2 Build Number: 5060570 generated Gerber (RS-274-X) file*
G04 PC Version=2.1*
*
%IN "PCB_ESP32-S3-MINI-1U_V1"*%
*
%MOIN*%
*
%FSLAX35Y35*%
*
*
*
*
G04 PC Standard Apertures*
*
*
G04 Thermal Relief Aperture macro.*
%AMTER*
1,1,$1,0,0*
1,0,$1-$2,0,0*
21,0,$3,$4,0,0,45*
21,0,$3,$4,0,0,135*
%
*
*
G04 Annular Aperture macro.*
%AMANN*
1,1,$1,0,0*
1,0,$2,0,0*
%
*
*
G04 Odd Aperture macro.*
%AMODD*
1,1,$1,0,0*
1,0,$1-0.005,0,0*
%
*
*
G04 PC Custom Aperture Macros*
*
*
*
*
*
*
G04 PC Aperture Table*
*
%ADD010C,0.001*%
%ADD024C,0.005*%
%ADD055C,0.004*%
%ADD310C,0.01575*%
*
*
*
*
G04 PC Circuitry*
G04 Layer Name PCB_ESP32-S3-MINI-1U_V1 - circuitry*
%LPD*%
*
*
G04 PC Custom Flashes*
G04 Layer Name PCB_ESP32-S3-MINI-1U_V1 - flashes*
%LPD*%
*
*
G04 PC Circuitry*
G04 Layer Name PCB_ESP32-S3-MINI-1U_V1 - circuitry*
%LPD*%
*
G54D10*
G54D24*
G01X1968504Y1574803D02*
Y1635433D01*
X2029134*
Y1574803*
X1968504*
G54D55*
X2024181Y1583363D02*
G75*
G03X2024181I-1487J0D01*
G01X2023981Y1586473D02*
G03X2023981I-1487J0D01*
G01X2024281Y1589573D02*
G03X2024281I-1487J0D01*
G01X2020661Y1581123D02*
G03X2020661I-1487J0D01*
G01X2022841Y1592453D02*
G03X2022841I-1487J0D01*
G01X2022791Y1602403D02*
G03X2022791I-1487J0D01*
G01X2019691Y1602103D02*
G03X2019691I-1487J0D01*
G01X2023671Y1611913D02*
G03X2023671I-1487J0D01*
G01X2024311Y1625197D02*
G03X2024311I-1487J0D01*
G01X2013991Y1607803D02*
G03X2013991I-1487J0D01*
G01X2010091Y1581183D02*
G03X2010091I-1487J0D01*
G01X2006811Y1581023D02*
G03X2006811I-1487J0D01*
G01X2001391Y1618503D02*
G03X2001391I-1487J0D01*
G01X1990581Y1614183D02*
G03X1990581I-1487J0D01*
G01X1985642Y1587923D02*
G03X1985642I-1487J0D01*
G01X1976388Y1589377D02*
G03X1976388I-1488J0D01*
G01X1977951Y1593213D02*
G03X1977951I-1487J0D01*
G01X2027934Y1634181D02*
G03X2027882Y1634233I-52J0D01*
G01X1969756*
G03X1969704Y1634181I-0J-52*
G01Y1576055*
G03X1969756Y1576003I52J-0*
G01X2027882*
G03X2027934Y1576055I0J52*
G01Y1634181*
X2024181Y1583363D02*
G03X2024181I-1487J0D01*
G01X2023981Y1586473D02*
G03X2023981I-1487J0D01*
G01X2024281Y1589573D02*
G03X2024281I-1487J0D01*
G01X2020661Y1581123D02*
G03X2020661I-1487J0D01*
G01X2022841Y1592453D02*
G03X2022841I-1487J0D01*
G01X2022791Y1602403D02*
G03X2022791I-1487J0D01*
G01X2016839Y1582029D02*
G03X2018221Y1583513I-105J1484D01*
G01X2016839Y1582029D02*
G03X2016792Y1581978I4J-51D01*
Y1581972I51J-0*
G01X2013878Y1581416D02*
G03X2016792Y1581972I1436J387D01*
G01X2013878Y1581416D02*
G03X2013818Y1581453I-50J-14D01*
G01X2012046Y1582913D02*
G03X2013818Y1581453I1488J0D01*
G01X2014970Y1583301D02*
G03X2012046Y1582913I-1436J-388D01*
G01X2014970Y1583301D02*
G03X2015030Y1583263I50J13D01*
G01X2015208Y1583287D02*
G03X2015030Y1583263I106J-1484D01*
G01X2015208Y1583287D02*
G03X2015256Y1583338I-3J51D01*
Y1583344I-51J0*
G01X2018221Y1583513D02*
G03X2015256Y1583344I-1487J0D01*
G01X2019691Y1602103D02*
G03X2019691I-1487J0D01*
G01X2022255Y1607170D02*
G03X2024141Y1608603I399J1433D01*
G01X2022255Y1607170D02*
G03X2022190Y1607120I-13J-50D01*
G01Y1607118*
X2022191Y1607053D02*
G03X2022190Y1607118I-1487J0D01*
G01X2022191Y1607053D02*
X2022191D01*
X2019216D02*
G03X2022191I1488J0D01*
G01X2021102Y1608486D02*
G03X2019216Y1607053I-398J-1433D01*
G01X2021102Y1608486D02*
G03X2021168Y1608536I14J50D01*
Y1608538I-52J-0*
G01X2021166Y1608603D02*
G03X2021168Y1608538I1488J0D01*
G01X2021166Y1608603D02*
X2021166D01*
X2024141D02*
G03X2021166I-1487J0D01*
G01X2023671Y1611913D02*
G03X2023671I-1487J0D01*
G01X2024311Y1625197D02*
G03X2024311I-1487J0D01*
G01X2010526Y1599463D02*
G03X2013501I1488J0D01*
G01X2010526Y1599472D02*
G03Y1599463I1488J-9D01*
G01Y1599472D02*
X2010526D01*
G03X2010469Y1599524I-51J0*
G01X2008826Y1601003D02*
G03X2010469Y1599524I1488J0D01*
G01X2008852Y1601278D02*
G03X2008826Y1601003I1462J-275D01*
G01X2008852Y1601278D02*
G03X2008853Y1601288I-51J10D01*
X2008815Y1601337I-52J-0*
G01X2007716Y1602773D02*
G03X2008815Y1601337I1488J0D01*
G01X2010691Y1602773D02*
G03X2007716I-1487J0D01*
G01X2010666Y1602498D02*
G03X2010691Y1602773I-1462J275D01*
G01X2010666Y1602498D02*
G03X2010665Y1602489I51J-9D01*
X2010703Y1602439I52J-0*
G01X2011801Y1601003D02*
G03X2010703Y1602439I-1487J0D01*
G01X2011801Y1600994D02*
G03Y1601003I-1487J9D01*
G01Y1600994D02*
X2011801D01*
G03X2011858Y1600943I52J-0*
G01X2013501Y1599463D02*
G03X2011858Y1600943I-1487J0D01*
G01X2013991Y1607803D02*
G03X2013991I-1487J0D01*
G01X2010091Y1581183D02*
G03X2010091I-1487J0D01*
G01X2010092Y1613088D02*
G03X2010491Y1614103I-1088J1015D01*
G01X2010092Y1613088D02*
G03X2010078Y1613053I37J-35D01*
X2010092Y1613018I51J0*
G01X2010491Y1612003D02*
G03X2010092Y1613018I-1487J0D01*
G01X2007516Y1612003D02*
G03X2010491I1488J0D01*
G01X2007916Y1613018D02*
G03X2007516Y1612003I1088J-1015D01*
G01X2007916Y1613018D02*
G03X2007930Y1613053I-37J35D01*
X2007916Y1613088I-51J0*
G01X2007516Y1614103D02*
G03X2007916Y1613088I1488J0D01*
G01X2010491Y1614103D02*
G03X2007516I-1487J0D01*
G01X2006811Y1581023D02*
G03X2006811I-1487J0D01*
G01X1996827Y1585728D02*
G03X1999767Y1586048I1453J320D01*
G01X1996827Y1585728D02*
G03X1996760Y1585765I-50J-11D01*
G01X1994792Y1587173D02*
G03X1996760Y1585765I1488J0D01*
G01X1997732Y1587494D02*
G03X1994792Y1587173I-1452J-321D01*
G01X1997732Y1587494D02*
G03X1997799Y1587456I50J11D01*
G01X1999767Y1586048D02*
G03X1997799Y1587456I-1487J0D01*
G01X2001391Y1618503D02*
G03X2001391I-1487J0D01*
G01X1991408Y1588941D02*
G03X1994377Y1589075I1482J134D01*
G01X1991408Y1588941D02*
G03X1991354Y1588988I-51J-5D01*
G01X1989791Y1590473D02*
G03X1991354Y1588988I1488J0D01*
G01X1992760Y1590607D02*
G03X1989791Y1590473I-1481J-134D01*
G01X1992760Y1590607D02*
G03X1992814Y1590560I52J5D01*
G01X1994377Y1589075D02*
G03X1992814Y1590560I-1487J-0D01*
G01X1997096Y1620114D02*
G03X1998906Y1621852I70J1738D01*
G01X1997096Y1620114D02*
G03X1997057Y1620098I-2J-52D01*
G01X1996743Y1619784*
G03X1996728Y1619748I37J-36*
G01Y1618887*
X1996669Y1618746D02*
G03X1996728Y1618887I-141J141D01*
G01X1996669Y1618746D02*
X1996440Y1618517D01*
X1996299Y1618458D02*
G03X1996440Y1618517I-0J200D01*
G01X1996299Y1618458D02*
X1994614D01*
X1994473Y1618517D02*
G03X1994614Y1618458I141J141D01*
G01X1994473Y1618517D02*
X1994086Y1618904D01*
X1994027Y1619046D02*
G03X1994086Y1618904I200J-0D01*
G01X1994027Y1619046D02*
Y1620927D01*
X1994086Y1621069D02*
G03X1994027Y1620927I141J-142D01*
G01X1994086Y1621069D02*
X1994368Y1621351D01*
X1994509Y1621409D02*
G03X1994368Y1621351I-0J-200D01*
G01X1994509Y1621409D02*
X1995066D01*
G03X1995102Y1621424I-0J52*
G01X1995413Y1621735*
G03X1995428Y1621771I-37J36*
Y1621774I-52J0*
G01X1995426Y1621852D02*
G03X1995428Y1621774I1740J0D01*
G01X1998906Y1621852D02*
G03X1995426I-1740J0D01*
G01X1985957Y1580699D02*
G03X1987983Y1582085I539J1386D01*
G01X1985957Y1580699D02*
G03X1985890Y1580668I-18J-49D01*
G01X1982998Y1581159D02*
G03X1985890Y1580668I1488J0D01*
G01X1985025Y1582546D02*
G03X1982998Y1581159I-539J-1387D01*
G01X1985025Y1582546D02*
G03X1985092Y1582577I18J48D01*
G01X1987983Y1582085D02*
G03X1985092Y1582577I-1487J0D01*
G01X1990581Y1614183D02*
G03X1990581I-1487J0D01*
G01X1990434Y1620625D02*
Y1617833D01*
X1990375Y1617692D02*
G03X1990434Y1617833I-141J141D01*
G01X1990375Y1617692D02*
X1990225Y1617542D01*
X1990084Y1617483D02*
G03X1990225Y1617542I-0J200D01*
G01X1990084Y1617483D02*
X1988344D01*
X1988203Y1617542D02*
G03X1988344Y1617483I141J141D01*
G01X1988203Y1617542D02*
X1987963Y1617782D01*
X1987904Y1617923D02*
G03X1987963Y1617782I200J0D01*
G01X1987904Y1617923D02*
Y1618509D01*
G03X1987889Y1618545I-52J-0*
G01X1987313Y1619122*
X1987254Y1619263D02*
G03X1987313Y1619122I200J0D01*
G01X1987254Y1619263D02*
Y1620749D01*
X1987313Y1620891D02*
G03X1987254Y1620749I141J-142D01*
G01X1987313Y1620891D02*
X1987789Y1621367D01*
X1987930Y1621425D02*
G03X1987789Y1621367I-0J-200D01*
G01X1987930Y1621425D02*
X1989634D01*
X1989775Y1621367D02*
G03X1989634Y1621425I-141J-142D01*
G01X1989775Y1621367D02*
X1990375Y1620767D01*
X1990434Y1620625D02*
G03X1990375Y1620767I-200J0D01*
G01X1985642Y1587923D02*
G03X1985642I-1487J0D01*
G01X1980103Y1580080D02*
G03X1982615Y1581158I1025J1078D01*
G01X1980103Y1580080D02*
G03X1980031I-36J-37D01*
G01X1978009Y1580022D02*
G03X1980031Y1580080I980J1119D01*
G01X1978009Y1580022D02*
G03X1977939Y1580021I-34J-39D01*
G01X1975425Y1581097D02*
G03X1977939Y1580021I1488J0D01*
G01X1977893Y1582216D02*
G03X1975425Y1581097I-980J-1119D01*
G01X1977893Y1582216D02*
G03X1977962Y1582218I34J39D01*
G01X1980014Y1582219D02*
G03X1977962Y1582218I-1025J-1078D01*
G01X1980014Y1582219D02*
G03X1980086Y1582220I36J37D01*
G01X1982615Y1581158D02*
G03X1980086Y1582220I-1487J0D01*
G01X1982563Y1618093D02*
G03X1985041Y1619203I991J1110D01*
G01X1982563Y1618093D02*
G03X1982495I-34J-38D01*
G01X1980016Y1619203D02*
G03X1982495Y1618093I1488J0D01*
G01Y1620313D02*
G03X1980016Y1619203I-991J-1110D01*
G01X1982495Y1620313D02*
G03X1982563I34J38D01*
G01X1985041Y1619203D02*
G03X1982563Y1620313I-1487J0D01*
G01X1975689Y1584752D02*
G03X1976379Y1586008I-798J1256D01*
G01X1975689Y1584752D02*
G03X1975665Y1584709I28J-43D01*
X1975687Y1584666I52J-0*
G01X1976325Y1583445D02*
G03X1975687Y1584666I-1487J0D01*
G01X1973350Y1583445D02*
G03X1976325I1488J0D01*
G01X1974040Y1584701D02*
G03X1973350Y1583445I798J-1256D01*
G01X1974040Y1584701D02*
G03X1974064Y1584744I-28J43D01*
X1974042Y1584787I-52J0*
G01X1973404Y1586008D02*
G03X1974042Y1584787I1487J-0D01*
G01X1976379Y1586008D02*
G03X1973404I-1488J-0D01*
G01X1976388Y1589377D02*
G03X1976388I-1488J0D01*
G01X1977951Y1593213D02*
G03X1977951I-1487J0D01*
G01X1973560Y1597029D02*
G03X1976535I1487J-0D01*
G01X1973922Y1598002D02*
G03X1973560Y1597029I1125J-973D01*
G01X1973922Y1598002D02*
G03X1973935Y1598036I-39J34D01*
X1973916Y1598075I-52J-0*
G01X1973386Y1599213D02*
G03X1973916Y1598075I1488J0D01*
G01X1974150Y1600513D02*
G03X1973386Y1599213I724J-1300D01*
G01X1974150Y1600513D02*
G03X1974176Y1600558I-25J45D01*
X1974152Y1600602I-51J-0*
G01X1973436Y1601873D02*
G03X1974152Y1600602I1488J0D01*
G01X1976411Y1601873D02*
G03X1973436I-1487J0D01*
G01X1975648Y1600574D02*
G03X1976411Y1601873I-724J1299D01*
G01X1975648Y1600574D02*
G03X1975621Y1600529I25J-45D01*
X1975646Y1600485I52J-0*
G01X1976361Y1599213D02*
G03X1975646Y1600484I-1487J0D01*
G01X1975999Y1598240D02*
G03X1976361Y1599213I-1125J973D01*
G01X1975999Y1598240D02*
G03X1975987Y1598207I39J-33D01*
X1976005Y1598167I51J-0*
G01X1976535Y1597029D02*
G03X1976005Y1598167I-1488J-0D01*
G01X1976685Y1611169D02*
G03X1978741Y1612543I569J1374D01*
G01X1976685Y1611169D02*
G03X1976617Y1611138I-20J-48D01*
G01X1976548Y1610974D02*
G03X1976617Y1611138I-1334J659D01*
G01X1976548Y1610974D02*
G03X1976542Y1610951I46J-23D01*
X1976592Y1610900I52J0*
G01X1978031Y1609413D02*
G03X1976592Y1610900I-1487J0D01*
G01X1976417Y1607931D02*
G03X1978031Y1609413I127J1482D01*
G01X1976417Y1607931D02*
G03X1976361Y1607880I-4J-51D01*
G01Y1607873*
Y1607858D02*
G03Y1607873I-1487J15D01*
G01Y1607858D02*
X1976361D01*
G03X1976417Y1607806I52J-0*
G01X1978021Y1606323D02*
G03X1976417Y1607806I-1487J0D01*
G01X1975046Y1606323D02*
G03X1978021I1488J0D01*
G01X1975046D02*
X1975046D01*
Y1606338D02*
G03Y1606323I1488J-15D01*
G01Y1606338D02*
Y1606339D01*
G03X1974991Y1606390I-51J-0*
G01X1973386Y1607873D02*
G03X1974991Y1606390I1488J0D01*
G01X1975000Y1609355D02*
G03X1973386Y1607873I-126J-1482D01*
G01X1975000Y1609355D02*
G03X1975056Y1609407I5J52D01*
G01Y1609413*
X1975210Y1610072D02*
G03X1975056Y1609413I1334J-659D01*
G01X1975210Y1610072D02*
G03X1975216Y1610095I-46J23D01*
X1975166Y1610146I-52J-0*
G01X1973726Y1611633D02*
G03X1975166Y1610146I1488J0D01*
G01X1975783Y1613008D02*
G03X1973726Y1611633I-569J-1375D01*
G01X1975783Y1613008D02*
G03X1975851Y1613038I20J47D01*
G01X1978741Y1612543D02*
G03X1975851Y1613038I-1487J0D01*
G01X1975982Y1618157D02*
G03X1978641Y1619073I1172J916D01*
G01X1975982Y1618157D02*
G03X1975904Y1618160I-40J-32D01*
G01X1973336Y1619183D02*
G03X1975904Y1618160I1488J0D01*
G01X1975996Y1620100D02*
G03X1973336Y1619183I-1172J-917D01*
G01X1975996Y1620100D02*
G03X1976074Y1620096I40J31D01*
G01X1978641Y1619073D02*
G03X1976074Y1620096I-1487J0D01*
G01X1983828Y1631881D02*
Y1626365D01*
X1983628Y1626165D02*
G03X1983828Y1626365I0J200D01*
G01X1983628Y1626165D02*
X1978137D01*
X1977937Y1626365D02*
G03X1978137Y1626165I200J0D01*
G01X1977937Y1626365D02*
Y1631881D01*
X1978137Y1632081D02*
G03X1977937Y1631881I-0J-200D01*
G01X1978137Y1632081D02*
X1983628D01*
X1983828Y1631881D02*
G03X1983628Y1632081I-200J-0D01*
G01X1969704Y1633962D02*
X2027934D01*
X1969704Y1633602D02*
X2027934D01*
X1969704Y1633242D02*
X2027934D01*
X1969704Y1632882D02*
X2027934D01*
X1969704Y1632522D02*
X2027934D01*
X1969704Y1632162D02*
X2027934D01*
X1983828Y1631802D02*
X2027934D01*
X1983828Y1631442D02*
X2027934D01*
X1983828Y1631082D02*
X2027934D01*
X1983828Y1630722D02*
X2027934D01*
X1983828Y1630362D02*
X2027934D01*
X1983828Y1630002D02*
X2027934D01*
X1983828Y1629642D02*
X2027934D01*
X1983828Y1629282D02*
X2027934D01*
X1983828Y1628922D02*
X2027934D01*
X1983828Y1628562D02*
X2027934D01*
X1983828Y1628202D02*
X2027934D01*
X1983828Y1627842D02*
X2027934D01*
X1983828Y1627482D02*
X2027934D01*
X1983828Y1627122D02*
X2027934D01*
X1983828Y1626762D02*
X2027934D01*
X2023697Y1626402D02*
X2027934D01*
X2024048Y1626042D02*
X2027934D01*
X2024230Y1625682D02*
X2027934D01*
X2024306Y1625322D02*
X2027934D01*
X2024293Y1624962D02*
X2027934D01*
X2024187Y1624602D02*
X2027934D01*
X2023964Y1624242D02*
X2027934D01*
X2023519Y1623882D02*
X2027934D01*
X1997656Y1623522D02*
X2027934D01*
X1998312Y1623162D02*
X2027934D01*
X1998624Y1622802D02*
X2027934D01*
X1998803Y1622442D02*
X2027934D01*
X1998891Y1622082D02*
X2027934D01*
X1998901Y1621722D02*
X2027934D01*
X1998835Y1621362D02*
X2027934D01*
X1998684Y1621002D02*
X2027934D01*
X1998416Y1620642D02*
X2027934D01*
X1997916Y1620282D02*
X2027934D01*
X2000351Y1619922D02*
X2027934D01*
X2000949Y1619562D02*
X2027934D01*
X2001217Y1619202D02*
X2027934D01*
X2001352Y1618842D02*
X2027934D01*
X2001391Y1618482D02*
X2027934D01*
X2001342Y1618122D02*
X2027934D01*
X2001194Y1617762D02*
X2027934D01*
X2000904Y1617402D02*
X2027934D01*
X2000182Y1617042D02*
X2027934D01*
X1969704Y1616682D02*
X2027934D01*
X1969704Y1616322D02*
X2027934D01*
X1969704Y1615962D02*
X2027934D01*
X1989541Y1615602D02*
X2027934D01*
X2009961Y1615242D02*
X2027934D01*
X2010271Y1614882D02*
X2027934D01*
X2010431Y1614522D02*
X2027934D01*
X2010490Y1614162D02*
X2027934D01*
X2010461Y1613802D02*
X2027934D01*
X2010336Y1613442D02*
X2027934D01*
X2023104Y1613082D02*
X2027934D01*
X2023432Y1612722D02*
X2027934D01*
X2023602Y1612362D02*
X2027934D01*
X2023669Y1612002D02*
X2027934D01*
X2023647Y1611642D02*
X2027934D01*
X2023531Y1611282D02*
X2027934D01*
X2023293Y1610922D02*
X2027934D01*
X2022806Y1610562D02*
X2027934D01*
X1977805Y1610202D02*
X2027934D01*
X2023478Y1609842D02*
X2027934D01*
X2023854Y1609482D02*
X2027934D01*
X2024048Y1609122D02*
X2027934D01*
X2024133Y1608762D02*
X2027934D01*
X2024128Y1608402D02*
X2027934D01*
X2024031Y1608042D02*
X2027934D01*
X2023822Y1607682D02*
X2027934D01*
X2023410Y1607322D02*
X2027934D01*
X2022189Y1606962D02*
X2027934D01*
X2022121Y1606602D02*
X2027934D01*
X2021951Y1606242D02*
X2027934D01*
X2021621Y1605882D02*
X2027934D01*
X1977787Y1605522D02*
X2027934D01*
X1977464Y1605162D02*
X2027934D01*
X1969704Y1604802D02*
X2027934D01*
X1969704Y1604442D02*
X2027934D01*
X2009911Y1604082D02*
X2027934D01*
X2021992Y1603722D02*
X2027934D01*
X2022441Y1603362D02*
X2027934D01*
X2022666Y1603002D02*
X2027934D01*
X2022772Y1602642D02*
X2027934D01*
X2022787Y1602282D02*
X2027934D01*
X2022711Y1601922D02*
X2027934D01*
X2022531Y1601562D02*
X2027934D01*
X2022181Y1601202D02*
X2027934D01*
X2018993Y1600842D02*
X2027934D01*
X2013098Y1600482D02*
X2027934D01*
X2013348Y1600122D02*
X2027934D01*
X2013471Y1599762D02*
X2027934D01*
X2013500Y1599402D02*
X2027934D01*
X2013441Y1599042D02*
X2027934D01*
X2013280Y1598682D02*
X2027934D01*
X2012968Y1598322D02*
X2027934D01*
X1976206Y1597962D02*
X2027934D01*
X1976420Y1597602D02*
X2027934D01*
X1976519Y1597242D02*
X2027934D01*
X1976527Y1596882D02*
X2027934D01*
X1976446Y1596522D02*
X2027934D01*
X1976256Y1596162D02*
X2027934D01*
X1975888Y1595802D02*
X2027934D01*
X1969704Y1595442D02*
X2027934D01*
X1969704Y1595082D02*
X2027934D01*
X1969704Y1594722D02*
X2027934D01*
X1977409Y1594362D02*
X2027934D01*
X1977725Y1594002D02*
X2027934D01*
X2022248Y1593642D02*
X2027934D01*
X2022589Y1593282D02*
X2027934D01*
X2022766Y1592922D02*
X2027934D01*
X2022837Y1592562D02*
X2027934D01*
X2022820Y1592202D02*
X2027934D01*
X2022710Y1591842D02*
X2027934D01*
X2022481Y1591482D02*
X2027934D01*
X2022018Y1591122D02*
X2027934D01*
X2023688Y1590762D02*
X2027934D01*
X2024029Y1590402D02*
X2027934D01*
X2024206Y1590042D02*
X2027934D01*
X2024277Y1589682D02*
X2027934D01*
X2024260Y1589322D02*
X2027934D01*
X2024150Y1588962D02*
X2027934D01*
X2023921Y1588602D02*
X2027934D01*
X2023458Y1588242D02*
X2027934D01*
X2022972Y1587882D02*
X2027934D01*
X2023549Y1587522D02*
X2027934D01*
X2023812Y1587162D02*
X2027934D01*
X2023945Y1586802D02*
X2027934D01*
X2023981Y1586442D02*
X2027934D01*
X2023929Y1586082D02*
X2027934D01*
X2023778Y1585722D02*
X2027934D01*
X2023483Y1585362D02*
X2027934D01*
X2022713Y1585002D02*
X2027934D01*
X2023454Y1584642D02*
X2027934D01*
X2023864Y1584282D02*
X2027934D01*
X2024073Y1583922D02*
X2027934D01*
X2024168Y1583562D02*
X2027934D01*
X2024173Y1583202D02*
X2027934D01*
X2024087Y1582842D02*
X2027934D01*
X2023892Y1582482D02*
X2027934D01*
X2023514Y1582122D02*
X2027934D01*
X2020517Y1581762D02*
X2027934D01*
X2020635Y1581402D02*
X2027934D01*
X2020659Y1581042D02*
X2027934D01*
X2020594Y1580682D02*
X2027934D01*
X2020427Y1580322D02*
X2027934D01*
X2020104Y1579962D02*
X2027934D01*
X2005763Y1579602D02*
X2027934D01*
X1969704Y1579242D02*
X2027934D01*
X1969704Y1578882D02*
X2027934D01*
X1969704Y1578522D02*
X2027934D01*
X1969704Y1578162D02*
X2027934D01*
X1969704Y1577802D02*
X2027934D01*
X1969704Y1577442D02*
X2027934D01*
X1969704Y1577082D02*
X2027934D01*
X1969704Y1576722D02*
X2027934D01*
X1969704Y1576362D02*
X2027934D01*
X1999337Y1585002D02*
X2022275D01*
X1997314Y1588242D02*
X2022130D01*
X1969704Y1623882D02*
X2022129D01*
X1997587Y1587882D02*
X2022016D01*
X1983828Y1626402D02*
X2021951D01*
X2017703Y1584642D02*
X2021934D01*
X1992738Y1590762D02*
X2021900D01*
X2020276Y1582122D02*
X2021874D01*
X1977968Y1609842D02*
X2021830D01*
X1969704Y1624242D02*
X2021684D01*
X1996694Y1588602D02*
X2021667D01*
X1969704Y1626042D02*
X2021600D01*
X2009372Y1610562D02*
X2021562D01*
X1993562Y1590402D02*
X2021559D01*
X2018007Y1584282D02*
X2021524D01*
X1999599Y1585362D02*
X2021505D01*
X2019779Y1582482D02*
X2021496D01*
X1969704Y1624602D02*
X2021461D01*
X1978030Y1609482D02*
X2021454D01*
X1998482Y1587522D02*
X2021439D01*
X1994373Y1588962D02*
X2021438D01*
X1969704Y1625682D02*
X2021418D01*
X1994020Y1590042D02*
X2021382D01*
X1969704Y1624962D02*
X2021355D01*
X1969704Y1625322D02*
X2021342D01*
X1994357Y1589322D02*
X2021328D01*
X2018164Y1583922D02*
X2021315D01*
X1994248Y1589682D02*
X2021310D01*
X2018061Y1582842D02*
X2021301D01*
X2010086Y1613082D02*
X2021264D01*
X2013192Y1609122D02*
X2021260D01*
X2018221Y1583562D02*
X2021220D01*
X2018189Y1583202D02*
X2021215D01*
X1999731Y1585722D02*
X2021210D01*
X1999266Y1587162D02*
X2021175D01*
X2013641Y1608762D02*
X2021175D01*
X2010025Y1610922D02*
X2021075D01*
X1999767Y1586082D02*
X2021059D01*
X1999562Y1586802D02*
X2021043D01*
X1999714Y1586442D02*
X2021007D01*
X2010306Y1612722D02*
X2020935D01*
X2010305Y1611282D02*
X2020837D01*
X2010448Y1612362D02*
X2020766D01*
X2010447Y1611642D02*
X2020721D01*
X2010491Y1612002D02*
X2020699D01*
X1992618Y1591122D02*
X2020690D01*
X2010350Y1603722D02*
X2020616D01*
X1977888Y1593642D02*
X2020460D01*
X2019387Y1601202D02*
X2020427D01*
X1992372Y1591482D02*
X2020227D01*
X2018997Y1603362D02*
X2020167D01*
X1977950Y1593282D02*
X2020119D01*
X2019589Y1601562D02*
X2020077D01*
X2013866Y1608402D02*
X2020076D01*
X1991862Y1591842D02*
X2019998D01*
X2019389Y1603002D02*
X2019942D01*
X1977923Y1592922D02*
X2019942D01*
X2019680Y1601922D02*
X2019896D01*
X1977555Y1592202D02*
X2019888D01*
X1977801Y1592562D02*
X2019870D01*
X2019590Y1602642D02*
X2019836D01*
X2019681Y1602282D02*
X2019821D01*
X1977954Y1605882D02*
X2019787D01*
X2013972Y1608042D02*
X2019593D01*
X1978019Y1606242D02*
X2019457D01*
X2013987Y1607682D02*
X2019356D01*
X2013381Y1606602D02*
X2019287D01*
X2013911Y1607322D02*
X2019241D01*
X2013731Y1606962D02*
X2019219D01*
X2017806Y1582482D02*
X2018568D01*
X2009453Y1579962D02*
X2018244D01*
X2017260Y1582122D02*
X2018072D01*
X2015450Y1580322D02*
X2017921D01*
X2016801Y1581762D02*
X2017831D01*
X2016291Y1580682D02*
X2017753D01*
X2016746Y1581402D02*
X2017713D01*
X2016592Y1581042D02*
X2017689D01*
X2012572Y1600842D02*
X2017415D01*
X2010570Y1603362D02*
X2017411D01*
X2011788Y1601202D02*
X2017021D01*
X2010674Y1603002D02*
X2017019D01*
X2011693Y1601562D02*
X2016818D01*
X2010686Y1602642D02*
X2016817D01*
X2011484Y1601922D02*
X2016728D01*
X2011074Y1602282D02*
X2016727D01*
X1998764Y1584642D02*
X2015765D01*
X2014116Y1584282D02*
X2015460D01*
X2014627Y1583922D02*
X2015304D01*
X2014873Y1583562D02*
X2015247D01*
X2009817Y1580322D02*
X2015178D01*
X2010004Y1580682D02*
X2014336D01*
X2010085Y1581042D02*
X2014036D01*
X2010075Y1581402D02*
X2013882D01*
X1976068Y1584282D02*
X2012951D01*
X2009974Y1581762D02*
X2012592D01*
X1976247Y1583922D02*
X2012441D01*
X2009758Y1582122D02*
X2012274D01*
X1986675Y1583562D02*
X2012195D01*
X2009329Y1582482D02*
X2012110D01*
X1987479Y1583202D02*
X2012075D01*
X1987777Y1582842D02*
X2012048D01*
X1978003Y1609122D02*
X2011816D01*
X1977995Y1606602D02*
X2011627D01*
X1977881Y1608762D02*
X2011367D01*
X1977877Y1606962D02*
X2011277D01*
X1977635Y1608402D02*
X2011142D01*
X1977636Y1607322D02*
X2011096D01*
X1976065Y1598322D02*
X2011060D01*
X1977120Y1608042D02*
X2011036D01*
X1977139Y1607682D02*
X2011021D01*
X1976263Y1598682D02*
X2010748D01*
X1976352Y1599042D02*
X2010587D01*
X1976349Y1599402D02*
X2010528D01*
X1976257Y1599762D02*
X2009494D01*
X1976052Y1600122D02*
X2009116D01*
X1975651Y1600482D02*
X2008921D01*
X1976251Y1601202D02*
X2008840D01*
X1975996Y1600842D02*
X2008835D01*
X1977489Y1610562D02*
X2008636D01*
X1969704Y1604082D02*
X2008497D01*
X1976379Y1601562D02*
X2008341D01*
X1969704Y1603722D02*
X2008058D01*
X1990139Y1615242D02*
X2008047D01*
X1976411Y1601922D02*
X2007984D01*
X1976552Y1610922D02*
X2007982D01*
X1990094Y1613082D02*
X2007921D01*
X2005615Y1582482D02*
X2007879D01*
X1969704Y1603362D02*
X2007838D01*
X1976354Y1602282D02*
X2007800D01*
X2006366Y1579962D02*
X2007755D01*
X1990407Y1614882D02*
X2007737D01*
X1975893Y1603002D02*
X2007734D01*
X1976197Y1602642D02*
X2007722D01*
X1978043Y1611282D02*
X2007703D01*
X1989372Y1612722D02*
X2007702D01*
X1990384Y1613442D02*
X2007671D01*
X1990542Y1614522D02*
X2007577D01*
X1978437Y1611642D02*
X2007561D01*
X1978730Y1612362D02*
X2007560D01*
X1990532Y1613802D02*
X2007547D01*
X1990581Y1614162D02*
X2007518D01*
X1978639Y1612002D02*
X2007516D01*
X2006327Y1582122D02*
X2007450D01*
X2006636Y1580322D02*
X2007391D01*
X2006615Y1581762D02*
X2007234D01*
X2006772Y1580682D02*
X2007203D01*
X2006762Y1581402D02*
X2007133D01*
X2006811Y1581042D02*
X2007123D01*
X1987930Y1582482D02*
X2005033D01*
X1969704Y1579602D02*
X2004885D01*
X1987983Y1582122D02*
X2004321D01*
X1985369Y1579962D02*
X2004282D01*
X1987948Y1581762D02*
X2004033D01*
X1985715Y1580322D02*
X2004012D01*
X1987817Y1581402D02*
X2003885D01*
X1986989Y1580682D02*
X2003876D01*
X1987556Y1581042D02*
X2003837D01*
X1969704Y1617042D02*
X1999626D01*
X1996881Y1619922D02*
X1999457D01*
X1969704Y1617402D02*
X1998904D01*
X1996728Y1619562D02*
X1998859D01*
X1990421Y1617762D02*
X1998614D01*
X1996728Y1619202D02*
X1998591D01*
X1990434Y1618122D02*
X1998466D01*
X1996723Y1618842D02*
X1998455D01*
X1996393Y1618482D02*
X1998417D01*
X1997726Y1587522D02*
X1998077D01*
X1975721Y1584642D02*
X1997795D01*
X1975987Y1585002D02*
X1997222D01*
X1976231Y1585362D02*
X1996960D01*
X1996605Y1585722D02*
X1996828D01*
X1969704Y1623522D02*
X1996676D01*
X1969704Y1623162D02*
X1996020D01*
X1976351Y1585722D02*
X1995954D01*
X1994300Y1588602D02*
X1995865D01*
X1969704Y1622802D02*
X1995708D01*
X1969704Y1622442D02*
X1995529D01*
X1969704Y1622082D02*
X1995441D01*
X1969704Y1621722D02*
X1995400D01*
X1976377Y1586082D02*
X1995269D01*
X1994122Y1588242D02*
X1995245D01*
X1984290Y1586442D02*
X1994984D01*
X1993778Y1587882D02*
X1994972D01*
X1985132Y1586802D02*
X1994839D01*
X1985587Y1587522D02*
X1994833D01*
X1985432Y1587162D02*
X1994792D01*
X1990434Y1618482D02*
X1994520D01*
X1989780Y1621362D02*
X1994380D01*
X1990434Y1618842D02*
X1994148D01*
X1990140Y1621002D02*
X1994041D01*
X1990433Y1620642D02*
X1994027D01*
X1990434Y1620282D02*
X1994027D01*
X1990434Y1619922D02*
X1994027D01*
X1990434Y1619562D02*
X1994027D01*
X1990434Y1619202D02*
X1994027D01*
X1985641Y1587882D02*
X1992001D01*
X1985608Y1588242D02*
X1991657D01*
X1985478Y1588602D02*
X1991479D01*
X1985219Y1588962D02*
X1991402D01*
X1977040Y1591842D02*
X1990696D01*
X1984661Y1589322D02*
X1990337D01*
X1969704Y1591482D02*
X1990185D01*
X1976356Y1589682D02*
X1990019D01*
X1969704Y1591122D02*
X1989940D01*
X1976231Y1590042D02*
X1989855D01*
X1975442Y1590762D02*
X1989820D01*
X1975978Y1590402D02*
X1989793D01*
X1978731Y1612722D02*
X1988816D01*
X1969704Y1615602D02*
X1988647D01*
X1978640Y1613082D02*
X1988094D01*
X1969704Y1615242D02*
X1988049D01*
X1983922Y1617762D02*
X1987982D01*
X1984855Y1618482D02*
X1987904D01*
X1984575Y1618122D02*
X1987904D01*
X1978439Y1613442D02*
X1987804D01*
X1969704Y1621362D02*
X1987784D01*
X1969704Y1614882D02*
X1987781D01*
X1978047Y1613802D02*
X1987656D01*
X1969704Y1614522D02*
X1987645D01*
X1969704Y1614162D02*
X1987607D01*
X1984997Y1618842D02*
X1987592D01*
X1969704Y1621002D02*
X1987424D01*
X1985041Y1619202D02*
X1987264D01*
X1983932Y1620642D02*
X1987254D01*
X1984578Y1620282D02*
X1987254D01*
X1984856Y1619922D02*
X1987254D01*
X1984998Y1619562D02*
X1987254D01*
X1976321Y1583562D02*
X1986317D01*
X1985898Y1580682D02*
X1986002D01*
X1976305Y1583202D02*
X1985513D01*
X1976198Y1582842D02*
X1985215D01*
X1976314Y1586442D02*
X1984019D01*
X1981807Y1582482D02*
X1983805D01*
X1976387Y1589322D02*
X1983648D01*
X1982012Y1579962D02*
X1983603D01*
X1982261Y1582122D02*
X1983352D01*
X1982358Y1580322D02*
X1983256D01*
X1981872Y1617762D02*
X1983186D01*
X1976149Y1586802D02*
X1983177D01*
X1981882Y1620642D02*
X1983176D01*
X1982487Y1581762D02*
X1983126D01*
X1976329Y1588962D02*
X1983090D01*
X1982537Y1580682D02*
X1983077D01*
X1982595Y1581402D02*
X1983018D01*
X1982611Y1581042D02*
X1983003D01*
X1975830Y1587162D02*
X1982877D01*
X1976170Y1588602D02*
X1982831D01*
X1969704Y1587522D02*
X1982722D01*
X1975862Y1588242D02*
X1982702D01*
X1969704Y1587882D02*
X1982668D01*
X1977856Y1617762D02*
X1981136D01*
X1975115Y1620642D02*
X1981126D01*
X1978298Y1618122D02*
X1980482D01*
X1978021Y1620282D02*
X1980480D01*
X1979633Y1582482D02*
X1980449D01*
X1979896Y1579962D02*
X1980244D01*
X1978519Y1618482D02*
X1980203D01*
X1978376Y1619922D02*
X1980202D01*
X1978623Y1618842D02*
X1980061D01*
X1978559Y1619562D02*
X1980060D01*
X1978636Y1619202D02*
X1980016D01*
X1977456Y1582482D02*
X1978345D01*
X1977874Y1579962D02*
X1978082D01*
X1969704Y1631802D02*
X1977937D01*
X1969704Y1631442D02*
X1977937D01*
X1969704Y1631082D02*
X1977937D01*
X1969704Y1630722D02*
X1977937D01*
X1969704Y1630362D02*
X1977937D01*
X1969704Y1630002D02*
X1977937D01*
X1969704Y1629642D02*
X1977937D01*
X1969704Y1629282D02*
X1977937D01*
X1969704Y1628922D02*
X1977937D01*
X1969704Y1628562D02*
X1977937D01*
X1969704Y1628202D02*
X1977937D01*
X1969704Y1627842D02*
X1977937D01*
X1969704Y1627482D02*
X1977937D01*
X1969704Y1627122D02*
X1977937D01*
X1969704Y1626762D02*
X1977937D01*
X1969704Y1626402D02*
X1977937D01*
X1969704Y1613802D02*
X1976461D01*
X1975263Y1617762D02*
X1976452D01*
X1975971Y1582482D02*
X1976370D01*
X1975827Y1620282D02*
X1976287D01*
X1969704Y1613442D02*
X1976069D01*
X1975866Y1618122D02*
X1976010D01*
X1969704Y1579962D02*
X1975952D01*
X1969704Y1591842D02*
X1975888D01*
X1975552Y1613082D02*
X1975867D01*
X1975517Y1582122D02*
X1975835D01*
X1969704Y1580322D02*
X1975643D01*
X1969704Y1605162D02*
X1975604D01*
X1969704Y1581762D02*
X1975582D01*
X1969704Y1594362D02*
X1975519D01*
X1969704Y1580682D02*
X1975485D01*
X1969704Y1581402D02*
X1975457D01*
X1969704Y1581042D02*
X1975426D01*
X1969704Y1592202D02*
X1975373D01*
X1969704Y1605522D02*
X1975281D01*
X1969704Y1594002D02*
X1975203D01*
X1969704Y1592562D02*
X1975127D01*
X1969704Y1609842D02*
X1975120D01*
X1969704Y1605882D02*
X1975113D01*
X1969704Y1609482D02*
X1975058D01*
X1969704Y1606242D02*
X1975049D01*
X1969704Y1593642D02*
X1975040D01*
X1969704Y1592922D02*
X1975005D01*
X1969704Y1593282D02*
X1974978D01*
X1969704Y1613082D02*
X1974876D01*
X1969704Y1610202D02*
X1974809D01*
X1969704Y1620642D02*
X1974533D01*
X1969704Y1617762D02*
X1974385D01*
X1969704Y1590762D02*
X1974358D01*
X1969704Y1595802D02*
X1974206D01*
X1969704Y1612722D02*
X1974200D01*
X1969704Y1610562D02*
X1974182D01*
X1969704Y1582122D02*
X1974159D01*
X1969704Y1606602D02*
X1974102D01*
X1969704Y1600482D02*
X1974097D01*
X1969704Y1609122D02*
X1974066D01*
X1969704Y1603002D02*
X1973955D01*
X1969704Y1584642D02*
X1973954D01*
X1969704Y1587162D02*
X1973952D01*
X1969704Y1588242D02*
X1973939D01*
X1969704Y1612362D02*
X1973917D01*
X1969704Y1610922D02*
X1973908D01*
X1969704Y1597962D02*
X1973889D01*
X1969704Y1600842D02*
X1973852D01*
X1969704Y1596162D02*
X1973839D01*
X1969704Y1590402D02*
X1973822D01*
X1969704Y1620282D02*
X1973821D01*
X1969704Y1585002D02*
X1973795D01*
X1969704Y1618122D02*
X1973782D01*
X1969704Y1612002D02*
X1973773D01*
X1969704Y1611282D02*
X1973768D01*
X1969704Y1611642D02*
X1973726D01*
X1969704Y1582482D02*
X1973704D01*
X1969704Y1606962D02*
X1973698D01*
X1969704Y1600122D02*
X1973696D01*
X1969704Y1598322D02*
X1973683D01*
X1969704Y1608762D02*
X1973681D01*
X1969704Y1597602D02*
X1973675D01*
X1969704Y1602642D02*
X1973650D01*
X1969704Y1596522D02*
X1973649D01*
X1969704Y1586802D02*
X1973633D01*
X1969704Y1588602D02*
X1973630D01*
X1969704Y1584282D02*
X1973608D01*
X1969704Y1601202D02*
X1973597D01*
X1969704Y1597242D02*
X1973575D01*
X1969704Y1590042D02*
X1973570D01*
X1969704Y1596882D02*
X1973567D01*
X1969704Y1585362D02*
X1973551D01*
X1969704Y1619922D02*
X1973533D01*
X1969704Y1618482D02*
X1973512D01*
X1969704Y1602282D02*
X1973494D01*
X1969704Y1607322D02*
X1973492D01*
X1969704Y1599762D02*
X1973491D01*
X1969704Y1598682D02*
X1973485D01*
X1969704Y1608402D02*
X1973484D01*
X1969704Y1582842D02*
X1973478D01*
X1969704Y1588962D02*
X1973472D01*
X1969704Y1601562D02*
X1973469D01*
X1969704Y1586442D02*
X1973468D01*
X1969704Y1589682D02*
X1973444D01*
X1969704Y1601922D02*
X1973437D01*
X1969704Y1585722D02*
X1973431D01*
X1969704Y1583922D02*
X1973429D01*
X1969704Y1589322D02*
X1973414D01*
X1969704Y1586082D02*
X1973405D01*
X1969704Y1607682D02*
X1973399D01*
X1969704Y1599402D02*
X1973398D01*
X1969704Y1599042D02*
X1973396D01*
X1969704Y1608042D02*
X1973396D01*
X1969704Y1619562D02*
X1973385D01*
X1969704Y1618842D02*
X1973376D01*
X1969704Y1583202D02*
X1973370D01*
X1969704Y1583562D02*
X1973355D01*
X1969704Y1619202D02*
X1973337D01*
G54D310*
X1977285Y1583805D03*
X1974836Y1581367D03*
X1975434Y1604303D03*
X1977614Y1614763D03*
X1974900Y1589377D03*
X1975047Y1597029D03*
X1974874Y1599213D03*
X1974924Y1601873D03*
X1976534Y1606323D03*
X1978989Y1581141D03*
X1976913Y1581097D03*
X1974838Y1583445D03*
X1974891Y1586008D03*
X1975214Y1611633D03*
X1977254Y1612543D03*
X1976544Y1609413D03*
X1974874Y1607873D03*
X1976464Y1593213D03*
X2012846Y1612678D03*
X2011154Y1614303D03*
X1985994Y1602023D03*
X1997824Y1617323D03*
X1983924Y1598173D03*
X2018207Y1613072D03*
X1988459Y1604803D03*
X1982711Y1582510D03*
X1997559Y1595203D03*
X1995494Y1593173D03*
X1994994Y1589073D03*
X1982650Y1584768D03*
X1986924Y1584153D03*
X2000219Y1592613D03*
X1988844Y1593333D03*
X2010079Y1597553D03*
X1995744Y1601867D03*
X1995579Y1605663D03*
X1986044Y1596623D03*
X1990974Y1601867D03*
X1982794Y1614283D03*
X2002084Y1599167D03*
X1995574Y1597327D03*
X2002044Y1608393D03*
X1992214D03*
X1999314Y1601867D03*
X2000344Y1587973D03*
X2016097Y1612253D03*
X2004234Y1601867D03*
X2005634Y1593373D03*
X2009344Y1587623D03*
X2006244Y1585353D03*
X2010784Y1581243D03*
X1988864Y1581253D03*
X2003164Y1590693D03*
X2018304Y1586493D03*
X2019174Y1581123D03*
X2013534Y1582913D03*
X2009004Y1614103D03*
Y1612003D03*
X2012504Y1607803D03*
X2009204Y1602773D03*
X2010314Y1601003D03*
X2012014Y1599463D03*
X2016734Y1583513D03*
X2015314Y1581803D03*
X2008604Y1581183D03*
X2005324Y1581023D03*
X1989094Y1614183D03*
X1998280Y1586048D03*
X1996280Y1587173D03*
X1992890Y1589075D03*
X1991279Y1590473D03*
X1981128Y1581158D03*
X1986496Y1582085D03*
X1984486Y1581159D03*
X1999904Y1618503D03*
X2018204Y1602103D03*
X1984155Y1587923D03*
X2022484Y1581143D03*
X2022604Y1617153D03*
X2022654Y1608603D03*
X2021304Y1602403D03*
X2022184Y1611913D03*
X2021354Y1592453D03*
X2022794Y1589573D03*
X2022494Y1586473D03*
X2022694Y1583363D03*
X2020704Y1607053D03*
X1974891Y1627680D03*
X1977984Y1622033D03*
X1975704Y1625203D03*
X1974704Y1629863D03*
X1974824Y1619183D03*
X1977154Y1619073D03*
X1997166Y1621852D03*
X1983068Y1622058D03*
X1988111Y1622267D03*
X2019754Y1623503D03*
X1988223Y1624435D03*
X2005984Y1626503D03*
X1985554Y1626023D03*
X2004544Y1624843D03*
X2003704Y1629553D03*
X1987106Y1632008D03*
X2005041Y1619039D03*
X2009194Y1626353D03*
X2011924Y1627653D03*
X1985525Y1622042D03*
X1998685Y1627664D03*
X1995913Y1623885D03*
X2000553Y1629773D03*
X2005034Y1621443D03*
X1980578Y1622395D03*
X1997648Y1629833D03*
X1989134Y1626434D03*
X2002064Y1627533D03*
X1990554Y1624263D03*
X1997406Y1619510D03*
X1990579Y1621490D03*
X2000520Y1623320D03*
X1995977Y1627231D03*
X1998332Y1624518D03*
X1994837Y1629916D03*
X2000780Y1625525D03*
X1990453Y1631803D03*
X2017604Y1625603D03*
X2015204Y1627853D03*
X1988827Y1619984D03*
X1983554Y1619203D03*
X1981504D03*
X2022683Y1629903D03*
X2022554Y1621853D03*
X2022804Y1619403D03*
X2022824Y1625197D03*
G74*
X0Y0D02*
M02*
