*
*
G04 PADS VX.2 Build Number: 5060570 generated Gerber (RS-274-X) file*
G04 PC Version=2.1*
*
%IN "PCB_ESP32-S3-MINI-1U_V1"*%
*
%MOIN*%
*
%FSLAX35Y35*%
*
*
*
*
G04 PC Standard Apertures*
*
*
G04 Thermal Relief Aperture macro.*
%AMTER*
1,1,$1,0,0*
1,0,$1-$2,0,0*
21,0,$3,$4,0,0,45*
21,0,$3,$4,0,0,135*
%
*
*
G04 Annular Aperture macro.*
%AMANN*
1,1,$1,0,0*
1,0,$2,0,0*
%
*
*
G04 Odd Aperture macro.*
%AMODD*
1,1,$1,0,0*
1,0,$1-0.005,0,0*
%
*
*
G04 PC Custom Aperture Macros*
*
*
*
*
*
*
G04 PC Aperture Table*
*
%ADD010C,0.001*%
%ADD024C,0.005*%
%ADD031C,0.00394*%
%ADD055C,0.004*%
%ADD059R,0.03543X0.03543*%
%ADD060C,0.015*%
%ADD310C,0.01575*%
%ADD383R,0.03543X0.01969*%
%ADD384R,0.01969X0.03543*%
%ADD385R,0.04724X0.04724*%
*
*
*
*
G04 PC Circuitry*
G04 Layer Name PCB_ESP32-S3-MINI-1U_V1 - circuitry*
%LPD*%
*
*
G04 PC Custom Flashes*
G04 Layer Name PCB_ESP32-S3-MINI-1U_V1 - flashes*
%LPD*%
*
*
G04 PC Circuitry*
G04 Layer Name PCB_ESP32-S3-MINI-1U_V1 - circuitry*
%LPD*%
*
G54D10*
G54D24*
G01X1978740Y1579727D02*
G75*
G03X1979252Y1579081I664J0D01*
G01X1978228D02*
G03X1978740Y1579727I-152J646D01*
G01Y1579081*
Y1580276D02*
G03X1978486Y1580952I-1025J-0D01*
G01X1979102Y1580616D02*
G03X1978740Y1580276I-21J-340D01*
G01X1978815Y1580633D02*
G03X1978740Y1580276I818J-357D01*
G01Y1577559D02*
Y1579727D01*
X1978740*
Y1580892*
X1978989Y1581141*
X1976009Y1579765D02*
G03X1976128Y1579081I2034J0D01*
G01X1975708D02*
G03X1976009Y1579765I-629J684D01*
G01X1976276Y1580461D02*
G03X1976384Y1581003I-351J351D01*
G01X1976819Y1580568D02*
G03X1976276Y1580461I-191J-459D01*
G01X1976533Y1580717*
X1975394Y1577559D02*
X1976009Y1578175D01*
Y1580193*
X1976913Y1581097*
X2015605Y1579765D02*
G03X2016179Y1579081I695J0D01*
G01X2015030D02*
G03X2015605Y1579765I-121J684D01*
X2015796Y1579081I1320J0*
G01X2015413D02*
G03X2015605Y1579765I-1129J684D01*
G01X2015551Y1577559D02*
X2015605D01*
Y1581323*
X2012205Y1579765D02*
G03X2012779Y1579081I695J0D01*
G01X2011630D02*
G03X2012205Y1579765I-121J684D01*
X2012396Y1579081I1319J0*
G01X2012013D02*
G03X2012205Y1579765I-1128J684D01*
G01X2013434Y1582018D02*
G03X2013070Y1582642I-716J0D01*
G01X2013734Y1582414D02*
G03X2013434Y1582018I111J-396D01*
G01X2013447Y1582383*
X2012205Y1577559D02*
Y1580133D01*
X2013434Y1581362*
Y1582813*
X2013534Y1582913*
X2005607Y1579765D02*
G03X2006149Y1579081I703J0D01*
G01X2005065D02*
G03X2005607Y1579765I-162J684D01*
X2005788Y1579081I1388J0*
G01X2005426D02*
G03X2005607Y1579765I-1207J684D01*
G01X2005512Y1577559D02*
X2005607D01*
Y1580740*
X1999859Y1579513D02*
G03X1999553Y1579081I1108J-1108D01*
G01X1999189D02*
G03X1999859Y1579513I-667J1768D01*
G01X1998819Y1577559D02*
Y1578473D01*
X1999859Y1579513*
X1993220Y1579565D02*
G03X1992860Y1579081I1455J-1456D01*
G01X1992434D02*
G03X1993220Y1579565I-627J1896D01*
G01X1992126Y1577559D02*
Y1578471D01*
X1993245Y1579590*
X1972781Y1582427D02*
G03X1973266Y1582765I-703J1525D01*
X1972781Y1581976I1406J-1407*
G01X1973946Y1583445D02*
G03X1974396Y1583751I0J484D01*
G01Y1583139D02*
G03X1973946Y1583445I-450J-177D01*
G01X1974300*
X1971260Y1581693D02*
X1972194D01*
X1973946Y1583445*
X1974838*
X1972781Y1585614D02*
G03X1973466Y1585039I685J121D01*
X1972781Y1584465I0J-695*
G01Y1585231D02*
G03X1973466Y1585039I685J1128D01*
X1972781Y1584848I0J-1319*
G01X1974254Y1585371D02*
G03X1974362Y1585914I-351J352D01*
G01X1974797Y1585479D02*
G03X1974254Y1585371I-191J-459D01*
G01X1974511Y1585628*
X1971260Y1585039D02*
X1973794D01*
X1973794*
X1973950*
Y1585067*
X1974891Y1586008*
X1972781Y1588961D02*
G03X1973466Y1588386I685J120D01*
X1972781Y1587811I0J-695*
G01Y1588577D02*
G03X1973466Y1588386I685J1128D01*
X1972781Y1588194I0J-1320*
G01X1974264Y1588740D02*
G03X1974371Y1589283I-352J352D01*
G01X1974806Y1588847D02*
G03X1974264Y1588740I-191J-459D01*
G01X1974520Y1588997*
X1971260Y1588386D02*
X1973909D01*
X1974900Y1589377*
X1972781Y1592307D02*
G03X1973466Y1591732I685J121D01*
X1972781Y1591158I0J-695*
G01Y1591924D02*
G03X1973466Y1591732I685J1128D01*
X1972781Y1591541I0J-1319*
G01X1975827Y1592577D02*
G03X1975935Y1593119I-351J351D01*
G01X1976370Y1592684D02*
G03X1975827Y1592577I-191J-459D01*
G01X1976084Y1592833*
X1971260Y1591732D02*
X1974983D01*
X1976464Y1593213*
X1972781Y1595813D02*
G03X1973466Y1595724I685J2589D01*
X1972781Y1595427I0J-938*
G01X1974375Y1596430D02*
G03X1974510Y1597051I-416J416D01*
G01X1974874Y1596520D02*
G03X1974375Y1596430I-184J-405D01*
G01X1974632Y1596687*
X1971260Y1595079D02*
X1971905Y1595724D01*
X1973669*
X1974974Y1597029*
X1975047*
X1972781Y1599000D02*
G03X1973466Y1598425I685J120D01*
X1972781Y1597850I0J-695*
G01Y1598617D02*
G03X1973466Y1598425I685J1128D01*
X1972781Y1598234I0J-1319*
G01X1974157Y1598668D02*
G03X1974358Y1599362I-528J529D01*
G01X1974650Y1598724D02*
G03X1974157Y1598668I-211J-337D01*
G01X1974430Y1598910D02*
G03X1974157Y1598668I1832J-2347D01*
G01X1971260Y1598425D02*
X1973914D01*
X1974702Y1599213*
X1974874*
X1972781Y1602346D02*
G03X1973466Y1601772I685J121D01*
X1972781Y1601197I0J-696*
G01Y1601963D02*
G03X1973466Y1601772I685J1128D01*
X1972781Y1601580I0J-1320*
G01X1974029Y1601772D02*
G03X1974425Y1602072I0J410D01*
G01X1974654Y1601409D02*
G03X1974029Y1601772I-625J-356D01*
G01X1974394Y1601786*
X1971260Y1601772D02*
X1974822D01*
X1974924Y1601873*
X1972781Y1605693D02*
G03X1973466Y1605118I685J120D01*
X1972781Y1604543I0J-695*
G01Y1605310D02*
G03X1973466Y1605118I685J1128D01*
X1972781Y1604927I0J-1319*
G01X1975634Y1606323D02*
G03X1976093Y1606631I-0J497D01*
G01Y1606015D02*
G03X1975634Y1606323I-459J-189D01*
G01X1975996*
X1971260Y1605118D02*
X1973909D01*
X1975114Y1606323*
X1976534*
X1972781Y1608177D02*
G03X1973466Y1607873I685J619D01*
X1972781Y1607730I0J-1713*
G01X1973974Y1607873D02*
G03X1974433Y1608181I-0J497D01*
G01Y1607565D02*
G03X1973974Y1607873I-459J-189D01*
G01X1974336*
X1971260Y1608465D02*
Y1607873D01*
X1974874*
X1972781Y1611364D02*
G03X1973266Y1610593I1928J672D01*
G01X1972781Y1611077*
X1975644Y1609413D02*
G03X1976103Y1609721I-0J497D01*
G01Y1609105D02*
G03X1975644Y1609413I-459J-189D01*
G01X1976006*
X1971260Y1611811D02*
X1972047D01*
X1974445Y1609413*
X1976544*
X1972781Y1614820D02*
G03X1973266Y1614038I1904J637D01*
X1972781Y1614423I-1943J-1943*
G01X1974848Y1612456D02*
G03X1975477Y1612102I946J946D01*
G01X1974789Y1611963D02*
G03X1974848Y1612456I-165J269D01*
G01X1975020Y1612135D02*
G03X1974848Y1612456I-620J-127D01*
G01X1971260Y1615157D02*
X1972146D01*
X1975214Y1612089*
Y1611633*
X1972781Y1618057D02*
G03X1973266Y1617285I1928J672D01*
G01X1973266D02*
X1972781Y1617770D01*
X1976617Y1613180D02*
G03X1977160Y1613072I352J351D01*
G01X1976725Y1612637D02*
G03X1976617Y1613180I-459J191D01*
G01X1976874Y1612923*
X1971260Y1618504D02*
X1972047D01*
X1974364Y1616187*
Y1615433*
X1977254Y1612543*
X1992306Y1589075D02*
G03X1992369Y1589209I0J82D01*
G01Y1588940D02*
G03X1992306Y1589075I-63J53D01*
G01X1991530Y1588298D02*
X1992306Y1589075D01*
X1992890*
X1994365Y1579479D02*
G03X1994959Y1579081I1308J1308D01*
G01X1994365Y1579479D02*
X1994738Y1579081D01*
X1991530Y1588298D02*
Y1585968D01*
X1994365Y1583132*
Y1579479*
X1995472Y1578372*
Y1577559*
X1990457Y1585430D02*
X1993245Y1582642D01*
Y1579590*
X1990642Y1589837D02*
G03X1990750Y1590380I-351J351D01*
G01X1991185Y1589944D02*
G03X1990642Y1589837I-191J-459D01*
G01X1990899Y1590093*
X1990457Y1585430D02*
Y1589651D01*
X1991279Y1590473*
X2019642Y1581388D02*
G03X2019997Y1580759I1309J324D01*
X2019504Y1580699I-223J-223*
G01X2019997Y1580759D02*
G03X2019676Y1580931I-444J-444D01*
G01X2021191Y1579565D02*
G03X2021983Y1579081I1401J1401D01*
G01X2021510D02*
G03X2021191Y1579565I-1335J-532D01*
G01X2019174Y1581123D02*
X2019633D01*
X2022244Y1578512*
Y1577559*
X2012812Y1607363D02*
G03X2012504Y1606903I189J-460D01*
X2012196Y1607363I-497J-0*
G01X2012504Y1606903D02*
Y1607266D01*
X2024372Y1604021D02*
G03X2024856Y1604807I-1413J1414D01*
G01Y1604384D02*
G03X2024372Y1604021I1020J-1866D01*
G01X2012504Y1607803D02*
Y1604153D01*
X2018104Y1598553*
X2021135*
X2023855Y1601273*
Y1603504*
X2025469Y1605118*
X2026378*
X2009644Y1603081D02*
G03X2010104Y1602773I460J189D01*
X2009644Y1602465I0J-497*
G01X2010104Y1602773D02*
X2009741D01*
X2025294Y1601037D02*
G03X2024641Y1600553I1303J-2440D01*
X2024900Y1601037I-670J670*
G01X2009204Y1602773D02*
X2012384D01*
X2017604Y1597553*
X2021641*
X2025859Y1601772*
X2026378*
X2010754Y1601311D02*
G03X2011214Y1601003I460J189D01*
X2010754Y1600695I0J-497*
G01X2011214Y1601003D02*
X2010851D01*
X2024372Y1597521D02*
G03X2024856Y1598340I-1353J1353D01*
G01Y1597691D02*
G03X2024372Y1597521I-66J-588D01*
G01X2024856Y1598015*
X2010314Y1601003D02*
X2012654D01*
X2017104Y1596553*
X2023404*
X2025276Y1598425*
X2026378*
X2012504Y1599684D02*
G03X2012694Y1599463I190J-29D01*
X2012504Y1599243I-0J-192*
G01X2012694Y1599463D02*
X2012551D01*
X2024172Y1595553D02*
G03X2024856Y1595813I-0J1032D01*
G01Y1595230D02*
G03X2024172Y1595553I-684J-564D01*
G01X2024856Y1595521D02*
G03X2024172Y1595553I-684J-7390D01*
G01X2012014Y1599463D02*
X2012694D01*
X2016604Y1595553*
X2025904*
X2026378Y1595079*
X2017204Y1583253D02*
G03X2016854Y1582621I395J-632D01*
X2016545Y1583010I-399J-0*
G01X2016854Y1582621D02*
G03X2016832Y1582985I-3070J-0D01*
G01X2017679Y1579565D02*
X2018898Y1578307D01*
Y1577598D02*
G03X2017679Y1579565I-4796J-1610D01*
G01X2018898Y1577953D02*
G03X2017679Y1579565I-6405J-3574D01*
G01X2016734Y1583513D02*
X2016854Y1583393D01*
Y1580390*
X2018898Y1578346*
Y1577559*
X2015713Y1581443D02*
G03X2015605Y1581323I12J-120D01*
G01X2015522Y1581308D02*
G03X2015605Y1581323I40J15D01*
G01X2015314Y1581803D02*
X2015605Y1581513D01*
Y1581323*
X2009108Y1580997D02*
G03X2008858Y1580320I794J-677D01*
X2008494Y1580657I-338J-0*
G01X2008858Y1580320D02*
G03X2008782Y1580676I-865J-0D01*
G01X2008858Y1579765D02*
G03X2009433Y1579081I696J0D01*
G01X2008284D02*
G03X2008858Y1579765I-121J684D01*
X2009050Y1579081I1320J0*
G01X2008667D02*
G03X2008858Y1579765I-1128J684D01*
G01X2008604Y1581183D02*
X2008858Y1580929D01*
Y1577559*
X2005834Y1580854D02*
G03X2005607Y1580168I921J-686D01*
X2005232Y1580494I-329J0*
G01X2005607Y1580168D02*
G03X2005518Y1580522I-750J0D01*
G01X2005324Y1581023D02*
X2005607Y1580740D01*
X1989188Y1614712D02*
G03X1989731Y1614820I191J459D01*
X1989623Y1614277I351J-352*
G01X1989731Y1614820D02*
X1989474Y1614563D01*
X2024172Y1628233D02*
G03X2024856Y1628626I-0J793D01*
G01Y1627840D02*
G03X2024172Y1628233I-684J-400D01*
G01X2024856*
X1989094Y1614183D02*
X1989815Y1614904D01*
X2000102*
X2002854Y1617656*
Y1625623*
X2006714Y1629483*
X2020682*
X2021932Y1628233*
X2026068*
X2026378Y1628543*
X1998587Y1585608D02*
G03X1998280Y1585148I190J-460D01*
X1997972Y1585608I-498J-0*
G01X1998280Y1585148D02*
Y1585511D01*
X2001175Y1579565D02*
G03X2001977Y1579081I1382J1381D01*
G01X2001431D02*
G03X2001175Y1579565I-914J-174D01*
X2001704Y1579081I5756J5756*
G01X1998280Y1586048D02*
Y1584953D01*
X2001107Y1582126*
Y1579633*
X2002165Y1578575*
Y1577559*
X1996745Y1586904D02*
G03X1996694Y1586759I10J-85D01*
X1996549Y1586708I-60J-61*
G01X1996280Y1587173D02*
X1996694Y1586759D01*
Y1584938*
X1999859Y1581773*
Y1579513*
X1981657Y1581064D02*
G03X1981765Y1580522I459J-191D01*
X1981222Y1580629I-352J-352*
G01X1981765Y1580522D02*
X1981508Y1580778D01*
X1982087Y1579765D02*
G03X1982661Y1579081I695J0D01*
G01X1981512D02*
G03X1982087Y1579765I-121J684D01*
X1982278Y1579081I1319J0*
G01X1981895D02*
G03X1982087Y1579765I-1128J684D01*
G01X1981128Y1581158D02*
X1982087Y1580199D01*
Y1577559*
X1986804Y1581645D02*
G03X1986496Y1581185I189J-460D01*
X1986188Y1581645I-497J-0*
G01X1986496Y1581185D02*
Y1581548D01*
X1987708Y1579565D02*
G03X1988497Y1579081I1406J1406D01*
G01X1988045D02*
G03X1987708Y1579565I-1520J-699D01*
G01X1986496Y1582085D02*
Y1580777D01*
X1988780Y1578494*
Y1577559*
X1985015Y1581065D02*
G03X1985123Y1580523I459J-191D01*
X1984580Y1580630I-352J-352*
G01X1985123Y1580523D02*
X1984866Y1580779D01*
X1985433Y1579765D02*
G03X1986008Y1579081I695J0D01*
G01X1984858D02*
G03X1985433Y1579765I-120J684D01*
X1985625Y1579081I1320J0*
G01X1985241D02*
G03X1985433Y1579765I-1127J684D01*
G01X1984486Y1581159D02*
X1985433Y1580212D01*
Y1577559*
X2022654Y1609203D02*
G03X2022809Y1609118I101J0D01*
G01X2022499D02*
G03X2022654Y1609203I54J85D01*
G01X2024372Y1610921D02*
G03X2024856Y1611743I-1348J1348D01*
G01Y1611077D02*
G03X2024372Y1610921I-91J-549D01*
G01X2024856Y1611410*
X2022654Y1608603D02*
Y1609203D01*
X2025262Y1611811*
X2026378*
X2022036Y1612430D02*
G03X2022730Y1612629I167J726D01*
X2022673Y1612136I282J-282*
G01X2022730Y1612629D02*
G03X2022488Y1612356I2162J-2162D01*
G01X2024372Y1614271D02*
G03X2024856Y1615094I-1346J1347D01*
G01Y1614423D02*
G03X2024372Y1614271I-96J-539D01*
G01X2024856Y1614758*
X2022184Y1611913D02*
Y1612083D01*
X2025258Y1615157*
X2026378*
X2021880Y1592566D02*
G03X2022219Y1592203I339J-23D01*
X2021542Y1591950I-0J-1029*
G01X2021862Y1592278D02*
G03X2022219Y1592203I357J811D01*
G01X2024172D02*
G03X2024856Y1592467I-0J1022D01*
G01Y1591879D02*
G03X2024172Y1592203I-684J-562D01*
G01X2024856Y1592173D02*
G03X2024172Y1592203I-684J-7743D01*
G01X2021354Y1592453D02*
X2021604Y1592203D01*
X2025907*
X2026378Y1591732*
X2023323Y1589479D02*
G03X2023431Y1588937I459J-191D01*
X2022888Y1589044I-352J-352*
G01X2023431Y1588937D02*
X2023174Y1589193D01*
X2024172Y1588386D02*
G03X2024856Y1588961I-0J695D01*
G01Y1587811D02*
G03X2024172Y1588386I-684J-120D01*
X2024856Y1588577I-0J1319*
G01Y1588194D02*
G03X2024172Y1588386I-684J-1128D01*
G01X2022794Y1589573D02*
X2023981Y1588386D01*
X2026378*
X2023018Y1586591D02*
G03X2023177Y1585886I636J-227D01*
X2022688Y1585972I-305J-305*
G01X2023177Y1585886D02*
X2022919Y1586144D01*
X2024172Y1585039D02*
G03X2024856Y1585614I-0J696D01*
G01Y1584465D02*
G03X2024172Y1585039I-684J-121D01*
X2024856Y1585231I-0J1320*
G01Y1584848D02*
G03X2024172Y1585039I-684J-1128D01*
G01X2022494Y1586473D02*
X2022590D01*
X2024024Y1585039*
X2026378*
X2023134Y1583671D02*
G03X2023594Y1583363I460J189D01*
X2023134Y1583055I0J-497*
G01X2023594Y1583363D02*
X2023231D01*
X2024372Y1582615D02*
G03X2024856Y1582427I455J454D01*
G01Y1581800D02*
G03X2024372Y1582615I-1843J-544D01*
G01X2024856Y1582114*
X2022694Y1583363D02*
X2023624D01*
X2025294Y1581693*
X2026378*
X2021144Y1607361D02*
G03X2021604Y1607053I460J189D01*
X2021144Y1606745I0J-497*
G01X2021604Y1607053D02*
X2021241D01*
X2024372Y1607513D02*
G03X2024856Y1608321I-1369J1369D01*
G01Y1607730D02*
G03X2024372Y1607513I45J-746D01*
G01X2024856Y1608026*
X2020704Y1607053D02*
X2023893D01*
X2023903Y1607043*
X2025324Y1608465*
X2026378*
X2023265Y1625505D02*
G03X2023724Y1625197I459J189D01*
X2023264Y1624889I0J-498*
G01X2023724Y1625197D02*
X2023361D01*
X2024172D02*
G03X2024856Y1625772I-0J695D01*
G01Y1624622D02*
G03X2024172Y1625197I-684J-120D01*
X2024856Y1625388I-0J1319*
G01Y1625005D02*
G03X2024172Y1625197I-684J-1128D01*
G01X2022824D02*
X2022824D01*
X2026378*
X1970034Y1622583D02*
X1975010D01*
X1977884Y1619710*
Y1618453*
X1974657*
X1974299Y1618812*
Y1620127*
X1973290Y1621136*
X1970034*
Y1622583*
X1974299Y1619352D02*
X1977884D01*
X1974299Y1618902D02*
X1977884D01*
X1974299Y1619802D02*
X1977792D01*
X1974174Y1620252D02*
X1977342D01*
X1973724Y1620702D02*
X1976892D01*
X1970034Y1621152D02*
X1976442D01*
X1970034Y1621602D02*
X1975992D01*
X1970034Y1622052D02*
X1975542D01*
X1970034Y1622502D02*
X1975092D01*
X1968504Y1574803D02*
Y1635433D01*
X2029134*
Y1574803*
X1968504*
G54D31*
X1990157Y1611533D02*
X1992404Y1613780D01*
X1994488*
Y1609449*
X1990157*
Y1611533*
Y1609449D02*
Y1611533D01*
X1990354Y1609449D02*
Y1611729D01*
X1990551Y1609449D02*
Y1611926D01*
X1990748Y1609449D02*
Y1612123D01*
X1990945Y1609449D02*
Y1612320D01*
X1991142Y1609449D02*
Y1612517D01*
X1991339Y1609449D02*
Y1612714D01*
X1991535Y1609449D02*
Y1612911D01*
X1991732Y1609449D02*
Y1613107D01*
X1991929Y1609449D02*
Y1613304D01*
X1992126Y1609449D02*
Y1613501D01*
X1992323Y1609449D02*
Y1613698D01*
X1992520Y1609449D02*
Y1613780D01*
X1992717Y1609449D02*
Y1613780D01*
X1992913Y1609449D02*
Y1613780D01*
X1993110Y1609449D02*
Y1613780D01*
X1993307Y1609449D02*
Y1613780D01*
X1993504Y1609449D02*
Y1613780D01*
X1993701Y1609449D02*
Y1613780D01*
X1993898Y1609449D02*
Y1613780D01*
X1994094Y1609449D02*
Y1613780D01*
X1994291Y1609449D02*
Y1613780D01*
X1990157Y1607283D02*
X1994488D01*
Y1602953*
X1990157*
Y1607283*
Y1602953D02*
Y1607283D01*
X1990354Y1602953D02*
Y1607283D01*
X1990551Y1602953D02*
Y1607283D01*
X1990748Y1602953D02*
Y1607283D01*
X1990945Y1602953D02*
Y1607283D01*
X1991142Y1602953D02*
Y1607283D01*
X1991339Y1602953D02*
Y1607283D01*
X1991535Y1602953D02*
Y1607283D01*
X1991732Y1602953D02*
Y1607283D01*
X1991929Y1602953D02*
Y1607283D01*
X1992126Y1602953D02*
Y1607283D01*
X1992323Y1602953D02*
Y1607283D01*
X1992520Y1602953D02*
Y1607283D01*
X1992717Y1602953D02*
Y1607283D01*
X1992913Y1602953D02*
Y1607283D01*
X1993110Y1602953D02*
Y1607283D01*
X1993307Y1602953D02*
Y1607283D01*
X1993504Y1602953D02*
Y1607283D01*
X1993701Y1602953D02*
Y1607283D01*
X1993898Y1602953D02*
Y1607283D01*
X1994094Y1602953D02*
Y1607283D01*
X1994291Y1602953D02*
Y1607283D01*
X1990157Y1600787D02*
X1994488D01*
Y1596457*
X1990157*
Y1600787*
Y1596457D02*
Y1600787D01*
X1990354Y1596457D02*
Y1600787D01*
X1990551Y1596457D02*
Y1600787D01*
X1990748Y1596457D02*
Y1600787D01*
X1990945Y1596457D02*
Y1600787D01*
X1991142Y1596457D02*
Y1600787D01*
X1991339Y1596457D02*
Y1600787D01*
X1991535Y1596457D02*
Y1600787D01*
X1991732Y1596457D02*
Y1600787D01*
X1991929Y1596457D02*
Y1600787D01*
X1992126Y1596457D02*
Y1600787D01*
X1992323Y1596457D02*
Y1600787D01*
X1992520Y1596457D02*
Y1600787D01*
X1992717Y1596457D02*
Y1600787D01*
X1992913Y1596457D02*
Y1600787D01*
X1993110Y1596457D02*
Y1600787D01*
X1993307Y1596457D02*
Y1600787D01*
X1993504Y1596457D02*
Y1600787D01*
X1993701Y1596457D02*
Y1600787D01*
X1993898Y1596457D02*
Y1600787D01*
X1994094Y1596457D02*
Y1600787D01*
X1994291Y1596457D02*
Y1600787D01*
X1996654D02*
X2000984D01*
Y1596457*
X1996654*
Y1600787*
Y1596457D02*
Y1600787D01*
X1996850Y1596457D02*
Y1600787D01*
X1997047Y1596457D02*
Y1600787D01*
X1997244Y1596457D02*
Y1600787D01*
X1997441Y1596457D02*
Y1600787D01*
X1997638Y1596457D02*
Y1600787D01*
X1997835Y1596457D02*
Y1600787D01*
X1998031Y1596457D02*
Y1600787D01*
X1998228Y1596457D02*
Y1600787D01*
X1998425Y1596457D02*
Y1600787D01*
X1998622Y1596457D02*
Y1600787D01*
X1998819Y1596457D02*
Y1600787D01*
X1999016Y1596457D02*
Y1600787D01*
X1999213Y1596457D02*
Y1600787D01*
X1999409Y1596457D02*
Y1600787D01*
X1999606Y1596457D02*
Y1600787D01*
X1999803Y1596457D02*
Y1600787D01*
X2000000Y1596457D02*
Y1600787D01*
X2000197Y1596457D02*
Y1600787D01*
X2000394Y1596457D02*
Y1600787D01*
X2000591Y1596457D02*
Y1600787D01*
X2000787Y1596457D02*
Y1600787D01*
X2003150D02*
X2007480D01*
Y1596457*
X2003150*
Y1600787*
Y1596457D02*
Y1600787D01*
X2003346Y1596457D02*
Y1600787D01*
X2003543Y1596457D02*
Y1600787D01*
X2003740Y1596457D02*
Y1600787D01*
X2003937Y1596457D02*
Y1600787D01*
X2004134Y1596457D02*
Y1600787D01*
X2004331Y1596457D02*
Y1600787D01*
X2004528Y1596457D02*
Y1600787D01*
X2004724Y1596457D02*
Y1600787D01*
X2004921Y1596457D02*
Y1600787D01*
X2005118Y1596457D02*
Y1600787D01*
X2005315Y1596457D02*
Y1600787D01*
X2005512Y1596457D02*
Y1600787D01*
X2005709Y1596457D02*
Y1600787D01*
X2005906Y1596457D02*
Y1600787D01*
X2006102Y1596457D02*
Y1600787D01*
X2006299Y1596457D02*
Y1600787D01*
X2006496Y1596457D02*
Y1600787D01*
X2006693Y1596457D02*
Y1600787D01*
X2006890Y1596457D02*
Y1600787D01*
X2007087Y1596457D02*
Y1600787D01*
X2007283Y1596457D02*
Y1600787D01*
X2003150Y1607283D02*
X2007480D01*
Y1602953*
X2003150*
Y1607283*
Y1602953D02*
Y1607283D01*
X2003346Y1602953D02*
Y1607283D01*
X2003543Y1602953D02*
Y1607283D01*
X2003740Y1602953D02*
Y1607283D01*
X2003937Y1602953D02*
Y1607283D01*
X2004134Y1602953D02*
Y1607283D01*
X2004331Y1602953D02*
Y1607283D01*
X2004528Y1602953D02*
Y1607283D01*
X2004724Y1602953D02*
Y1607283D01*
X2004921Y1602953D02*
Y1607283D01*
X2005118Y1602953D02*
Y1607283D01*
X2005315Y1602953D02*
Y1607283D01*
X2005512Y1602953D02*
Y1607283D01*
X2005709Y1602953D02*
Y1607283D01*
X2005906Y1602953D02*
Y1607283D01*
X2006102Y1602953D02*
Y1607283D01*
X2006299Y1602953D02*
Y1607283D01*
X2006496Y1602953D02*
Y1607283D01*
X2006693Y1602953D02*
Y1607283D01*
X2006890Y1602953D02*
Y1607283D01*
X2007087Y1602953D02*
Y1607283D01*
X2007283Y1602953D02*
Y1607283D01*
X2003150Y1613780D02*
X2007480D01*
Y1609449*
X2003150*
Y1613780*
Y1609449D02*
Y1613780D01*
X2003346Y1609449D02*
Y1613780D01*
X2003543Y1609449D02*
Y1613780D01*
X2003740Y1609449D02*
Y1613780D01*
X2003937Y1609449D02*
Y1613780D01*
X2004134Y1609449D02*
Y1613780D01*
X2004331Y1609449D02*
Y1613780D01*
X2004528Y1609449D02*
Y1613780D01*
X2004724Y1609449D02*
Y1613780D01*
X2004921Y1609449D02*
Y1613780D01*
X2005118Y1609449D02*
Y1613780D01*
X2005315Y1609449D02*
Y1613780D01*
X2005512Y1609449D02*
Y1613780D01*
X2005709Y1609449D02*
Y1613780D01*
X2005906Y1609449D02*
Y1613780D01*
X2006102Y1609449D02*
Y1613780D01*
X2006299Y1609449D02*
Y1613780D01*
X2006496Y1609449D02*
Y1613780D01*
X2006693Y1609449D02*
Y1613780D01*
X2006890Y1609449D02*
Y1613780D01*
X2007087Y1609449D02*
Y1613780D01*
X2007283Y1609449D02*
Y1613780D01*
X1996654D02*
X2000984D01*
Y1609449*
X1996654*
Y1613780*
Y1609449D02*
Y1613780D01*
X1996850Y1609449D02*
Y1613780D01*
X1997047Y1609449D02*
Y1613780D01*
X1997244Y1609449D02*
Y1613780D01*
X1997441Y1609449D02*
Y1613780D01*
X1997638Y1609449D02*
Y1613780D01*
X1997835Y1609449D02*
Y1613780D01*
X1998031Y1609449D02*
Y1613780D01*
X1998228Y1609449D02*
Y1613780D01*
X1998425Y1609449D02*
Y1613780D01*
X1998622Y1609449D02*
Y1613780D01*
X1998819Y1609449D02*
Y1613780D01*
X1999016Y1609449D02*
Y1613780D01*
X1999213Y1609449D02*
Y1613780D01*
X1999409Y1609449D02*
Y1613780D01*
X1999606Y1609449D02*
Y1613780D01*
X1999803Y1609449D02*
Y1613780D01*
X2000000Y1609449D02*
Y1613780D01*
X2000197Y1609449D02*
Y1613780D01*
X2000394Y1609449D02*
Y1613780D01*
X2000591Y1609449D02*
Y1613780D01*
X2000787Y1609449D02*
Y1613780D01*
G54D55*
X2022791Y1602403D02*
G03X2022791I-1487J0D01*
G01X2019691Y1602103D02*
G03X2019691I-1487J0D01*
G01X2001391Y1618503D02*
G03X2001391I-1487J0D01*
G01X1985642Y1587923D02*
G03X1985642I-1487J0D01*
G01X2027934Y1634181D02*
G03X2027882Y1634233I-52J0D01*
G01X1969756*
G03X1969704Y1634181I-0J-52*
G01Y1627815*
G03X1969756Y1627763I52J-0*
G01X1974019*
X1974219Y1627563D02*
G03X1974019Y1627763I-200J-0D01*
G01X1974219Y1627563D02*
Y1623585D01*
G03X1974271Y1623533I52J-0*
G01X1975010*
X1975682Y1623255D02*
G03X1975010Y1623533I-672J-672D01*
G01X1975682Y1623255D02*
X1978556Y1620381D01*
X1978834Y1619710D02*
G03X1978556Y1620381I-950J-0D01*
G01X1978834Y1619710D02*
Y1618453D01*
X1977884Y1617503D02*
G03X1978834Y1618453I-0J950D01*
G01X1977884Y1617503D02*
X1974657D01*
X1974512Y1617514D02*
G03X1974657Y1617503I145J939D01*
G01X1974512Y1617514D02*
G03X1974453Y1617463I-8J-51D01*
X1974468Y1617427I51J0*
G01X1975036Y1616859*
X1975314Y1616187D02*
G03X1975036Y1616859I-950J0D01*
G01X1975314Y1616187D02*
Y1615848D01*
G03X1975329Y1615812I52J0*
G01X1977099Y1614041*
G03X1977140Y1614026I37J37*
G01X1978741Y1612543D02*
G03X1977140Y1614026I-1487J0D01*
G01X1976685Y1611169D02*
G03X1978741Y1612543I569J1374D01*
G01X1976685Y1611169D02*
G03X1976617Y1611138I-20J-48D01*
G01X1976548Y1610974D02*
G03X1976617Y1611138I-1334J659D01*
G01X1976548Y1610974D02*
G03X1976542Y1610951I46J-23D01*
X1976592Y1610900I52J0*
G01X1978031Y1609413D02*
G03X1976592Y1610900I-1487J0D01*
G01X1976417Y1607931D02*
G03X1978031Y1609413I127J1482D01*
G01X1976417Y1607931D02*
G03X1976361Y1607880I-4J-51D01*
G01Y1607873*
Y1607858D02*
G03Y1607873I-1487J15D01*
G01Y1607858D02*
X1976361D01*
G03X1976417Y1607806I52J-0*
G01X1978021Y1606323D02*
G03X1976417Y1607806I-1487J0D01*
G01X1975480Y1605273D02*
G03X1978021Y1606323I1054J1050D01*
G01X1975480Y1605273D02*
G03X1975407I-36J-36D01*
G01X1974581Y1604446*
X1974252Y1604232D02*
G03X1974581Y1604446I-343J886D01*
G01X1974252Y1604232D02*
G03X1974219Y1604184I19J-48D01*
G01Y1603267*
G03X1974292Y1603220I52J-0*
G01X1976411Y1601873D02*
G03X1974292Y1603220I-1487J0D01*
G01X1975648Y1600574D02*
G03X1976411Y1601873I-724J1299D01*
G01X1975648Y1600574D02*
G03X1975621Y1600529I25J-45D01*
X1975646Y1600485I52J-0*
G01X1976361Y1599213D02*
G03X1975646Y1600484I-1487J0D01*
G01X1975999Y1598240D02*
G03X1976361Y1599213I-1125J973D01*
G01X1975999Y1598240D02*
G03X1975987Y1598207I39J-33D01*
X1976005Y1598167I51J-0*
G01X1976535Y1597029D02*
G03X1976005Y1598167I-1488J-0D01*
G01X1974869Y1595552D02*
G03X1976535Y1597029I178J1477D01*
G01X1974869Y1595552D02*
G03X1974826Y1595537I-6J-51D01*
G01X1974341Y1595052*
X1974240Y1594964D02*
G03X1974341Y1595052I-571J760D01*
G01X1974240Y1594964D02*
G03X1974219Y1594923I31J-41D01*
G01Y1592734*
G03X1974271Y1592682I52J-0*
G01X1974568*
G03X1974605Y1592697I0J52*
G01X1974966Y1593059*
G03X1974981Y1593095I-37J36*
Y1593099I-52J0*
G01X1974976Y1593213D02*
G03X1974981Y1593099I1488J0D01*
G01X1974976Y1593213D02*
X1974976D01*
X1977951D02*
G03X1974976I-1487J0D01*
G01X1976350Y1591730D02*
G03X1977951Y1593213I114J1483D01*
G01X1976350Y1591730D02*
G03X1976309Y1591715I-4J-51D01*
G01X1975655Y1591061*
X1975391Y1590874D02*
G03X1975655Y1591061I-408J858D01*
G01X1975391Y1590874D02*
G03X1975362Y1590828I22J-46D01*
X1975396Y1590779I51J-0*
G01X1976388Y1589377D02*
G03X1975396Y1590779I-1488J-0D01*
G01X1974786Y1587894D02*
G03X1976388Y1589377I114J1483D01*
G01X1974786Y1587894D02*
G03X1974746Y1587879I-4J-52D01*
G01X1974581Y1587714*
X1974252Y1587500D02*
G03X1974581Y1587714I-343J886D01*
G01X1974252Y1587500D02*
G03X1974219Y1587452I19J-48D01*
G01Y1587416*
G03X1974291Y1587369I52J0*
G01X1976379Y1586008D02*
G03X1974291Y1587369I-1488J-0D01*
G01X1975689Y1584752D02*
G03X1976379Y1586008I-798J1256D01*
G01X1975689Y1584752D02*
G03X1975665Y1584709I28J-43D01*
X1975687Y1584666I52J-0*
G01X1976325Y1583445D02*
G03X1975687Y1584666I-1487J0D01*
G01X1974290Y1582062D02*
G03X1976325Y1583445I548J1383D01*
G01X1974290Y1582062D02*
G03X1974219Y1582014I-19J-48D01*
G01Y1581082*
X1974160Y1580940D02*
G03X1974219Y1581082I-141J142D01*
G01X1974160Y1580940D02*
X1973767Y1580547D01*
X1973719Y1580511D02*
G03X1973767Y1580547I-94J177D01*
G01X1973719Y1580511D02*
G03X1973694Y1580482I24J-45D01*
G01X1973031Y1580009D02*
G03X1973694Y1580482I0J700D01*
G01X1973031Y1580009D02*
X1969756D01*
G03X1969704Y1579957I-0J-52*
G01Y1576055*
G03X1969756Y1576003I52J-0*
G01X1973658*
G03X1973709Y1576055I-0J52*
G01Y1579331*
X1974409Y1580031D02*
G03X1973709Y1579331I0J-700D01*
G01X1974409Y1580031D02*
X1975008D01*
G03X1975059Y1580082I-0J51*
G01Y1580193*
X1975337Y1580865D02*
G03X1975059Y1580193I672J-672D01*
G01X1975337Y1580865D02*
X1975415Y1580943D01*
G03X1975430Y1580979I-37J36*
Y1580983I-52J0*
G01X1975425Y1581097D02*
G03X1975430Y1580983I1488J0D01*
G01X1975425Y1581097D02*
X1975425D01*
X1977893Y1582216D02*
G03X1975425Y1581097I-980J-1119D01*
G01X1977893Y1582216D02*
G03X1977962Y1582218I34J39D01*
G01X1980014Y1582219D02*
G03X1977962Y1582218I-1025J-1078D01*
G01X1980014Y1582219D02*
G03X1980086Y1582220I36J37D01*
G01X1982615Y1581158D02*
G03X1980086Y1582220I-1487J0D01*
G01X1982615Y1581158D02*
X1982615D01*
X1982611Y1581044D02*
G03X1982615Y1581158I-1483J114D01*
G01X1982611Y1581044D02*
G03Y1581040I52J-4D01*
X1982626Y1581004I52J0*
G01X1982758Y1580871*
X1982969Y1580551D02*
G03X1982758Y1580871I-882J-352D01*
G01X1982969Y1580551D02*
G03X1983017Y1580518I48J19D01*
G01X1983064*
G03X1983116Y1580570I0J52*
X1983112Y1580589I-52J-0*
G01X1982998Y1581159D02*
G03X1983112Y1580589I1488J0D01*
G01X1985025Y1582546D02*
G03X1982998Y1581159I-539J-1387D01*
G01X1985025Y1582546D02*
G03X1985092Y1582577I18J48D01*
G01X1987983Y1582085D02*
G03X1985092Y1582577I-1487J0D01*
G01X1987599Y1581087D02*
G03X1987983Y1582085I-1103J998D01*
G01X1987599Y1581087D02*
G03X1987586Y1581052I38J-35D01*
X1987601Y1581016I51J0*
G01X1988083Y1580533*
G03X1988120Y1580518I37J37*
G01X1992243*
G03X1992295Y1580570I0J52*
G01Y1582227*
G03X1992280Y1582264I-52J0*
G01X1989785Y1584758*
X1989507Y1585430D02*
G03X1989785Y1584758I950J0D01*
G01X1989507Y1585430D02*
Y1589651D01*
X1989781Y1590319D02*
G03X1989507Y1589651I676J-668D01*
G01X1989781Y1590319D02*
G03X1989796Y1590355I-37J36D01*
Y1590359I-52J0*
G01X1989791Y1590473D02*
G03X1989796Y1590359I1488J0D01*
G01X1992760Y1590607D02*
G03X1989791Y1590473I-1481J-134D01*
G01X1992760Y1590607D02*
G03X1992814Y1590560I52J5D01*
G01X1994377Y1589075D02*
G03X1992814Y1590560I-1487J-0D01*
G01X1992543Y1587628D02*
G03X1994377Y1589075I347J1447D01*
G01X1992543Y1587628D02*
G03X1992480Y1587578I-12J-50D01*
G01Y1586382*
G03X1992495Y1586346I51J0*
G01X1995037Y1583804*
X1995315Y1583132D02*
G03X1995037Y1583804I-950J-0D01*
G01X1995315Y1583132D02*
Y1580570D01*
G03X1995367Y1580518I52J-0*
G01X1998857*
G03X1998909Y1580570I0J52*
G01Y1581358*
G03X1998894Y1581395I-52J0*
G01X1996022Y1584266*
X1995744Y1584938D02*
G03X1996022Y1584266I950J-0D01*
G01X1995744Y1584938D02*
Y1585750D01*
G03X1995712Y1585798I-51J0*
G01X1994792Y1587173D02*
G03X1995712Y1585798I1488J0D01*
G01X1997732Y1587494D02*
G03X1994792Y1587173I-1452J-321D01*
G01X1997732Y1587494D02*
G03X1997799Y1587456I50J11D01*
G01X1999767Y1586048D02*
G03X1997799Y1587456I-1487J0D01*
G01X1999475Y1585163D02*
G03X1999767Y1586048I-1195J885D01*
G01X1999475Y1585163D02*
G03X1999465Y1585133I42J-30D01*
X1999480Y1585096I52J-0*
G01X2001778Y1582798*
X2002057Y1582126D02*
G03X2001778Y1582798I-950J-0D01*
G01X2002057Y1582126D02*
Y1580570D01*
G03X2002108Y1580518I51J-0*
G01X2003853*
G03X2003905Y1580570I0J52*
G01X2003905*
G03X2003902Y1580585I-52J-0*
G01X2003836Y1581023D02*
G03X2003902Y1580585I1488J0D01*
G01X2006811Y1581023D02*
G03X2003836I-1487J0D01*
G01X2006745Y1580585D02*
G03X2006811Y1581023I-1421J438D01*
G01X2006745Y1580585D02*
G03X2006743Y1580570I50J-15D01*
G01X2006743*
G03X2006795Y1580518I52J-0*
G01X2007192*
G03X2007244Y1580570I0J52*
X2007240Y1580590I-52J-0*
G01X2007116Y1581183D02*
G03X2007240Y1580590I1488J0D01*
G01X2010091Y1581183D02*
G03X2007116I-1487J0D01*
G01X2009968Y1580590D02*
G03X2010091Y1581183I-1364J593D01*
G01X2009968Y1580590D02*
G03X2009964Y1580570I48J-20D01*
X2010016Y1580518I52J-0*
G01X2011303*
G03X2011350Y1580547I0J52*
G01X2011533Y1580805D02*
G03X2011350Y1580547I672J-672D01*
G01X2011533Y1580805D02*
X2012469Y1581741D01*
G03X2012484Y1581777I-37J36*
G01Y1581838*
G03X2012469Y1581874I-52J0*
G01X2012251Y1582160D02*
G03X2012469Y1581874I1283J753D01*
G01X2012251Y1582160D02*
X2012251D01*
X2012247Y1582167D02*
G03X2012251Y1582160I823J475D01*
G01X2012247Y1582167D02*
X2012247D01*
X2012046Y1582913D02*
G03X2012247Y1582167I1488J0D01*
G01X2014970Y1583301D02*
G03X2012046Y1582913I-1436J-388D01*
G01X2014970Y1583301D02*
G03X2015030Y1583263I50J13D01*
G01X2015208Y1583287D02*
G03X2015030Y1583263I106J-1484D01*
G01X2015208Y1583287D02*
G03X2015256Y1583338I-3J51D01*
Y1583344I-51J0*
G01X2018221Y1583513D02*
G03X2015256Y1583344I-1487J0D01*
G01X2017818Y1582495D02*
G03X2018221Y1583513I-1084J1018D01*
G01X2017818Y1582495D02*
G03X2017804Y1582459I38J-36D01*
G01Y1581917*
G03X2017900Y1581891I52J0*
G01X2020610Y1581509D02*
G03X2017900Y1581891I-1436J-386D01*
G01X2020611Y1581509D02*
G03X2020617Y1581494I49J14D01*
X2020668Y1581431I334J218*
G01X2021864Y1580235*
G03X2022147Y1580036I728J731*
X2022169Y1580031I22J46*
G01X2023228*
X2023928Y1579331D02*
G03X2023228Y1580031I-700J-0D01*
G01X2023928Y1579331D02*
Y1576055D01*
G03X2023980Y1576003I52J-0*
G01X2027882*
G03X2027934Y1576055I0J52*
G01Y1579957*
G03X2027882Y1580009I-52J0*
G01X2024606*
X2023927Y1580539D02*
G03X2024606Y1580009I679J170D01*
G01X2023927Y1580539D02*
G03X2023905Y1580570I-50J-13D01*
G01X2023871Y1580597D02*
G03X2023905Y1580570I142J141D01*
G01X2023871Y1580597D02*
X2023477Y1580990D01*
X2023419Y1581132D02*
G03X2023477Y1580990I200J-0D01*
G01X2023419Y1581132D02*
Y1581979D01*
G03X2023345Y1582026I-52J0*
G01X2021206Y1583363D02*
G03X2023345Y1582026I1488J0D01*
G01X2022744Y1584850D02*
G03X2021206Y1583363I-50J-1487D01*
G01X2022744Y1584850D02*
G03X2022797Y1584901I1J51D01*
X2022782Y1584938I-52J0*
G01X2022736Y1584984*
G03X2022692Y1584999I-37J-36*
G01X2021006Y1586473D02*
G03X2022692Y1584999I1488J0D01*
G01X2023019Y1587865D02*
G03X2021006Y1586473I-525J-1392D01*
G01X2023019Y1587865D02*
G03X2023089Y1587913I18J48D01*
X2023074Y1587950I-52J0*
G01X2022949Y1588075*
X2022948D02*
G03X2022908Y1588090I-36J-36D01*
G01X2021306Y1589573D02*
G03X2022908Y1588090I1488J0D01*
G01X2023348Y1590954D02*
G03X2021306Y1589573I-554J-1381D01*
G01X2023348Y1590954D02*
G03X2023419Y1591002I19J48D01*
G01Y1591202*
G03X2023367Y1591253I-52J-0*
G01X2022250*
G03X2022220Y1591243I-0J-51*
G01X2019866Y1592453D02*
G03X2022220Y1591243I1488J0D01*
G01X2022652Y1593180D02*
G03X2019866Y1592453I-1298J-727D01*
G01X2022652Y1593180D02*
G03X2022697Y1593153I45J25D01*
G01X2023367*
G03X2023419Y1593205I0J52*
G01Y1594552*
G03X2023367Y1594603I-52J-0*
G01X2016604*
X2015932Y1594881D02*
G03X2016604Y1594603I672J672D01*
G01X2015932Y1594881D02*
X2012706Y1598107D01*
G03X2012648Y1598117I-36J-36*
G01X2010526Y1599463D02*
G03X2012648Y1598117I1488J0D01*
G01X2010526Y1599472D02*
G03Y1599463I1488J-9D01*
G01Y1599472D02*
X2010526D01*
G03X2010469Y1599524I-51J0*
G01X2008826Y1601003D02*
G03X2010469Y1599524I1488J0D01*
G01X2008852Y1601278D02*
G03X2008826Y1601003I1462J-275D01*
G01X2008852Y1601278D02*
G03X2008853Y1601288I-51J10D01*
X2008815Y1601337I-52J-0*
G01X2007716Y1602773D02*
G03X2008815Y1601337I1488J0D01*
G01X2010333Y1603741D02*
G03X2007716Y1602773I-1129J-968D01*
G01X2010333Y1603741D02*
G03X2010373Y1603723I40J34D01*
G01X2011577*
G03X2011628Y1603775I-0J52*
X2011624Y1603794I-51J-0*
G01X2011554Y1604153D02*
G03X2011624Y1603794I950J0D01*
G01X2011554Y1604153D02*
Y1606635D01*
G03X2011536Y1606674I-52J-0*
G01X2011016Y1607803D02*
G03X2011536Y1606674I1488J0D01*
G01X2013991Y1607803D02*
G03X2011016I-1487J0D01*
G01X2013472Y1606674D02*
G03X2013991Y1607803I-968J1129D01*
G01X2013472Y1606674D02*
G03X2013454Y1606635I34J-39D01*
G01Y1604568*
G03X2013469Y1604532I52J0*
G01X2018482Y1599518*
G03X2018519Y1599503I37J37*
G01X2020720*
G03X2020757Y1599518I0J52*
G01X2022890Y1601652*
G03X2022905Y1601688I-37J36*
G01Y1603504*
X2023183Y1604176D02*
G03X2022905Y1603504I672J-672D01*
G01X2023183Y1604176D02*
X2023404Y1604397D01*
G03X2023419Y1604433I-37J36*
G01Y1606052*
G03X2023367Y1606103I-52J-0*
G01X2021873*
G03X2021833Y1606085I-0J-51*
G01X2019216Y1607053D02*
G03X2021833Y1606085I1488J0D01*
G01X2021102Y1608486D02*
G03X2019216Y1607053I-398J-1433D01*
G01X2021102Y1608486D02*
G03X2021168Y1608536I14J50D01*
Y1608538I-52J-0*
G01X2021166Y1608603D02*
G03X2021168Y1608538I1488J0D01*
G01X2021166Y1608603D02*
X2021166D01*
X2022075Y1609974D02*
G03X2021166Y1608603I579J-1371D01*
G01X2022075Y1609974D02*
G03X2022092Y1609985I-20J47D01*
G01X2022464Y1610357*
G03X2022479Y1610393I-36J36*
X2022420Y1610444I-51J0*
G01X2020696Y1611913D02*
G03X2022420Y1610444I1488J0D01*
G01X2022137Y1613400D02*
G03X2020696Y1611913I47J-1487D01*
G01X2022137Y1613400D02*
G03X2022172Y1613415I-1J52D01*
G01X2023404Y1614647*
G03X2023419Y1614683I-37J36*
G01Y1623757*
G03X2023349Y1623805I-52J0*
G01X2021336Y1625197D02*
G03X2023349Y1623805I1488J0D01*
G01Y1626589D02*
G03X2021336Y1625197I-525J-1392D01*
G01X2023349Y1626589D02*
G03X2023419Y1626637I18J48D01*
G01Y1627232*
G03X2023367Y1627283I-52J-0*
G01X2021932*
X2021261Y1627561D02*
G03X2021932Y1627283I671J672D01*
G01X2021261Y1627561D02*
X2020304Y1628518D01*
G03X2020267Y1628533I-37J-36*
G01X2007129*
G03X2007092Y1628518I-0J-51*
G01X2003819Y1625245*
G03X2003804Y1625208I37J-37*
G01Y1617656*
X2003526Y1616984D02*
G03X2003804Y1617656I-672J672D01*
G01X2003526Y1616984D02*
X2000774Y1614232D01*
X2000102Y1613954D02*
G03X2000774Y1614232I-0J950D01*
G01X2000102Y1613954D02*
X1990607D01*
G03X1990557Y1613912I0J-51*
G01X1987606Y1614183D02*
G03X1990557Y1613912I1488J0D01*
G01X1989224Y1615665D02*
G03X1987606Y1614183I-130J-1482D01*
G01X1989224Y1615665D02*
G03X1989259Y1615675I5J51D01*
G01X1989815Y1615854D02*
G03X1989259Y1615675I-0J-950D01*
G01X1989815Y1615854D02*
X1999687D01*
G03X1999724Y1615869I0J52*
G01X2001889Y1618035*
G03X2001904Y1618071I-37J36*
G01Y1625623*
X2002182Y1626295D02*
G03X2001904Y1625623I672J-672D01*
G01X2002182Y1626295D02*
X2006042Y1630155D01*
X2006714Y1630433D02*
G03X2006042Y1630155I0J-950D01*
G01X2006714Y1630433D02*
X2020682D01*
X2021354Y1630155D02*
G03X2020682Y1630433I-672J-672D01*
G01X2021354Y1630155D02*
X2022311Y1629198D01*
G03X2022347Y1629183I36J37*
G01X2023855*
G03X2023906Y1629235I-0J52*
G01Y1629528*
X2024606Y1630228D02*
G03X2023906Y1629528I0J-700D01*
G01X2024606Y1630228D02*
X2027882D01*
G03X2027934Y1630279I0J51*
G01Y1634181*
X2022791Y1602403D02*
G03X2022791I-1487J0D01*
G01X2019691Y1602103D02*
G03X2019691I-1487J0D01*
G01X2010092Y1613088D02*
G03X2010491Y1614103I-1088J1015D01*
G01X2010092Y1613088D02*
G03X2010078Y1613053I37J-35D01*
X2010092Y1613018I51J0*
G01X2010491Y1612003D02*
G03X2010092Y1613018I-1487J0D01*
G01X2007516Y1612003D02*
G03X2010491I1488J0D01*
G01X2007916Y1613018D02*
G03X2007516Y1612003I1088J-1015D01*
G01X2007916Y1613018D02*
G03X2007930Y1613053I-37J35D01*
X2007916Y1613088I-51J0*
G01X2007516Y1614103D02*
G03X2007916Y1613088I1488J0D01*
G01X2010491Y1614103D02*
G03X2007516I-1487J0D01*
G01X2001391Y1618503D02*
G03X2001391I-1487J0D01*
G01X1985642Y1587923D02*
G03X1985642I-1487J0D01*
G01X1982563Y1618093D02*
G03X1985041Y1619203I991J1110D01*
G01X1982563Y1618093D02*
G03X1982495I-34J-38D01*
G01X1980016Y1619203D02*
G03X1982495Y1618093I1488J0D01*
G01Y1620313D02*
G03X1980016Y1619203I-991J-1110D01*
G01X1982495Y1620313D02*
G03X1982563I34J38D01*
G01X1985041Y1619203D02*
G03X1982563Y1620313I-1487J0D01*
G01X1983828Y1631881D02*
Y1626365D01*
X1983628Y1626165D02*
G03X1983828Y1626365I0J200D01*
G01X1983628Y1626165D02*
X1978137D01*
X1977937Y1626365D02*
G03X1978137Y1626165I200J0D01*
G01X1977937Y1626365D02*
Y1631881D01*
X1978137Y1632081D02*
G03X1977937Y1631881I-0J-200D01*
G01X1978137Y1632081D02*
X1983628D01*
X1983828Y1631881D02*
G03X1983628Y1632081I-200J-0D01*
G01X1969704Y1633962D02*
X2027934D01*
X1969704Y1633602D02*
X2027934D01*
X1969704Y1633242D02*
X2027934D01*
X1969704Y1632882D02*
X2027934D01*
X1969704Y1632522D02*
X2027934D01*
X1969704Y1632162D02*
X2027934D01*
X1983828Y1631802D02*
X2027934D01*
X1983828Y1631442D02*
X2027934D01*
X1983828Y1631082D02*
X2027934D01*
X1983828Y1630722D02*
X2027934D01*
X2021044Y1630362D02*
X2027934D01*
X2023874Y1579602D02*
X2027934D01*
X2023928Y1579242D02*
X2027934D01*
X2023928Y1578882D02*
X2027934D01*
X2023928Y1578522D02*
X2027934D01*
X2023928Y1578162D02*
X2027934D01*
X2023928Y1577802D02*
X2027934D01*
X2023928Y1577442D02*
X2027934D01*
X2023928Y1577082D02*
X2027934D01*
X2023928Y1576722D02*
X2027934D01*
X2023928Y1576362D02*
X2027934D01*
X2023531Y1579962D02*
X2027934D01*
X2021507Y1630002D02*
X2024091D01*
X2021778Y1580322D02*
X2024023D01*
X2021867Y1629642D02*
X2023916D01*
X2022227Y1629282D02*
X2023906D01*
X2021418Y1580682D02*
X2023786D01*
X2021058Y1581042D02*
X2023440D01*
X2005696Y1627122D02*
X2023419D01*
X2005336Y1626762D02*
X2023419D01*
X2003804Y1623522D02*
X2023419D01*
X2003804Y1623162D02*
X2023419D01*
X2003804Y1622802D02*
X2023419D01*
X2003804Y1622442D02*
X2023419D01*
X2003804Y1622082D02*
X2023419D01*
X2003804Y1621722D02*
X2023419D01*
X2003804Y1621362D02*
X2023419D01*
X2003804Y1621002D02*
X2023419D01*
X2003804Y1620642D02*
X2023419D01*
X2003804Y1620282D02*
X2023419D01*
X2003804Y1619922D02*
X2023419D01*
X2003804Y1619562D02*
X2023419D01*
X2003804Y1619202D02*
X2023419D01*
X2003804Y1618842D02*
X2023419D01*
X2003804Y1618482D02*
X2023419D01*
X2003804Y1618122D02*
X2023419D01*
X2003804Y1617762D02*
X2023419D01*
X2003769Y1617402D02*
X2023419D01*
X2003579Y1617042D02*
X2023419D01*
X2003223Y1616682D02*
X2023419D01*
X2002863Y1616322D02*
X2023419D01*
X2002503Y1615962D02*
X2023419D01*
X2002143Y1615602D02*
X2023419D01*
X2009961Y1615242D02*
X2023419D01*
X2010271Y1614882D02*
X2023419D01*
X2021621Y1605882D02*
X2023419D01*
X2013454Y1605522D02*
X2023419D01*
X2013454Y1605162D02*
X2023419D01*
X2013454Y1604802D02*
X2023419D01*
X2013559Y1604442D02*
X2023419D01*
X1977409Y1594362D02*
X2023419D01*
X1977725Y1594002D02*
X2023419D01*
X2022248Y1593642D02*
X2023419D01*
X2022589Y1593282D02*
X2023419D01*
X2022018Y1591122D02*
X2023419D01*
X2020517Y1581762D02*
X2023419D01*
X2020698Y1581402D02*
X2023419D01*
X2010431Y1614522D02*
X2023279D01*
X2013919Y1604082D02*
X2023101D01*
X2022972Y1587882D02*
X2023079D01*
X2021992Y1603722D02*
X2022930D01*
X2010490Y1614162D02*
X2022919D01*
X2022441Y1603362D02*
X2022905D01*
X2022666Y1603002D02*
X2022905D01*
X2022772Y1602642D02*
X2022905D01*
X2022787Y1602282D02*
X2022905D01*
X2022711Y1601922D02*
X2022905D01*
X2022531Y1601562D02*
X2022800D01*
X2010461Y1613802D02*
X2022559D01*
X2022181Y1601202D02*
X2022440D01*
X1977805Y1610202D02*
X2022309D01*
X1999574Y1585002D02*
X2022275D01*
X2010336Y1613442D02*
X2022199D01*
X1997314Y1588242D02*
X2022130D01*
X2003804Y1623882D02*
X2022129D01*
X2018993Y1600842D02*
X2022080D01*
X1997587Y1587882D02*
X2022016D01*
X2004976Y1626402D02*
X2021951D01*
X2017703Y1584642D02*
X2021934D01*
X1992738Y1590762D02*
X2021900D01*
X2020276Y1582122D02*
X2021874D01*
X1977968Y1609842D02*
X2021830D01*
X2017519Y1600482D02*
X2021720D01*
X2003804Y1624242D02*
X2021684D01*
X1996694Y1588602D02*
X2021667D01*
X2004616Y1626042D02*
X2021600D01*
X2009372Y1610562D02*
X2021562D01*
X1993562Y1590402D02*
X2021559D01*
X2018007Y1584282D02*
X2021524D01*
X1999599Y1585362D02*
X2021505D01*
X2019779Y1582482D02*
X2021496D01*
X2003804Y1624602D02*
X2021461D01*
X1978030Y1609482D02*
X2021454D01*
X1998482Y1587522D02*
X2021439D01*
X1994373Y1588962D02*
X2021438D01*
X2004256Y1625682D02*
X2021418D01*
X1994020Y1590042D02*
X2021382D01*
X2017879Y1600122D02*
X2021360D01*
X2003804Y1624962D02*
X2021355D01*
X2006056Y1627482D02*
X2021351D01*
X2003896Y1625322D02*
X2021342D01*
X1994357Y1589322D02*
X2021328D01*
X2018164Y1583922D02*
X2021315D01*
X1994248Y1589682D02*
X2021310D01*
X2018061Y1582842D02*
X2021301D01*
X2010086Y1613082D02*
X2021264D01*
X2013192Y1609122D02*
X2021260D01*
X2018221Y1583562D02*
X2021220D01*
X2018189Y1583202D02*
X2021215D01*
X1999731Y1585722D02*
X2021210D01*
X1999266Y1587162D02*
X2021175D01*
X2013641Y1608762D02*
X2021175D01*
X2010025Y1610922D02*
X2021075D01*
X1999767Y1586082D02*
X2021059D01*
X1999562Y1586802D02*
X2021043D01*
X1999714Y1586442D02*
X2021007D01*
X2018239Y1599762D02*
X2021000D01*
X2006416Y1627842D02*
X2020980D01*
X2010306Y1612722D02*
X2020935D01*
X2010305Y1611282D02*
X2020837D01*
X2010448Y1612362D02*
X2020766D01*
X2010447Y1611642D02*
X2020721D01*
X2010491Y1612002D02*
X2020699D01*
X1992618Y1591122D02*
X2020690D01*
X2006776Y1628202D02*
X2020620D01*
X2014279Y1603722D02*
X2020616D01*
X1977888Y1593642D02*
X2020460D01*
X2019387Y1601202D02*
X2020427D01*
X1992372Y1591482D02*
X2020227D01*
X2018997Y1603362D02*
X2020167D01*
X1977950Y1593282D02*
X2020119D01*
X2019589Y1601562D02*
X2020077D01*
X2013866Y1608402D02*
X2020076D01*
X1991862Y1591842D02*
X2019998D01*
X2019389Y1603002D02*
X2019942D01*
X1977923Y1592922D02*
X2019942D01*
X2019680Y1601922D02*
X2019896D01*
X1977555Y1592202D02*
X2019888D01*
X1977801Y1592562D02*
X2019870D01*
X2019590Y1602642D02*
X2019836D01*
X2019681Y1602282D02*
X2019821D01*
X2013454Y1605882D02*
X2019787D01*
X2013972Y1608042D02*
X2019593D01*
X2013454Y1606242D02*
X2019457D01*
X2013987Y1607682D02*
X2019356D01*
X2013454Y1606602D02*
X2019287D01*
X2013911Y1607322D02*
X2019241D01*
X2013731Y1606962D02*
X2019219D01*
X2017809Y1582482D02*
X2018568D01*
X2017804Y1582122D02*
X2018072D01*
X2017159Y1600842D02*
X2017415D01*
X2014639Y1603362D02*
X2017411D01*
X2016799Y1601202D02*
X2017021D01*
X2014999Y1603002D02*
X2017019D01*
X2016439Y1601562D02*
X2016818D01*
X2015359Y1602642D02*
X2016817D01*
X2016079Y1601922D02*
X2016728D01*
X2015719Y1602282D02*
X2016727D01*
X1974219Y1594722D02*
X2016144D01*
X1999934Y1584642D02*
X2015765D01*
X1974371Y1595082D02*
X2015732D01*
X2014116Y1584282D02*
X2015460D01*
X1974731Y1595442D02*
X2015372D01*
X2014627Y1583922D02*
X2015304D01*
X2014873Y1583562D02*
X2015247D01*
X1975888Y1595802D02*
X2015012D01*
X1976256Y1596162D02*
X2014652D01*
X1976446Y1596522D02*
X2014292D01*
X1976527Y1596882D02*
X2013932D01*
X1976519Y1597242D02*
X2013572D01*
X1976420Y1597602D02*
X2013212D01*
X2000294Y1584282D02*
X2012951D01*
X1976206Y1597962D02*
X2012852D01*
X2009974Y1581762D02*
X2012482D01*
X2000654Y1583922D02*
X2012441D01*
X2009758Y1582122D02*
X2012274D01*
X2001014Y1583562D02*
X2012195D01*
X2010075Y1581402D02*
X2012130D01*
X2009329Y1582482D02*
X2012110D01*
X2001374Y1583202D02*
X2012075D01*
X2001734Y1582842D02*
X2012048D01*
X1978003Y1609122D02*
X2011816D01*
X2010085Y1581042D02*
X2011770D01*
X2009911Y1604082D02*
X2011557D01*
X1977995Y1606602D02*
X2011554D01*
X1978019Y1606242D02*
X2011554D01*
X1977954Y1605882D02*
X2011554D01*
X1977787Y1605522D02*
X2011554D01*
X1977464Y1605162D02*
X2011554D01*
X1974936Y1604802D02*
X2011554D01*
X1974576Y1604442D02*
X2011554D01*
X2010004Y1580682D02*
X2011429D01*
X1977881Y1608762D02*
X2011367D01*
X1977877Y1606962D02*
X2011277D01*
X1977635Y1608402D02*
X2011142D01*
X1977636Y1607322D02*
X2011096D01*
X1976065Y1598322D02*
X2011060D01*
X1977120Y1608042D02*
X2011036D01*
X1977139Y1607682D02*
X2011021D01*
X1976263Y1598682D02*
X2010748D01*
X1976352Y1599042D02*
X2010587D01*
X1976349Y1599402D02*
X2010528D01*
X1976257Y1599762D02*
X2009494D01*
X1976052Y1600122D02*
X2009116D01*
X1975651Y1600482D02*
X2008921D01*
X1976251Y1601202D02*
X2008840D01*
X1975996Y1600842D02*
X2008835D01*
X1977489Y1610562D02*
X2008636D01*
X1974219Y1604082D02*
X2008497D01*
X1976379Y1601562D02*
X2008341D01*
X1974219Y1603722D02*
X2008058D01*
X2001783Y1615242D02*
X2008047D01*
X1976411Y1601922D02*
X2007984D01*
X1976552Y1610922D02*
X2007982D01*
X1990094Y1613082D02*
X2007921D01*
X2005615Y1582482D02*
X2007879D01*
X1974219Y1603362D02*
X2007838D01*
X1976354Y1602282D02*
X2007800D01*
X2001423Y1614882D02*
X2007737D01*
X1975893Y1603002D02*
X2007734D01*
X1976197Y1602642D02*
X2007722D01*
X1978043Y1611282D02*
X2007703D01*
X1989372Y1612722D02*
X2007702D01*
X1990384Y1613442D02*
X2007671D01*
X2001063Y1614522D02*
X2007577D01*
X1978437Y1611642D02*
X2007561D01*
X1978730Y1612362D02*
X2007560D01*
X1990532Y1613802D02*
X2007547D01*
X2000695Y1614162D02*
X2007518D01*
X1978639Y1612002D02*
X2007516D01*
X2006327Y1582122D02*
X2007450D01*
X2006615Y1581762D02*
X2007234D01*
X2006772Y1580682D02*
X2007203D01*
X2006762Y1581402D02*
X2007133D01*
X2006811Y1581042D02*
X2007123D01*
X1983828Y1630362D02*
X2006353D01*
X1983828Y1630002D02*
X2005889D01*
X1983828Y1629642D02*
X2005529D01*
X1983828Y1629282D02*
X2005169D01*
X2001988Y1582482D02*
X2005033D01*
X1983828Y1628922D02*
X2004809D01*
X1983828Y1628562D02*
X2004449D01*
X2002057Y1582122D02*
X2004321D01*
X1983828Y1628202D02*
X2004089D01*
X2002057Y1581762D02*
X2004033D01*
X2002057Y1581402D02*
X2003885D01*
X2002057Y1580682D02*
X2003876D01*
X2002057Y1581042D02*
X2003837D01*
X1983828Y1627842D02*
X2003729D01*
X1983828Y1627482D02*
X2003369D01*
X1983828Y1627122D02*
X2003009D01*
X1983828Y1626762D02*
X2002649D01*
X1983828Y1626402D02*
X2002289D01*
X1974219Y1626042D02*
X2002001D01*
X1974219Y1625682D02*
X2001906D01*
X1974219Y1625322D02*
X2001904D01*
X1974219Y1624962D02*
X2001904D01*
X1974219Y1624602D02*
X2001904D01*
X1974219Y1624242D02*
X2001904D01*
X1974219Y1623882D02*
X2001904D01*
X1975157Y1623522D02*
X2001904D01*
X1975775Y1623162D02*
X2001904D01*
X1976135Y1622802D02*
X2001904D01*
X1976495Y1622442D02*
X2001904D01*
X1976855Y1622082D02*
X2001904D01*
X1977215Y1621722D02*
X2001904D01*
X1977575Y1621362D02*
X2001904D01*
X1977935Y1621002D02*
X2001904D01*
X1983932Y1620642D02*
X2001904D01*
X1984578Y1620282D02*
X2001904D01*
X2000351Y1619922D02*
X2001904D01*
X2000949Y1619562D02*
X2001904D01*
X2001217Y1619202D02*
X2001904D01*
X2001352Y1618842D02*
X2001904D01*
X2001391Y1618482D02*
X2001904D01*
X2001342Y1618122D02*
X2001904D01*
X2001194Y1617762D02*
X2001616D01*
X2000904Y1617402D02*
X2001256D01*
X2000182Y1617042D02*
X2000896D01*
X1975175Y1616682D02*
X2000536D01*
X1975304Y1616322D02*
X2000176D01*
X1975314Y1615962D02*
X1999816D01*
X1974853Y1617042D02*
X1999626D01*
X1984856Y1619922D02*
X1999457D01*
X1995315Y1581042D02*
X1998909D01*
X1995315Y1580682D02*
X1998909D01*
X1974493Y1617402D02*
X1998904D01*
X1995315Y1581402D02*
X1998887D01*
X1984998Y1619562D02*
X1998859D01*
X1983922Y1617762D02*
X1998614D01*
X1985041Y1619202D02*
X1998591D01*
X1995315Y1581762D02*
X1998527D01*
X1984575Y1618122D02*
X1998466D01*
X1984997Y1618842D02*
X1998455D01*
X1984855Y1618482D02*
X1998417D01*
X1995315Y1582122D02*
X1998167D01*
X1997726Y1587522D02*
X1998077D01*
X1995315Y1582482D02*
X1997807D01*
X1995315Y1582842D02*
X1997447D01*
X1995313Y1583202D02*
X1997087D01*
X1995212Y1583562D02*
X1996727D01*
X1994919Y1583922D02*
X1996367D01*
X1994559Y1584282D02*
X1996007D01*
X1994300Y1588602D02*
X1995865D01*
X1994199Y1584642D02*
X1995791D01*
X1993119Y1585722D02*
X1995744D01*
X1993479Y1585362D02*
X1995744D01*
X1993839Y1585002D02*
X1995744D01*
X1992759Y1586082D02*
X1995269D01*
X1994122Y1588242D02*
X1995245D01*
X1992480Y1586442D02*
X1994984D01*
X1993778Y1587882D02*
X1994972D01*
X1992480Y1586802D02*
X1994839D01*
X1992480Y1587522D02*
X1994833D01*
X1992480Y1587162D02*
X1994792D01*
X1987983Y1582122D02*
X1992295D01*
X1987948Y1581762D02*
X1992295D01*
X1987817Y1581402D02*
X1992295D01*
X1987587Y1581042D02*
X1992295D01*
X1987935Y1580682D02*
X1992295D01*
X1987930Y1582482D02*
X1992062D01*
X1987777Y1582842D02*
X1991702D01*
X1987479Y1583202D02*
X1991342D01*
X1986675Y1583562D02*
X1990982D01*
X1977040Y1591842D02*
X1990696D01*
X1976247Y1583922D02*
X1990622D01*
X1976068Y1584282D02*
X1990262D01*
X1976076Y1591482D02*
X1990185D01*
X1975716Y1591122D02*
X1989940D01*
X1975721Y1584642D02*
X1989902D01*
X1975442Y1590762D02*
X1989820D01*
X1975978Y1590402D02*
X1989793D01*
X1975987Y1585002D02*
X1989609D01*
X1976231Y1590042D02*
X1989591D01*
X1976231Y1585362D02*
X1989509D01*
X1976356Y1589682D02*
X1989507D01*
X1984661Y1589322D02*
X1989507D01*
X1985219Y1588962D02*
X1989507D01*
X1985478Y1588602D02*
X1989507D01*
X1985608Y1588242D02*
X1989507D01*
X1985641Y1587882D02*
X1989507D01*
X1985587Y1587522D02*
X1989507D01*
X1985432Y1587162D02*
X1989507D01*
X1985132Y1586802D02*
X1989507D01*
X1984290Y1586442D02*
X1989507D01*
X1976377Y1586082D02*
X1989507D01*
X1976351Y1585722D02*
X1989507D01*
X1978731Y1612722D02*
X1988816D01*
X1975539Y1615602D02*
X1988647D01*
X1978640Y1613082D02*
X1988094D01*
X1975899Y1615242D02*
X1988049D01*
X1978439Y1613442D02*
X1987804D01*
X1976259Y1614882D02*
X1987781D01*
X1978047Y1613802D02*
X1987656D01*
X1976619Y1614522D02*
X1987645D01*
X1976979Y1614162D02*
X1987607D01*
X1976321Y1583562D02*
X1986317D01*
X1976305Y1583202D02*
X1985513D01*
X1976198Y1582842D02*
X1985215D01*
X1976314Y1586442D02*
X1984019D01*
X1981807Y1582482D02*
X1983805D01*
X1976387Y1589322D02*
X1983648D01*
X1982261Y1582122D02*
X1983352D01*
X1981872Y1617762D02*
X1983186D01*
X1976149Y1586802D02*
X1983177D01*
X1981882Y1620642D02*
X1983176D01*
X1982487Y1581762D02*
X1983126D01*
X1976329Y1588962D02*
X1983090D01*
X1982905Y1580682D02*
X1983077D01*
X1982595Y1581402D02*
X1983018D01*
X1982611Y1581042D02*
X1983003D01*
X1975830Y1587162D02*
X1982877D01*
X1976170Y1588602D02*
X1982831D01*
X1974305Y1587522D02*
X1982722D01*
X1975862Y1588242D02*
X1982702D01*
X1974749Y1587882D02*
X1982668D01*
X1978536Y1617762D02*
X1981136D01*
X1978295Y1620642D02*
X1981126D01*
X1978774Y1618122D02*
X1980482D01*
X1978642Y1620282D02*
X1980480D01*
X1979633Y1582482D02*
X1980449D01*
X1978834Y1618482D02*
X1980203D01*
X1978810Y1619922D02*
X1980202D01*
X1978834Y1618842D02*
X1980061D01*
X1978834Y1619562D02*
X1980060D01*
X1978834Y1619202D02*
X1980016D01*
X1977456Y1582482D02*
X1978345D01*
X1969704Y1631802D02*
X1977937D01*
X1969704Y1631442D02*
X1977937D01*
X1969704Y1631082D02*
X1977937D01*
X1969704Y1630722D02*
X1977937D01*
X1969704Y1630362D02*
X1977937D01*
X1969704Y1630002D02*
X1977937D01*
X1969704Y1629642D02*
X1977937D01*
X1969704Y1629282D02*
X1977937D01*
X1969704Y1628922D02*
X1977937D01*
X1969704Y1628562D02*
X1977937D01*
X1969704Y1628202D02*
X1977937D01*
X1969704Y1627842D02*
X1977937D01*
X1974219Y1627482D02*
X1977937D01*
X1974219Y1627122D02*
X1977937D01*
X1974219Y1626762D02*
X1977937D01*
X1974219Y1626402D02*
X1977937D01*
X1975971Y1582482D02*
X1976370D01*
X1975517Y1582122D02*
X1975835D01*
X1975296Y1605162D02*
X1975604D01*
X1974219Y1581762D02*
X1975582D01*
X1974219Y1594362D02*
X1975519D01*
X1974219Y1581402D02*
X1975457D01*
X1974215Y1581042D02*
X1975426D01*
X1974219Y1594002D02*
X1975203D01*
X1973902Y1580682D02*
X1975194D01*
X1973615Y1580322D02*
X1975068D01*
X1974219Y1593642D02*
X1975040D01*
X1974219Y1593282D02*
X1974978D01*
X1974219Y1592922D02*
X1974829D01*
X1969704Y1579962D02*
X1974107D01*
X1969704Y1579602D02*
X1973764D01*
X1969704Y1579242D02*
X1973709D01*
X1969704Y1578882D02*
X1973709D01*
X1969704Y1578522D02*
X1973709D01*
X1969704Y1578162D02*
X1973709D01*
X1969704Y1577802D02*
X1973709D01*
X1969704Y1577442D02*
X1973709D01*
X1969704Y1577082D02*
X1973709D01*
X1969704Y1576722D02*
X1973709D01*
X1969704Y1576362D02*
X1973709D01*
G54D59*
X1971260Y1632677D03*
Y1577559D03*
X2026378D03*
Y1632677D03*
G54D60*
X2023954Y1618504D02*
X2026378D01*
X2022604Y1617153D02*
Y1617154D01*
X2023954Y1618504*
X1971260Y1625197D02*
X1975704Y1625203D01*
X1971260Y1628543D02*
X1971340Y1628623D01*
X1973464*
X1974704Y1629863*
X2022554Y1621853D02*
X2022557Y1621850D01*
X2026378*
X2022804Y1619403D02*
X2023703Y1618504D01*
X2023954*
G54D310*
X1977285Y1583805D03*
X1974836Y1581367D03*
X1975434Y1604303D03*
X1977614Y1614763D03*
X1974900Y1589377D03*
X1975047Y1597029D03*
X1974874Y1599213D03*
X1974924Y1601873D03*
X1976534Y1606323D03*
X1978989Y1581141D03*
X1976913Y1581097D03*
X1974838Y1583445D03*
X1974891Y1586008D03*
X1975214Y1611633D03*
X1977254Y1612543D03*
X1976544Y1609413D03*
X1974874Y1607873D03*
X1976464Y1593213D03*
X2012846Y1612678D03*
X2011154Y1614303D03*
X1985994Y1602023D03*
X1997824Y1617323D03*
X1983924Y1598173D03*
X2018207Y1613072D03*
X1988459Y1604803D03*
X1982711Y1582510D03*
X1997559Y1595203D03*
X1995494Y1593173D03*
X1994994Y1589073D03*
X1982650Y1584768D03*
X1986924Y1584153D03*
X2000219Y1592613D03*
X1988844Y1593333D03*
X2010079Y1597553D03*
X1995744Y1601867D03*
X1995579Y1605663D03*
X1986044Y1596623D03*
X1990974Y1601867D03*
X1982794Y1614283D03*
X2002084Y1599167D03*
X1995574Y1597327D03*
X2002044Y1608393D03*
X1992214D03*
X1999314Y1601867D03*
X2000344Y1587973D03*
X2016097Y1612253D03*
X2004234Y1601867D03*
X2005634Y1593373D03*
X2009344Y1587623D03*
X2006244Y1585353D03*
X2010784Y1581243D03*
X1988864Y1581253D03*
X2003164Y1590693D03*
X2018304Y1586493D03*
X2019174Y1581123D03*
X2013534Y1582913D03*
X2009004Y1614103D03*
Y1612003D03*
X2012504Y1607803D03*
X2009204Y1602773D03*
X2010314Y1601003D03*
X2012014Y1599463D03*
X2016734Y1583513D03*
X2015314Y1581803D03*
X2008604Y1581183D03*
X2005324Y1581023D03*
X1989094Y1614183D03*
X1998280Y1586048D03*
X1996280Y1587173D03*
X1992890Y1589075D03*
X1991279Y1590473D03*
X1981128Y1581158D03*
X1986496Y1582085D03*
X1984486Y1581159D03*
X1999904Y1618503D03*
X2018204Y1602103D03*
X1984155Y1587923D03*
X2022484Y1581143D03*
X2022604Y1617153D03*
X2022654Y1608603D03*
X2021304Y1602403D03*
X2022184Y1611913D03*
X2021354Y1592453D03*
X2022794Y1589573D03*
X2022494Y1586473D03*
X2022694Y1583363D03*
X2020704Y1607053D03*
X1974891Y1627680D03*
X1977984Y1622033D03*
X1975704Y1625203D03*
X1974704Y1629863D03*
X1974824Y1619183D03*
X1977154Y1619073D03*
X1997166Y1621852D03*
X1983068Y1622058D03*
X1988111Y1622267D03*
X2019754Y1623503D03*
X1988223Y1624435D03*
X2005984Y1626503D03*
X1985554Y1626023D03*
X2004544Y1624843D03*
X2003704Y1629553D03*
X1987106Y1632008D03*
X2005041Y1619039D03*
X2009194Y1626353D03*
X2011924Y1627653D03*
X1985525Y1622042D03*
X1998685Y1627664D03*
X1995913Y1623885D03*
X2000553Y1629773D03*
X2005034Y1621443D03*
X1980578Y1622395D03*
X1997648Y1629833D03*
X1989134Y1626434D03*
X2002064Y1627533D03*
X1990554Y1624263D03*
X1997406Y1619510D03*
X1990579Y1621490D03*
X2000520Y1623320D03*
X1995977Y1627231D03*
X1998332Y1624518D03*
X1994837Y1629916D03*
X2000780Y1625525D03*
X1990453Y1631803D03*
X2017604Y1625603D03*
X2015204Y1627853D03*
X1988827Y1619984D03*
X1983554Y1619203D03*
X1981504D03*
X2022683Y1629903D03*
X2022554Y1621853D03*
X2022804Y1619403D03*
X2022824Y1625197D03*
G54D383*
X1971260Y1628543D03*
Y1625197D03*
Y1621850D03*
Y1618504D03*
Y1615157D03*
Y1611811D03*
Y1608465D03*
Y1605118D03*
Y1601772D03*
Y1598425D03*
Y1595079D03*
Y1591732D03*
Y1588386D03*
Y1585039D03*
Y1581693D03*
X2026378D03*
Y1585039D03*
Y1588386D03*
Y1591732D03*
Y1595079D03*
Y1598425D03*
Y1601772D03*
Y1605118D03*
Y1608465D03*
Y1611811D03*
Y1615157D03*
Y1618504D03*
Y1621850D03*
Y1625197D03*
Y1628543D03*
G54D384*
X1975394Y1577559D03*
X1978740D03*
X1982087D03*
X1985433D03*
X1988780D03*
X1992126D03*
X1995472D03*
X1998819D03*
X2002165D03*
X2005512D03*
X2008858D03*
X2012205D03*
X2015551D03*
X2018898D03*
X2022244D03*
Y1632677D03*
X2018898D03*
X2015551D03*
X2012205D03*
X2008858D03*
X2005512D03*
X2002165D03*
X1998819D03*
X1995472D03*
X1992126D03*
X1988780D03*
X1985433D03*
X1982087D03*
X1978740D03*
X1975394D03*
G54D385*
X1998819Y1605118D03*
G74*
X0Y0D02*
M02*
