M48
;FILE_FORMAT=2:4
INCH,LZ
FMAT,2
ICI,OFF
;TYPE=PLATED
T1C.00984
%
M72
G90
G93X0Y0
T1C.00984F0S0
X197691Y15811
X197899Y158114
X198113Y158116
X198449Y158116
X198886Y158125
X197484Y158137
X19865Y158209
X198271Y158251
X197484Y158345
X197728Y158381
X198692Y158415
X198265Y158477
X197489Y158601
X199828Y158605
X199628Y158717
X198415Y158792
X199499Y158907
X199289Y158907
X19749Y158938
X199128Y159047
X199549Y159317
X197646Y159321
X198884Y159333
X199756Y15952
X198604Y159662
X197505Y159703
X199557Y159733
X198392Y159817
X197487Y159921
X199574Y160187
X199097Y160187
X199931Y160187
X197492Y160187
X198599Y160202
X197543Y16043
X198846Y16048
X199558Y160566
X197653Y160632
X197487Y160787
X199221Y160839
X197654Y160941
X197521Y161163
X197725Y161254
X198909Y161418
X198279Y161428
X197761Y161476
X199782Y161732
X197715Y161907
X197482Y161918
X198355Y16192
X19815Y16192
X199741Y161951
X198883Y161998
X199058Y162149
X199717Y162185
X197798Y162203
X198552Y162204
X198307Y162206
X198811Y162227
X198058Y16224
X199591Y162389
X199055Y162426
X198822Y162444
X199833Y162452
X19757Y16252
X198555Y162602
X198913Y162643
X199598Y162723
X199868Y162766
X197489Y162768
X199765Y162983
X19747Y162986
X199484Y162992
X199045Y16318
X198711Y163201
X202268Y16299
X200055Y162977
X20037Y162955
X20152Y162785
X201192Y162765
X200206Y162753
X200598Y16265
X200919Y162635
X20176Y16256
X200078Y162553
X202282Y16252
X200454Y162484
X201975Y16235
X200052Y162332
X202255Y162185
X200503Y162144
X20228Y16194
X200504Y161904
X19999Y16185
X20226Y161715
X201115Y16143
X2009Y16141
X201821Y161307
X201285Y161268
X20161Y161225
X2009Y1612
X202218Y161191
X202265Y16086
X200204Y160839
X20125Y16078
X20207Y160705
X20092Y160277
X20213Y16024
X20182Y16021
X200423Y160187
X201031Y1601
X201201Y159946
X200208Y159917
X201008Y159755
X200563Y159337
X200022Y159261
X202135Y159245
X200316Y159069
X202279Y158957
X200034Y158797
X200934Y158762
X20183Y158649
X202249Y158647
X200624Y158535
X201673Y158351
X202269Y158336
X201353Y158291
X201531Y15818
X201078Y158124
X20086Y158118
X202248Y158114
X201917Y158112
X200532Y158102
M30
