*
*
G04 PADS VX.2 Build Number: 5060570 generated Gerber (RS-274-X) file*
G04 PC Version=2.1*
*
%IN "PCB_ESP32-S3-MINI-1U_V1"*%
*
%MOIN*%
*
%FSLAX35Y35*%
*
*
*
*
G04 PC Standard Apertures*
*
*
G04 Thermal Relief Aperture macro.*
%AMTER*
1,1,$1,0,0*
1,0,$1-$2,0,0*
21,0,$3,$4,0,0,45*
21,0,$3,$4,0,0,135*
%
*
*
G04 Annular Aperture macro.*
%AMANN*
1,1,$1,0,0*
1,0,$2,0,0*
%
*
*
G04 Odd Aperture macro.*
%AMODD*
1,1,$1,0,0*
1,0,$1-0.005,0,0*
%
*
*
G04 PC Custom Aperture Macros*
*
*
*
*
*
*
G04 PC Aperture Table*
*
%ADD010C,0.001*%
%ADD011R,0.02X0.02*%
%ADD024C,0.005*%
%ADD025C,0.006*%
%ADD031C,0.00394*%
%ADD035C,0.01969*%
%ADD204C,0.00394*%
%ADD308R,0.02756X0.01575*%
%ADD376R,0.01181X0.01181*%
%ADD377R,0.02559X0.01969*%
%ADD378R,0.05906X0.02362*%
%ADD379R,0.02165X0.01969*%
%ADD380C,0.00866*%
%ADD396C,0.02362*%
*
*
*
*
G04 PC Circuitry*
G04 Layer Name PCB_ESP32-S3-MINI-1U_V1 - circuitry*
%LPD*%
*
*
G04 PC Custom Flashes*
G04 Layer Name PCB_ESP32-S3-MINI-1U_V1 - flashes*
%LPD*%
*
*
G04 PC Circuitry*
G04 Layer Name PCB_ESP32-S3-MINI-1U_V1 - circuitry*
%LPD*%
*
G54D10*
G01X2010843Y1619993D02*
X2009243Y1621592D01*
X2007922Y1620271*
X2009522Y1618671*
X2010843Y1619993*
X2009490Y1618703D02*
X2009554D01*
X2009390Y1618803D02*
X2009654D01*
X2009290Y1618903D02*
X2009754D01*
X2009190Y1619003D02*
X2009854D01*
X2009090Y1619103D02*
X2009954D01*
X2008990Y1619203D02*
X2010054D01*
X2008890Y1619303D02*
X2010154D01*
X2008790Y1619403D02*
X2010254D01*
X2008690Y1619503D02*
X2010354D01*
X2008590Y1619603D02*
X2010454D01*
X2008490Y1619703D02*
X2010554D01*
X2008390Y1619803D02*
X2010654D01*
X2008290Y1619903D02*
X2010754D01*
X2008190Y1620003D02*
X2010832D01*
X2008090Y1620103D02*
X2010732D01*
X2007990Y1620203D02*
X2010632D01*
X2007954Y1620303D02*
X2010532D01*
X2008054Y1620403D02*
X2010432D01*
X2008154Y1620503D02*
X2010332D01*
X2008254Y1620603D02*
X2010232D01*
X2008354Y1620703D02*
X2010132D01*
X2008454Y1620803D02*
X2010032D01*
X2008554Y1620903D02*
X2009932D01*
X2008654Y1621003D02*
X2009832D01*
X2008754Y1621103D02*
X2009732D01*
X2008854Y1621203D02*
X2009632D01*
X2008954Y1621303D02*
X2009532D01*
X2009054Y1621403D02*
X2009432D01*
X2009154Y1621503D02*
X2009332D01*
X2008004Y1620189D02*
Y1620353D01*
X2008104Y1620089D02*
Y1620453D01*
X2008204Y1619989D02*
Y1620553D01*
X2008304Y1619889D02*
Y1620653D01*
X2008404Y1619789D02*
Y1620753D01*
X2008504Y1619689D02*
Y1620853D01*
X2008604Y1619589D02*
Y1620953D01*
X2008704Y1619489D02*
Y1621053D01*
X2008804Y1619389D02*
Y1621153D01*
X2008904Y1619289D02*
Y1621253D01*
X2009004Y1619189D02*
Y1621353D01*
X2009104Y1619089D02*
Y1621453D01*
X2009204Y1618989D02*
Y1621553D01*
X2009304Y1618889D02*
Y1621532D01*
X2009404Y1618789D02*
Y1621432D01*
X2009504Y1618689D02*
Y1621332D01*
X2009604Y1618754D02*
Y1621232D01*
X2009704Y1618854D02*
Y1621132D01*
X2009804Y1618954D02*
Y1621032D01*
X2009904Y1619054D02*
Y1620932D01*
X2010004Y1619154D02*
Y1620832D01*
X2010104Y1619254D02*
Y1620732D01*
X2010204Y1619354D02*
Y1620632D01*
X2010304Y1619454D02*
Y1620532D01*
X2010404Y1619554D02*
Y1620432D01*
X2010504Y1619654D02*
Y1620332D01*
X2010604Y1619754D02*
Y1620232D01*
X2010704Y1619854D02*
Y1620132D01*
X2010804Y1619954D02*
Y1620032D01*
X2017246Y1614982D02*
X2014254Y1617973D01*
X2011541Y1615260*
X2014533Y1612268*
X2017246Y1614982*
X2014498Y1612303D02*
X2014567D01*
X2014398Y1612403D02*
X2014667D01*
X2014298Y1612503D02*
X2014767D01*
X2014198Y1612603D02*
X2014867D01*
X2014098Y1612703D02*
X2014967D01*
X2013998Y1612803D02*
X2015067D01*
X2013898Y1612903D02*
X2015167D01*
X2013798Y1613003D02*
X2015267D01*
X2013698Y1613103D02*
X2015367D01*
X2013598Y1613203D02*
X2015467D01*
X2013498Y1613303D02*
X2015567D01*
X2013398Y1613403D02*
X2015667D01*
X2013298Y1613503D02*
X2015767D01*
X2013198Y1613603D02*
X2015867D01*
X2013098Y1613703D02*
X2015967D01*
X2012998Y1613803D02*
X2016067D01*
X2012898Y1613903D02*
X2016167D01*
X2012798Y1614003D02*
X2016267D01*
X2012698Y1614103D02*
X2016367D01*
X2012598Y1614203D02*
X2016467D01*
X2012498Y1614303D02*
X2016567D01*
X2012398Y1614403D02*
X2016667D01*
X2012298Y1614503D02*
X2016767D01*
X2012198Y1614603D02*
X2016867D01*
X2012098Y1614703D02*
X2016967D01*
X2011998Y1614803D02*
X2017067D01*
X2011898Y1614903D02*
X2017167D01*
X2011798Y1615003D02*
X2017224D01*
X2011698Y1615103D02*
X2017124D01*
X2011598Y1615203D02*
X2017024D01*
X2011584Y1615303D02*
X2016924D01*
X2011684Y1615403D02*
X2016824D01*
X2011784Y1615503D02*
X2016724D01*
X2011884Y1615603D02*
X2016624D01*
X2011984Y1615703D02*
X2016524D01*
X2012084Y1615803D02*
X2016424D01*
X2012184Y1615903D02*
X2016324D01*
X2012284Y1616003D02*
X2016224D01*
X2012384Y1616103D02*
X2016124D01*
X2012484Y1616203D02*
X2016024D01*
X2012584Y1616303D02*
X2015924D01*
X2012684Y1616403D02*
X2015824D01*
X2012784Y1616503D02*
X2015724D01*
X2012884Y1616603D02*
X2015624D01*
X2012984Y1616703D02*
X2015524D01*
X2013084Y1616803D02*
X2015424D01*
X2013184Y1616903D02*
X2015324D01*
X2013284Y1617003D02*
X2015224D01*
X2013384Y1617103D02*
X2015124D01*
X2013484Y1617203D02*
X2015024D01*
X2013584Y1617303D02*
X2014924D01*
X2013684Y1617403D02*
X2014824D01*
X2013784Y1617503D02*
X2014724D01*
X2013884Y1617603D02*
X2014624D01*
X2013984Y1617703D02*
X2014524D01*
X2014084Y1617803D02*
X2014424D01*
X2014184Y1617903D02*
X2014324D01*
X2011604Y1615197D02*
Y1615323D01*
X2011704Y1615097D02*
Y1615423D01*
X2011804Y1614997D02*
Y1615523D01*
X2011904Y1614897D02*
Y1615623D01*
X2012004Y1614797D02*
Y1615723D01*
X2012104Y1614697D02*
Y1615823D01*
X2012204Y1614597D02*
Y1615923D01*
X2012304Y1614497D02*
Y1616023D01*
X2012404Y1614397D02*
Y1616123D01*
X2012504Y1614297D02*
Y1616223D01*
X2012604Y1614197D02*
Y1616323D01*
X2012704Y1614097D02*
Y1616423D01*
X2012804Y1613997D02*
Y1616523D01*
X2012904Y1613897D02*
Y1616623D01*
X2013004Y1613797D02*
Y1616723D01*
X2013104Y1613697D02*
Y1616823D01*
X2013204Y1613597D02*
Y1616923D01*
X2013304Y1613497D02*
Y1617023D01*
X2013404Y1613397D02*
Y1617123D01*
X2013504Y1613297D02*
Y1617223D01*
X2013604Y1613197D02*
Y1617323D01*
X2013704Y1613097D02*
Y1617423D01*
X2013804Y1612997D02*
Y1617523D01*
X2013904Y1612897D02*
Y1617623D01*
X2014004Y1612797D02*
Y1617723D01*
X2014104Y1612697D02*
Y1617823D01*
X2014204Y1612597D02*
Y1617923D01*
X2014304Y1612497D02*
Y1617923D01*
X2014404Y1612397D02*
Y1617823D01*
X2014504Y1612297D02*
Y1617723D01*
X2014604Y1612340D02*
Y1617623D01*
X2014704Y1612440D02*
Y1617523D01*
X2014804Y1612540D02*
Y1617423D01*
X2014904Y1612640D02*
Y1617323D01*
X2015004Y1612740D02*
Y1617223D01*
X2015104Y1612840D02*
Y1617123D01*
X2015204Y1612940D02*
Y1617023D01*
X2015304Y1613040D02*
Y1616923D01*
X2015404Y1613140D02*
Y1616823D01*
X2015504Y1613240D02*
Y1616723D01*
X2015604Y1613340D02*
Y1616623D01*
X2015704Y1613440D02*
Y1616523D01*
X2015804Y1613540D02*
Y1616423D01*
X2015904Y1613640D02*
Y1616323D01*
X2016004Y1613740D02*
Y1616223D01*
X2016104Y1613840D02*
Y1616123D01*
X2016204Y1613940D02*
Y1616023D01*
X2016304Y1614040D02*
Y1615923D01*
X2016404Y1614140D02*
Y1615823D01*
X2016504Y1614240D02*
Y1615723D01*
X2016604Y1614340D02*
Y1615623D01*
X2016704Y1614440D02*
Y1615523D01*
X2016804Y1614540D02*
Y1615423D01*
X2016904Y1614640D02*
Y1615323D01*
X2017004Y1614740D02*
Y1615223D01*
X2017104Y1614840D02*
Y1615123D01*
X2017204Y1614940D02*
Y1615023D01*
X2021422Y1619157D02*
X2018430Y1622149D01*
X2015717Y1619436*
X2018709Y1616444*
X2021422Y1619157*
X2018650Y1616503D02*
X2018767D01*
X2018550Y1616603D02*
X2018867D01*
X2018450Y1616703D02*
X2018967D01*
X2018350Y1616803D02*
X2019067D01*
X2018250Y1616903D02*
X2019167D01*
X2018150Y1617003D02*
X2019267D01*
X2018050Y1617103D02*
X2019367D01*
X2017950Y1617203D02*
X2019467D01*
X2017850Y1617303D02*
X2019567D01*
X2017750Y1617403D02*
X2019667D01*
X2017650Y1617503D02*
X2019767D01*
X2017550Y1617603D02*
X2019867D01*
X2017450Y1617703D02*
X2019967D01*
X2017350Y1617803D02*
X2020067D01*
X2017250Y1617903D02*
X2020167D01*
X2017150Y1618003D02*
X2020267D01*
X2017050Y1618103D02*
X2020367D01*
X2016950Y1618203D02*
X2020467D01*
X2016850Y1618303D02*
X2020567D01*
X2016750Y1618403D02*
X2020667D01*
X2016650Y1618503D02*
X2020767D01*
X2016550Y1618603D02*
X2020867D01*
X2016450Y1618703D02*
X2020967D01*
X2016350Y1618803D02*
X2021067D01*
X2016250Y1618903D02*
X2021167D01*
X2016150Y1619003D02*
X2021267D01*
X2016050Y1619103D02*
X2021367D01*
X2015950Y1619203D02*
X2021376D01*
X2015850Y1619303D02*
X2021276D01*
X2015750Y1619403D02*
X2021176D01*
X2015784Y1619503D02*
X2021076D01*
X2015884Y1619603D02*
X2020976D01*
X2015984Y1619703D02*
X2020876D01*
X2016084Y1619803D02*
X2020776D01*
X2016184Y1619903D02*
X2020676D01*
X2016284Y1620003D02*
X2020576D01*
X2016384Y1620103D02*
X2020476D01*
X2016484Y1620203D02*
X2020376D01*
X2016584Y1620303D02*
X2020276D01*
X2016684Y1620403D02*
X2020176D01*
X2016784Y1620503D02*
X2020076D01*
X2016884Y1620603D02*
X2019976D01*
X2016984Y1620703D02*
X2019876D01*
X2017084Y1620803D02*
X2019776D01*
X2017184Y1620903D02*
X2019676D01*
X2017284Y1621003D02*
X2019576D01*
X2017384Y1621103D02*
X2019476D01*
X2017484Y1621203D02*
X2019376D01*
X2017584Y1621303D02*
X2019276D01*
X2017684Y1621403D02*
X2019176D01*
X2017784Y1621503D02*
X2019076D01*
X2017884Y1621603D02*
X2018976D01*
X2017984Y1621703D02*
X2018876D01*
X2018084Y1621803D02*
X2018776D01*
X2018184Y1621903D02*
X2018676D01*
X2018284Y1622003D02*
X2018576D01*
X2018384Y1622103D02*
X2018476D01*
X2015804Y1619349D02*
Y1619523D01*
X2015904Y1619249D02*
Y1619623D01*
X2016004Y1619149D02*
Y1619723D01*
X2016104Y1619049D02*
Y1619823D01*
X2016204Y1618949D02*
Y1619923D01*
X2016304Y1618849D02*
Y1620023D01*
X2016404Y1618749D02*
Y1620123D01*
X2016504Y1618649D02*
Y1620223D01*
X2016604Y1618549D02*
Y1620323D01*
X2016704Y1618449D02*
Y1620423D01*
X2016804Y1618349D02*
Y1620523D01*
X2016904Y1618249D02*
Y1620623D01*
X2017004Y1618149D02*
Y1620723D01*
X2017104Y1618049D02*
Y1620823D01*
X2017204Y1617949D02*
Y1620923D01*
X2017304Y1617849D02*
Y1621023D01*
X2017404Y1617749D02*
Y1621123D01*
X2017504Y1617649D02*
Y1621223D01*
X2017604Y1617549D02*
Y1621323D01*
X2017704Y1617449D02*
Y1621423D01*
X2017804Y1617349D02*
Y1621523D01*
X2017904Y1617249D02*
Y1621623D01*
X2018004Y1617149D02*
Y1621723D01*
X2018104Y1617049D02*
Y1621823D01*
X2018204Y1616949D02*
Y1621923D01*
X2018304Y1616849D02*
Y1622023D01*
X2018404Y1616749D02*
Y1622123D01*
X2018504Y1616649D02*
Y1622075D01*
X2018604Y1616549D02*
Y1621975D01*
X2018704Y1616449D02*
Y1621875D01*
X2018804Y1616540D02*
Y1621775D01*
X2018904Y1616640D02*
Y1621675D01*
X2019004Y1616740D02*
Y1621575D01*
X2019104Y1616840D02*
Y1621475D01*
X2019204Y1616940D02*
Y1621375D01*
X2019304Y1617040D02*
Y1621275D01*
X2019404Y1617140D02*
Y1621175D01*
X2019504Y1617240D02*
Y1621075D01*
X2019604Y1617340D02*
Y1620975D01*
X2019704Y1617440D02*
Y1620875D01*
X2019804Y1617540D02*
Y1620775D01*
X2019904Y1617640D02*
Y1620675D01*
X2020004Y1617740D02*
Y1620575D01*
X2020104Y1617840D02*
Y1620475D01*
X2020204Y1617940D02*
Y1620375D01*
X2020304Y1618040D02*
Y1620275D01*
X2020404Y1618140D02*
Y1620175D01*
X2020504Y1618240D02*
Y1620075D01*
X2020604Y1618340D02*
Y1619975D01*
X2020704Y1618440D02*
Y1619875D01*
X2020804Y1618540D02*
Y1619775D01*
X2020904Y1618640D02*
Y1619675D01*
X2021004Y1618740D02*
Y1619575D01*
X2021104Y1618840D02*
Y1619475D01*
X2021204Y1618940D02*
Y1619375D01*
X2021304Y1619040D02*
Y1619275D01*
X2021404Y1619140D02*
Y1619175D01*
X2016411Y1624168D02*
X2013419Y1627160D01*
X2010706Y1624447*
X2013698Y1621455*
X2016411Y1624168*
X2013650Y1621503D02*
X2013746D01*
X2013550Y1621603D02*
X2013846D01*
X2013450Y1621703D02*
X2013946D01*
X2013350Y1621803D02*
X2014046D01*
X2013250Y1621903D02*
X2014146D01*
X2013150Y1622003D02*
X2014246D01*
X2013050Y1622103D02*
X2014346D01*
X2012950Y1622203D02*
X2014446D01*
X2012850Y1622303D02*
X2014546D01*
X2012750Y1622403D02*
X2014646D01*
X2012650Y1622503D02*
X2014746D01*
X2012550Y1622603D02*
X2014846D01*
X2012450Y1622703D02*
X2014946D01*
X2012350Y1622803D02*
X2015046D01*
X2012250Y1622903D02*
X2015146D01*
X2012150Y1623003D02*
X2015246D01*
X2012050Y1623103D02*
X2015346D01*
X2011950Y1623203D02*
X2015446D01*
X2011850Y1623303D02*
X2015546D01*
X2011750Y1623403D02*
X2015646D01*
X2011650Y1623503D02*
X2015746D01*
X2011550Y1623603D02*
X2015846D01*
X2011450Y1623703D02*
X2015946D01*
X2011350Y1623803D02*
X2016046D01*
X2011250Y1623903D02*
X2016146D01*
X2011150Y1624003D02*
X2016246D01*
X2011050Y1624103D02*
X2016346D01*
X2010950Y1624203D02*
X2016376D01*
X2010850Y1624303D02*
X2016276D01*
X2010750Y1624403D02*
X2016176D01*
X2010762Y1624503D02*
X2016076D01*
X2010862Y1624603D02*
X2015976D01*
X2010962Y1624703D02*
X2015876D01*
X2011062Y1624803D02*
X2015776D01*
X2011162Y1624903D02*
X2015676D01*
X2011262Y1625003D02*
X2015576D01*
X2011362Y1625103D02*
X2015476D01*
X2011462Y1625203D02*
X2015376D01*
X2011562Y1625303D02*
X2015276D01*
X2011662Y1625403D02*
X2015176D01*
X2011762Y1625503D02*
X2015076D01*
X2011862Y1625603D02*
X2014976D01*
X2011962Y1625703D02*
X2014876D01*
X2012062Y1625803D02*
X2014776D01*
X2012162Y1625903D02*
X2014676D01*
X2012262Y1626003D02*
X2014576D01*
X2012362Y1626103D02*
X2014476D01*
X2012462Y1626203D02*
X2014376D01*
X2012562Y1626303D02*
X2014276D01*
X2012662Y1626403D02*
X2014176D01*
X2012762Y1626503D02*
X2014076D01*
X2012862Y1626603D02*
X2013976D01*
X2012962Y1626703D02*
X2013876D01*
X2013062Y1626803D02*
X2013776D01*
X2013162Y1626903D02*
X2013676D01*
X2013262Y1627003D02*
X2013576D01*
X2013362Y1627103D02*
X2013476D01*
X2010804Y1624349D02*
Y1624545D01*
X2010904Y1624249D02*
Y1624645D01*
X2011004Y1624149D02*
Y1624745D01*
X2011104Y1624049D02*
Y1624845D01*
X2011204Y1623949D02*
Y1624945D01*
X2011304Y1623849D02*
Y1625045D01*
X2011404Y1623749D02*
Y1625145D01*
X2011504Y1623649D02*
Y1625245D01*
X2011604Y1623549D02*
Y1625345D01*
X2011704Y1623449D02*
Y1625445D01*
X2011804Y1623349D02*
Y1625545D01*
X2011904Y1623249D02*
Y1625645D01*
X2012004Y1623149D02*
Y1625745D01*
X2012104Y1623049D02*
Y1625845D01*
X2012204Y1622949D02*
Y1625945D01*
X2012304Y1622849D02*
Y1626045D01*
X2012404Y1622749D02*
Y1626145D01*
X2012504Y1622649D02*
Y1626245D01*
X2012604Y1622549D02*
Y1626345D01*
X2012704Y1622449D02*
Y1626445D01*
X2012804Y1622349D02*
Y1626545D01*
X2012904Y1622249D02*
Y1626645D01*
X2013004Y1622149D02*
Y1626745D01*
X2013104Y1622049D02*
Y1626845D01*
X2013204Y1621949D02*
Y1626945D01*
X2013304Y1621849D02*
Y1627045D01*
X2013404Y1621749D02*
Y1627145D01*
X2013504Y1621649D02*
Y1627075D01*
X2013604Y1621549D02*
Y1626975D01*
X2013704Y1621462D02*
Y1626875D01*
X2013804Y1621562D02*
Y1626775D01*
X2013904Y1621662D02*
Y1626675D01*
X2014004Y1621762D02*
Y1626575D01*
X2014104Y1621862D02*
Y1626475D01*
X2014204Y1621962D02*
Y1626375D01*
X2014304Y1622062D02*
Y1626275D01*
X2014404Y1622162D02*
Y1626175D01*
X2014504Y1622262D02*
Y1626075D01*
X2014604Y1622362D02*
Y1625975D01*
X2014704Y1622462D02*
Y1625875D01*
X2014804Y1622562D02*
Y1625775D01*
X2014904Y1622662D02*
Y1625675D01*
X2015004Y1622762D02*
Y1625575D01*
X2015104Y1622862D02*
Y1625475D01*
X2015204Y1622962D02*
Y1625375D01*
X2015304Y1623062D02*
Y1625275D01*
X2015404Y1623162D02*
Y1625175D01*
X2015504Y1623262D02*
Y1625075D01*
X2015604Y1623362D02*
Y1624975D01*
X2015704Y1623462D02*
Y1624875D01*
X2015804Y1623562D02*
Y1624775D01*
X2015904Y1623662D02*
Y1624675D01*
X2016004Y1623762D02*
Y1624575D01*
X2016104Y1623862D02*
Y1624475D01*
X2016204Y1623962D02*
Y1624375D01*
X2016304Y1624062D02*
Y1624275D01*
X2016404Y1624162D02*
Y1624175D01*
X1995313Y1614526D02*
X1993574Y1616265D01*
X1993032Y1615723*
X1994771Y1613984*
X1995313Y1614526*
X1994752Y1614003D02*
X1994790D01*
X1994652Y1614103D02*
X1994890D01*
X1994552Y1614203D02*
X1994990D01*
X1994452Y1614303D02*
X1995090D01*
X1994352Y1614403D02*
X1995190D01*
X1994252Y1614503D02*
X1995290D01*
X1994152Y1614603D02*
X1995236D01*
X1994052Y1614703D02*
X1995136D01*
X1993952Y1614803D02*
X1995036D01*
X1993852Y1614903D02*
X1994936D01*
X1993752Y1615003D02*
X1994836D01*
X1993652Y1615103D02*
X1994736D01*
X1993552Y1615203D02*
X1994636D01*
X1993452Y1615303D02*
X1994536D01*
X1993352Y1615403D02*
X1994436D01*
X1993252Y1615503D02*
X1994336D01*
X1993152Y1615603D02*
X1994236D01*
X1993052Y1615703D02*
X1994136D01*
X1993113Y1615803D02*
X1994036D01*
X1993213Y1615903D02*
X1993936D01*
X1993313Y1616003D02*
X1993836D01*
X1993413Y1616103D02*
X1993736D01*
X1993513Y1616203D02*
X1993636D01*
X1993104Y1615651D02*
Y1615795D01*
X1993204Y1615551D02*
Y1615895D01*
X1993304Y1615451D02*
Y1615995D01*
X1993404Y1615351D02*
Y1616095D01*
X1993504Y1615251D02*
Y1616195D01*
X1993604Y1615151D02*
Y1616235D01*
X1993704Y1615051D02*
Y1616135D01*
X1993804Y1614951D02*
Y1616035D01*
X1993904Y1614851D02*
Y1615935D01*
X1994004Y1614751D02*
Y1615835D01*
X1994104Y1614651D02*
Y1615735D01*
X1994204Y1614551D02*
Y1615635D01*
X1994304Y1614451D02*
Y1615535D01*
X1994404Y1614351D02*
Y1615435D01*
X1994504Y1614251D02*
Y1615335D01*
X1994604Y1614151D02*
Y1615235D01*
X1994704Y1614051D02*
Y1615135D01*
X1994804Y1614017D02*
Y1615035D01*
X1994904Y1614117D02*
Y1614935D01*
X1995004Y1614217D02*
Y1614835D01*
X1995104Y1614317D02*
Y1614735D01*
X1995204Y1614417D02*
Y1614635D01*
X1995304Y1614517D02*
Y1614535D01*
X1994199Y1613412D02*
X1992461Y1615151D01*
X1991919Y1614609*
X1993658Y1612871*
X1994199Y1613412*
X1993625Y1612903D02*
X1993690D01*
X1993525Y1613003D02*
X1993790D01*
X1993425Y1613103D02*
X1993890D01*
X1993325Y1613203D02*
X1993990D01*
X1993225Y1613303D02*
X1994090D01*
X1993125Y1613403D02*
X1994190D01*
X1993025Y1613503D02*
X1994109D01*
X1992925Y1613603D02*
X1994009D01*
X1992825Y1613703D02*
X1993909D01*
X1992725Y1613803D02*
X1993809D01*
X1992625Y1613903D02*
X1993709D01*
X1992525Y1614003D02*
X1993609D01*
X1992425Y1614103D02*
X1993509D01*
X1992325Y1614203D02*
X1993409D01*
X1992225Y1614303D02*
X1993309D01*
X1992125Y1614403D02*
X1993209D01*
X1992025Y1614503D02*
X1993109D01*
X1991925Y1614603D02*
X1993009D01*
X1992013Y1614703D02*
X1992909D01*
X1992113Y1614803D02*
X1992809D01*
X1992213Y1614903D02*
X1992709D01*
X1992313Y1615003D02*
X1992609D01*
X1992413Y1615103D02*
X1992509D01*
X1992004Y1614524D02*
Y1614695D01*
X1992104Y1614424D02*
Y1614795D01*
X1992204Y1614324D02*
Y1614895D01*
X1992304Y1614224D02*
Y1614995D01*
X1992404Y1614124D02*
Y1615095D01*
X1992504Y1614024D02*
Y1615108D01*
X1992604Y1613924D02*
Y1615008D01*
X1992704Y1613824D02*
Y1614908D01*
X1992804Y1613724D02*
Y1614808D01*
X1992904Y1613624D02*
Y1614708D01*
X1993004Y1613524D02*
Y1614608D01*
X1993104Y1613424D02*
Y1614508D01*
X1993204Y1613324D02*
Y1614408D01*
X1993304Y1613224D02*
Y1614308D01*
X1993404Y1613124D02*
Y1614208D01*
X1993504Y1613024D02*
Y1614108D01*
X1993604Y1612924D02*
Y1614008D01*
X1993704Y1612917D02*
Y1613908D01*
X1993804Y1613017D02*
Y1613808D01*
X1993904Y1613117D02*
Y1613708D01*
X1994004Y1613217D02*
Y1613608D01*
X1994104Y1613317D02*
Y1613508D01*
X1993086Y1612299D02*
X1991347Y1614038D01*
X1990805Y1613496*
X1992544Y1611757*
X1993086Y1612299*
X1992498Y1611803D02*
X1992590D01*
X1992398Y1611903D02*
X1992690D01*
X1992298Y1612003D02*
X1992790D01*
X1992198Y1612103D02*
X1992890D01*
X1992098Y1612203D02*
X1992990D01*
X1991998Y1612303D02*
X1993082D01*
X1991898Y1612403D02*
X1992982D01*
X1991798Y1612503D02*
X1992882D01*
X1991698Y1612603D02*
X1992782D01*
X1991598Y1612703D02*
X1992682D01*
X1991498Y1612803D02*
X1992582D01*
X1991398Y1612903D02*
X1992482D01*
X1991298Y1613003D02*
X1992382D01*
X1991198Y1613103D02*
X1992282D01*
X1991098Y1613203D02*
X1992182D01*
X1990998Y1613303D02*
X1992082D01*
X1990898Y1613403D02*
X1991982D01*
X1990813Y1613503D02*
X1991882D01*
X1990913Y1613603D02*
X1991782D01*
X1991013Y1613703D02*
X1991682D01*
X1991113Y1613803D02*
X1991582D01*
X1991213Y1613903D02*
X1991482D01*
X1991313Y1614003D02*
X1991382D01*
X1990904Y1613397D02*
Y1613595D01*
X1991004Y1613297D02*
Y1613695D01*
X1991104Y1613197D02*
Y1613795D01*
X1991204Y1613097D02*
Y1613895D01*
X1991304Y1612997D02*
Y1613995D01*
X1991404Y1612897D02*
Y1613981D01*
X1991504Y1612797D02*
Y1613881D01*
X1991604Y1612697D02*
Y1613781D01*
X1991704Y1612597D02*
Y1613681D01*
X1991804Y1612497D02*
Y1613581D01*
X1991904Y1612397D02*
Y1613481D01*
X1992004Y1612297D02*
Y1613381D01*
X1992104Y1612197D02*
Y1613281D01*
X1992204Y1612097D02*
Y1613181D01*
X1992304Y1611997D02*
Y1613081D01*
X1992404Y1611897D02*
Y1612981D01*
X1992504Y1611797D02*
Y1612881D01*
X1992604Y1611817D02*
Y1612781D01*
X1992704Y1611917D02*
Y1612681D01*
X1992804Y1612017D02*
Y1612581D01*
X1992904Y1612117D02*
Y1612481D01*
X1993004Y1612217D02*
Y1612381D01*
X1991972Y1611185D02*
X1990233Y1612924D01*
X1989692Y1612382*
X1991431Y1610644*
X1991972Y1611185*
X1991371Y1610703D02*
X1991490D01*
X1991271Y1610803D02*
X1991590D01*
X1991171Y1610903D02*
X1991690D01*
X1991071Y1611003D02*
X1991790D01*
X1990971Y1611103D02*
X1991890D01*
X1990871Y1611203D02*
X1991954D01*
X1990771Y1611303D02*
X1991854D01*
X1990671Y1611403D02*
X1991754D01*
X1990571Y1611503D02*
X1991654D01*
X1990471Y1611603D02*
X1991554D01*
X1990371Y1611703D02*
X1991454D01*
X1990271Y1611803D02*
X1991354D01*
X1990171Y1611903D02*
X1991254D01*
X1990071Y1612003D02*
X1991154D01*
X1989971Y1612103D02*
X1991054D01*
X1989871Y1612203D02*
X1990954D01*
X1989771Y1612303D02*
X1990854D01*
X1989713Y1612403D02*
X1990754D01*
X1989813Y1612503D02*
X1990654D01*
X1989913Y1612603D02*
X1990554D01*
X1990013Y1612703D02*
X1990454D01*
X1990113Y1612803D02*
X1990354D01*
X1990213Y1612903D02*
X1990254D01*
X1989704Y1612370D02*
Y1612395D01*
X1989804Y1612270D02*
Y1612495D01*
X1989904Y1612170D02*
Y1612595D01*
X1990004Y1612070D02*
Y1612695D01*
X1990104Y1611970D02*
Y1612795D01*
X1990204Y1611870D02*
Y1612895D01*
X1990304Y1611770D02*
Y1612854D01*
X1990404Y1611670D02*
Y1612754D01*
X1990504Y1611570D02*
Y1612654D01*
X1990604Y1611470D02*
Y1612554D01*
X1990704Y1611370D02*
Y1612454D01*
X1990804Y1611270D02*
Y1612354D01*
X1990904Y1611170D02*
Y1612254D01*
X1991004Y1611070D02*
Y1612154D01*
X1991104Y1610970D02*
Y1612054D01*
X1991204Y1610870D02*
Y1611954D01*
X1991304Y1610770D02*
Y1611854D01*
X1991404Y1610670D02*
Y1611754D01*
X1991504Y1610717D02*
Y1611654D01*
X1991604Y1610817D02*
Y1611554D01*
X1991704Y1610917D02*
Y1611454D01*
X1991804Y1611017D02*
Y1611354D01*
X1991904Y1611117D02*
Y1611254D01*
X1990859Y1610072D02*
X1989120Y1611811D01*
X1988578Y1611269*
X1990317Y1609530*
X1990859Y1610072*
X1990244Y1609603D02*
X1990390D01*
X1990144Y1609703D02*
X1990490D01*
X1990044Y1609803D02*
X1990590D01*
X1989944Y1609903D02*
X1990690D01*
X1989844Y1610003D02*
X1990790D01*
X1989744Y1610103D02*
X1990827D01*
X1989644Y1610203D02*
X1990727D01*
X1989544Y1610303D02*
X1990627D01*
X1989444Y1610403D02*
X1990527D01*
X1989344Y1610503D02*
X1990427D01*
X1989244Y1610603D02*
X1990327D01*
X1989144Y1610703D02*
X1990227D01*
X1989044Y1610803D02*
X1990127D01*
X1988944Y1610903D02*
X1990027D01*
X1988844Y1611003D02*
X1989927D01*
X1988744Y1611103D02*
X1989827D01*
X1988644Y1611203D02*
X1989727D01*
X1988613Y1611303D02*
X1989627D01*
X1988713Y1611403D02*
X1989527D01*
X1988813Y1611503D02*
X1989427D01*
X1988913Y1611603D02*
X1989327D01*
X1989013Y1611703D02*
X1989227D01*
X1989113Y1611803D02*
X1989127D01*
X1988604Y1611243D02*
Y1611295D01*
X1988704Y1611143D02*
Y1611395D01*
X1988804Y1611043D02*
Y1611495D01*
X1988904Y1610943D02*
Y1611595D01*
X1989004Y1610843D02*
Y1611695D01*
X1989104Y1610743D02*
Y1611795D01*
X1989204Y1610643D02*
Y1611727D01*
X1989304Y1610543D02*
Y1611627D01*
X1989404Y1610443D02*
Y1611527D01*
X1989504Y1610343D02*
Y1611427D01*
X1989604Y1610243D02*
Y1611327D01*
X1989704Y1610143D02*
Y1611227D01*
X1989804Y1610043D02*
Y1611127D01*
X1989904Y1609943D02*
Y1611027D01*
X1990004Y1609843D02*
Y1610927D01*
X1990104Y1609743D02*
Y1610827D01*
X1990204Y1609643D02*
Y1610727D01*
X1990304Y1609543D02*
Y1610627D01*
X1990404Y1609617D02*
Y1610527D01*
X1990504Y1609717D02*
Y1610427D01*
X1990604Y1609817D02*
Y1610327D01*
X1990704Y1609917D02*
Y1610227D01*
X1990804Y1610017D02*
Y1610127D01*
X1989745Y1608958D02*
X1988006Y1610697D01*
X1987465Y1610155*
X1989203Y1608416*
X1989745Y1608958*
X1989117Y1608503D02*
X1989290D01*
X1989017Y1608603D02*
X1989390D01*
X1988917Y1608703D02*
X1989490D01*
X1988817Y1608803D02*
X1989590D01*
X1988717Y1608903D02*
X1989690D01*
X1988617Y1609003D02*
X1989700D01*
X1988517Y1609103D02*
X1989600D01*
X1988417Y1609203D02*
X1989500D01*
X1988317Y1609303D02*
X1989400D01*
X1988217Y1609403D02*
X1989300D01*
X1988117Y1609503D02*
X1989200D01*
X1988017Y1609603D02*
X1989100D01*
X1987917Y1609703D02*
X1989000D01*
X1987817Y1609803D02*
X1988900D01*
X1987717Y1609903D02*
X1988800D01*
X1987617Y1610003D02*
X1988700D01*
X1987517Y1610103D02*
X1988600D01*
X1987513Y1610203D02*
X1988500D01*
X1987613Y1610303D02*
X1988400D01*
X1987713Y1610403D02*
X1988300D01*
X1987813Y1610503D02*
X1988200D01*
X1987913Y1610603D02*
X1988100D01*
X1987504Y1610116D02*
Y1610195D01*
X1987604Y1610016D02*
Y1610295D01*
X1987704Y1609916D02*
Y1610395D01*
X1987804Y1609816D02*
Y1610495D01*
X1987904Y1609716D02*
Y1610595D01*
X1988004Y1609616D02*
Y1610695D01*
X1988104Y1609516D02*
Y1610599D01*
X1988204Y1609416D02*
Y1610499D01*
X1988304Y1609316D02*
Y1610399D01*
X1988404Y1609216D02*
Y1610299D01*
X1988504Y1609116D02*
Y1610199D01*
X1988604Y1609016D02*
Y1610099D01*
X1988704Y1608916D02*
Y1609999D01*
X1988804Y1608816D02*
Y1609899D01*
X1988904Y1608716D02*
Y1609799D01*
X1989004Y1608616D02*
Y1609699D01*
X1989104Y1608516D02*
Y1609599D01*
X1989204Y1608417D02*
Y1609499D01*
X1989304Y1608517D02*
Y1609399D01*
X1989404Y1608617D02*
Y1609299D01*
X1989504Y1608717D02*
Y1609199D01*
X1989604Y1608817D02*
Y1609099D01*
X1989704Y1608917D02*
Y1608999D01*
X1988632Y1607845D02*
X1986893Y1609583D01*
X1986351Y1609042*
X1988090Y1607303*
X1988632Y1607845*
X1988090Y1607303D02*
X1988090D01*
X1987990Y1607403D02*
X1988190D01*
X1987890Y1607503D02*
X1988290D01*
X1987790Y1607603D02*
X1988390D01*
X1987690Y1607703D02*
X1988490D01*
X1987590Y1607803D02*
X1988590D01*
X1987490Y1607903D02*
X1988573D01*
X1987390Y1608003D02*
X1988473D01*
X1987290Y1608103D02*
X1988373D01*
X1987190Y1608203D02*
X1988273D01*
X1987090Y1608303D02*
X1988173D01*
X1986990Y1608403D02*
X1988073D01*
X1986890Y1608503D02*
X1987973D01*
X1986790Y1608603D02*
X1987873D01*
X1986690Y1608703D02*
X1987773D01*
X1986590Y1608803D02*
X1987673D01*
X1986490Y1608903D02*
X1987573D01*
X1986390Y1609003D02*
X1987473D01*
X1986413Y1609103D02*
X1987373D01*
X1986513Y1609203D02*
X1987273D01*
X1986613Y1609303D02*
X1987173D01*
X1986713Y1609403D02*
X1987073D01*
X1986813Y1609503D02*
X1986973D01*
X1986404Y1608989D02*
Y1609095D01*
X1986504Y1608889D02*
Y1609195D01*
X1986604Y1608789D02*
Y1609295D01*
X1986704Y1608689D02*
Y1609395D01*
X1986804Y1608589D02*
Y1609495D01*
X1986904Y1608489D02*
Y1609572D01*
X1987004Y1608389D02*
Y1609472D01*
X1987104Y1608289D02*
Y1609372D01*
X1987204Y1608189D02*
Y1609272D01*
X1987304Y1608089D02*
Y1609172D01*
X1987404Y1607989D02*
Y1609072D01*
X1987504Y1607889D02*
Y1608972D01*
X1987604Y1607789D02*
Y1608872D01*
X1987704Y1607689D02*
Y1608772D01*
X1987804Y1607589D02*
Y1608672D01*
X1987904Y1607489D02*
Y1608572D01*
X1988004Y1607389D02*
Y1608472D01*
X1988104Y1607317D02*
Y1608372D01*
X1988204Y1607417D02*
Y1608272D01*
X1988304Y1607517D02*
Y1608172D01*
X1988404Y1607617D02*
Y1608072D01*
X1988504Y1607717D02*
Y1607972D01*
X1988604Y1607817D02*
Y1607872D01*
X1987518Y1606731D02*
X1985779Y1608470D01*
X1985238Y1607928*
X1986976Y1606189*
X1987518Y1606731*
X1986963Y1606203D02*
X1986990D01*
X1986863Y1606303D02*
X1987090D01*
X1986763Y1606403D02*
X1987190D01*
X1986663Y1606503D02*
X1987290D01*
X1986563Y1606603D02*
X1987390D01*
X1986463Y1606703D02*
X1987490D01*
X1986363Y1606803D02*
X1987446D01*
X1986263Y1606903D02*
X1987346D01*
X1986163Y1607003D02*
X1987246D01*
X1986063Y1607103D02*
X1987146D01*
X1985963Y1607203D02*
X1987046D01*
X1985863Y1607303D02*
X1986946D01*
X1985763Y1607403D02*
X1986846D01*
X1985663Y1607503D02*
X1986746D01*
X1985563Y1607603D02*
X1986646D01*
X1985463Y1607703D02*
X1986546D01*
X1985363Y1607803D02*
X1986446D01*
X1985263Y1607903D02*
X1986346D01*
X1985313Y1608003D02*
X1986246D01*
X1985413Y1608103D02*
X1986146D01*
X1985513Y1608203D02*
X1986046D01*
X1985613Y1608303D02*
X1985946D01*
X1985713Y1608403D02*
X1985846D01*
X1985304Y1607862D02*
Y1607995D01*
X1985404Y1607762D02*
Y1608095D01*
X1985504Y1607662D02*
Y1608195D01*
X1985604Y1607562D02*
Y1608295D01*
X1985704Y1607462D02*
Y1608395D01*
X1985804Y1607362D02*
Y1608445D01*
X1985904Y1607262D02*
Y1608345D01*
X1986004Y1607162D02*
Y1608245D01*
X1986104Y1607062D02*
Y1608145D01*
X1986204Y1606962D02*
Y1608045D01*
X1986304Y1606862D02*
Y1607945D01*
X1986404Y1606762D02*
Y1607845D01*
X1986504Y1606662D02*
Y1607745D01*
X1986604Y1606562D02*
Y1607645D01*
X1986704Y1606462D02*
Y1607545D01*
X1986804Y1606362D02*
Y1607445D01*
X1986904Y1606262D02*
Y1607345D01*
X1987004Y1606217D02*
Y1607245D01*
X1987104Y1606317D02*
Y1607145D01*
X1987204Y1606417D02*
Y1607045D01*
X1987304Y1606517D02*
Y1606945D01*
X1987404Y1606617D02*
Y1606845D01*
X1987504Y1606717D02*
Y1606745D01*
X1986405Y1605618D02*
X1984666Y1607356D01*
X1984124Y1606815*
X1985863Y1605076*
X1986405Y1605618*
X1985835Y1605103D02*
X1985890D01*
X1985735Y1605203D02*
X1985990D01*
X1985635Y1605303D02*
X1986090D01*
X1985535Y1605403D02*
X1986190D01*
X1985435Y1605503D02*
X1986290D01*
X1985335Y1605603D02*
X1986390D01*
X1985235Y1605703D02*
X1986319D01*
X1985135Y1605803D02*
X1986219D01*
X1985035Y1605903D02*
X1986119D01*
X1984935Y1606003D02*
X1986019D01*
X1984835Y1606103D02*
X1985919D01*
X1984735Y1606203D02*
X1985819D01*
X1984635Y1606303D02*
X1985719D01*
X1984535Y1606403D02*
X1985619D01*
X1984435Y1606503D02*
X1985519D01*
X1984335Y1606603D02*
X1985419D01*
X1984235Y1606703D02*
X1985319D01*
X1984135Y1606803D02*
X1985219D01*
X1984213Y1606903D02*
X1985119D01*
X1984313Y1607003D02*
X1985019D01*
X1984413Y1607103D02*
X1984919D01*
X1984513Y1607203D02*
X1984819D01*
X1984613Y1607303D02*
X1984719D01*
X1984204Y1606735D02*
Y1606895D01*
X1984304Y1606635D02*
Y1606995D01*
X1984404Y1606535D02*
Y1607095D01*
X1984504Y1606435D02*
Y1607195D01*
X1984604Y1606335D02*
Y1607295D01*
X1984704Y1606235D02*
Y1607318D01*
X1984804Y1606135D02*
Y1607218D01*
X1984904Y1606035D02*
Y1607118D01*
X1985004Y1605935D02*
Y1607018D01*
X1985104Y1605835D02*
Y1606918D01*
X1985204Y1605735D02*
Y1606818D01*
X1985304Y1605635D02*
Y1606718D01*
X1985404Y1605535D02*
Y1606618D01*
X1985504Y1605435D02*
Y1606518D01*
X1985604Y1605335D02*
Y1606418D01*
X1985704Y1605235D02*
Y1606318D01*
X1985804Y1605135D02*
Y1606218D01*
X1985904Y1605117D02*
Y1606118D01*
X1986004Y1605217D02*
Y1606018D01*
X1986104Y1605317D02*
Y1605918D01*
X1986204Y1605417D02*
Y1605818D01*
X1986304Y1605517D02*
Y1605718D01*
X1986404Y1605617D02*
Y1605618D01*
X1985291Y1604504D02*
X1983552Y1606243D01*
X1983010Y1605701*
X1984749Y1603962*
X1985291Y1604504*
X1984708Y1604003D02*
X1984790D01*
X1984608Y1604103D02*
X1984890D01*
X1984508Y1604203D02*
X1984990D01*
X1984408Y1604303D02*
X1985090D01*
X1984308Y1604403D02*
X1985190D01*
X1984208Y1604503D02*
X1985290D01*
X1984108Y1604603D02*
X1985192D01*
X1984008Y1604703D02*
X1985092D01*
X1983908Y1604803D02*
X1984992D01*
X1983808Y1604903D02*
X1984892D01*
X1983708Y1605003D02*
X1984792D01*
X1983608Y1605103D02*
X1984692D01*
X1983508Y1605203D02*
X1984592D01*
X1983408Y1605303D02*
X1984492D01*
X1983308Y1605403D02*
X1984392D01*
X1983208Y1605503D02*
X1984292D01*
X1983108Y1605603D02*
X1984192D01*
X1983013Y1605703D02*
X1984092D01*
X1983113Y1605803D02*
X1983992D01*
X1983213Y1605903D02*
X1983892D01*
X1983313Y1606003D02*
X1983792D01*
X1983413Y1606103D02*
X1983692D01*
X1983513Y1606203D02*
X1983592D01*
X1983104Y1605608D02*
Y1605795D01*
X1983204Y1605508D02*
Y1605895D01*
X1983304Y1605408D02*
Y1605995D01*
X1983404Y1605308D02*
Y1606095D01*
X1983504Y1605208D02*
Y1606195D01*
X1983604Y1605108D02*
Y1606191D01*
X1983704Y1605008D02*
Y1606091D01*
X1983804Y1604908D02*
Y1605991D01*
X1983904Y1604808D02*
Y1605891D01*
X1984004Y1604708D02*
Y1605791D01*
X1984104Y1604608D02*
Y1605691D01*
X1984204Y1604508D02*
Y1605591D01*
X1984304Y1604408D02*
Y1605491D01*
X1984404Y1604308D02*
Y1605391D01*
X1984504Y1604208D02*
Y1605291D01*
X1984604Y1604108D02*
Y1605191D01*
X1984704Y1604008D02*
Y1605091D01*
X1984804Y1604017D02*
Y1604991D01*
X1984904Y1604117D02*
Y1604891D01*
X1985004Y1604217D02*
Y1604791D01*
X1985104Y1604317D02*
Y1604691D01*
X1985204Y1604417D02*
Y1604591D01*
X1984177Y1603390D02*
X1982439Y1605129D01*
X1981897Y1604587*
X1983636Y1602849*
X1984177Y1603390*
X1983581Y1602903D02*
X1983690D01*
X1983481Y1603003D02*
X1983790D01*
X1983381Y1603103D02*
X1983890D01*
X1983281Y1603203D02*
X1983990D01*
X1983181Y1603303D02*
X1984090D01*
X1983081Y1603403D02*
X1984165D01*
X1982981Y1603503D02*
X1984065D01*
X1982881Y1603603D02*
X1983965D01*
X1982781Y1603703D02*
X1983865D01*
X1982681Y1603803D02*
X1983765D01*
X1982581Y1603903D02*
X1983665D01*
X1982481Y1604003D02*
X1983565D01*
X1982381Y1604103D02*
X1983465D01*
X1982281Y1604203D02*
X1983365D01*
X1982181Y1604303D02*
X1983265D01*
X1982081Y1604403D02*
X1983165D01*
X1981981Y1604503D02*
X1983065D01*
X1981913Y1604603D02*
X1982965D01*
X1982013Y1604703D02*
X1982865D01*
X1982113Y1604803D02*
X1982765D01*
X1982213Y1604903D02*
X1982665D01*
X1982313Y1605003D02*
X1982565D01*
X1982413Y1605103D02*
X1982465D01*
X1981904Y1604580D02*
Y1604595D01*
X1982004Y1604480D02*
Y1604695D01*
X1982104Y1604380D02*
Y1604795D01*
X1982204Y1604280D02*
Y1604895D01*
X1982304Y1604180D02*
Y1604995D01*
X1982404Y1604080D02*
Y1605095D01*
X1982504Y1603980D02*
Y1605064D01*
X1982604Y1603880D02*
Y1604964D01*
X1982704Y1603780D02*
Y1604864D01*
X1982804Y1603680D02*
Y1604764D01*
X1982904Y1603580D02*
Y1604664D01*
X1983004Y1603480D02*
Y1604564D01*
X1983104Y1603380D02*
Y1604464D01*
X1983204Y1603280D02*
Y1604364D01*
X1983304Y1603180D02*
Y1604264D01*
X1983404Y1603080D02*
Y1604164D01*
X1983504Y1602980D02*
Y1604064D01*
X1983604Y1602880D02*
Y1603964D01*
X1983704Y1602917D02*
Y1603864D01*
X1983804Y1603017D02*
Y1603764D01*
X1983904Y1603117D02*
Y1603664D01*
X1984004Y1603217D02*
Y1603564D01*
X1984104Y1603317D02*
Y1603464D01*
X1983064Y1602277D02*
X1981325Y1604016D01*
X1980783Y1603474*
X1982522Y1601735*
X1983064Y1602277*
X1982454Y1601803D02*
X1982590D01*
X1982354Y1601903D02*
X1982690D01*
X1982254Y1602003D02*
X1982790D01*
X1982154Y1602103D02*
X1982890D01*
X1982054Y1602203D02*
X1982990D01*
X1981954Y1602303D02*
X1983038D01*
X1981854Y1602403D02*
X1982938D01*
X1981754Y1602503D02*
X1982838D01*
X1981654Y1602603D02*
X1982738D01*
X1981554Y1602703D02*
X1982638D01*
X1981454Y1602803D02*
X1982538D01*
X1981354Y1602903D02*
X1982438D01*
X1981254Y1603003D02*
X1982338D01*
X1981154Y1603103D02*
X1982238D01*
X1981054Y1603203D02*
X1982138D01*
X1980954Y1603303D02*
X1982038D01*
X1980854Y1603403D02*
X1981938D01*
X1980813Y1603503D02*
X1981838D01*
X1980913Y1603603D02*
X1981738D01*
X1981013Y1603703D02*
X1981638D01*
X1981113Y1603803D02*
X1981538D01*
X1981213Y1603903D02*
X1981438D01*
X1981313Y1604003D02*
X1981338D01*
X1980804Y1603453D02*
Y1603495D01*
X1980904Y1603353D02*
Y1603595D01*
X1981004Y1603253D02*
Y1603695D01*
X1981104Y1603153D02*
Y1603795D01*
X1981204Y1603053D02*
Y1603895D01*
X1981304Y1602953D02*
Y1603995D01*
X1981404Y1602853D02*
Y1603937D01*
X1981504Y1602753D02*
Y1603837D01*
X1981604Y1602653D02*
Y1603737D01*
X1981704Y1602553D02*
Y1603637D01*
X1981804Y1602453D02*
Y1603537D01*
X1981904Y1602353D02*
Y1603437D01*
X1982004Y1602253D02*
Y1603337D01*
X1982104Y1602153D02*
Y1603237D01*
X1982204Y1602053D02*
Y1603137D01*
X1982304Y1601953D02*
Y1603037D01*
X1982404Y1601853D02*
Y1602937D01*
X1982504Y1601753D02*
Y1602837D01*
X1982604Y1601817D02*
Y1602737D01*
X1982704Y1601917D02*
Y1602637D01*
X1982804Y1602017D02*
Y1602537D01*
X1982904Y1602117D02*
Y1602437D01*
X1983004Y1602217D02*
Y1602337D01*
X1981950Y1601163D02*
X1980211Y1602902D01*
X1980211D02*
X1979670Y1602360D01*
X1981409Y1600622*
X1981950Y1601163*
X1981327Y1600703D02*
X1981490D01*
X1981227Y1600803D02*
X1981590D01*
X1981127Y1600903D02*
X1981690D01*
X1981027Y1601003D02*
X1981790D01*
X1980927Y1601103D02*
X1981890D01*
X1980827Y1601203D02*
X1981910D01*
X1980727Y1601303D02*
X1981810D01*
X1980627Y1601403D02*
X1981710D01*
X1980527Y1601503D02*
X1981610D01*
X1980427Y1601603D02*
X1981510D01*
X1980327Y1601703D02*
X1981410D01*
X1980227Y1601803D02*
X1981310D01*
X1980127Y1601903D02*
X1981210D01*
X1980027Y1602003D02*
X1981110D01*
X1979927Y1602103D02*
X1981010D01*
X1979827Y1602203D02*
X1980910D01*
X1979727Y1602303D02*
X1980810D01*
X1979713Y1602403D02*
X1980710D01*
X1979813Y1602503D02*
X1980610D01*
X1979913Y1602603D02*
X1980510D01*
X1980013Y1602703D02*
X1980410D01*
X1980113Y1602803D02*
X1980310D01*
X1979704Y1602326D02*
Y1602395D01*
X1979804Y1602226D02*
Y1602495D01*
X1979904Y1602126D02*
Y1602595D01*
X1980004Y1602026D02*
Y1602695D01*
X1980104Y1601926D02*
Y1602795D01*
X1980204Y1601826D02*
Y1602895D01*
X1980304Y1601726D02*
Y1602810D01*
X1980404Y1601626D02*
Y1602710D01*
X1980504Y1601526D02*
Y1602610D01*
X1980604Y1601426D02*
Y1602510D01*
X1980704Y1601326D02*
Y1602410D01*
X1980804Y1601226D02*
Y1602310D01*
X1980904Y1601126D02*
Y1602210D01*
X1981004Y1601026D02*
Y1602110D01*
X1981104Y1600926D02*
Y1602010D01*
X1981204Y1600826D02*
Y1601910D01*
X1981304Y1600726D02*
Y1601810D01*
X1981404Y1600626D02*
Y1601710D01*
X1981504Y1600717D02*
Y1601610D01*
X1981604Y1600817D02*
Y1601510D01*
X1981704Y1600917D02*
Y1601410D01*
X1981804Y1601017D02*
Y1601310D01*
X1981904Y1601117D02*
Y1601210D01*
X1981409Y1598309D02*
X1979670Y1596570D01*
X1980211Y1596028*
X1980211D02*
X1981950Y1597767D01*
X1981409Y1598309*
X1980137Y1596103D02*
X1980286D01*
X1980037Y1596203D02*
X1980386D01*
X1979937Y1596303D02*
X1980486D01*
X1979837Y1596403D02*
X1980586D01*
X1979737Y1596503D02*
X1980686D01*
X1979703Y1596603D02*
X1980786D01*
X1979803Y1596703D02*
X1980886D01*
X1979903Y1596803D02*
X1980986D01*
X1980003Y1596903D02*
X1981086D01*
X1980103Y1597003D02*
X1981186D01*
X1980203Y1597103D02*
X1981286D01*
X1980303Y1597203D02*
X1981386D01*
X1980403Y1597303D02*
X1981486D01*
X1980503Y1597403D02*
X1981586D01*
X1980603Y1597503D02*
X1981686D01*
X1980703Y1597603D02*
X1981786D01*
X1980803Y1597703D02*
X1981886D01*
X1980903Y1597803D02*
X1981914D01*
X1981003Y1597903D02*
X1981814D01*
X1981103Y1598003D02*
X1981714D01*
X1981203Y1598103D02*
X1981614D01*
X1981303Y1598203D02*
X1981514D01*
X1981403Y1598303D02*
X1981414D01*
X1979704Y1596536D02*
Y1596604D01*
X1979804Y1596436D02*
Y1596704D01*
X1979904Y1596336D02*
Y1596804D01*
X1980004Y1596236D02*
Y1596904D01*
X1980104Y1596136D02*
Y1597004D01*
X1980204Y1596036D02*
Y1597104D01*
X1980304Y1596121D02*
Y1597204D01*
X1980404Y1596221D02*
Y1597304D01*
X1980504Y1596321D02*
Y1597404D01*
X1980604Y1596421D02*
Y1597504D01*
X1980704Y1596521D02*
Y1597604D01*
X1980804Y1596621D02*
Y1597704D01*
X1980904Y1596721D02*
Y1597804D01*
X1981004Y1596821D02*
Y1597904D01*
X1981104Y1596921D02*
Y1598004D01*
X1981204Y1597021D02*
Y1598104D01*
X1981304Y1597121D02*
Y1598204D01*
X1981404Y1597221D02*
Y1598304D01*
X1981504Y1597321D02*
Y1598213D01*
X1981604Y1597421D02*
Y1598113D01*
X1981704Y1597521D02*
Y1598013D01*
X1981804Y1597621D02*
Y1597913D01*
X1981904Y1597721D02*
Y1597813D01*
X1982522Y1597195D02*
X1980783Y1595456D01*
X1981325Y1594915*
X1983064Y1596653*
X1982522Y1597195*
X1981237Y1595003D02*
X1981414D01*
X1981137Y1595103D02*
X1981514D01*
X1981037Y1595203D02*
X1981614D01*
X1980937Y1595303D02*
X1981714D01*
X1980837Y1595403D02*
X1981814D01*
X1980830Y1595503D02*
X1981914D01*
X1980930Y1595603D02*
X1982014D01*
X1981030Y1595703D02*
X1982114D01*
X1981130Y1595803D02*
X1982214D01*
X1981230Y1595903D02*
X1982314D01*
X1981330Y1596003D02*
X1982414D01*
X1981430Y1596103D02*
X1982514D01*
X1981530Y1596203D02*
X1982614D01*
X1981630Y1596303D02*
X1982714D01*
X1981730Y1596403D02*
X1982814D01*
X1981830Y1596503D02*
X1982914D01*
X1981930Y1596603D02*
X1983014D01*
X1982030Y1596703D02*
X1983014D01*
X1982130Y1596803D02*
X1982914D01*
X1982230Y1596903D02*
X1982814D01*
X1982330Y1597003D02*
X1982714D01*
X1982430Y1597103D02*
X1982614D01*
X1980804Y1595436D02*
Y1595477D01*
X1980904Y1595336D02*
Y1595577D01*
X1981004Y1595236D02*
Y1595677D01*
X1981104Y1595136D02*
Y1595777D01*
X1981204Y1595036D02*
Y1595877D01*
X1981304Y1594936D02*
Y1595977D01*
X1981404Y1594993D02*
Y1596077D01*
X1981504Y1595093D02*
Y1596177D01*
X1981604Y1595193D02*
Y1596277D01*
X1981704Y1595293D02*
Y1596377D01*
X1981804Y1595393D02*
Y1596477D01*
X1981904Y1595493D02*
Y1596577D01*
X1982004Y1595593D02*
Y1596677D01*
X1982104Y1595693D02*
Y1596777D01*
X1982204Y1595793D02*
Y1596877D01*
X1982304Y1595893D02*
Y1596977D01*
X1982404Y1595993D02*
Y1597077D01*
X1982504Y1596093D02*
Y1597177D01*
X1982604Y1596193D02*
Y1597113D01*
X1982704Y1596293D02*
Y1597013D01*
X1982804Y1596393D02*
Y1596913D01*
X1982904Y1596493D02*
Y1596813D01*
X1983004Y1596593D02*
Y1596713D01*
X1983636Y1596082D02*
X1981897Y1594343D01*
X1982439Y1593801*
X1984177Y1595540*
X1983636Y1596082*
X1982437Y1593803D02*
X1982441D01*
X1982337Y1593903D02*
X1982541D01*
X1982237Y1594003D02*
X1982641D01*
X1982137Y1594103D02*
X1982741D01*
X1982037Y1594203D02*
X1982841D01*
X1981937Y1594303D02*
X1982941D01*
X1981957Y1594403D02*
X1983041D01*
X1982057Y1594503D02*
X1983141D01*
X1982157Y1594603D02*
X1983241D01*
X1982257Y1594703D02*
X1983341D01*
X1982357Y1594803D02*
X1983441D01*
X1982457Y1594903D02*
X1983541D01*
X1982557Y1595003D02*
X1983641D01*
X1982657Y1595103D02*
X1983741D01*
X1982757Y1595203D02*
X1983841D01*
X1982857Y1595303D02*
X1983941D01*
X1982957Y1595403D02*
X1984041D01*
X1983057Y1595503D02*
X1984141D01*
X1983157Y1595603D02*
X1984114D01*
X1983257Y1595703D02*
X1984014D01*
X1983357Y1595803D02*
X1983914D01*
X1983457Y1595903D02*
X1983814D01*
X1983557Y1596003D02*
X1983714D01*
X1981904Y1594336D02*
Y1594350D01*
X1982004Y1594236D02*
Y1594450D01*
X1982104Y1594136D02*
Y1594550D01*
X1982204Y1594036D02*
Y1594650D01*
X1982304Y1593936D02*
Y1594750D01*
X1982404Y1593836D02*
Y1594850D01*
X1982504Y1593866D02*
Y1594950D01*
X1982604Y1593966D02*
Y1595050D01*
X1982704Y1594066D02*
Y1595150D01*
X1982804Y1594166D02*
Y1595250D01*
X1982904Y1594266D02*
Y1595350D01*
X1983004Y1594366D02*
Y1595450D01*
X1983104Y1594466D02*
Y1595550D01*
X1983204Y1594566D02*
Y1595650D01*
X1983304Y1594666D02*
Y1595750D01*
X1983404Y1594766D02*
Y1595850D01*
X1983504Y1594866D02*
Y1595950D01*
X1983604Y1594966D02*
Y1596050D01*
X1983704Y1595066D02*
Y1596013D01*
X1983804Y1595166D02*
Y1595913D01*
X1983904Y1595266D02*
Y1595813D01*
X1984004Y1595366D02*
Y1595713D01*
X1984104Y1595466D02*
Y1595613D01*
X1984749Y1594968D02*
X1983010Y1593229D01*
X1983552Y1592688*
X1985291Y1594426*
X1984749Y1594968*
X1983537Y1592703D02*
X1983568D01*
X1983437Y1592803D02*
X1983668D01*
X1983337Y1592903D02*
X1983768D01*
X1983237Y1593003D02*
X1983868D01*
X1983137Y1593103D02*
X1983968D01*
X1983037Y1593203D02*
X1984068D01*
X1983084Y1593303D02*
X1984168D01*
X1983184Y1593403D02*
X1984268D01*
X1983284Y1593503D02*
X1984368D01*
X1983384Y1593603D02*
X1984468D01*
X1983484Y1593703D02*
X1984568D01*
X1983584Y1593803D02*
X1984668D01*
X1983684Y1593903D02*
X1984768D01*
X1983784Y1594003D02*
X1984868D01*
X1983884Y1594103D02*
X1984968D01*
X1983984Y1594203D02*
X1985068D01*
X1984084Y1594303D02*
X1985168D01*
X1984184Y1594403D02*
X1985268D01*
X1984284Y1594503D02*
X1985214D01*
X1984384Y1594603D02*
X1985114D01*
X1984484Y1594703D02*
X1985014D01*
X1984584Y1594803D02*
X1984914D01*
X1984684Y1594903D02*
X1984814D01*
X1983104Y1593136D02*
Y1593323D01*
X1983204Y1593036D02*
Y1593423D01*
X1983304Y1592936D02*
Y1593523D01*
X1983404Y1592836D02*
Y1593623D01*
X1983504Y1592736D02*
Y1593723D01*
X1983604Y1592739D02*
Y1593823D01*
X1983704Y1592839D02*
Y1593923D01*
X1983804Y1592939D02*
Y1594023D01*
X1983904Y1593039D02*
Y1594123D01*
X1984004Y1593139D02*
Y1594223D01*
X1984104Y1593239D02*
Y1594323D01*
X1984204Y1593339D02*
Y1594423D01*
X1984304Y1593439D02*
Y1594523D01*
X1984404Y1593539D02*
Y1594623D01*
X1984504Y1593639D02*
Y1594723D01*
X1984604Y1593739D02*
Y1594823D01*
X1984704Y1593839D02*
Y1594923D01*
X1984804Y1593939D02*
Y1594913D01*
X1984904Y1594039D02*
Y1594813D01*
X1985004Y1594139D02*
Y1594713D01*
X1985104Y1594239D02*
Y1594613D01*
X1985204Y1594339D02*
Y1594513D01*
X1985863Y1593855D02*
X1984124Y1592116D01*
X1984666Y1591574*
X1986405Y1593313*
X1985863Y1593855*
X1984637Y1591603D02*
X1984695D01*
X1984537Y1591703D02*
X1984795D01*
X1984437Y1591803D02*
X1984895D01*
X1984337Y1591903D02*
X1984995D01*
X1984237Y1592003D02*
X1985095D01*
X1984137Y1592103D02*
X1985195D01*
X1984211Y1592203D02*
X1985295D01*
X1984311Y1592303D02*
X1985395D01*
X1984411Y1592403D02*
X1985495D01*
X1984511Y1592503D02*
X1985595D01*
X1984611Y1592603D02*
X1985695D01*
X1984711Y1592703D02*
X1985795D01*
X1984811Y1592803D02*
X1985895D01*
X1984911Y1592903D02*
X1985995D01*
X1985011Y1593003D02*
X1986095D01*
X1985111Y1593103D02*
X1986195D01*
X1985211Y1593203D02*
X1986295D01*
X1985311Y1593303D02*
X1986395D01*
X1985411Y1593403D02*
X1986314D01*
X1985511Y1593503D02*
X1986214D01*
X1985611Y1593603D02*
X1986114D01*
X1985711Y1593703D02*
X1986014D01*
X1985811Y1593803D02*
X1985914D01*
X1984204Y1592036D02*
Y1592196D01*
X1984304Y1591936D02*
Y1592296D01*
X1984404Y1591836D02*
Y1592396D01*
X1984504Y1591736D02*
Y1592496D01*
X1984604Y1591636D02*
Y1592596D01*
X1984704Y1591612D02*
Y1592696D01*
X1984804Y1591712D02*
Y1592796D01*
X1984904Y1591812D02*
Y1592896D01*
X1985004Y1591912D02*
Y1592996D01*
X1985104Y1592012D02*
Y1593096D01*
X1985204Y1592112D02*
Y1593196D01*
X1985304Y1592212D02*
Y1593296D01*
X1985404Y1592312D02*
Y1593396D01*
X1985504Y1592412D02*
Y1593496D01*
X1985604Y1592512D02*
Y1593596D01*
X1985704Y1592612D02*
Y1593696D01*
X1985804Y1592712D02*
Y1593796D01*
X1985904Y1592812D02*
Y1593813D01*
X1986004Y1592912D02*
Y1593713D01*
X1986104Y1593012D02*
Y1593613D01*
X1986204Y1593112D02*
Y1593513D01*
X1986304Y1593212D02*
Y1593413D01*
X1986404Y1593312D02*
Y1593313D01*
X1986976Y1592741D02*
X1985238Y1591002D01*
X1985779Y1590460*
X1987518Y1592199*
X1986976Y1592741*
X1985737Y1590503D02*
X1985822D01*
X1985637Y1590603D02*
X1985922D01*
X1985537Y1590703D02*
X1986022D01*
X1985437Y1590803D02*
X1986122D01*
X1985337Y1590903D02*
X1986222D01*
X1985239Y1591003D02*
X1986322D01*
X1985339Y1591103D02*
X1986422D01*
X1985439Y1591203D02*
X1986522D01*
X1985539Y1591303D02*
X1986622D01*
X1985639Y1591403D02*
X1986722D01*
X1985739Y1591503D02*
X1986822D01*
X1985839Y1591603D02*
X1986922D01*
X1985939Y1591703D02*
X1987022D01*
X1986039Y1591803D02*
X1987122D01*
X1986139Y1591903D02*
X1987222D01*
X1986239Y1592003D02*
X1987322D01*
X1986339Y1592103D02*
X1987422D01*
X1986439Y1592203D02*
X1987514D01*
X1986539Y1592303D02*
X1987414D01*
X1986639Y1592403D02*
X1987314D01*
X1986739Y1592503D02*
X1987214D01*
X1986839Y1592603D02*
X1987114D01*
X1986939Y1592703D02*
X1987014D01*
X1985304Y1590936D02*
Y1591069D01*
X1985404Y1590836D02*
Y1591169D01*
X1985504Y1590736D02*
Y1591269D01*
X1985604Y1590636D02*
Y1591369D01*
X1985704Y1590536D02*
Y1591469D01*
X1985804Y1590485D02*
Y1591569D01*
X1985904Y1590585D02*
Y1591669D01*
X1986004Y1590685D02*
Y1591769D01*
X1986104Y1590785D02*
Y1591869D01*
X1986204Y1590885D02*
Y1591969D01*
X1986304Y1590985D02*
Y1592069D01*
X1986404Y1591085D02*
Y1592169D01*
X1986504Y1591185D02*
Y1592269D01*
X1986604Y1591285D02*
Y1592369D01*
X1986704Y1591385D02*
Y1592469D01*
X1986804Y1591485D02*
Y1592569D01*
X1986904Y1591585D02*
Y1592669D01*
X1987004Y1591685D02*
Y1592713D01*
X1987104Y1591785D02*
Y1592613D01*
X1987204Y1591885D02*
Y1592513D01*
X1987304Y1591985D02*
Y1592413D01*
X1987404Y1592085D02*
Y1592313D01*
X1987504Y1592185D02*
Y1592213D01*
X1988090Y1591627D02*
X1986351Y1589889D01*
X1986893Y1589347*
X1988632Y1591086*
X1988090Y1591627*
X1986837Y1589403D02*
X1986949D01*
X1986737Y1589503D02*
X1987049D01*
X1986637Y1589603D02*
X1987149D01*
X1986537Y1589703D02*
X1987249D01*
X1986437Y1589803D02*
X1987349D01*
X1986366Y1589903D02*
X1987449D01*
X1986466Y1590003D02*
X1987549D01*
X1986566Y1590103D02*
X1987649D01*
X1986666Y1590203D02*
X1987749D01*
X1986766Y1590303D02*
X1987849D01*
X1986866Y1590403D02*
X1987949D01*
X1986966Y1590503D02*
X1988049D01*
X1987066Y1590603D02*
X1988149D01*
X1987166Y1590703D02*
X1988249D01*
X1987266Y1590803D02*
X1988349D01*
X1987366Y1590903D02*
X1988449D01*
X1987466Y1591003D02*
X1988549D01*
X1987566Y1591103D02*
X1988614D01*
X1987666Y1591203D02*
X1988514D01*
X1987766Y1591303D02*
X1988414D01*
X1987866Y1591403D02*
X1988314D01*
X1987966Y1591503D02*
X1988214D01*
X1988066Y1591603D02*
X1988114D01*
X1986404Y1589836D02*
Y1589941D01*
X1986504Y1589736D02*
Y1590041D01*
X1986604Y1589636D02*
Y1590141D01*
X1986704Y1589536D02*
Y1590241D01*
X1986804Y1589436D02*
Y1590341D01*
X1986904Y1589358D02*
Y1590441D01*
X1987004Y1589458D02*
Y1590541D01*
X1987104Y1589558D02*
Y1590641D01*
X1987204Y1589658D02*
Y1590741D01*
X1987304Y1589758D02*
Y1590841D01*
X1987404Y1589858D02*
Y1590941D01*
X1987504Y1589958D02*
Y1591041D01*
X1987604Y1590058D02*
Y1591141D01*
X1987704Y1590158D02*
Y1591241D01*
X1987804Y1590258D02*
Y1591341D01*
X1987904Y1590358D02*
Y1591441D01*
X1988004Y1590458D02*
Y1591541D01*
X1988104Y1590558D02*
Y1591613D01*
X1988204Y1590658D02*
Y1591513D01*
X1988304Y1590758D02*
Y1591413D01*
X1988404Y1590858D02*
Y1591313D01*
X1988504Y1590958D02*
Y1591213D01*
X1988604Y1591058D02*
Y1591113D01*
X1989203Y1590514D02*
X1987465Y1588775D01*
X1988006Y1588233*
X1989745Y1589972*
X1989203Y1590514*
X1987937Y1588303D02*
X1988076D01*
X1987837Y1588403D02*
X1988176D01*
X1987737Y1588503D02*
X1988276D01*
X1987637Y1588603D02*
X1988376D01*
X1987537Y1588703D02*
X1988476D01*
X1987493Y1588803D02*
X1988576D01*
X1987593Y1588903D02*
X1988676D01*
X1987693Y1589003D02*
X1988776D01*
X1987793Y1589103D02*
X1988876D01*
X1987893Y1589203D02*
X1988976D01*
X1987993Y1589303D02*
X1989076D01*
X1988093Y1589403D02*
X1989176D01*
X1988193Y1589503D02*
X1989276D01*
X1988293Y1589603D02*
X1989376D01*
X1988393Y1589703D02*
X1989476D01*
X1988493Y1589803D02*
X1989576D01*
X1988593Y1589903D02*
X1989676D01*
X1988693Y1590003D02*
X1989714D01*
X1988793Y1590103D02*
X1989614D01*
X1988893Y1590203D02*
X1989514D01*
X1988993Y1590303D02*
X1989414D01*
X1989093Y1590403D02*
X1989314D01*
X1989193Y1590503D02*
X1989214D01*
X1987504Y1588736D02*
Y1588814D01*
X1987604Y1588636D02*
Y1588914D01*
X1987704Y1588536D02*
Y1589014D01*
X1987804Y1588436D02*
Y1589114D01*
X1987904Y1588336D02*
Y1589214D01*
X1988004Y1588236D02*
Y1589314D01*
X1988104Y1588331D02*
Y1589414D01*
X1988204Y1588431D02*
Y1589514D01*
X1988304Y1588531D02*
Y1589614D01*
X1988404Y1588631D02*
Y1589714D01*
X1988504Y1588731D02*
Y1589814D01*
X1988604Y1588831D02*
Y1589914D01*
X1988704Y1588931D02*
Y1590014D01*
X1988804Y1589031D02*
Y1590114D01*
X1988904Y1589131D02*
Y1590214D01*
X1989004Y1589231D02*
Y1590314D01*
X1989104Y1589331D02*
Y1590414D01*
X1989204Y1589431D02*
Y1590513D01*
X1989304Y1589531D02*
Y1590413D01*
X1989404Y1589631D02*
Y1590313D01*
X1989504Y1589731D02*
Y1590213D01*
X1989604Y1589831D02*
Y1590113D01*
X1989704Y1589931D02*
Y1590013D01*
X1990317Y1589400D02*
X1988578Y1587661D01*
X1989120Y1587120*
X1990859Y1588859*
X1990317Y1589400*
X1989037Y1587203D02*
X1989203D01*
X1988937Y1587303D02*
X1989303D01*
X1988837Y1587403D02*
X1989403D01*
X1988737Y1587503D02*
X1989503D01*
X1988637Y1587603D02*
X1989603D01*
X1988620Y1587703D02*
X1989703D01*
X1988720Y1587803D02*
X1989803D01*
X1988820Y1587903D02*
X1989903D01*
X1988920Y1588003D02*
X1990003D01*
X1989020Y1588103D02*
X1990103D01*
X1989120Y1588203D02*
X1990203D01*
X1989220Y1588303D02*
X1990303D01*
X1989320Y1588403D02*
X1990403D01*
X1989420Y1588503D02*
X1990503D01*
X1989520Y1588603D02*
X1990603D01*
X1989620Y1588703D02*
X1990703D01*
X1989720Y1588803D02*
X1990803D01*
X1989820Y1588903D02*
X1990814D01*
X1989920Y1589003D02*
X1990714D01*
X1990020Y1589103D02*
X1990614D01*
X1990120Y1589203D02*
X1990514D01*
X1990220Y1589303D02*
X1990414D01*
X1988604Y1587636D02*
Y1587687D01*
X1988704Y1587536D02*
Y1587787D01*
X1988804Y1587436D02*
Y1587887D01*
X1988904Y1587336D02*
Y1587987D01*
X1989004Y1587236D02*
Y1588087D01*
X1989104Y1587136D02*
Y1588187D01*
X1989204Y1587204D02*
Y1588287D01*
X1989304Y1587304D02*
Y1588387D01*
X1989404Y1587404D02*
Y1588487D01*
X1989504Y1587504D02*
Y1588587D01*
X1989604Y1587604D02*
Y1588687D01*
X1989704Y1587704D02*
Y1588787D01*
X1989804Y1587804D02*
Y1588887D01*
X1989904Y1587904D02*
Y1588987D01*
X1990004Y1588004D02*
Y1589087D01*
X1990104Y1588104D02*
Y1589187D01*
X1990204Y1588204D02*
Y1589287D01*
X1990304Y1588304D02*
Y1589387D01*
X1990404Y1588404D02*
Y1589313D01*
X1990504Y1588504D02*
Y1589213D01*
X1990604Y1588604D02*
Y1589113D01*
X1990704Y1588704D02*
Y1589013D01*
X1990804Y1588804D02*
Y1588913D01*
X1991431Y1588287D02*
X1989692Y1586548D01*
X1990233Y1586006*
X1991972Y1587745*
X1991431Y1588287*
X1990137Y1586103D02*
X1990330D01*
X1990037Y1586203D02*
X1990430D01*
X1989937Y1586303D02*
X1990530D01*
X1989837Y1586403D02*
X1990630D01*
X1989737Y1586503D02*
X1990730D01*
X1989747Y1586603D02*
X1990830D01*
X1989847Y1586703D02*
X1990930D01*
X1989947Y1586803D02*
X1991030D01*
X1990047Y1586903D02*
X1991130D01*
X1990147Y1587003D02*
X1991230D01*
X1990247Y1587103D02*
X1991330D01*
X1990347Y1587203D02*
X1991430D01*
X1990447Y1587303D02*
X1991530D01*
X1990547Y1587403D02*
X1991630D01*
X1990647Y1587503D02*
X1991730D01*
X1990747Y1587603D02*
X1991830D01*
X1990847Y1587703D02*
X1991930D01*
X1990947Y1587803D02*
X1991914D01*
X1991047Y1587903D02*
X1991814D01*
X1991147Y1588003D02*
X1991714D01*
X1991247Y1588103D02*
X1991614D01*
X1991347Y1588203D02*
X1991514D01*
X1989704Y1586536D02*
Y1586560D01*
X1989804Y1586436D02*
Y1586660D01*
X1989904Y1586336D02*
Y1586760D01*
X1990004Y1586236D02*
Y1586860D01*
X1990104Y1586136D02*
Y1586960D01*
X1990204Y1586036D02*
Y1587060D01*
X1990304Y1586077D02*
Y1587160D01*
X1990404Y1586177D02*
Y1587260D01*
X1990504Y1586277D02*
Y1587360D01*
X1990604Y1586377D02*
Y1587460D01*
X1990704Y1586477D02*
Y1587560D01*
X1990804Y1586577D02*
Y1587660D01*
X1990904Y1586677D02*
Y1587760D01*
X1991004Y1586777D02*
Y1587860D01*
X1991104Y1586877D02*
Y1587960D01*
X1991204Y1586977D02*
Y1588060D01*
X1991304Y1587077D02*
Y1588160D01*
X1991404Y1587177D02*
Y1588260D01*
X1991504Y1587277D02*
Y1588213D01*
X1991604Y1587377D02*
Y1588113D01*
X1991704Y1587477D02*
Y1588013D01*
X1991804Y1587577D02*
Y1587913D01*
X1991904Y1587677D02*
Y1587813D01*
X1992544Y1587173D02*
X1990805Y1585434D01*
X1991347Y1584893*
X1993086Y1586631*
X1992544Y1587173*
X1991337Y1584903D02*
X1991358D01*
X1991237Y1585003D02*
X1991458D01*
X1991137Y1585103D02*
X1991558D01*
X1991037Y1585203D02*
X1991658D01*
X1990937Y1585303D02*
X1991758D01*
X1990837Y1585403D02*
X1991858D01*
X1990874Y1585503D02*
X1991958D01*
X1990974Y1585603D02*
X1992058D01*
X1991074Y1585703D02*
X1992158D01*
X1991174Y1585803D02*
X1992258D01*
X1991274Y1585903D02*
X1992358D01*
X1991374Y1586003D02*
X1992458D01*
X1991474Y1586103D02*
X1992558D01*
X1991574Y1586203D02*
X1992658D01*
X1991674Y1586303D02*
X1992758D01*
X1991774Y1586403D02*
X1992858D01*
X1991874Y1586503D02*
X1992958D01*
X1991974Y1586603D02*
X1993058D01*
X1992074Y1586703D02*
X1993014D01*
X1992174Y1586803D02*
X1992914D01*
X1992274Y1586903D02*
X1992814D01*
X1992374Y1587003D02*
X1992714D01*
X1992474Y1587103D02*
X1992614D01*
X1990904Y1585336D02*
Y1585533D01*
X1991004Y1585236D02*
Y1585633D01*
X1991104Y1585136D02*
Y1585733D01*
X1991204Y1585036D02*
Y1585833D01*
X1991304Y1584936D02*
Y1585933D01*
X1991404Y1584950D02*
Y1586033D01*
X1991504Y1585050D02*
Y1586133D01*
X1991604Y1585150D02*
Y1586233D01*
X1991704Y1585250D02*
Y1586333D01*
X1991804Y1585350D02*
Y1586433D01*
X1991904Y1585450D02*
Y1586533D01*
X1992004Y1585550D02*
Y1586633D01*
X1992104Y1585650D02*
Y1586733D01*
X1992204Y1585750D02*
Y1586833D01*
X1992304Y1585850D02*
Y1586933D01*
X1992404Y1585950D02*
Y1587033D01*
X1992504Y1586050D02*
Y1587133D01*
X1992604Y1586150D02*
Y1587113D01*
X1992704Y1586250D02*
Y1587013D01*
X1992804Y1586350D02*
Y1586913D01*
X1992904Y1586450D02*
Y1586813D01*
X1993004Y1586550D02*
Y1586713D01*
X1993658Y1586060D02*
X1991919Y1584321D01*
X1992461Y1583779*
X1994199Y1585518*
X1993658Y1586060*
X1992437Y1583803D02*
X1992485D01*
X1992337Y1583903D02*
X1992585D01*
X1992237Y1584003D02*
X1992685D01*
X1992137Y1584103D02*
X1992785D01*
X1992037Y1584203D02*
X1992885D01*
X1991937Y1584303D02*
X1992985D01*
X1992001Y1584403D02*
X1993085D01*
X1992101Y1584503D02*
X1993185D01*
X1992201Y1584603D02*
X1993285D01*
X1992301Y1584703D02*
X1993385D01*
X1992401Y1584803D02*
X1993485D01*
X1992501Y1584903D02*
X1993585D01*
X1992601Y1585003D02*
X1993685D01*
X1992701Y1585103D02*
X1993785D01*
X1992801Y1585203D02*
X1993885D01*
X1992901Y1585303D02*
X1993985D01*
X1993001Y1585403D02*
X1994085D01*
X1993101Y1585503D02*
X1994185D01*
X1993201Y1585603D02*
X1994114D01*
X1993301Y1585703D02*
X1994014D01*
X1993401Y1585803D02*
X1993914D01*
X1993501Y1585903D02*
X1993814D01*
X1993601Y1586003D02*
X1993714D01*
X1992004Y1584236D02*
Y1584406D01*
X1992104Y1584136D02*
Y1584506D01*
X1992204Y1584036D02*
Y1584606D01*
X1992304Y1583936D02*
Y1584706D01*
X1992404Y1583836D02*
Y1584806D01*
X1992504Y1583822D02*
Y1584906D01*
X1992604Y1583922D02*
Y1585006D01*
X1992704Y1584022D02*
Y1585106D01*
X1992804Y1584122D02*
Y1585206D01*
X1992904Y1584222D02*
Y1585306D01*
X1993004Y1584322D02*
Y1585406D01*
X1993104Y1584422D02*
Y1585506D01*
X1993204Y1584522D02*
Y1585606D01*
X1993304Y1584622D02*
Y1585706D01*
X1993404Y1584722D02*
Y1585806D01*
X1993504Y1584822D02*
Y1585906D01*
X1993604Y1584922D02*
Y1586006D01*
X1993704Y1585022D02*
Y1586013D01*
X1993804Y1585122D02*
Y1585913D01*
X1993904Y1585222D02*
Y1585813D01*
X1994004Y1585322D02*
Y1585713D01*
X1994104Y1585422D02*
Y1585613D01*
X1994771Y1584946D02*
X1993032Y1583207D01*
X1993574Y1582666*
X1995313Y1584404*
X1994771Y1584946*
X1993537Y1582703D02*
X1993612D01*
X1993437Y1582803D02*
X1993712D01*
X1993337Y1582903D02*
X1993812D01*
X1993237Y1583003D02*
X1993912D01*
X1993137Y1583103D02*
X1994012D01*
X1993037Y1583203D02*
X1994112D01*
X1993128Y1583303D02*
X1994212D01*
X1993228Y1583403D02*
X1994312D01*
X1993328Y1583503D02*
X1994412D01*
X1993428Y1583603D02*
X1994512D01*
X1993528Y1583703D02*
X1994612D01*
X1993628Y1583803D02*
X1994712D01*
X1993728Y1583903D02*
X1994812D01*
X1993828Y1584003D02*
X1994912D01*
X1993928Y1584103D02*
X1995012D01*
X1994028Y1584203D02*
X1995112D01*
X1994128Y1584303D02*
X1995212D01*
X1994228Y1584403D02*
X1995312D01*
X1994328Y1584503D02*
X1995214D01*
X1994428Y1584603D02*
X1995114D01*
X1994528Y1584703D02*
X1995014D01*
X1994628Y1584803D02*
X1994914D01*
X1994728Y1584903D02*
X1994814D01*
X1993104Y1583136D02*
Y1583279D01*
X1993204Y1583036D02*
Y1583379D01*
X1993304Y1582936D02*
Y1583479D01*
X1993404Y1582836D02*
Y1583579D01*
X1993504Y1582736D02*
Y1583679D01*
X1993604Y1582695D02*
Y1583779D01*
X1993704Y1582795D02*
Y1583879D01*
X1993804Y1582895D02*
Y1583979D01*
X1993904Y1582995D02*
Y1584079D01*
X1994004Y1583095D02*
Y1584179D01*
X1994104Y1583195D02*
Y1584279D01*
X1994204Y1583295D02*
Y1584379D01*
X1994304Y1583395D02*
Y1584479D01*
X1994404Y1583495D02*
Y1584579D01*
X1994504Y1583595D02*
Y1584679D01*
X1994604Y1583695D02*
Y1584779D01*
X1994704Y1583795D02*
Y1584879D01*
X1994804Y1583895D02*
Y1584913D01*
X1994904Y1583995D02*
Y1584813D01*
X1995004Y1584095D02*
Y1584713D01*
X1995104Y1584195D02*
Y1584613D01*
X1995204Y1584295D02*
Y1584513D01*
X1995304Y1584395D02*
Y1584413D01*
X1995885Y1583833D02*
X1994146Y1582094D01*
X1994688Y1581552*
X1996427Y1583291*
X1995885Y1583833*
X1994637Y1581603D02*
X1994739D01*
X1994537Y1581703D02*
X1994839D01*
X1994437Y1581803D02*
X1994939D01*
X1994337Y1581903D02*
X1995039D01*
X1994237Y1582003D02*
X1995139D01*
X1994155Y1582103D02*
X1995239D01*
X1994255Y1582203D02*
X1995339D01*
X1994355Y1582303D02*
X1995439D01*
X1994455Y1582403D02*
X1995539D01*
X1994555Y1582503D02*
X1995639D01*
X1994655Y1582603D02*
X1995739D01*
X1994755Y1582703D02*
X1995839D01*
X1994855Y1582803D02*
X1995939D01*
X1994955Y1582903D02*
X1996039D01*
X1995055Y1583003D02*
X1996139D01*
X1995155Y1583103D02*
X1996239D01*
X1995255Y1583203D02*
X1996339D01*
X1995355Y1583303D02*
X1996414D01*
X1995455Y1583403D02*
X1996314D01*
X1995555Y1583503D02*
X1996214D01*
X1995655Y1583603D02*
X1996114D01*
X1995755Y1583703D02*
X1996014D01*
X1995855Y1583803D02*
X1995914D01*
X1994204Y1582036D02*
Y1582152D01*
X1994304Y1581936D02*
Y1582252D01*
X1994404Y1581836D02*
Y1582352D01*
X1994504Y1581736D02*
Y1582452D01*
X1994604Y1581636D02*
Y1582552D01*
X1994704Y1581568D02*
Y1582652D01*
X1994804Y1581668D02*
Y1582752D01*
X1994904Y1581768D02*
Y1582852D01*
X1995004Y1581868D02*
Y1582952D01*
X1995104Y1581968D02*
Y1583052D01*
X1995204Y1582068D02*
Y1583152D01*
X1995304Y1582168D02*
Y1583252D01*
X1995404Y1582268D02*
Y1583352D01*
X1995504Y1582368D02*
Y1583452D01*
X1995604Y1582468D02*
Y1583552D01*
X1995704Y1582568D02*
Y1583652D01*
X1995804Y1582668D02*
Y1583752D01*
X1995904Y1582768D02*
Y1583813D01*
X1996004Y1582868D02*
Y1583713D01*
X1996104Y1582968D02*
Y1583613D01*
X1996204Y1583068D02*
Y1583513D01*
X1996304Y1583168D02*
Y1583413D01*
X1996404Y1583268D02*
Y1583313D01*
X2001020Y1582094D02*
X1999281Y1583833D01*
X1998739Y1583291*
X2000478Y1581552*
X2001020Y1582094*
X2000427Y1581603D02*
X2000529D01*
X2000327Y1581703D02*
X2000629D01*
X2000227Y1581803D02*
X2000729D01*
X2000127Y1581903D02*
X2000829D01*
X2000027Y1582003D02*
X2000929D01*
X1999927Y1582103D02*
X2001010D01*
X1999827Y1582203D02*
X2000910D01*
X1999727Y1582303D02*
X2000810D01*
X1999627Y1582403D02*
X2000710D01*
X1999527Y1582503D02*
X2000610D01*
X1999427Y1582603D02*
X2000510D01*
X1999327Y1582703D02*
X2000410D01*
X1999227Y1582803D02*
X2000310D01*
X1999127Y1582903D02*
X2000210D01*
X1999027Y1583003D02*
X2000110D01*
X1998927Y1583103D02*
X2000010D01*
X1998827Y1583203D02*
X1999910D01*
X1998752Y1583303D02*
X1999810D01*
X1998852Y1583403D02*
X1999710D01*
X1998952Y1583503D02*
X1999610D01*
X1999052Y1583603D02*
X1999510D01*
X1999152Y1583703D02*
X1999410D01*
X1999252Y1583803D02*
X1999310D01*
X1998804Y1583226D02*
Y1583355D01*
X1998904Y1583126D02*
Y1583455D01*
X1999004Y1583026D02*
Y1583555D01*
X1999104Y1582926D02*
Y1583655D01*
X1999204Y1582826D02*
Y1583755D01*
X1999304Y1582726D02*
Y1583810D01*
X1999404Y1582626D02*
Y1583710D01*
X1999504Y1582526D02*
Y1583610D01*
X1999604Y1582426D02*
Y1583510D01*
X1999704Y1582326D02*
Y1583410D01*
X1999804Y1582226D02*
Y1583310D01*
X1999904Y1582126D02*
Y1583210D01*
X2000004Y1582026D02*
Y1583110D01*
X2000104Y1581926D02*
Y1583010D01*
X2000204Y1581826D02*
Y1582910D01*
X2000304Y1581726D02*
Y1582810D01*
X2000404Y1581626D02*
Y1582710D01*
X2000504Y1581578D02*
Y1582610D01*
X2000604Y1581678D02*
Y1582510D01*
X2000704Y1581778D02*
Y1582410D01*
X2000804Y1581878D02*
Y1582310D01*
X2000904Y1581978D02*
Y1582210D01*
X2001004Y1582078D02*
Y1582110D01*
X2002133Y1583207D02*
X2000395Y1584946D01*
X1999853Y1584404*
X2001592Y1582666*
X2002133Y1583207*
X2001554Y1582703D02*
X2001629D01*
X2001454Y1582803D02*
X2001729D01*
X2001354Y1582903D02*
X2001829D01*
X2001254Y1583003D02*
X2001929D01*
X2001154Y1583103D02*
X2002029D01*
X2001054Y1583203D02*
X2002129D01*
X2000954Y1583303D02*
X2002038D01*
X2000854Y1583403D02*
X2001938D01*
X2000754Y1583503D02*
X2001838D01*
X2000654Y1583603D02*
X2001738D01*
X2000554Y1583703D02*
X2001638D01*
X2000454Y1583803D02*
X2001538D01*
X2000354Y1583903D02*
X2001438D01*
X2000254Y1584003D02*
X2001338D01*
X2000154Y1584103D02*
X2001238D01*
X2000054Y1584203D02*
X2001138D01*
X1999954Y1584303D02*
X2001038D01*
X1999854Y1584403D02*
X2000938D01*
X1999952Y1584503D02*
X2000838D01*
X2000052Y1584603D02*
X2000738D01*
X2000152Y1584703D02*
X2000638D01*
X2000252Y1584803D02*
X2000538D01*
X2000352Y1584903D02*
X2000438D01*
X1999904Y1584353D02*
Y1584455D01*
X2000004Y1584253D02*
Y1584555D01*
X2000104Y1584153D02*
Y1584655D01*
X2000204Y1584053D02*
Y1584755D01*
X2000304Y1583953D02*
Y1584855D01*
X2000404Y1583853D02*
Y1584937D01*
X2000504Y1583753D02*
Y1584837D01*
X2000604Y1583653D02*
Y1584737D01*
X2000704Y1583553D02*
Y1584637D01*
X2000804Y1583453D02*
Y1584537D01*
X2000904Y1583353D02*
Y1584437D01*
X2001004Y1583253D02*
Y1584337D01*
X2001104Y1583153D02*
Y1584237D01*
X2001204Y1583053D02*
Y1584137D01*
X2001304Y1582953D02*
Y1584037D01*
X2001404Y1582853D02*
Y1583937D01*
X2001504Y1582753D02*
Y1583837D01*
X2001604Y1582678D02*
Y1583737D01*
X2001704Y1582778D02*
Y1583637D01*
X2001804Y1582878D02*
Y1583537D01*
X2001904Y1582978D02*
Y1583437D01*
X2002004Y1583078D02*
Y1583337D01*
X2002104Y1583178D02*
Y1583237D01*
X2003247Y1584321D02*
X2001508Y1586060D01*
X2000966Y1585518*
X2002705Y1583779*
X2003247Y1584321*
X2002681Y1583803D02*
X2002729D01*
X2002581Y1583903D02*
X2002829D01*
X2002481Y1584003D02*
X2002929D01*
X2002381Y1584103D02*
X2003029D01*
X2002281Y1584203D02*
X2003129D01*
X2002181Y1584303D02*
X2003229D01*
X2002081Y1584403D02*
X2003165D01*
X2001981Y1584503D02*
X2003065D01*
X2001881Y1584603D02*
X2002965D01*
X2001781Y1584703D02*
X2002865D01*
X2001681Y1584803D02*
X2002765D01*
X2001581Y1584903D02*
X2002665D01*
X2001481Y1585003D02*
X2002565D01*
X2001381Y1585103D02*
X2002465D01*
X2001281Y1585203D02*
X2002365D01*
X2001181Y1585303D02*
X2002265D01*
X2001081Y1585403D02*
X2002165D01*
X2000981Y1585503D02*
X2002065D01*
X2001052Y1585603D02*
X2001965D01*
X2001152Y1585703D02*
X2001865D01*
X2001252Y1585803D02*
X2001765D01*
X2001352Y1585903D02*
X2001665D01*
X2001452Y1586003D02*
X2001565D01*
X2001004Y1585480D02*
Y1585555D01*
X2001104Y1585380D02*
Y1585655D01*
X2001204Y1585280D02*
Y1585755D01*
X2001304Y1585180D02*
Y1585855D01*
X2001404Y1585080D02*
Y1585955D01*
X2001504Y1584980D02*
Y1586055D01*
X2001604Y1584880D02*
Y1585964D01*
X2001704Y1584780D02*
Y1585864D01*
X2001804Y1584680D02*
Y1585764D01*
X2001904Y1584580D02*
Y1585664D01*
X2002004Y1584480D02*
Y1585564D01*
X2002104Y1584380D02*
Y1585464D01*
X2002204Y1584280D02*
Y1585364D01*
X2002304Y1584180D02*
Y1585264D01*
X2002404Y1584080D02*
Y1585164D01*
X2002504Y1583980D02*
Y1585064D01*
X2002604Y1583880D02*
Y1584964D01*
X2002704Y1583780D02*
Y1584864D01*
X2002804Y1583878D02*
Y1584764D01*
X2002904Y1583978D02*
Y1584664D01*
X2003004Y1584078D02*
Y1584564D01*
X2003104Y1584178D02*
Y1584464D01*
X2003204Y1584278D02*
Y1584364D01*
X2004361Y1585434D02*
X2002622Y1587173D01*
X2002080Y1586631*
X2003819Y1584893*
X2004361Y1585434*
X2003808Y1584903D02*
X2003829D01*
X2003708Y1585003D02*
X2003929D01*
X2003608Y1585103D02*
X2004029D01*
X2003508Y1585203D02*
X2004129D01*
X2003408Y1585303D02*
X2004229D01*
X2003308Y1585403D02*
X2004329D01*
X2003208Y1585503D02*
X2004292D01*
X2003108Y1585603D02*
X2004192D01*
X2003008Y1585703D02*
X2004092D01*
X2002908Y1585803D02*
X2003992D01*
X2002808Y1585903D02*
X2003892D01*
X2002708Y1586003D02*
X2003792D01*
X2002608Y1586103D02*
X2003692D01*
X2002508Y1586203D02*
X2003592D01*
X2002408Y1586303D02*
X2003492D01*
X2002308Y1586403D02*
X2003392D01*
X2002208Y1586503D02*
X2003292D01*
X2002108Y1586603D02*
X2003192D01*
X2002152Y1586703D02*
X2003092D01*
X2002252Y1586803D02*
X2002992D01*
X2002352Y1586903D02*
X2002892D01*
X2002452Y1587003D02*
X2002792D01*
X2002552Y1587103D02*
X2002692D01*
X2002104Y1586608D02*
Y1586655D01*
X2002204Y1586508D02*
Y1586755D01*
X2002304Y1586408D02*
Y1586855D01*
X2002404Y1586308D02*
Y1586955D01*
X2002504Y1586208D02*
Y1587055D01*
X2002604Y1586108D02*
Y1587155D01*
X2002704Y1586008D02*
Y1587091D01*
X2002804Y1585908D02*
Y1586991D01*
X2002904Y1585808D02*
Y1586891D01*
X2003004Y1585708D02*
Y1586791D01*
X2003104Y1585608D02*
Y1586691D01*
X2003204Y1585508D02*
Y1586591D01*
X2003304Y1585408D02*
Y1586491D01*
X2003404Y1585308D02*
Y1586391D01*
X2003504Y1585208D02*
Y1586291D01*
X2003604Y1585108D02*
Y1586191D01*
X2003704Y1585008D02*
Y1586091D01*
X2003804Y1584908D02*
Y1585991D01*
X2003904Y1584978D02*
Y1585891D01*
X2004004Y1585078D02*
Y1585791D01*
X2004104Y1585178D02*
Y1585691D01*
X2004204Y1585278D02*
Y1585591D01*
X2004304Y1585378D02*
Y1585491D01*
X2005474Y1586548D02*
X2003735Y1588287D01*
X2003194Y1587745*
X2004932Y1586006*
X2005474Y1586548*
X2004835Y1586103D02*
X2005029D01*
X2004735Y1586203D02*
X2005129D01*
X2004635Y1586303D02*
X2005229D01*
X2004535Y1586403D02*
X2005329D01*
X2004435Y1586503D02*
X2005429D01*
X2004335Y1586603D02*
X2005419D01*
X2004235Y1586703D02*
X2005319D01*
X2004135Y1586803D02*
X2005219D01*
X2004035Y1586903D02*
X2005119D01*
X2003935Y1587003D02*
X2005019D01*
X2003835Y1587103D02*
X2004919D01*
X2003735Y1587203D02*
X2004819D01*
X2003635Y1587303D02*
X2004719D01*
X2003535Y1587403D02*
X2004619D01*
X2003435Y1587503D02*
X2004519D01*
X2003335Y1587603D02*
X2004419D01*
X2003235Y1587703D02*
X2004319D01*
X2003252Y1587803D02*
X2004219D01*
X2003352Y1587903D02*
X2004119D01*
X2003452Y1588003D02*
X2004019D01*
X2003552Y1588103D02*
X2003919D01*
X2003652Y1588203D02*
X2003819D01*
X2003204Y1587735D02*
Y1587755D01*
X2003304Y1587635D02*
Y1587855D01*
X2003404Y1587535D02*
Y1587955D01*
X2003504Y1587435D02*
Y1588055D01*
X2003604Y1587335D02*
Y1588155D01*
X2003704Y1587235D02*
Y1588255D01*
X2003804Y1587135D02*
Y1588218D01*
X2003904Y1587035D02*
Y1588118D01*
X2004004Y1586935D02*
Y1588018D01*
X2004104Y1586835D02*
Y1587918D01*
X2004204Y1586735D02*
Y1587818D01*
X2004304Y1586635D02*
Y1587718D01*
X2004404Y1586535D02*
Y1587618D01*
X2004504Y1586435D02*
Y1587518D01*
X2004604Y1586335D02*
Y1587418D01*
X2004704Y1586235D02*
Y1587318D01*
X2004804Y1586135D02*
Y1587218D01*
X2004904Y1586035D02*
Y1587118D01*
X2005004Y1586078D02*
Y1587018D01*
X2005104Y1586178D02*
Y1586918D01*
X2005204Y1586278D02*
Y1586818D01*
X2005304Y1586378D02*
Y1586718D01*
X2005404Y1586478D02*
Y1586618D01*
X2006588Y1587661D02*
X2004849Y1589400D01*
X2004307Y1588859*
X2006046Y1587120*
X2006588Y1587661*
X2005963Y1587203D02*
X2006129D01*
X2005863Y1587303D02*
X2006229D01*
X2005763Y1587403D02*
X2006329D01*
X2005663Y1587503D02*
X2006429D01*
X2005563Y1587603D02*
X2006529D01*
X2005463Y1587703D02*
X2006546D01*
X2005363Y1587803D02*
X2006446D01*
X2005263Y1587903D02*
X2006346D01*
X2005163Y1588003D02*
X2006246D01*
X2005063Y1588103D02*
X2006146D01*
X2004963Y1588203D02*
X2006046D01*
X2004863Y1588303D02*
X2005946D01*
X2004763Y1588403D02*
X2005846D01*
X2004663Y1588503D02*
X2005746D01*
X2004563Y1588603D02*
X2005646D01*
X2004463Y1588703D02*
X2005546D01*
X2004363Y1588803D02*
X2005446D01*
X2004352Y1588903D02*
X2005346D01*
X2004452Y1589003D02*
X2005246D01*
X2004552Y1589103D02*
X2005146D01*
X2004652Y1589203D02*
X2005046D01*
X2004752Y1589303D02*
X2004946D01*
X2004404Y1588762D02*
Y1588955D01*
X2004504Y1588662D02*
Y1589055D01*
X2004604Y1588562D02*
Y1589155D01*
X2004704Y1588462D02*
Y1589255D01*
X2004804Y1588362D02*
Y1589355D01*
X2004904Y1588262D02*
Y1589345D01*
X2005004Y1588162D02*
Y1589245D01*
X2005104Y1588062D02*
Y1589145D01*
X2005204Y1587962D02*
Y1589045D01*
X2005304Y1587862D02*
Y1588945D01*
X2005404Y1587762D02*
Y1588845D01*
X2005504Y1587662D02*
Y1588745D01*
X2005604Y1587562D02*
Y1588645D01*
X2005704Y1587462D02*
Y1588545D01*
X2005804Y1587362D02*
Y1588445D01*
X2005904Y1587262D02*
Y1588345D01*
X2006004Y1587162D02*
Y1588245D01*
X2006104Y1587178D02*
Y1588145D01*
X2006204Y1587278D02*
Y1588045D01*
X2006304Y1587378D02*
Y1587945D01*
X2006404Y1587478D02*
Y1587845D01*
X2006504Y1587578D02*
Y1587745D01*
X2007701Y1588775D02*
X2005962Y1590514D01*
X2005421Y1589972*
X2007159Y1588233*
X2007159D02*
X2007701Y1588775D01*
X2007090Y1588303D02*
X2007229D01*
X2006990Y1588403D02*
X2007329D01*
X2006890Y1588503D02*
X2007429D01*
X2006790Y1588603D02*
X2007529D01*
X2006690Y1588703D02*
X2007629D01*
X2006590Y1588803D02*
X2007673D01*
X2006490Y1588903D02*
X2007573D01*
X2006390Y1589003D02*
X2007473D01*
X2006290Y1589103D02*
X2007373D01*
X2006190Y1589203D02*
X2007273D01*
X2006090Y1589303D02*
X2007173D01*
X2005990Y1589403D02*
X2007073D01*
X2005890Y1589503D02*
X2006973D01*
X2005790Y1589603D02*
X2006873D01*
X2005690Y1589703D02*
X2006773D01*
X2005590Y1589803D02*
X2006673D01*
X2005490Y1589903D02*
X2006573D01*
X2005452Y1590003D02*
X2006473D01*
X2005552Y1590103D02*
X2006373D01*
X2005652Y1590203D02*
X2006273D01*
X2005752Y1590303D02*
X2006173D01*
X2005852Y1590403D02*
X2006073D01*
X2005952Y1590503D02*
X2005973D01*
X2005504Y1589889D02*
Y1590055D01*
X2005604Y1589789D02*
Y1590155D01*
X2005704Y1589689D02*
Y1590255D01*
X2005804Y1589589D02*
Y1590355D01*
X2005904Y1589489D02*
Y1590455D01*
X2006004Y1589389D02*
Y1590472D01*
X2006104Y1589289D02*
Y1590372D01*
X2006204Y1589189D02*
Y1590272D01*
X2006304Y1589089D02*
Y1590172D01*
X2006404Y1588989D02*
Y1590072D01*
X2006504Y1588889D02*
Y1589972D01*
X2006604Y1588789D02*
Y1589872D01*
X2006704Y1588689D02*
Y1589772D01*
X2006804Y1588589D02*
Y1589672D01*
X2006904Y1588489D02*
Y1589572D01*
X2007004Y1588389D02*
Y1589472D01*
X2007104Y1588289D02*
Y1589372D01*
X2007204Y1588278D02*
Y1589272D01*
X2007304Y1588378D02*
Y1589172D01*
X2007404Y1588478D02*
Y1589072D01*
X2007504Y1588578D02*
Y1588972D01*
X2007604Y1588678D02*
Y1588872D01*
X2008815Y1589889D02*
X2007076Y1591627D01*
X2006534Y1591086*
X2008273Y1589347*
X2008815Y1589889*
X2008217Y1589403D02*
X2008329D01*
X2008117Y1589503D02*
X2008429D01*
X2008017Y1589603D02*
X2008529D01*
X2007917Y1589703D02*
X2008629D01*
X2007817Y1589803D02*
X2008729D01*
X2007717Y1589903D02*
X2008800D01*
X2007617Y1590003D02*
X2008700D01*
X2007517Y1590103D02*
X2008600D01*
X2007417Y1590203D02*
X2008500D01*
X2007317Y1590303D02*
X2008400D01*
X2007217Y1590403D02*
X2008300D01*
X2007117Y1590503D02*
X2008200D01*
X2007017Y1590603D02*
X2008100D01*
X2006917Y1590703D02*
X2008000D01*
X2006817Y1590803D02*
X2007900D01*
X2006717Y1590903D02*
X2007800D01*
X2006617Y1591003D02*
X2007700D01*
X2006552Y1591103D02*
X2007600D01*
X2006652Y1591203D02*
X2007500D01*
X2006752Y1591303D02*
X2007400D01*
X2006852Y1591403D02*
X2007300D01*
X2006952Y1591503D02*
X2007200D01*
X2007052Y1591603D02*
X2007100D01*
X2006604Y1591016D02*
Y1591155D01*
X2006704Y1590916D02*
Y1591255D01*
X2006804Y1590816D02*
Y1591355D01*
X2006904Y1590716D02*
Y1591455D01*
X2007004Y1590616D02*
Y1591555D01*
X2007104Y1590516D02*
Y1591599D01*
X2007204Y1590416D02*
Y1591499D01*
X2007304Y1590316D02*
Y1591399D01*
X2007404Y1590216D02*
Y1591299D01*
X2007504Y1590116D02*
Y1591199D01*
X2007604Y1590016D02*
Y1591099D01*
X2007704Y1589916D02*
Y1590999D01*
X2007804Y1589816D02*
Y1590899D01*
X2007904Y1589716D02*
Y1590799D01*
X2008004Y1589616D02*
Y1590699D01*
X2008104Y1589516D02*
Y1590599D01*
X2008204Y1589416D02*
Y1590499D01*
X2008304Y1589378D02*
Y1590399D01*
X2008404Y1589478D02*
Y1590299D01*
X2008504Y1589578D02*
Y1590199D01*
X2008604Y1589678D02*
Y1590099D01*
X2008704Y1589778D02*
Y1589999D01*
X2008804Y1589878D02*
Y1589899D01*
X2009928Y1591002D02*
X2008190Y1592741D01*
X2007648Y1592199*
X2009387Y1590460*
X2009928Y1591002*
X2009344Y1590503D02*
X2009429D01*
X2009244Y1590603D02*
X2009529D01*
X2009144Y1590703D02*
X2009629D01*
X2009044Y1590803D02*
X2009729D01*
X2008944Y1590903D02*
X2009829D01*
X2008844Y1591003D02*
X2009927D01*
X2008744Y1591103D02*
X2009827D01*
X2008644Y1591203D02*
X2009727D01*
X2008544Y1591303D02*
X2009627D01*
X2008444Y1591403D02*
X2009527D01*
X2008344Y1591503D02*
X2009427D01*
X2008244Y1591603D02*
X2009327D01*
X2008144Y1591703D02*
X2009227D01*
X2008044Y1591803D02*
X2009127D01*
X2007944Y1591903D02*
X2009027D01*
X2007844Y1592003D02*
X2008927D01*
X2007744Y1592103D02*
X2008827D01*
X2007652Y1592203D02*
X2008727D01*
X2007752Y1592303D02*
X2008627D01*
X2007852Y1592403D02*
X2008527D01*
X2007952Y1592503D02*
X2008427D01*
X2008052Y1592603D02*
X2008327D01*
X2008152Y1592703D02*
X2008227D01*
X2007704Y1592143D02*
Y1592255D01*
X2007804Y1592043D02*
Y1592355D01*
X2007904Y1591943D02*
Y1592455D01*
X2008004Y1591843D02*
Y1592555D01*
X2008104Y1591743D02*
Y1592655D01*
X2008204Y1591643D02*
Y1592727D01*
X2008304Y1591543D02*
Y1592627D01*
X2008404Y1591443D02*
Y1592527D01*
X2008504Y1591343D02*
Y1592427D01*
X2008604Y1591243D02*
Y1592327D01*
X2008704Y1591143D02*
Y1592227D01*
X2008804Y1591043D02*
Y1592127D01*
X2008904Y1590943D02*
Y1592027D01*
X2009004Y1590843D02*
Y1591927D01*
X2009104Y1590743D02*
Y1591827D01*
X2009204Y1590643D02*
Y1591727D01*
X2009304Y1590543D02*
Y1591627D01*
X2009404Y1590478D02*
Y1591527D01*
X2009504Y1590578D02*
Y1591427D01*
X2009604Y1590678D02*
Y1591327D01*
X2009704Y1590778D02*
Y1591227D01*
X2009804Y1590878D02*
Y1591127D01*
X2009904Y1590978D02*
Y1591027D01*
X2011042Y1592116D02*
X2009303Y1593855D01*
X2008761Y1593313*
X2010500Y1591574*
X2011042Y1592116*
X2010471Y1591603D02*
X2010529D01*
X2010371Y1591703D02*
X2010629D01*
X2010271Y1591803D02*
X2010729D01*
X2010171Y1591903D02*
X2010829D01*
X2010071Y1592003D02*
X2010929D01*
X2009971Y1592103D02*
X2011029D01*
X2009871Y1592203D02*
X2010954D01*
X2009771Y1592303D02*
X2010854D01*
X2009671Y1592403D02*
X2010754D01*
X2009571Y1592503D02*
X2010654D01*
X2009471Y1592603D02*
X2010554D01*
X2009371Y1592703D02*
X2010454D01*
X2009271Y1592803D02*
X2010354D01*
X2009171Y1592903D02*
X2010254D01*
X2009071Y1593003D02*
X2010154D01*
X2008971Y1593103D02*
X2010054D01*
X2008871Y1593203D02*
X2009954D01*
X2008771Y1593303D02*
X2009854D01*
X2008852Y1593403D02*
X2009754D01*
X2008952Y1593503D02*
X2009654D01*
X2009052Y1593603D02*
X2009554D01*
X2009152Y1593703D02*
X2009454D01*
X2009252Y1593803D02*
X2009354D01*
X2008804Y1593270D02*
Y1593355D01*
X2008904Y1593170D02*
Y1593455D01*
X2009004Y1593070D02*
Y1593555D01*
X2009104Y1592970D02*
Y1593655D01*
X2009204Y1592870D02*
Y1593755D01*
X2009304Y1592770D02*
Y1593854D01*
X2009404Y1592670D02*
Y1593754D01*
X2009504Y1592570D02*
Y1593654D01*
X2009604Y1592470D02*
Y1593554D01*
X2009704Y1592370D02*
Y1593454D01*
X2009804Y1592270D02*
Y1593354D01*
X2009904Y1592170D02*
Y1593254D01*
X2010004Y1592070D02*
Y1593154D01*
X2010104Y1591970D02*
Y1593054D01*
X2010204Y1591870D02*
Y1592954D01*
X2010304Y1591770D02*
Y1592854D01*
X2010404Y1591670D02*
Y1592754D01*
X2010504Y1591578D02*
Y1592654D01*
X2010604Y1591678D02*
Y1592554D01*
X2010704Y1591778D02*
Y1592454D01*
X2010804Y1591878D02*
Y1592354D01*
X2010904Y1591978D02*
Y1592254D01*
X2011004Y1592078D02*
Y1592154D01*
X2012155Y1593229D02*
X2010417Y1594968D01*
X2009875Y1594426*
X2011614Y1592688*
X2012155Y1593229*
X2011598Y1592703D02*
X2011629D01*
X2011498Y1592803D02*
X2011729D01*
X2011398Y1592903D02*
X2011829D01*
X2011298Y1593003D02*
X2011929D01*
X2011198Y1593103D02*
X2012029D01*
X2011098Y1593203D02*
X2012129D01*
X2010998Y1593303D02*
X2012082D01*
X2010898Y1593403D02*
X2011982D01*
X2010798Y1593503D02*
X2011882D01*
X2010698Y1593603D02*
X2011782D01*
X2010598Y1593703D02*
X2011682D01*
X2010498Y1593803D02*
X2011582D01*
X2010398Y1593903D02*
X2011482D01*
X2010298Y1594003D02*
X2011382D01*
X2010198Y1594103D02*
X2011282D01*
X2010098Y1594203D02*
X2011182D01*
X2009998Y1594303D02*
X2011082D01*
X2009898Y1594403D02*
X2010982D01*
X2009952Y1594503D02*
X2010882D01*
X2010052Y1594603D02*
X2010782D01*
X2010152Y1594703D02*
X2010682D01*
X2010252Y1594803D02*
X2010582D01*
X2010352Y1594903D02*
X2010482D01*
X2009904Y1594397D02*
Y1594455D01*
X2010004Y1594297D02*
Y1594555D01*
X2010104Y1594197D02*
Y1594655D01*
X2010204Y1594097D02*
Y1594755D01*
X2010304Y1593997D02*
Y1594855D01*
X2010404Y1593897D02*
Y1594955D01*
X2010504Y1593797D02*
Y1594881D01*
X2010604Y1593697D02*
Y1594781D01*
X2010704Y1593597D02*
Y1594681D01*
X2010804Y1593497D02*
Y1594581D01*
X2010904Y1593397D02*
Y1594481D01*
X2011004Y1593297D02*
Y1594381D01*
X2011104Y1593197D02*
Y1594281D01*
X2011204Y1593097D02*
Y1594181D01*
X2011304Y1592997D02*
Y1594081D01*
X2011404Y1592897D02*
Y1593981D01*
X2011504Y1592797D02*
Y1593881D01*
X2011604Y1592697D02*
Y1593781D01*
X2011704Y1592778D02*
Y1593681D01*
X2011804Y1592878D02*
Y1593581D01*
X2011904Y1592978D02*
Y1593481D01*
X2012004Y1593078D02*
Y1593381D01*
X2012104Y1593178D02*
Y1593281D01*
X2013269Y1594343D02*
X2011530Y1596082D01*
X2010988Y1595540*
X2012727Y1593801*
X2013269Y1594343*
X2012725Y1593803D02*
X2012729D01*
X2012625Y1593903D02*
X2012829D01*
X2012525Y1594003D02*
X2012929D01*
X2012425Y1594103D02*
X2013029D01*
X2012325Y1594203D02*
X2013129D01*
X2012225Y1594303D02*
X2013229D01*
X2012125Y1594403D02*
X2013209D01*
X2012025Y1594503D02*
X2013109D01*
X2011925Y1594603D02*
X2013009D01*
X2011825Y1594703D02*
X2012909D01*
X2011725Y1594803D02*
X2012809D01*
X2011625Y1594903D02*
X2012709D01*
X2011525Y1595003D02*
X2012609D01*
X2011425Y1595103D02*
X2012509D01*
X2011325Y1595203D02*
X2012409D01*
X2011225Y1595303D02*
X2012309D01*
X2011125Y1595403D02*
X2012209D01*
X2011025Y1595503D02*
X2012109D01*
X2011052Y1595603D02*
X2012009D01*
X2011152Y1595703D02*
X2011909D01*
X2011252Y1595803D02*
X2011809D01*
X2011352Y1595903D02*
X2011709D01*
X2011452Y1596003D02*
X2011609D01*
X2011004Y1595524D02*
Y1595555D01*
X2011104Y1595424D02*
Y1595655D01*
X2011204Y1595324D02*
Y1595755D01*
X2011304Y1595224D02*
Y1595855D01*
X2011404Y1595124D02*
Y1595955D01*
X2011504Y1595024D02*
Y1596055D01*
X2011604Y1594924D02*
Y1596008D01*
X2011704Y1594824D02*
Y1595908D01*
X2011804Y1594724D02*
Y1595808D01*
X2011904Y1594624D02*
Y1595708D01*
X2012004Y1594524D02*
Y1595608D01*
X2012104Y1594424D02*
Y1595508D01*
X2012204Y1594324D02*
Y1595408D01*
X2012304Y1594224D02*
Y1595308D01*
X2012404Y1594124D02*
Y1595208D01*
X2012504Y1594024D02*
Y1595108D01*
X2012604Y1593924D02*
Y1595008D01*
X2012704Y1593824D02*
Y1594908D01*
X2012804Y1593878D02*
Y1594808D01*
X2012904Y1593978D02*
Y1594708D01*
X2013004Y1594078D02*
Y1594608D01*
X2013104Y1594178D02*
Y1594508D01*
X2013204Y1594278D02*
Y1594408D01*
X2014383Y1595456D02*
X2012644Y1597195D01*
X2012102Y1596653*
X2013841Y1594915*
X2014383Y1595456*
X2013752Y1595003D02*
X2013929D01*
X2013652Y1595103D02*
X2014029D01*
X2013552Y1595203D02*
X2014129D01*
X2013452Y1595303D02*
X2014229D01*
X2013352Y1595403D02*
X2014329D01*
X2013252Y1595503D02*
X2014336D01*
X2013152Y1595603D02*
X2014236D01*
X2013052Y1595703D02*
X2014136D01*
X2012952Y1595803D02*
X2014036D01*
X2012852Y1595903D02*
X2013936D01*
X2012752Y1596003D02*
X2013836D01*
X2012652Y1596103D02*
X2013736D01*
X2012552Y1596203D02*
X2013636D01*
X2012452Y1596303D02*
X2013536D01*
X2012352Y1596403D02*
X2013436D01*
X2012252Y1596503D02*
X2013336D01*
X2012152Y1596603D02*
X2013236D01*
X2012152Y1596703D02*
X2013136D01*
X2012252Y1596803D02*
X2013036D01*
X2012352Y1596903D02*
X2012936D01*
X2012452Y1597003D02*
X2012836D01*
X2012552Y1597103D02*
X2012736D01*
X2012104Y1596651D02*
Y1596655D01*
X2012204Y1596551D02*
Y1596755D01*
X2012304Y1596451D02*
Y1596855D01*
X2012404Y1596351D02*
Y1596955D01*
X2012504Y1596251D02*
Y1597055D01*
X2012604Y1596151D02*
Y1597155D01*
X2012704Y1596051D02*
Y1597135D01*
X2012804Y1595951D02*
Y1597035D01*
X2012904Y1595851D02*
Y1596935D01*
X2013004Y1595751D02*
Y1596835D01*
X2013104Y1595651D02*
Y1596735D01*
X2013204Y1595551D02*
Y1596635D01*
X2013304Y1595451D02*
Y1596535D01*
X2013404Y1595351D02*
Y1596435D01*
X2013504Y1595251D02*
Y1596335D01*
X2013604Y1595151D02*
Y1596235D01*
X2013704Y1595051D02*
Y1596135D01*
X2013804Y1594951D02*
Y1596035D01*
X2013904Y1594978D02*
Y1595935D01*
X2014004Y1595078D02*
Y1595835D01*
X2014104Y1595178D02*
Y1595735D01*
X2014204Y1595278D02*
Y1595635D01*
X2014304Y1595378D02*
Y1595535D01*
X2015496Y1596570D02*
X2013757Y1598309D01*
X2013216Y1597767*
X2014954Y1596028*
X2015496Y1596570*
X2014879Y1596103D02*
X2015029D01*
X2014779Y1596203D02*
X2015129D01*
X2014679Y1596303D02*
X2015229D01*
X2014579Y1596403D02*
X2015329D01*
X2014479Y1596503D02*
X2015429D01*
X2014379Y1596603D02*
X2015463D01*
X2014279Y1596703D02*
X2015363D01*
X2014179Y1596803D02*
X2015263D01*
X2014079Y1596903D02*
X2015163D01*
X2013979Y1597003D02*
X2015063D01*
X2013879Y1597103D02*
X2014963D01*
X2013779Y1597203D02*
X2014863D01*
X2013679Y1597303D02*
X2014763D01*
X2013579Y1597403D02*
X2014663D01*
X2013479Y1597503D02*
X2014563D01*
X2013379Y1597603D02*
X2014463D01*
X2013279Y1597703D02*
X2014363D01*
X2013252Y1597803D02*
X2014263D01*
X2013352Y1597903D02*
X2014163D01*
X2013452Y1598003D02*
X2014063D01*
X2013552Y1598103D02*
X2013963D01*
X2013652Y1598203D02*
X2013863D01*
X2013752Y1598303D02*
X2013763D01*
X2013304Y1597679D02*
Y1597855D01*
X2013404Y1597579D02*
Y1597955D01*
X2013504Y1597479D02*
Y1598055D01*
X2013604Y1597379D02*
Y1598155D01*
X2013704Y1597279D02*
Y1598255D01*
X2013804Y1597179D02*
Y1598262D01*
X2013904Y1597079D02*
Y1598162D01*
X2014004Y1596979D02*
Y1598062D01*
X2014104Y1596879D02*
Y1597962D01*
X2014204Y1596779D02*
Y1597862D01*
X2014304Y1596679D02*
Y1597762D01*
X2014404Y1596579D02*
Y1597662D01*
X2014504Y1596479D02*
Y1597562D01*
X2014604Y1596379D02*
Y1597462D01*
X2014704Y1596279D02*
Y1597362D01*
X2014804Y1596179D02*
Y1597262D01*
X2014904Y1596079D02*
Y1597162D01*
X2015004Y1596078D02*
Y1597062D01*
X2015104Y1596178D02*
Y1596962D01*
X2015204Y1596278D02*
Y1596862D01*
X2015304Y1596378D02*
Y1596762D01*
X2015404Y1596478D02*
Y1596662D01*
X2014954Y1602902D02*
X2013216Y1601163D01*
X2013757Y1600622*
X2015496Y1602360*
X2014954Y1602902*
X2013676Y1600703D02*
X2013839D01*
X2013576Y1600803D02*
X2013939D01*
X2013476Y1600903D02*
X2014039D01*
X2013376Y1601003D02*
X2014139D01*
X2013276Y1601103D02*
X2014239D01*
X2013255Y1601203D02*
X2014339D01*
X2013355Y1601303D02*
X2014439D01*
X2013455Y1601403D02*
X2014539D01*
X2013555Y1601503D02*
X2014639D01*
X2013655Y1601603D02*
X2014739D01*
X2013755Y1601703D02*
X2014839D01*
X2013855Y1601803D02*
X2014939D01*
X2013955Y1601903D02*
X2015039D01*
X2014055Y1602003D02*
X2015139D01*
X2014155Y1602103D02*
X2015239D01*
X2014255Y1602203D02*
X2015339D01*
X2014355Y1602303D02*
X2015439D01*
X2014455Y1602403D02*
X2015453D01*
X2014555Y1602503D02*
X2015353D01*
X2014655Y1602603D02*
X2015253D01*
X2014755Y1602703D02*
X2015153D01*
X2014855Y1602803D02*
X2015053D01*
X2013304Y1601075D02*
Y1601252D01*
X2013404Y1600975D02*
Y1601352D01*
X2013504Y1600875D02*
Y1601452D01*
X2013604Y1600775D02*
Y1601552D01*
X2013704Y1600675D02*
Y1601652D01*
X2013804Y1600668D02*
Y1601752D01*
X2013904Y1600768D02*
Y1601852D01*
X2014004Y1600868D02*
Y1601952D01*
X2014104Y1600968D02*
Y1602052D01*
X2014204Y1601068D02*
Y1602152D01*
X2014304Y1601168D02*
Y1602252D01*
X2014404Y1601268D02*
Y1602352D01*
X2014504Y1601368D02*
Y1602452D01*
X2014604Y1601468D02*
Y1602552D01*
X2014704Y1601568D02*
Y1602652D01*
X2014804Y1601668D02*
Y1602752D01*
X2014904Y1601768D02*
Y1602852D01*
X2015004Y1601868D02*
Y1602853D01*
X2015104Y1601968D02*
Y1602753D01*
X2015204Y1602068D02*
Y1602653D01*
X2015304Y1602168D02*
Y1602553D01*
X2015404Y1602268D02*
Y1602453D01*
X2013841Y1604016D02*
X2012102Y1602277D01*
X2012644Y1601735*
X2014383Y1603474*
X2013841Y1604016*
X2012576Y1601803D02*
X2012712D01*
X2012476Y1601903D02*
X2012812D01*
X2012376Y1602003D02*
X2012912D01*
X2012276Y1602103D02*
X2013012D01*
X2012176Y1602203D02*
X2013112D01*
X2012128Y1602303D02*
X2013212D01*
X2012228Y1602403D02*
X2013312D01*
X2012328Y1602503D02*
X2013412D01*
X2012428Y1602603D02*
X2013512D01*
X2012528Y1602703D02*
X2013612D01*
X2012628Y1602803D02*
X2013712D01*
X2012728Y1602903D02*
X2013812D01*
X2012828Y1603003D02*
X2013912D01*
X2012928Y1603103D02*
X2014012D01*
X2013028Y1603203D02*
X2014112D01*
X2013128Y1603303D02*
X2014212D01*
X2013228Y1603403D02*
X2014312D01*
X2013328Y1603503D02*
X2014353D01*
X2013428Y1603603D02*
X2014253D01*
X2013528Y1603703D02*
X2014153D01*
X2013628Y1603803D02*
X2014053D01*
X2013728Y1603903D02*
X2013953D01*
X2013828Y1604003D02*
X2013853D01*
X2012104Y1602275D02*
Y1602279D01*
X2012204Y1602175D02*
Y1602379D01*
X2012304Y1602075D02*
Y1602479D01*
X2012404Y1601975D02*
Y1602579D01*
X2012504Y1601875D02*
Y1602679D01*
X2012604Y1601775D02*
Y1602779D01*
X2012704Y1601795D02*
Y1602879D01*
X2012804Y1601895D02*
Y1602979D01*
X2012904Y1601995D02*
Y1603079D01*
X2013004Y1602095D02*
Y1603179D01*
X2013104Y1602195D02*
Y1603279D01*
X2013204Y1602295D02*
Y1603379D01*
X2013304Y1602395D02*
Y1603479D01*
X2013404Y1602495D02*
Y1603579D01*
X2013504Y1602595D02*
Y1603679D01*
X2013604Y1602695D02*
Y1603779D01*
X2013704Y1602795D02*
Y1603879D01*
X2013804Y1602895D02*
Y1603979D01*
X2013904Y1602995D02*
Y1603953D01*
X2014004Y1603095D02*
Y1603853D01*
X2014104Y1603195D02*
Y1603753D01*
X2014204Y1603295D02*
Y1603653D01*
X2014304Y1603395D02*
Y1603553D01*
X2012727Y1605129D02*
X2010988Y1603390D01*
X2011530Y1602849*
X2013269Y1604587*
X2012727Y1605129*
X2011476Y1602903D02*
X2011585D01*
X2011376Y1603003D02*
X2011685D01*
X2011276Y1603103D02*
X2011785D01*
X2011176Y1603203D02*
X2011885D01*
X2011076Y1603303D02*
X2011985D01*
X2011001Y1603403D02*
X2012085D01*
X2011101Y1603503D02*
X2012185D01*
X2011201Y1603603D02*
X2012285D01*
X2011301Y1603703D02*
X2012385D01*
X2011401Y1603803D02*
X2012485D01*
X2011501Y1603903D02*
X2012585D01*
X2011601Y1604003D02*
X2012685D01*
X2011701Y1604103D02*
X2012785D01*
X2011801Y1604203D02*
X2012885D01*
X2011901Y1604303D02*
X2012985D01*
X2012001Y1604403D02*
X2013085D01*
X2012101Y1604503D02*
X2013185D01*
X2012201Y1604603D02*
X2013253D01*
X2012301Y1604703D02*
X2013153D01*
X2012401Y1604803D02*
X2013053D01*
X2012501Y1604903D02*
X2012953D01*
X2012601Y1605003D02*
X2012853D01*
X2012701Y1605103D02*
X2012753D01*
X2011004Y1603375D02*
Y1603406D01*
X2011104Y1603275D02*
Y1603506D01*
X2011204Y1603175D02*
Y1603606D01*
X2011304Y1603075D02*
Y1603706D01*
X2011404Y1602975D02*
Y1603806D01*
X2011504Y1602875D02*
Y1603906D01*
X2011604Y1602922D02*
Y1604006D01*
X2011704Y1603022D02*
Y1604106D01*
X2011804Y1603122D02*
Y1604206D01*
X2011904Y1603222D02*
Y1604306D01*
X2012004Y1603322D02*
Y1604406D01*
X2012104Y1603422D02*
Y1604506D01*
X2012204Y1603522D02*
Y1604606D01*
X2012304Y1603622D02*
Y1604706D01*
X2012404Y1603722D02*
Y1604806D01*
X2012504Y1603822D02*
Y1604906D01*
X2012604Y1603922D02*
Y1605006D01*
X2012704Y1604022D02*
Y1605106D01*
X2012804Y1604122D02*
Y1605053D01*
X2012904Y1604222D02*
Y1604953D01*
X2013004Y1604322D02*
Y1604853D01*
X2013104Y1604422D02*
Y1604753D01*
X2013204Y1604522D02*
Y1604653D01*
X2011614Y1606243D02*
X2009875Y1604504D01*
X2010417Y1603962*
X2012155Y1605701*
X2011614Y1606243*
X2010376Y1604003D02*
X2010458D01*
X2010276Y1604103D02*
X2010558D01*
X2010176Y1604203D02*
X2010658D01*
X2010076Y1604303D02*
X2010758D01*
X2009976Y1604403D02*
X2010858D01*
X2009876Y1604503D02*
X2010958D01*
X2009974Y1604603D02*
X2011058D01*
X2010074Y1604703D02*
X2011158D01*
X2010174Y1604803D02*
X2011258D01*
X2010274Y1604903D02*
X2011358D01*
X2010374Y1605003D02*
X2011458D01*
X2010474Y1605103D02*
X2011558D01*
X2010574Y1605203D02*
X2011658D01*
X2010674Y1605303D02*
X2011758D01*
X2010774Y1605403D02*
X2011858D01*
X2010874Y1605503D02*
X2011958D01*
X2010974Y1605603D02*
X2012058D01*
X2011074Y1605703D02*
X2012153D01*
X2011174Y1605803D02*
X2012053D01*
X2011274Y1605903D02*
X2011953D01*
X2011374Y1606003D02*
X2011853D01*
X2011474Y1606103D02*
X2011753D01*
X2011574Y1606203D02*
X2011653D01*
X2009904Y1604475D02*
Y1604533D01*
X2010004Y1604375D02*
Y1604633D01*
X2010104Y1604275D02*
Y1604733D01*
X2010204Y1604175D02*
Y1604833D01*
X2010304Y1604075D02*
Y1604933D01*
X2010404Y1603975D02*
Y1605033D01*
X2010504Y1604050D02*
Y1605133D01*
X2010604Y1604150D02*
Y1605233D01*
X2010704Y1604250D02*
Y1605333D01*
X2010804Y1604350D02*
Y1605433D01*
X2010904Y1604450D02*
Y1605533D01*
X2011004Y1604550D02*
Y1605633D01*
X2011104Y1604650D02*
Y1605733D01*
X2011204Y1604750D02*
Y1605833D01*
X2011304Y1604850D02*
Y1605933D01*
X2011404Y1604950D02*
Y1606033D01*
X2011504Y1605050D02*
Y1606133D01*
X2011604Y1605150D02*
Y1606233D01*
X2011704Y1605250D02*
Y1606153D01*
X2011804Y1605350D02*
Y1606053D01*
X2011904Y1605450D02*
Y1605953D01*
X2012004Y1605550D02*
Y1605853D01*
X2012104Y1605650D02*
Y1605753D01*
X2010500Y1607356D02*
X2008761Y1605618D01*
X2009303Y1605076*
X2011042Y1606815*
X2010500Y1607356*
X2009276Y1605103D02*
X2009330D01*
X2009176Y1605203D02*
X2009430D01*
X2009076Y1605303D02*
X2009530D01*
X2008976Y1605403D02*
X2009630D01*
X2008876Y1605503D02*
X2009730D01*
X2008776Y1605603D02*
X2009830D01*
X2008847Y1605703D02*
X2009930D01*
X2008947Y1605803D02*
X2010030D01*
X2009047Y1605903D02*
X2010130D01*
X2009147Y1606003D02*
X2010230D01*
X2009247Y1606103D02*
X2010330D01*
X2009347Y1606203D02*
X2010430D01*
X2009447Y1606303D02*
X2010530D01*
X2009547Y1606403D02*
X2010630D01*
X2009647Y1606503D02*
X2010730D01*
X2009747Y1606603D02*
X2010830D01*
X2009847Y1606703D02*
X2010930D01*
X2009947Y1606803D02*
X2011030D01*
X2010047Y1606903D02*
X2010953D01*
X2010147Y1607003D02*
X2010853D01*
X2010247Y1607103D02*
X2010753D01*
X2010347Y1607203D02*
X2010653D01*
X2010447Y1607303D02*
X2010553D01*
X2008804Y1605575D02*
Y1605660D01*
X2008904Y1605475D02*
Y1605760D01*
X2009004Y1605375D02*
Y1605860D01*
X2009104Y1605275D02*
Y1605960D01*
X2009204Y1605175D02*
Y1606060D01*
X2009304Y1605077D02*
Y1606160D01*
X2009404Y1605177D02*
Y1606260D01*
X2009504Y1605277D02*
Y1606360D01*
X2009604Y1605377D02*
Y1606460D01*
X2009704Y1605477D02*
Y1606560D01*
X2009804Y1605577D02*
Y1606660D01*
X2009904Y1605677D02*
Y1606760D01*
X2010004Y1605777D02*
Y1606860D01*
X2010104Y1605877D02*
Y1606960D01*
X2010204Y1605977D02*
Y1607060D01*
X2010304Y1606077D02*
Y1607160D01*
X2010404Y1606177D02*
Y1607260D01*
X2010504Y1606277D02*
Y1607353D01*
X2010604Y1606377D02*
Y1607253D01*
X2010704Y1606477D02*
Y1607153D01*
X2010804Y1606577D02*
Y1607053D01*
X2010904Y1606677D02*
Y1606953D01*
X2011004Y1606777D02*
Y1606853D01*
X2009387Y1608470D02*
X2007648Y1606731D01*
X2008190Y1606189*
X2009928Y1607928*
X2009387Y1608470*
X2008176Y1606203D02*
X2008203D01*
X2008076Y1606303D02*
X2008303D01*
X2007976Y1606403D02*
X2008403D01*
X2007876Y1606503D02*
X2008503D01*
X2007776Y1606603D02*
X2008603D01*
X2007676Y1606703D02*
X2008703D01*
X2007720Y1606803D02*
X2008803D01*
X2007820Y1606903D02*
X2008903D01*
X2007920Y1607003D02*
X2009003D01*
X2008020Y1607103D02*
X2009103D01*
X2008120Y1607203D02*
X2009203D01*
X2008220Y1607303D02*
X2009303D01*
X2008320Y1607403D02*
X2009403D01*
X2008420Y1607503D02*
X2009503D01*
X2008520Y1607603D02*
X2009603D01*
X2008620Y1607703D02*
X2009703D01*
X2008720Y1607803D02*
X2009803D01*
X2008820Y1607903D02*
X2009903D01*
X2008920Y1608003D02*
X2009853D01*
X2009020Y1608103D02*
X2009753D01*
X2009120Y1608203D02*
X2009653D01*
X2009220Y1608303D02*
X2009553D01*
X2009320Y1608403D02*
X2009453D01*
X2007704Y1606675D02*
Y1606787D01*
X2007804Y1606575D02*
Y1606887D01*
X2007904Y1606475D02*
Y1606987D01*
X2008004Y1606375D02*
Y1607087D01*
X2008104Y1606275D02*
Y1607187D01*
X2008204Y1606204D02*
Y1607287D01*
X2008304Y1606304D02*
Y1607387D01*
X2008404Y1606404D02*
Y1607487D01*
X2008504Y1606504D02*
Y1607587D01*
X2008604Y1606604D02*
Y1607687D01*
X2008704Y1606704D02*
Y1607787D01*
X2008804Y1606804D02*
Y1607887D01*
X2008904Y1606904D02*
Y1607987D01*
X2009004Y1607004D02*
Y1608087D01*
X2009104Y1607104D02*
Y1608187D01*
X2009204Y1607204D02*
Y1608287D01*
X2009304Y1607304D02*
Y1608387D01*
X2009404Y1607404D02*
Y1608453D01*
X2009504Y1607504D02*
Y1608353D01*
X2009604Y1607604D02*
Y1608253D01*
X2009704Y1607704D02*
Y1608153D01*
X2009804Y1607804D02*
Y1608053D01*
X2009904Y1607904D02*
Y1607953D01*
X2008273Y1609583D02*
X2006534Y1607845D01*
X2007076Y1607303*
X2008815Y1609042*
X2008273Y1609583*
X2007076Y1607303D02*
X2007076D01*
X2006976Y1607403D02*
X2007176D01*
X2006876Y1607503D02*
X2007276D01*
X2006776Y1607603D02*
X2007376D01*
X2006676Y1607703D02*
X2007476D01*
X2006576Y1607803D02*
X2007576D01*
X2006593Y1607903D02*
X2007676D01*
X2006693Y1608003D02*
X2007776D01*
X2006793Y1608103D02*
X2007876D01*
X2006893Y1608203D02*
X2007976D01*
X2006993Y1608303D02*
X2008076D01*
X2007093Y1608403D02*
X2008176D01*
X2007193Y1608503D02*
X2008276D01*
X2007293Y1608603D02*
X2008376D01*
X2007393Y1608703D02*
X2008476D01*
X2007493Y1608803D02*
X2008576D01*
X2007593Y1608903D02*
X2008676D01*
X2007693Y1609003D02*
X2008776D01*
X2007793Y1609103D02*
X2008753D01*
X2007893Y1609203D02*
X2008653D01*
X2007993Y1609303D02*
X2008553D01*
X2008093Y1609403D02*
X2008453D01*
X2008193Y1609503D02*
X2008353D01*
X2006604Y1607775D02*
Y1607914D01*
X2006704Y1607675D02*
Y1608014D01*
X2006804Y1607575D02*
Y1608114D01*
X2006904Y1607475D02*
Y1608214D01*
X2007004Y1607375D02*
Y1608314D01*
X2007104Y1607331D02*
Y1608414D01*
X2007204Y1607431D02*
Y1608514D01*
X2007304Y1607531D02*
Y1608614D01*
X2007404Y1607631D02*
Y1608714D01*
X2007504Y1607731D02*
Y1608814D01*
X2007604Y1607831D02*
Y1608914D01*
X2007704Y1607931D02*
Y1609014D01*
X2007804Y1608031D02*
Y1609114D01*
X2007904Y1608131D02*
Y1609214D01*
X2008004Y1608231D02*
Y1609314D01*
X2008104Y1608331D02*
Y1609414D01*
X2008204Y1608431D02*
Y1609514D01*
X2008304Y1608531D02*
Y1609553D01*
X2008404Y1608631D02*
Y1609453D01*
X2008504Y1608731D02*
Y1609353D01*
X2008604Y1608831D02*
Y1609253D01*
X2008704Y1608931D02*
Y1609153D01*
X2008804Y1609031D02*
Y1609053D01*
X2007159Y1610697D02*
X2005421Y1608958D01*
X2005962Y1608416*
X2007701Y1610155*
X2007159Y1610697*
X2005876Y1608503D02*
X2006049D01*
X2005776Y1608603D02*
X2006149D01*
X2005676Y1608703D02*
X2006249D01*
X2005576Y1608803D02*
X2006349D01*
X2005476Y1608903D02*
X2006449D01*
X2005466Y1609003D02*
X2006549D01*
X2005566Y1609103D02*
X2006649D01*
X2005666Y1609203D02*
X2006749D01*
X2005766Y1609303D02*
X2006849D01*
X2005866Y1609403D02*
X2006949D01*
X2005966Y1609503D02*
X2007049D01*
X2006066Y1609603D02*
X2007149D01*
X2006166Y1609703D02*
X2007249D01*
X2006266Y1609803D02*
X2007349D01*
X2006366Y1609903D02*
X2007449D01*
X2006466Y1610003D02*
X2007549D01*
X2006566Y1610103D02*
X2007649D01*
X2006666Y1610203D02*
X2007653D01*
X2006766Y1610303D02*
X2007553D01*
X2006866Y1610403D02*
X2007453D01*
X2006966Y1610503D02*
X2007353D01*
X2007066Y1610603D02*
X2007253D01*
X2005504Y1608875D02*
Y1609041D01*
X2005604Y1608775D02*
Y1609141D01*
X2005704Y1608675D02*
Y1609241D01*
X2005804Y1608575D02*
Y1609341D01*
X2005904Y1608475D02*
Y1609441D01*
X2006004Y1608458D02*
Y1609541D01*
X2006104Y1608558D02*
Y1609641D01*
X2006204Y1608658D02*
Y1609741D01*
X2006304Y1608758D02*
Y1609841D01*
X2006404Y1608858D02*
Y1609941D01*
X2006504Y1608958D02*
Y1610041D01*
X2006604Y1609058D02*
Y1610141D01*
X2006704Y1609158D02*
Y1610241D01*
X2006804Y1609258D02*
Y1610341D01*
X2006904Y1609358D02*
Y1610441D01*
X2007004Y1609458D02*
Y1610541D01*
X2007104Y1609558D02*
Y1610641D01*
X2007204Y1609658D02*
Y1610653D01*
X2007304Y1609758D02*
Y1610553D01*
X2007404Y1609858D02*
Y1610453D01*
X2007504Y1609958D02*
Y1610353D01*
X2007604Y1610058D02*
Y1610253D01*
X2006046Y1611811D02*
X2004307Y1610072D01*
X2004849Y1609530*
X2006588Y1611269*
X2006046Y1611811*
X2004776Y1609603D02*
X2004922D01*
X2004676Y1609703D02*
X2005022D01*
X2004576Y1609803D02*
X2005122D01*
X2004476Y1609903D02*
X2005222D01*
X2004376Y1610003D02*
X2005322D01*
X2004339Y1610103D02*
X2005422D01*
X2004439Y1610203D02*
X2005522D01*
X2004539Y1610303D02*
X2005622D01*
X2004639Y1610403D02*
X2005722D01*
X2004739Y1610503D02*
X2005822D01*
X2004839Y1610603D02*
X2005922D01*
X2004939Y1610703D02*
X2006022D01*
X2005039Y1610803D02*
X2006122D01*
X2005139Y1610903D02*
X2006222D01*
X2005239Y1611003D02*
X2006322D01*
X2005339Y1611103D02*
X2006422D01*
X2005439Y1611203D02*
X2006522D01*
X2005539Y1611303D02*
X2006553D01*
X2005639Y1611403D02*
X2006453D01*
X2005739Y1611503D02*
X2006353D01*
X2005839Y1611603D02*
X2006253D01*
X2005939Y1611703D02*
X2006153D01*
X2006039Y1611803D02*
X2006053D01*
X2004404Y1609975D02*
Y1610169D01*
X2004504Y1609875D02*
Y1610269D01*
X2004604Y1609775D02*
Y1610369D01*
X2004704Y1609675D02*
Y1610469D01*
X2004804Y1609575D02*
Y1610569D01*
X2004904Y1609585D02*
Y1610669D01*
X2005004Y1609685D02*
Y1610769D01*
X2005104Y1609785D02*
Y1610869D01*
X2005204Y1609885D02*
Y1610969D01*
X2005304Y1609985D02*
Y1611069D01*
X2005404Y1610085D02*
Y1611169D01*
X2005504Y1610185D02*
Y1611269D01*
X2005604Y1610285D02*
Y1611369D01*
X2005704Y1610385D02*
Y1611469D01*
X2005804Y1610485D02*
Y1611569D01*
X2005904Y1610585D02*
Y1611669D01*
X2006004Y1610685D02*
Y1611769D01*
X2006104Y1610785D02*
Y1611753D01*
X2006204Y1610885D02*
Y1611653D01*
X2006304Y1610985D02*
Y1611553D01*
X2006404Y1611085D02*
Y1611453D01*
X2006504Y1611185D02*
Y1611353D01*
X2004932Y1612924D02*
X2003194Y1611185D01*
X2003735Y1610644*
X2005474Y1612382*
X2004932Y1612924*
X2003676Y1610703D02*
X2003795D01*
X2003576Y1610803D02*
X2003895D01*
X2003476Y1610903D02*
X2003995D01*
X2003376Y1611003D02*
X2004095D01*
X2003276Y1611103D02*
X2004195D01*
X2003211Y1611203D02*
X2004295D01*
X2003311Y1611303D02*
X2004395D01*
X2003411Y1611403D02*
X2004495D01*
X2003511Y1611503D02*
X2004595D01*
X2003611Y1611603D02*
X2004695D01*
X2003711Y1611703D02*
X2004795D01*
X2003811Y1611803D02*
X2004895D01*
X2003911Y1611903D02*
X2004995D01*
X2004011Y1612003D02*
X2005095D01*
X2004111Y1612103D02*
X2005195D01*
X2004211Y1612203D02*
X2005295D01*
X2004311Y1612303D02*
X2005395D01*
X2004411Y1612403D02*
X2005453D01*
X2004511Y1612503D02*
X2005353D01*
X2004611Y1612603D02*
X2005253D01*
X2004711Y1612703D02*
X2005153D01*
X2004811Y1612803D02*
X2005053D01*
X2004911Y1612903D02*
X2004953D01*
X2003204Y1611175D02*
Y1611196D01*
X2003304Y1611075D02*
Y1611296D01*
X2003404Y1610975D02*
Y1611396D01*
X2003504Y1610875D02*
Y1611496D01*
X2003604Y1610775D02*
Y1611596D01*
X2003704Y1610675D02*
Y1611696D01*
X2003804Y1610712D02*
Y1611796D01*
X2003904Y1610812D02*
Y1611896D01*
X2004004Y1610912D02*
Y1611996D01*
X2004104Y1611012D02*
Y1612096D01*
X2004204Y1611112D02*
Y1612196D01*
X2004304Y1611212D02*
Y1612296D01*
X2004404Y1611312D02*
Y1612396D01*
X2004504Y1611412D02*
Y1612496D01*
X2004604Y1611512D02*
Y1612596D01*
X2004704Y1611612D02*
Y1612696D01*
X2004804Y1611712D02*
Y1612796D01*
X2004904Y1611812D02*
Y1612896D01*
X2005004Y1611912D02*
Y1612853D01*
X2005104Y1612012D02*
Y1612753D01*
X2005204Y1612112D02*
Y1612653D01*
X2005304Y1612212D02*
Y1612553D01*
X2005404Y1612312D02*
Y1612453D01*
X2003819Y1614038D02*
X2002080Y1612299D01*
X2002622Y1611757*
X2004361Y1613496*
X2003819Y1614038*
X2002576Y1611803D02*
X2002668D01*
X2002476Y1611903D02*
X2002768D01*
X2002376Y1612003D02*
X2002868D01*
X2002276Y1612103D02*
X2002968D01*
X2002176Y1612203D02*
X2003068D01*
X2002084Y1612303D02*
X2003168D01*
X2002184Y1612403D02*
X2003268D01*
X2002284Y1612503D02*
X2003368D01*
X2002384Y1612603D02*
X2003468D01*
X2002484Y1612703D02*
X2003568D01*
X2002584Y1612803D02*
X2003668D01*
X2002684Y1612903D02*
X2003768D01*
X2002784Y1613003D02*
X2003868D01*
X2002884Y1613103D02*
X2003968D01*
X2002984Y1613203D02*
X2004068D01*
X2003084Y1613303D02*
X2004168D01*
X2003184Y1613403D02*
X2004268D01*
X2003284Y1613503D02*
X2004353D01*
X2003384Y1613603D02*
X2004253D01*
X2003484Y1613703D02*
X2004153D01*
X2003584Y1613803D02*
X2004053D01*
X2003684Y1613903D02*
X2003953D01*
X2003784Y1614003D02*
X2003853D01*
X2002104Y1612275D02*
Y1612323D01*
X2002204Y1612175D02*
Y1612423D01*
X2002304Y1612075D02*
Y1612523D01*
X2002404Y1611975D02*
Y1612623D01*
X2002504Y1611875D02*
Y1612723D01*
X2002604Y1611775D02*
Y1612823D01*
X2002704Y1611839D02*
Y1612923D01*
X2002804Y1611939D02*
Y1613023D01*
X2002904Y1612039D02*
Y1613123D01*
X2003004Y1612139D02*
Y1613223D01*
X2003104Y1612239D02*
Y1613323D01*
X2003204Y1612339D02*
Y1613423D01*
X2003304Y1612439D02*
Y1613523D01*
X2003404Y1612539D02*
Y1613623D01*
X2003504Y1612639D02*
Y1613723D01*
X2003604Y1612739D02*
Y1613823D01*
X2003704Y1612839D02*
Y1613923D01*
X2003804Y1612939D02*
Y1614023D01*
X2003904Y1613039D02*
Y1613953D01*
X2004004Y1613139D02*
Y1613853D01*
X2004104Y1613239D02*
Y1613753D01*
X2004204Y1613339D02*
Y1613653D01*
X2004304Y1613439D02*
Y1613553D01*
X2002705Y1615151D02*
X2000966Y1613412D01*
X2001508Y1612871*
X2003247Y1614609*
X2002705Y1615151*
X2001476Y1612903D02*
X2001541D01*
X2001376Y1613003D02*
X2001641D01*
X2001276Y1613103D02*
X2001741D01*
X2001176Y1613203D02*
X2001841D01*
X2001076Y1613303D02*
X2001941D01*
X2000976Y1613403D02*
X2002041D01*
X2001057Y1613503D02*
X2002141D01*
X2001157Y1613603D02*
X2002241D01*
X2001257Y1613703D02*
X2002341D01*
X2001357Y1613803D02*
X2002441D01*
X2001457Y1613903D02*
X2002541D01*
X2001557Y1614003D02*
X2002641D01*
X2001657Y1614103D02*
X2002741D01*
X2001757Y1614203D02*
X2002841D01*
X2001857Y1614303D02*
X2002941D01*
X2001957Y1614403D02*
X2003041D01*
X2002057Y1614503D02*
X2003141D01*
X2002157Y1614603D02*
X2003241D01*
X2002257Y1614703D02*
X2003153D01*
X2002357Y1614803D02*
X2003053D01*
X2002457Y1614903D02*
X2002953D01*
X2002557Y1615003D02*
X2002853D01*
X2002657Y1615103D02*
X2002753D01*
X2001004Y1613375D02*
Y1613450D01*
X2001104Y1613275D02*
Y1613550D01*
X2001204Y1613175D02*
Y1613650D01*
X2001304Y1613075D02*
Y1613750D01*
X2001404Y1612975D02*
Y1613850D01*
X2001504Y1612875D02*
Y1613950D01*
X2001604Y1612966D02*
Y1614050D01*
X2001704Y1613066D02*
Y1614150D01*
X2001804Y1613166D02*
Y1614250D01*
X2001904Y1613266D02*
Y1614350D01*
X2002004Y1613366D02*
Y1614450D01*
X2002104Y1613466D02*
Y1614550D01*
X2002204Y1613566D02*
Y1614650D01*
X2002304Y1613666D02*
Y1614750D01*
X2002404Y1613766D02*
Y1614850D01*
X2002504Y1613866D02*
Y1614950D01*
X2002604Y1613966D02*
Y1615050D01*
X2002704Y1614066D02*
Y1615150D01*
X2002804Y1614166D02*
Y1615053D01*
X2002904Y1614266D02*
Y1614953D01*
X2003004Y1614366D02*
Y1614853D01*
X2003104Y1614466D02*
Y1614753D01*
X2003204Y1614566D02*
Y1614653D01*
X2001592Y1616265D02*
X1999853Y1614526D01*
X2000395Y1613984*
X2002133Y1615723*
X2001592Y1616265*
X2000376Y1614003D02*
X2000414D01*
X2000276Y1614103D02*
X2000514D01*
X2000176Y1614203D02*
X2000614D01*
X2000076Y1614303D02*
X2000714D01*
X1999976Y1614403D02*
X2000814D01*
X1999876Y1614503D02*
X2000914D01*
X1999930Y1614603D02*
X2001014D01*
X2000030Y1614703D02*
X2001114D01*
X2000130Y1614803D02*
X2001214D01*
X2000230Y1614903D02*
X2001314D01*
X2000330Y1615003D02*
X2001414D01*
X2000430Y1615103D02*
X2001514D01*
X2000530Y1615203D02*
X2001614D01*
X2000630Y1615303D02*
X2001714D01*
X2000730Y1615403D02*
X2001814D01*
X2000830Y1615503D02*
X2001914D01*
X2000930Y1615603D02*
X2002014D01*
X2001030Y1615703D02*
X2002114D01*
X2001130Y1615803D02*
X2002053D01*
X2001230Y1615903D02*
X2001953D01*
X2001330Y1616003D02*
X2001853D01*
X2001430Y1616103D02*
X2001753D01*
X2001530Y1616203D02*
X2001653D01*
X1999904Y1614475D02*
Y1614577D01*
X2000004Y1614375D02*
Y1614677D01*
X2000104Y1614275D02*
Y1614777D01*
X2000204Y1614175D02*
Y1614877D01*
X2000304Y1614075D02*
Y1614977D01*
X2000404Y1613993D02*
Y1615077D01*
X2000504Y1614093D02*
Y1615177D01*
X2000604Y1614193D02*
Y1615277D01*
X2000704Y1614293D02*
Y1615377D01*
X2000804Y1614393D02*
Y1615477D01*
X2000904Y1614493D02*
Y1615577D01*
X2001004Y1614593D02*
Y1615677D01*
X2001104Y1614693D02*
Y1615777D01*
X2001204Y1614793D02*
Y1615877D01*
X2001304Y1614893D02*
Y1615977D01*
X2001404Y1614993D02*
Y1616077D01*
X2001504Y1615093D02*
Y1616177D01*
X2001604Y1615193D02*
Y1616253D01*
X2001704Y1615293D02*
Y1616153D01*
X2001804Y1615393D02*
Y1616053D01*
X2001904Y1615493D02*
Y1615953D01*
X2002004Y1615593D02*
Y1615853D01*
X2002104Y1615693D02*
Y1615753D01*
X1997583Y1602178D02*
X1994870Y1599465D01*
X1997583Y1596752*
X2000296Y1599465*
X1997583Y1602178*
X1997532Y1596803D02*
X1997634D01*
X1997432Y1596903D02*
X1997734D01*
X1997332Y1597003D02*
X1997834D01*
X1997232Y1597103D02*
X1997934D01*
X1997132Y1597203D02*
X1998034D01*
X1997032Y1597303D02*
X1998134D01*
X1996932Y1597403D02*
X1998234D01*
X1996832Y1597503D02*
X1998334D01*
X1996732Y1597603D02*
X1998434D01*
X1996632Y1597703D02*
X1998534D01*
X1996532Y1597803D02*
X1998634D01*
X1996432Y1597903D02*
X1998734D01*
X1996332Y1598003D02*
X1998834D01*
X1996232Y1598103D02*
X1998934D01*
X1996132Y1598203D02*
X1999034D01*
X1996032Y1598303D02*
X1999134D01*
X1995932Y1598403D02*
X1999234D01*
X1995832Y1598503D02*
X1999334D01*
X1995732Y1598603D02*
X1999434D01*
X1995632Y1598703D02*
X1999534D01*
X1995532Y1598803D02*
X1999634D01*
X1995432Y1598903D02*
X1999734D01*
X1995332Y1599003D02*
X1999834D01*
X1995232Y1599103D02*
X1999934D01*
X1995132Y1599203D02*
X2000034D01*
X1995032Y1599303D02*
X2000134D01*
X1994932Y1599403D02*
X2000234D01*
X1994908Y1599503D02*
X2000258D01*
X1995008Y1599603D02*
X2000158D01*
X1995108Y1599703D02*
X2000058D01*
X1995208Y1599803D02*
X1999958D01*
X1995308Y1599903D02*
X1999858D01*
X1995408Y1600003D02*
X1999758D01*
X1995508Y1600103D02*
X1999658D01*
X1995608Y1600203D02*
X1999558D01*
X1995708Y1600303D02*
X1999458D01*
X1995808Y1600403D02*
X1999358D01*
X1995908Y1600503D02*
X1999258D01*
X1996008Y1600603D02*
X1999158D01*
X1996108Y1600703D02*
X1999058D01*
X1996208Y1600803D02*
X1998958D01*
X1996308Y1600903D02*
X1998858D01*
X1996408Y1601003D02*
X1998758D01*
X1996508Y1601103D02*
X1998658D01*
X1996608Y1601203D02*
X1998558D01*
X1996708Y1601303D02*
X1998458D01*
X1996808Y1601403D02*
X1998358D01*
X1996908Y1601503D02*
X1998258D01*
X1997008Y1601603D02*
X1998158D01*
X1997108Y1601703D02*
X1998058D01*
X1997208Y1601803D02*
X1997958D01*
X1997308Y1601903D02*
X1997858D01*
X1997408Y1602003D02*
X1997758D01*
X1997508Y1602103D02*
X1997658D01*
X1994904Y1599431D02*
Y1599499D01*
X1995004Y1599331D02*
Y1599599D01*
X1995104Y1599231D02*
Y1599699D01*
X1995204Y1599131D02*
Y1599799D01*
X1995304Y1599031D02*
Y1599899D01*
X1995404Y1598931D02*
Y1599999D01*
X1995504Y1598831D02*
Y1600099D01*
X1995604Y1598731D02*
Y1600199D01*
X1995704Y1598631D02*
Y1600299D01*
X1995804Y1598531D02*
Y1600399D01*
X1995904Y1598431D02*
Y1600499D01*
X1996004Y1598331D02*
Y1600599D01*
X1996104Y1598231D02*
Y1600699D01*
X1996204Y1598131D02*
Y1600799D01*
X1996304Y1598031D02*
Y1600899D01*
X1996404Y1597931D02*
Y1600999D01*
X1996504Y1597831D02*
Y1601099D01*
X1996604Y1597731D02*
Y1601199D01*
X1996704Y1597631D02*
Y1601299D01*
X1996804Y1597531D02*
Y1601399D01*
X1996904Y1597431D02*
Y1601499D01*
X1997004Y1597331D02*
Y1601599D01*
X1997104Y1597231D02*
Y1601699D01*
X1997204Y1597131D02*
Y1601799D01*
X1997304Y1597031D02*
Y1601899D01*
X1997404Y1596931D02*
Y1601999D01*
X1997504Y1596831D02*
Y1602099D01*
X1997604Y1596773D02*
Y1602157D01*
X1997704Y1596873D02*
Y1602057D01*
X1997804Y1596973D02*
Y1601957D01*
X1997904Y1597073D02*
Y1601857D01*
X1998004Y1597173D02*
Y1601757D01*
X1998104Y1597273D02*
Y1601657D01*
X1998204Y1597373D02*
Y1601557D01*
X1998304Y1597473D02*
Y1601457D01*
X1998404Y1597573D02*
Y1601357D01*
X1998504Y1597673D02*
Y1601257D01*
X1998604Y1597773D02*
Y1601157D01*
X1998704Y1597873D02*
Y1601057D01*
X1998804Y1597973D02*
Y1600957D01*
X1998904Y1598073D02*
Y1600857D01*
X1999004Y1598173D02*
Y1600757D01*
X1999104Y1598273D02*
Y1600657D01*
X1999204Y1598373D02*
Y1600557D01*
X1999304Y1598473D02*
Y1600457D01*
X1999404Y1598573D02*
Y1600357D01*
X1999504Y1598673D02*
Y1600257D01*
X1999604Y1598773D02*
Y1600157D01*
X1999704Y1598873D02*
Y1600057D01*
X1999804Y1598973D02*
Y1599957D01*
X1999904Y1599073D02*
Y1599857D01*
X2000004Y1599173D02*
Y1599757D01*
X2000104Y1599273D02*
Y1599657D01*
X2000204Y1599373D02*
Y1599557D01*
X2006174Y1617963D02*
X2005409Y1617199D01*
X2006174Y1616434*
X2006938Y1617199*
X2006174Y1617963*
X2006105Y1616503D02*
X2006242D01*
X2006005Y1616603D02*
X2006342D01*
X2005905Y1616703D02*
X2006442D01*
X2005805Y1616803D02*
X2006542D01*
X2005705Y1616903D02*
X2006642D01*
X2005605Y1617003D02*
X2006742D01*
X2005505Y1617103D02*
X2006842D01*
X2005413Y1617203D02*
X2006934D01*
X2005513Y1617303D02*
X2006834D01*
X2005613Y1617403D02*
X2006734D01*
X2005713Y1617503D02*
X2006634D01*
X2005813Y1617603D02*
X2006534D01*
X2005913Y1617703D02*
X2006434D01*
X2006013Y1617803D02*
X2006334D01*
X2006113Y1617903D02*
X2006234D01*
X2005504Y1617104D02*
Y1617294D01*
X2005604Y1617004D02*
Y1617394D01*
X2005704Y1616904D02*
Y1617494D01*
X2005804Y1616804D02*
Y1617594D01*
X2005904Y1616704D02*
Y1617694D01*
X2006004Y1616604D02*
Y1617794D01*
X2006104Y1616504D02*
Y1617894D01*
X2006204Y1616465D02*
Y1617933D01*
X2006304Y1616565D02*
Y1617833D01*
X2006404Y1616665D02*
Y1617733D01*
X2006504Y1616765D02*
Y1617633D01*
X2006604Y1616865D02*
Y1617533D01*
X2006704Y1616965D02*
Y1617433D01*
X2006804Y1617065D02*
Y1617333D01*
X2006904Y1617165D02*
Y1617233D01*
X2004782Y1616572D02*
X2004018Y1615807D01*
X2004782Y1615043*
X2005547Y1615807*
X2004782Y1616572*
X2004722Y1615103D02*
X2004842D01*
X2004622Y1615203D02*
X2004942D01*
X2004522Y1615303D02*
X2005042D01*
X2004422Y1615403D02*
X2005142D01*
X2004322Y1615503D02*
X2005242D01*
X2004222Y1615603D02*
X2005342D01*
X2004122Y1615703D02*
X2005442D01*
X2004022Y1615803D02*
X2005542D01*
X2004113Y1615903D02*
X2005451D01*
X2004213Y1616003D02*
X2005351D01*
X2004313Y1616103D02*
X2005251D01*
X2004413Y1616203D02*
X2005151D01*
X2004513Y1616303D02*
X2005051D01*
X2004613Y1616403D02*
X2004951D01*
X2004713Y1616503D02*
X2004851D01*
X2004104Y1615721D02*
Y1615894D01*
X2004204Y1615621D02*
Y1615994D01*
X2004304Y1615521D02*
Y1616094D01*
X2004404Y1615421D02*
Y1616194D01*
X2004504Y1615321D02*
Y1616294D01*
X2004604Y1615221D02*
Y1616394D01*
X2004704Y1615121D02*
Y1616494D01*
X2004804Y1615065D02*
Y1616550D01*
X2004904Y1615165D02*
Y1616450D01*
X2005004Y1615265D02*
Y1616350D01*
X2005104Y1615365D02*
Y1616250D01*
X2005204Y1615465D02*
Y1616150D01*
X2005304Y1615565D02*
Y1616050D01*
X2005404Y1615665D02*
Y1615950D01*
X2005504Y1615765D02*
Y1615850D01*
X2006713Y1624840D02*
X2005949Y1624075D01*
X2006713Y1623311*
X2007477Y1624075*
X2006713Y1624840*
X2006621Y1623403D02*
X2006805D01*
X2006521Y1623503D02*
X2006905D01*
X2006421Y1623603D02*
X2007005D01*
X2006321Y1623703D02*
X2007105D01*
X2006221Y1623803D02*
X2007205D01*
X2006121Y1623903D02*
X2007305D01*
X2006021Y1624003D02*
X2007405D01*
X2005976Y1624103D02*
X2007449D01*
X2006076Y1624203D02*
X2007349D01*
X2006176Y1624303D02*
X2007249D01*
X2006276Y1624403D02*
X2007149D01*
X2006376Y1624503D02*
X2007049D01*
X2006476Y1624603D02*
X2006949D01*
X2006576Y1624703D02*
X2006849D01*
X2006676Y1624803D02*
X2006749D01*
X2006004Y1624020D02*
Y1624131D01*
X2006104Y1623920D02*
Y1624231D01*
X2006204Y1623820D02*
Y1624331D01*
X2006304Y1623720D02*
Y1624431D01*
X2006404Y1623620D02*
Y1624531D01*
X2006504Y1623520D02*
Y1624631D01*
X2006604Y1623420D02*
Y1624731D01*
X2006704Y1623320D02*
Y1624831D01*
X2006804Y1623402D02*
Y1624749D01*
X2006904Y1623502D02*
Y1624649D01*
X2007004Y1623602D02*
Y1624549D01*
X2007104Y1623702D02*
Y1624449D01*
X2007204Y1623802D02*
Y1624349D01*
X2007304Y1623902D02*
Y1624249D01*
X2007404Y1624002D02*
Y1624149D01*
X2008105Y1626231D02*
X2007340Y1625467D01*
X2008105Y1624702*
X2008869Y1625467*
X2008105Y1626231*
X2008104Y1624703D02*
X2008105D01*
X2008004Y1624803D02*
X2008205D01*
X2007904Y1624903D02*
X2008305D01*
X2007804Y1625003D02*
X2008405D01*
X2007704Y1625103D02*
X2008505D01*
X2007604Y1625203D02*
X2008605D01*
X2007504Y1625303D02*
X2008705D01*
X2007404Y1625403D02*
X2008805D01*
X2007376Y1625503D02*
X2008833D01*
X2007476Y1625603D02*
X2008733D01*
X2007576Y1625703D02*
X2008633D01*
X2007676Y1625803D02*
X2008533D01*
X2007776Y1625903D02*
X2008433D01*
X2007876Y1626003D02*
X2008333D01*
X2007976Y1626103D02*
X2008233D01*
X2008076Y1626203D02*
X2008133D01*
X2007404Y1625403D02*
Y1625531D01*
X2007504Y1625303D02*
Y1625631D01*
X2007604Y1625203D02*
Y1625731D01*
X2007704Y1625103D02*
Y1625831D01*
X2007804Y1625003D02*
Y1625931D01*
X2007904Y1624903D02*
Y1626031D01*
X2008004Y1624803D02*
Y1626131D01*
X2008104Y1624703D02*
Y1626231D01*
X2008204Y1624802D02*
Y1626132D01*
X2008304Y1624902D02*
Y1626032D01*
X2008404Y1625002D02*
Y1625932D01*
X2008504Y1625102D02*
Y1625832D01*
X2008604Y1625202D02*
Y1625732D01*
X2008704Y1625302D02*
Y1625632D01*
X2008804Y1625402D02*
Y1625532D01*
X2020944Y1615893D02*
X2020179Y1615128D01*
X2020944Y1614364*
X2021708Y1615128*
X2020944Y1615893*
X2020904Y1614403D02*
X2020983D01*
X2020804Y1614503D02*
X2021083D01*
X2020704Y1614603D02*
X2021183D01*
X2020604Y1614703D02*
X2021283D01*
X2020504Y1614803D02*
X2021383D01*
X2020404Y1614903D02*
X2021483D01*
X2020304Y1615003D02*
X2021583D01*
X2020204Y1615103D02*
X2021683D01*
X2020254Y1615203D02*
X2021633D01*
X2020354Y1615303D02*
X2021533D01*
X2020454Y1615403D02*
X2021433D01*
X2020554Y1615503D02*
X2021333D01*
X2020654Y1615603D02*
X2021233D01*
X2020754Y1615703D02*
X2021133D01*
X2020854Y1615803D02*
X2021033D01*
X2020204Y1615104D02*
Y1615153D01*
X2020304Y1615004D02*
Y1615253D01*
X2020404Y1614904D02*
Y1615353D01*
X2020504Y1614804D02*
Y1615453D01*
X2020604Y1614704D02*
Y1615553D01*
X2020704Y1614604D02*
Y1615653D01*
X2020804Y1614504D02*
Y1615753D01*
X2020904Y1614404D02*
Y1615853D01*
X2021004Y1614424D02*
Y1615833D01*
X2021104Y1614524D02*
Y1615733D01*
X2021204Y1614624D02*
Y1615633D01*
X2021304Y1614724D02*
Y1615533D01*
X2021404Y1614824D02*
Y1615433D01*
X2021504Y1614924D02*
Y1615333D01*
X2021604Y1615024D02*
Y1615233D01*
X2021704Y1615124D02*
Y1615133D01*
X2019552Y1614501D02*
X2018788Y1613736D01*
X2019552Y1612972*
X2020317Y1613736*
X2019552Y1614501*
X2019521Y1613003D02*
X2019583D01*
X2019421Y1613103D02*
X2019683D01*
X2019321Y1613203D02*
X2019783D01*
X2019221Y1613303D02*
X2019883D01*
X2019121Y1613403D02*
X2019983D01*
X2019021Y1613503D02*
X2020083D01*
X2018921Y1613603D02*
X2020183D01*
X2018821Y1613703D02*
X2020283D01*
X2018854Y1613803D02*
X2020250D01*
X2018954Y1613903D02*
X2020150D01*
X2019054Y1614003D02*
X2020050D01*
X2019154Y1614103D02*
X2019950D01*
X2019254Y1614203D02*
X2019850D01*
X2019354Y1614303D02*
X2019750D01*
X2019454Y1614403D02*
X2019650D01*
X2018804Y1613720D02*
Y1613753D01*
X2018904Y1613620D02*
Y1613853D01*
X2019004Y1613520D02*
Y1613953D01*
X2019104Y1613420D02*
Y1614053D01*
X2019204Y1613320D02*
Y1614153D01*
X2019304Y1613220D02*
Y1614253D01*
X2019404Y1613120D02*
Y1614353D01*
X2019504Y1613020D02*
Y1614453D01*
X2019604Y1613024D02*
Y1614449D01*
X2019704Y1613124D02*
Y1614349D01*
X2019804Y1613224D02*
Y1614249D01*
X2019904Y1613324D02*
Y1614149D01*
X2020004Y1613424D02*
Y1614049D01*
X2020104Y1613524D02*
Y1613949D01*
X2020204Y1613624D02*
Y1613849D01*
X2020304Y1613724D02*
Y1613749D01*
G54D11*
X1979704Y1618292D03*
Y1614914D03*
G54D24*
X1968504Y1574803D02*
Y1635433D01*
X2029134*
Y1574803*
X1968504*
G54D25*
X1999943Y1607817D02*
X1997583Y1610176D01*
X1995223Y1607817*
X1997583Y1605457*
X1999943Y1607817*
X1995483Y1607557D02*
Y1608076D01*
X1995783Y1607257D02*
Y1608376D01*
X1996083Y1606957D02*
Y1608676D01*
X1996383Y1606657D02*
Y1608976D01*
X1996683Y1606357D02*
Y1609276D01*
X1996983Y1606057D02*
Y1609576D01*
X1997283Y1605757D02*
Y1609876D01*
X1997583Y1605457D02*
Y1610176D01*
X1997883Y1605757D02*
Y1609876D01*
X1998183Y1606057D02*
Y1609576D01*
X1998483Y1606357D02*
Y1609276D01*
X1998783Y1606657D02*
Y1608976D01*
X1999083Y1606957D02*
Y1608676D01*
X1999383Y1607257D02*
Y1608376D01*
X1999683Y1607557D02*
Y1608076D01*
X2004118Y1603641D02*
X2001759Y1606001D01*
X1999399Y1603641*
X2001759Y1601281*
X2004118Y1603641*
X1999683Y1603357D02*
Y1603925D01*
X1999983Y1603057D02*
Y1604225D01*
X2000283Y1602757D02*
Y1604525D01*
X2000583Y1602457D02*
Y1604825D01*
X2000883Y1602157D02*
Y1605125D01*
X2001183Y1601857D02*
Y1605425D01*
X2001483Y1601557D02*
Y1605725D01*
X2001783Y1601306D02*
Y1605976D01*
X2002083Y1601606D02*
Y1605676D01*
X2002383Y1601906D02*
Y1605376D01*
X2002683Y1602206D02*
Y1605076D01*
X2002983Y1602506D02*
Y1604776D01*
X2003283Y1602806D02*
Y1604476D01*
X2003583Y1603106D02*
Y1604176D01*
X2003883Y1603406D02*
Y1603876D01*
X2008294Y1599465D02*
X2005935Y1601825D01*
X2003575Y1599465*
X2005935Y1597106*
X2008294Y1599465*
X2003583Y1599457D02*
Y1599473D01*
X2003883Y1599157D02*
Y1599773D01*
X2004183Y1598857D02*
Y1600073D01*
X2004483Y1598557D02*
Y1600373D01*
X2004783Y1598257D02*
Y1600673D01*
X2005083Y1597957D02*
Y1600973D01*
X2005383Y1597657D02*
Y1601273D01*
X2005683Y1597357D02*
Y1601573D01*
X2005983Y1597154D02*
Y1601776D01*
X2006283Y1597454D02*
Y1601476D01*
X2006583Y1597754D02*
Y1601176D01*
X2006883Y1598054D02*
Y1600876D01*
X2007183Y1598354D02*
Y1600576D01*
X2007483Y1598654D02*
Y1600276D01*
X2007783Y1598954D02*
Y1599976D01*
X2008083Y1599254D02*
Y1599676D01*
X2004118Y1595289D02*
X2001759Y1597649D01*
X1999399Y1595289*
X2001759Y1592930*
X2004118Y1595289*
X1999683Y1595006D02*
Y1595573D01*
X1999983Y1594706D02*
Y1595873D01*
X2000283Y1594406D02*
Y1596173D01*
X2000583Y1594106D02*
Y1596473D01*
X2000883Y1593806D02*
Y1596773D01*
X2001183Y1593506D02*
Y1597073D01*
X2001483Y1593206D02*
Y1597373D01*
X2001783Y1592954D02*
Y1597625D01*
X2002083Y1593254D02*
Y1597325D01*
X2002383Y1593554D02*
Y1597025D01*
X2002683Y1593854D02*
Y1596725D01*
X2002983Y1594154D02*
Y1596425D01*
X2003283Y1594454D02*
Y1596125D01*
X2003583Y1594754D02*
Y1595825D01*
X2003883Y1595054D02*
Y1595525D01*
X1999943Y1591113D02*
X1997583Y1593473D01*
X1995223Y1591113*
X1997583Y1588754*
X1999943Y1591113*
X1995483Y1590854D02*
Y1591373D01*
X1995783Y1590554D02*
Y1591673D01*
X1996083Y1590254D02*
Y1591973D01*
X1996383Y1589954D02*
Y1592273D01*
X1996683Y1589654D02*
Y1592573D01*
X1996983Y1589354D02*
Y1592873D01*
X1997283Y1589054D02*
Y1593173D01*
X1997583Y1588754D02*
Y1593473D01*
X1997883Y1589054D02*
Y1593173D01*
X1998183Y1589354D02*
Y1592873D01*
X1998483Y1589654D02*
Y1592573D01*
X1998783Y1589954D02*
Y1592273D01*
X1999083Y1590254D02*
Y1591973D01*
X1999383Y1590554D02*
Y1591673D01*
X1999683Y1590854D02*
Y1591373D01*
X1995767Y1595289D02*
X1993407Y1597649D01*
X1991047Y1595289*
X1993407Y1592930*
X1995767Y1595289*
X1991283Y1595054D02*
Y1595525D01*
X1991583Y1594754D02*
Y1595825D01*
X1991883Y1594454D02*
Y1596125D01*
X1992183Y1594154D02*
Y1596425D01*
X1992483Y1593854D02*
Y1596725D01*
X1992783Y1593554D02*
Y1597025D01*
X1993083Y1593254D02*
Y1597325D01*
X1993383Y1592954D02*
Y1597625D01*
X1993683Y1593206D02*
Y1597373D01*
X1993983Y1593506D02*
Y1597073D01*
X1994283Y1593806D02*
Y1596773D01*
X1994583Y1594106D02*
Y1596473D01*
X1994883Y1594406D02*
Y1596173D01*
X1995183Y1594706D02*
Y1595873D01*
X1995483Y1595006D02*
Y1595573D01*
X1991591Y1599465D02*
X1989231Y1601825D01*
X1986872Y1599465*
X1989231Y1597106*
X1991591Y1599465*
X1987083Y1599254D02*
Y1599676D01*
X1987383Y1598954D02*
Y1599976D01*
X1987683Y1598654D02*
Y1600276D01*
X1987983Y1598354D02*
Y1600576D01*
X1988283Y1598054D02*
Y1600876D01*
X1988583Y1597754D02*
Y1601176D01*
X1988883Y1597454D02*
Y1601476D01*
X1989183Y1597154D02*
Y1601776D01*
X1989483Y1597357D02*
Y1601573D01*
X1989783Y1597657D02*
Y1601273D01*
X1990083Y1597957D02*
Y1600973D01*
X1990383Y1598257D02*
Y1600673D01*
X1990683Y1598557D02*
Y1600373D01*
X1990983Y1598857D02*
Y1600073D01*
X1991283Y1599157D02*
Y1599773D01*
X1991583Y1599457D02*
Y1599473D01*
X1995767Y1603641D02*
X1993407Y1606001D01*
X1991047Y1603641*
X1993407Y1601281*
X1995767Y1603641*
X1991283Y1603406D02*
Y1603876D01*
X1991583Y1603106D02*
Y1604176D01*
X1991883Y1602806D02*
Y1604476D01*
X1992183Y1602506D02*
Y1604776D01*
X1992483Y1602206D02*
Y1605076D01*
X1992783Y1601906D02*
Y1605376D01*
X1993083Y1601606D02*
Y1605676D01*
X1993383Y1601306D02*
Y1605976D01*
X1993683Y1601557D02*
Y1605725D01*
X1993983Y1601857D02*
Y1605425D01*
X1994283Y1602157D02*
Y1605125D01*
X1994583Y1602457D02*
Y1604825D01*
X1994883Y1602757D02*
Y1604525D01*
X1995183Y1603057D02*
Y1604225D01*
X1995483Y1603357D02*
Y1603925D01*
G54D31*
X2011274Y1619239D02*
Y1620746D01*
X2009243Y1622776*
X2006738Y1620271*
X2009522Y1617487*
X2011274Y1619239*
X2006889Y1620119D02*
Y1620422D01*
X2007086Y1619923D02*
Y1620619D01*
X2007283Y1619726D02*
Y1620816D01*
X2007480Y1619529D02*
Y1621013D01*
X2007677Y1619332D02*
Y1621210D01*
X2007874Y1619135D02*
Y1621407D01*
X2008070Y1618938D02*
Y1621604D01*
X2008267Y1618741D02*
Y1621800D01*
X2008464Y1618545D02*
Y1621997D01*
X2008661Y1618348D02*
Y1622194D01*
X2008858Y1618151D02*
Y1622391D01*
X2009055Y1617954D02*
Y1622588D01*
X2009252Y1617757D02*
Y1622768D01*
X2009448Y1617560D02*
Y1622571D01*
X2009645Y1617611D02*
Y1622375D01*
X2009842Y1617807D02*
Y1622178D01*
X2010039Y1618004D02*
Y1621981D01*
X2010236Y1618201D02*
Y1621784D01*
X2010433Y1618398D02*
Y1621587D01*
X2010629Y1618595D02*
Y1621390D01*
X2010826Y1618792D02*
Y1621193D01*
X2011023Y1618989D02*
Y1620997D01*
X2011220Y1619185D02*
Y1620800D01*
X2025886Y1577264D02*
Y1581710D01*
X2021440Y1577264*
X2025886*
X2025772Y1581596D02*
X2025886D01*
X2025378Y1581202D02*
X2025886D01*
X2024984Y1580808D02*
X2025886D01*
X2024590Y1580414D02*
X2025886D01*
X2024196Y1580020D02*
X2025886D01*
X2023802Y1579626D02*
X2025886D01*
X2023408Y1579232D02*
X2025886D01*
X2023014Y1578838D02*
X2025886D01*
X2022620Y1578444D02*
X2025886D01*
X2022226Y1578050D02*
X2025886D01*
X2021832Y1577656D02*
X2025886D01*
X2025774Y1577264D02*
Y1581598D01*
X2025380Y1577264D02*
Y1581204D01*
X2024986Y1577264D02*
Y1580810D01*
X2024592Y1577264D02*
Y1580416D01*
X2024198Y1577264D02*
Y1580022D01*
X2023804Y1577264D02*
Y1579628D01*
X2023410Y1577264D02*
Y1579234D01*
X2023016Y1577264D02*
Y1578840D01*
X2022622Y1577264D02*
Y1578446D01*
X2022228Y1577264D02*
Y1578052D01*
X2021834Y1577264D02*
Y1577658D01*
G54D35*
X1988287Y1625768D02*
Y1622223D01*
X1971555*
G54D204*
X1971752Y1577264D02*
X1976198D01*
X1971752Y1581709*
Y1577264*
X2025886Y1629626D02*
X2021440D01*
X2025886Y1625180*
Y1629626*
X1971752Y1577617D02*
X1975844D01*
X1971752Y1577972D02*
X1975490D01*
X1971752Y1578326D02*
X1975135D01*
X1971752Y1578681D02*
X1974781D01*
X1971752Y1579036D02*
X1974426D01*
X1971752Y1579390D02*
X1974071D01*
X1971752Y1579745D02*
X1973717D01*
X1971752Y1580099D02*
X1973362D01*
X1971752Y1580454D02*
X1973008D01*
X1971752Y1580809D02*
X1972653D01*
X1971752Y1581163D02*
X1972298D01*
X1971752Y1581518D02*
X1971944D01*
X2021632Y1629434D02*
X2025886D01*
X2021986Y1629080D02*
X2025886D01*
X2022341Y1628725D02*
X2025886D01*
X2022696Y1628370D02*
X2025886D01*
X2023050Y1628016D02*
X2025886D01*
X2023405Y1627661D02*
X2025886D01*
X2023759Y1627307D02*
X2025886D01*
X2024114Y1626952D02*
X2025886D01*
X2024469Y1626597D02*
X2025886D01*
X2024823Y1626243D02*
X2025886D01*
X2025178Y1625888D02*
X2025886D01*
X2025532Y1625534D02*
X2025886D01*
G54D308*
X1975397Y1617415D03*
Y1614659D03*
G54D376*
X1993224Y1622149D03*
Y1624117D03*
X1984970Y1616083D03*
X1986938D03*
X2016520Y1607503D03*
X2018488D03*
X2019020Y1600403D03*
X2020988D03*
X2000570Y1619912D03*
Y1621880D03*
X1995188Y1619853D03*
X1993220D03*
X1991256Y1626350D03*
X1993224D03*
X2016520Y1604103D03*
X2018488D03*
X1982580Y1588265D03*
Y1586297D03*
X2002970Y1618632D03*
Y1620600D03*
X1982654Y1617657D03*
Y1615689D03*
X1989204Y1616549D03*
Y1618517D03*
X1984970Y1618533D03*
X1986938D03*
X2008150Y1583203D03*
X2010118D03*
X2008150Y1585623D03*
X2010118D03*
G54D377*
X1984917Y1629121D03*
G54D378*
X1981077Y1633061D03*
Y1625181D03*
G54D379*
X1977042Y1629121D03*
G54D380*
X1994688Y1616837D02*
X1995885Y1615640D01*
X1999281D02*
X2000478Y1616837D01*
G54D396*
X1971555Y1622027D02*
Y1577067D01*
X2026083*
Y1629823*
X1995571*
X0Y0D02*
M02*
