*
*
G04 PADS VX.2 Build Number: 5060570 generated Gerber (RS-274-X) file*
G04 PC Version=2.1*
*
%IN "PCB_ESP32-S3-MINI-1U_V1"*%
*
%MOIN*%
*
%FSLAX35Y35*%
*
*
*
*
G04 PC Standard Apertures*
*
*
G04 Thermal Relief Aperture macro.*
%AMTER*
1,1,$1,0,0*
1,0,$1-$2,0,0*
21,0,$3,$4,0,0,45*
21,0,$3,$4,0,0,135*
%
*
*
G04 Annular Aperture macro.*
%AMANN*
1,1,$1,0,0*
1,0,$2,0,0*
%
*
*
G04 Odd Aperture macro.*
%AMODD*
1,1,$1,0,0*
1,0,$1-0.005,0,0*
%
*
*
G04 PC Custom Aperture Macros*
*
*
*
*
*
*
G04 PC Aperture Table*
*
%ADD010C,0.001*%
%ADD024C,0.005*%
%ADD025C,0.006*%
%ADD055C,0.004*%
%ADD399C,0.00472*%
%ADD400C,0.00709*%
*
*
*
*
G04 PC Circuitry*
G04 Layer Name PCB_ESP32-S3-MINI-1U_V1 - circuitry*
%LPD*%
*
G54D10*
G01X2019617Y1586852D02*
X2019177D01*
Y1585222*
X2019127Y1585172*
X2017747*
X2017697Y1585222*
Y1586852*
X2017257*
Y1582932*
X2017697*
Y1584742*
X2017747Y1584792*
X2019127*
X2019177Y1584742*
Y1582932*
X2019617*
Y1586852*
X2016557D02*
X2014197D01*
Y1586472*
X2016067*
X2016117Y1586422*
Y1585102*
X2016067Y1585052*
X2014677*
Y1584732*
X2016067*
X2016117Y1584682*
Y1582932*
X2016557*
Y1586852*
X2014200Y1586472D02*
Y1586852D01*
X2014300Y1586472D02*
Y1586852D01*
X2014400Y1586472D02*
Y1586852D01*
X2014500Y1586472D02*
Y1586852D01*
X2014600Y1586472D02*
Y1586852D01*
X2014700Y1584732D02*
Y1585052D01*
Y1586472D02*
Y1586852D01*
X2014800Y1584732D02*
Y1585052D01*
Y1586472D02*
Y1586852D01*
X2014900Y1584732D02*
Y1585052D01*
Y1586472D02*
Y1586852D01*
X2015000Y1584732D02*
Y1585052D01*
Y1586472D02*
Y1586852D01*
X2015100Y1584732D02*
Y1585052D01*
Y1586472D02*
Y1586852D01*
X2015200Y1584732D02*
Y1585052D01*
Y1586472D02*
Y1586852D01*
X2015300Y1584732D02*
Y1585052D01*
Y1586472D02*
Y1586852D01*
X2015400Y1584732D02*
Y1585052D01*
Y1586472D02*
Y1586852D01*
X2015500Y1584732D02*
Y1585052D01*
Y1586472D02*
Y1586852D01*
X2015600Y1584732D02*
Y1585052D01*
Y1586472D02*
Y1586852D01*
X2015700Y1584732D02*
Y1585052D01*
Y1586472D02*
Y1586852D01*
X2015800Y1584732D02*
Y1585052D01*
Y1586472D02*
Y1586852D01*
X2015900Y1584732D02*
Y1585052D01*
Y1586472D02*
Y1586852D01*
X2016000Y1584732D02*
Y1585052D01*
Y1586472D02*
Y1586852D01*
X2016100Y1584719D02*
Y1585064D01*
Y1586459D02*
Y1586852D01*
X2016200Y1582932D02*
Y1586852D01*
X2016300Y1582932D02*
Y1586852D01*
X2016400Y1582932D02*
Y1586852D01*
X2016500Y1582932D02*
Y1586852D01*
X2017300Y1582932D02*
Y1586852D01*
X2017400Y1582932D02*
Y1586852D01*
X2017500Y1582932D02*
Y1586852D01*
X2017600Y1582932D02*
Y1586852D01*
X2017700Y1584759D02*
Y1585204D01*
X2017800Y1584792D02*
Y1585172D01*
X2017900Y1584792D02*
Y1585172D01*
X2018000Y1584792D02*
Y1585172D01*
X2018100Y1584792D02*
Y1585172D01*
X2018200Y1584792D02*
Y1585172D01*
X2018300Y1584792D02*
Y1585172D01*
X2018400Y1584792D02*
Y1585172D01*
X2018500Y1584792D02*
Y1585172D01*
X2018600Y1584792D02*
Y1585172D01*
X2018700Y1584792D02*
Y1585172D01*
X2018800Y1584792D02*
Y1585172D01*
X2018900Y1584792D02*
Y1585172D01*
X2019000Y1584792D02*
Y1585172D01*
X2019100Y1584792D02*
Y1585172D01*
X2019200Y1582932D02*
Y1586852D01*
X2019300Y1582932D02*
Y1586852D01*
X2019400Y1582932D02*
Y1586852D01*
X2019500Y1582932D02*
Y1586852D01*
X2019600Y1582932D02*
Y1586852D01*
*
G04 PC Custom Flashes*
G04 Layer Name PCB_ESP32-S3-MINI-1U_V1 - flashes*
%LPD*%
*
*
G04 PC Circuitry*
G04 Layer Name PCB_ESP32-S3-MINI-1U_V1 - circuitry*
%LPD*%
*
G54D10*
G54D24*
X1984804Y1616903D02*
X1975832D01*
Y1615107*
X1984804*
Y1616903*
X1975832Y1616456D02*
X1984804D01*
X1975832Y1616006D02*
X1984804D01*
X1975832Y1615556D02*
X1984804D01*
X1968504Y1574803D02*
Y1635433D01*
X2029134*
Y1574803*
X1968504*
X2009819Y1589903D02*
Y1582029D01*
X1987819*
Y1589903*
X2009819*
G54D25*
X2021793Y1585197D02*
G75*
G03X2021793I-4344J0D01*
G54D55*
G01X2021288Y1594792D02*
Y1592102D01*
Y1594792D02*
X2019958D01*
X2021288Y1593511D02*
X2020470D01*
X2021288Y1592102D02*
X2019958D01*
X2017606Y1594408D02*
X2017811Y1594664D01*
X2018118Y1594792*
X2018527*
X2018833Y1594664*
X2019038Y1594408*
Y1594152*
X2018936Y1593895*
X2018833Y1593767*
X2018629Y1593639*
X2018015Y1593383*
X2017811Y1593255*
X2017708Y1593127*
X2017606Y1592870*
Y1592486*
X2017811Y1592230*
X2018118Y1592102*
X2018527*
X2018833Y1592230*
X2019038Y1592486*
X2016686Y1594792D02*
Y1592102D01*
Y1594792D02*
X2015765D01*
X2015458Y1594664*
X2015356Y1594536*
X2015254Y1594280*
Y1593895*
X2015356Y1593639*
X2015458Y1593511*
X2015765Y1593383*
X2016686*
X2014129Y1594792D02*
X2013004D01*
X2013618Y1593767*
X2013311*
X2013106Y1593639*
X2013004Y1593511*
X2012902Y1593127*
Y1592870*
X2013004Y1592486*
X2013208Y1592230*
X2013515Y1592102*
X2013822*
X2014129Y1592230*
X2014231Y1592358*
X2014333Y1592614*
X2011879Y1594152D02*
Y1594280D01*
X2011777Y1594536*
X2011674Y1594664*
X2011470Y1594792*
X2011061*
X2010856Y1594664*
X2010754Y1594536*
X2010652Y1594280*
Y1594023*
X2010754Y1593767*
X2010958Y1593383*
X2011981Y1592102*
X2010549*
X2009629Y1593255D02*
X2007788D01*
X2005436Y1594408D02*
X2005640Y1594664D01*
X2005947Y1594792*
X2006356*
X2006663Y1594664*
X2006868Y1594408*
Y1594152*
X2006765Y1593895*
X2006663Y1593767*
X2006458Y1593639*
X2005845Y1593383*
X2005640Y1593255*
X2005538Y1593127*
X2005436Y1592870*
Y1592486*
X2005640Y1592230*
X2005947Y1592102*
X2006356*
X2006663Y1592230*
X2006868Y1592486*
X2004311Y1594792D02*
X2003186D01*
X2003799Y1593767*
X2003493*
X2003288Y1593639*
X2003186Y1593511*
X2003083Y1593127*
Y1592870*
X2003186Y1592486*
X2003390Y1592230*
X2003697Y1592102*
X2004004*
X2004311Y1592230*
X2004413Y1592358*
X2004515Y1592614*
X2002163Y1593255D02*
X2000322D01*
X1999402Y1594792D02*
Y1592102D01*
Y1594792D02*
X1998583Y1592102D01*
X1997765Y1594792D02*
X1998583Y1592102D01*
X1997765Y1594792D02*
Y1592102D01*
X1996845Y1594792D02*
Y1592102D01*
X1995924Y1594792D02*
Y1592102D01*
Y1594792D02*
X1994493Y1592102D01*
Y1594792D02*
Y1592102D01*
X1993572Y1594792D02*
Y1592102D01*
X1992652Y1593255D02*
X1990811D01*
X1989890Y1594280D02*
X1989686Y1594408D01*
X1989379Y1594792*
Y1592102*
X1988458Y1594792D02*
Y1592870D01*
X1988356Y1592486*
X1988152Y1592230*
X1987845Y1592102*
X1987640*
X1987333Y1592230*
X1987129Y1592486*
X1987027Y1592870*
Y1594792*
X1983754D02*
X1982936Y1592102D01*
X1982118Y1594792D02*
X1982936Y1592102D01*
X1981197Y1594280D02*
X1980993Y1594408D01*
X1980686Y1594792*
Y1592102*
X1979663Y1592358D02*
X1979765Y1592230D01*
X1979663Y1592102*
X1979561Y1592230*
X1979663Y1592358*
X1978640Y1594280D02*
X1978436Y1594408D01*
X1978129Y1594792*
Y1592102*
X2008297Y1617624D02*
X2010804Y1622076D01*
X2011201Y1621404*
X2011437Y1620902*
X2011698Y1620661*
X2012513Y1620100*
X2008297Y1617624*
X2015177Y1629681D02*
X2012538Y1624976D01*
X2012926Y1624604*
X2013724Y1624366*
X2016513Y1624087*
X2017811Y1623782*
X2018103Y1623103*
X2018730Y1623551*
X2015177Y1629681*
X2019804Y1621676D02*
X2019401Y1621497D01*
X2020264Y1619962*
X2019768Y1617272*
X2018651Y1616135*
X2018083Y1616093*
X2017717Y1616555*
X2017759Y1617801*
X2018101Y1618304*
X2018225Y1620108*
X2017813Y1620708*
X2016171Y1619728*
X2016885Y1618945*
X2017367Y1618327*
X2017648Y1617939*
X2017661Y1616852*
X2017577Y1616533*
X2017249Y1616138*
X2016538Y1616154*
X2014396Y1618659*
X2009101Y1615573*
X2023461*
X2019804Y1621676*
X2009715Y1620143D02*
X2012450D01*
X2009513Y1619783D02*
X2011973D01*
X2009918Y1620503D02*
X2011928D01*
X2010121Y1620863D02*
X2011479D01*
X2009310Y1619423D02*
X2011360D01*
X2010324Y1621223D02*
X2011286D01*
X2010526Y1621583D02*
X2011095D01*
X2010729Y1621943D02*
X2010883D01*
X2009107Y1619063D02*
X2010747D01*
X2008904Y1618703D02*
X2010134D01*
X2008701Y1618343D02*
X2009521D01*
X2008499Y1617983D02*
X2008907D01*
X2017949Y1623462D02*
X2018605D01*
X2017643Y1623822D02*
X2018573D01*
X2015571Y1624182D02*
X2018364D01*
X2013136Y1624542D02*
X2018156D01*
X2012615Y1624902D02*
X2017947D01*
X2012698Y1625262D02*
X2017739D01*
X2012900Y1625622D02*
X2017530D01*
X2013102Y1625982D02*
X2017321D01*
X2013304Y1626342D02*
X2017113D01*
X2013506Y1626702D02*
X2016904D01*
X2013708Y1627062D02*
X2016696D01*
X2013910Y1627422D02*
X2016487D01*
X2014112Y1627782D02*
X2016278D01*
X2014314Y1628142D02*
X2016070D01*
X2014516Y1628502D02*
X2015861D01*
X2014718Y1628862D02*
X2015652D01*
X2014920Y1629222D02*
X2015444D01*
X2015122Y1629582D02*
X2015235D01*
X2009717Y1615932D02*
X2023246D01*
X2018805Y1616292D02*
X2023030D01*
X2019159Y1616652D02*
X2022814D01*
X2019512Y1617012D02*
X2022599D01*
X2019786Y1617372D02*
X2022383D01*
X2019853Y1617732D02*
X2022167D01*
X2019919Y1618092D02*
X2021952D01*
X2019985Y1618452D02*
X2021736D01*
X2020052Y1618812D02*
X2021520D01*
X2020118Y1619172D02*
X2021304D01*
X2020185Y1619532D02*
X2021089D01*
X2020251Y1619892D02*
X2020873D01*
X2020102Y1620252D02*
X2020657D01*
X2019899Y1620612D02*
X2020442D01*
X2019697Y1620972D02*
X2020226D01*
X2019494Y1621332D02*
X2020010D01*
X2016445Y1619892D02*
X2018210D01*
X2016350Y1619532D02*
X2018185D01*
X2016678Y1619172D02*
X2018161D01*
X2016989Y1618812D02*
X2018136D01*
X2017048Y1620252D02*
X2018126D01*
X2017270Y1618452D02*
X2018111D01*
X2017537Y1618092D02*
X2017957D01*
X2017377Y1616292D02*
X2017926D01*
X2017651Y1620612D02*
X2017880D01*
X2017650Y1617732D02*
X2017757D01*
X2017655Y1617372D02*
X2017744D01*
X2017659Y1617012D02*
X2017732D01*
X2017608Y1616652D02*
X2017720D01*
X2010334Y1616292D02*
X2016420D01*
X2010952Y1616652D02*
X2016112D01*
X2011570Y1617012D02*
X2015805D01*
X2012188Y1617372D02*
X2015497D01*
X2012805Y1617732D02*
X2015189D01*
X2013423Y1618092D02*
X2014881D01*
X2014041Y1618452D02*
X2014573D01*
X2019513Y1617493D02*
X2019356Y1617543D01*
X2019011Y1617555*
X2018635Y1617191*
X2018528Y1616819*
X2018544Y1616588*
X2018612Y1616427*
X2015926Y1617257D02*
X2016089Y1617613D01*
X2016384Y1617804*
X2016694Y1617743*
X2017127Y1617214*
X2017258Y1616884*
X2017288Y1616627*
X2017223Y1616355*
G54D399*
X1979687Y1620153D02*
G03X1979687I-791J0D01*
G01X1977672Y1627713D02*
X1978536Y1621129D01*
X1985128Y1629481D02*
X1975696Y1619489D01*
X1980936Y1625561D02*
G03X1980976Y1625929I-6J187D01*
G01X1980936Y1625561D02*
X1979666D01*
X1979714Y1625969D02*
G03X1979666Y1625561I-35J-203D01*
G01X1979714Y1625969D02*
X1980968D01*
X1981248Y1628857D02*
X1981224Y1629097D01*
X1981112Y1629193*
X1980464Y1629225*
X1980000*
X1979784Y1629129*
X1979696Y1629049*
Y1628809*
X1983240Y1627809D02*
X1977520D01*
X1983536Y1627937D02*
X1983000Y1628265D01*
X1982600Y1628465*
X1982160Y1628585*
X1981688Y1628697*
X1981072Y1628785*
X1980608Y1628825*
X1980000Y1628809*
X1979416Y1628769*
X1978824Y1628673*
X1978328Y1628561*
X1977808Y1628393*
X1977352Y1628177*
X1977256Y1628113*
X1984936Y1619209D02*
X1975736Y1629601D01*
X1982792Y1628537D02*
Y1629033D01*
X1976968Y1628473D02*
X1977056Y1628641D01*
X1977168Y1628705*
X1977336Y1628697*
X1977416Y1628625*
X1977480Y1628553*
X1977488Y1628465*
Y1628297*
X1977672Y1626689D02*
X1977144D01*
G03Y1626121I124J-284*
G01X1977728*
X1979936Y1620017D02*
X1982800D01*
X1983512Y1627937*
X1979096Y1620153D02*
G03X1979096I-208J0D01*
G01X1982544Y1619833D02*
Y1619289D01*
X1981928*
Y1619857*
G54D400*
X1984959Y1585539D02*
G03X1984959I-4344J0D01*
G01X1982763Y1585499D02*
X1981881D01*
Y1587779D02*
G03Y1585499I-0J-1140D01*
G01Y1587779D02*
X1982763D01*
Y1585499*
X1979535Y1587779D02*
Y1585947D01*
X1979536Y1585967D02*
G03X1978172Y1585953I-662J-1880D01*
Y1583739I644J-1107*
G01X1979535*
Y1585967*
X1983359Y1588344D02*
X1977040Y1582081D01*
X1982763Y1583739D02*
Y1585499D01*
G74*
X0Y0D02*
M02*
