*
*
G04 PADS VX.2 Build Number: 5060570 generated Gerber (RS-274-X) file*
G04 PC Version=2.1*
*
%IN "PCB_ESP32-S3-MINI-1U_V1"*%
*
%MOIN*%
*
%FSLAX35Y35*%
*
*
*
*
G04 PC Standard Apertures*
*
*
G04 Thermal Relief Aperture macro.*
%AMTER*
1,1,$1,0,0*
1,0,$1-$2,0,0*
21,0,$3,$4,0,0,45*
21,0,$3,$4,0,0,135*
%
*
*
G04 Annular Aperture macro.*
%AMANN*
1,1,$1,0,0*
1,0,$2,0,0*
%
*
*
G04 Odd Aperture macro.*
%AMODD*
1,1,$1,0,0*
1,0,$1-0.005,0,0*
%
*
*
G04 PC Custom Aperture Macros*
*
*
*
*
*
*
G04 PC Aperture Table*
*
%ADD010C,0.001*%
%ADD024C,0.005*%
%ADD025C,0.006*%
%ADD031C,0.00394*%
%ADD035C,0.01969*%
%ADD036C,0.02362*%
%ADD204C,0.00394*%
%ADD347R,0.02956X0.01775*%
%ADD386R,0.02759X0.02169*%
%ADD387R,0.06106X0.02562*%
%ADD388R,0.02365X0.02169*%
%ADD389C,0.01066*%
%ADD390R,0.01617X0.01617*%
%ADD391C,0.00436*%
*
*
*
*
G04 PC Circuitry*
G04 Layer Name PCB_ESP32-S3-MINI-1U_V1 - circuitry*
%LPD*%
*
*
G04 PC Custom Flashes*
G04 Layer Name PCB_ESP32-S3-MINI-1U_V1 - flashes*
%LPD*%
*
*
G04 PC Circuitry*
G04 Layer Name PCB_ESP32-S3-MINI-1U_V1 - circuitry*
%LPD*%
*
G54D10*
G01X2010984Y1619993D02*
X2009243Y1621734D01*
X2007781Y1620271*
X2009522Y1618530*
X2010984Y1619993*
X2009448Y1618603D02*
X2009595D01*
X2009348Y1618703D02*
X2009695D01*
X2009248Y1618803D02*
X2009795D01*
X2009148Y1618903D02*
X2009895D01*
X2009048Y1619003D02*
X2009995D01*
X2008948Y1619103D02*
X2010095D01*
X2008848Y1619203D02*
X2010195D01*
X2008748Y1619303D02*
X2010295D01*
X2008648Y1619403D02*
X2010395D01*
X2008548Y1619503D02*
X2010495D01*
X2008448Y1619603D02*
X2010595D01*
X2008348Y1619703D02*
X2010695D01*
X2008248Y1619803D02*
X2010795D01*
X2008148Y1619903D02*
X2010895D01*
X2008048Y1620003D02*
X2010974D01*
X2007948Y1620103D02*
X2010874D01*
X2007848Y1620203D02*
X2010774D01*
X2007813Y1620303D02*
X2010674D01*
X2007913Y1620403D02*
X2010574D01*
X2008013Y1620503D02*
X2010474D01*
X2008113Y1620603D02*
X2010374D01*
X2008213Y1620703D02*
X2010274D01*
X2008313Y1620803D02*
X2010174D01*
X2008413Y1620903D02*
X2010074D01*
X2008513Y1621003D02*
X2009974D01*
X2008613Y1621103D02*
X2009874D01*
X2008713Y1621203D02*
X2009774D01*
X2008813Y1621303D02*
X2009674D01*
X2008913Y1621403D02*
X2009574D01*
X2009013Y1621503D02*
X2009474D01*
X2009113Y1621603D02*
X2009374D01*
X2009213Y1621703D02*
X2009274D01*
X2007804Y1620248D02*
Y1620294D01*
X2007904Y1620148D02*
Y1620394D01*
X2008004Y1620048D02*
Y1620494D01*
X2008104Y1619948D02*
Y1620594D01*
X2008204Y1619848D02*
Y1620694D01*
X2008304Y1619748D02*
Y1620794D01*
X2008404Y1619648D02*
Y1620894D01*
X2008504Y1619548D02*
Y1620994D01*
X2008604Y1619448D02*
Y1621094D01*
X2008704Y1619348D02*
Y1621194D01*
X2008804Y1619248D02*
Y1621294D01*
X2008904Y1619148D02*
Y1621394D01*
X2009004Y1619048D02*
Y1621494D01*
X2009104Y1618948D02*
Y1621594D01*
X2009204Y1618848D02*
Y1621694D01*
X2009304Y1618748D02*
Y1621673D01*
X2009404Y1618648D02*
Y1621573D01*
X2009504Y1618548D02*
Y1621473D01*
X2009604Y1618612D02*
Y1621373D01*
X2009704Y1618712D02*
Y1621273D01*
X2009804Y1618812D02*
Y1621173D01*
X2009904Y1618912D02*
Y1621073D01*
X2010004Y1619012D02*
Y1620973D01*
X2010104Y1619112D02*
Y1620873D01*
X2010204Y1619212D02*
Y1620773D01*
X2010304Y1619312D02*
Y1620673D01*
X2010404Y1619412D02*
Y1620573D01*
X2010504Y1619512D02*
Y1620473D01*
X2010604Y1619612D02*
Y1620373D01*
X2010704Y1619712D02*
Y1620273D01*
X2010804Y1619812D02*
Y1620173D01*
X2010904Y1619912D02*
Y1620073D01*
X2017387Y1614982D02*
X2014254Y1618115D01*
X2011400Y1615260*
X2014533Y1612127*
X2017387Y1614982*
X2014457Y1612203D02*
X2014609D01*
X2014357Y1612303D02*
X2014709D01*
X2014257Y1612403D02*
X2014809D01*
X2014157Y1612503D02*
X2014909D01*
X2014057Y1612603D02*
X2015009D01*
X2013957Y1612703D02*
X2015109D01*
X2013857Y1612803D02*
X2015209D01*
X2013757Y1612903D02*
X2015309D01*
X2013657Y1613003D02*
X2015409D01*
X2013557Y1613103D02*
X2015509D01*
X2013457Y1613203D02*
X2015609D01*
X2013357Y1613303D02*
X2015709D01*
X2013257Y1613403D02*
X2015809D01*
X2013157Y1613503D02*
X2015909D01*
X2013057Y1613603D02*
X2016009D01*
X2012957Y1613703D02*
X2016109D01*
X2012857Y1613803D02*
X2016209D01*
X2012757Y1613903D02*
X2016309D01*
X2012657Y1614003D02*
X2016409D01*
X2012557Y1614103D02*
X2016509D01*
X2012457Y1614203D02*
X2016609D01*
X2012357Y1614303D02*
X2016709D01*
X2012257Y1614403D02*
X2016809D01*
X2012157Y1614503D02*
X2016909D01*
X2012057Y1614603D02*
X2017009D01*
X2011957Y1614703D02*
X2017109D01*
X2011857Y1614803D02*
X2017209D01*
X2011757Y1614903D02*
X2017309D01*
X2011657Y1615003D02*
X2017366D01*
X2011557Y1615103D02*
X2017266D01*
X2011457Y1615203D02*
X2017166D01*
X2011443Y1615303D02*
X2017066D01*
X2011543Y1615403D02*
X2016966D01*
X2011643Y1615503D02*
X2016866D01*
X2011743Y1615603D02*
X2016766D01*
X2011843Y1615703D02*
X2016666D01*
X2011943Y1615803D02*
X2016566D01*
X2012043Y1615903D02*
X2016466D01*
X2012143Y1616003D02*
X2016366D01*
X2012243Y1616103D02*
X2016266D01*
X2012343Y1616203D02*
X2016166D01*
X2012443Y1616303D02*
X2016066D01*
X2012543Y1616403D02*
X2015966D01*
X2012643Y1616503D02*
X2015866D01*
X2012743Y1616603D02*
X2015766D01*
X2012843Y1616703D02*
X2015666D01*
X2012943Y1616803D02*
X2015566D01*
X2013043Y1616903D02*
X2015466D01*
X2013143Y1617003D02*
X2015366D01*
X2013243Y1617103D02*
X2015266D01*
X2013343Y1617203D02*
X2015166D01*
X2013443Y1617303D02*
X2015066D01*
X2013543Y1617403D02*
X2014966D01*
X2013643Y1617503D02*
X2014866D01*
X2013743Y1617603D02*
X2014766D01*
X2013843Y1617703D02*
X2014666D01*
X2013943Y1617803D02*
X2014566D01*
X2014043Y1617903D02*
X2014466D01*
X2014143Y1618003D02*
X2014366D01*
X2014243Y1618103D02*
X2014266D01*
X2011404Y1615256D02*
Y1615264D01*
X2011504Y1615156D02*
Y1615364D01*
X2011604Y1615056D02*
Y1615464D01*
X2011704Y1614956D02*
Y1615564D01*
X2011804Y1614856D02*
Y1615664D01*
X2011904Y1614756D02*
Y1615764D01*
X2012004Y1614656D02*
Y1615864D01*
X2012104Y1614556D02*
Y1615964D01*
X2012204Y1614456D02*
Y1616064D01*
X2012304Y1614356D02*
Y1616164D01*
X2012404Y1614256D02*
Y1616264D01*
X2012504Y1614156D02*
Y1616364D01*
X2012604Y1614056D02*
Y1616464D01*
X2012704Y1613956D02*
Y1616564D01*
X2012804Y1613856D02*
Y1616664D01*
X2012904Y1613756D02*
Y1616764D01*
X2013004Y1613656D02*
Y1616864D01*
X2013104Y1613556D02*
Y1616964D01*
X2013204Y1613456D02*
Y1617064D01*
X2013304Y1613356D02*
Y1617164D01*
X2013404Y1613256D02*
Y1617264D01*
X2013504Y1613156D02*
Y1617364D01*
X2013604Y1613056D02*
Y1617464D01*
X2013704Y1612956D02*
Y1617564D01*
X2013804Y1612856D02*
Y1617664D01*
X2013904Y1612756D02*
Y1617764D01*
X2014004Y1612656D02*
Y1617864D01*
X2014104Y1612556D02*
Y1617964D01*
X2014204Y1612456D02*
Y1618064D01*
X2014304Y1612356D02*
Y1618065D01*
X2014404Y1612256D02*
Y1617965D01*
X2014504Y1612156D02*
Y1617865D01*
X2014604Y1612198D02*
Y1617765D01*
X2014704Y1612298D02*
Y1617665D01*
X2014804Y1612398D02*
Y1617565D01*
X2014904Y1612498D02*
Y1617465D01*
X2015004Y1612598D02*
Y1617365D01*
X2015104Y1612698D02*
Y1617265D01*
X2015204Y1612798D02*
Y1617165D01*
X2015304Y1612898D02*
Y1617065D01*
X2015404Y1612998D02*
Y1616965D01*
X2015504Y1613098D02*
Y1616865D01*
X2015604Y1613198D02*
Y1616765D01*
X2015704Y1613298D02*
Y1616665D01*
X2015804Y1613398D02*
Y1616565D01*
X2015904Y1613498D02*
Y1616465D01*
X2016004Y1613598D02*
Y1616365D01*
X2016104Y1613698D02*
Y1616265D01*
X2016204Y1613798D02*
Y1616165D01*
X2016304Y1613898D02*
Y1616065D01*
X2016404Y1613998D02*
Y1615965D01*
X2016504Y1614098D02*
Y1615865D01*
X2016604Y1614198D02*
Y1615765D01*
X2016704Y1614298D02*
Y1615665D01*
X2016804Y1614398D02*
Y1615565D01*
X2016904Y1614498D02*
Y1615465D01*
X2017004Y1614598D02*
Y1615365D01*
X2017104Y1614698D02*
Y1615265D01*
X2017204Y1614798D02*
Y1615165D01*
X2017304Y1614898D02*
Y1615065D01*
X2021563Y1619157D02*
X2018430Y1622290D01*
X2015576Y1619436*
X2018709Y1616303*
X2021563Y1619157*
X2018708Y1616303D02*
X2018709D01*
X2018608Y1616403D02*
X2018809D01*
X2018508Y1616503D02*
X2018909D01*
X2018408Y1616603D02*
X2019009D01*
X2018308Y1616703D02*
X2019109D01*
X2018208Y1616803D02*
X2019209D01*
X2018108Y1616903D02*
X2019309D01*
X2018008Y1617003D02*
X2019409D01*
X2017908Y1617103D02*
X2019509D01*
X2017808Y1617203D02*
X2019609D01*
X2017708Y1617303D02*
X2019709D01*
X2017608Y1617403D02*
X2019809D01*
X2017508Y1617503D02*
X2019909D01*
X2017408Y1617603D02*
X2020009D01*
X2017308Y1617703D02*
X2020109D01*
X2017208Y1617803D02*
X2020209D01*
X2017108Y1617903D02*
X2020309D01*
X2017008Y1618003D02*
X2020409D01*
X2016908Y1618103D02*
X2020509D01*
X2016808Y1618203D02*
X2020609D01*
X2016708Y1618303D02*
X2020709D01*
X2016608Y1618403D02*
X2020809D01*
X2016508Y1618503D02*
X2020909D01*
X2016408Y1618603D02*
X2021009D01*
X2016308Y1618703D02*
X2021109D01*
X2016208Y1618803D02*
X2021209D01*
X2016108Y1618903D02*
X2021309D01*
X2016008Y1619003D02*
X2021409D01*
X2015908Y1619103D02*
X2021509D01*
X2015808Y1619203D02*
X2021517D01*
X2015708Y1619303D02*
X2021417D01*
X2015608Y1619403D02*
X2021317D01*
X2015643Y1619503D02*
X2021217D01*
X2015743Y1619603D02*
X2021117D01*
X2015843Y1619703D02*
X2021017D01*
X2015943Y1619803D02*
X2020917D01*
X2016043Y1619903D02*
X2020817D01*
X2016143Y1620003D02*
X2020717D01*
X2016243Y1620103D02*
X2020617D01*
X2016343Y1620203D02*
X2020517D01*
X2016443Y1620303D02*
X2020417D01*
X2016543Y1620403D02*
X2020317D01*
X2016643Y1620503D02*
X2020217D01*
X2016743Y1620603D02*
X2020117D01*
X2016843Y1620703D02*
X2020017D01*
X2016943Y1620803D02*
X2019917D01*
X2017043Y1620903D02*
X2019817D01*
X2017143Y1621003D02*
X2019717D01*
X2017243Y1621103D02*
X2019617D01*
X2017343Y1621203D02*
X2019517D01*
X2017443Y1621303D02*
X2019417D01*
X2017543Y1621403D02*
X2019317D01*
X2017643Y1621503D02*
X2019217D01*
X2017743Y1621603D02*
X2019117D01*
X2017843Y1621703D02*
X2019017D01*
X2017943Y1621803D02*
X2018917D01*
X2018043Y1621903D02*
X2018817D01*
X2018143Y1622003D02*
X2018717D01*
X2018243Y1622103D02*
X2018617D01*
X2018343Y1622203D02*
X2018517D01*
X2015604Y1619407D02*
Y1619464D01*
X2015704Y1619307D02*
Y1619564D01*
X2015804Y1619207D02*
Y1619664D01*
X2015904Y1619107D02*
Y1619764D01*
X2016004Y1619007D02*
Y1619864D01*
X2016104Y1618907D02*
Y1619964D01*
X2016204Y1618807D02*
Y1620064D01*
X2016304Y1618707D02*
Y1620164D01*
X2016404Y1618607D02*
Y1620264D01*
X2016504Y1618507D02*
Y1620364D01*
X2016604Y1618407D02*
Y1620464D01*
X2016704Y1618307D02*
Y1620564D01*
X2016804Y1618207D02*
Y1620664D01*
X2016904Y1618107D02*
Y1620764D01*
X2017004Y1618007D02*
Y1620864D01*
X2017104Y1617907D02*
Y1620964D01*
X2017204Y1617807D02*
Y1621064D01*
X2017304Y1617707D02*
Y1621164D01*
X2017404Y1617607D02*
Y1621264D01*
X2017504Y1617507D02*
Y1621364D01*
X2017604Y1617407D02*
Y1621464D01*
X2017704Y1617307D02*
Y1621564D01*
X2017804Y1617207D02*
Y1621664D01*
X2017904Y1617107D02*
Y1621764D01*
X2018004Y1617007D02*
Y1621864D01*
X2018104Y1616907D02*
Y1621964D01*
X2018204Y1616807D02*
Y1622064D01*
X2018304Y1616707D02*
Y1622164D01*
X2018404Y1616607D02*
Y1622264D01*
X2018504Y1616507D02*
Y1622217D01*
X2018604Y1616407D02*
Y1622117D01*
X2018704Y1616307D02*
Y1622017D01*
X2018804Y1616398D02*
Y1621917D01*
X2018904Y1616498D02*
Y1621817D01*
X2019004Y1616598D02*
Y1621717D01*
X2019104Y1616698D02*
Y1621617D01*
X2019204Y1616798D02*
Y1621517D01*
X2019304Y1616898D02*
Y1621417D01*
X2019404Y1616998D02*
Y1621317D01*
X2019504Y1617098D02*
Y1621217D01*
X2019604Y1617198D02*
Y1621117D01*
X2019704Y1617298D02*
Y1621017D01*
X2019804Y1617398D02*
Y1620917D01*
X2019904Y1617498D02*
Y1620817D01*
X2020004Y1617598D02*
Y1620717D01*
X2020104Y1617698D02*
Y1620617D01*
X2020204Y1617798D02*
Y1620517D01*
X2020304Y1617898D02*
Y1620417D01*
X2020404Y1617998D02*
Y1620317D01*
X2020504Y1618098D02*
Y1620217D01*
X2020604Y1618198D02*
Y1620117D01*
X2020704Y1618298D02*
Y1620017D01*
X2020804Y1618398D02*
Y1619917D01*
X2020904Y1618498D02*
Y1619817D01*
X2021004Y1618598D02*
Y1619717D01*
X2021104Y1618698D02*
Y1619617D01*
X2021204Y1618798D02*
Y1619517D01*
X2021304Y1618898D02*
Y1619417D01*
X2021404Y1618998D02*
Y1619317D01*
X2021504Y1619098D02*
Y1619217D01*
X2016552Y1624168D02*
X2013419Y1627301D01*
X2010565Y1624447*
X2013698Y1621314*
X2016552Y1624168*
X2013608Y1621403D02*
X2013787D01*
X2013508Y1621503D02*
X2013887D01*
X2013408Y1621603D02*
X2013987D01*
X2013308Y1621703D02*
X2014087D01*
X2013208Y1621803D02*
X2014187D01*
X2013108Y1621903D02*
X2014287D01*
X2013008Y1622003D02*
X2014387D01*
X2012908Y1622103D02*
X2014487D01*
X2012808Y1622203D02*
X2014587D01*
X2012708Y1622303D02*
X2014687D01*
X2012608Y1622403D02*
X2014787D01*
X2012508Y1622503D02*
X2014887D01*
X2012408Y1622603D02*
X2014987D01*
X2012308Y1622703D02*
X2015087D01*
X2012208Y1622803D02*
X2015187D01*
X2012108Y1622903D02*
X2015287D01*
X2012008Y1623003D02*
X2015387D01*
X2011908Y1623103D02*
X2015487D01*
X2011808Y1623203D02*
X2015587D01*
X2011708Y1623303D02*
X2015687D01*
X2011608Y1623403D02*
X2015787D01*
X2011508Y1623503D02*
X2015887D01*
X2011408Y1623603D02*
X2015987D01*
X2011308Y1623703D02*
X2016087D01*
X2011208Y1623803D02*
X2016187D01*
X2011108Y1623903D02*
X2016287D01*
X2011008Y1624003D02*
X2016387D01*
X2010908Y1624103D02*
X2016487D01*
X2010808Y1624203D02*
X2016517D01*
X2010708Y1624303D02*
X2016417D01*
X2010608Y1624403D02*
X2016317D01*
X2010621Y1624503D02*
X2016217D01*
X2010721Y1624603D02*
X2016117D01*
X2010821Y1624703D02*
X2016017D01*
X2010921Y1624803D02*
X2015917D01*
X2011021Y1624903D02*
X2015817D01*
X2011121Y1625003D02*
X2015717D01*
X2011221Y1625103D02*
X2015617D01*
X2011321Y1625203D02*
X2015517D01*
X2011421Y1625303D02*
X2015417D01*
X2011521Y1625403D02*
X2015317D01*
X2011621Y1625503D02*
X2015217D01*
X2011721Y1625603D02*
X2015117D01*
X2011821Y1625703D02*
X2015017D01*
X2011921Y1625803D02*
X2014917D01*
X2012021Y1625903D02*
X2014817D01*
X2012121Y1626003D02*
X2014717D01*
X2012221Y1626103D02*
X2014617D01*
X2012321Y1626203D02*
X2014517D01*
X2012421Y1626303D02*
X2014417D01*
X2012521Y1626403D02*
X2014317D01*
X2012621Y1626503D02*
X2014217D01*
X2012721Y1626603D02*
X2014117D01*
X2012821Y1626703D02*
X2014017D01*
X2012921Y1626803D02*
X2013917D01*
X2013021Y1626903D02*
X2013817D01*
X2013121Y1627003D02*
X2013717D01*
X2013221Y1627103D02*
X2013617D01*
X2013321Y1627203D02*
X2013517D01*
X2010604Y1624407D02*
Y1624486D01*
X2010704Y1624307D02*
Y1624586D01*
X2010804Y1624207D02*
Y1624686D01*
X2010904Y1624107D02*
Y1624786D01*
X2011004Y1624007D02*
Y1624886D01*
X2011104Y1623907D02*
Y1624986D01*
X2011204Y1623807D02*
Y1625086D01*
X2011304Y1623707D02*
Y1625186D01*
X2011404Y1623607D02*
Y1625286D01*
X2011504Y1623507D02*
Y1625386D01*
X2011604Y1623407D02*
Y1625486D01*
X2011704Y1623307D02*
Y1625586D01*
X2011804Y1623207D02*
Y1625686D01*
X2011904Y1623107D02*
Y1625786D01*
X2012004Y1623007D02*
Y1625886D01*
X2012104Y1622907D02*
Y1625986D01*
X2012204Y1622807D02*
Y1626086D01*
X2012304Y1622707D02*
Y1626186D01*
X2012404Y1622607D02*
Y1626286D01*
X2012504Y1622507D02*
Y1626386D01*
X2012604Y1622407D02*
Y1626486D01*
X2012704Y1622307D02*
Y1626586D01*
X2012804Y1622207D02*
Y1626686D01*
X2012904Y1622107D02*
Y1626786D01*
X2013004Y1622007D02*
Y1626886D01*
X2013104Y1621907D02*
Y1626986D01*
X2013204Y1621807D02*
Y1627086D01*
X2013304Y1621707D02*
Y1627186D01*
X2013404Y1621607D02*
Y1627286D01*
X2013504Y1621507D02*
Y1627217D01*
X2013604Y1621407D02*
Y1627117D01*
X2013704Y1621320D02*
Y1627017D01*
X2013804Y1621420D02*
Y1626917D01*
X2013904Y1621520D02*
Y1626817D01*
X2014004Y1621620D02*
Y1626717D01*
X2014104Y1621720D02*
Y1626617D01*
X2014204Y1621820D02*
Y1626517D01*
X2014304Y1621920D02*
Y1626417D01*
X2014404Y1622020D02*
Y1626317D01*
X2014504Y1622120D02*
Y1626217D01*
X2014604Y1622220D02*
Y1626117D01*
X2014704Y1622320D02*
Y1626017D01*
X2014804Y1622420D02*
Y1625917D01*
X2014904Y1622520D02*
Y1625817D01*
X2015004Y1622620D02*
Y1625717D01*
X2015104Y1622720D02*
Y1625617D01*
X2015204Y1622820D02*
Y1625517D01*
X2015304Y1622920D02*
Y1625417D01*
X2015404Y1623020D02*
Y1625317D01*
X2015504Y1623120D02*
Y1625217D01*
X2015604Y1623220D02*
Y1625117D01*
X2015704Y1623320D02*
Y1625017D01*
X2015804Y1623420D02*
Y1624917D01*
X2015904Y1623520D02*
Y1624817D01*
X2016004Y1623620D02*
Y1624717D01*
X2016104Y1623720D02*
Y1624617D01*
X2016204Y1623820D02*
Y1624517D01*
X2016304Y1623920D02*
Y1624417D01*
X2016404Y1624020D02*
Y1624317D01*
X2016504Y1624120D02*
Y1624217D01*
X1995454Y1614526D02*
X1993574Y1616406D01*
X1992891Y1615723*
X1994771Y1613843*
X1995454Y1614526*
X1994711Y1613903D02*
X1994832D01*
X1994611Y1614003D02*
X1994932D01*
X1994511Y1614103D02*
X1995032D01*
X1994411Y1614203D02*
X1995132D01*
X1994311Y1614303D02*
X1995232D01*
X1994211Y1614403D02*
X1995332D01*
X1994111Y1614503D02*
X1995432D01*
X1994011Y1614603D02*
X1995377D01*
X1993911Y1614703D02*
X1995277D01*
X1993811Y1614803D02*
X1995177D01*
X1993711Y1614903D02*
X1995077D01*
X1993611Y1615003D02*
X1994977D01*
X1993511Y1615103D02*
X1994877D01*
X1993411Y1615203D02*
X1994777D01*
X1993311Y1615303D02*
X1994677D01*
X1993211Y1615403D02*
X1994577D01*
X1993111Y1615503D02*
X1994477D01*
X1993011Y1615603D02*
X1994377D01*
X1992911Y1615703D02*
X1994277D01*
X1992971Y1615803D02*
X1994177D01*
X1993071Y1615903D02*
X1994077D01*
X1993171Y1616003D02*
X1993977D01*
X1993271Y1616103D02*
X1993877D01*
X1993371Y1616203D02*
X1993777D01*
X1993471Y1616303D02*
X1993677D01*
X1993571Y1616403D02*
X1993577D01*
X1992904Y1615710D02*
Y1615736D01*
X1993004Y1615610D02*
Y1615836D01*
X1993104Y1615510D02*
Y1615936D01*
X1993204Y1615410D02*
Y1616036D01*
X1993304Y1615310D02*
Y1616136D01*
X1993404Y1615210D02*
Y1616236D01*
X1993504Y1615110D02*
Y1616336D01*
X1993604Y1615010D02*
Y1616376D01*
X1993704Y1614910D02*
Y1616276D01*
X1993804Y1614810D02*
Y1616176D01*
X1993904Y1614710D02*
Y1616076D01*
X1994004Y1614610D02*
Y1615976D01*
X1994104Y1614510D02*
Y1615876D01*
X1994204Y1614410D02*
Y1615776D01*
X1994304Y1614310D02*
Y1615676D01*
X1994404Y1614210D02*
Y1615576D01*
X1994504Y1614110D02*
Y1615476D01*
X1994604Y1614010D02*
Y1615376D01*
X1994704Y1613910D02*
Y1615276D01*
X1994804Y1613876D02*
Y1615176D01*
X1994904Y1613976D02*
Y1615076D01*
X1995004Y1614076D02*
Y1614976D01*
X1995104Y1614176D02*
Y1614876D01*
X1995204Y1614276D02*
Y1614776D01*
X1995304Y1614376D02*
Y1614676D01*
X1995404Y1614476D02*
Y1614576D01*
X1994341Y1613412D02*
X1992461Y1615293D01*
X1991777Y1614609*
X1993658Y1612729*
X1994341Y1613412*
X1993584Y1612803D02*
X1993732D01*
X1993484Y1612903D02*
X1993832D01*
X1993384Y1613003D02*
X1993932D01*
X1993284Y1613103D02*
X1994032D01*
X1993184Y1613203D02*
X1994132D01*
X1993084Y1613303D02*
X1994232D01*
X1992984Y1613403D02*
X1994332D01*
X1992884Y1613503D02*
X1994250D01*
X1992784Y1613603D02*
X1994150D01*
X1992684Y1613703D02*
X1994050D01*
X1992584Y1613803D02*
X1993950D01*
X1992484Y1613903D02*
X1993850D01*
X1992384Y1614003D02*
X1993750D01*
X1992284Y1614103D02*
X1993650D01*
X1992184Y1614203D02*
X1993550D01*
X1992084Y1614303D02*
X1993450D01*
X1991984Y1614403D02*
X1993350D01*
X1991884Y1614503D02*
X1993250D01*
X1991784Y1614603D02*
X1993150D01*
X1991871Y1614703D02*
X1993050D01*
X1991971Y1614803D02*
X1992950D01*
X1992071Y1614903D02*
X1992850D01*
X1992171Y1615003D02*
X1992750D01*
X1992271Y1615103D02*
X1992650D01*
X1992371Y1615203D02*
X1992550D01*
X1991804Y1614583D02*
Y1614636D01*
X1991904Y1614483D02*
Y1614736D01*
X1992004Y1614383D02*
Y1614836D01*
X1992104Y1614283D02*
Y1614936D01*
X1992204Y1614183D02*
Y1615036D01*
X1992304Y1614083D02*
Y1615136D01*
X1992404Y1613983D02*
Y1615236D01*
X1992504Y1613883D02*
Y1615249D01*
X1992604Y1613783D02*
Y1615149D01*
X1992704Y1613683D02*
Y1615049D01*
X1992804Y1613583D02*
Y1614949D01*
X1992904Y1613483D02*
Y1614849D01*
X1993004Y1613383D02*
Y1614749D01*
X1993104Y1613283D02*
Y1614649D01*
X1993204Y1613183D02*
Y1614549D01*
X1993304Y1613083D02*
Y1614449D01*
X1993404Y1612983D02*
Y1614349D01*
X1993504Y1612883D02*
Y1614249D01*
X1993604Y1612783D02*
Y1614149D01*
X1993704Y1612776D02*
Y1614049D01*
X1993804Y1612876D02*
Y1613949D01*
X1993904Y1612976D02*
Y1613849D01*
X1994004Y1613076D02*
Y1613749D01*
X1994104Y1613176D02*
Y1613649D01*
X1994204Y1613276D02*
Y1613549D01*
X1994304Y1613376D02*
Y1613449D01*
X1993227Y1612299D02*
X1991347Y1614179D01*
X1990664Y1613496*
X1992544Y1611616*
X1993227Y1612299*
X1992457Y1611703D02*
X1992632D01*
X1992357Y1611803D02*
X1992732D01*
X1992257Y1611903D02*
X1992832D01*
X1992157Y1612003D02*
X1992932D01*
X1992057Y1612103D02*
X1993032D01*
X1991957Y1612203D02*
X1993132D01*
X1991857Y1612303D02*
X1993223D01*
X1991757Y1612403D02*
X1993123D01*
X1991657Y1612503D02*
X1993023D01*
X1991557Y1612603D02*
X1992923D01*
X1991457Y1612703D02*
X1992823D01*
X1991357Y1612803D02*
X1992723D01*
X1991257Y1612903D02*
X1992623D01*
X1991157Y1613003D02*
X1992523D01*
X1991057Y1613103D02*
X1992423D01*
X1990957Y1613203D02*
X1992323D01*
X1990857Y1613303D02*
X1992223D01*
X1990757Y1613403D02*
X1992123D01*
X1990671Y1613503D02*
X1992023D01*
X1990771Y1613603D02*
X1991923D01*
X1990871Y1613703D02*
X1991823D01*
X1990971Y1613803D02*
X1991723D01*
X1991071Y1613903D02*
X1991623D01*
X1991171Y1614003D02*
X1991523D01*
X1991271Y1614103D02*
X1991423D01*
X1990704Y1613456D02*
Y1613536D01*
X1990804Y1613356D02*
Y1613636D01*
X1990904Y1613256D02*
Y1613736D01*
X1991004Y1613156D02*
Y1613836D01*
X1991104Y1613056D02*
Y1613936D01*
X1991204Y1612956D02*
Y1614036D01*
X1991304Y1612856D02*
Y1614136D01*
X1991404Y1612756D02*
Y1614122D01*
X1991504Y1612656D02*
Y1614022D01*
X1991604Y1612556D02*
Y1613922D01*
X1991704Y1612456D02*
Y1613822D01*
X1991804Y1612356D02*
Y1613722D01*
X1991904Y1612256D02*
Y1613622D01*
X1992004Y1612156D02*
Y1613522D01*
X1992104Y1612056D02*
Y1613422D01*
X1992204Y1611956D02*
Y1613322D01*
X1992304Y1611856D02*
Y1613222D01*
X1992404Y1611756D02*
Y1613122D01*
X1992504Y1611656D02*
Y1613022D01*
X1992604Y1611676D02*
Y1612922D01*
X1992704Y1611776D02*
Y1612822D01*
X1992804Y1611876D02*
Y1612722D01*
X1992904Y1611976D02*
Y1612622D01*
X1993004Y1612076D02*
Y1612522D01*
X1993104Y1612176D02*
Y1612422D01*
X1993204Y1612276D02*
Y1612322D01*
X1992114Y1611185D02*
X1990233Y1613066D01*
X1989550Y1612382*
X1991431Y1610502*
X1992114Y1611185*
X1991430Y1610503D02*
X1991432D01*
X1991330Y1610603D02*
X1991532D01*
X1991230Y1610703D02*
X1991632D01*
X1991130Y1610803D02*
X1991732D01*
X1991030Y1610903D02*
X1991832D01*
X1990930Y1611003D02*
X1991932D01*
X1990830Y1611103D02*
X1992032D01*
X1990730Y1611203D02*
X1992096D01*
X1990630Y1611303D02*
X1991996D01*
X1990530Y1611403D02*
X1991896D01*
X1990430Y1611503D02*
X1991796D01*
X1990330Y1611603D02*
X1991696D01*
X1990230Y1611703D02*
X1991596D01*
X1990130Y1611803D02*
X1991496D01*
X1990030Y1611903D02*
X1991396D01*
X1989930Y1612003D02*
X1991296D01*
X1989830Y1612103D02*
X1991196D01*
X1989730Y1612203D02*
X1991096D01*
X1989630Y1612303D02*
X1990996D01*
X1989571Y1612403D02*
X1990896D01*
X1989671Y1612503D02*
X1990796D01*
X1989771Y1612603D02*
X1990696D01*
X1989871Y1612703D02*
X1990596D01*
X1989971Y1612803D02*
X1990496D01*
X1990071Y1612903D02*
X1990396D01*
X1990171Y1613003D02*
X1990296D01*
X1989604Y1612329D02*
Y1612436D01*
X1989704Y1612229D02*
Y1612536D01*
X1989804Y1612129D02*
Y1612636D01*
X1989904Y1612029D02*
Y1612736D01*
X1990004Y1611929D02*
Y1612836D01*
X1990104Y1611829D02*
Y1612936D01*
X1990204Y1611729D02*
Y1613036D01*
X1990304Y1611629D02*
Y1612995D01*
X1990404Y1611529D02*
Y1612895D01*
X1990504Y1611429D02*
Y1612795D01*
X1990604Y1611329D02*
Y1612695D01*
X1990704Y1611229D02*
Y1612595D01*
X1990804Y1611129D02*
Y1612495D01*
X1990904Y1611029D02*
Y1612395D01*
X1991004Y1610929D02*
Y1612295D01*
X1991104Y1610829D02*
Y1612195D01*
X1991204Y1610729D02*
Y1612095D01*
X1991304Y1610629D02*
Y1611995D01*
X1991404Y1610529D02*
Y1611895D01*
X1991504Y1610576D02*
Y1611795D01*
X1991604Y1610676D02*
Y1611695D01*
X1991704Y1610776D02*
Y1611595D01*
X1991804Y1610876D02*
Y1611495D01*
X1991904Y1610976D02*
Y1611395D01*
X1992004Y1611076D02*
Y1611295D01*
X1992104Y1611176D02*
Y1611195D01*
X1991000Y1610072D02*
X1989120Y1611952D01*
X1988437Y1611269*
X1990317Y1609389*
X1991000Y1610072*
X1990302Y1609403D02*
X1990332D01*
X1990202Y1609503D02*
X1990432D01*
X1990102Y1609603D02*
X1990532D01*
X1990002Y1609703D02*
X1990632D01*
X1989902Y1609803D02*
X1990732D01*
X1989802Y1609903D02*
X1990832D01*
X1989702Y1610003D02*
X1990932D01*
X1989602Y1610103D02*
X1990969D01*
X1989502Y1610203D02*
X1990869D01*
X1989402Y1610303D02*
X1990769D01*
X1989302Y1610403D02*
X1990669D01*
X1989202Y1610503D02*
X1990569D01*
X1989102Y1610603D02*
X1990469D01*
X1989002Y1610703D02*
X1990369D01*
X1988902Y1610803D02*
X1990269D01*
X1988802Y1610903D02*
X1990169D01*
X1988702Y1611003D02*
X1990069D01*
X1988602Y1611103D02*
X1989969D01*
X1988502Y1611203D02*
X1989869D01*
X1988471Y1611303D02*
X1989769D01*
X1988571Y1611403D02*
X1989669D01*
X1988671Y1611503D02*
X1989569D01*
X1988771Y1611603D02*
X1989469D01*
X1988871Y1611703D02*
X1989369D01*
X1988971Y1611803D02*
X1989269D01*
X1989071Y1611903D02*
X1989169D01*
X1988504Y1611202D02*
Y1611336D01*
X1988604Y1611102D02*
Y1611436D01*
X1988704Y1611002D02*
Y1611536D01*
X1988804Y1610902D02*
Y1611636D01*
X1988904Y1610802D02*
Y1611736D01*
X1989004Y1610702D02*
Y1611836D01*
X1989104Y1610602D02*
Y1611936D01*
X1989204Y1610502D02*
Y1611868D01*
X1989304Y1610402D02*
Y1611768D01*
X1989404Y1610302D02*
Y1611668D01*
X1989504Y1610202D02*
Y1611568D01*
X1989604Y1610102D02*
Y1611468D01*
X1989704Y1610002D02*
Y1611368D01*
X1989804Y1609902D02*
Y1611268D01*
X1989904Y1609802D02*
Y1611168D01*
X1990004Y1609702D02*
Y1611068D01*
X1990104Y1609602D02*
Y1610968D01*
X1990204Y1609502D02*
Y1610868D01*
X1990304Y1609402D02*
Y1610768D01*
X1990404Y1609476D02*
Y1610668D01*
X1990504Y1609576D02*
Y1610568D01*
X1990604Y1609676D02*
Y1610468D01*
X1990704Y1609776D02*
Y1610368D01*
X1990804Y1609876D02*
Y1610268D01*
X1990904Y1609976D02*
Y1610168D01*
X1989887Y1608958D02*
X1988006Y1610838D01*
X1987323Y1610155*
X1989203Y1608275*
X1989887Y1608958*
X1989175Y1608303D02*
X1989232D01*
X1989075Y1608403D02*
X1989332D01*
X1988975Y1608503D02*
X1989432D01*
X1988875Y1608603D02*
X1989532D01*
X1988775Y1608703D02*
X1989632D01*
X1988675Y1608803D02*
X1989732D01*
X1988575Y1608903D02*
X1989832D01*
X1988475Y1609003D02*
X1989842D01*
X1988375Y1609103D02*
X1989742D01*
X1988275Y1609203D02*
X1989642D01*
X1988175Y1609303D02*
X1989542D01*
X1988075Y1609403D02*
X1989442D01*
X1987975Y1609503D02*
X1989342D01*
X1987875Y1609603D02*
X1989242D01*
X1987775Y1609703D02*
X1989142D01*
X1987675Y1609803D02*
X1989042D01*
X1987575Y1609903D02*
X1988942D01*
X1987475Y1610003D02*
X1988842D01*
X1987375Y1610103D02*
X1988742D01*
X1987371Y1610203D02*
X1988642D01*
X1987471Y1610303D02*
X1988542D01*
X1987571Y1610403D02*
X1988442D01*
X1987671Y1610503D02*
X1988342D01*
X1987771Y1610603D02*
X1988242D01*
X1987871Y1610703D02*
X1988142D01*
X1987971Y1610803D02*
X1988042D01*
X1987404Y1610075D02*
Y1610236D01*
X1987504Y1609975D02*
Y1610336D01*
X1987604Y1609875D02*
Y1610436D01*
X1987704Y1609775D02*
Y1610536D01*
X1987804Y1609675D02*
Y1610636D01*
X1987904Y1609575D02*
Y1610736D01*
X1988004Y1609475D02*
Y1610836D01*
X1988104Y1609375D02*
Y1610741D01*
X1988204Y1609275D02*
Y1610641D01*
X1988304Y1609175D02*
Y1610541D01*
X1988404Y1609075D02*
Y1610441D01*
X1988504Y1608975D02*
Y1610341D01*
X1988604Y1608875D02*
Y1610241D01*
X1988704Y1608775D02*
Y1610141D01*
X1988804Y1608675D02*
Y1610041D01*
X1988904Y1608575D02*
Y1609941D01*
X1989004Y1608475D02*
Y1609841D01*
X1989104Y1608375D02*
Y1609741D01*
X1989204Y1608276D02*
Y1609641D01*
X1989304Y1608376D02*
Y1609541D01*
X1989404Y1608476D02*
Y1609441D01*
X1989504Y1608576D02*
Y1609341D01*
X1989604Y1608676D02*
Y1609241D01*
X1989704Y1608776D02*
Y1609141D01*
X1989804Y1608876D02*
Y1609041D01*
X1988773Y1607845D02*
X1986893Y1609725D01*
X1986210Y1609042*
X1988090Y1607161*
X1988773Y1607845*
X1988048Y1607203D02*
X1988132D01*
X1987948Y1607303D02*
X1988232D01*
X1987848Y1607403D02*
X1988332D01*
X1987748Y1607503D02*
X1988432D01*
X1987648Y1607603D02*
X1988532D01*
X1987548Y1607703D02*
X1988632D01*
X1987448Y1607803D02*
X1988732D01*
X1987348Y1607903D02*
X1988715D01*
X1987248Y1608003D02*
X1988615D01*
X1987148Y1608103D02*
X1988515D01*
X1987048Y1608203D02*
X1988415D01*
X1986948Y1608303D02*
X1988315D01*
X1986848Y1608403D02*
X1988215D01*
X1986748Y1608503D02*
X1988115D01*
X1986648Y1608603D02*
X1988015D01*
X1986548Y1608703D02*
X1987915D01*
X1986448Y1608803D02*
X1987815D01*
X1986348Y1608903D02*
X1987715D01*
X1986248Y1609003D02*
X1987615D01*
X1986271Y1609103D02*
X1987515D01*
X1986371Y1609203D02*
X1987415D01*
X1986471Y1609303D02*
X1987315D01*
X1986571Y1609403D02*
X1987215D01*
X1986671Y1609503D02*
X1987115D01*
X1986771Y1609603D02*
X1987015D01*
X1986871Y1609703D02*
X1986915D01*
X1986304Y1608947D02*
Y1609136D01*
X1986404Y1608847D02*
Y1609236D01*
X1986504Y1608747D02*
Y1609336D01*
X1986604Y1608647D02*
Y1609436D01*
X1986704Y1608547D02*
Y1609536D01*
X1986804Y1608447D02*
Y1609636D01*
X1986904Y1608347D02*
Y1609714D01*
X1987004Y1608247D02*
Y1609614D01*
X1987104Y1608147D02*
Y1609514D01*
X1987204Y1608047D02*
Y1609414D01*
X1987304Y1607947D02*
Y1609314D01*
X1987404Y1607847D02*
Y1609214D01*
X1987504Y1607747D02*
Y1609114D01*
X1987604Y1607647D02*
Y1609014D01*
X1987704Y1607547D02*
Y1608914D01*
X1987804Y1607447D02*
Y1608814D01*
X1987904Y1607347D02*
Y1608714D01*
X1988004Y1607247D02*
Y1608614D01*
X1988104Y1607176D02*
Y1608514D01*
X1988204Y1607276D02*
Y1608414D01*
X1988304Y1607376D02*
Y1608314D01*
X1988404Y1607476D02*
Y1608214D01*
X1988504Y1607576D02*
Y1608114D01*
X1988604Y1607676D02*
Y1608014D01*
X1988704Y1607776D02*
Y1607914D01*
X1987659Y1606731D02*
X1985779Y1608611D01*
X1985096Y1607928*
X1986976Y1606048*
X1987659Y1606731*
X1986921Y1606103D02*
X1987032D01*
X1986821Y1606203D02*
X1987132D01*
X1986721Y1606303D02*
X1987232D01*
X1986621Y1606403D02*
X1987332D01*
X1986521Y1606503D02*
X1987432D01*
X1986421Y1606603D02*
X1987532D01*
X1986321Y1606703D02*
X1987632D01*
X1986221Y1606803D02*
X1987587D01*
X1986121Y1606903D02*
X1987487D01*
X1986021Y1607003D02*
X1987387D01*
X1985921Y1607103D02*
X1987287D01*
X1985821Y1607203D02*
X1987187D01*
X1985721Y1607303D02*
X1987087D01*
X1985621Y1607403D02*
X1986987D01*
X1985521Y1607503D02*
X1986887D01*
X1985421Y1607603D02*
X1986787D01*
X1985321Y1607703D02*
X1986687D01*
X1985221Y1607803D02*
X1986587D01*
X1985121Y1607903D02*
X1986487D01*
X1985171Y1608003D02*
X1986387D01*
X1985271Y1608103D02*
X1986287D01*
X1985371Y1608203D02*
X1986187D01*
X1985471Y1608303D02*
X1986087D01*
X1985571Y1608403D02*
X1985987D01*
X1985671Y1608503D02*
X1985887D01*
X1985771Y1608603D02*
X1985787D01*
X1985104Y1607920D02*
Y1607936D01*
X1985204Y1607820D02*
Y1608036D01*
X1985304Y1607720D02*
Y1608136D01*
X1985404Y1607620D02*
Y1608236D01*
X1985504Y1607520D02*
Y1608336D01*
X1985604Y1607420D02*
Y1608436D01*
X1985704Y1607320D02*
Y1608536D01*
X1985804Y1607220D02*
Y1608587D01*
X1985904Y1607120D02*
Y1608487D01*
X1986004Y1607020D02*
Y1608387D01*
X1986104Y1606920D02*
Y1608287D01*
X1986204Y1606820D02*
Y1608187D01*
X1986304Y1606720D02*
Y1608087D01*
X1986404Y1606620D02*
Y1607987D01*
X1986504Y1606520D02*
Y1607887D01*
X1986604Y1606420D02*
Y1607787D01*
X1986704Y1606320D02*
Y1607687D01*
X1986804Y1606220D02*
Y1607587D01*
X1986904Y1606120D02*
Y1607487D01*
X1987004Y1606076D02*
Y1607387D01*
X1987104Y1606176D02*
Y1607287D01*
X1987204Y1606276D02*
Y1607187D01*
X1987304Y1606376D02*
Y1607087D01*
X1987404Y1606476D02*
Y1606987D01*
X1987504Y1606576D02*
Y1606887D01*
X1987604Y1606676D02*
Y1606787D01*
X1986546Y1605618D02*
X1984666Y1607498D01*
X1983983Y1606815*
X1985863Y1604934*
X1986546Y1605618*
X1985794Y1605003D02*
X1985932D01*
X1985694Y1605103D02*
X1986032D01*
X1985594Y1605203D02*
X1986132D01*
X1985494Y1605303D02*
X1986232D01*
X1985394Y1605403D02*
X1986332D01*
X1985294Y1605503D02*
X1986432D01*
X1985194Y1605603D02*
X1986532D01*
X1985094Y1605703D02*
X1986460D01*
X1984994Y1605803D02*
X1986360D01*
X1984894Y1605903D02*
X1986260D01*
X1984794Y1606003D02*
X1986160D01*
X1984694Y1606103D02*
X1986060D01*
X1984594Y1606203D02*
X1985960D01*
X1984494Y1606303D02*
X1985860D01*
X1984394Y1606403D02*
X1985760D01*
X1984294Y1606503D02*
X1985660D01*
X1984194Y1606603D02*
X1985560D01*
X1984094Y1606703D02*
X1985460D01*
X1983994Y1606803D02*
X1985360D01*
X1984071Y1606903D02*
X1985260D01*
X1984171Y1607003D02*
X1985160D01*
X1984271Y1607103D02*
X1985060D01*
X1984371Y1607203D02*
X1984960D01*
X1984471Y1607303D02*
X1984860D01*
X1984571Y1607403D02*
X1984760D01*
X1984004Y1606793D02*
Y1606836D01*
X1984104Y1606693D02*
Y1606936D01*
X1984204Y1606593D02*
Y1607036D01*
X1984304Y1606493D02*
Y1607136D01*
X1984404Y1606393D02*
Y1607236D01*
X1984504Y1606293D02*
Y1607336D01*
X1984604Y1606193D02*
Y1607436D01*
X1984704Y1606093D02*
Y1607460D01*
X1984804Y1605993D02*
Y1607360D01*
X1984904Y1605893D02*
Y1607260D01*
X1985004Y1605793D02*
Y1607160D01*
X1985104Y1605693D02*
Y1607060D01*
X1985204Y1605593D02*
Y1606960D01*
X1985304Y1605493D02*
Y1606860D01*
X1985404Y1605393D02*
Y1606760D01*
X1985504Y1605293D02*
Y1606660D01*
X1985604Y1605193D02*
Y1606560D01*
X1985704Y1605093D02*
Y1606460D01*
X1985804Y1604993D02*
Y1606360D01*
X1985904Y1604976D02*
Y1606260D01*
X1986004Y1605076D02*
Y1606160D01*
X1986104Y1605176D02*
Y1606060D01*
X1986204Y1605276D02*
Y1605960D01*
X1986304Y1605376D02*
Y1605860D01*
X1986404Y1605476D02*
Y1605760D01*
X1986504Y1605576D02*
Y1605660D01*
X1985432Y1604504D02*
X1983552Y1606384D01*
X1982869Y1605701*
X1984749Y1603821*
X1985432Y1604504*
X1984667Y1603903D02*
X1984832D01*
X1984567Y1604003D02*
X1984932D01*
X1984467Y1604103D02*
X1985032D01*
X1984367Y1604203D02*
X1985132D01*
X1984267Y1604303D02*
X1985232D01*
X1984167Y1604403D02*
X1985332D01*
X1984067Y1604503D02*
X1985432D01*
X1983967Y1604603D02*
X1985333D01*
X1983867Y1604703D02*
X1985233D01*
X1983767Y1604803D02*
X1985133D01*
X1983667Y1604903D02*
X1985033D01*
X1983567Y1605003D02*
X1984933D01*
X1983467Y1605103D02*
X1984833D01*
X1983367Y1605203D02*
X1984733D01*
X1983267Y1605303D02*
X1984633D01*
X1983167Y1605403D02*
X1984533D01*
X1983067Y1605503D02*
X1984433D01*
X1982967Y1605603D02*
X1984333D01*
X1982871Y1605703D02*
X1984233D01*
X1982971Y1605803D02*
X1984133D01*
X1983071Y1605903D02*
X1984033D01*
X1983171Y1606003D02*
X1983933D01*
X1983271Y1606103D02*
X1983833D01*
X1983371Y1606203D02*
X1983733D01*
X1983471Y1606303D02*
X1983633D01*
X1982904Y1605666D02*
Y1605736D01*
X1983004Y1605566D02*
Y1605836D01*
X1983104Y1605466D02*
Y1605936D01*
X1983204Y1605366D02*
Y1606036D01*
X1983304Y1605266D02*
Y1606136D01*
X1983404Y1605166D02*
Y1606236D01*
X1983504Y1605066D02*
Y1606336D01*
X1983604Y1604966D02*
Y1606332D01*
X1983704Y1604866D02*
Y1606232D01*
X1983804Y1604766D02*
Y1606132D01*
X1983904Y1604666D02*
Y1606032D01*
X1984004Y1604566D02*
Y1605932D01*
X1984104Y1604466D02*
Y1605832D01*
X1984204Y1604366D02*
Y1605732D01*
X1984304Y1604266D02*
Y1605632D01*
X1984404Y1604166D02*
Y1605532D01*
X1984504Y1604066D02*
Y1605432D01*
X1984604Y1603966D02*
Y1605332D01*
X1984704Y1603866D02*
Y1605232D01*
X1984804Y1603876D02*
Y1605132D01*
X1984904Y1603976D02*
Y1605032D01*
X1985004Y1604076D02*
Y1604932D01*
X1985104Y1604176D02*
Y1604832D01*
X1985204Y1604276D02*
Y1604732D01*
X1985304Y1604376D02*
Y1604632D01*
X1985404Y1604476D02*
Y1604532D01*
X1984319Y1603390D02*
X1982439Y1605271D01*
X1981755Y1604587*
X1983636Y1602707*
X1984319Y1603390*
X1983540Y1602803D02*
X1983732D01*
X1983440Y1602903D02*
X1983832D01*
X1983340Y1603003D02*
X1983932D01*
X1983240Y1603103D02*
X1984032D01*
X1983140Y1603203D02*
X1984132D01*
X1983040Y1603303D02*
X1984232D01*
X1982940Y1603403D02*
X1984306D01*
X1982840Y1603503D02*
X1984206D01*
X1982740Y1603603D02*
X1984106D01*
X1982640Y1603703D02*
X1984006D01*
X1982540Y1603803D02*
X1983906D01*
X1982440Y1603903D02*
X1983806D01*
X1982340Y1604003D02*
X1983706D01*
X1982240Y1604103D02*
X1983606D01*
X1982140Y1604203D02*
X1983506D01*
X1982040Y1604303D02*
X1983406D01*
X1981940Y1604403D02*
X1983306D01*
X1981840Y1604503D02*
X1983206D01*
X1981771Y1604603D02*
X1983106D01*
X1981871Y1604703D02*
X1983006D01*
X1981971Y1604803D02*
X1982906D01*
X1982071Y1604903D02*
X1982806D01*
X1982171Y1605003D02*
X1982706D01*
X1982271Y1605103D02*
X1982606D01*
X1982371Y1605203D02*
X1982506D01*
X1981804Y1604539D02*
Y1604636D01*
X1981904Y1604439D02*
Y1604736D01*
X1982004Y1604339D02*
Y1604836D01*
X1982104Y1604239D02*
Y1604936D01*
X1982204Y1604139D02*
Y1605036D01*
X1982304Y1604039D02*
Y1605136D01*
X1982404Y1603939D02*
Y1605236D01*
X1982504Y1603839D02*
Y1605205D01*
X1982604Y1603739D02*
Y1605105D01*
X1982704Y1603639D02*
Y1605005D01*
X1982804Y1603539D02*
Y1604905D01*
X1982904Y1603439D02*
Y1604805D01*
X1983004Y1603339D02*
Y1604705D01*
X1983104Y1603239D02*
Y1604605D01*
X1983204Y1603139D02*
Y1604505D01*
X1983304Y1603039D02*
Y1604405D01*
X1983404Y1602939D02*
Y1604305D01*
X1983504Y1602839D02*
Y1604205D01*
X1983604Y1602739D02*
Y1604105D01*
X1983704Y1602776D02*
Y1604005D01*
X1983804Y1602876D02*
Y1603905D01*
X1983904Y1602976D02*
Y1603805D01*
X1984004Y1603076D02*
Y1603705D01*
X1984104Y1603176D02*
Y1603605D01*
X1984204Y1603276D02*
Y1603505D01*
X1984304Y1603376D02*
Y1603405D01*
X1983205Y1602277D02*
X1981325Y1604157D01*
X1980642Y1603474*
X1982522Y1601594*
X1983205Y1602277*
X1982513Y1601603D02*
X1982532D01*
X1982413Y1601703D02*
X1982632D01*
X1982313Y1601803D02*
X1982732D01*
X1982213Y1601903D02*
X1982832D01*
X1982113Y1602003D02*
X1982932D01*
X1982013Y1602103D02*
X1983032D01*
X1981913Y1602203D02*
X1983132D01*
X1981813Y1602303D02*
X1983179D01*
X1981713Y1602403D02*
X1983079D01*
X1981613Y1602503D02*
X1982979D01*
X1981513Y1602603D02*
X1982879D01*
X1981413Y1602703D02*
X1982779D01*
X1981313Y1602803D02*
X1982679D01*
X1981213Y1602903D02*
X1982579D01*
X1981113Y1603003D02*
X1982479D01*
X1981013Y1603103D02*
X1982379D01*
X1980913Y1603203D02*
X1982279D01*
X1980813Y1603303D02*
X1982179D01*
X1980713Y1603403D02*
X1982079D01*
X1980671Y1603503D02*
X1981979D01*
X1980771Y1603603D02*
X1981879D01*
X1980871Y1603703D02*
X1981779D01*
X1980971Y1603803D02*
X1981679D01*
X1981071Y1603903D02*
X1981579D01*
X1981171Y1604003D02*
X1981479D01*
X1981271Y1604103D02*
X1981379D01*
X1980704Y1603412D02*
Y1603536D01*
X1980804Y1603312D02*
Y1603636D01*
X1980904Y1603212D02*
Y1603736D01*
X1981004Y1603112D02*
Y1603836D01*
X1981104Y1603012D02*
Y1603936D01*
X1981204Y1602912D02*
Y1604036D01*
X1981304Y1602812D02*
Y1604136D01*
X1981404Y1602712D02*
Y1604078D01*
X1981504Y1602612D02*
Y1603978D01*
X1981604Y1602512D02*
Y1603878D01*
X1981704Y1602412D02*
Y1603778D01*
X1981804Y1602312D02*
Y1603678D01*
X1981904Y1602212D02*
Y1603578D01*
X1982004Y1602112D02*
Y1603478D01*
X1982104Y1602012D02*
Y1603378D01*
X1982204Y1601912D02*
Y1603278D01*
X1982304Y1601812D02*
Y1603178D01*
X1982404Y1601712D02*
Y1603078D01*
X1982504Y1601612D02*
Y1602978D01*
X1982604Y1601676D02*
Y1602878D01*
X1982704Y1601776D02*
Y1602778D01*
X1982804Y1601876D02*
Y1602678D01*
X1982904Y1601976D02*
Y1602578D01*
X1983004Y1602076D02*
Y1602478D01*
X1983104Y1602176D02*
Y1602378D01*
X1983204Y1602276D02*
Y1602278D01*
X1982092Y1601163D02*
X1980211Y1603044D01*
X1980211D02*
X1979528Y1602360D01*
X1981409Y1600480*
X1982092Y1601163*
X1981386Y1600503D02*
X1981432D01*
X1981286Y1600603D02*
X1981532D01*
X1981186Y1600703D02*
X1981632D01*
X1981086Y1600803D02*
X1981732D01*
X1980986Y1600903D02*
X1981832D01*
X1980886Y1601003D02*
X1981932D01*
X1980786Y1601103D02*
X1982032D01*
X1980686Y1601203D02*
X1982052D01*
X1980586Y1601303D02*
X1981952D01*
X1980486Y1601403D02*
X1981852D01*
X1980386Y1601503D02*
X1981752D01*
X1980286Y1601603D02*
X1981652D01*
X1980186Y1601703D02*
X1981552D01*
X1980086Y1601803D02*
X1981452D01*
X1979986Y1601903D02*
X1981352D01*
X1979886Y1602003D02*
X1981252D01*
X1979786Y1602103D02*
X1981152D01*
X1979686Y1602203D02*
X1981052D01*
X1979586Y1602303D02*
X1980952D01*
X1979571Y1602403D02*
X1980852D01*
X1979671Y1602503D02*
X1980752D01*
X1979771Y1602603D02*
X1980652D01*
X1979871Y1602703D02*
X1980552D01*
X1979971Y1602803D02*
X1980452D01*
X1980071Y1602903D02*
X1980352D01*
X1980171Y1603003D02*
X1980252D01*
X1979604Y1602285D02*
Y1602436D01*
X1979704Y1602185D02*
Y1602536D01*
X1979804Y1602085D02*
Y1602636D01*
X1979904Y1601985D02*
Y1602736D01*
X1980004Y1601885D02*
Y1602836D01*
X1980104Y1601785D02*
Y1602936D01*
X1980204Y1601685D02*
Y1603036D01*
X1980304Y1601585D02*
Y1602951D01*
X1980404Y1601485D02*
Y1602851D01*
X1980504Y1601385D02*
Y1602751D01*
X1980604Y1601285D02*
Y1602651D01*
X1980704Y1601185D02*
Y1602551D01*
X1980804Y1601085D02*
Y1602451D01*
X1980904Y1600985D02*
Y1602351D01*
X1981004Y1600885D02*
Y1602251D01*
X1981104Y1600785D02*
Y1602151D01*
X1981204Y1600685D02*
Y1602051D01*
X1981304Y1600585D02*
Y1601951D01*
X1981404Y1600485D02*
Y1601851D01*
X1981504Y1600576D02*
Y1601751D01*
X1981604Y1600676D02*
Y1601651D01*
X1981704Y1600776D02*
Y1601551D01*
X1981804Y1600876D02*
Y1601451D01*
X1981904Y1600976D02*
Y1601351D01*
X1982004Y1601076D02*
Y1601251D01*
X1981409Y1598450D02*
X1979528Y1596570D01*
X1980211Y1595887*
X1980211D02*
X1982092Y1597767D01*
X1981409Y1598450*
X1980195Y1595903D02*
X1980228D01*
X1980095Y1596003D02*
X1980328D01*
X1979995Y1596103D02*
X1980428D01*
X1979895Y1596203D02*
X1980528D01*
X1979795Y1596303D02*
X1980628D01*
X1979695Y1596403D02*
X1980728D01*
X1979595Y1596503D02*
X1980828D01*
X1979562Y1596603D02*
X1980928D01*
X1979662Y1596703D02*
X1981028D01*
X1979762Y1596803D02*
X1981128D01*
X1979862Y1596903D02*
X1981228D01*
X1979962Y1597003D02*
X1981328D01*
X1980062Y1597103D02*
X1981428D01*
X1980162Y1597203D02*
X1981528D01*
X1980262Y1597303D02*
X1981628D01*
X1980362Y1597403D02*
X1981728D01*
X1980462Y1597503D02*
X1981828D01*
X1980562Y1597603D02*
X1981928D01*
X1980662Y1597703D02*
X1982028D01*
X1980762Y1597803D02*
X1982056D01*
X1980862Y1597903D02*
X1981956D01*
X1980962Y1598003D02*
X1981856D01*
X1981062Y1598103D02*
X1981756D01*
X1981162Y1598203D02*
X1981656D01*
X1981262Y1598303D02*
X1981556D01*
X1981362Y1598403D02*
X1981456D01*
X1979604Y1596494D02*
Y1596646D01*
X1979704Y1596394D02*
Y1596746D01*
X1979804Y1596294D02*
Y1596846D01*
X1979904Y1596194D02*
Y1596946D01*
X1980004Y1596094D02*
Y1597046D01*
X1980104Y1595994D02*
Y1597146D01*
X1980204Y1595894D02*
Y1597246D01*
X1980304Y1595979D02*
Y1597346D01*
X1980404Y1596079D02*
Y1597446D01*
X1980504Y1596179D02*
Y1597546D01*
X1980604Y1596279D02*
Y1597646D01*
X1980704Y1596379D02*
Y1597746D01*
X1980804Y1596479D02*
Y1597846D01*
X1980904Y1596579D02*
Y1597946D01*
X1981004Y1596679D02*
Y1598046D01*
X1981104Y1596779D02*
Y1598146D01*
X1981204Y1596879D02*
Y1598246D01*
X1981304Y1596979D02*
Y1598346D01*
X1981404Y1597079D02*
Y1598446D01*
X1981504Y1597179D02*
Y1598355D01*
X1981604Y1597279D02*
Y1598255D01*
X1981704Y1597379D02*
Y1598155D01*
X1981804Y1597479D02*
Y1598055D01*
X1981904Y1597579D02*
Y1597955D01*
X1982004Y1597679D02*
Y1597855D01*
X1982522Y1597337D02*
X1980642Y1595456D01*
X1981325Y1594773*
X1983205Y1596653*
X1982522Y1597337*
X1981295Y1594803D02*
X1981355D01*
X1981195Y1594903D02*
X1981455D01*
X1981095Y1595003D02*
X1981555D01*
X1980995Y1595103D02*
X1981655D01*
X1980895Y1595203D02*
X1981755D01*
X1980795Y1595303D02*
X1981855D01*
X1980695Y1595403D02*
X1981955D01*
X1980689Y1595503D02*
X1982055D01*
X1980789Y1595603D02*
X1982155D01*
X1980889Y1595703D02*
X1982255D01*
X1980989Y1595803D02*
X1982355D01*
X1981089Y1595903D02*
X1982455D01*
X1981189Y1596003D02*
X1982555D01*
X1981289Y1596103D02*
X1982655D01*
X1981389Y1596203D02*
X1982755D01*
X1981489Y1596303D02*
X1982855D01*
X1981589Y1596403D02*
X1982955D01*
X1981689Y1596503D02*
X1983055D01*
X1981789Y1596603D02*
X1983155D01*
X1981889Y1596703D02*
X1983156D01*
X1981989Y1596803D02*
X1983056D01*
X1982089Y1596903D02*
X1982956D01*
X1982189Y1597003D02*
X1982856D01*
X1982289Y1597103D02*
X1982756D01*
X1982389Y1597203D02*
X1982656D01*
X1982489Y1597303D02*
X1982556D01*
X1980704Y1595394D02*
Y1595518D01*
X1980804Y1595294D02*
Y1595618D01*
X1980904Y1595194D02*
Y1595718D01*
X1981004Y1595094D02*
Y1595818D01*
X1981104Y1594994D02*
Y1595918D01*
X1981204Y1594894D02*
Y1596018D01*
X1981304Y1594794D02*
Y1596118D01*
X1981404Y1594852D02*
Y1596218D01*
X1981504Y1594952D02*
Y1596318D01*
X1981604Y1595052D02*
Y1596418D01*
X1981704Y1595152D02*
Y1596518D01*
X1981804Y1595252D02*
Y1596618D01*
X1981904Y1595352D02*
Y1596718D01*
X1982004Y1595452D02*
Y1596818D01*
X1982104Y1595552D02*
Y1596918D01*
X1982204Y1595652D02*
Y1597018D01*
X1982304Y1595752D02*
Y1597118D01*
X1982404Y1595852D02*
Y1597218D01*
X1982504Y1595952D02*
Y1597318D01*
X1982604Y1596052D02*
Y1597255D01*
X1982704Y1596152D02*
Y1597155D01*
X1982804Y1596252D02*
Y1597055D01*
X1982904Y1596352D02*
Y1596955D01*
X1983004Y1596452D02*
Y1596855D01*
X1983104Y1596552D02*
Y1596755D01*
X1983204Y1596652D02*
Y1596655D01*
X1983636Y1596223D02*
X1981755Y1594343D01*
X1982439Y1593660*
X1984319Y1595540*
X1983636Y1596223*
X1982395Y1593703D02*
X1982482D01*
X1982295Y1593803D02*
X1982582D01*
X1982195Y1593903D02*
X1982682D01*
X1982095Y1594003D02*
X1982782D01*
X1981995Y1594103D02*
X1982882D01*
X1981895Y1594203D02*
X1982982D01*
X1981795Y1594303D02*
X1983082D01*
X1981816Y1594403D02*
X1983182D01*
X1981916Y1594503D02*
X1983282D01*
X1982016Y1594603D02*
X1983382D01*
X1982116Y1594703D02*
X1983482D01*
X1982216Y1594803D02*
X1983582D01*
X1982316Y1594903D02*
X1983682D01*
X1982416Y1595003D02*
X1983782D01*
X1982516Y1595103D02*
X1983882D01*
X1982616Y1595203D02*
X1983982D01*
X1982716Y1595303D02*
X1984082D01*
X1982816Y1595403D02*
X1984182D01*
X1982916Y1595503D02*
X1984282D01*
X1983016Y1595603D02*
X1984256D01*
X1983116Y1595703D02*
X1984156D01*
X1983216Y1595803D02*
X1984056D01*
X1983316Y1595903D02*
X1983956D01*
X1983416Y1596003D02*
X1983856D01*
X1983516Y1596103D02*
X1983756D01*
X1983616Y1596203D02*
X1983656D01*
X1981804Y1594294D02*
Y1594391D01*
X1981904Y1594194D02*
Y1594491D01*
X1982004Y1594094D02*
Y1594591D01*
X1982104Y1593994D02*
Y1594691D01*
X1982204Y1593894D02*
Y1594791D01*
X1982304Y1593794D02*
Y1594891D01*
X1982404Y1593694D02*
Y1594991D01*
X1982504Y1593725D02*
Y1595091D01*
X1982604Y1593825D02*
Y1595191D01*
X1982704Y1593925D02*
Y1595291D01*
X1982804Y1594025D02*
Y1595391D01*
X1982904Y1594125D02*
Y1595491D01*
X1983004Y1594225D02*
Y1595591D01*
X1983104Y1594325D02*
Y1595691D01*
X1983204Y1594425D02*
Y1595791D01*
X1983304Y1594525D02*
Y1595891D01*
X1983404Y1594625D02*
Y1595991D01*
X1983504Y1594725D02*
Y1596091D01*
X1983604Y1594825D02*
Y1596191D01*
X1983704Y1594925D02*
Y1596155D01*
X1983804Y1595025D02*
Y1596055D01*
X1983904Y1595125D02*
Y1595955D01*
X1984004Y1595225D02*
Y1595855D01*
X1984104Y1595325D02*
Y1595755D01*
X1984204Y1595425D02*
Y1595655D01*
X1984304Y1595525D02*
Y1595555D01*
X1984749Y1595109D02*
X1982869Y1593229D01*
X1983552Y1592546*
X1985432Y1594426*
X1984749Y1595109*
X1983495Y1592603D02*
X1983609D01*
X1983395Y1592703D02*
X1983709D01*
X1983295Y1592803D02*
X1983809D01*
X1983195Y1592903D02*
X1983909D01*
X1983095Y1593003D02*
X1984009D01*
X1982995Y1593103D02*
X1984109D01*
X1982895Y1593203D02*
X1984209D01*
X1982943Y1593303D02*
X1984309D01*
X1983043Y1593403D02*
X1984409D01*
X1983143Y1593503D02*
X1984509D01*
X1983243Y1593603D02*
X1984609D01*
X1983343Y1593703D02*
X1984709D01*
X1983443Y1593803D02*
X1984809D01*
X1983543Y1593903D02*
X1984909D01*
X1983643Y1594003D02*
X1985009D01*
X1983743Y1594103D02*
X1985109D01*
X1983843Y1594203D02*
X1985209D01*
X1983943Y1594303D02*
X1985309D01*
X1984043Y1594403D02*
X1985409D01*
X1984143Y1594503D02*
X1985356D01*
X1984243Y1594603D02*
X1985256D01*
X1984343Y1594703D02*
X1985156D01*
X1984443Y1594803D02*
X1985056D01*
X1984543Y1594903D02*
X1984956D01*
X1984643Y1595003D02*
X1984856D01*
X1984743Y1595103D02*
X1984756D01*
X1982904Y1593194D02*
Y1593264D01*
X1983004Y1593094D02*
Y1593364D01*
X1983104Y1592994D02*
Y1593464D01*
X1983204Y1592894D02*
Y1593564D01*
X1983304Y1592794D02*
Y1593664D01*
X1983404Y1592694D02*
Y1593764D01*
X1983504Y1592594D02*
Y1593864D01*
X1983604Y1592598D02*
Y1593964D01*
X1983704Y1592698D02*
Y1594064D01*
X1983804Y1592798D02*
Y1594164D01*
X1983904Y1592898D02*
Y1594264D01*
X1984004Y1592998D02*
Y1594364D01*
X1984104Y1593098D02*
Y1594464D01*
X1984204Y1593198D02*
Y1594564D01*
X1984304Y1593298D02*
Y1594664D01*
X1984404Y1593398D02*
Y1594764D01*
X1984504Y1593498D02*
Y1594864D01*
X1984604Y1593598D02*
Y1594964D01*
X1984704Y1593698D02*
Y1595064D01*
X1984804Y1593798D02*
Y1595055D01*
X1984904Y1593898D02*
Y1594955D01*
X1985004Y1593998D02*
Y1594855D01*
X1985104Y1594098D02*
Y1594755D01*
X1985204Y1594198D02*
Y1594655D01*
X1985304Y1594298D02*
Y1594555D01*
X1985404Y1594398D02*
Y1594455D01*
X1985863Y1593996D02*
X1983983Y1592116D01*
X1984666Y1591433*
X1986546Y1593313*
X1985863Y1593996*
X1984595Y1591503D02*
X1984736D01*
X1984495Y1591603D02*
X1984836D01*
X1984395Y1591703D02*
X1984936D01*
X1984295Y1591803D02*
X1985036D01*
X1984195Y1591903D02*
X1985136D01*
X1984095Y1592003D02*
X1985236D01*
X1983995Y1592103D02*
X1985336D01*
X1984070Y1592203D02*
X1985436D01*
X1984170Y1592303D02*
X1985536D01*
X1984270Y1592403D02*
X1985636D01*
X1984370Y1592503D02*
X1985736D01*
X1984470Y1592603D02*
X1985836D01*
X1984570Y1592703D02*
X1985936D01*
X1984670Y1592803D02*
X1986036D01*
X1984770Y1592903D02*
X1986136D01*
X1984870Y1593003D02*
X1986236D01*
X1984970Y1593103D02*
X1986336D01*
X1985070Y1593203D02*
X1986436D01*
X1985170Y1593303D02*
X1986536D01*
X1985270Y1593403D02*
X1986456D01*
X1985370Y1593503D02*
X1986356D01*
X1985470Y1593603D02*
X1986256D01*
X1985570Y1593703D02*
X1986156D01*
X1985670Y1593803D02*
X1986056D01*
X1985770Y1593903D02*
X1985956D01*
X1984004Y1592094D02*
Y1592137D01*
X1984104Y1591994D02*
Y1592237D01*
X1984204Y1591894D02*
Y1592337D01*
X1984304Y1591794D02*
Y1592437D01*
X1984404Y1591694D02*
Y1592537D01*
X1984504Y1591594D02*
Y1592637D01*
X1984604Y1591494D02*
Y1592737D01*
X1984704Y1591471D02*
Y1592837D01*
X1984804Y1591571D02*
Y1592937D01*
X1984904Y1591671D02*
Y1593037D01*
X1985004Y1591771D02*
Y1593137D01*
X1985104Y1591871D02*
Y1593237D01*
X1985204Y1591971D02*
Y1593337D01*
X1985304Y1592071D02*
Y1593437D01*
X1985404Y1592171D02*
Y1593537D01*
X1985504Y1592271D02*
Y1593637D01*
X1985604Y1592371D02*
Y1593737D01*
X1985704Y1592471D02*
Y1593837D01*
X1985804Y1592571D02*
Y1593937D01*
X1985904Y1592671D02*
Y1593955D01*
X1986004Y1592771D02*
Y1593855D01*
X1986104Y1592871D02*
Y1593755D01*
X1986204Y1592971D02*
Y1593655D01*
X1986304Y1593071D02*
Y1593555D01*
X1986404Y1593171D02*
Y1593455D01*
X1986504Y1593271D02*
Y1593355D01*
X1986976Y1592882D02*
X1985096Y1591002D01*
X1985779Y1590319*
X1987659Y1592199*
X1987659D02*
X1986976Y1592882D01*
X1985695Y1590403D02*
X1985863D01*
X1985595Y1590503D02*
X1985963D01*
X1985495Y1590603D02*
X1986063D01*
X1985395Y1590703D02*
X1986163D01*
X1985295Y1590803D02*
X1986263D01*
X1985195Y1590903D02*
X1986363D01*
X1985097Y1591003D02*
X1986463D01*
X1985197Y1591103D02*
X1986563D01*
X1985297Y1591203D02*
X1986663D01*
X1985397Y1591303D02*
X1986763D01*
X1985497Y1591403D02*
X1986863D01*
X1985597Y1591503D02*
X1986963D01*
X1985697Y1591603D02*
X1987063D01*
X1985797Y1591703D02*
X1987163D01*
X1985897Y1591803D02*
X1987263D01*
X1985997Y1591903D02*
X1987363D01*
X1986097Y1592003D02*
X1987463D01*
X1986197Y1592103D02*
X1987563D01*
X1986297Y1592203D02*
X1987656D01*
X1986397Y1592303D02*
X1987556D01*
X1986497Y1592403D02*
X1987456D01*
X1986597Y1592503D02*
X1987356D01*
X1986697Y1592603D02*
X1987256D01*
X1986797Y1592703D02*
X1987156D01*
X1986897Y1592803D02*
X1987056D01*
X1985104Y1590994D02*
Y1591010D01*
X1985204Y1590894D02*
Y1591110D01*
X1985304Y1590794D02*
Y1591210D01*
X1985404Y1590694D02*
Y1591310D01*
X1985504Y1590594D02*
Y1591410D01*
X1985604Y1590494D02*
Y1591510D01*
X1985704Y1590394D02*
Y1591610D01*
X1985804Y1590344D02*
Y1591710D01*
X1985904Y1590444D02*
Y1591810D01*
X1986004Y1590544D02*
Y1591910D01*
X1986104Y1590644D02*
Y1592010D01*
X1986204Y1590744D02*
Y1592110D01*
X1986304Y1590844D02*
Y1592210D01*
X1986404Y1590944D02*
Y1592310D01*
X1986504Y1591044D02*
Y1592410D01*
X1986604Y1591144D02*
Y1592510D01*
X1986704Y1591244D02*
Y1592610D01*
X1986804Y1591344D02*
Y1592710D01*
X1986904Y1591444D02*
Y1592810D01*
X1987004Y1591544D02*
Y1592855D01*
X1987104Y1591644D02*
Y1592755D01*
X1987204Y1591744D02*
Y1592655D01*
X1987304Y1591844D02*
Y1592555D01*
X1987404Y1591944D02*
Y1592455D01*
X1987504Y1592044D02*
Y1592355D01*
X1987604Y1592144D02*
Y1592255D01*
X1988090Y1591769D02*
X1986210Y1589889D01*
X1986893Y1589205*
X1988773Y1591086*
X1988090Y1591769*
X1986795Y1589303D02*
X1986991D01*
X1986695Y1589403D02*
X1987091D01*
X1986595Y1589503D02*
X1987191D01*
X1986495Y1589603D02*
X1987291D01*
X1986395Y1589703D02*
X1987391D01*
X1986295Y1589803D02*
X1987491D01*
X1986224Y1589903D02*
X1987591D01*
X1986324Y1590003D02*
X1987691D01*
X1986424Y1590103D02*
X1987791D01*
X1986524Y1590203D02*
X1987891D01*
X1986624Y1590303D02*
X1987991D01*
X1986724Y1590403D02*
X1988091D01*
X1986824Y1590503D02*
X1988191D01*
X1986924Y1590603D02*
X1988291D01*
X1987024Y1590703D02*
X1988391D01*
X1987124Y1590803D02*
X1988491D01*
X1987224Y1590903D02*
X1988591D01*
X1987324Y1591003D02*
X1988691D01*
X1987424Y1591103D02*
X1988756D01*
X1987524Y1591203D02*
X1988656D01*
X1987624Y1591303D02*
X1988556D01*
X1987724Y1591403D02*
X1988456D01*
X1987824Y1591503D02*
X1988356D01*
X1987924Y1591603D02*
X1988256D01*
X1988024Y1591703D02*
X1988156D01*
X1986304Y1589794D02*
Y1589983D01*
X1986404Y1589694D02*
Y1590083D01*
X1986504Y1589594D02*
Y1590183D01*
X1986604Y1589494D02*
Y1590283D01*
X1986704Y1589394D02*
Y1590383D01*
X1986804Y1589294D02*
Y1590483D01*
X1986904Y1589217D02*
Y1590583D01*
X1987004Y1589317D02*
Y1590683D01*
X1987104Y1589417D02*
Y1590783D01*
X1987204Y1589517D02*
Y1590883D01*
X1987304Y1589617D02*
Y1590983D01*
X1987404Y1589717D02*
Y1591083D01*
X1987504Y1589817D02*
Y1591183D01*
X1987604Y1589917D02*
Y1591283D01*
X1987704Y1590017D02*
Y1591383D01*
X1987804Y1590117D02*
Y1591483D01*
X1987904Y1590217D02*
Y1591583D01*
X1988004Y1590317D02*
Y1591683D01*
X1988104Y1590417D02*
Y1591755D01*
X1988204Y1590517D02*
Y1591655D01*
X1988304Y1590617D02*
Y1591555D01*
X1988404Y1590717D02*
Y1591455D01*
X1988504Y1590817D02*
Y1591355D01*
X1988604Y1590917D02*
Y1591255D01*
X1988704Y1591017D02*
Y1591155D01*
X1989203Y1590655D02*
X1987323Y1588775D01*
X1988006Y1588092*
X1989887Y1589972*
X1989203Y1590655*
X1987995Y1588103D02*
X1988018D01*
X1987895Y1588203D02*
X1988118D01*
X1987795Y1588303D02*
X1988218D01*
X1987695Y1588403D02*
X1988318D01*
X1987595Y1588503D02*
X1988418D01*
X1987495Y1588603D02*
X1988518D01*
X1987395Y1588703D02*
X1988618D01*
X1987351Y1588803D02*
X1988718D01*
X1987451Y1588903D02*
X1988818D01*
X1987551Y1589003D02*
X1988918D01*
X1987651Y1589103D02*
X1989018D01*
X1987751Y1589203D02*
X1989118D01*
X1987851Y1589303D02*
X1989218D01*
X1987951Y1589403D02*
X1989318D01*
X1988051Y1589503D02*
X1989418D01*
X1988151Y1589603D02*
X1989518D01*
X1988251Y1589703D02*
X1989618D01*
X1988351Y1589803D02*
X1989718D01*
X1988451Y1589903D02*
X1989818D01*
X1988551Y1590003D02*
X1989856D01*
X1988651Y1590103D02*
X1989756D01*
X1988751Y1590203D02*
X1989656D01*
X1988851Y1590303D02*
X1989556D01*
X1988951Y1590403D02*
X1989456D01*
X1989051Y1590503D02*
X1989356D01*
X1989151Y1590603D02*
X1989256D01*
X1987404Y1588694D02*
Y1588856D01*
X1987504Y1588594D02*
Y1588956D01*
X1987604Y1588494D02*
Y1589056D01*
X1987704Y1588394D02*
Y1589156D01*
X1987804Y1588294D02*
Y1589256D01*
X1987904Y1588194D02*
Y1589356D01*
X1988004Y1588094D02*
Y1589456D01*
X1988104Y1588189D02*
Y1589556D01*
X1988204Y1588289D02*
Y1589656D01*
X1988304Y1588389D02*
Y1589756D01*
X1988404Y1588489D02*
Y1589856D01*
X1988504Y1588589D02*
Y1589956D01*
X1988604Y1588689D02*
Y1590056D01*
X1988704Y1588789D02*
Y1590156D01*
X1988804Y1588889D02*
Y1590256D01*
X1988904Y1588989D02*
Y1590356D01*
X1989004Y1589089D02*
Y1590456D01*
X1989104Y1589189D02*
Y1590556D01*
X1989204Y1589289D02*
Y1590655D01*
X1989304Y1589389D02*
Y1590555D01*
X1989404Y1589489D02*
Y1590455D01*
X1989504Y1589589D02*
Y1590355D01*
X1989604Y1589689D02*
Y1590255D01*
X1989704Y1589789D02*
Y1590155D01*
X1989804Y1589889D02*
Y1590055D01*
X1990317Y1589542D02*
X1988437Y1587661D01*
X1989120Y1586978*
X1991000Y1588859*
X1990317Y1589542*
X1989095Y1587003D02*
X1989145D01*
X1988995Y1587103D02*
X1989245D01*
X1988895Y1587203D02*
X1989345D01*
X1988795Y1587303D02*
X1989445D01*
X1988695Y1587403D02*
X1989545D01*
X1988595Y1587503D02*
X1989645D01*
X1988495Y1587603D02*
X1989745D01*
X1988478Y1587703D02*
X1989845D01*
X1988578Y1587803D02*
X1989945D01*
X1988678Y1587903D02*
X1990045D01*
X1988778Y1588003D02*
X1990145D01*
X1988878Y1588103D02*
X1990245D01*
X1988978Y1588203D02*
X1990345D01*
X1989078Y1588303D02*
X1990445D01*
X1989178Y1588403D02*
X1990545D01*
X1989278Y1588503D02*
X1990645D01*
X1989378Y1588603D02*
X1990745D01*
X1989478Y1588703D02*
X1990845D01*
X1989578Y1588803D02*
X1990945D01*
X1989678Y1588903D02*
X1990956D01*
X1989778Y1589003D02*
X1990856D01*
X1989878Y1589103D02*
X1990756D01*
X1989978Y1589203D02*
X1990656D01*
X1990078Y1589303D02*
X1990556D01*
X1990178Y1589403D02*
X1990456D01*
X1990278Y1589503D02*
X1990356D01*
X1988504Y1587594D02*
Y1587729D01*
X1988604Y1587494D02*
Y1587829D01*
X1988704Y1587394D02*
Y1587929D01*
X1988804Y1587294D02*
Y1588029D01*
X1988904Y1587194D02*
Y1588129D01*
X1989004Y1587094D02*
Y1588229D01*
X1989104Y1586994D02*
Y1588329D01*
X1989204Y1587062D02*
Y1588429D01*
X1989304Y1587162D02*
Y1588529D01*
X1989404Y1587262D02*
Y1588629D01*
X1989504Y1587362D02*
Y1588729D01*
X1989604Y1587462D02*
Y1588829D01*
X1989704Y1587562D02*
Y1588929D01*
X1989804Y1587662D02*
Y1589029D01*
X1989904Y1587762D02*
Y1589129D01*
X1990004Y1587862D02*
Y1589229D01*
X1990104Y1587962D02*
Y1589329D01*
X1990204Y1588062D02*
Y1589429D01*
X1990304Y1588162D02*
Y1589529D01*
X1990404Y1588262D02*
Y1589455D01*
X1990504Y1588362D02*
Y1589355D01*
X1990604Y1588462D02*
Y1589255D01*
X1990704Y1588562D02*
Y1589155D01*
X1990804Y1588662D02*
Y1589055D01*
X1990904Y1588762D02*
Y1588955D01*
X1991431Y1588428D02*
X1989550Y1586548D01*
X1990233Y1585865*
X1992114Y1587745*
X1991431Y1588428*
X1990195Y1585903D02*
X1990272D01*
X1990095Y1586003D02*
X1990372D01*
X1989995Y1586103D02*
X1990472D01*
X1989895Y1586203D02*
X1990572D01*
X1989795Y1586303D02*
X1990672D01*
X1989695Y1586403D02*
X1990772D01*
X1989595Y1586503D02*
X1990872D01*
X1989606Y1586603D02*
X1990972D01*
X1989706Y1586703D02*
X1991072D01*
X1989806Y1586803D02*
X1991172D01*
X1989906Y1586903D02*
X1991272D01*
X1990006Y1587003D02*
X1991372D01*
X1990106Y1587103D02*
X1991472D01*
X1990206Y1587203D02*
X1991572D01*
X1990306Y1587303D02*
X1991672D01*
X1990406Y1587403D02*
X1991772D01*
X1990506Y1587503D02*
X1991872D01*
X1990606Y1587603D02*
X1991972D01*
X1990706Y1587703D02*
X1992072D01*
X1990806Y1587803D02*
X1992056D01*
X1990906Y1587903D02*
X1991956D01*
X1991006Y1588003D02*
X1991856D01*
X1991106Y1588103D02*
X1991756D01*
X1991206Y1588203D02*
X1991656D01*
X1991306Y1588303D02*
X1991556D01*
X1991406Y1588403D02*
X1991456D01*
X1989604Y1586494D02*
Y1586602D01*
X1989704Y1586394D02*
Y1586702D01*
X1989804Y1586294D02*
Y1586802D01*
X1989904Y1586194D02*
Y1586902D01*
X1990004Y1586094D02*
Y1587002D01*
X1990104Y1585994D02*
Y1587102D01*
X1990204Y1585894D02*
Y1587202D01*
X1990304Y1585935D02*
Y1587302D01*
X1990404Y1586035D02*
Y1587402D01*
X1990504Y1586135D02*
Y1587502D01*
X1990604Y1586235D02*
Y1587602D01*
X1990704Y1586335D02*
Y1587702D01*
X1990804Y1586435D02*
Y1587802D01*
X1990904Y1586535D02*
Y1587902D01*
X1991004Y1586635D02*
Y1588002D01*
X1991104Y1586735D02*
Y1588102D01*
X1991204Y1586835D02*
Y1588202D01*
X1991304Y1586935D02*
Y1588302D01*
X1991404Y1587035D02*
Y1588402D01*
X1991504Y1587135D02*
Y1588355D01*
X1991604Y1587235D02*
Y1588255D01*
X1991704Y1587335D02*
Y1588155D01*
X1991804Y1587435D02*
Y1588055D01*
X1991904Y1587535D02*
Y1587955D01*
X1992004Y1587635D02*
Y1587855D01*
X1992104Y1587735D02*
Y1587755D01*
X1992544Y1587315D02*
X1990664Y1585434D01*
X1991347Y1584751*
X1993227Y1586631*
X1992544Y1587315*
X1991295Y1584803D02*
X1991399D01*
X1991195Y1584903D02*
X1991499D01*
X1991095Y1585003D02*
X1991599D01*
X1990995Y1585103D02*
X1991699D01*
X1990895Y1585203D02*
X1991799D01*
X1990795Y1585303D02*
X1991899D01*
X1990695Y1585403D02*
X1991999D01*
X1990733Y1585503D02*
X1992099D01*
X1990833Y1585603D02*
X1992199D01*
X1990933Y1585703D02*
X1992299D01*
X1991033Y1585803D02*
X1992399D01*
X1991133Y1585903D02*
X1992499D01*
X1991233Y1586003D02*
X1992599D01*
X1991333Y1586103D02*
X1992699D01*
X1991433Y1586203D02*
X1992799D01*
X1991533Y1586303D02*
X1992899D01*
X1991633Y1586403D02*
X1992999D01*
X1991733Y1586503D02*
X1993099D01*
X1991833Y1586603D02*
X1993199D01*
X1991933Y1586703D02*
X1993156D01*
X1992033Y1586803D02*
X1993056D01*
X1992133Y1586903D02*
X1992956D01*
X1992233Y1587003D02*
X1992856D01*
X1992333Y1587103D02*
X1992756D01*
X1992433Y1587203D02*
X1992656D01*
X1992533Y1587303D02*
X1992556D01*
X1990704Y1585394D02*
Y1585474D01*
X1990804Y1585294D02*
Y1585574D01*
X1990904Y1585194D02*
Y1585674D01*
X1991004Y1585094D02*
Y1585774D01*
X1991104Y1584994D02*
Y1585874D01*
X1991204Y1584894D02*
Y1585974D01*
X1991304Y1584794D02*
Y1586074D01*
X1991404Y1584808D02*
Y1586174D01*
X1991504Y1584908D02*
Y1586274D01*
X1991604Y1585008D02*
Y1586374D01*
X1991704Y1585108D02*
Y1586474D01*
X1991804Y1585208D02*
Y1586574D01*
X1991904Y1585308D02*
Y1586674D01*
X1992004Y1585408D02*
Y1586774D01*
X1992104Y1585508D02*
Y1586874D01*
X1992204Y1585608D02*
Y1586974D01*
X1992304Y1585708D02*
Y1587074D01*
X1992404Y1585808D02*
Y1587174D01*
X1992504Y1585908D02*
Y1587274D01*
X1992604Y1586008D02*
Y1587255D01*
X1992704Y1586108D02*
Y1587155D01*
X1992804Y1586208D02*
Y1587055D01*
X1992904Y1586308D02*
Y1586955D01*
X1993004Y1586408D02*
Y1586855D01*
X1993104Y1586508D02*
Y1586755D01*
X1993204Y1586608D02*
Y1586655D01*
X1993658Y1586201D02*
X1991777Y1584321D01*
X1992461Y1583638*
X1994341Y1585518*
X1993658Y1586201*
X1992395Y1583703D02*
X1992526D01*
X1992295Y1583803D02*
X1992626D01*
X1992195Y1583903D02*
X1992726D01*
X1992095Y1584003D02*
X1992826D01*
X1991995Y1584103D02*
X1992926D01*
X1991895Y1584203D02*
X1993026D01*
X1991795Y1584303D02*
X1993126D01*
X1991860Y1584403D02*
X1993226D01*
X1991960Y1584503D02*
X1993326D01*
X1992060Y1584603D02*
X1993426D01*
X1992160Y1584703D02*
X1993526D01*
X1992260Y1584803D02*
X1993626D01*
X1992360Y1584903D02*
X1993726D01*
X1992460Y1585003D02*
X1993826D01*
X1992560Y1585103D02*
X1993926D01*
X1992660Y1585203D02*
X1994026D01*
X1992760Y1585303D02*
X1994126D01*
X1992860Y1585403D02*
X1994226D01*
X1992960Y1585503D02*
X1994326D01*
X1993060Y1585603D02*
X1994256D01*
X1993160Y1585703D02*
X1994156D01*
X1993260Y1585803D02*
X1994056D01*
X1993360Y1585903D02*
X1993956D01*
X1993460Y1586003D02*
X1993856D01*
X1993560Y1586103D02*
X1993756D01*
X1991804Y1584294D02*
Y1584347D01*
X1991904Y1584194D02*
Y1584447D01*
X1992004Y1584094D02*
Y1584547D01*
X1992104Y1583994D02*
Y1584647D01*
X1992204Y1583894D02*
Y1584747D01*
X1992304Y1583794D02*
Y1584847D01*
X1992404Y1583694D02*
Y1584947D01*
X1992504Y1583681D02*
Y1585047D01*
X1992604Y1583781D02*
Y1585147D01*
X1992704Y1583881D02*
Y1585247D01*
X1992804Y1583981D02*
Y1585347D01*
X1992904Y1584081D02*
Y1585447D01*
X1993004Y1584181D02*
Y1585547D01*
X1993104Y1584281D02*
Y1585647D01*
X1993204Y1584381D02*
Y1585747D01*
X1993304Y1584481D02*
Y1585847D01*
X1993404Y1584581D02*
Y1585947D01*
X1993504Y1584681D02*
Y1586047D01*
X1993604Y1584781D02*
Y1586147D01*
X1993704Y1584881D02*
Y1586155D01*
X1993804Y1584981D02*
Y1586055D01*
X1993904Y1585081D02*
Y1585955D01*
X1994004Y1585181D02*
Y1585855D01*
X1994104Y1585281D02*
Y1585755D01*
X1994204Y1585381D02*
Y1585655D01*
X1994304Y1585481D02*
Y1585555D01*
X1994771Y1585087D02*
X1992891Y1583207D01*
X1993574Y1582524*
X1995454Y1584404*
X1994771Y1585087*
X1993495Y1582603D02*
X1993653D01*
X1993395Y1582703D02*
X1993753D01*
X1993295Y1582803D02*
X1993853D01*
X1993195Y1582903D02*
X1993953D01*
X1993095Y1583003D02*
X1994053D01*
X1992995Y1583103D02*
X1994153D01*
X1992895Y1583203D02*
X1994253D01*
X1992987Y1583303D02*
X1994353D01*
X1993087Y1583403D02*
X1994453D01*
X1993187Y1583503D02*
X1994553D01*
X1993287Y1583603D02*
X1994653D01*
X1993387Y1583703D02*
X1994753D01*
X1993487Y1583803D02*
X1994853D01*
X1993587Y1583903D02*
X1994953D01*
X1993687Y1584003D02*
X1995053D01*
X1993787Y1584103D02*
X1995153D01*
X1993887Y1584203D02*
X1995253D01*
X1993987Y1584303D02*
X1995353D01*
X1994087Y1584403D02*
X1995453D01*
X1994187Y1584503D02*
X1995356D01*
X1994287Y1584603D02*
X1995256D01*
X1994387Y1584703D02*
X1995156D01*
X1994487Y1584803D02*
X1995056D01*
X1994587Y1584903D02*
X1994956D01*
X1994687Y1585003D02*
X1994856D01*
X1992904Y1583194D02*
Y1583220D01*
X1993004Y1583094D02*
Y1583320D01*
X1993104Y1582994D02*
Y1583420D01*
X1993204Y1582894D02*
Y1583520D01*
X1993304Y1582794D02*
Y1583620D01*
X1993404Y1582694D02*
Y1583720D01*
X1993504Y1582594D02*
Y1583820D01*
X1993604Y1582554D02*
Y1583920D01*
X1993704Y1582654D02*
Y1584020D01*
X1993804Y1582754D02*
Y1584120D01*
X1993904Y1582854D02*
Y1584220D01*
X1994004Y1582954D02*
Y1584320D01*
X1994104Y1583054D02*
Y1584420D01*
X1994204Y1583154D02*
Y1584520D01*
X1994304Y1583254D02*
Y1584620D01*
X1994404Y1583354D02*
Y1584720D01*
X1994504Y1583454D02*
Y1584820D01*
X1994604Y1583554D02*
Y1584920D01*
X1994704Y1583654D02*
Y1585020D01*
X1994804Y1583754D02*
Y1585055D01*
X1994904Y1583854D02*
Y1584955D01*
X1995004Y1583954D02*
Y1584855D01*
X1995104Y1584054D02*
Y1584755D01*
X1995204Y1584154D02*
Y1584655D01*
X1995304Y1584254D02*
Y1584555D01*
X1995404Y1584354D02*
Y1584455D01*
X1995885Y1583974D02*
X1994005Y1582094D01*
X1994688Y1581411*
X1996568Y1583291*
X1995885Y1583974*
X1994595Y1581503D02*
X1994780D01*
X1994495Y1581603D02*
X1994880D01*
X1994395Y1581703D02*
X1994980D01*
X1994295Y1581803D02*
X1995080D01*
X1994195Y1581903D02*
X1995180D01*
X1994095Y1582003D02*
X1995280D01*
X1994014Y1582103D02*
X1995380D01*
X1994114Y1582203D02*
X1995480D01*
X1994214Y1582303D02*
X1995580D01*
X1994314Y1582403D02*
X1995680D01*
X1994414Y1582503D02*
X1995780D01*
X1994514Y1582603D02*
X1995880D01*
X1994614Y1582703D02*
X1995980D01*
X1994714Y1582803D02*
X1996080D01*
X1994814Y1582903D02*
X1996180D01*
X1994914Y1583003D02*
X1996280D01*
X1995014Y1583103D02*
X1996380D01*
X1995114Y1583203D02*
X1996480D01*
X1995214Y1583303D02*
X1996556D01*
X1995314Y1583403D02*
X1996456D01*
X1995414Y1583503D02*
X1996356D01*
X1995514Y1583603D02*
X1996256D01*
X1995614Y1583703D02*
X1996156D01*
X1995714Y1583803D02*
X1996056D01*
X1995814Y1583903D02*
X1995956D01*
X1994104Y1581994D02*
Y1582193D01*
X1994204Y1581894D02*
Y1582293D01*
X1994304Y1581794D02*
Y1582393D01*
X1994404Y1581694D02*
Y1582493D01*
X1994504Y1581594D02*
Y1582593D01*
X1994604Y1581494D02*
Y1582693D01*
X1994704Y1581427D02*
Y1582793D01*
X1994804Y1581527D02*
Y1582893D01*
X1994904Y1581627D02*
Y1582993D01*
X1995004Y1581727D02*
Y1583093D01*
X1995104Y1581827D02*
Y1583193D01*
X1995204Y1581927D02*
Y1583293D01*
X1995304Y1582027D02*
Y1583393D01*
X1995404Y1582127D02*
Y1583493D01*
X1995504Y1582227D02*
Y1583593D01*
X1995604Y1582327D02*
Y1583693D01*
X1995704Y1582427D02*
Y1583793D01*
X1995804Y1582527D02*
Y1583893D01*
X1995904Y1582627D02*
Y1583955D01*
X1996004Y1582727D02*
Y1583855D01*
X1996104Y1582827D02*
Y1583755D01*
X1996204Y1582927D02*
Y1583655D01*
X1996304Y1583027D02*
Y1583555D01*
X1996404Y1583127D02*
Y1583455D01*
X1996504Y1583227D02*
Y1583355D01*
X2001161Y1582094D02*
X1999281Y1583974D01*
X1998598Y1583291*
X2000478Y1581411*
X2001161Y1582094*
X2000386Y1581503D02*
X2000571D01*
X2000286Y1581603D02*
X2000671D01*
X2000186Y1581703D02*
X2000771D01*
X2000086Y1581803D02*
X2000871D01*
X1999986Y1581903D02*
X2000971D01*
X1999886Y1582003D02*
X2001071D01*
X1999786Y1582103D02*
X2001152D01*
X1999686Y1582203D02*
X2001052D01*
X1999586Y1582303D02*
X2000952D01*
X1999486Y1582403D02*
X2000852D01*
X1999386Y1582503D02*
X2000752D01*
X1999286Y1582603D02*
X2000652D01*
X1999186Y1582703D02*
X2000552D01*
X1999086Y1582803D02*
X2000452D01*
X1998986Y1582903D02*
X2000352D01*
X1998886Y1583003D02*
X2000252D01*
X1998786Y1583103D02*
X2000152D01*
X1998686Y1583203D02*
X2000052D01*
X1998610Y1583303D02*
X1999952D01*
X1998710Y1583403D02*
X1999852D01*
X1998810Y1583503D02*
X1999752D01*
X1998910Y1583603D02*
X1999652D01*
X1999010Y1583703D02*
X1999552D01*
X1999110Y1583803D02*
X1999452D01*
X1999210Y1583903D02*
X1999352D01*
X1998604Y1583285D02*
Y1583297D01*
X1998704Y1583185D02*
Y1583397D01*
X1998804Y1583085D02*
Y1583497D01*
X1998904Y1582985D02*
Y1583597D01*
X1999004Y1582885D02*
Y1583697D01*
X1999104Y1582785D02*
Y1583797D01*
X1999204Y1582685D02*
Y1583897D01*
X1999304Y1582585D02*
Y1583951D01*
X1999404Y1582485D02*
Y1583851D01*
X1999504Y1582385D02*
Y1583751D01*
X1999604Y1582285D02*
Y1583651D01*
X1999704Y1582185D02*
Y1583551D01*
X1999804Y1582085D02*
Y1583451D01*
X1999904Y1581985D02*
Y1583351D01*
X2000004Y1581885D02*
Y1583251D01*
X2000104Y1581785D02*
Y1583151D01*
X2000204Y1581685D02*
Y1583051D01*
X2000304Y1581585D02*
Y1582951D01*
X2000404Y1581485D02*
Y1582851D01*
X2000504Y1581436D02*
Y1582751D01*
X2000604Y1581536D02*
Y1582651D01*
X2000704Y1581636D02*
Y1582551D01*
X2000804Y1581736D02*
Y1582451D01*
X2000904Y1581836D02*
Y1582351D01*
X2001004Y1581936D02*
Y1582251D01*
X2001104Y1582036D02*
Y1582151D01*
X2002275Y1583207D02*
X2000395Y1585087D01*
X1999711Y1584404*
X2001592Y1582524*
X2002275Y1583207*
X2001513Y1582603D02*
X2001671D01*
X2001413Y1582703D02*
X2001771D01*
X2001313Y1582803D02*
X2001871D01*
X2001213Y1582903D02*
X2001971D01*
X2001113Y1583003D02*
X2002071D01*
X2001013Y1583103D02*
X2002171D01*
X2000913Y1583203D02*
X2002271D01*
X2000813Y1583303D02*
X2002179D01*
X2000713Y1583403D02*
X2002079D01*
X2000613Y1583503D02*
X2001979D01*
X2000513Y1583603D02*
X2001879D01*
X2000413Y1583703D02*
X2001779D01*
X2000313Y1583803D02*
X2001679D01*
X2000213Y1583903D02*
X2001579D01*
X2000113Y1584003D02*
X2001479D01*
X2000013Y1584103D02*
X2001379D01*
X1999913Y1584203D02*
X2001279D01*
X1999813Y1584303D02*
X2001179D01*
X1999713Y1584403D02*
X2001079D01*
X1999810Y1584503D02*
X2000979D01*
X1999910Y1584603D02*
X2000879D01*
X2000010Y1584703D02*
X2000779D01*
X2000110Y1584803D02*
X2000679D01*
X2000210Y1584903D02*
X2000579D01*
X2000310Y1585003D02*
X2000479D01*
X1999804Y1584312D02*
Y1584497D01*
X1999904Y1584212D02*
Y1584597D01*
X2000004Y1584112D02*
Y1584697D01*
X2000104Y1584012D02*
Y1584797D01*
X2000204Y1583912D02*
Y1584897D01*
X2000304Y1583812D02*
Y1584997D01*
X2000404Y1583712D02*
Y1585078D01*
X2000504Y1583612D02*
Y1584978D01*
X2000604Y1583512D02*
Y1584878D01*
X2000704Y1583412D02*
Y1584778D01*
X2000804Y1583312D02*
Y1584678D01*
X2000904Y1583212D02*
Y1584578D01*
X2001004Y1583112D02*
Y1584478D01*
X2001104Y1583012D02*
Y1584378D01*
X2001204Y1582912D02*
Y1584278D01*
X2001304Y1582812D02*
Y1584178D01*
X2001404Y1582712D02*
Y1584078D01*
X2001504Y1582612D02*
Y1583978D01*
X2001604Y1582536D02*
Y1583878D01*
X2001704Y1582636D02*
Y1583778D01*
X2001804Y1582736D02*
Y1583678D01*
X2001904Y1582836D02*
Y1583578D01*
X2002004Y1582936D02*
Y1583478D01*
X2002104Y1583036D02*
Y1583378D01*
X2002204Y1583136D02*
Y1583278D01*
X2003388Y1584321D02*
X2001508Y1586201D01*
X2000825Y1585518*
X2002705Y1583638*
X2003388Y1584321*
X2002640Y1583703D02*
X2002771D01*
X2002540Y1583803D02*
X2002871D01*
X2002440Y1583903D02*
X2002971D01*
X2002340Y1584003D02*
X2003071D01*
X2002240Y1584103D02*
X2003171D01*
X2002140Y1584203D02*
X2003271D01*
X2002040Y1584303D02*
X2003371D01*
X2001940Y1584403D02*
X2003306D01*
X2001840Y1584503D02*
X2003206D01*
X2001740Y1584603D02*
X2003106D01*
X2001640Y1584703D02*
X2003006D01*
X2001540Y1584803D02*
X2002906D01*
X2001440Y1584903D02*
X2002806D01*
X2001340Y1585003D02*
X2002706D01*
X2001240Y1585103D02*
X2002606D01*
X2001140Y1585203D02*
X2002506D01*
X2001040Y1585303D02*
X2002406D01*
X2000940Y1585403D02*
X2002306D01*
X2000840Y1585503D02*
X2002206D01*
X2000910Y1585603D02*
X2002106D01*
X2001010Y1585703D02*
X2002006D01*
X2001110Y1585803D02*
X2001906D01*
X2001210Y1585903D02*
X2001806D01*
X2001310Y1586003D02*
X2001706D01*
X2001410Y1586103D02*
X2001606D01*
X2000904Y1585439D02*
Y1585597D01*
X2001004Y1585339D02*
Y1585697D01*
X2001104Y1585239D02*
Y1585797D01*
X2001204Y1585139D02*
Y1585897D01*
X2001304Y1585039D02*
Y1585997D01*
X2001404Y1584939D02*
Y1586097D01*
X2001504Y1584839D02*
Y1586197D01*
X2001604Y1584739D02*
Y1586105D01*
X2001704Y1584639D02*
Y1586005D01*
X2001804Y1584539D02*
Y1585905D01*
X2001904Y1584439D02*
Y1585805D01*
X2002004Y1584339D02*
Y1585705D01*
X2002104Y1584239D02*
Y1585605D01*
X2002204Y1584139D02*
Y1585505D01*
X2002304Y1584039D02*
Y1585405D01*
X2002404Y1583939D02*
Y1585305D01*
X2002504Y1583839D02*
Y1585205D01*
X2002604Y1583739D02*
Y1585105D01*
X2002704Y1583639D02*
Y1585005D01*
X2002804Y1583736D02*
Y1584905D01*
X2002904Y1583836D02*
Y1584805D01*
X2003004Y1583936D02*
Y1584705D01*
X2003104Y1584036D02*
Y1584605D01*
X2003204Y1584136D02*
Y1584505D01*
X2003304Y1584236D02*
Y1584405D01*
X2004502Y1585434D02*
X2002622Y1587315D01*
X2001939Y1586631*
X2003819Y1584751*
X2004502Y1585434*
X2003767Y1584803D02*
X2003871D01*
X2003667Y1584903D02*
X2003971D01*
X2003567Y1585003D02*
X2004071D01*
X2003467Y1585103D02*
X2004171D01*
X2003367Y1585203D02*
X2004271D01*
X2003267Y1585303D02*
X2004371D01*
X2003167Y1585403D02*
X2004471D01*
X2003067Y1585503D02*
X2004433D01*
X2002967Y1585603D02*
X2004333D01*
X2002867Y1585703D02*
X2004233D01*
X2002767Y1585803D02*
X2004133D01*
X2002667Y1585903D02*
X2004033D01*
X2002567Y1586003D02*
X2003933D01*
X2002467Y1586103D02*
X2003833D01*
X2002367Y1586203D02*
X2003733D01*
X2002267Y1586303D02*
X2003633D01*
X2002167Y1586403D02*
X2003533D01*
X2002067Y1586503D02*
X2003433D01*
X2001967Y1586603D02*
X2003333D01*
X2002010Y1586703D02*
X2003233D01*
X2002110Y1586803D02*
X2003133D01*
X2002210Y1586903D02*
X2003033D01*
X2002310Y1587003D02*
X2002933D01*
X2002410Y1587103D02*
X2002833D01*
X2002510Y1587203D02*
X2002733D01*
X2002610Y1587303D02*
X2002633D01*
X2002004Y1586566D02*
Y1586697D01*
X2002104Y1586466D02*
Y1586797D01*
X2002204Y1586366D02*
Y1586897D01*
X2002304Y1586266D02*
Y1586997D01*
X2002404Y1586166D02*
Y1587097D01*
X2002504Y1586066D02*
Y1587197D01*
X2002604Y1585966D02*
Y1587297D01*
X2002704Y1585866D02*
Y1587232D01*
X2002804Y1585766D02*
Y1587132D01*
X2002904Y1585666D02*
Y1587032D01*
X2003004Y1585566D02*
Y1586932D01*
X2003104Y1585466D02*
Y1586832D01*
X2003204Y1585366D02*
Y1586732D01*
X2003304Y1585266D02*
Y1586632D01*
X2003404Y1585166D02*
Y1586532D01*
X2003504Y1585066D02*
Y1586432D01*
X2003604Y1584966D02*
Y1586332D01*
X2003704Y1584866D02*
Y1586232D01*
X2003804Y1584766D02*
Y1586132D01*
X2003904Y1584836D02*
Y1586032D01*
X2004004Y1584936D02*
Y1585932D01*
X2004104Y1585036D02*
Y1585832D01*
X2004204Y1585136D02*
Y1585732D01*
X2004304Y1585236D02*
Y1585632D01*
X2004404Y1585336D02*
Y1585532D01*
X2005616Y1586548D02*
X2003735Y1588428D01*
X2003052Y1587745*
X2004932Y1585865*
X2005616Y1586548*
X2004894Y1585903D02*
X2004971D01*
X2004794Y1586003D02*
X2005071D01*
X2004694Y1586103D02*
X2005171D01*
X2004594Y1586203D02*
X2005271D01*
X2004494Y1586303D02*
X2005371D01*
X2004394Y1586403D02*
X2005471D01*
X2004294Y1586503D02*
X2005571D01*
X2004194Y1586603D02*
X2005560D01*
X2004094Y1586703D02*
X2005460D01*
X2003994Y1586803D02*
X2005360D01*
X2003894Y1586903D02*
X2005260D01*
X2003794Y1587003D02*
X2005160D01*
X2003694Y1587103D02*
X2005060D01*
X2003594Y1587203D02*
X2004960D01*
X2003494Y1587303D02*
X2004860D01*
X2003394Y1587403D02*
X2004760D01*
X2003294Y1587503D02*
X2004660D01*
X2003194Y1587603D02*
X2004560D01*
X2003094Y1587703D02*
X2004460D01*
X2003110Y1587803D02*
X2004360D01*
X2003210Y1587903D02*
X2004260D01*
X2003310Y1588003D02*
X2004160D01*
X2003410Y1588103D02*
X2004060D01*
X2003510Y1588203D02*
X2003960D01*
X2003610Y1588303D02*
X2003860D01*
X2003710Y1588403D02*
X2003760D01*
X2003104Y1587693D02*
Y1587797D01*
X2003204Y1587593D02*
Y1587897D01*
X2003304Y1587493D02*
Y1587997D01*
X2003404Y1587393D02*
Y1588097D01*
X2003504Y1587293D02*
Y1588197D01*
X2003604Y1587193D02*
Y1588297D01*
X2003704Y1587093D02*
Y1588397D01*
X2003804Y1586993D02*
Y1588360D01*
X2003904Y1586893D02*
Y1588260D01*
X2004004Y1586793D02*
Y1588160D01*
X2004104Y1586693D02*
Y1588060D01*
X2004204Y1586593D02*
Y1587960D01*
X2004304Y1586493D02*
Y1587860D01*
X2004404Y1586393D02*
Y1587760D01*
X2004504Y1586293D02*
Y1587660D01*
X2004604Y1586193D02*
Y1587560D01*
X2004704Y1586093D02*
Y1587460D01*
X2004804Y1585993D02*
Y1587360D01*
X2004904Y1585893D02*
Y1587260D01*
X2005004Y1585936D02*
Y1587160D01*
X2005104Y1586036D02*
Y1587060D01*
X2005204Y1586136D02*
Y1586960D01*
X2005304Y1586236D02*
Y1586860D01*
X2005404Y1586336D02*
Y1586760D01*
X2005504Y1586436D02*
Y1586660D01*
X2005604Y1586536D02*
Y1586560D01*
X2006729Y1587661D02*
X2004849Y1589542D01*
X2004166Y1588859*
X2006046Y1586978*
X2006729Y1587661*
X2006021Y1587003D02*
X2006071D01*
X2005921Y1587103D02*
X2006171D01*
X2005821Y1587203D02*
X2006271D01*
X2005721Y1587303D02*
X2006371D01*
X2005621Y1587403D02*
X2006471D01*
X2005521Y1587503D02*
X2006571D01*
X2005421Y1587603D02*
X2006671D01*
X2005321Y1587703D02*
X2006687D01*
X2005221Y1587803D02*
X2006587D01*
X2005121Y1587903D02*
X2006487D01*
X2005021Y1588003D02*
X2006387D01*
X2004921Y1588103D02*
X2006287D01*
X2004821Y1588203D02*
X2006187D01*
X2004721Y1588303D02*
X2006087D01*
X2004621Y1588403D02*
X2005987D01*
X2004521Y1588503D02*
X2005887D01*
X2004421Y1588603D02*
X2005787D01*
X2004321Y1588703D02*
X2005687D01*
X2004221Y1588803D02*
X2005587D01*
X2004210Y1588903D02*
X2005487D01*
X2004310Y1589003D02*
X2005387D01*
X2004410Y1589103D02*
X2005287D01*
X2004510Y1589203D02*
X2005187D01*
X2004610Y1589303D02*
X2005087D01*
X2004710Y1589403D02*
X2004987D01*
X2004810Y1589503D02*
X2004887D01*
X2004204Y1588820D02*
Y1588897D01*
X2004304Y1588720D02*
Y1588997D01*
X2004404Y1588620D02*
Y1589097D01*
X2004504Y1588520D02*
Y1589197D01*
X2004604Y1588420D02*
Y1589297D01*
X2004704Y1588320D02*
Y1589397D01*
X2004804Y1588220D02*
Y1589497D01*
X2004904Y1588120D02*
Y1589487D01*
X2005004Y1588020D02*
Y1589387D01*
X2005104Y1587920D02*
Y1589287D01*
X2005204Y1587820D02*
Y1589187D01*
X2005304Y1587720D02*
Y1589087D01*
X2005404Y1587620D02*
Y1588987D01*
X2005504Y1587520D02*
Y1588887D01*
X2005604Y1587420D02*
Y1588787D01*
X2005704Y1587320D02*
Y1588687D01*
X2005804Y1587220D02*
Y1588587D01*
X2005904Y1587120D02*
Y1588487D01*
X2006004Y1587020D02*
Y1588387D01*
X2006104Y1587036D02*
Y1588287D01*
X2006204Y1587136D02*
Y1588187D01*
X2006304Y1587236D02*
Y1588087D01*
X2006404Y1587336D02*
Y1587987D01*
X2006504Y1587436D02*
Y1587887D01*
X2006604Y1587536D02*
Y1587787D01*
X2006704Y1587636D02*
Y1587687D01*
X2007843Y1588775D02*
X2005962Y1590655D01*
X2005279Y1589972*
X2007159Y1588092*
X2007159D02*
X2007843Y1588775D01*
X2007148Y1588103D02*
X2007171D01*
X2007048Y1588203D02*
X2007271D01*
X2006948Y1588303D02*
X2007371D01*
X2006848Y1588403D02*
X2007471D01*
X2006748Y1588503D02*
X2007571D01*
X2006648Y1588603D02*
X2007671D01*
X2006548Y1588703D02*
X2007771D01*
X2006448Y1588803D02*
X2007815D01*
X2006348Y1588903D02*
X2007715D01*
X2006248Y1589003D02*
X2007615D01*
X2006148Y1589103D02*
X2007515D01*
X2006048Y1589203D02*
X2007415D01*
X2005948Y1589303D02*
X2007315D01*
X2005848Y1589403D02*
X2007215D01*
X2005748Y1589503D02*
X2007115D01*
X2005648Y1589603D02*
X2007015D01*
X2005548Y1589703D02*
X2006915D01*
X2005448Y1589803D02*
X2006815D01*
X2005348Y1589903D02*
X2006715D01*
X2005310Y1590003D02*
X2006615D01*
X2005410Y1590103D02*
X2006515D01*
X2005510Y1590203D02*
X2006415D01*
X2005610Y1590303D02*
X2006315D01*
X2005710Y1590403D02*
X2006215D01*
X2005810Y1590503D02*
X2006115D01*
X2005910Y1590603D02*
X2006015D01*
X2005304Y1589947D02*
Y1589997D01*
X2005404Y1589847D02*
Y1590097D01*
X2005504Y1589747D02*
Y1590197D01*
X2005604Y1589647D02*
Y1590297D01*
X2005704Y1589547D02*
Y1590397D01*
X2005804Y1589447D02*
Y1590497D01*
X2005904Y1589347D02*
Y1590597D01*
X2006004Y1589247D02*
Y1590614D01*
X2006104Y1589147D02*
Y1590514D01*
X2006204Y1589047D02*
Y1590414D01*
X2006304Y1588947D02*
Y1590314D01*
X2006404Y1588847D02*
Y1590214D01*
X2006504Y1588747D02*
Y1590114D01*
X2006604Y1588647D02*
Y1590014D01*
X2006704Y1588547D02*
Y1589914D01*
X2006804Y1588447D02*
Y1589814D01*
X2006904Y1588347D02*
Y1589714D01*
X2007004Y1588247D02*
Y1589614D01*
X2007104Y1588147D02*
Y1589514D01*
X2007204Y1588136D02*
Y1589414D01*
X2007304Y1588236D02*
Y1589314D01*
X2007404Y1588336D02*
Y1589214D01*
X2007504Y1588436D02*
Y1589114D01*
X2007604Y1588536D02*
Y1589014D01*
X2007704Y1588636D02*
Y1588914D01*
X2007804Y1588736D02*
Y1588814D01*
X2008956Y1589889D02*
X2007076Y1591769D01*
X2006393Y1591086*
X2008273Y1589205*
X2008956Y1589889*
X2008175Y1589303D02*
X2008371D01*
X2008075Y1589403D02*
X2008471D01*
X2007975Y1589503D02*
X2008571D01*
X2007875Y1589603D02*
X2008671D01*
X2007775Y1589703D02*
X2008771D01*
X2007675Y1589803D02*
X2008871D01*
X2007575Y1589903D02*
X2008942D01*
X2007475Y1590003D02*
X2008842D01*
X2007375Y1590103D02*
X2008742D01*
X2007275Y1590203D02*
X2008642D01*
X2007175Y1590303D02*
X2008542D01*
X2007075Y1590403D02*
X2008442D01*
X2006975Y1590503D02*
X2008342D01*
X2006875Y1590603D02*
X2008242D01*
X2006775Y1590703D02*
X2008142D01*
X2006675Y1590803D02*
X2008042D01*
X2006575Y1590903D02*
X2007942D01*
X2006475Y1591003D02*
X2007842D01*
X2006410Y1591103D02*
X2007742D01*
X2006510Y1591203D02*
X2007642D01*
X2006610Y1591303D02*
X2007542D01*
X2006710Y1591403D02*
X2007442D01*
X2006810Y1591503D02*
X2007342D01*
X2006910Y1591603D02*
X2007242D01*
X2007010Y1591703D02*
X2007142D01*
X2006404Y1591075D02*
Y1591097D01*
X2006504Y1590975D02*
Y1591197D01*
X2006604Y1590875D02*
Y1591297D01*
X2006704Y1590775D02*
Y1591397D01*
X2006804Y1590675D02*
Y1591497D01*
X2006904Y1590575D02*
Y1591597D01*
X2007004Y1590475D02*
Y1591697D01*
X2007104Y1590375D02*
Y1591741D01*
X2007204Y1590275D02*
Y1591641D01*
X2007304Y1590175D02*
Y1591541D01*
X2007404Y1590075D02*
Y1591441D01*
X2007504Y1589975D02*
Y1591341D01*
X2007604Y1589875D02*
Y1591241D01*
X2007704Y1589775D02*
Y1591141D01*
X2007804Y1589675D02*
Y1591041D01*
X2007904Y1589575D02*
Y1590941D01*
X2008004Y1589475D02*
Y1590841D01*
X2008104Y1589375D02*
Y1590741D01*
X2008204Y1589275D02*
Y1590641D01*
X2008304Y1589236D02*
Y1590541D01*
X2008404Y1589336D02*
Y1590441D01*
X2008504Y1589436D02*
Y1590341D01*
X2008604Y1589536D02*
Y1590241D01*
X2008704Y1589636D02*
Y1590141D01*
X2008804Y1589736D02*
Y1590041D01*
X2008904Y1589836D02*
Y1589941D01*
X2010070Y1591002D02*
X2008190Y1592882D01*
X2007506Y1592199*
X2009387Y1590319*
X2010070Y1591002*
X2009302Y1590403D02*
X2009471D01*
X2009202Y1590503D02*
X2009571D01*
X2009102Y1590603D02*
X2009671D01*
X2009002Y1590703D02*
X2009771D01*
X2008902Y1590803D02*
X2009871D01*
X2008802Y1590903D02*
X2009971D01*
X2008702Y1591003D02*
X2010069D01*
X2008602Y1591103D02*
X2009969D01*
X2008502Y1591203D02*
X2009869D01*
X2008402Y1591303D02*
X2009769D01*
X2008302Y1591403D02*
X2009669D01*
X2008202Y1591503D02*
X2009569D01*
X2008102Y1591603D02*
X2009469D01*
X2008002Y1591703D02*
X2009369D01*
X2007902Y1591803D02*
X2009269D01*
X2007802Y1591903D02*
X2009169D01*
X2007702Y1592003D02*
X2009069D01*
X2007602Y1592103D02*
X2008969D01*
X2007510Y1592203D02*
X2008869D01*
X2007610Y1592303D02*
X2008769D01*
X2007710Y1592403D02*
X2008669D01*
X2007810Y1592503D02*
X2008569D01*
X2007910Y1592603D02*
X2008469D01*
X2008010Y1592703D02*
X2008369D01*
X2008110Y1592803D02*
X2008269D01*
X2007604Y1592102D02*
Y1592297D01*
X2007704Y1592002D02*
Y1592397D01*
X2007804Y1591902D02*
Y1592497D01*
X2007904Y1591802D02*
Y1592597D01*
X2008004Y1591702D02*
Y1592697D01*
X2008104Y1591602D02*
Y1592797D01*
X2008204Y1591502D02*
Y1592868D01*
X2008304Y1591402D02*
Y1592768D01*
X2008404Y1591302D02*
Y1592668D01*
X2008504Y1591202D02*
Y1592568D01*
X2008604Y1591102D02*
Y1592468D01*
X2008704Y1591002D02*
Y1592368D01*
X2008804Y1590902D02*
Y1592268D01*
X2008904Y1590802D02*
Y1592168D01*
X2009004Y1590702D02*
Y1592068D01*
X2009104Y1590602D02*
Y1591968D01*
X2009204Y1590502D02*
Y1591868D01*
X2009304Y1590402D02*
Y1591768D01*
X2009404Y1590336D02*
Y1591668D01*
X2009504Y1590436D02*
Y1591568D01*
X2009604Y1590536D02*
Y1591468D01*
X2009704Y1590636D02*
Y1591368D01*
X2009804Y1590736D02*
Y1591268D01*
X2009904Y1590836D02*
Y1591168D01*
X2010004Y1590936D02*
Y1591068D01*
X2011183Y1592116D02*
X2009303Y1593996D01*
X2008620Y1593313*
X2010500Y1591433*
X2011183Y1592116*
X2010430Y1591503D02*
X2010571D01*
X2010330Y1591603D02*
X2010671D01*
X2010230Y1591703D02*
X2010771D01*
X2010130Y1591803D02*
X2010871D01*
X2010030Y1591903D02*
X2010971D01*
X2009930Y1592003D02*
X2011071D01*
X2009830Y1592103D02*
X2011171D01*
X2009730Y1592203D02*
X2011096D01*
X2009630Y1592303D02*
X2010996D01*
X2009530Y1592403D02*
X2010896D01*
X2009430Y1592503D02*
X2010796D01*
X2009330Y1592603D02*
X2010696D01*
X2009230Y1592703D02*
X2010596D01*
X2009130Y1592803D02*
X2010496D01*
X2009030Y1592903D02*
X2010396D01*
X2008930Y1593003D02*
X2010296D01*
X2008830Y1593103D02*
X2010196D01*
X2008730Y1593203D02*
X2010096D01*
X2008630Y1593303D02*
X2009996D01*
X2008710Y1593403D02*
X2009896D01*
X2008810Y1593503D02*
X2009796D01*
X2008910Y1593603D02*
X2009696D01*
X2009010Y1593703D02*
X2009596D01*
X2009110Y1593803D02*
X2009496D01*
X2009210Y1593903D02*
X2009396D01*
X2008704Y1593229D02*
Y1593397D01*
X2008804Y1593129D02*
Y1593497D01*
X2008904Y1593029D02*
Y1593597D01*
X2009004Y1592929D02*
Y1593697D01*
X2009104Y1592829D02*
Y1593797D01*
X2009204Y1592729D02*
Y1593897D01*
X2009304Y1592629D02*
Y1593995D01*
X2009404Y1592529D02*
Y1593895D01*
X2009504Y1592429D02*
Y1593795D01*
X2009604Y1592329D02*
Y1593695D01*
X2009704Y1592229D02*
Y1593595D01*
X2009804Y1592129D02*
Y1593495D01*
X2009904Y1592029D02*
Y1593395D01*
X2010004Y1591929D02*
Y1593295D01*
X2010104Y1591829D02*
Y1593195D01*
X2010204Y1591729D02*
Y1593095D01*
X2010304Y1591629D02*
Y1592995D01*
X2010404Y1591529D02*
Y1592895D01*
X2010504Y1591436D02*
Y1592795D01*
X2010604Y1591536D02*
Y1592695D01*
X2010704Y1591636D02*
Y1592595D01*
X2010804Y1591736D02*
Y1592495D01*
X2010904Y1591836D02*
Y1592395D01*
X2011004Y1591936D02*
Y1592295D01*
X2011104Y1592036D02*
Y1592195D01*
X2012297Y1593229D02*
X2010417Y1595109D01*
X2009733Y1594426*
X2011614Y1592546*
X2012297Y1593229*
X2011557Y1592603D02*
X2011671D01*
X2011457Y1592703D02*
X2011771D01*
X2011357Y1592803D02*
X2011871D01*
X2011257Y1592903D02*
X2011971D01*
X2011157Y1593003D02*
X2012071D01*
X2011057Y1593103D02*
X2012171D01*
X2010957Y1593203D02*
X2012271D01*
X2010857Y1593303D02*
X2012223D01*
X2010757Y1593403D02*
X2012123D01*
X2010657Y1593503D02*
X2012023D01*
X2010557Y1593603D02*
X2011923D01*
X2010457Y1593703D02*
X2011823D01*
X2010357Y1593803D02*
X2011723D01*
X2010257Y1593903D02*
X2011623D01*
X2010157Y1594003D02*
X2011523D01*
X2010057Y1594103D02*
X2011423D01*
X2009957Y1594203D02*
X2011323D01*
X2009857Y1594303D02*
X2011223D01*
X2009757Y1594403D02*
X2011123D01*
X2009810Y1594503D02*
X2011023D01*
X2009910Y1594603D02*
X2010923D01*
X2010010Y1594703D02*
X2010823D01*
X2010110Y1594803D02*
X2010723D01*
X2010210Y1594903D02*
X2010623D01*
X2010310Y1595003D02*
X2010523D01*
X2010410Y1595103D02*
X2010423D01*
X2009804Y1594356D02*
Y1594497D01*
X2009904Y1594256D02*
Y1594597D01*
X2010004Y1594156D02*
Y1594697D01*
X2010104Y1594056D02*
Y1594797D01*
X2010204Y1593956D02*
Y1594897D01*
X2010304Y1593856D02*
Y1594997D01*
X2010404Y1593756D02*
Y1595097D01*
X2010504Y1593656D02*
Y1595022D01*
X2010604Y1593556D02*
Y1594922D01*
X2010704Y1593456D02*
Y1594822D01*
X2010804Y1593356D02*
Y1594722D01*
X2010904Y1593256D02*
Y1594622D01*
X2011004Y1593156D02*
Y1594522D01*
X2011104Y1593056D02*
Y1594422D01*
X2011204Y1592956D02*
Y1594322D01*
X2011304Y1592856D02*
Y1594222D01*
X2011404Y1592756D02*
Y1594122D01*
X2011504Y1592656D02*
Y1594022D01*
X2011604Y1592556D02*
Y1593922D01*
X2011704Y1592636D02*
Y1593822D01*
X2011804Y1592736D02*
Y1593722D01*
X2011904Y1592836D02*
Y1593622D01*
X2012004Y1592936D02*
Y1593522D01*
X2012104Y1593036D02*
Y1593422D01*
X2012204Y1593136D02*
Y1593322D01*
X2013410Y1594343D02*
X2011530Y1596223D01*
X2010847Y1595540*
X2012727Y1593660*
X2013410Y1594343*
X2012684Y1593703D02*
X2012771D01*
X2012584Y1593803D02*
X2012871D01*
X2012484Y1593903D02*
X2012971D01*
X2012384Y1594003D02*
X2013071D01*
X2012284Y1594103D02*
X2013171D01*
X2012184Y1594203D02*
X2013271D01*
X2012084Y1594303D02*
X2013371D01*
X2011984Y1594403D02*
X2013350D01*
X2011884Y1594503D02*
X2013250D01*
X2011784Y1594603D02*
X2013150D01*
X2011684Y1594703D02*
X2013050D01*
X2011584Y1594803D02*
X2012950D01*
X2011484Y1594903D02*
X2012850D01*
X2011384Y1595003D02*
X2012750D01*
X2011284Y1595103D02*
X2012650D01*
X2011184Y1595203D02*
X2012550D01*
X2011084Y1595303D02*
X2012450D01*
X2010984Y1595403D02*
X2012350D01*
X2010884Y1595503D02*
X2012250D01*
X2010910Y1595603D02*
X2012150D01*
X2011010Y1595703D02*
X2012050D01*
X2011110Y1595803D02*
X2011950D01*
X2011210Y1595903D02*
X2011850D01*
X2011310Y1596003D02*
X2011750D01*
X2011410Y1596103D02*
X2011650D01*
X2011510Y1596203D02*
X2011550D01*
X2010904Y1595483D02*
Y1595597D01*
X2011004Y1595383D02*
Y1595697D01*
X2011104Y1595283D02*
Y1595797D01*
X2011204Y1595183D02*
Y1595897D01*
X2011304Y1595083D02*
Y1595997D01*
X2011404Y1594983D02*
Y1596097D01*
X2011504Y1594883D02*
Y1596197D01*
X2011604Y1594783D02*
Y1596149D01*
X2011704Y1594683D02*
Y1596049D01*
X2011804Y1594583D02*
Y1595949D01*
X2011904Y1594483D02*
Y1595849D01*
X2012004Y1594383D02*
Y1595749D01*
X2012104Y1594283D02*
Y1595649D01*
X2012204Y1594183D02*
Y1595549D01*
X2012304Y1594083D02*
Y1595449D01*
X2012404Y1593983D02*
Y1595349D01*
X2012504Y1593883D02*
Y1595249D01*
X2012604Y1593783D02*
Y1595149D01*
X2012704Y1593683D02*
Y1595049D01*
X2012804Y1593736D02*
Y1594949D01*
X2012904Y1593836D02*
Y1594849D01*
X2013004Y1593936D02*
Y1594749D01*
X2013104Y1594036D02*
Y1594649D01*
X2013204Y1594136D02*
Y1594549D01*
X2013304Y1594236D02*
Y1594449D01*
X2013404Y1594336D02*
Y1594349D01*
X2014524Y1595456D02*
X2012644Y1597337D01*
X2011961Y1596653*
X2013841Y1594773*
X2014524Y1595456*
X2013811Y1594803D02*
X2013871D01*
X2013711Y1594903D02*
X2013971D01*
X2013611Y1595003D02*
X2014071D01*
X2013511Y1595103D02*
X2014171D01*
X2013411Y1595203D02*
X2014271D01*
X2013311Y1595303D02*
X2014371D01*
X2013211Y1595403D02*
X2014471D01*
X2013111Y1595503D02*
X2014477D01*
X2013011Y1595603D02*
X2014377D01*
X2012911Y1595703D02*
X2014277D01*
X2012811Y1595803D02*
X2014177D01*
X2012711Y1595903D02*
X2014077D01*
X2012611Y1596003D02*
X2013977D01*
X2012511Y1596103D02*
X2013877D01*
X2012411Y1596203D02*
X2013777D01*
X2012311Y1596303D02*
X2013677D01*
X2012211Y1596403D02*
X2013577D01*
X2012111Y1596503D02*
X2013477D01*
X2012011Y1596603D02*
X2013377D01*
X2012010Y1596703D02*
X2013277D01*
X2012110Y1596803D02*
X2013177D01*
X2012210Y1596903D02*
X2013077D01*
X2012310Y1597003D02*
X2012977D01*
X2012410Y1597103D02*
X2012877D01*
X2012510Y1597203D02*
X2012777D01*
X2012610Y1597303D02*
X2012677D01*
X2012004Y1596610D02*
Y1596697D01*
X2012104Y1596510D02*
Y1596797D01*
X2012204Y1596410D02*
Y1596897D01*
X2012304Y1596310D02*
Y1596997D01*
X2012404Y1596210D02*
Y1597097D01*
X2012504Y1596110D02*
Y1597197D01*
X2012604Y1596010D02*
Y1597297D01*
X2012704Y1595910D02*
Y1597276D01*
X2012804Y1595810D02*
Y1597176D01*
X2012904Y1595710D02*
Y1597076D01*
X2013004Y1595610D02*
Y1596976D01*
X2013104Y1595510D02*
Y1596876D01*
X2013204Y1595410D02*
Y1596776D01*
X2013304Y1595310D02*
Y1596676D01*
X2013404Y1595210D02*
Y1596576D01*
X2013504Y1595110D02*
Y1596476D01*
X2013604Y1595010D02*
Y1596376D01*
X2013704Y1594910D02*
Y1596276D01*
X2013804Y1594810D02*
Y1596176D01*
X2013904Y1594836D02*
Y1596076D01*
X2014004Y1594936D02*
Y1595976D01*
X2014104Y1595036D02*
Y1595876D01*
X2014204Y1595136D02*
Y1595776D01*
X2014304Y1595236D02*
Y1595676D01*
X2014404Y1595336D02*
Y1595576D01*
X2014504Y1595436D02*
Y1595476D01*
X2015638Y1596570D02*
X2013757Y1598450D01*
X2013074Y1597767*
X2014954Y1595887*
X2015638Y1596570*
X2014938Y1595903D02*
X2014971D01*
X2014838Y1596003D02*
X2015071D01*
X2014738Y1596103D02*
X2015171D01*
X2014638Y1596203D02*
X2015271D01*
X2014538Y1596303D02*
X2015371D01*
X2014438Y1596403D02*
X2015471D01*
X2014338Y1596503D02*
X2015571D01*
X2014238Y1596603D02*
X2015604D01*
X2014138Y1596703D02*
X2015504D01*
X2014038Y1596803D02*
X2015404D01*
X2013938Y1596903D02*
X2015304D01*
X2013838Y1597003D02*
X2015204D01*
X2013738Y1597103D02*
X2015104D01*
X2013638Y1597203D02*
X2015004D01*
X2013538Y1597303D02*
X2014904D01*
X2013438Y1597403D02*
X2014804D01*
X2013338Y1597503D02*
X2014704D01*
X2013238Y1597603D02*
X2014604D01*
X2013138Y1597703D02*
X2014504D01*
X2013110Y1597803D02*
X2014404D01*
X2013210Y1597903D02*
X2014304D01*
X2013310Y1598003D02*
X2014204D01*
X2013410Y1598103D02*
X2014104D01*
X2013510Y1598203D02*
X2014004D01*
X2013610Y1598303D02*
X2013904D01*
X2013710Y1598403D02*
X2013804D01*
X2013104Y1597737D02*
Y1597797D01*
X2013204Y1597637D02*
Y1597897D01*
X2013304Y1597537D02*
Y1597997D01*
X2013404Y1597437D02*
Y1598097D01*
X2013504Y1597337D02*
Y1598197D01*
X2013604Y1597237D02*
Y1598297D01*
X2013704Y1597137D02*
Y1598397D01*
X2013804Y1597037D02*
Y1598404D01*
X2013904Y1596937D02*
Y1598304D01*
X2014004Y1596837D02*
Y1598204D01*
X2014104Y1596737D02*
Y1598104D01*
X2014204Y1596637D02*
Y1598004D01*
X2014304Y1596537D02*
Y1597904D01*
X2014404Y1596437D02*
Y1597804D01*
X2014504Y1596337D02*
Y1597704D01*
X2014604Y1596237D02*
Y1597604D01*
X2014704Y1596137D02*
Y1597504D01*
X2014804Y1596037D02*
Y1597404D01*
X2014904Y1595937D02*
Y1597304D01*
X2015004Y1595936D02*
Y1597204D01*
X2015104Y1596036D02*
Y1597104D01*
X2015204Y1596136D02*
Y1597004D01*
X2015304Y1596236D02*
Y1596904D01*
X2015404Y1596336D02*
Y1596804D01*
X2015504Y1596436D02*
Y1596704D01*
X2015604Y1596536D02*
Y1596604D01*
X2014954Y1603044D02*
X2013074Y1601163D01*
X2013757Y1600480*
X2015638Y1602360*
X2014954Y1603044*
X2013734Y1600503D02*
X2013780D01*
X2013634Y1600603D02*
X2013880D01*
X2013534Y1600703D02*
X2013980D01*
X2013434Y1600803D02*
X2014080D01*
X2013334Y1600903D02*
X2014180D01*
X2013234Y1601003D02*
X2014280D01*
X2013134Y1601103D02*
X2014380D01*
X2013114Y1601203D02*
X2014480D01*
X2013214Y1601303D02*
X2014580D01*
X2013314Y1601403D02*
X2014680D01*
X2013414Y1601503D02*
X2014780D01*
X2013514Y1601603D02*
X2014880D01*
X2013614Y1601703D02*
X2014980D01*
X2013714Y1601803D02*
X2015080D01*
X2013814Y1601903D02*
X2015180D01*
X2013914Y1602003D02*
X2015280D01*
X2014014Y1602103D02*
X2015380D01*
X2014114Y1602203D02*
X2015480D01*
X2014214Y1602303D02*
X2015580D01*
X2014314Y1602403D02*
X2015595D01*
X2014414Y1602503D02*
X2015495D01*
X2014514Y1602603D02*
X2015395D01*
X2014614Y1602703D02*
X2015295D01*
X2014714Y1602803D02*
X2015195D01*
X2014814Y1602903D02*
X2015095D01*
X2014914Y1603003D02*
X2014995D01*
X2013104Y1601134D02*
Y1601193D01*
X2013204Y1601034D02*
Y1601293D01*
X2013304Y1600934D02*
Y1601393D01*
X2013404Y1600834D02*
Y1601493D01*
X2013504Y1600734D02*
Y1601593D01*
X2013604Y1600634D02*
Y1601693D01*
X2013704Y1600534D02*
Y1601793D01*
X2013804Y1600527D02*
Y1601893D01*
X2013904Y1600627D02*
Y1601993D01*
X2014004Y1600727D02*
Y1602093D01*
X2014104Y1600827D02*
Y1602193D01*
X2014204Y1600927D02*
Y1602293D01*
X2014304Y1601027D02*
Y1602393D01*
X2014404Y1601127D02*
Y1602493D01*
X2014504Y1601227D02*
Y1602593D01*
X2014604Y1601327D02*
Y1602693D01*
X2014704Y1601427D02*
Y1602793D01*
X2014804Y1601527D02*
Y1602893D01*
X2014904Y1601627D02*
Y1602993D01*
X2015004Y1601727D02*
Y1602994D01*
X2015104Y1601827D02*
Y1602894D01*
X2015204Y1601927D02*
Y1602794D01*
X2015304Y1602027D02*
Y1602694D01*
X2015404Y1602127D02*
Y1602594D01*
X2015504Y1602227D02*
Y1602494D01*
X2015604Y1602327D02*
Y1602394D01*
X2013841Y1604157D02*
X2011961Y1602277D01*
X2012644Y1601594*
X2014524Y1603474*
X2013841Y1604157*
X2012634Y1601603D02*
X2012653D01*
X2012534Y1601703D02*
X2012753D01*
X2012434Y1601803D02*
X2012853D01*
X2012334Y1601903D02*
X2012953D01*
X2012234Y1602003D02*
X2013053D01*
X2012134Y1602103D02*
X2013153D01*
X2012034Y1602203D02*
X2013253D01*
X2011987Y1602303D02*
X2013353D01*
X2012087Y1602403D02*
X2013453D01*
X2012187Y1602503D02*
X2013553D01*
X2012287Y1602603D02*
X2013653D01*
X2012387Y1602703D02*
X2013753D01*
X2012487Y1602803D02*
X2013853D01*
X2012587Y1602903D02*
X2013953D01*
X2012687Y1603003D02*
X2014053D01*
X2012787Y1603103D02*
X2014153D01*
X2012887Y1603203D02*
X2014253D01*
X2012987Y1603303D02*
X2014353D01*
X2013087Y1603403D02*
X2014453D01*
X2013187Y1603503D02*
X2014495D01*
X2013287Y1603603D02*
X2014395D01*
X2013387Y1603703D02*
X2014295D01*
X2013487Y1603803D02*
X2014195D01*
X2013587Y1603903D02*
X2014095D01*
X2013687Y1604003D02*
X2013995D01*
X2013787Y1604103D02*
X2013895D01*
X2012004Y1602234D02*
Y1602320D01*
X2012104Y1602134D02*
Y1602420D01*
X2012204Y1602034D02*
Y1602520D01*
X2012304Y1601934D02*
Y1602620D01*
X2012404Y1601834D02*
Y1602720D01*
X2012504Y1601734D02*
Y1602820D01*
X2012604Y1601634D02*
Y1602920D01*
X2012704Y1601654D02*
Y1603020D01*
X2012804Y1601754D02*
Y1603120D01*
X2012904Y1601854D02*
Y1603220D01*
X2013004Y1601954D02*
Y1603320D01*
X2013104Y1602054D02*
Y1603420D01*
X2013204Y1602154D02*
Y1603520D01*
X2013304Y1602254D02*
Y1603620D01*
X2013404Y1602354D02*
Y1603720D01*
X2013504Y1602454D02*
Y1603820D01*
X2013604Y1602554D02*
Y1603920D01*
X2013704Y1602654D02*
Y1604020D01*
X2013804Y1602754D02*
Y1604120D01*
X2013904Y1602854D02*
Y1604094D01*
X2014004Y1602954D02*
Y1603994D01*
X2014104Y1603054D02*
Y1603894D01*
X2014204Y1603154D02*
Y1603794D01*
X2014304Y1603254D02*
Y1603694D01*
X2014404Y1603354D02*
Y1603594D01*
X2014504Y1603454D02*
Y1603494D01*
X2012727Y1605271D02*
X2010847Y1603390D01*
X2011530Y1602707*
X2013410Y1604587*
X2012727Y1605271*
X2011434Y1602803D02*
X2011626D01*
X2011334Y1602903D02*
X2011726D01*
X2011234Y1603003D02*
X2011826D01*
X2011134Y1603103D02*
X2011926D01*
X2011034Y1603203D02*
X2012026D01*
X2010934Y1603303D02*
X2012126D01*
X2010860Y1603403D02*
X2012226D01*
X2010960Y1603503D02*
X2012326D01*
X2011060Y1603603D02*
X2012426D01*
X2011160Y1603703D02*
X2012526D01*
X2011260Y1603803D02*
X2012626D01*
X2011360Y1603903D02*
X2012726D01*
X2011460Y1604003D02*
X2012826D01*
X2011560Y1604103D02*
X2012926D01*
X2011660Y1604203D02*
X2013026D01*
X2011760Y1604303D02*
X2013126D01*
X2011860Y1604403D02*
X2013226D01*
X2011960Y1604503D02*
X2013326D01*
X2012060Y1604603D02*
X2013395D01*
X2012160Y1604703D02*
X2013295D01*
X2012260Y1604803D02*
X2013195D01*
X2012360Y1604903D02*
X2013095D01*
X2012460Y1605003D02*
X2012995D01*
X2012560Y1605103D02*
X2012895D01*
X2012660Y1605203D02*
X2012795D01*
X2010904Y1603334D02*
Y1603447D01*
X2011004Y1603234D02*
Y1603547D01*
X2011104Y1603134D02*
Y1603647D01*
X2011204Y1603034D02*
Y1603747D01*
X2011304Y1602934D02*
Y1603847D01*
X2011404Y1602834D02*
Y1603947D01*
X2011504Y1602734D02*
Y1604047D01*
X2011604Y1602781D02*
Y1604147D01*
X2011704Y1602881D02*
Y1604247D01*
X2011804Y1602981D02*
Y1604347D01*
X2011904Y1603081D02*
Y1604447D01*
X2012004Y1603181D02*
Y1604547D01*
X2012104Y1603281D02*
Y1604647D01*
X2012204Y1603381D02*
Y1604747D01*
X2012304Y1603481D02*
Y1604847D01*
X2012404Y1603581D02*
Y1604947D01*
X2012504Y1603681D02*
Y1605047D01*
X2012604Y1603781D02*
Y1605147D01*
X2012704Y1603881D02*
Y1605247D01*
X2012804Y1603981D02*
Y1605194D01*
X2012904Y1604081D02*
Y1605094D01*
X2013004Y1604181D02*
Y1604994D01*
X2013104Y1604281D02*
Y1604894D01*
X2013204Y1604381D02*
Y1604794D01*
X2013304Y1604481D02*
Y1604694D01*
X2013404Y1604581D02*
Y1604594D01*
X2011614Y1606384D02*
X2009733Y1604504D01*
X2010417Y1603821*
X2012297Y1605701*
X2011614Y1606384*
X2010334Y1603903D02*
X2010499D01*
X2010234Y1604003D02*
X2010599D01*
X2010134Y1604103D02*
X2010699D01*
X2010034Y1604203D02*
X2010799D01*
X2009934Y1604303D02*
X2010899D01*
X2009834Y1604403D02*
X2010999D01*
X2009734Y1604503D02*
X2011099D01*
X2009833Y1604603D02*
X2011199D01*
X2009933Y1604703D02*
X2011299D01*
X2010033Y1604803D02*
X2011399D01*
X2010133Y1604903D02*
X2011499D01*
X2010233Y1605003D02*
X2011599D01*
X2010333Y1605103D02*
X2011699D01*
X2010433Y1605203D02*
X2011799D01*
X2010533Y1605303D02*
X2011899D01*
X2010633Y1605403D02*
X2011999D01*
X2010733Y1605503D02*
X2012099D01*
X2010833Y1605603D02*
X2012199D01*
X2010933Y1605703D02*
X2012295D01*
X2011033Y1605803D02*
X2012195D01*
X2011133Y1605903D02*
X2012095D01*
X2011233Y1606003D02*
X2011995D01*
X2011333Y1606103D02*
X2011895D01*
X2011433Y1606203D02*
X2011795D01*
X2011533Y1606303D02*
X2011695D01*
X2009804Y1604434D02*
Y1604574D01*
X2009904Y1604334D02*
Y1604674D01*
X2010004Y1604234D02*
Y1604774D01*
X2010104Y1604134D02*
Y1604874D01*
X2010204Y1604034D02*
Y1604974D01*
X2010304Y1603934D02*
Y1605074D01*
X2010404Y1603834D02*
Y1605174D01*
X2010504Y1603908D02*
Y1605274D01*
X2010604Y1604008D02*
Y1605374D01*
X2010704Y1604108D02*
Y1605474D01*
X2010804Y1604208D02*
Y1605574D01*
X2010904Y1604308D02*
Y1605674D01*
X2011004Y1604408D02*
Y1605774D01*
X2011104Y1604508D02*
Y1605874D01*
X2011204Y1604608D02*
Y1605974D01*
X2011304Y1604708D02*
Y1606074D01*
X2011404Y1604808D02*
Y1606174D01*
X2011504Y1604908D02*
Y1606274D01*
X2011604Y1605008D02*
Y1606374D01*
X2011704Y1605108D02*
Y1606294D01*
X2011804Y1605208D02*
Y1606194D01*
X2011904Y1605308D02*
Y1606094D01*
X2012004Y1605408D02*
Y1605994D01*
X2012104Y1605508D02*
Y1605894D01*
X2012204Y1605608D02*
Y1605794D01*
X2010500Y1607498D02*
X2008620Y1605618D01*
X2009303Y1604934*
X2011183Y1606815*
X2010500Y1607498*
X2009234Y1605003D02*
X2009372D01*
X2009134Y1605103D02*
X2009472D01*
X2009034Y1605203D02*
X2009572D01*
X2008934Y1605303D02*
X2009672D01*
X2008834Y1605403D02*
X2009772D01*
X2008734Y1605503D02*
X2009872D01*
X2008634Y1605603D02*
X2009972D01*
X2008706Y1605703D02*
X2010072D01*
X2008806Y1605803D02*
X2010172D01*
X2008906Y1605903D02*
X2010272D01*
X2009006Y1606003D02*
X2010372D01*
X2009106Y1606103D02*
X2010472D01*
X2009206Y1606203D02*
X2010572D01*
X2009306Y1606303D02*
X2010672D01*
X2009406Y1606403D02*
X2010772D01*
X2009506Y1606503D02*
X2010872D01*
X2009606Y1606603D02*
X2010972D01*
X2009706Y1606703D02*
X2011072D01*
X2009806Y1606803D02*
X2011172D01*
X2009906Y1606903D02*
X2011095D01*
X2010006Y1607003D02*
X2010995D01*
X2010106Y1607103D02*
X2010895D01*
X2010206Y1607203D02*
X2010795D01*
X2010306Y1607303D02*
X2010695D01*
X2010406Y1607403D02*
X2010595D01*
X2008704Y1605534D02*
Y1605702D01*
X2008804Y1605434D02*
Y1605802D01*
X2008904Y1605334D02*
Y1605902D01*
X2009004Y1605234D02*
Y1606002D01*
X2009104Y1605134D02*
Y1606102D01*
X2009204Y1605034D02*
Y1606202D01*
X2009304Y1604935D02*
Y1606302D01*
X2009404Y1605035D02*
Y1606402D01*
X2009504Y1605135D02*
Y1606502D01*
X2009604Y1605235D02*
Y1606602D01*
X2009704Y1605335D02*
Y1606702D01*
X2009804Y1605435D02*
Y1606802D01*
X2009904Y1605535D02*
Y1606902D01*
X2010004Y1605635D02*
Y1607002D01*
X2010104Y1605735D02*
Y1607102D01*
X2010204Y1605835D02*
Y1607202D01*
X2010304Y1605935D02*
Y1607302D01*
X2010404Y1606035D02*
Y1607402D01*
X2010504Y1606135D02*
Y1607494D01*
X2010604Y1606235D02*
Y1607394D01*
X2010704Y1606335D02*
Y1607294D01*
X2010804Y1606435D02*
Y1607194D01*
X2010904Y1606535D02*
Y1607094D01*
X2011004Y1606635D02*
Y1606994D01*
X2011104Y1606735D02*
Y1606894D01*
X2009387Y1608611D02*
X2007506Y1606731D01*
X2008190Y1606048*
X2010070Y1607928*
X2009387Y1608611*
X2008134Y1606103D02*
X2008245D01*
X2008034Y1606203D02*
X2008345D01*
X2007934Y1606303D02*
X2008445D01*
X2007834Y1606403D02*
X2008545D01*
X2007734Y1606503D02*
X2008645D01*
X2007634Y1606603D02*
X2008745D01*
X2007534Y1606703D02*
X2008845D01*
X2007578Y1606803D02*
X2008945D01*
X2007678Y1606903D02*
X2009045D01*
X2007778Y1607003D02*
X2009145D01*
X2007878Y1607103D02*
X2009245D01*
X2007978Y1607203D02*
X2009345D01*
X2008078Y1607303D02*
X2009445D01*
X2008178Y1607403D02*
X2009545D01*
X2008278Y1607503D02*
X2009645D01*
X2008378Y1607603D02*
X2009745D01*
X2008478Y1607703D02*
X2009845D01*
X2008578Y1607803D02*
X2009945D01*
X2008678Y1607903D02*
X2010045D01*
X2008778Y1608003D02*
X2009995D01*
X2008878Y1608103D02*
X2009895D01*
X2008978Y1608203D02*
X2009795D01*
X2009078Y1608303D02*
X2009695D01*
X2009178Y1608403D02*
X2009595D01*
X2009278Y1608503D02*
X2009495D01*
X2009378Y1608603D02*
X2009395D01*
X2007604Y1606634D02*
Y1606829D01*
X2007704Y1606534D02*
Y1606929D01*
X2007804Y1606434D02*
Y1607029D01*
X2007904Y1606334D02*
Y1607129D01*
X2008004Y1606234D02*
Y1607229D01*
X2008104Y1606134D02*
Y1607329D01*
X2008204Y1606062D02*
Y1607429D01*
X2008304Y1606162D02*
Y1607529D01*
X2008404Y1606262D02*
Y1607629D01*
X2008504Y1606362D02*
Y1607729D01*
X2008604Y1606462D02*
Y1607829D01*
X2008704Y1606562D02*
Y1607929D01*
X2008804Y1606662D02*
Y1608029D01*
X2008904Y1606762D02*
Y1608129D01*
X2009004Y1606862D02*
Y1608229D01*
X2009104Y1606962D02*
Y1608329D01*
X2009204Y1607062D02*
Y1608429D01*
X2009304Y1607162D02*
Y1608529D01*
X2009404Y1607262D02*
Y1608594D01*
X2009504Y1607362D02*
Y1608494D01*
X2009604Y1607462D02*
Y1608394D01*
X2009704Y1607562D02*
Y1608294D01*
X2009804Y1607662D02*
Y1608194D01*
X2009904Y1607762D02*
Y1608094D01*
X2010004Y1607862D02*
Y1607994D01*
X2008273Y1609725D02*
X2006393Y1607845D01*
X2007076Y1607161*
X2008956Y1609042*
X2008273Y1609725*
X2007034Y1607203D02*
X2007118D01*
X2006934Y1607303D02*
X2007218D01*
X2006834Y1607403D02*
X2007318D01*
X2006734Y1607503D02*
X2007418D01*
X2006634Y1607603D02*
X2007518D01*
X2006534Y1607703D02*
X2007618D01*
X2006434Y1607803D02*
X2007718D01*
X2006451Y1607903D02*
X2007818D01*
X2006551Y1608003D02*
X2007918D01*
X2006651Y1608103D02*
X2008018D01*
X2006751Y1608203D02*
X2008118D01*
X2006851Y1608303D02*
X2008218D01*
X2006951Y1608403D02*
X2008318D01*
X2007051Y1608503D02*
X2008418D01*
X2007151Y1608603D02*
X2008518D01*
X2007251Y1608703D02*
X2008618D01*
X2007351Y1608803D02*
X2008718D01*
X2007451Y1608903D02*
X2008818D01*
X2007551Y1609003D02*
X2008918D01*
X2007651Y1609103D02*
X2008895D01*
X2007751Y1609203D02*
X2008795D01*
X2007851Y1609303D02*
X2008695D01*
X2007951Y1609403D02*
X2008595D01*
X2008051Y1609503D02*
X2008495D01*
X2008151Y1609603D02*
X2008395D01*
X2008251Y1609703D02*
X2008295D01*
X2006404Y1607834D02*
Y1607856D01*
X2006504Y1607734D02*
Y1607956D01*
X2006604Y1607634D02*
Y1608056D01*
X2006704Y1607534D02*
Y1608156D01*
X2006804Y1607434D02*
Y1608256D01*
X2006904Y1607334D02*
Y1608356D01*
X2007004Y1607234D02*
Y1608456D01*
X2007104Y1607189D02*
Y1608556D01*
X2007204Y1607289D02*
Y1608656D01*
X2007304Y1607389D02*
Y1608756D01*
X2007404Y1607489D02*
Y1608856D01*
X2007504Y1607589D02*
Y1608956D01*
X2007604Y1607689D02*
Y1609056D01*
X2007704Y1607789D02*
Y1609156D01*
X2007804Y1607889D02*
Y1609256D01*
X2007904Y1607989D02*
Y1609356D01*
X2008004Y1608089D02*
Y1609456D01*
X2008104Y1608189D02*
Y1609556D01*
X2008204Y1608289D02*
Y1609656D01*
X2008304Y1608389D02*
Y1609694D01*
X2008404Y1608489D02*
Y1609594D01*
X2008504Y1608589D02*
Y1609494D01*
X2008604Y1608689D02*
Y1609394D01*
X2008704Y1608789D02*
Y1609294D01*
X2008804Y1608889D02*
Y1609194D01*
X2008904Y1608989D02*
Y1609094D01*
X2007159Y1610838D02*
X2005279Y1608958D01*
X2005962Y1608275*
X2007843Y1610155*
X2007159Y1610838*
X2005934Y1608303D02*
X2005991D01*
X2005834Y1608403D02*
X2006091D01*
X2005734Y1608503D02*
X2006191D01*
X2005634Y1608603D02*
X2006291D01*
X2005534Y1608703D02*
X2006391D01*
X2005434Y1608803D02*
X2006491D01*
X2005334Y1608903D02*
X2006591D01*
X2005324Y1609003D02*
X2006691D01*
X2005424Y1609103D02*
X2006791D01*
X2005524Y1609203D02*
X2006891D01*
X2005624Y1609303D02*
X2006991D01*
X2005724Y1609403D02*
X2007091D01*
X2005824Y1609503D02*
X2007191D01*
X2005924Y1609603D02*
X2007291D01*
X2006024Y1609703D02*
X2007391D01*
X2006124Y1609803D02*
X2007491D01*
X2006224Y1609903D02*
X2007591D01*
X2006324Y1610003D02*
X2007691D01*
X2006424Y1610103D02*
X2007791D01*
X2006524Y1610203D02*
X2007795D01*
X2006624Y1610303D02*
X2007695D01*
X2006724Y1610403D02*
X2007595D01*
X2006824Y1610503D02*
X2007495D01*
X2006924Y1610603D02*
X2007395D01*
X2007024Y1610703D02*
X2007295D01*
X2007124Y1610803D02*
X2007195D01*
X2005304Y1608934D02*
Y1608983D01*
X2005404Y1608834D02*
Y1609083D01*
X2005504Y1608734D02*
Y1609183D01*
X2005604Y1608634D02*
Y1609283D01*
X2005704Y1608534D02*
Y1609383D01*
X2005804Y1608434D02*
Y1609483D01*
X2005904Y1608334D02*
Y1609583D01*
X2006004Y1608317D02*
Y1609683D01*
X2006104Y1608417D02*
Y1609783D01*
X2006204Y1608517D02*
Y1609883D01*
X2006304Y1608617D02*
Y1609983D01*
X2006404Y1608717D02*
Y1610083D01*
X2006504Y1608817D02*
Y1610183D01*
X2006604Y1608917D02*
Y1610283D01*
X2006704Y1609017D02*
Y1610383D01*
X2006804Y1609117D02*
Y1610483D01*
X2006904Y1609217D02*
Y1610583D01*
X2007004Y1609317D02*
Y1610683D01*
X2007104Y1609417D02*
Y1610783D01*
X2007204Y1609517D02*
Y1610794D01*
X2007304Y1609617D02*
Y1610694D01*
X2007404Y1609717D02*
Y1610594D01*
X2007504Y1609817D02*
Y1610494D01*
X2007604Y1609917D02*
Y1610394D01*
X2007704Y1610017D02*
Y1610294D01*
X2007804Y1610117D02*
Y1610194D01*
X2006046Y1611952D02*
X2004166Y1610072D01*
X2004849Y1609389*
X2006729Y1611269*
X2006046Y1611952*
X2004834Y1609403D02*
X2004863D01*
X2004734Y1609503D02*
X2004963D01*
X2004634Y1609603D02*
X2005063D01*
X2004534Y1609703D02*
X2005163D01*
X2004434Y1609803D02*
X2005263D01*
X2004334Y1609903D02*
X2005363D01*
X2004234Y1610003D02*
X2005463D01*
X2004197Y1610103D02*
X2005563D01*
X2004297Y1610203D02*
X2005663D01*
X2004397Y1610303D02*
X2005763D01*
X2004497Y1610403D02*
X2005863D01*
X2004597Y1610503D02*
X2005963D01*
X2004697Y1610603D02*
X2006063D01*
X2004797Y1610703D02*
X2006163D01*
X2004897Y1610803D02*
X2006263D01*
X2004997Y1610903D02*
X2006363D01*
X2005097Y1611003D02*
X2006463D01*
X2005197Y1611103D02*
X2006563D01*
X2005297Y1611203D02*
X2006663D01*
X2005397Y1611303D02*
X2006695D01*
X2005497Y1611403D02*
X2006595D01*
X2005597Y1611503D02*
X2006495D01*
X2005697Y1611603D02*
X2006395D01*
X2005797Y1611703D02*
X2006295D01*
X2005897Y1611803D02*
X2006195D01*
X2005997Y1611903D02*
X2006095D01*
X2004204Y1610034D02*
Y1610110D01*
X2004304Y1609934D02*
Y1610210D01*
X2004404Y1609834D02*
Y1610310D01*
X2004504Y1609734D02*
Y1610410D01*
X2004604Y1609634D02*
Y1610510D01*
X2004704Y1609534D02*
Y1610610D01*
X2004804Y1609434D02*
Y1610710D01*
X2004904Y1609444D02*
Y1610810D01*
X2005004Y1609544D02*
Y1610910D01*
X2005104Y1609644D02*
Y1611010D01*
X2005204Y1609744D02*
Y1611110D01*
X2005304Y1609844D02*
Y1611210D01*
X2005404Y1609944D02*
Y1611310D01*
X2005504Y1610044D02*
Y1611410D01*
X2005604Y1610144D02*
Y1611510D01*
X2005704Y1610244D02*
Y1611610D01*
X2005804Y1610344D02*
Y1611710D01*
X2005904Y1610444D02*
Y1611810D01*
X2006004Y1610544D02*
Y1611910D01*
X2006104Y1610644D02*
Y1611894D01*
X2006204Y1610744D02*
Y1611794D01*
X2006304Y1610844D02*
Y1611694D01*
X2006404Y1610944D02*
Y1611594D01*
X2006504Y1611044D02*
Y1611494D01*
X2006604Y1611144D02*
Y1611394D01*
X2006704Y1611244D02*
Y1611294D01*
X2004932Y1613066D02*
X2003052Y1611185D01*
X2003735Y1610502*
X2005616Y1612382*
X2004932Y1613066*
X2003734Y1610503D02*
X2003736D01*
X2003634Y1610603D02*
X2003836D01*
X2003534Y1610703D02*
X2003936D01*
X2003434Y1610803D02*
X2004036D01*
X2003334Y1610903D02*
X2004136D01*
X2003234Y1611003D02*
X2004236D01*
X2003134Y1611103D02*
X2004336D01*
X2003070Y1611203D02*
X2004436D01*
X2003170Y1611303D02*
X2004536D01*
X2003270Y1611403D02*
X2004636D01*
X2003370Y1611503D02*
X2004736D01*
X2003470Y1611603D02*
X2004836D01*
X2003570Y1611703D02*
X2004936D01*
X2003670Y1611803D02*
X2005036D01*
X2003770Y1611903D02*
X2005136D01*
X2003870Y1612003D02*
X2005236D01*
X2003970Y1612103D02*
X2005336D01*
X2004070Y1612203D02*
X2005436D01*
X2004170Y1612303D02*
X2005536D01*
X2004270Y1612403D02*
X2005595D01*
X2004370Y1612503D02*
X2005495D01*
X2004470Y1612603D02*
X2005395D01*
X2004570Y1612703D02*
X2005295D01*
X2004670Y1612803D02*
X2005195D01*
X2004770Y1612903D02*
X2005095D01*
X2004870Y1613003D02*
X2004995D01*
X2003104Y1611134D02*
Y1611237D01*
X2003204Y1611034D02*
Y1611337D01*
X2003304Y1610934D02*
Y1611437D01*
X2003404Y1610834D02*
Y1611537D01*
X2003504Y1610734D02*
Y1611637D01*
X2003604Y1610634D02*
Y1611737D01*
X2003704Y1610534D02*
Y1611837D01*
X2003804Y1610571D02*
Y1611937D01*
X2003904Y1610671D02*
Y1612037D01*
X2004004Y1610771D02*
Y1612137D01*
X2004104Y1610871D02*
Y1612237D01*
X2004204Y1610971D02*
Y1612337D01*
X2004304Y1611071D02*
Y1612437D01*
X2004404Y1611171D02*
Y1612537D01*
X2004504Y1611271D02*
Y1612637D01*
X2004604Y1611371D02*
Y1612737D01*
X2004704Y1611471D02*
Y1612837D01*
X2004804Y1611571D02*
Y1612937D01*
X2004904Y1611671D02*
Y1613037D01*
X2005004Y1611771D02*
Y1612994D01*
X2005104Y1611871D02*
Y1612894D01*
X2005204Y1611971D02*
Y1612794D01*
X2005304Y1612071D02*
Y1612694D01*
X2005404Y1612171D02*
Y1612594D01*
X2005504Y1612271D02*
Y1612494D01*
X2005604Y1612371D02*
Y1612394D01*
X2003819Y1614179D02*
X2001939Y1612299D01*
X2002622Y1611616*
X2004502Y1613496*
X2003819Y1614179*
X2002534Y1611703D02*
X2002709D01*
X2002434Y1611803D02*
X2002809D01*
X2002334Y1611903D02*
X2002909D01*
X2002234Y1612003D02*
X2003009D01*
X2002134Y1612103D02*
X2003109D01*
X2002034Y1612203D02*
X2003209D01*
X2001943Y1612303D02*
X2003309D01*
X2002043Y1612403D02*
X2003409D01*
X2002143Y1612503D02*
X2003509D01*
X2002243Y1612603D02*
X2003609D01*
X2002343Y1612703D02*
X2003709D01*
X2002443Y1612803D02*
X2003809D01*
X2002543Y1612903D02*
X2003909D01*
X2002643Y1613003D02*
X2004009D01*
X2002743Y1613103D02*
X2004109D01*
X2002843Y1613203D02*
X2004209D01*
X2002943Y1613303D02*
X2004309D01*
X2003043Y1613403D02*
X2004409D01*
X2003143Y1613503D02*
X2004495D01*
X2003243Y1613603D02*
X2004395D01*
X2003343Y1613703D02*
X2004295D01*
X2003443Y1613803D02*
X2004195D01*
X2003543Y1613903D02*
X2004095D01*
X2003643Y1614003D02*
X2003995D01*
X2003743Y1614103D02*
X2003895D01*
X2002004Y1612234D02*
Y1612364D01*
X2002104Y1612134D02*
Y1612464D01*
X2002204Y1612034D02*
Y1612564D01*
X2002304Y1611934D02*
Y1612664D01*
X2002404Y1611834D02*
Y1612764D01*
X2002504Y1611734D02*
Y1612864D01*
X2002604Y1611634D02*
Y1612964D01*
X2002704Y1611698D02*
Y1613064D01*
X2002804Y1611798D02*
Y1613164D01*
X2002904Y1611898D02*
Y1613264D01*
X2003004Y1611998D02*
Y1613364D01*
X2003104Y1612098D02*
Y1613464D01*
X2003204Y1612198D02*
Y1613564D01*
X2003304Y1612298D02*
Y1613664D01*
X2003404Y1612398D02*
Y1613764D01*
X2003504Y1612498D02*
Y1613864D01*
X2003604Y1612598D02*
Y1613964D01*
X2003704Y1612698D02*
Y1614064D01*
X2003804Y1612798D02*
Y1614164D01*
X2003904Y1612898D02*
Y1614094D01*
X2004004Y1612998D02*
Y1613994D01*
X2004104Y1613098D02*
Y1613894D01*
X2004204Y1613198D02*
Y1613794D01*
X2004304Y1613298D02*
Y1613694D01*
X2004404Y1613398D02*
Y1613594D01*
X2002705Y1615293D02*
X2000825Y1613412D01*
X2001508Y1612729*
X2003388Y1614609*
X2002705Y1615293*
X2001434Y1612803D02*
X2001582D01*
X2001334Y1612903D02*
X2001682D01*
X2001234Y1613003D02*
X2001782D01*
X2001134Y1613103D02*
X2001882D01*
X2001034Y1613203D02*
X2001982D01*
X2000934Y1613303D02*
X2002082D01*
X2000834Y1613403D02*
X2002182D01*
X2000916Y1613503D02*
X2002282D01*
X2001016Y1613603D02*
X2002382D01*
X2001116Y1613703D02*
X2002482D01*
X2001216Y1613803D02*
X2002582D01*
X2001316Y1613903D02*
X2002682D01*
X2001416Y1614003D02*
X2002782D01*
X2001516Y1614103D02*
X2002882D01*
X2001616Y1614203D02*
X2002982D01*
X2001716Y1614303D02*
X2003082D01*
X2001816Y1614403D02*
X2003182D01*
X2001916Y1614503D02*
X2003282D01*
X2002016Y1614603D02*
X2003382D01*
X2002116Y1614703D02*
X2003295D01*
X2002216Y1614803D02*
X2003195D01*
X2002316Y1614903D02*
X2003095D01*
X2002416Y1615003D02*
X2002995D01*
X2002516Y1615103D02*
X2002895D01*
X2002616Y1615203D02*
X2002795D01*
X2000904Y1613334D02*
Y1613491D01*
X2001004Y1613234D02*
Y1613591D01*
X2001104Y1613134D02*
Y1613691D01*
X2001204Y1613034D02*
Y1613791D01*
X2001304Y1612934D02*
Y1613891D01*
X2001404Y1612834D02*
Y1613991D01*
X2001504Y1612734D02*
Y1614091D01*
X2001604Y1612825D02*
Y1614191D01*
X2001704Y1612925D02*
Y1614291D01*
X2001804Y1613025D02*
Y1614391D01*
X2001904Y1613125D02*
Y1614491D01*
X2002004Y1613225D02*
Y1614591D01*
X2002104Y1613325D02*
Y1614691D01*
X2002204Y1613425D02*
Y1614791D01*
X2002304Y1613525D02*
Y1614891D01*
X2002404Y1613625D02*
Y1614991D01*
X2002504Y1613725D02*
Y1615091D01*
X2002604Y1613825D02*
Y1615191D01*
X2002704Y1613925D02*
Y1615291D01*
X2002804Y1614025D02*
Y1615194D01*
X2002904Y1614125D02*
Y1615094D01*
X2003004Y1614225D02*
Y1614994D01*
X2003104Y1614325D02*
Y1614894D01*
X2003204Y1614425D02*
Y1614794D01*
X2003304Y1614525D02*
Y1614694D01*
X2001592Y1616406D02*
X1999711Y1614526D01*
X2000395Y1613843*
X2002275Y1615723*
X2001592Y1616406*
X2000334Y1613903D02*
X2000455D01*
X2000234Y1614003D02*
X2000555D01*
X2000134Y1614103D02*
X2000655D01*
X2000034Y1614203D02*
X2000755D01*
X1999934Y1614303D02*
X2000855D01*
X1999834Y1614403D02*
X2000955D01*
X1999734Y1614503D02*
X2001055D01*
X1999789Y1614603D02*
X2001155D01*
X1999889Y1614703D02*
X2001255D01*
X1999989Y1614803D02*
X2001355D01*
X2000089Y1614903D02*
X2001455D01*
X2000189Y1615003D02*
X2001555D01*
X2000289Y1615103D02*
X2001655D01*
X2000389Y1615203D02*
X2001755D01*
X2000489Y1615303D02*
X2001855D01*
X2000589Y1615403D02*
X2001955D01*
X2000689Y1615503D02*
X2002055D01*
X2000789Y1615603D02*
X2002155D01*
X2000889Y1615703D02*
X2002255D01*
X2000989Y1615803D02*
X2002195D01*
X2001089Y1615903D02*
X2002095D01*
X2001189Y1616003D02*
X2001995D01*
X2001289Y1616103D02*
X2001895D01*
X2001389Y1616203D02*
X2001795D01*
X2001489Y1616303D02*
X2001695D01*
X2001589Y1616403D02*
X2001595D01*
X1999804Y1614434D02*
Y1614618D01*
X1999904Y1614334D02*
Y1614718D01*
X2000004Y1614234D02*
Y1614818D01*
X2000104Y1614134D02*
Y1614918D01*
X2000204Y1614034D02*
Y1615018D01*
X2000304Y1613934D02*
Y1615118D01*
X2000404Y1613852D02*
Y1615218D01*
X2000504Y1613952D02*
Y1615318D01*
X2000604Y1614052D02*
Y1615418D01*
X2000704Y1614152D02*
Y1615518D01*
X2000804Y1614252D02*
Y1615618D01*
X2000904Y1614352D02*
Y1615718D01*
X2001004Y1614452D02*
Y1615818D01*
X2001104Y1614552D02*
Y1615918D01*
X2001204Y1614652D02*
Y1616018D01*
X2001304Y1614752D02*
Y1616118D01*
X2001404Y1614852D02*
Y1616218D01*
X2001504Y1614952D02*
Y1616318D01*
X2001604Y1615052D02*
Y1616394D01*
X2001704Y1615152D02*
Y1616294D01*
X2001804Y1615252D02*
Y1616194D01*
X2001904Y1615352D02*
Y1616094D01*
X2002004Y1615452D02*
Y1615994D01*
X2002104Y1615552D02*
Y1615894D01*
X2002204Y1615652D02*
Y1615794D01*
X1997583Y1602320D02*
X1994728Y1599465D01*
X1997583Y1596611*
X2000438Y1599465*
X1997583Y1602320*
X1997490Y1596703D02*
X1997676D01*
X1997390Y1596803D02*
X1997776D01*
X1997290Y1596903D02*
X1997876D01*
X1997190Y1597003D02*
X1997976D01*
X1997090Y1597103D02*
X1998076D01*
X1996990Y1597203D02*
X1998176D01*
X1996890Y1597303D02*
X1998276D01*
X1996790Y1597403D02*
X1998376D01*
X1996690Y1597503D02*
X1998476D01*
X1996590Y1597603D02*
X1998576D01*
X1996490Y1597703D02*
X1998676D01*
X1996390Y1597803D02*
X1998776D01*
X1996290Y1597903D02*
X1998876D01*
X1996190Y1598003D02*
X1998976D01*
X1996090Y1598103D02*
X1999076D01*
X1995990Y1598203D02*
X1999176D01*
X1995890Y1598303D02*
X1999276D01*
X1995790Y1598403D02*
X1999376D01*
X1995690Y1598503D02*
X1999476D01*
X1995590Y1598603D02*
X1999576D01*
X1995490Y1598703D02*
X1999676D01*
X1995390Y1598803D02*
X1999776D01*
X1995290Y1598903D02*
X1999876D01*
X1995190Y1599003D02*
X1999976D01*
X1995090Y1599103D02*
X2000076D01*
X1994990Y1599203D02*
X2000176D01*
X1994890Y1599303D02*
X2000276D01*
X1994790Y1599403D02*
X2000376D01*
X1994766Y1599503D02*
X2000400D01*
X1994866Y1599603D02*
X2000300D01*
X1994966Y1599703D02*
X2000200D01*
X1995066Y1599803D02*
X2000100D01*
X1995166Y1599903D02*
X2000000D01*
X1995266Y1600003D02*
X1999900D01*
X1995366Y1600103D02*
X1999800D01*
X1995466Y1600203D02*
X1999700D01*
X1995566Y1600303D02*
X1999600D01*
X1995666Y1600403D02*
X1999500D01*
X1995766Y1600503D02*
X1999400D01*
X1995866Y1600603D02*
X1999300D01*
X1995966Y1600703D02*
X1999200D01*
X1996066Y1600803D02*
X1999100D01*
X1996166Y1600903D02*
X1999000D01*
X1996266Y1601003D02*
X1998900D01*
X1996366Y1601103D02*
X1998800D01*
X1996466Y1601203D02*
X1998700D01*
X1996566Y1601303D02*
X1998600D01*
X1996666Y1601403D02*
X1998500D01*
X1996766Y1601503D02*
X1998400D01*
X1996866Y1601603D02*
X1998300D01*
X1996966Y1601703D02*
X1998200D01*
X1997066Y1601803D02*
X1998100D01*
X1997166Y1601903D02*
X1998000D01*
X1997266Y1602003D02*
X1997900D01*
X1997366Y1602103D02*
X1997800D01*
X1997466Y1602203D02*
X1997700D01*
X1997566Y1602303D02*
X1997600D01*
X1994804Y1599390D02*
Y1599541D01*
X1994904Y1599290D02*
Y1599641D01*
X1995004Y1599190D02*
Y1599741D01*
X1995104Y1599090D02*
Y1599841D01*
X1995204Y1598990D02*
Y1599941D01*
X1995304Y1598890D02*
Y1600041D01*
X1995404Y1598790D02*
Y1600141D01*
X1995504Y1598690D02*
Y1600241D01*
X1995604Y1598590D02*
Y1600341D01*
X1995704Y1598490D02*
Y1600441D01*
X1995804Y1598390D02*
Y1600541D01*
X1995904Y1598290D02*
Y1600641D01*
X1996004Y1598190D02*
Y1600741D01*
X1996104Y1598090D02*
Y1600841D01*
X1996204Y1597990D02*
Y1600941D01*
X1996304Y1597890D02*
Y1601041D01*
X1996404Y1597790D02*
Y1601141D01*
X1996504Y1597690D02*
Y1601241D01*
X1996604Y1597590D02*
Y1601341D01*
X1996704Y1597490D02*
Y1601441D01*
X1996804Y1597390D02*
Y1601541D01*
X1996904Y1597290D02*
Y1601641D01*
X1997004Y1597190D02*
Y1601741D01*
X1997104Y1597090D02*
Y1601841D01*
X1997204Y1596990D02*
Y1601941D01*
X1997304Y1596890D02*
Y1602041D01*
X1997404Y1596790D02*
Y1602141D01*
X1997504Y1596690D02*
Y1602241D01*
X1997604Y1596632D02*
Y1602299D01*
X1997704Y1596732D02*
Y1602199D01*
X1997804Y1596832D02*
Y1602099D01*
X1997904Y1596932D02*
Y1601999D01*
X1998004Y1597032D02*
Y1601899D01*
X1998104Y1597132D02*
Y1601799D01*
X1998204Y1597232D02*
Y1601699D01*
X1998304Y1597332D02*
Y1601599D01*
X1998404Y1597432D02*
Y1601499D01*
X1998504Y1597532D02*
Y1601399D01*
X1998604Y1597632D02*
Y1601299D01*
X1998704Y1597732D02*
Y1601199D01*
X1998804Y1597832D02*
Y1601099D01*
X1998904Y1597932D02*
Y1600999D01*
X1999004Y1598032D02*
Y1600899D01*
X1999104Y1598132D02*
Y1600799D01*
X1999204Y1598232D02*
Y1600699D01*
X1999304Y1598332D02*
Y1600599D01*
X1999404Y1598432D02*
Y1600499D01*
X1999504Y1598532D02*
Y1600399D01*
X1999604Y1598632D02*
Y1600299D01*
X1999704Y1598732D02*
Y1600199D01*
X1999804Y1598832D02*
Y1600099D01*
X1999904Y1598932D02*
Y1599999D01*
X2000004Y1599032D02*
Y1599899D01*
X2000104Y1599132D02*
Y1599799D01*
X2000204Y1599232D02*
Y1599699D01*
X2000304Y1599332D02*
Y1599599D01*
X2000404Y1599432D02*
Y1599499D01*
G54D24*
X1968504Y1574803D02*
Y1635433D01*
X2029134*
Y1574803*
X1968504*
G54D25*
X2000084Y1607817D02*
X1997583Y1610318D01*
X1995082Y1607817*
X1997583Y1605316*
X2000084Y1607817*
X1995183Y1607716D02*
Y1607918D01*
X1995483Y1607416D02*
Y1608218D01*
X1995783Y1607116D02*
Y1608518D01*
X1996083Y1606816D02*
Y1608818D01*
X1996383Y1606516D02*
Y1609118D01*
X1996683Y1606216D02*
Y1609418D01*
X1996983Y1605916D02*
Y1609718D01*
X1997283Y1605616D02*
Y1610018D01*
X1997583Y1605316D02*
Y1610318D01*
X1997883Y1605616D02*
Y1610018D01*
X1998183Y1605916D02*
Y1609718D01*
X1998483Y1606216D02*
Y1609418D01*
X1998783Y1606516D02*
Y1609118D01*
X1999083Y1606816D02*
Y1608818D01*
X1999383Y1607116D02*
Y1608518D01*
X1999683Y1607416D02*
Y1608218D01*
X1999983Y1607716D02*
Y1607918D01*
X2004260Y1603641D02*
X2001759Y1606142D01*
X1999258Y1603641*
X2001759Y1601140*
X2004260Y1603641*
X1999383Y1603516D02*
Y1603766D01*
X1999683Y1603216D02*
Y1604066D01*
X1999983Y1602916D02*
Y1604366D01*
X2000283Y1602616D02*
Y1604666D01*
X2000583Y1602316D02*
Y1604966D01*
X2000883Y1602016D02*
Y1605266D01*
X2001183Y1601716D02*
Y1605566D01*
X2001483Y1601416D02*
Y1605866D01*
X2001783Y1601164D02*
Y1606118D01*
X2002083Y1601464D02*
Y1605818D01*
X2002383Y1601764D02*
Y1605518D01*
X2002683Y1602064D02*
Y1605218D01*
X2002983Y1602364D02*
Y1604918D01*
X2003283Y1602664D02*
Y1604618D01*
X2003583Y1602964D02*
Y1604318D01*
X2003883Y1603264D02*
Y1604018D01*
X2004183Y1603564D02*
Y1603718D01*
X2008436Y1599465D02*
X2005935Y1601966D01*
X2003434Y1599465*
X2005935Y1596964*
X2008436Y1599465*
X2003583Y1599316D02*
Y1599615D01*
X2003883Y1599016D02*
Y1599915D01*
X2004183Y1598716D02*
Y1600215D01*
X2004483Y1598416D02*
Y1600515D01*
X2004783Y1598116D02*
Y1600815D01*
X2005083Y1597816D02*
Y1601115D01*
X2005383Y1597516D02*
Y1601415D01*
X2005683Y1597216D02*
Y1601715D01*
X2005983Y1597012D02*
Y1601918D01*
X2006283Y1597312D02*
Y1601618D01*
X2006583Y1597612D02*
Y1601318D01*
X2006883Y1597912D02*
Y1601018D01*
X2007183Y1598212D02*
Y1600718D01*
X2007483Y1598512D02*
Y1600418D01*
X2007783Y1598812D02*
Y1600118D01*
X2008083Y1599112D02*
Y1599818D01*
X2008383Y1599412D02*
Y1599518D01*
X2004260Y1595289D02*
X2001759Y1597790D01*
X1999258Y1595289*
X2001759Y1592788*
X2004260Y1595289*
X1999383Y1595164D02*
Y1595415D01*
X1999683Y1594864D02*
Y1595715D01*
X1999983Y1594564D02*
Y1596015D01*
X2000283Y1594264D02*
Y1596315D01*
X2000583Y1593964D02*
Y1596615D01*
X2000883Y1593664D02*
Y1596915D01*
X2001183Y1593364D02*
Y1597215D01*
X2001483Y1593064D02*
Y1597515D01*
X2001783Y1592812D02*
Y1597766D01*
X2002083Y1593112D02*
Y1597466D01*
X2002383Y1593412D02*
Y1597166D01*
X2002683Y1593712D02*
Y1596866D01*
X2002983Y1594012D02*
Y1596566D01*
X2003283Y1594312D02*
Y1596266D01*
X2003583Y1594612D02*
Y1595966D01*
X2003883Y1594912D02*
Y1595666D01*
X2004183Y1595212D02*
Y1595366D01*
X2000084Y1591113D02*
X1997583Y1593615D01*
X1995082Y1591113*
X1997583Y1588612*
X2000084Y1591113*
X1995183Y1591012D02*
Y1591215D01*
X1995483Y1590712D02*
Y1591515D01*
X1995783Y1590412D02*
Y1591815D01*
X1996083Y1590112D02*
Y1592115D01*
X1996383Y1589812D02*
Y1592415D01*
X1996683Y1589512D02*
Y1592715D01*
X1996983Y1589212D02*
Y1593015D01*
X1997283Y1588912D02*
Y1593315D01*
X1997583Y1588612D02*
Y1593615D01*
X1997883Y1588912D02*
Y1593315D01*
X1998183Y1589212D02*
Y1593015D01*
X1998483Y1589512D02*
Y1592715D01*
X1998783Y1589812D02*
Y1592415D01*
X1999083Y1590112D02*
Y1592115D01*
X1999383Y1590412D02*
Y1591815D01*
X1999683Y1590712D02*
Y1591515D01*
X1999983Y1591012D02*
Y1591215D01*
X1995908Y1595289D02*
X1993407Y1597790D01*
X1990906Y1595289*
X1993407Y1592788*
X1995908Y1595289*
X1990983Y1595212D02*
Y1595366D01*
X1991283Y1594912D02*
Y1595666D01*
X1991583Y1594612D02*
Y1595966D01*
X1991883Y1594312D02*
Y1596266D01*
X1992183Y1594012D02*
Y1596566D01*
X1992483Y1593712D02*
Y1596866D01*
X1992783Y1593412D02*
Y1597166D01*
X1993083Y1593112D02*
Y1597466D01*
X1993383Y1592812D02*
Y1597766D01*
X1993683Y1593064D02*
Y1597515D01*
X1993983Y1593364D02*
Y1597215D01*
X1994283Y1593664D02*
Y1596915D01*
X1994583Y1593964D02*
Y1596615D01*
X1994883Y1594264D02*
Y1596315D01*
X1995183Y1594564D02*
Y1596015D01*
X1995483Y1594864D02*
Y1595715D01*
X1995783Y1595164D02*
Y1595415D01*
X1991732Y1599465D02*
X1989231Y1601966D01*
X1986730Y1599465*
X1989231Y1596964*
X1991732Y1599465*
X1986783Y1599412D02*
Y1599518D01*
X1987083Y1599112D02*
Y1599818D01*
X1987383Y1598812D02*
Y1600118D01*
X1987683Y1598512D02*
Y1600418D01*
X1987983Y1598212D02*
Y1600718D01*
X1988283Y1597912D02*
Y1601018D01*
X1988583Y1597612D02*
Y1601318D01*
X1988883Y1597312D02*
Y1601618D01*
X1989183Y1597012D02*
Y1601918D01*
X1989483Y1597216D02*
Y1601715D01*
X1989783Y1597516D02*
Y1601415D01*
X1990083Y1597816D02*
Y1601115D01*
X1990383Y1598116D02*
Y1600815D01*
X1990683Y1598416D02*
Y1600515D01*
X1990983Y1598716D02*
Y1600215D01*
X1991283Y1599016D02*
Y1599915D01*
X1991583Y1599316D02*
Y1599615D01*
X1995908Y1603641D02*
X1993407Y1606142D01*
X1990906Y1603641*
X1993407Y1601140*
X1995908Y1603641*
X1990983Y1603564D02*
Y1603718D01*
X1991283Y1603264D02*
Y1604018D01*
X1991583Y1602964D02*
Y1604318D01*
X1991883Y1602664D02*
Y1604618D01*
X1992183Y1602364D02*
Y1604918D01*
X1992483Y1602064D02*
Y1605218D01*
X1992783Y1601764D02*
Y1605518D01*
X1993083Y1601464D02*
Y1605818D01*
X1993383Y1601164D02*
Y1606118D01*
X1993683Y1601416D02*
Y1605866D01*
X1993983Y1601716D02*
Y1605566D01*
X1994283Y1602016D02*
Y1605266D01*
X1994583Y1602316D02*
Y1604966D01*
X1994883Y1602616D02*
Y1604666D01*
X1995183Y1602916D02*
Y1604366D01*
X1995483Y1603216D02*
Y1604066D01*
X1995783Y1603516D02*
Y1603766D01*
X1978704Y1617292D02*
Y1619292D01*
X1980704*
Y1617292*
X1978704*
Y1617403D02*
X1980704D01*
X1978704Y1618003D02*
X1980704D01*
X1978704Y1618603D02*
X1980704D01*
X1978704Y1619203D02*
X1980704D01*
X1978704Y1617292D02*
Y1619292D01*
X1979304Y1617292D02*
Y1619292D01*
X1979904Y1617292D02*
Y1619292D01*
X1980504Y1617292D02*
Y1619292D01*
X1978704Y1613914D02*
Y1615914D01*
X1980704*
Y1613914*
X1978704*
Y1614403D02*
X1980704D01*
X1978704Y1615003D02*
X1980704D01*
X1978704Y1615603D02*
X1980704D01*
X1978704Y1613914D02*
Y1615914D01*
X1979304Y1613914D02*
Y1615914D01*
X1979904Y1613914D02*
Y1615914D01*
X1980504Y1613914D02*
Y1615914D01*
X1997583Y1610176D02*
X1999943Y1607817D01*
X1997583Y1605457*
X1995223Y1607817*
X1997583Y1610176*
X2001759Y1601281D02*
X1999399Y1603641D01*
X2001759Y1606001*
X2004118Y1603641*
X2001759Y1601281*
X2005935Y1597106D02*
X2003575Y1599465D01*
X2005935Y1601825*
X2008294Y1599465*
X2005935Y1597106*
X2001759Y1592930D02*
X1999399Y1595289D01*
X2001759Y1597649*
X2004118Y1595289*
X2001759Y1592930*
X1993407Y1606001D02*
X1995767Y1603641D01*
X1993407Y1601281*
X1991047Y1603641*
X1993407Y1606001*
X1989231Y1601825D02*
X1991591Y1599465D01*
X1989231Y1597106*
X1986872Y1599465*
X1989231Y1601825*
X1993407Y1592930D02*
X1991047Y1595289D01*
X1993407Y1597649*
X1995767Y1595289*
X1993407Y1592930*
X1997583Y1588754D02*
X1995223Y1591113D01*
X1997583Y1593473*
X1999943Y1591113*
X1997583Y1588754*
Y1597106D02*
X1995223Y1599465D01*
X1997583Y1601825*
X1999943Y1599465*
X1997583Y1597106*
X1995424Y1607616D02*
X1999742D01*
X1995562Y1608156D02*
X1999603D01*
X1995964Y1607076D02*
X1999202D01*
X1996102Y1608696D02*
X1999063D01*
X1996504Y1606536D02*
X1998662D01*
X1996642Y1609236D02*
X1998523D01*
X1997044Y1605996D02*
X1998122D01*
X1997182Y1609776D02*
X1997983D01*
X1999600Y1603440D02*
X2003917D01*
X1999738Y1603980D02*
X2003779D01*
X2000140Y1602900D02*
X2003377D01*
X2000278Y1604520D02*
X2003239D01*
X2000680Y1602360D02*
X2002837D01*
X2000818Y1605060D02*
X2002699D01*
X2001220Y1601820D02*
X2002297D01*
X2001358Y1605600D02*
X2002159D01*
X2003776Y1599264D02*
X2008093D01*
X2003914Y1599804D02*
X2007955D01*
X2004316Y1598724D02*
X2007553D01*
X2004454Y1600344D02*
X2007415D01*
X2004856Y1598184D02*
X2007013D01*
X2004994Y1600884D02*
X2006875D01*
X2005396Y1597644D02*
X2006473D01*
X2005534Y1601424D02*
X2006335D01*
X1999600Y1595088D02*
X2003917D01*
X1999738Y1595628D02*
X2003779D01*
X2000140Y1594548D02*
X2003377D01*
X2000278Y1596168D02*
X2003239D01*
X2000680Y1594008D02*
X2002837D01*
X2000818Y1596708D02*
X2002699D01*
X2001220Y1593468D02*
X2002297D01*
X2001358Y1597248D02*
X2002159D01*
X1991248Y1603440D02*
X1995566D01*
X1991387Y1603980D02*
X1995428D01*
X1991788Y1602900D02*
X1995026D01*
X1991927Y1604520D02*
X1994888D01*
X1992328Y1602360D02*
X1994486D01*
X1992467Y1605060D02*
X1994348D01*
X1992868Y1601820D02*
X1993946D01*
X1993007Y1605600D02*
X1993808D01*
X1987073Y1599264D02*
X1991390D01*
X1987211Y1599804D02*
X1991252D01*
X1987613Y1598724D02*
X1990850D01*
X1987751Y1600344D02*
X1990712D01*
X1988153Y1598184D02*
X1990310D01*
X1988291Y1600884D02*
X1990172D01*
X1988693Y1597644D02*
X1989770D01*
X1988831Y1601424D02*
X1989632D01*
X1991248Y1595088D02*
X1995566D01*
X1991387Y1595628D02*
X1995428D01*
X1991788Y1594548D02*
X1995026D01*
X1991927Y1596168D02*
X1994888D01*
X1992328Y1594008D02*
X1994486D01*
X1992467Y1596708D02*
X1994348D01*
X1992868Y1593468D02*
X1993946D01*
X1993007Y1597248D02*
X1993808D01*
X1995424Y1590913D02*
X1999742D01*
X1995562Y1591453D02*
X1999603D01*
X1995964Y1590373D02*
X1999202D01*
X1996102Y1591993D02*
X1999063D01*
X1996504Y1589833D02*
X1998662D01*
X1996642Y1592533D02*
X1998523D01*
X1997044Y1589293D02*
X1998122D01*
X1997182Y1593073D02*
X1997983D01*
X1995424Y1599264D02*
X1999742D01*
X1995562Y1599804D02*
X1999603D01*
X1995964Y1598724D02*
X1999202D01*
X1996102Y1600344D02*
X1999063D01*
X1996504Y1598184D02*
X1998662D01*
X1996642Y1600884D02*
X1998523D01*
X1997044Y1597644D02*
X1998122D01*
X1997182Y1601424D02*
X1997983D01*
G54D31*
X2011374Y1619197D02*
Y1620788D01*
X2009243Y1622918*
X2006596Y1620271*
X2009522Y1617346*
X2011374Y1619197*
X2006692Y1620175D02*
Y1620367D01*
X2006889Y1619978D02*
Y1620564D01*
X2007086Y1619781D02*
Y1620761D01*
X2007283Y1619584D02*
Y1620958D01*
X2007480Y1619387D02*
Y1621154D01*
X2007677Y1619191D02*
Y1621351D01*
X2007874Y1618994D02*
Y1621548D01*
X2008070Y1618797D02*
Y1621745D01*
X2008267Y1618600D02*
Y1621942D01*
X2008464Y1618403D02*
Y1622139D01*
X2008661Y1618206D02*
Y1622335D01*
X2008858Y1618010D02*
Y1622532D01*
X2009055Y1617813D02*
Y1622729D01*
X2009252Y1617616D02*
Y1622910D01*
X2009448Y1617419D02*
Y1622713D01*
X2009645Y1617469D02*
Y1622516D01*
X2009842Y1617666D02*
Y1622319D01*
X2010039Y1617863D02*
Y1622122D01*
X2010236Y1618060D02*
Y1621925D01*
X2010433Y1618257D02*
Y1621729D01*
X2010629Y1618453D02*
Y1621532D01*
X2010826Y1618650D02*
Y1621335D01*
X2011023Y1618847D02*
Y1621138D01*
X2011220Y1619044D02*
Y1620941D01*
X1971752Y1577260D02*
X1976198D01*
X1971752Y1581706*
Y1577260*
X2025886Y1629630D02*
X2021440D01*
X2025886Y1625184*
Y1629630*
X1971752Y1577652D02*
X1975805D01*
X1971752Y1578046D02*
X1975411D01*
X1971752Y1578440D02*
X1975017D01*
X1971752Y1578834D02*
X1974623D01*
X1971752Y1579228D02*
X1974229D01*
X1971752Y1579622D02*
X1973835D01*
X1971752Y1580016D02*
X1973441D01*
X1971752Y1580410D02*
X1973047D01*
X1971752Y1580804D02*
X1972653D01*
X1971752Y1581198D02*
X1972259D01*
X1971752Y1581592D02*
X1971865D01*
X2021553Y1629517D02*
X2025886D01*
X2021947Y1629123D02*
X2025886D01*
X2022341Y1628729D02*
X2025886D01*
X2022735Y1628335D02*
X2025886D01*
X2023129Y1627941D02*
X2025886D01*
X2023523Y1627547D02*
X2025886D01*
X2023917Y1627153D02*
X2025886D01*
X2024311Y1626759D02*
X2025886D01*
X2024705Y1626365D02*
X2025886D01*
X2025099Y1625971D02*
X2025886D01*
X2025493Y1625577D02*
X2025886D01*
X1976086Y1577260D02*
Y1577372D01*
X1975692Y1577260D02*
Y1577766D01*
X1975298Y1577260D02*
Y1578160D01*
X1974904Y1577260D02*
Y1578554D01*
X1974510Y1577260D02*
Y1578948D01*
X1974116Y1577260D02*
Y1579342D01*
X1973722Y1577260D02*
Y1579736D01*
X1973328Y1577260D02*
Y1580130D01*
X1972934Y1577260D02*
Y1580524D01*
X1972540Y1577260D02*
Y1580918D01*
X1972146Y1577260D02*
Y1581312D01*
X2025774Y1625296D02*
Y1629630D01*
X2025380Y1625690D02*
Y1629630D01*
X2024986Y1626084D02*
Y1629630D01*
X2024592Y1626478D02*
Y1629630D01*
X2024198Y1626872D02*
Y1629630D01*
X2023804Y1627266D02*
Y1629630D01*
X2023410Y1627660D02*
Y1629630D01*
X2023016Y1628054D02*
Y1629630D01*
X2022622Y1628448D02*
Y1629630D01*
X2022228Y1628842D02*
Y1629630D01*
X2021834Y1629236D02*
Y1629630D01*
G54D35*
X1988287Y1625768D02*
Y1622223D01*
X1971555*
G54D36*
Y1622027D02*
Y1577067D01*
X2026083*
Y1629823*
X1995571*
G54D204*
X2025886Y1577264D02*
Y1581709D01*
X2021440Y1577264*
X2025886*
X2025694Y1581518D02*
X2025886D01*
X2025339Y1581163D02*
X2025886D01*
X2024985Y1580809D02*
X2025886D01*
X2024630Y1580454D02*
X2025886D01*
X2024276Y1580099D02*
X2025886D01*
X2023921Y1579745D02*
X2025886D01*
X2023566Y1579390D02*
X2025886D01*
X2023212Y1579036D02*
X2025886D01*
X2022857Y1578681D02*
X2025886D01*
X2022503Y1578326D02*
X2025886D01*
X2022148Y1577972D02*
X2025886D01*
X2021793Y1577617D02*
X2025886D01*
G54D347*
X1975397Y1617415D03*
Y1614659D03*
G54D386*
X1984917Y1629121D03*
G54D387*
X1981077Y1633061D03*
Y1625181D03*
G54D388*
X1977042Y1629121D03*
G54D389*
X1994688Y1616837D02*
X1995885Y1615640D01*
X1999281D02*
X2000478Y1616837D01*
G54D390*
X1993224Y1622149D03*
Y1624117D03*
X1984970Y1616083D03*
X1986938D03*
G54D391*
X2006174Y1616364D02*
X2005338Y1617199D01*
X2006174Y1618034*
X2007009Y1617199*
X2006174Y1616364*
X2005878Y1616659D02*
X2006469D01*
X2005442Y1617095D02*
X2006905D01*
X2005671Y1617531D02*
X2006677D01*
X2006107Y1617967D02*
X2006241D01*
X2005564Y1616973D02*
Y1617424D01*
X2006000Y1616537D02*
Y1617860D01*
X2006436Y1616626D02*
Y1617772D01*
X2006872Y1617062D02*
Y1617336D01*
X2004782Y1614972D02*
X2003947Y1615807D01*
X2004782Y1616643*
X2005617Y1615807*
X2004782Y1614972*
X2004403Y1615351D02*
X2005161D01*
X2003967Y1615787D02*
X2005597D01*
X2004363Y1616223D02*
X2005202D01*
X2004256Y1615498D02*
Y1616116D01*
X2004692Y1615062D02*
Y1616552D01*
X2005128Y1615318D02*
Y1616297D01*
X2005564Y1615754D02*
Y1615861D01*
X2015929Y1606912D02*
Y1608094D01*
X2017111*
Y1606912*
X2015929*
Y1607067D02*
X2017111D01*
X2015929Y1607503D02*
X2017111D01*
X2015929Y1607939D02*
X2017111D01*
X2016028Y1606912D02*
Y1608094D01*
X2016464Y1606912D02*
Y1608094D01*
X2016900Y1606912D02*
Y1608094D01*
X2017897Y1606912D02*
Y1608094D01*
X2019079*
Y1606912*
X2017897*
Y1607067D02*
X2019079D01*
X2017897Y1607503D02*
X2019079D01*
X2017897Y1607939D02*
X2019079D01*
X2018208Y1606912D02*
Y1608094D01*
X2018644Y1606912D02*
Y1608094D01*
X2018429Y1599812D02*
Y1600994D01*
X2019611*
Y1599812*
X2018429*
Y1600091D02*
X2019611D01*
X2018429Y1600527D02*
X2019611D01*
X2018429Y1600963D02*
X2019611D01*
X2018644Y1599812D02*
Y1600994D01*
X2019080Y1599812D02*
Y1600994D01*
X2019516Y1599812D02*
Y1600994D01*
X2020397Y1599812D02*
Y1600994D01*
X2021579*
Y1599812*
X2020397*
Y1600091D02*
X2021579D01*
X2020397Y1600527D02*
X2021579D01*
X2020397Y1600963D02*
X2021579D01*
X2020824Y1599812D02*
Y1600994D01*
X2021260Y1599812D02*
Y1600994D01*
X1999979Y1619321D02*
Y1620503D01*
X2001161*
Y1619321*
X1999979*
Y1619711D02*
X2001161D01*
X1999979Y1620147D02*
X2001161D01*
X2000332Y1619321D02*
Y1620503D01*
X2000768Y1619321D02*
Y1620503D01*
X1999979Y1621289D02*
Y1622471D01*
X2001161*
Y1621289*
X1999979*
Y1621455D02*
X2001161D01*
X1999979Y1621891D02*
X2001161D01*
X1999979Y1622327D02*
X2001161D01*
X2000332Y1621289D02*
Y1622471D01*
X2000768Y1621289D02*
Y1622471D01*
X1994598Y1619262D02*
Y1620444D01*
X1995779*
Y1619262*
X1994598*
Y1619275D02*
X1995779D01*
X1994598Y1619711D02*
X1995779D01*
X1994598Y1620147D02*
X1995779D01*
X1994664Y1619262D02*
Y1620444D01*
X1995100Y1619262D02*
Y1620444D01*
X1995536Y1619262D02*
Y1620444D01*
X1992629Y1619262D02*
Y1620444D01*
X1993811*
Y1619262*
X1992629*
Y1619275D02*
X1993811D01*
X1992629Y1619711D02*
X1993811D01*
X1992629Y1620147D02*
X1993811D01*
X1992920Y1619262D02*
Y1620444D01*
X1993356Y1619262D02*
Y1620444D01*
X1993792Y1619262D02*
Y1620444D01*
X1990665Y1625759D02*
Y1626941D01*
X1991846*
Y1625759*
X1990665*
Y1625815D02*
X1991846D01*
X1990665Y1626251D02*
X1991846D01*
X1990665Y1626687D02*
X1991846D01*
X1990740Y1625759D02*
Y1626941D01*
X1991176Y1625759D02*
Y1626941D01*
X1991612Y1625759D02*
Y1626941D01*
X1992633Y1625759D02*
Y1626941D01*
X1993815*
Y1625759*
X1992633*
Y1625815D02*
X1993815D01*
X1992633Y1626251D02*
X1993815D01*
X1992633Y1626687D02*
X1993815D01*
X1992920Y1625759D02*
Y1626941D01*
X1993356Y1625759D02*
Y1626941D01*
X1993792Y1625759D02*
Y1626941D01*
X2015929Y1603512D02*
Y1604694D01*
X2017110*
Y1603512*
X2015929*
Y1603579D02*
X2017110D01*
X2015929Y1604015D02*
X2017110D01*
X2015929Y1604451D02*
X2017110D01*
X2016028Y1603512D02*
Y1604694D01*
X2016464Y1603512D02*
Y1604694D01*
X2016900Y1603512D02*
Y1604694D01*
X2017897Y1603512D02*
Y1604694D01*
X2019079*
Y1603512*
X2017897*
Y1603579D02*
X2019079D01*
X2017897Y1604015D02*
X2019079D01*
X2017897Y1604451D02*
X2019079D01*
X2018208Y1603512D02*
Y1604694D01*
X2018644Y1603512D02*
Y1604694D01*
X1981989Y1587674D02*
Y1588856D01*
X1983170*
Y1587674*
X1981989*
Y1587883D02*
X1983170D01*
X1981989Y1588319D02*
X1983170D01*
X1981989Y1588755D02*
X1983170D01*
X1982020Y1587674D02*
Y1588856D01*
X1982456Y1587674D02*
Y1588856D01*
X1982892Y1587674D02*
Y1588856D01*
X1981989Y1585706D02*
Y1586887D01*
X1983170*
Y1585706*
X1981989*
Y1586139D02*
X1983170D01*
X1981989Y1586575D02*
X1983170D01*
X1982020Y1585706D02*
Y1586887D01*
X1982456Y1585706D02*
Y1586887D01*
X1982892Y1585706D02*
Y1586887D01*
X2006713Y1623240D02*
X2005878Y1624075D01*
X2006713Y1624910*
X2006713D02*
X2007548Y1624075D01*
X2006713Y1623240*
X2006318Y1623635D02*
X2007108D01*
X2005882Y1624071D02*
X2007544D01*
X2006310Y1624507D02*
X2007116D01*
X2006000Y1623953D02*
Y1624197D01*
X2006436Y1623517D02*
Y1624633D01*
X2006872Y1623399D02*
Y1624752D01*
X2007308Y1623835D02*
Y1624316D01*
X2008105Y1624632D02*
X2007269Y1625467D01*
X2008105Y1626302*
X2008940Y1625467*
X2008105Y1624632*
X2007793Y1624943D02*
X2008416D01*
X2007357Y1625379D02*
X2008852D01*
X2007618Y1625815D02*
X2008592D01*
X2008054Y1626251D02*
X2008156D01*
X2007308Y1625428D02*
Y1625505D01*
X2007744Y1624992D02*
Y1625941D01*
X2008180Y1624707D02*
Y1626227D01*
X2008616Y1625143D02*
Y1625791D01*
X2002379Y1618041D02*
Y1619223D01*
X2003561*
Y1618041*
X2002379*
Y1618403D02*
X2003561D01*
X2002379Y1618839D02*
X2003561D01*
X2002512Y1618041D02*
Y1619223D01*
X2002948Y1618041D02*
Y1619223D01*
X2003384Y1618041D02*
Y1619223D01*
X2002379Y1620009D02*
Y1621191D01*
X2003561*
Y1620009*
X2002379*
Y1620147D02*
X2003561D01*
X2002379Y1620583D02*
X2003561D01*
X2002379Y1621019D02*
X2003561D01*
X2002512Y1620009D02*
Y1621191D01*
X2002948Y1620009D02*
Y1621191D01*
X2003384Y1620009D02*
Y1621191D01*
X2020944Y1614293D02*
X2020109Y1615128D01*
X2020944Y1615963*
X2021779Y1615128*
X2020944Y1614293*
X2020758Y1614479D02*
X2021130D01*
X2020322Y1614915D02*
X2021566D01*
X2020332Y1615351D02*
X2021556D01*
X2020768Y1615787D02*
X2021120D01*
X2020388Y1614849D02*
Y1615407D01*
X2020824Y1614413D02*
Y1615843D01*
X2021260Y1614609D02*
Y1615647D01*
X2021696Y1615045D02*
Y1615211D01*
X2019552Y1612901D02*
X2018717Y1613736D01*
X2019552Y1614572*
X2020387Y1613736*
X2019552Y1612901*
X2019282Y1613171D02*
X2019822D01*
X2018846Y1613607D02*
X2020258D01*
X2019024Y1614043D02*
X2020081D01*
X2019460Y1614479D02*
X2019645D01*
X2019080Y1613373D02*
Y1614099D01*
X2019516Y1612937D02*
Y1614535D01*
X2019952Y1613301D02*
Y1614172D01*
X1982063Y1617067D02*
Y1618248D01*
X1983245*
Y1617067*
X1982063*
Y1617095D02*
X1983245D01*
X1982063Y1617531D02*
X1983245D01*
X1982063Y1617967D02*
X1983245D01*
X1982456Y1617067D02*
Y1618248D01*
X1982892Y1617067D02*
Y1618248D01*
X1982063Y1615098D02*
Y1616280D01*
X1983245*
Y1615098*
X1982063*
Y1615351D02*
X1983245D01*
X1982063Y1615787D02*
X1983245D01*
X1982063Y1616223D02*
X1983245D01*
X1982456Y1615098D02*
Y1616280D01*
X1982892Y1615098D02*
Y1616280D01*
X1988613Y1615958D02*
Y1617140D01*
X1989795*
Y1615958*
X1988613*
Y1616223D02*
X1989795D01*
X1988613Y1616659D02*
X1989795D01*
X1988613Y1617095D02*
X1989795D01*
X1988996Y1615958D02*
Y1617140D01*
X1989432Y1615958D02*
Y1617140D01*
X1988613Y1617926D02*
Y1619108D01*
X1989795*
Y1617926*
X1988613*
Y1617967D02*
X1989795D01*
X1988613Y1618403D02*
X1989795D01*
X1988613Y1618839D02*
X1989795D01*
X1988996Y1617926D02*
Y1619108D01*
X1989432Y1617926D02*
Y1619108D01*
X1984379Y1617942D02*
Y1619124D01*
X1985560*
Y1617942*
X1984379*
Y1617967D02*
X1985560D01*
X1984379Y1618403D02*
X1985560D01*
X1984379Y1618839D02*
X1985560D01*
X1984636Y1617942D02*
Y1619124D01*
X1985072Y1617942D02*
Y1619124D01*
X1985508Y1617942D02*
Y1619124D01*
X1986347Y1617942D02*
Y1619124D01*
X1987529*
Y1617942*
X1986347*
Y1617967D02*
X1987529D01*
X1986347Y1618403D02*
X1987529D01*
X1986347Y1618839D02*
X1987529D01*
X1986380Y1617942D02*
Y1619124D01*
X1986816Y1617942D02*
Y1619124D01*
X1987252Y1617942D02*
Y1619124D01*
X2007559Y1582612D02*
Y1583794D01*
X2008740*
Y1582612*
X2007559*
Y1582651D02*
X2008740D01*
X2007559Y1583087D02*
X2008740D01*
X2007559Y1583523D02*
X2008740D01*
X2007744Y1582612D02*
Y1583794D01*
X2008180Y1582612D02*
Y1583794D01*
X2008616Y1582612D02*
Y1583794D01*
X2009527Y1582612D02*
Y1583794D01*
X2010709*
Y1582612*
X2009527*
Y1582651D02*
X2010709D01*
X2009527Y1583087D02*
X2010709D01*
X2009527Y1583523D02*
X2010709D01*
X2009924Y1582612D02*
Y1583794D01*
X2010360Y1582612D02*
Y1583794D01*
X2007559Y1585032D02*
Y1586214D01*
X2008740*
Y1585032*
X2007559*
Y1585267D02*
X2008740D01*
X2007559Y1585703D02*
X2008740D01*
X2007559Y1586139D02*
X2008740D01*
X2007744Y1585032D02*
Y1586214D01*
X2008180Y1585032D02*
Y1586214D01*
X2008616Y1585032D02*
Y1586214D01*
X2009527Y1585032D02*
Y1586214D01*
X2010709*
Y1585032*
X2009527*
Y1585267D02*
X2010709D01*
X2009527Y1585703D02*
X2010709D01*
X2009527Y1586139D02*
X2010709D01*
X2009924Y1585032D02*
Y1586214D01*
X2010360Y1585032D02*
Y1586214D01*
X0Y0D02*
M02*
