M48
;Layer_Color=9474304
;FILE_FORMAT=2:4
INCH,TZ
;TYPE=PLATED
T01F00S00C0.0039
;TYPE=NON_PLATED
%
T01
X982Y5826
X1695
X1968Y6418
X1898Y7127
X1695Y7106
X1654Y7638
X1211Y7579
X787Y7559
X570Y7723
X982Y7106
X570Y6444
X2490Y6161
X3740Y6417
X4016Y7401
X4252
X4621Y7060
X4857
X5236Y6889
X5760Y7076
X5636Y7306
X6220Y7441
X6181Y6338
X6535Y6437
Y6574
X6713
Y6437
X5827Y6456
Y8819
X5866Y9291
X5836Y9925
X5217Y9656
X4843Y9685
X4370Y10196
X3532Y10024
X4451Y9048
X5236Y10708
X5748Y11259
X6161Y11289
X6476Y10570
X6613Y9699
X6674Y9428
X6732Y12480
Y12874
X6181
Y12480
X5669
Y12874
X5079
Y12480
X5039Y12086
X5116Y11747
X5896Y12106
X3898Y12007
X4055Y12441
X4291Y13189
X4803Y13169
X3089Y13873
X3245Y15310
X2875Y15290
X1206Y8407
X4724Y3779
X5315Y4094
X6526Y4453
X6526Y4606
X6722
X6722Y4453
X6457Y3622
X6614Y2795
X6339Y2244
X5394Y1889
X4528Y2480
X7795Y2165
X8819Y2204
X9370Y2756
X9685
X9329Y4949
X9173Y5078
X9843Y5236
X10787Y4960
X11142Y5787
X11299Y6063
X10718Y8002
X10207
X9370Y8287
X9478Y8662
X9203Y9498
X9134Y9812
X9183Y10102
X9341
X9498
X9656
X9813
X9970
X10128
X10285
X10443
X10600
X10758
X10915
X10827Y9417
X11250Y9491
X11368Y9610
X11487Y9728
X11605Y9846
X11723Y9965
X13309Y10008
X12835Y11141
X12195Y11220
X12392Y12149
X11963Y12360
X11971Y12900
X12844Y13294
X13780Y13228
Y12677
X14203Y12687
X14202Y13432
X14567Y11742
X15581Y8257
X15163Y7351
X15118Y6378
X18474Y6663
X18533Y6840
X18474Y5846
X18612Y5718
X18829Y5600
X19744Y6072
X19646Y6693
X19764Y6850
X20000Y7204
X20118Y7854
X20719Y7815
X19468Y7913
X19833Y8425
X18504Y8238
X19404Y6529
X20157Y6535
X20472Y6663
X21132Y6860
X21703Y6801
X21437Y5639
X22136Y9088
X20935Y10659
X20551Y11289
X20531Y11732
X20856Y12027
X20930Y14311
X20763
X21097
X21265
X21432
X21599
X21767
X21432Y15531
X21265Y15797
X21381Y15978
X21599Y15964
X21781Y15964
X22451Y15866
X21097Y15659
X20930Y15974
X20763Y16127
X20531Y16338
X20571Y15689
X19400Y15974
X10608Y13833
X10020Y13704
X9547
X9311
X9139
X9656Y12306
X9813
X9970
X10128Y12306
X10285Y12306
X10443
X7874Y12480
Y12874
X7323
Y12480
X7065Y13243
X7126Y10866
X7648Y10915
X7785Y10433
X8061Y10541
X8711Y10574
Y10731
X8711Y10889
X8711Y11046
Y10417
Y10259
X8346Y9813
X8297Y9645
X9813Y9803
X6919Y10000
X7028Y10128
X7136Y10265
X6919Y8976
X6886Y8641
X6969Y8267
X7008Y7756
X7835Y7283
X8346Y7086
X8740Y6496
X8551Y5415
X24843Y4911
X25059Y4202
X26348Y8582
X27431Y8346
X27165Y9399
X27717Y9744
X28406Y9773
X28959Y9429
X29459
Y8720
X28959
X29961Y8759
X30459Y8720
Y9429
X31959
X32459
X32959
X33337Y9439
X33455Y8819
X32959Y8720
X32459
X31959
X33248Y7647
X33642Y7657
X33622Y8002
X33996Y7480
X33780Y7106
X33543
X33307
X32992Y7322
X32736Y6919
X33248Y6624
X33327Y6191
X32362Y6417
X32008Y6023
X31457Y6811
X30571Y6878
X34321Y6693
X34774Y6761
Y7352
X34606
X34587Y7165
X35128Y7549
X34921Y7815
X35699Y7559
X36220Y7529
X36508Y8720
X37008
Y9429
X36508
X38008
X37707Y9754
X38008Y8720
X38083Y5826
X37313Y5482
X34843Y8828
X34816Y11703
X34649
X34482
X34314
X34984
X35256Y11663
X35719Y11210
X34813Y12204
X34144Y12303
X33901Y12267
X33809Y12470
X33642Y12637
X33976Y12750
X34147Y13373
X34314
X34482
X34649
X34816
X34984
X35197Y13257
X33199Y13828
X33484Y14754
X33976Y14990
X31767Y15118
X31373
X30979
Y14724
X31373
X31767
X30586
X30586Y15118
X29300Y15070
X26339Y14950
X24557Y14891
X23425Y14380
X23541Y12000
X24018
X24104Y12490
X25197Y12500
X27785Y13336
X28587Y11821
X28711Y11554
X28959Y10964
X29959
Y11307
X30459Y10964
Y11696
X27756Y11004
X27147Y10515
X22520Y9842
X22500Y9074
X23081
X37766Y16486
X38967Y16506
X38898Y15531
X38307Y15374
X39469Y15039
X39715Y14389
X40177
X40171Y14173
X40319Y13750
X40407Y13405
X40634Y13419
X40984Y13494
X41407Y13514
Y12934
Y12354
Y11774
X41382Y11476
X40982Y11664
X40752Y11664
X40522Y11664
X40514Y11880
X40035Y12036
Y12356
Y12676
X39810
X39616Y12815
X39557Y13051
X39035Y12893
X38927Y12696
X39061Y12511
X38386Y12706
X39124Y11693
X39098Y11312
X39488Y10462
X39577Y9950
X39724Y10088
X40144Y10899
X40832Y10842
X40791Y10561
X40634Y10620
X41478Y10047
X41476Y9635
X40541Y8759
X39026Y9045
X39459Y8031
X38583Y5826
Y5443
X41732Y5039
X41112Y3868
X43848Y4448
X44242Y5059
X45118Y5905
X44752Y6289
X44400Y6663
X43996Y7352
X42844Y6683
X45610Y6309
X45984Y6811
X46339Y7244
X46437Y7549
X46654Y8267
X46280Y9153
X46299Y9567
X46294Y10723
X46142Y11343
X46260Y11968
X45906Y11929
X46772Y11870
X46968
X47205Y11850
X47574Y11909
X47756Y11378
Y10944
X47323
Y11378
X46766Y11217
X47323Y10256
X47756
Y9822
X47323
Y9133
X47756
Y8700
X48445Y8848
X48878
Y8415
X48445
X48563Y7864
X48455Y7480
X47579Y7824
X49567Y8700
X50000
Y9133
X49567
Y9822
Y10256
X50000
Y9822
X48878
Y10256
X48445
Y9822
Y11230
Y11663
X48878
Y11230
X49567Y11378
X50000
X50355Y11380
X50394Y10944
X50000
X49567
X49528Y12204
X48543
X48050Y13396
X47638Y13878
X46850Y13976
Y14567
X45768Y14665
Y13878
X45645Y13380
X44980Y13878
Y14665
X44414Y14848
X44467Y14209
X44488Y13385
X44010Y13630
X43917Y12982
X43300Y13120
X42717Y12716
X42145Y12934
Y12354
Y11774
Y13514
X42579Y13631
X41801Y14045
X40791Y14488
X40653Y14370
X38829Y14320
X42354Y15883
X42860Y16410
X43837Y16236
X43990Y15250
X44763Y15753
X45669Y15748
X45374Y14271
X46881Y13397
X49370Y13080
X49685
X50276Y12637
X50984
X51063Y12244
X51024Y10905
Y10118
X51026Y9153
X44968Y9802
X45008Y10464
X45553Y10787
X43524Y11171
X43396Y10265
X43996Y9635
X43780Y12007
X45856Y4763
X44980Y16535
X44488Y16929
X43640Y17020
X42703Y21026
X43127Y22984
X41597Y22974
X42126Y23819
X40679Y20452
X39439Y20275
X37864Y20541
X37224Y18494
X37136Y17500
X37205Y16515
X32510Y20285
X31427Y20482
X30128Y20659
X29321Y20059
X28504Y20226
X27480Y20718
X26762Y20728
X26358Y19813
X27461Y19370
X25994Y18553
X25994Y17992
X25591Y18149
X25276
X25276Y18553
X25591Y18819
X24764Y17343
X24488Y17204
X23435Y17500
X23268Y18090
Y18287
X22835Y18090
X21850Y18287
X21970Y16860
X22283Y16678
X16610Y20570
X10240Y19880
X9310Y19720
X8524Y19340
X9291Y16732
X10500Y16750
X11400
M30
