M48
;Layer_Color=9474304
;FILE_FORMAT=2:4
INCH,TZ
;TYPE=PLATED
T02F00S00C0.0098
T03F00S00C0.0120
T06F00S00C0.0354
T07F00S00C0.0394
;TYPE=NON_PLATED
T08F00S00C0.0236
T09F00S00C0.0295
T10F00S00C0.0354
T11F00S00C0.0390
T12F00S00C0.0701
T13F00S00C0.1260
%
T02
X54338Y347
X55125
X55913
X56700
X57487
X53550
X52603Y285
X51975Y347
X51603Y285
X51188Y347
X50603Y285
X49603
X48603
X48038Y347
X47603Y285
X47251Y347
X46603Y285
X45603
X44889Y347
X44603Y285
X44101Y347
X43314
X42527
X41739
X40952
X40164
X39377
X38590
X37802
X36227
X30716
X29928
X29141
X28353
X27566
X26779
X25991
X19000Y250
X10243Y347
X8668
X7881
X6306
X5519
X4731
X3944
X3157
X2953Y767
X3661Y885
X1929Y807
X1582Y347
X2369
X794
X945Y860
X315Y807
X250Y2000
X315Y3228
X276Y4153
X1188Y4284
X1614Y4015
Y3819
Y3622
X2569Y3769
X2763Y4284
X3550
X4338
X4764Y4015
X5051Y4135
X5315Y4291
X5604Y4300
X6210Y5483
X6417Y5472
X6624
X6417Y8396
X6024Y9114
X5728Y7726
X4731Y8221
X3352Y7537
Y7340
Y7143
X3031Y7165
X2598Y6653
X2264Y6318
Y6082
Y5846
Y5610
X1634Y6378
X1339
X1043
X762Y6605
X551Y6771
X276Y6515
Y5334
Y7736
Y9035
X794Y9796
X1476Y9331
X1975Y9009
X2763
X2746Y9518
X2763Y10584
X2244Y10295
X2369Y11371
X1582
X866Y11004
X1188Y10584
Y12158
X866Y12500
X1582Y12946
X2369
X2756Y12992
Y12795
Y12598
X3157Y12946
X4028Y12770
X3858Y12578
X3661Y13740
X3425
X4016Y13937
X3858Y14173
X4338Y13733
X5125
X5157Y13425
X5315Y14468
X5923
Y14763
Y15059
X6228
Y14763
Y14468
X6575Y14704
Y15630
X6722Y16112
X5519Y16095
X5551Y15610
X5125Y15308
X4338
X4646Y15649
X4731Y14521
X3550Y15308
X3850Y16129
X3157Y16095
X2369
X1582
X794
X1188Y15308
X1975
X2087Y14685
X1582Y14521
X794
X866Y14114
X1188Y13733
X1975
X2165Y13208
X1975Y12158
X3110Y11889
X4370Y11614
X4803Y11653
X4731Y11371
X4774Y10640
X3819Y10511
X4026Y9783
X2369Y8221
X1969Y7756
X1683Y8474
X3622Y5118
X3944Y3497
X2500Y2376
X1975Y2710
X1512Y2163
X4338Y1135
X5912
X6575Y11013
X6700Y12158
X5640Y11988
X276Y15413
X7106Y14901
X8012Y14527
X8120Y14183
X7677Y14163
X7362Y13858
X7087Y13504
X8425Y13291
X9016Y13468
X9360Y12897
X9104Y11913
Y11440
Y10968
Y10495
X9629
Y10968
Y11440
Y11913
X10154
Y11440
Y10968
Y10495
X10679
Y10968
Y11440
Y11913
X11508Y11977
X11467Y11578
X11831Y11524
X11693Y11155
X11829Y12142
X11713Y12365
X11693Y13044
X11220Y12926
X10728Y12917
X10621Y13454
X10969
X10817Y13986
X10256Y14265
X10020Y14389
X9783Y14265
X9547Y14389
X9311Y14259
X9321Y15019
X9264Y15440
X9055Y15649
X8846Y15858
X8169Y15994
X9921Y16043
X10243Y16095
X10354Y15570
X10906Y15531
X10866Y16043
X11818Y16095
X12126Y15728
X11968Y14980
X11654
X11289Y14557
X12087Y14448
X13150Y14468
X13189Y14822
X13622
X13566Y15679
X13031Y15964
X14180Y16095
X14803Y15964
X15630
X15361Y15308
Y13733
X16149
X16936
X17313Y13976
X17116Y14360
X16496Y14783
X16542Y12946
X17330
X18117
X18511Y13733
X17724
Y12158
X16936
X16149
X15361
X15755Y12946
X14968
X14574Y13733
X13898Y13878
X13268Y13563
X13393Y12946
X13268Y11752
X13179Y10974
X12913Y9970
X12914Y9484
X12874Y9242
X12444Y9196
Y9550
X12267Y9373
Y9787
X13425Y9783
X13563Y9261
X13500Y8578
X14757
X14574Y9009
X14545Y10326
X14921Y10492
X14646Y10846
X14860Y11326
X15827Y11358
X16149Y10584
X15755Y9796
X16936Y9009
X17724
X18511
X18905Y9796
X19692
X20086Y10584
X19298
X18511
X18117Y9796
X21267
X22372Y9655
X22382Y9409
X22323Y8563
X22244Y7893
X22343Y7431
X21417Y7283
X21398Y7598
X21444Y8410
X21673Y8238
X21575Y8838
X20719Y8523
X20443Y7322
X19449Y7263
X18898Y6122
X20000Y5890
Y5531
X21000
Y5890
X22000Y5531
X21535Y3838
Y2696
X22000Y3000
X22448Y2710
Y1135
X21661
X21440Y1650
X20500
X20479Y1922
X20500Y2650
X20000Y3000
X19528Y2775
X19567Y1909
X19298Y1135
X18583Y1712
X18511Y2710
X18000Y3000
X17460Y2480
X16460
X16542Y1922
Y3497
X16470Y3986
X17520
X18511Y4284
X18819Y3444
X19528Y3720
X20479Y3497
X21000Y3000
X15490Y2510
X14480Y2509
X14000Y3000
X13490Y2509
X12500
X11510
X10560
X10315Y3189
Y3425
Y3661
X9961Y3582
X9456Y3497
X9173Y3346
X7881Y3497
X7094
X8275Y2710
X8273Y1200
X8661Y1023
X10500Y1500
X11000Y3000
X12000
X11510Y3930
X10591Y3897
X10551Y4645
X10267Y4639
X10243Y5072
X10197Y5472
X9949Y5707
X9183Y6013
X8622Y6023
X8031Y5275
X7283Y5472
X7795Y6850
X7122Y8460
X8240Y8849
X8740Y8878
X8583Y9350
X8652Y9586
X8828Y9761
X8120Y10023
X7874
X7638Y9783
X7835Y9389
X8120Y9439
X8238Y10664
X7815Y10738
X7821Y11330
X8120Y11332
X8012Y11785
X7759Y11981
X7487Y12158
X7087Y11889
X8356Y11913
X8120Y12400
X8593Y14058
X10217Y13389
X10236Y14783
X10679Y15167
X11772Y13641
X11289Y10234
X11073Y8858
X10720Y8968
X10817Y8376
X11181Y7992
Y7637
X12047
Y7992
X12376Y8090
X12358Y8352
X11811Y8878
X9587Y9094
X10089Y9643
X11063Y6023
X11378Y5551
X12087Y6023
X12559Y5551
X12500Y3930
X13504Y3956
X14449Y3986
X15472Y3878
X15945Y6417
X16542Y6647
X16149Y7434
X15433Y7126
X14488
X14574Y7434
X13435Y7322
X10866Y4645
X9683Y4645
X20086Y12158
X20906Y11476
X22047Y10846
X22283Y12303
X21890Y13130
X20086Y13733
X18511Y15308
X18117Y16095
X17900Y16350
X17330Y16095
X23061Y15748
X24065Y15767
X24023Y15308
X24724Y15462
X24416Y16095
X24518Y16348
X24438Y14000
Y13000
X23629Y12946
X23543Y12303
X22638
X22842Y12946
X22795Y11437
X23846Y11341
X24170Y11320
X24416Y11371
X24990Y11024
X25266Y11240
X25742Y11600
X25598Y12158
X26662Y12000
X26970Y11470
X27566Y11371
X27960Y12158
X29535
X30322
X31109
X31811Y12263
X31683Y13622
X31181
X30679
X30148Y13307
X29535Y13733
X28533Y13691
X28356Y13887
X27960Y13733
X26957Y14000
X26662
X26367
X26662Y13000
X27172Y15308
X27960
X28747
X29535
X30586Y15511
X30979
X31373
X31767
X32290Y16095
X33078
X33865
X33543Y15315
X32684Y15308
X32736Y13878
X32195Y13631
X33110Y13405
X33401Y13410
X34252Y14094
X35046Y13733
X35834
X36621
X37409
X37802Y12946
X38051Y12647
X37480Y11427
X36693Y12086
X36024Y9891
X35581
X35157
X34653Y9796
X34213Y9901
X32959Y10256
X32462Y10259
X31959Y10256
X31459Y10256
X30959Y10256
X30709Y9744
X31181Y9704
X30236Y9901
X29959Y10256
X29606Y9822
X29141Y9796
X28455Y9429
X28346Y8011
X28051
X27756
X27960Y7434
X27172
X27566Y6647
X26779
X27172Y5859
X27566Y5072
X27960Y4284
X28747
X29535
X30322
X31109
X31897
X32290Y5072
X32165Y5511
X33346Y5177
X33652Y5681
X34331Y5177
X34259Y4284
X35834
X36621
X37126Y4665
X36227Y5072
X35440
X35640Y6023
X36417Y6043
X36722Y7106
X37283Y6909
X37409Y7434
X36910Y7762
X37047Y8130
X37802Y8221
X35984Y8179
X34984Y8025
X34508Y8183
X34734Y6978
X35295Y6870
X32992Y7007
X32835Y6594
X32106Y7480
X32205Y7775
X32459Y8125
X32959Y8213
X31959Y8237
X31459Y8130
X31535Y7815
X31575Y7480
X30846Y7411
X30959Y7913
X30394Y7854
X29959Y8021
X29961Y7480
Y6673
X28632Y6791
X29094Y8130
X26890Y8917
X26887Y9173
X25991Y9796
X25204
X24750Y10250
X24810Y10584
X25598
X23819Y10059
X23556Y10285
X23543Y9665
X23740Y9193
X23622Y8671
X23629Y8221
X24416
X25204
X24810Y7434
X24023
X23235
X23189Y6565
X23629Y6647
X23937Y6565
X23514Y5630
X23000Y5531
X22520Y3878
X23504Y3838
X24567Y3956
X24416Y3497
X24488Y2657
X24416Y1922
X24510Y1650
X23480
X22480
X23000Y3000
X23543Y2657
X24000Y3000
X25000
X25598Y2710
X26385
X27172
X27960
X28747
X29535
X30322
X31109
X31897
X32290Y3497
X31503
X30716
X29928
X29141
Y1922
X29928
X30716
X31503
X32290
X33472Y2710
X34259
X35046
X35834
X36621
X37015Y1922
X36227
X35440
Y3497
X36227
X37409Y1135
X34259
X31109
X30322
X29535
X28353Y1922
X27566
X26779
X25991
X26385Y1135
X27172
X25598
X25991Y3497
X26779
X27566
X27172Y4284
X24685Y9193
X22904Y8346
X27566Y16095
X28356Y16181
X28533Y15970
X29000Y16185
X30472Y16240
X35440Y16095
X35834Y15308
X36621
X37409
X38031Y15196
X37008Y16043
X35046Y15308
X33346Y11496
X39429Y11742
X39424Y12254
X39882Y13011
X39803Y13523
X39459Y13976
X38983Y13733
X39055Y13464
X38196Y13733
X38375Y16000
X39567Y16161
X39681Y15940
X39528Y15748
X39281Y15275
X40669Y15147
X41076Y15183
X41378Y15177
X42286Y14957
X43708Y15308
X44508Y14380
X45283Y13733
X45453Y13533
X43701Y13509
X43243Y13986
X43228Y12716
X42922Y12641
X42920Y12158
X43720Y12498
X43917Y12500
X44115Y12491
X44449Y12716
X44276Y12922
X44567Y12322
X45669Y11555
X45796Y10694
X45923Y10483
X45960Y9931
X45960Y9678
X45512Y9685
X45128Y9616
X45197Y9055
X44999Y9053
X45396Y9053
X44931Y8523
Y8307
X44921Y7637
X45359Y7519
X44642Y6987
X44406Y6916
X44159Y6978
X43898Y7108
X43708Y7434
X42920
X42913Y7834
X41890
X42133Y7434
X40984Y6722
X40571Y7057
X40236Y7421
X39577Y7762
X39696Y8308
X39449Y8312
X40354Y8700
X40157Y8937
X40326Y10135
X40124Y10584
X40265Y11302
X40226Y11653
X39872Y11299
X40762Y11040
X41301Y11027
X41808Y10967
X42283Y10748
X42323Y11200
X42527Y11371
X43314
X42920Y10584
X43110Y10393
X42992Y10157
X41732Y10137
X41160Y10338
X40886Y10000
X40709Y12647
X40663Y14035
X40482Y16269
X40669Y16456
X42527Y12946
X43603Y9231
X43874Y6479
X44189Y5992
X43411Y5777
X42323Y5610
X41181Y5649
X39997Y6315
X39961Y4665
X40164Y3497
X39377
X39771Y2710
X40558
X40952Y1922
X41739
X42527
X43314
X44101
X43708Y2710
X42920
Y4284
X44101Y3497
X44488Y3208
X44889Y3497
X45676
X45630Y3248
X46070Y2710
X46464Y3497
X46772Y3248
X47251Y3497
X48038
X48189Y3248
X47756Y2923
X48432Y2710
X48780Y3002
X49488Y3248
X49613Y3497
X50401
X51188
X51975
X52763
X53550
X53157Y4284
X53550Y5072
X52763
X51975
X51180Y5010
X50401Y5072
X49613
X48826
X48432Y4284
X47251Y5072
X46464
X46070Y4284
X46464Y1922
X46070Y1135
X45090Y1390
X43708Y1135
X42920
X42133
X41346
X40558
X39771
X38983
X38196
X38590Y1922
X39377
X40164
X38820Y6917
X38983Y7434
X38196
X38189Y8130
X46609Y7775
X46804Y7605
X47025Y7497
X47313Y7342
X47559Y8454
X47874Y8456
X48150Y8464
X48110Y8897
X47717Y9488
X48543
X49213
X49220Y9009
X49350Y8273
X49744
X50064Y7700
X50418
X50773
X51127
X51059Y7968
X51413
X51481Y7700
X51836
X51767Y7968
X52122
X52190Y7700
X52544
X52476Y7968
X52830Y7991
X52899Y7700
X53253
X53607
X53426Y8353
X53598Y8662
X53657Y9012
Y9366
Y9720
Y10075
Y10429
Y10783
Y11138
X53631Y11491
X53657Y11870
Y12225
Y12579
Y12933
Y13288
Y13642
Y13996
Y14351
Y14705
Y15059
Y15414
Y15768
Y16122
Y16477
X52862Y16293
Y15939
Y15585
Y15230
Y14876
Y14522
Y14167
Y13813
Y13459
Y13144
X52601Y12868
X52862Y12514
X52902Y11523
X52862Y11171
Y10816
Y10462
Y10108
Y9753
Y9399
Y9045
X52646Y8764
X52291Y8763
X52369Y9009
X51841Y9015
X51937Y8763
X51583
X51260Y9055
X51417Y9291
X51260Y9527
X51142Y9881
X51398
X51309Y10320
X51100Y10451
X51193Y10679
X51061Y11144
X51073Y11535
X50663Y11659
X50400Y11659
X50028Y11628
X49764Y11693
X49468Y11631
X49488Y12527
X49936Y12540
X50669Y11299
X50007Y10584
X49220
X48432
X48110Y10590
X47645Y10584
X48110Y11063
Y10039
X50000Y9488
X50596Y8450
X50717Y6905
X50363
X50401Y6647
X50008Y6907
X49662Y6982
X49613Y6647
X49366Y7177
X49204Y7428
X49165Y7782
X48826Y6647
X48038
X47835Y5866
X49488Y5944
X50689Y5905
X51188Y6647
X51071Y6905
X51426
X51780
X52134
X52489
X52843
X52763Y6647
X53197Y6905
X53552
X53550Y6647
X53157Y5859
X51975Y6647
X53160Y8119
X52369Y10584
Y13733
X51582
X50794
X51188Y14521
X51975
X52369Y15308
X51582
X50794
X50007
X49220
X48432
X47645
X48038Y16095
X48826
X49613
X50401
X51188
X51975
X50401Y14521
X49613
X48826
X48038
X47251Y16095
X46464
X45347Y10802
X47570Y1580
X48652Y1535
X49016Y1259
X49291Y1259
X50007Y1135
X50794
X50401Y1922
X50229Y2387
X50794Y2710
Y4284
X53157Y2710
X53550Y1922
X52763
X53157Y1135
X53944
X54731
X55519
X56306
X57094
X57881
X57487Y1922
X56700
X55913
X55125
X54338
X54731Y2710
X55519
X56306
X57094
X57881
X57487Y3497
X56700
X55913
X55125
X54338
X54731Y4284
X55519
X56306
X57094
X57881
X57487Y5072
X56700
X55913
X55125
X54338
X54731Y5859
X53944
X53906Y6905
X54260
X54338Y6647
X54615Y6905
X54969
X55323Y6906
X55125Y6647
X55025Y7700
X54670
X54316
X53962
X54338Y8221
X55125
X55379Y7694
X54731Y9009
X53944
X54338Y9796
X55125
X55913
X56700
X57487
X57881Y10584
X57094
X56306
X55519
X54731
X53944
X54338Y11371
X55125
X55913
X56700
X57487
X57881Y12158
X57094
X56306
X55519
X54731
X53944
X54338Y12946
X55125
X55913
X56700
X57487
X57881Y13733
X57094
X56306
X55519
X54731
X53944
X54338Y14521
X55125
X55913
X56700
X57487
X57881Y15308
X57094
X56306
X55519
X54731
X53944
X54338Y16095
X55125
X53944Y4284
Y2710
Y16883
X53849Y17137
X54168Y17292
X54522Y17299
X54877
X55231Y17300
X55508
X55493Y18090
X55176
X54861Y18094
X54506
X54152Y18086
X53805Y18016
X53944Y18458
X54731
X55125Y19245
X54338
X54731Y20032
X55519
X56306
X57094
X57881
X57487Y20820
X56700
X55913
X55125
X54338
X54230Y21410
X53944Y21607
X54731
X55519
X56306
X57094
X57881
X57487Y22395
X56700
X55913
X55125
X54338
X54240Y22730
X53944Y23182
X54731
X55519
X56306
X57094
X57881
X57487Y23969
X56700
X55913
X55125
X54250Y23830
Y24740
X53760Y22441
X53944Y20032
X54731Y16883
X53672Y16831
X52900Y17000
X52862Y16648
X52369Y16883
X51582
X50794
X50007
X49220
X48432
X47645
X46857
X46070
X46464Y17670
X47251
X48038
X48826
X49613
X50401
X51188
X51975
X52763
X53220Y17625
X53019Y17334
X53488Y17858
X53157Y18458
X52369
X51582
X50794
X50007
X49220
X48432
X47645
X46857
X46070
X45283
X44679Y17950
X44889Y17670
X45676
Y19245
X46464
X47251
X48038
X48826
X49613
X50401
X51188
X51975
X52763
X53550
X53157Y20032
X52369
X51582
X50794
X50007
X49220
X48432
X47645
X46857
X46070
X45283
X44495
X43708
X42920
X42133
X41496Y20019
X41693Y20728
X41299Y20767
X40164Y20820
X39377
X39771Y21607
X38983
X38196
X38375Y21000
Y20000
Y19000
Y18000
Y17000
X40079Y17027
X40669Y16988
X41496Y16948
X41476Y17322
X41832Y17500
X41496Y17933
X40630Y17972
X40644Y18405
X40591Y18878
X41083Y18690
X40079Y17972
X39331Y17854
X39528Y18878
X42527Y19245
X43314
X44101
X43708Y18458
X44101Y20820
X44889
X45676
X46464
X47251
X48038
X48826
X49613
X50401
X51188
X51975
X52763
X53550
X53157Y21607
X52369
X51582
X50794
X50007
X49220
X48432
X47645
X46857
X46070
X45283
X44495
X44889Y22395
X45676
X46464
X47251
X48038
X48826
X49613
X50401
X51188
X51975
X52763
X53157Y23182
X52369
X51582
X50794
X50007
X49220
X48432
X47645
X46857
X46070
X45283
X44495
X44889Y23969
X45676
X46464
X47251
X48038
X48826
X49613
X50401
X51188
X51975
X52763
X52500Y24740
X51500
X50500
X49500
X48500
X47500
X46500
X45500
X44670Y24749
X43670
X42670
X41670
X41649Y24029
X40952Y23969
X40164
X39377
X39670Y24749
X40670
X38670
X38983Y23182
X39771
X40164Y22395
X39377
X38590
X38196Y23182
X40906Y22815
X41772Y22775
X41378Y22145
X40709Y21948
X42126Y21752
X42721Y21528
X42527Y22395
X42664Y22992
X42920Y23182
X43314Y22395
X44101
Y23969
X43314Y20820
X37409Y21607
X36621
X36625Y21000
Y20000
X37205Y19586
X36625Y19000
Y18000
Y17000
X35354Y17303
X35472Y18169
X34567Y18090
X34528Y19035
X33622Y19015
X33819Y18779
X33780Y19822
X33110Y19586
X32362Y18838
X32684Y18458
X32677Y18070
X33078Y17670
X33472Y16883
X32684
X31506Y17076
X31503Y17670
X30492Y17067
X29000Y17051
X28504Y17027
X27480Y16988
X26457Y17106
X26594Y17509
X26378Y17972
X27008Y17893
X27953
X28258Y18385
X28452Y18209
X28740Y17933
X28504Y18917
X29528
X29764Y18130
X30322Y18458
X30551Y18996
X30500Y21250
X31500
X32500Y21250
X33470Y21110
X33472Y21607
X33000Y22000
X32000
X31503Y22395
X31500Y23000
X31503Y23969
X32290
X32500Y23000
X33500Y23000
X34000Y22000
X34360Y22330
X34450Y21210
X34399Y20148
X35000Y20492
X34882Y19665
X35591Y19586
X35834Y23182
X35530Y23510
X35440Y23969
X36227
X37015
X37802
X37670Y24749
X36670
X35670
X34670
X34653Y23969
X34540Y23690
X35046Y23182
X36621
X37409
X37802Y22395
X37015
X31000Y22000
X30000Y22000
X29535Y21607
X29500Y21250
X28500
X27500Y21250
X27566Y22395
X27500Y23000
X28500Y23000
X29500
X30500
X30716Y23969
X28353
X27566
X26779
X25991
X25204
X24416
X23629
X22842
X22500Y23000
X23500
X24500
X25480Y23160
X26385Y23182
Y21607
X26288Y21161
X26314Y20885
X26339Y20610
X26260Y18799
X26654Y18720
X25709Y19133
X24567Y19665
X23386
X23629Y19245
X23937Y18996
X23386Y18563
X22717Y18602
X22559Y19704
X22500Y21021
X23500
X23415Y20775
X24564Y21033
X25000Y22000
X24000
X23000
X27000
X28000Y22000
X29000Y22000
X25374Y17569
X24764Y17656
Y18169
X24626Y16880
X23346Y16909
X23015Y16932
X23629Y17670
X22027Y17578
X21661Y16883
X20873
X20669Y17618
X20873Y18458
X20591Y18917
Y19665
X21457
X21299Y19035
X22323Y18996
X22415Y20775
X21500Y21021
X21260Y20610
X20945Y20689
X20276Y20531
X19415Y20775
X19528Y21240
X18553Y21021
X18511Y21607
X18520Y22040
X19000Y22000
X20000
X20479Y22395
X20500Y23000
X20479Y23969
X21267
X21500Y23000
X22000Y22000
X21000
X19500Y23000
X18500
X18000Y22000
X17330Y22395
X16936Y23182
X17330Y23969
X17210Y24580
X15755Y23969
X14968
X14180
X13900Y23000
X13890Y22160
X13400Y22000
X12890Y21990
X12999Y21607
X12900Y21128
X12953Y20216
X12212Y20032
X11968Y20098
X11424Y20032
X10669Y20452
X9849Y20032
X9900Y21128
X9849Y21607
X9890Y22020
X9400Y22000
X8400
X7881Y22395
X7900Y23000
X7881Y23969
X8668
X8900Y23000
X9900
X10900
X10890Y22050
X10400Y22004
X11400Y22000
X11818Y22395
X11900Y23000
X12900Y23000
X12605Y23969
X11818
X11031
X10243
X7094
X6969Y22775
X7400Y22000
X6890Y21200
X7110Y20350
X7570Y20130
X8275Y20032
X8701Y20334
X8900Y21128
X7950
X7874Y18799
X6918Y18801
X6890Y17618
X7400Y18000
X7881Y17670
X7913Y17322
X9882
X10870
X11890
X11818Y17670
X11400Y18000
X12400
X13400
X12999Y18458
X12900Y18791
X11910
X10900
X9900
X9849Y18458
X9400Y18000
X10400
X12880Y17322
X13937
X14882
X14968Y17670
X15400Y17705
Y18000
Y17409
X16400
Y17705
Y18000
X16936Y18458
X17330Y19245
X18117
X17913Y18838
X18898Y18917
X18905Y19245
X18396Y19616
X18400Y18000
X18905Y17670
X19400Y18000
X18920Y16770
X17900Y17100
X17695Y16636
X17400
X17105
X16542Y19245
X14882Y18799
X13898
X14400Y18000
X13898Y20295
X14803Y20413
X14900Y21128
X15900
X15669Y20531
X15860Y22060
X15400Y22000
X14968Y22395
X14900Y23000
X15900
X16400Y22000
X16936Y21607
X16890Y21128
X14400Y22000
X12400
X11900Y21128
X19692Y23969
X6306
X5519
X4731
X3944
X3000Y23900
X2940Y23240
X3204Y22740
X3962Y22101
X4731Y22395
X5125Y23182
X5912
X6700
X6772Y24704
X5669
X4331
X4338Y23182
X3944Y20820
X3157
X2369
X1582
X794
X1188Y21607
X1975
X2763
Y20032
X3550
X4338
X4646Y19626
X4900Y19129
X5195
X5490
X5300Y18610
X4646Y18641
X4731Y17670
X5519
X5866Y16830
X4646Y16633
X3550Y16883
X3944Y17670
X3157
X2369
X1582
X794
X1188Y18458
X1975
X2369Y19245
X3157
X3780Y19114
X3550Y18458
X1582Y19245
X794
X1188Y20032
X1975
X1380Y22240
X1600Y22500
X1380Y22740
X1600Y23000
X1380Y23240
X1520Y23770
X1380Y24240
X350Y24720
X2550Y24710
X250Y21750
X1188Y16883
X1975
X5519Y20820
X6203Y20637
X6700Y20032
T03
X4459Y5108
Y5580
Y6053
X4931
X5404
Y5580
Y5108
X4931
Y5580
T06
X23000Y500
X24000
X25000
X22000
X21000
X20000
X18000
X17000
X16000
X15000
X14000
X13000
X12000
X11000
Y1500
X12000
X13000
X14000
X15000
X16000
X17000
X18000
X20000
X21000
X22000
X23000
X24000
X25000
Y23500
Y24500
X24000
Y23500
X23000
Y24500
X27000Y24500
X28000
Y23500
X29000
Y24500
X30000
X31000
Y23500
X32000
X33000
X34000
Y24500
X33000
X32000
X30000Y23500
X27000
X22000Y23500
Y24500
X21000
X20000
X19000
Y23500
X20000
X21000
X18000
Y24500
X16400
X15400
X14400
Y23500
X15400
X16400
X13400
X12400
Y24500
X13400
X11400
Y23500
X10400
X9400
Y24500
X10400
X8400
Y23500
X7400
Y24500
T07
X38583Y23622
T08
X3116Y11344
Y13620
T09
X32335Y1181
X35681
T10
X1161Y1903
X3839
T11
X13976Y9326
X14376Y12326
X13576
T12
X41732Y2875
X31500Y18797
X27500
X2880Y18629
Y16629
T13
X5500Y3000
X26000Y5000
Y16000
X38000Y3000
X35500Y22000
X6000Y22000
M30
