G04*
G04 #@! TF.GenerationSoftware,Altium Limited,Altium Designer,25.0.2 (28)*
G04*
G04 Layer_Color=10636874*
%FSLAX24Y24*%
%MOIN*%
G70*
G04*
G04 #@! TF.SameCoordinates,9003A78A-FF38-4EEF-8EC7-649E789DE17F*
G04*
G04*
G04 #@! TF.FilePolarity,Positive*
G04*
G01*
G75*
%ADD11C,0.0079*%
D11*
X379Y10318D02*
G03*
X600Y10926I-724J607D01*
G01*
X61024Y24606D02*
G03*
X60630Y25000I-394J0D01*
G01*
X35853Y136D02*
G03*
X35524Y272I-329J-329D01*
G01*
X35853Y136D02*
G03*
X36181Y0I329J329D01*
G01*
X32271Y272D02*
G03*
X31943Y136I0J-465D01*
G01*
X31614Y0D02*
G03*
X31943Y136I0J465D01*
G01*
X60630Y0D02*
G03*
X61024Y394I0J394D01*
G01*
X379Y10318D02*
G03*
X600Y10926I-724J607D01*
G01*
Y14075D02*
G03*
X379Y14683I-945J0D01*
G01*
X313Y10253D02*
G03*
X-0Y9496I756J-756D01*
G01*
Y15504D02*
G03*
X313Y14748I1069J0D01*
G01*
X394Y25000D02*
G03*
X0Y24606I0J-394D01*
G01*
Y394D02*
G03*
X394Y0I394J0D01*
G01*
X600Y10926D02*
Y14075D01*
X36181Y0D02*
X60630Y0D01*
X394D02*
X31614D01*
X32271Y272D02*
X35524D01*
X600Y10926D02*
Y14075D01*
X313Y10253D02*
X379Y10318D01*
X313Y14748D02*
X379Y14683D01*
X0Y15504D02*
Y24606D01*
Y394D02*
Y9496D01*
X394Y25000D02*
X60630D01*
X61024Y394D02*
Y24606D01*
M02*
