G04*
G04 #@! TF.GenerationSoftware,Altium Limited,Altium Designer,25.0.2 (28)*
G04*
G04 Layer_Color=1461195*
%FSLAX24Y24*%
%MOIN*%
G70*
G04*
G04 #@! TF.SameCoordinates,9003A78A-FF38-4EEF-8EC7-649E789DE17F*
G04*
G04*
G04 #@! TF.FilePolarity,Negative*
G04*
G01*
G75*
%ADD111C,0.0651*%
%ADD142R,0.0560X0.1312*%
%ADD144R,0.1560X0.0560*%
%ADD146R,0.0462X0.0922*%
%ADD159C,0.0787*%
%ADD170C,0.0296*%
%ADD171O,0.0729X0.0414*%
%ADD172O,0.0847X0.0414*%
%ADD173C,0.0761*%
%ADD174C,0.0354*%
%ADD175R,0.0651X0.0651*%
%ADD176C,0.0355*%
%ADD177C,0.0450*%
%ADD178C,0.1320*%
%ADD241R,0.0934X0.0462*%
%ADD242R,0.0630X0.0709*%
%ADD243R,0.0547X0.0591*%
%ADD244R,0.0547X0.0551*%
%ADD245R,0.0709X0.0630*%
%ADD246R,0.0354X0.0701*%
%ADD247R,0.0669X0.0630*%
G36*
X57088Y8117D02*
X56884D01*
Y8353D01*
X57088D01*
Y8117D01*
D02*
G37*
G36*
X57691Y7959D02*
X57486D01*
Y8196D01*
X57691D01*
Y7959D01*
D02*
G37*
G36*
Y7526D02*
X57486D01*
Y7763D01*
X57691D01*
Y7526D01*
D02*
G37*
G36*
X57090Y7369D02*
X56884D01*
Y7605D01*
X57090D01*
Y7369D01*
D02*
G37*
G36*
Y6936D02*
X56884D01*
Y7172D01*
X57090D01*
Y6936D01*
D02*
G37*
G36*
X57691Y6778D02*
X57484D01*
Y7015D01*
X57691D01*
Y6778D01*
D02*
G37*
G36*
Y6345D02*
X57484D01*
Y6582D01*
X57691D01*
Y6345D01*
D02*
G37*
G36*
X57090Y6188D02*
X56884D01*
Y6424D01*
X57090D01*
Y6188D01*
D02*
G37*
G36*
Y5755D02*
X56884D01*
Y5991D01*
X57090D01*
Y5755D01*
D02*
G37*
G36*
X58596Y18857D02*
X58360D01*
Y19062D01*
X58596D01*
Y18857D01*
D02*
G37*
G36*
X58163D02*
X57927D01*
Y19062D01*
X58163D01*
Y18857D01*
D02*
G37*
G36*
X57088Y8550D02*
X56884D01*
Y8786D01*
X57088D01*
Y8550D01*
D02*
G37*
G36*
X57927Y19259D02*
Y19465D01*
X58163D01*
Y19259D01*
X57927D01*
D02*
G37*
G36*
X58360D02*
Y19465D01*
X58596D01*
Y19259D01*
X58360D01*
D02*
G37*
G36*
X57336Y19839D02*
Y20046D01*
X57572D01*
Y19839D01*
X57336D01*
D02*
G37*
G36*
X57769D02*
Y20046D01*
X58001D01*
Y19839D01*
X57769D01*
D02*
G37*
G36*
X58517D02*
Y20046D01*
X58754D01*
Y19839D01*
X58517D01*
D02*
G37*
G36*
X58950D02*
Y20046D01*
X59187D01*
Y19839D01*
X58950D01*
D02*
G37*
D111*
X2600Y3700D02*
D03*
X3323Y6500D02*
D03*
X3268Y5394D02*
D03*
X9762Y8417D02*
D03*
X1150Y6188D02*
D03*
X4560Y12110D02*
D03*
X4360Y13101D02*
D03*
X2750Y9883D02*
D03*
X2460Y14301D02*
D03*
X11460Y6057D02*
D03*
X14500Y11626D02*
D03*
X14285Y8130D02*
D03*
X14550Y9750D02*
D03*
X12649Y8800D02*
D03*
X38583Y23622D02*
D03*
X28000Y24500D02*
D03*
Y23500D02*
D03*
X29000D02*
D03*
Y24500D02*
D03*
X31000Y23500D02*
D03*
Y24500D02*
D03*
X34000Y23500D02*
D03*
X33000Y24500D02*
D03*
Y23500D02*
D03*
X32000Y24500D02*
D03*
Y23500D02*
D03*
X30000Y24500D02*
D03*
Y23500D02*
D03*
X27000D02*
D03*
Y24500D02*
D03*
X9400Y24500D02*
D03*
Y23500D02*
D03*
X12400D02*
D03*
Y24500D02*
D03*
X14400Y23500D02*
D03*
Y24500D02*
D03*
X15400Y23500D02*
D03*
Y24500D02*
D03*
X16400Y23500D02*
D03*
X13400Y24500D02*
D03*
Y23500D02*
D03*
X11400Y24500D02*
D03*
Y23500D02*
D03*
X10400D02*
D03*
Y24500D02*
D03*
X8400D02*
D03*
Y23500D02*
D03*
X7400D02*
D03*
Y24500D02*
D03*
X19000D02*
D03*
Y23500D02*
D03*
X20000D02*
D03*
Y24500D02*
D03*
X22000Y23500D02*
D03*
Y24500D02*
D03*
X25000Y23500D02*
D03*
X24000Y24500D02*
D03*
Y23500D02*
D03*
X23000Y24500D02*
D03*
Y23500D02*
D03*
X21000Y24500D02*
D03*
Y23500D02*
D03*
X18000D02*
D03*
Y24500D02*
D03*
X24000Y1500D02*
D03*
Y500D02*
D03*
X22000Y1500D02*
D03*
Y500D02*
D03*
X21000Y1500D02*
D03*
Y500D02*
D03*
X20000Y1500D02*
D03*
X23000Y500D02*
D03*
Y1500D02*
D03*
X25000Y500D02*
D03*
Y1500D02*
D03*
X17000Y500D02*
D03*
Y1500D02*
D03*
X16000D02*
D03*
Y500D02*
D03*
X14000Y1500D02*
D03*
Y500D02*
D03*
X11000Y1500D02*
D03*
X12000Y500D02*
D03*
Y1500D02*
D03*
X13000Y500D02*
D03*
Y1500D02*
D03*
X15000Y500D02*
D03*
Y1500D02*
D03*
X18000D02*
D03*
Y500D02*
D03*
D142*
X27000Y17028D02*
D03*
X32000D02*
D03*
X28000D02*
D03*
X29000D02*
D03*
X30000D02*
D03*
X31000D02*
D03*
D144*
X36625Y21000D02*
D03*
X38375D02*
D03*
X36625Y20000D02*
D03*
X38375D02*
D03*
X36625Y19000D02*
D03*
X38375D02*
D03*
X36625Y18000D02*
D03*
X38375D02*
D03*
X36625Y17000D02*
D03*
X38375D02*
D03*
X36625Y16000D02*
D03*
X38375D02*
D03*
D146*
X18400Y17424D02*
D03*
Y18577D02*
D03*
X17400Y17424D02*
D03*
Y18577D02*
D03*
X13400Y17424D02*
D03*
Y18577D02*
D03*
X14400Y17424D02*
D03*
Y18577D02*
D03*
X8400Y17424D02*
D03*
Y18577D02*
D03*
X9400D02*
D03*
Y17424D02*
D03*
X10400Y18577D02*
D03*
Y17424D02*
D03*
X12400Y18577D02*
D03*
Y17424D02*
D03*
X11400Y18577D02*
D03*
Y17424D02*
D03*
X7400D02*
D03*
Y18577D02*
D03*
X16400D02*
D03*
Y17424D02*
D03*
X15400Y18577D02*
D03*
Y17424D02*
D03*
X19400Y18577D02*
D03*
Y17424D02*
D03*
X34000Y21424D02*
D03*
Y22577D02*
D03*
X30000D02*
D03*
Y21424D02*
D03*
X29000Y22577D02*
D03*
Y21424D02*
D03*
X31000Y22577D02*
D03*
Y21424D02*
D03*
X32000Y22577D02*
D03*
Y21424D02*
D03*
X33000D02*
D03*
Y22577D02*
D03*
X27000Y21424D02*
D03*
Y22577D02*
D03*
X28000Y21424D02*
D03*
Y22577D02*
D03*
X8400Y22577D02*
D03*
Y21424D02*
D03*
X7400Y22577D02*
D03*
Y21424D02*
D03*
X16400D02*
D03*
Y22577D02*
D03*
X12400D02*
D03*
Y21424D02*
D03*
X11400Y22577D02*
D03*
Y21424D02*
D03*
X13400Y22577D02*
D03*
Y21424D02*
D03*
X14400Y22577D02*
D03*
Y21424D02*
D03*
X15400D02*
D03*
Y22577D02*
D03*
X9400Y21424D02*
D03*
Y22577D02*
D03*
X10400Y21424D02*
D03*
Y22577D02*
D03*
X25000Y21424D02*
D03*
Y22577D02*
D03*
X21000D02*
D03*
Y21424D02*
D03*
X20000Y22577D02*
D03*
Y21424D02*
D03*
X22000Y22577D02*
D03*
Y21424D02*
D03*
X23000Y22577D02*
D03*
Y21424D02*
D03*
X24000D02*
D03*
Y22577D02*
D03*
X18000Y21424D02*
D03*
Y22577D02*
D03*
X19000Y21424D02*
D03*
Y22577D02*
D03*
X20000Y3577D02*
D03*
Y2424D02*
D03*
X24000D02*
D03*
Y3577D02*
D03*
X25000Y2424D02*
D03*
Y3577D02*
D03*
X23000Y2424D02*
D03*
Y3577D02*
D03*
X22000Y2424D02*
D03*
Y3577D02*
D03*
X21000D02*
D03*
Y2424D02*
D03*
X11000Y3577D02*
D03*
Y2424D02*
D03*
X15000D02*
D03*
Y3577D02*
D03*
X16000Y2424D02*
D03*
Y3577D02*
D03*
X14000Y2424D02*
D03*
Y3577D02*
D03*
X13000Y2424D02*
D03*
Y3577D02*
D03*
X12000D02*
D03*
Y2424D02*
D03*
X18000Y3577D02*
D03*
Y2424D02*
D03*
X17000Y3577D02*
D03*
Y2424D02*
D03*
D159*
X5200Y1100D02*
D03*
X53500Y24100D02*
D03*
X3282Y24450D02*
D03*
D170*
X3116Y11344D02*
D03*
Y13620D02*
D03*
D171*
X1659Y10780D02*
D03*
Y14185D02*
D03*
D172*
X3305D02*
D03*
Y10780D02*
D03*
D173*
X31500Y18798D02*
D03*
X27500D02*
D03*
X41732Y2876D02*
D03*
X2880Y16630D02*
D03*
Y18630D02*
D03*
D174*
X1161Y1904D02*
D03*
X3839D02*
D03*
D175*
X34000Y24500D02*
D03*
X16400Y24500D02*
D03*
X25000D02*
D03*
X20000Y500D02*
D03*
X11000D02*
D03*
D176*
X32335Y1181D02*
D03*
X35681D02*
D03*
D177*
X14376Y12327D02*
D03*
X13576D02*
D03*
X13976Y9327D02*
D03*
D178*
X5500Y3000D02*
D03*
X26000Y5000D02*
D03*
Y16000D02*
D03*
X6000Y22000D02*
D03*
X38000Y3000D02*
D03*
X35500Y22000D02*
D03*
D241*
X24438Y12000D02*
D03*
X26662D02*
D03*
X24438Y13000D02*
D03*
Y14000D02*
D03*
X26662Y13000D02*
D03*
Y14000D02*
D03*
D242*
X33661Y1094D02*
D03*
X28346D02*
D03*
D243*
X28264Y3378D02*
D03*
D244*
Y6280D02*
D03*
D245*
X33543Y6909D02*
D03*
D246*
X32146Y6878D02*
D03*
X31713D02*
D03*
X31280D02*
D03*
X30846D02*
D03*
X30413D02*
D03*
X29980D02*
D03*
X29547D02*
D03*
X29114D02*
D03*
D247*
X28559Y6909D02*
D03*
M02*
