M48
;Layer_Color=9868419
;FILE_FORMAT=2:4
INCH,TZ
;TYPE=PLATED
T02F00S00C0.0098
T03F00S00C0.0120
T05F00S00C0.0354
T06F00S00C0.0394
;TYPE=NON_PLATED
T07F00S00C0.0236
T08F00S00C0.0295
T09F00S00C0.0354
T10F00S00C0.0390
T11F00S00C0.0701
T12F00S00C0.1260
%
T02
X38590Y348
X39377
X40164
X40952
X41739
X42527
X43314
X44101
X44603Y285
X44889Y348
X45603Y285
X46603
X47251Y348
X47603Y285
X48039Y348
X48603Y285
X49603
X50603
X51188Y348
X51603Y285
X51976Y348
X52603Y285
X37802Y348
X36227
X30716
X29928
X29141
X28353
X27566
X26779
X25991
X19000Y250
X10243Y348
X8668
X7881
X6306
X5519
X4731
X3944
X3157
X2953Y768
X3661Y886
X1929Y807
X1582Y348
X2369
X794
X945Y860
X315Y807
X250Y2000
X315Y3228
X276Y4154
X1188Y4285
X1614Y4016
Y3819
Y3622
X2569Y3770
X2763Y4285
X3550
X4338
X4764Y4016
X5051Y4136
X5315Y4291
X5604Y4301
X6210Y5483
X6417Y5472
X6624
X3622Y5118
X2264Y5610
Y5846
Y6083
Y6319
X2598Y6654
X3031Y7165
X3352Y7144
Y7341
Y7537
X1969Y7756
X1582Y8222
X2369
X2763Y9009
X1975
X1448Y9324
X794Y9797
X1188Y10584
X866Y11004
X1582Y11371
X2369
X2763Y10584
X2244Y10295
X3819Y10512
X4370Y11614
X4803Y11654
X4731Y11371
X5640Y11988
X6700Y12159
X6575Y11014
X6024Y9114
X4731Y8222
X276Y7736
Y6516
X551Y6772
X762Y6606
X1043Y6378
X1339
X1634
X276Y5335
Y9035
X1188Y12159
X866Y12500
X1582Y12946
X2369
X2756Y12992
Y12795
Y12598
X3157Y12946
X4028Y12770
X3858Y12579
X3661Y13740
X3425
X4016Y13937
X3858Y14173
X4338Y13734
X5125
X5157Y13425
X5315Y14469
X5923
Y14764
Y15059
X6228
Y14764
Y14469
X6575Y14705
Y15630
X6722Y16112
X5519Y16096
X5551Y15610
X5125Y15308
X4338
X4646Y15650
X4731Y14521
X3550Y15308
X3850Y16130
X3157Y16096
X2369
X1582
X794
X1188Y15308
X1975
X2087Y14685
X1582Y14521
X794
X866Y14114
X1188Y13734
X1975
X2165Y13209
X1975Y12159
X3110Y11890
X276Y15413
X1975Y2710
X2500Y2376
X1512Y2163
X3944Y3497
X4338Y1135
X5912
X8273Y1200
X8661Y1024
X8275Y2710
X7881Y3497
X7094
X7283Y5472
X8031Y5276
X8622Y6024
X9183Y6014
X9949Y5707
X10197Y5472
X10243Y5072
X10267Y4640
X10551Y4646
X10866
X10591Y3898
X10315Y3661
Y3425
Y3189
X9961Y3583
X9456Y3497
X9173Y3346
X9683Y4645
X11510Y3930
X12500
X13504Y3957
X14449Y3986
X15472Y3878
X16470Y3986
X16542Y3497
X16460Y2480
X16542Y1923
X17460Y2480
X18000Y3000
X18511Y2710
X18819Y3445
X19528Y3720
Y2776
X20000Y3000
X20500Y2650
X20479Y1923
X20500Y1650
X21440
X21661Y1135
X22448
Y2710
X22000Y3000
X21535Y2697
X21000Y3000
X20479Y3497
X21535Y3839
X22000Y5531
X21000
Y5890
X20000
Y5531
X18898Y6122
X19449Y7264
X20443Y7323
X21417Y7283
X21398Y7598
X21444Y8410
X21673Y8238
X21575Y8839
X22323Y8563
X22244Y7894
X22343Y7431
X22382Y9409
X22372Y9656
X21267Y9797
X19692
X18905
X18117
X18511Y10584
X19298
X20086
Y12159
X20906Y11476
X22047Y10846
X22283Y12303
X21890Y13130
X20086Y13734
X18511
X17724
X17313Y13976
X17116Y14360
X16936Y13734
X16149
X15361
X14574
X13898Y13878
X13268Y13563
X13393Y12946
X13268Y11752
X13179Y10974
X12913Y9970
X12914Y9485
X12874Y9242
X12444Y9196
Y9551
X12267Y9374
Y9787
X13425Y9783
X13563Y9262
X13500Y8579
X14757
X14574Y9009
X14545Y10327
X14921Y10492
X14646Y10846
X14860Y11327
X15827Y11358
X16149Y10584
X15755Y9797
X16936Y9009
X17724
X18511
X20719Y8524
X16149Y7434
X15433Y7126
X14488
X14574Y7434
X13435Y7323
X12047Y7638
Y7992
X12376Y8091
X12358Y8352
X11811Y8878
X11073Y8858
X10720Y8968
X10817Y8376
X11181Y7992
Y7638
X11063Y6024
X11378Y5551
X12087Y6024
X12559Y5551
X12500Y2510
X11510
X10560
X11000Y3000
X12000
X13490Y2510
X14480
X14000Y3000
X15490Y2510
X17520Y3986
X18511Y4285
X18583Y1713
X19567Y1909
X19298Y1135
X16542Y6647
X15945Y6417
X16149Y12159
X16936
X17724
X18117Y12946
X17330
X16542
X15755
X14968
X15361Y12159
Y15308
X15630Y15965
X14803
X14180Y16096
X13566Y15679
X13032Y15965
X12126Y15728
X11818Y16096
X10866Y16043
X10906Y15532
X10354Y15571
X10243Y16096
X9921Y16043
X8846Y15858
X9055Y15650
X9264Y15441
X9321Y15020
X9311Y14260
X9547Y14390
X9783Y14266
X10020Y14390
X10256Y14266
X10236Y14783
X10679Y15167
X11654Y14980
X11968
X12087Y14449
X11289Y14557
X10817Y13986
X10969Y13455
X10621
X10217Y13389
X10728Y12917
X11220Y12927
X11693Y13045
X11772Y13642
X11713Y12366
X11829Y12143
X11508Y11977
X11467Y11578
X11831Y11524
X11693Y11155
X10679Y10968
Y10496
X10154
Y10968
Y11441
Y11913
X9629
Y11441
Y10968
Y10496
X9104
Y10968
Y11441
Y11913
X8356Y11913
X8012Y11785
X7759Y11982
X7487Y12159
X7087Y11890
X7821Y11330
X8120Y11332
X8238Y10664
X7815Y10738
X7874Y10023
X8120
Y9439
X7835Y9390
X7638Y9783
X8652Y9587
X8583Y9350
X8740Y8878
X8240Y8850
X8828Y9761
X10089Y9643
X9587Y9094
X11289Y10235
X10679Y11441
Y11913
X9360Y12897
X9016Y13468
X8425Y13291
X8593Y14059
X8120Y14183
X8012Y14528
X7677Y14163
X7362Y13858
X7087Y13504
X7106Y14902
X8169Y15994
X8120Y12400
X7122Y8461
X7795Y6850
X10500Y1500
X13150Y14469
X13189Y14823
X13622
X16496Y14783
X17330Y16096
X18117
X17900Y16350
X18511Y15308
X23061Y15748
X24065Y15768
X24023Y15308
X24724Y15463
X24416Y16096
X24518Y16348
X24438Y14000
Y13000
X23629Y12946
X23543Y12303
X22638
X22842Y12946
X22795Y11437
X23846Y11342
X24170Y11320
X24416Y11371
X24990Y11024
X25266Y11240
X25742Y11600
X25598Y12159
X26662Y12000
X26970Y11470
X27566Y11371
X27960Y12159
X29535
X30322
X31109
X31811Y12264
X31683Y13622
X31181
X30679
X30148Y13307
X29535Y13734
X28533Y13691
X28356Y13888
X27960Y13734
X26957Y14000
X26662
X26367
X26662Y13000
X27172Y15308
X27960
X28747
X29535
X30586Y15512
X30979
X31373
X31767
X32290Y16096
X33078
X33865
X33543Y15315
X32684Y15308
X32736Y13878
X32195Y13632
X33110Y13406
X33401Y13410
X34252Y14094
X35046Y13734
X35834
X36621
X37409
X37802Y12946
X38051Y12648
X37480Y11427
X36693Y12087
X36024Y9892
X35581
X35157
X34653Y9797
X34213Y9902
X32959Y10256
X32462Y10259
X31959Y10256
X31459Y10256
X30959Y10256
X30709Y9744
X31181Y9705
X30236Y9902
X29959Y10256
X29606Y9823
X29141Y9797
X28455Y9429
X28346Y8012
X28051
X27756
X27960Y7434
X27172
X27566Y6647
X26779
X27172Y5860
X27566Y5072
X27960Y4285
X28747
X29535
X30322
X31109
X31897
X32290Y5072
X32165Y5512
X33346Y5177
X33652Y5681
X34331Y5177
X34259Y4285
X35834
X36621
X37126Y4665
X36227Y5072
X35440
X35640Y6024
X36417Y6043
X36722Y7106
X37283Y6909
X37409Y7434
X36910Y7763
X37047Y8130
X37802Y8222
X35984Y8179
X34984Y8026
X34508Y8183
X34734Y6978
X35295Y6870
X32992Y7008
X32835Y6594
X32106Y7480
X32205Y7776
X32459Y8125
X32959Y8214
X31959Y8237
X31459Y8130
X31535Y7815
X31575Y7480
X30846Y7411
X30959Y7913
X30394Y7854
X29959Y8022
X29961Y7480
Y6673
X28632Y6791
X29094Y8130
X26890Y8917
X26887Y9173
X25991Y9797
X25204
X24750Y10250
X24810Y10584
X25598
X23819Y10059
X23556Y10285
X23543Y9665
X23740Y9193
X23622Y8671
X23629Y8222
X24416
X25204
X24810Y7434
X24023
X23235
X23189Y6565
X23629Y6647
X23937Y6565
X23514Y5630
X23000Y5531
X22520Y3878
X23504Y3839
X24567Y3957
X24416Y3497
X24488Y2657
X24416Y1923
X24510Y1650
X23480
X22480
X23000Y3000
X23543Y2657
X24000Y3000
X25000
X25598Y2710
X26385
X27172
X27960
X28747
X29535
X30322
X31109
X31897
X32290Y3497
X31503
X30716
X29928
X29141
Y1923
X29928
X30716
X31503
X32290
X33472Y2710
X34259
X35046
X35834
X36621
X37015Y1923
X36227
X35440
Y3497
X36227
X37409Y1135
X34259
X31109
X30322
X29535
X28353Y1923
X27566
X26779
X25991
X26385Y1135
X27172
X25598
X25991Y3497
X26779
X27566
X27172Y4285
X24685Y9193
X22904Y8346
X27566Y16096
X28356Y16181
X28533Y15971
X29000Y16185
X30472Y16240
X35440Y16096
X35834Y15308
X36621
X37409
X38031Y15197
X37008Y16043
X35046Y15308
X33346Y11496
X39429Y11742
X39424Y12254
X39882Y13012
X39803Y13524
X39459Y13976
X38983Y13734
X39055Y13465
X38196Y13734
X38375Y16000
X39567Y16161
X39681Y15941
X39528Y15748
X39281Y15276
X40669Y15148
X41076Y15184
X41378Y15177
X42286Y14958
X43708Y15308
X44508Y14380
X43243Y13986
X43701Y13509
X43720Y12498
X43917Y12500
X44115Y12492
X44449Y12717
X44276Y12922
X44567Y12323
X43228Y12008
Y12717
X42922Y12641
X42527Y11371
X42323Y11201
X42283Y10748
X41808Y10967
X41301Y11027
X40762Y11041
X40265Y11303
X40226Y11654
X39872Y11299
X40124Y10584
X40326Y10135
X40886Y10000
X41160Y10338
X41732Y10138
X42992Y10157
X43110Y10394
X43228Y11142
X43603Y9232
X44999Y9053
X45197Y9055
X45396Y9053
X45512Y9685
X45128Y9616
X45960Y9679
X45960Y9932
X45923Y10483
X45796Y10694
X45347Y10803
X45669Y11555
X45453Y13533
X46464Y16096
X46866Y15764
X47251Y16096
X48032Y15748
X47645Y15308
X48432
X49220
X49213Y15748
X48826Y16096
X49613
X50401
X50394Y15748
X50007Y15308
X50794
X51582
X51575Y15748
X52087Y15551
Y15236
X52283Y15030
X52254Y14360
X51968Y13630
Y13395
X51610Y13412
X51582Y13734
X51813Y12868
X52047Y12569
X52650Y12551
X52728Y12866
X52820Y13140
X53090
X53553Y13091
X53720Y13858
X53622Y16260
X53268Y16022
X52972Y16298
X52680Y16350
X52670Y16090
X52660Y15840
X52650Y15580
X52679Y11754
X52731Y11498
X52715Y11144
X52715Y10790
Y10436
Y10081
Y9727
Y9373
Y9018
X52654Y8669
X52468Y8368
X52763Y8222
X52182Y8158
X51838Y8071
X51484Y8067
X51130
X51301Y7661
X51655
X52010
X52083Y7064
X51728
X51374
X51020
X50665
X50311
X49957Y7069
X49617Y7170
X49355Y7408
X49250Y7747
X49887Y7708
X50238Y7661
X50592
X50947
X50530Y8305
X50647Y8640
X51417Y8858
X51260Y9055
X51417Y9291
X51260Y9528
X51142Y9882
X51398
X51309Y10321
X51100Y10451
X51193Y10680
X51061Y11144
X51073Y11535
X50663Y11660
X50400Y11660
X50028Y11628
X49764Y11693
X49468Y11632
X49488Y12527
X49936Y12541
X50669Y11299
X50007Y10584
X49220
X48432
X48110Y10591
X47645Y10584
X48110Y11063
Y10039
X47717Y9488
X48543
X49213
X49220Y9009
X49673Y8360
X50000Y9488
X52112Y9495
Y9849
Y10203
Y10558
X53157Y10584
X53560Y10520
X53550Y9797
X53157Y9009
X52112Y9140
X52039Y8794
X51707Y8670
X53550Y8222
X53058Y7295
X52763Y6647
X53550
X53157Y5860
X53550Y5072
X52763
X51976
X51180Y5010
X50401Y5072
X49613
X48826
X48432Y4285
X48039Y3497
X48189Y3248
X47756Y2923
X48432Y2710
X48780Y3002
X49488Y3248
X49613Y3497
X50401
X51188
X51976
X52763
X53550
X53157Y4285
Y2710
X53550Y1923
X52763
X53157Y1135
X50794
X50007
X49291Y1260
X49016Y1260
X48652Y1535
X47570Y1580
X46464Y1923
X46070Y2710
X45630Y3248
X45676Y3497
X46464
X46772Y3248
X47251Y3497
Y5072
X46464
X46070Y4285
X44889Y3497
X44488Y3209
X44101Y3497
X43708Y2710
X42920
X43314Y1923
X44101
X43708Y1135
X42920
X42133
X41346
X40558
X39771
X38983
X38196
X38590Y1923
X39377
X40164
X40952
X41739
X42527
X42920Y4285
X42323Y5610
X41181Y5650
X40984Y6722
X40571Y7057
X40236Y7421
X39577Y7763
X39696Y8308
X39449Y8312
X40354Y8701
X40157Y8937
X38983Y7434
X38820Y6918
X38196Y7434
X38189Y8130
X39997Y6316
X39961Y4665
X40164Y3497
X39377
X39771Y2710
X40558
X45090Y1390
X46070Y1135
X50401Y1923
X50229Y2387
X50794Y2710
Y4285
X50689Y5906
X50401Y6647
X51188
X51976
X49613
X48826
X48039
X47835Y5866
X49488Y5945
X47313Y7343
X47025Y7497
X46804Y7605
X46609Y7776
X45359Y7520
X44921Y7638
X44931Y8307
Y8524
X44642Y6987
X44406Y6917
X44159Y6978
X43898Y7108
X43708Y7434
X42920
X42913Y7835
X41890
X42133Y7434
X43874Y6480
X44189Y5992
X43411Y5778
X47559Y8455
X47874Y8456
X48150Y8465
X48110Y8898
X49134Y13878
X48917Y14291
X52195Y11852
X53110Y11190
X40709Y12648
X40663Y14035
X40482Y16270
X40669Y16457
X53957Y16298
X54350
X54488Y15787
X54930Y15657
X55380
Y15157
X55045Y15062
X54731Y15308
X54331Y15315
X53858Y15079
X54228Y14268
X54087Y13943
X54081Y13588
Y13234
Y12880
Y12525
Y12171
Y11817
Y11462
Y11108
Y10754
Y10399
Y10045
Y9691
Y9336
Y8982
Y8628
Y8273
X54071Y7919
X53828Y7661
X53966Y7117
X54284Y7274
X54528Y7520
X54638Y7821
X54646Y8268
Y8661
X54731Y9009
X54646Y9488
Y9843
Y10197
X54731Y10584
X54646Y10906
Y11260
Y11654
X54731Y12159
X54646Y12677
Y13071
Y13425
X54610Y13800
X54710Y14000
X54521Y14468
X55045Y13176
X55799
X56510
Y15080
X55799Y15062
X55125Y16096
X55519Y12159
X55125Y11371
X55519Y10584
X55125Y9797
X55519Y9009
X55125Y8222
X55519Y7434
X55125Y6647
X54338
X54731Y5860
X55519
X55125Y5072
X54338
X54731Y4285
X55519
X55125Y3497
X54338
X54731Y2710
X55519
X55125Y1923
X54338
X54731Y1135
X55519
X53944
Y2710
Y4285
Y5860
X57277Y5400
X53760Y11200
X53944Y16883
X54731
X55519
X55125Y17671
X54338
X54731Y18458
X55519
X55125Y19245
X54338
X53944Y20033
Y21608
X54230Y21410
X54240Y22730
X53944Y23182
X53760Y22441
X54250Y23830
Y24740
X55743Y20008
X53944Y18458
X60447Y19790
X53550Y19245
X52763
X51976
X51575Y19291
X51582Y20033
X52369
X53157
X53550Y20820
X52763
X51976
X51188
X50401
X49613
X48826
X48039
X47251
X46464
X45676
X44889
X44101
X43314
X43708Y20033
X44495
X44488Y19508
X44101Y19245
X43314
X42527
X42441Y19547
X42133Y20033
X41496Y20020
X41693Y20728
X41299Y20768
X40164Y20820
X39377
X39771Y21608
X38983
X38196
X38375Y21000
Y20000
Y19000
Y18000
Y17000
X40079Y17028
X40669Y16988
X41496Y16949
X41476Y17323
X41832Y17500
X41496Y17933
X40630Y17972
X40644Y18405
X40591Y18878
X41083Y18691
X40079Y17972
X39331Y17854
X39528Y18878
X39377Y22395
X40164
X40709Y21949
X41378Y22146
X41772Y22776
X40906Y22815
X40952Y23970
X41649Y24029
X41670Y24750
X42670
X43670
X44670
X45500Y24740
X45676Y23970
X46464
X47251
X48039
X48826
X49613
X50401
X51188
X51976
X52763
X52500Y24740
X51500
X50500
X49500
X48500
X47500
X46500
X46857Y23182
X47645
X48432
X49220
X50007
X50794
X51582
X52369
X53157
X52763Y22395
X51976
X51188
X50401
X49613
X48826
X48039
X47251
X46464
X45676
X44889
X44101
X43314
X42527
X42664Y22992
X42920Y23182
X44495
X45283
X46070
Y21608
X46857
X47645
X48432
X49220
X50007
X50794
X51582
X52369
X53157
Y18458
X52369
X51582
X51575Y18110
X50794Y18458
X50394Y18110
X50401Y17671
X49613
X49213Y18110
X49220Y18458
X50007
X49613Y19245
X49213Y19291
X49220Y20033
X48432Y18458
X48032Y18110
X47645Y18458
X46857
X46850Y18110
X46464Y17671
X46850Y16929
X46070Y18458
X45669Y18110
X45283Y18458
X44679Y17951
X44488Y18831
X43708Y18458
X42992Y18642
X42920Y20033
X42721Y21528
X42126Y21752
X44495Y21608
X45283
X44889Y23970
X44101
X40164
X39377
X39670Y24750
X40670
X38670
X38983Y23182
X39771
X38196
X38590Y22395
X46857Y20033
X46850Y19291
X46464Y19245
X49213Y16929
X50007Y16883
X52040Y17210
X52390Y17250
X52760Y17230
X52763Y17671
X53550
X53130Y16960
X52680Y16620
X36625Y17000
Y18000
Y19000
Y20000
X37205Y19587
X35591
X34882Y19665
X35000Y20492
X34399Y20148
X33780Y19823
X33110Y19587
X33622Y19016
X33819Y18780
X34528Y19035
X34567Y18091
X35472Y18169
X35354Y17303
X33472Y16883
X32684
X33078Y17671
X32677Y18071
X32684Y18458
X32362Y18839
X30551Y18996
X30322Y18458
X29764Y18130
X29528Y18917
X28504
X28452Y18210
X28258Y18386
X27953Y17894
X28740Y17933
X28504Y17028
X29000Y17051
X30492Y17067
X31506Y17077
X31503Y17671
X31500Y21250
X32500Y21250
X33470Y21110
X33472Y21608
X33000Y22000
X32000
X31503Y22395
X31500Y23000
X31503Y23970
X32290
X32500Y23000
X33500Y23000
X34000Y22000
X34360Y22330
X34450Y21210
X36625Y21000
X36621Y21608
X37409
X37802Y22395
X37015
X37409Y23182
X36621
X35834
X35530Y23510
X35440Y23970
X36227
X37015
X37802
X37670Y24750
X36670
X35670
X34670
X34653Y23970
X34540Y23690
X35046Y23182
X30500Y23000
X29500
X28500
X27500Y23000
X27566Y22395
X28000Y22000
X27000Y22000
X26385Y21608
X26288Y21161
X26314Y20886
X26339Y20610
X27500Y21250
X28500Y21250
X29500
X29535Y21608
X30000Y22000
X29000Y22000
X31000
X30500Y21250
X30716Y23970
X28353
X27566
X26779
X25991
X25204
X24416
X23629
X22842
X22500Y23000
X23500
X24500
X25480Y23160
X26385Y23182
X25000Y22000
X24000
X23000
X23500Y21021
X23415Y20776
X23386Y19665
X23629Y19245
X23937Y18996
X23386Y18563
X22717Y18602
X22559Y19705
X22500Y21021
X24564Y21033
X24567Y19665
X25709Y19134
X26260Y18799
X26654Y18720
X26378Y17972
X26594Y17510
X26457Y17106
X27480Y16988
X27008Y17894
X25374Y17569
X24764Y17657
Y18169
X24626Y16880
X23346Y16909
X23015Y16932
X23629Y17671
X22027Y17579
X21661Y16883
X20873
X20669Y17618
X20873Y18458
X20591Y18917
Y19665
X21457
X21299Y19035
X22323Y18996
X22415Y20776
X21500Y21021
X21260Y20610
X20945Y20689
X20276Y20531
X19415Y20776
X19528Y21240
X18553Y21021
X18511Y21608
X18520Y22040
X19000Y22000
X20000
X20479Y22395
X20500Y23000
X20479Y23970
X21267
X21500Y23000
X22000Y22000
X21000
X19500Y23000
X18500
X18000Y22000
X17330Y22395
X16936Y23182
X17330Y23970
X17210Y24580
X15755Y23970
X14968
X14180
X13900Y23000
X13890Y22160
X13400Y22000
X12890Y21990
X12999Y21608
X12900Y21129
X12953Y20217
X12212Y20033
X11968Y20098
X11424Y20033
X10669Y20453
X9850Y20033
X9900Y21129
X9850Y21608
X9890Y22020
X9400Y22000
X8400
X7881Y22395
X7900Y23000
X7881Y23970
X8668
X8900Y23000
X9900
X10900
X10890Y22050
X10400Y22004
X11400Y22000
X11818Y22395
X11900Y23000
X12900Y23000
X12605Y23970
X11818
X11031
X10243
X7094
X6969Y22776
X7400Y22000
X6890Y21201
X7110Y20350
X7570Y20130
X8275Y20033
X8701Y20335
X8900Y21129
X7950
X7874Y18799
X6918Y18802
X6890Y17618
X7400Y18000
X7881Y17671
X7913Y17323
X9882
X10870
X11890
X11818Y17671
X11400Y18000
X12400
X13400
X12999Y18458
X12900Y18792
X11910
X10900
X9900
X9850Y18458
X9400Y18000
X10400
X12880Y17323
X13937
X14882
X14968Y17671
X15400Y17705
Y18000
Y17410
X16400
Y17705
Y18000
X16936Y18458
X17330Y19245
X18117
X17913Y18839
X18898Y18917
X18905Y19245
X18396Y19616
X18400Y18000
X18905Y17671
X19400Y18000
X18920Y16770
X17900Y17100
X17695Y16636
X17400
X17105
X16542Y19245
X14882Y18799
X13898
X14400Y18000
X13898Y20295
X14803Y20413
X14900Y21129
X15900
X15669Y20531
X15860Y22060
X15400Y22000
X14968Y22395
X14900Y23000
X15900
X16400Y22000
X16936Y21608
X16890Y21129
X14400Y22000
X12400
X11900Y21129
X19692Y23970
X6306
X5519
X4731
X3944
X3000Y23900
X2940Y23240
X3204Y22740
X3962Y22101
X4731Y22395
X5125Y23182
X5912
X6700
X6772Y24705
X5669
X4331
X4338Y23182
X3944Y20820
X3157
X2369
X1582
X794
X1188Y21608
X1975
X2763
Y20033
X3550
X4338
X4646Y19626
X4900Y19130
X5195
X5490
X5300Y18610
X4646Y18642
X4731Y17671
X5519
X5866Y16831
X4646Y16634
X3550Y16883
X3944Y17671
X3157
X2369
X1582
X794
X1188Y18458
X1975
X2369Y19245
X3157
X3780Y19114
X3550Y18458
X1582Y19245
X794
X1188Y20033
X1975
X1380Y22240
X1600Y22500
X1380Y22740
X1600Y23000
X1380Y23240
X1520Y23770
X1380Y24240
X350Y24720
X2550Y24710
X250Y21750
X1188Y16883
X1975
X5519Y20820
X6203Y20637
X6700Y20033
T03
X4459Y5108
Y5581
Y6053
X4931
X5404
Y5581
Y5108
X4931
Y5581
T05
X23000Y500
X24000
X25000
X22000
X21000
X20000
X18000
X17000
X16000
X15000
X14000
X13000
X12000
X11000
Y1500
X12000
X13000
X14000
X15000
X16000
X17000
X18000
X20000
X21000
X22000
X23000
X24000
X25000
Y23500
Y24500
X24000
Y23500
X23000
Y24500
X27000Y24500
X28000
Y23500
X29000
Y24500
X30000
X31000
Y23500
X32000
X33000
X34000
Y24500
X33000
X32000
X30000Y23500
X27000
X22000Y23500
Y24500
X21000
X20000
X19000
Y23500
X20000
X21000
X18000
Y24500
X16400
X15400
X14400
Y23500
X15400
X16400
X13400
X12400
Y24500
X13400
X11400
Y23500
X10400
X9400
Y24500
X10400
X8400
Y23500
X7400
Y24500
T06
X38583Y23622
T07
X3116Y11344
Y13620
T08
X32335Y1181
X35681
T09
X1161Y1904
X3839
T10
X13976Y9327
X14376Y12327
X13576
T11
X41732Y2876
X31500Y18798
X27500
X2880Y18630
Y16630
T12
X5500Y3000
X26000Y5000
Y16000
X38000Y3000
X35500Y22000
X6000Y22000
M30
