M48
;Layer_Color=9868419
;FILE_FORMAT=2:4
INCH,TZ
;TYPE=PLATED
T01F00S00C0.0039
;TYPE=NON_PLATED
%
T01
X982Y5827
X1695
X1968Y6419
X1898Y7127
X1695Y7106
X1514Y7566
X1171Y7565
X787Y7559
X570Y7724
X982Y7106
X570Y6444
X2490Y6161
X3740Y6417
X4016Y7402
X4252
X4621Y7060
X4857
X5236Y6890
X5760Y7077
X5636Y7306
X6220Y7441
X6181Y6339
X6535Y6437
Y6575
X6713
Y6437
X5827Y6457
Y8819
X5866Y9291
X5836Y9926
X5217Y9657
X4843Y9685
X4370Y10197
X3532Y10025
X4451Y9048
X5236Y10709
X5748Y11260
X6161Y11289
X6476Y10571
X6613Y9700
X6674Y9428
X6732Y12480
Y12874
X6181
Y12480
X5669
Y12874
X5079
Y12480
X5039Y12087
X5116Y11747
X5896Y12106
X3898Y12008
X4055Y12441
X4291Y13189
X4803Y13169
X3089Y13873
X3245Y15310
X2875Y15290
X4724Y3780
X5315Y4094
X5709
X6526Y4453
X6526Y4606
X6722
X6722Y4453
X6457Y3622
X6614Y2795
X6339Y2244
X5394Y1890
X4528Y2480
X7795Y2165
X8819Y2205
X9370Y2756
X9685
X9330Y4950
X9173Y5079
X9843Y5236
X10787Y4961
X11142Y5787
X11299Y6063
X10718Y8002
X10207
X9370Y8287
X9478Y8663
X9203Y9498
X9134Y9812
X9183Y10102
X9341
X9498
X9656
X9813
X9970
X10128
X10285
X10443
X10600
X10758
X10915
X10827Y9417
X11250Y9492
X11368Y9610
X11487Y9728
X11605Y9847
X11723Y9965
X13309Y10008
X12835Y11142
X12195Y11220
X12392Y12150
X11963Y12360
X11971Y12900
X12844Y13294
X13780Y13228
Y12677
X14203Y12687
X14202Y13433
X14567Y11742
X15581Y8258
X15163Y7351
X15118Y6378
X18474Y6663
X18533Y6841
X18474Y5846
X18612Y5719
X18829Y5600
X19744Y6073
X19646Y6693
X19764Y6850
X20000Y7205
X20118Y7854
X20719Y7815
X19468Y7913
X19833Y8425
X18504Y8238
X19404Y6530
X20157Y6535
X20472Y6663
X21132Y6860
X21703Y6801
X21437Y5640
X22136Y9089
X20935Y10659
X20551Y11289
X20531Y11732
X20856Y12028
X20930Y14311
X20763
X21097
X21265
X21432
X21599
X21767
X21432Y15532
X21265Y15797
X21381Y15978
X21599Y15965
X21781Y15965
X22451Y15866
X21097Y15659
X20930Y15974
X20763Y16127
X20531Y16339
X20571Y15689
X19400Y15974
X10608Y13834
X10020Y13704
X9547
X9311
X9139
X9656Y12307
X9813
X9970
X10128Y12307
X10285Y12307
X10443
X7874Y12480
Y12874
X7323
Y12480
X7065Y13243
X7126Y10866
X7648Y10915
X7785Y10433
X8061Y10541
X8711Y10574
Y10732
X8711Y10889
X8711Y11047
Y10417
Y10259
X8346Y9813
X8297Y9646
X9813Y9803
X6919Y10000
X7028Y10128
X7136Y10266
X6919Y8976
X6886Y8642
X6969Y8268
X7008Y7756
X7835Y7283
X8346Y7087
X8740Y6496
X8551Y5415
X24843Y4911
X25059Y4203
X26348Y8583
X27431Y8346
X27165Y9400
X27717Y9744
X28406Y9774
X28959Y9429
X29459
Y8720
X28959
X29961Y8760
X30459Y8720
Y9429
X31959
X32459
X32959
X33337Y9439
X33455Y8819
X32959Y8720
X32459
X31959
X33248Y7648
X33642Y7657
X33622Y8002
X33996Y7480
X33780Y7106
X33543
X33307
X32992Y7323
X32736Y6919
X33248Y6624
X33327Y6191
X32362Y6417
X32008Y6024
X31457Y6811
X30571Y6878
X34321Y6693
X34774Y6762
Y7352
X34606
X34587Y7165
X35128Y7549
X34921Y7815
X35699Y7559
X36220Y7530
X36508Y8720
X37008
Y9429
X36508
X38008
X37707Y9754
X38008Y8720
X38083Y5827
X37313Y5482
X34843Y8829
X34816Y11704
X34649
X34482
X34314
X34984
X35256Y11663
X35719Y11211
X34813Y12205
X34144Y12303
X33901Y12267
X33809Y12470
X33642Y12638
X33976Y12750
X34147Y13374
X34314
X34482
X34649
X34816
X34984
X35197Y13258
X33199Y13829
X33484Y14754
X33976Y14990
X31767Y15118
X31373
X30979
Y14724
X31373
X31767
X30586
X30586Y15118
X29300Y15070
X26339Y14951
X24557Y14892
X23425Y14380
X23541Y12000
X24018
X24104Y12490
X25197Y12500
X27785Y13337
X28587Y11822
X28711Y11554
X28959Y10965
X29959
Y11307
X30459Y10965
Y11697
X27756Y11004
X27147Y10515
X22520Y9843
X22500Y9075
X23081
X37766Y16486
X38967Y16506
X38898Y15532
X38307Y15374
X39469Y15039
X39715Y14390
X40177
X40171Y14173
X40319Y13750
X40407Y13406
X40634Y13420
X40984Y13494
X41407Y13514
Y12934
Y12354
Y11774
X41382Y11476
X40982Y11664
X40752Y11664
X40522Y11664
X40514Y11880
X40035Y12036
Y12356
Y12676
X39810
X39616Y12815
X39557Y13051
X39035Y12894
X38927Y12697
X39061Y12512
X38386Y12707
X39124Y11693
X39098Y11312
X39488Y10463
X39577Y9951
X39724Y10089
X40144Y10899
X40832Y10842
X40791Y10561
X40634Y10620
X41478Y10047
X41476Y9636
X40541Y8760
X39026Y9045
X39459Y8031
X38583Y5827
Y5443
X41732Y5039
X41112Y3868
X43848Y4449
X44242Y5059
X45118Y5906
X44752Y6289
X44400Y6663
X43996Y7352
X42844Y6683
X45610Y6309
X45984Y6811
X46339Y7244
X46437Y7549
X46654Y8268
X46280Y9154
X46299Y9567
X46294Y10723
X46142Y11344
X46260Y11968
X45906Y11929
X46772Y11870
X46968
X47205Y11850
X47574Y11909
X47756Y11378
Y10945
X47323
Y11378
X46766Y11217
X47323Y10256
X47756
Y9823
X47323
Y9134
X47756
Y8701
X48445Y8848
X48878
Y8415
X48445
X48563Y7864
X48455Y7480
X47579Y7825
X49567Y8701
X50000
Y9134
X49567
Y9823
Y10256
X50000
Y9823
X48878
Y10256
X48445
Y9823
Y11230
Y11663
X48878
Y11230
X49567Y11378
X50000
X50355Y11380
X50394Y10945
X50000
X49567
X49528Y12205
X48543
X48050Y13397
X48425Y13878
X47638
Y14665
X48425
X48032Y14272
X46850Y13976
Y14567
X45768Y14665
Y13878
X45645Y13381
X44980Y13878
Y14665
X44414Y14848
X44467Y14209
X44488Y13386
X44010Y13630
X43917Y12982
X43300Y13120
X42717Y12717
X42145Y12934
Y12354
Y11774
Y13514
X42579Y13632
X41801Y14045
X40791Y14488
X40653Y14370
X38829Y14321
X42354Y15883
X42860Y16410
X43837Y16236
X43990Y15250
X44763Y15754
X45669Y15748
X45374Y14272
X46881Y13398
X49370Y13081
X49685
X50276Y12638
X50984
X51063Y12244
X51024Y10906
Y10118
X51026Y9153
X52148Y10828
X52155Y11092
X52143Y11323
X52127Y11544
X52598Y13622
X52835
X53071
X53307
X53300Y13200
X53510Y13291
X53640Y13470
X53404Y14632
Y14868
X53168
X52932
Y14632
X53168
X52696
Y14868
X51575Y14567
X51083Y14665
Y13878
X50295
Y14665
X50689Y14272
X49213Y14567
X45553Y10787
X45008Y10464
X44968Y9802
X43996Y9636
X43396Y10266
X43524Y11171
X43780Y12008
X45856Y4764
X52598Y6969
X53346
Y7756
X52598
X53790Y14060
Y14310
X53800Y14570
X53986Y16013
X54606Y15550
X51083Y19193
X50295
Y19980
X51083
X50689Y19587
X48425Y19193
X47638
Y19980
X48425
X48032Y19587
X45768Y19193
X44980
Y19980
X45768
X45374Y19587
X45768Y17323
Y16535
X44980
Y17323
X45374Y16929
X44488
X43640Y17020
X47638Y17323
X48032Y16929
X48425Y17323
Y16535
X47638
X42703Y21026
X43127Y22984
X41597Y22974
X42126Y23819
X40679Y20453
X39439Y20276
X37864Y20541
X37224Y18494
X37136Y17500
X37205Y16516
X32510Y20285
X31427Y20482
X30128Y20659
X29321Y20059
X28504Y20226
X27480Y20719
X26762Y20728
X26358Y19813
X27461Y19370
X25994Y18553
X25994Y17992
X25591Y18150
X25276
X25276Y18553
X25591Y18819
X24764Y17343
X24488Y17205
X23435Y17500
X23268Y18091
Y18287
X22835Y18091
X21850Y18287
X21970Y16860
X22283Y16678
X16610Y20570
X10240Y19880
X9310Y19720
X8524Y19341
X9291Y16732
X10500Y16750
X11400
M30
